<?xml version="1.0" encoding="UTF-8" standalone="no"?>
<svg xmlns:xlink="http://www.w3.org/1999/xlink" height="72.55px" width="78.8px" xmlns="http://www.w3.org/2000/svg">
  <g transform="matrix(1.0, 0.0, 0.0, 1.0, -0.8, -4.85)">
    <path d="M7.6 70.4 Q2.95 68.4 1.6 68.4 4.3 66.05 7.1 64.9 23.65 60.85 32.5 60.7 38.4 60.6 44.1 62.55 50.85 64.9 55.35 65.35 64.15 66.2 79.6 63.9 78.35 68.95 76.45 71.0 71.15 76.6 57.35 76.9 50.85 76.9 45.1 75.4 39.35 73.9 32.85 73.9 29.1 73.9 22.15 75.65 15.2 77.4 10.85 77.4 8.1 77.4 3.1 76.4 4.9 74.6 7.6 70.4" fill="#bddfe6" fill-rule="evenodd" stroke="none"/>
    <path d="M67.5 20.95 L65.15 21.6 Q64.1 21.95 64.1 23.4 64.1 24.4 65.6 26.3 67.1 28.25 67.1 31.15 67.1 37.05 62.6 45.4 58.05 53.9 54.6 53.9 52.95 53.9 52.1 52.85 L52.9 51.25 Q54.25 48.0 54.9 38.85 55.5 29.95 57.15 26.5 59.85 20.85 66.95 20.85 L67.5 20.95 M37.25 5.95 L34.75 8.35 Q33.6 9.85 33.6 11.65 L36.7 15.3 Q39.9 18.7 40.1 19.4 41.1 23.25 41.1 28.9 41.1 35.9 39.65 41.45 37.4 49.9 32.35 49.9 30.95 49.9 29.6 49.0 L28.2 41.65 Q26.25 31.9 25.75 26.55 23.85 7.15 34.95 5.85 L37.25 5.95 M14.1 58.9 L12.25 56.55 Q6.05 50.15 3.45 44.1 -1.45 32.8 8.1 26.45 L8.95 26.05 Q6.6 30.0 6.6 30.9 L8.55 32.8 Q10.95 35.2 12.85 37.75 19.1 46.2 19.1 54.65 19.1 57.3 18.6 57.95 17.85 58.9 14.85 58.9 L14.1 58.9" fill="#e1e1e1" fill-rule="evenodd" stroke="none"/>
    <path d="M52.1 52.85 Q52.95 53.9 54.6 53.9 58.05 53.9 62.6 45.4 67.1 37.05 67.1 31.15 67.1 28.25 65.6 26.3 64.1 24.4 64.1 23.4 64.1 21.95 65.15 21.6 L67.5 20.95 Q74.25 22.1 75.0 27.5 75.6 31.75 72.4 39.95 L66.6 53.8 Q63.7 61.4 64.95 64.85 64.95 65.95 65.1 66.8 L58.7 66.55 Q56.4 63.9 54.3 61.95 L49.5 58.0 Q48.55 57.2 48.0 56.2 48.55 57.2 49.5 58.0 L54.3 61.95 Q56.4 63.9 58.7 66.55 L54.4 66.45 54.1 66.5 Q50.8 65.15 44.15 63.55 37.3 61.9 34.6 61.9 31.7 61.9 29.1 63.45 L24.75 66.65 24.0 67.2 25.9 65.0 Q28.9 61.3 29.7 56.1 28.9 61.3 25.9 65.0 L24.0 67.2 Q21.0 69.2 17.6 69.65 17.6 67.25 17.1 65.1 16.35 62.0 14.1 58.9 L14.85 58.9 Q17.85 58.9 18.6 57.95 19.1 57.3 19.1 54.65 19.1 46.2 12.85 37.75 10.95 35.2 8.55 32.8 L6.6 30.9 Q6.6 30.0 8.95 26.05 18.95 21.6 22.6 40.8 23.9 47.9 25.05 50.45 26.65 53.95 29.7 56.1 L29.95 52.35 29.6 49.0 Q30.95 49.9 32.35 49.9 37.4 49.9 39.65 41.45 41.1 35.9 41.1 28.9 41.1 23.25 40.1 19.4 39.9 18.7 36.7 15.3 L33.6 11.65 Q33.6 9.85 34.75 8.35 L37.25 5.95 Q49.95 7.15 49.95 21.85 49.95 27.0 48.45 34.95 46.95 42.85 46.95 46.85 46.95 52.8 47.4 54.7 L48.0 56.2 Q50.55 55.2 52.1 52.85" fill="#a4a4a4" fill-rule="evenodd" stroke="none"/>
    <path d="M67.5 20.95 L66.95 20.85 Q59.85 20.85 57.15 26.5 55.5 29.95 54.9 38.85 54.25 48.0 52.9 51.25 L52.1 52.85 Q50.55 55.2 48.0 56.2 48.55 57.2 49.5 58.0 L54.3 61.95 Q56.4 63.9 58.7 66.55 L65.1 66.8 Q64.95 65.95 64.95 64.85 63.7 61.4 66.6 53.8 L72.4 39.95 Q75.6 31.75 75.0 27.5 74.25 22.1 67.5 20.95 M48.0 56.2 L47.4 54.7 Q46.95 52.8 46.95 46.85 46.95 42.85 48.45 34.95 49.95 27.0 49.95 21.85 49.95 7.15 37.25 5.95 L34.95 5.85 Q23.85 7.15 25.75 26.55 26.25 31.9 28.2 41.65 L29.6 49.0 29.95 52.35 29.7 56.1 Q28.9 61.3 25.9 65.0 L24.0 67.2 24.75 66.65 29.1 63.45 Q31.7 61.9 34.6 61.9 37.3 61.9 44.15 63.55 50.8 65.15 54.1 66.5 L54.4 66.45 58.7 66.55 M14.1 58.9 L12.25 56.55 Q6.05 50.15 3.45 44.1 -1.45 32.8 8.1 26.45 L8.95 26.05 Q18.95 21.6 22.6 40.8 23.9 47.9 25.05 50.45 26.65 53.95 29.7 56.1 M14.1 58.9 Q16.35 62.0 17.1 65.1 17.6 67.25 17.6 69.65 21.0 69.2 24.0 67.2 M17.6 69.65 L12.1 69.4 M65.1 66.8 Q70.3 66.35 73.6 63.4 M54.1 66.5 Q50.6 66.9 47.6 68.9" fill="none" stroke="#000000" stroke-linecap="round" stroke-linejoin="round" stroke-width="2.0"/>
  </g>
</svg>
