<?xml version="1.0" encoding="UTF-8" standalone="no"?>
<svg xmlns:xlink="http://www.w3.org/1999/xlink" height="162.55px" width="150.25px" xmlns="http://www.w3.org/2000/svg">
  <g transform="matrix(1.0, 0.0, 0.0, 1.0, 75.1, 81.25)">
    <path d="M48.15 -72.6 Q54.65 -69.8 54.8 -66.4 L54.8 -66.25 54.65 -65.3 Q54.05 -63.1 50.55 -61.1 L46.85 -62.05 46.95 -62.05 49.4 -63.8 Q50.55 -65.0 50.55 -66.3 50.55 -69.35 44.1 -71.8 L48.15 -72.6 M-28.0 -77.55 L-8.05 -79.25 -6.45 -77.3 -23.6 -76.1 -28.0 -77.55 M43.15 -70.0 Q47.05 -68.3 47.1 -66.3 L47.1 -66.25 46.95 -65.5 Q46.45 -65.8 45.9 -66.05 L43.15 -67.1 43.15 -70.0" fill="#b3773c" fill-rule="evenodd" stroke="none"/>
    <path d="M57.6 -66.65 L57.6 -65.75 Q61.95 -55.95 65.0 -46.05 68.3 -45.7 69.75 -44.4 70.85 -43.4 70.9 -41.9 L71.15 -41.9 74.1 -24.4 74.1 -23.75 Q74.1 -20.45 71.1 -17.5 L71.55 -13.15 Q72.7 0.05 71.3 13.3 L73.8 15.2 74.55 16.7 75.0 18.2 75.0 18.35 75.15 18.35 75.15 21.55 69.4 39.5 69.3 39.75 Q68.3 42.05 65.8 44.2 L63.6 51.15 Q60.95 59.0 57.55 66.85 L57.55 67.1 56.75 68.95 Q54.85 71.95 48.5 74.45 L40.75 76.9 33.9 78.45 Q19.25 81.3 0.1 81.3 -23.7 81.3 -40.55 76.9 -45.15 75.7 -48.5 74.35 -52.65 72.7 -54.85 70.85 -56.2 69.7 -56.8 68.5 L-57.3 67.1 -57.35 66.85 -57.3 66.85 -58.45 64.15 Q-61.6 56.8 -63.95 49.45 L-65.65 43.95 Q-68.35 41.6 -69.15 39.0 L-75.1 18.35 -75.1 18.2 Q-74.55 16.95 -73.2 15.65 -72.2 14.6 -71.05 14.05 -72.55 0.2 -71.3 -13.55 L-70.9 -17.6 Q-73.85 -20.5 -73.85 -23.75 L-73.8 -24.4 -70.8 -41.9 -70.45 -41.9 Q-70.1 -43.2 -68.75 -44.4 L-67.5 -45.35 Q-66.15 -46.25 -64.55 -46.75 -61.6 -56.25 -57.35 -65.75 L-57.4 -66.25 -57.3 -67.05 -57.3 -67.1 -57.25 -67.3 Q-55.9 -72.9 -40.55 -76.85 -23.7 -81.25 0.1 -81.25 23.9 -81.25 40.75 -76.85 56.15 -72.85 57.5 -67.3 L57.6 -66.65 M59.8 -35.7 Q63.65 -38.05 64.0 -40.75 L63.0 -44.4 62.95 -44.45 62.45 -46.2 Q59.9 -54.55 56.4 -62.85 L56.15 -62.6 53.2 -60.5 50.75 -59.1 50.75 -59.05 49.15 -58.35 48.5 -58.05 43.7 -56.4 42.55 -56.1 39.8 -55.35 34.75 -54.2 32.3 -53.7 32.3 -53.75 30.95 -53.5 21.4 -52.2 20.15 -52.1 14.45 -51.65 6.15 -51.3 -12.6 -51.55 -18.9 -52.0 -24.25 -52.55 -24.3 -52.55 -31.75 -53.7 -34.4 -54.2 -39.65 -55.35 -42.15 -56.0 -42.4 -56.1 -44.45 -56.7 Q-46.7 -57.4 -48.5 -58.15 -52.05 -59.55 -54.85 -61.8 L-55.55 -62.4 -56.3 -64.4 -55.95 -63.4 Q-59.3 -55.4 -61.8 -47.35 L-63.7 -40.65 Q-63.45 -38.75 -61.35 -37.0 L-59.7 -35.8 -57.15 -34.45 -57.15 -34.5 -54.35 -33.3 -52.8 -32.75 -52.7 -32.75 -49.55 -31.75 -45.35 -30.65 -45.0 -30.6 -43.8 -30.3 -38.35 -29.2 -35.5 -28.75 -28.5 -27.75 -26.35 -27.5 -21.75 -27.05 -14.7 -26.6 -8.4 -26.35 -5.85 -26.25 2.0 -26.2 16.7 -26.7 29.55 -27.85 32.1 -28.2 38.35 -29.15 38.5 -29.2 44.8 -30.5 50.05 -31.8 52.4 -32.55 55.2 -33.5 58.35 -34.9 58.4 -34.95 59.8 -35.7 M50.55 -61.1 Q54.05 -63.1 54.65 -65.3 L54.8 -66.25 54.8 -66.4 Q54.65 -69.8 48.15 -72.6 44.5 -74.2 38.75 -75.55 L30.45 -77.2 Q21.3 -78.7 10.4 -79.2 L10.25 -79.2 -8.05 -79.25 -28.0 -77.55 -38.55 -75.55 Q-44.85 -74.05 -48.65 -72.25 -54.6 -69.6 -54.55 -66.25 -54.6 -64.45 -52.8 -62.85 -51.9 -62.0 -50.45 -61.15 -48.5 -60.05 -45.6 -59.05 -42.6 -58.0 -38.55 -57.0 L-37.35 -56.75 Q-26.5 -54.3 -12.65 -53.55 L-11.9 -53.5 Q-6.15 -53.2 0.1 -53.2 6.95 -53.2 13.2 -53.55 22.8 -54.1 31.0 -55.45 L36.9 -56.6 45.75 -59.0 Q48.6 -60.05 50.55 -61.1 M44.1 -71.8 Q50.55 -69.35 50.55 -66.3 50.55 -65.0 49.4 -63.8 L46.95 -62.05 46.85 -62.05 Q43.15 -60.05 35.75 -58.45 L32.9 -57.85 30.35 -57.4 Q21.85 -56.0 11.6 -55.5 6.1 -55.2 0.05 -55.2 L-10.2 -55.4 -27.1 -56.9 -33.3 -57.95 -35.65 -58.45 Q-40.95 -59.6 -44.35 -60.95 L-46.75 -62.05 -48.9 -63.45 -49.25 -63.8 Q-50.45 -65.0 -50.45 -66.3 -50.45 -69.15 -44.7 -71.5 -41.2 -72.95 -35.65 -74.15 L-23.6 -76.1 -6.45 -77.3 8.55 -77.25 25.95 -75.85 35.75 -74.15 Q40.8 -73.05 44.1 -71.8 M-39.6 -61.35 L-29.4 -59.15 -21.45 -58.1 -8.6 -57.3 Q-4.45 -57.15 0.1 -57.15 L4.4 -57.15 28.35 -58.95 33.6 -59.85 Q42.35 -61.6 45.45 -63.75 L43.75 -64.75 42.4 -65.3 40.55 -65.95 27.9 -68.65 25.9 -68.95 0.1 -70.4 0.0 -70.4 -23.6 -69.2 -28.25 -68.55 -28.25 -68.6 -38.9 -66.4 Q-43.3 -65.2 -45.25 -63.75 -43.75 -62.7 -40.75 -61.7 L-39.6 -61.35 M43.15 -67.1 L45.9 -66.05 Q46.45 -65.8 46.95 -65.5 L47.1 -66.25 47.1 -66.3 Q47.05 -68.3 43.15 -70.0 39.7 -71.5 33.3 -72.75 L25.9 -73.9 8.4 -75.25 -6.6 -75.3 -23.6 -74.2 -33.15 -72.75 Q-40.7 -71.3 -44.1 -69.45 -46.95 -68.0 -46.9 -66.25 L-46.8 -65.55 -44.1 -66.75 Q-40.75 -68.05 -35.65 -69.15 L-23.6 -71.1 -6.6 -72.3 8.4 -72.25 8.55 -72.25 25.9 -70.85 35.75 -69.15 Q40.1 -68.2 43.15 -67.1 M17.85 -3.0 L11.05 -2.65 11.05 -2.6 -8.0 -2.5 -8.35 -2.55 -8.35 -2.5 -15.8 -2.85 -28.7 -4.05 Q-37.85 -5.15 -45.85 -7.05 L-45.9 -7.05 -60.1 -11.3 -61.55 -11.9 -61.7 -11.95 -64.75 -13.4 Q-66.7 -14.4 -68.25 -15.45 L-68.3 -15.5 -68.6 -12.55 Q-69.6 0.3 -68.5 13.25 L-68.05 17.35 -68.1 17.35 -68.1 18.35 -67.8 19.1 Q-67.75 21.6 -64.45 23.85 -61.9 25.55 -57.35 27.1 L-55.25 27.8 -54.35 28.05 -50.75 29.0 -45.7 30.15 -43.0 30.65 -40.4 31.1 -37.35 31.6 -34.95 31.95 -23.25 33.2 -19.1 33.45 -18.8 33.5 -15.75 33.65 -6.95 33.95 -5.9 34.0 1.8 34.05 4.05 34.0 6.15 34.0 17.8 33.55 19.3 33.45 21.95 33.3 23.9 33.15 24.15 33.1 26.35 32.95 28.8 32.65 28.8 32.7 30.4 32.5 30.4 32.45 36.6 31.75 38.25 31.5 38.9 31.4 41.35 31.0 47.15 29.85 53.45 28.35 53.7 28.25 54.9 27.95 57.6 27.1 62.9 24.9 Q67.95 22.2 68.05 19.1 L68.25 18.35 68.25 17.95 68.8 12.85 Q69.85 0.4 68.95 -11.85 L68.65 -15.5 68.4 -15.35 Q66.2 -13.9 63.15 -12.5 L61.9 -11.95 61.85 -11.9 61.8 -11.9 61.7 -11.85 61.7 -11.9 60.95 -11.55 47.35 -7.3 42.25 -6.2 41.9 -6.1 37.95 -5.35 17.85 -3.0 M43.1 -24.25 L36.95 -22.95 Q27.65 -21.25 17.05 -20.5 L0.15 -19.9 -15.1 -20.35 Q-31.3 -21.4 -44.45 -24.65 L-50.0 -26.15 Q-55.3 -27.75 -59.2 -29.45 L-62.05 -30.85 -62.2 -30.95 -62.5 -31.1 -65.45 -32.95 -65.55 -33.0 -67.8 -34.9 -69.25 -36.55 -71.25 -24.4 -71.3 -23.8 Q-71.3 -22.25 -70.45 -20.8 -69.65 -19.35 -68.05 -17.95 L-66.1 -16.55 -65.9 -16.4 -64.55 -15.6 -59.6 -13.35 Q-55.65 -11.8 -50.35 -10.4 L-45.75 -9.3 Q-32.35 -6.25 -15.75 -5.3 L0.1 -4.85 17.75 -5.4 Q28.5 -6.1 37.85 -7.7 L44.65 -9.0 56.7 -12.2 62.95 -14.7 66.05 -16.35 68.35 -18.0 69.05 -18.65 69.05 -18.6 69.85 -19.5 70.7 -20.75 Q71.55 -22.25 71.55 -23.8 L71.5 -24.4 69.55 -36.5 68.05 -34.8 67.45 -34.25 65.9 -33.0 65.65 -32.85 Q63.6 -31.45 60.85 -30.1 L55.95 -28.05 43.4 -24.3 43.1 -24.25 M16.95 -22.9 Q27.55 -23.6 36.75 -25.25 L48.6 -27.9 Q53.6 -29.3 57.35 -30.8 L63.4 -33.85 65.35 -35.3 67.4 -37.5 Q68.65 -39.35 68.7 -41.3 L68.65 -41.9 68.95 -41.9 68.35 -42.65 67.25 -43.65 65.55 -44.25 66.25 -41.9 66.55 -41.9 66.6 -41.25 66.55 -40.7 Q66.35 -38.9 64.9 -37.25 63.3 -35.45 60.2 -33.8 L56.05 -31.95 Q52.25 -30.5 47.1 -29.15 L36.6 -26.9 Q27.45 -25.35 16.8 -24.7 L0.15 -24.2 Q-7.7 -24.2 -14.85 -24.6 -31.1 -25.5 -44.0 -28.45 L-46.8 -29.15 Q-52.15 -30.5 -56.05 -32.05 -59.5 -33.4 -61.8 -34.9 -63.55 -36.05 -64.6 -37.2 -66.2 -39.0 -66.3 -40.95 L-66.25 -41.9 -66.0 -41.9 -65.25 -44.55 -65.55 -44.4 -65.85 -44.2 -68.25 -41.95 -68.4 -41.55 -68.4 -41.3 Q-68.4 -39.4 -67.15 -37.55 L-65.05 -35.25 -62.1 -33.25 Q-60.0 -32.0 -57.15 -30.85 -53.4 -29.3 -48.3 -27.9 L-44.2 -26.85 Q-31.2 -23.75 -14.95 -22.8 L0.15 -22.35 16.95 -22.9 M67.35 24.45 Q65.5 25.8 62.65 27.05 61.15 27.7 59.6 28.3 55.55 29.75 50.05 31.1 L38.2 33.45 17.7 35.6 Q9.35 36.05 0.15 36.05 -8.1 36.05 -15.65 35.7 L-31.25 34.35 -49.85 31.1 Q-55.5 29.75 -59.65 28.2 L-64.2 26.25 -67.1 24.45 Q-70.2 22.15 -70.5 19.6 L-70.55 18.7 -70.5 18.45 -70.5 18.4 -70.8 15.95 -71.85 16.7 -72.7 18.45 -72.75 18.95 Q-72.75 20.0 -72.35 21.0 L-72.2 21.35 Q-71.55 22.85 -70.05 24.25 L-67.25 26.35 -60.8 29.4 Q-56.8 30.95 -51.4 32.35 L-42.35 34.35 Q-30.2 36.65 -15.6 37.5 L0.15 37.9 17.65 37.35 Q28.55 36.7 38.15 35.15 L51.65 32.35 Q56.95 30.95 61.0 29.45 L62.45 28.85 Q65.0 27.75 67.0 26.65 L67.4 26.4 70.25 24.3 72.2 21.95 72.6 21.1 72.85 20.3 72.95 19.8 73.0 18.1 Q73.0 16.75 71.1 15.35 L70.7 19.7 Q70.35 22.2 67.35 24.45 M53.65 34.05 L53.5 34.1 42.8 36.65 42.7 36.65 38.05 37.5 Q28.45 39.1 17.55 39.8 L0.15 40.35 -15.5 39.9 Q-31.85 38.95 -45.3 36.05 L-52.2 34.35 -61.25 31.5 -61.25 31.45 -62.9 30.85 -62.9 30.8 -63.0 30.8 -66.25 29.3 -70.3 26.85 -65.75 40.85 -62.05 44.1 Q-61.7 44.3 -61.3 44.55 L-58.75 45.95 -56.1 47.15 Q-52.4 48.7 -47.4 50.1 L-43.7 51.05 Q-30.8 54.2 -14.7 55.2 L0.2 55.65 16.7 55.1 Q27.55 54.35 37.0 52.6 L40.75 51.85 51.85 48.85 59.75 45.65 63.1 43.6 63.35 43.4 Q66.3 41.2 67.15 38.75 L70.85 26.75 70.55 26.9 69.8 27.4 69.7 27.45 68.1 28.45 Q67.35 28.85 66.5 29.3 L62.15 31.2 53.65 34.05 M59.2 48.2 L56.7 49.3 56.65 49.3 44.4 53.25 43.55 53.5 43.55 53.45 42.3 53.8 20.4 57.25 20.4 57.2 17.2 57.5 16.5 57.55 -4.9 58.05 -14.5 57.65 -22.2 57.0 Q-31.6 56.05 -39.85 54.25 L-43.4 53.4 -43.7 53.35 -43.95 53.25 -45.2 52.95 -58.1 48.55 -60.75 47.2 Q-61.4 46.85 -62.0 46.55 L-60.75 50.4 -58.25 57.6 -57.0 60.9 -56.5 62.15 -56.5 62.25 -55.15 65.5 -55.1 65.65 -54.15 67.95 -53.8 68.5 Q-52.8 70.0 -50.45 71.35 L-44.5 73.85 -39.7 75.2 -38.55 75.5 Q-31.6 77.15 -23.4 78.1 L-21.1 78.35 -20.35 78.4 -12.7 79.0 -6.8 79.15 -6.8 79.2 -4.55 79.25 -4.55 79.2 5.25 79.25 14.6 78.9 19.8 78.5 20.8 78.4 30.55 77.15 34.4 76.45 34.2 76.45 37.25 75.85 39.95 75.2 42.95 74.4 45.45 73.6 45.75 73.5 Q48.6 72.45 50.55 71.4 L50.65 71.35 53.0 69.7 53.7 68.95 54.05 68.5 54.7 67.1 Q57.85 59.75 60.35 52.4 L62.2 46.65 59.2 48.2 M53.15 70.6 L53.7 68.95 53.15 70.6 M-54.6 70.1 L-58.25 57.6 -54.6 70.1" fill="#000000" fill-rule="evenodd" stroke="none"/>
    <path d="M53.2 -60.5 L56.15 -62.6 56.4 -62.85 Q59.9 -54.55 62.45 -46.2 L62.95 -44.45 63.0 -44.4 64.0 -40.75 Q63.65 -38.05 59.8 -35.7 L57.85 -44.4 Q55.85 -52.4 53.25 -60.35 L53.2 -60.5 M-15.8 -2.85 L-15.9 0.05 Q-29.5 -1.0 -45.95 -5.4 L-45.85 -7.05 Q-37.85 -5.15 -28.7 -4.05 L-15.8 -2.85 M63.15 -12.5 Q66.2 -13.9 68.4 -15.35 L68.65 -15.5 68.95 -11.85 Q69.85 0.4 68.8 12.85 L68.25 17.95 68.25 18.35 68.05 19.1 Q67.95 22.2 62.9 24.9 L63.7 13.6 Q64.05 5.15 63.75 -3.25 L63.15 -12.5 M-43.4 53.4 L-39.85 54.25 Q-31.6 56.05 -22.2 57.0 L-14.5 57.65 -14.25 60.85 Q-28.9 59.15 -43.1 55.55 L-43.4 53.4 M-13.25 72.8 L-12.7 79.0 -20.35 78.4 -20.9 72.3 -13.25 72.8 M-24.4 71.95 L-22.05 72.2 -21.1 76.7 -21.1 78.35 -23.4 78.1 Q-23.75 74.0 -24.1 72.85 L-24.4 71.95 M-36.5 70.3 L-34.35 70.7 -32.5 76.75 -34.1 76.45 -34.65 74.5 -36.5 70.3" fill="#845328" fill-rule="evenodd" stroke="none"/>
    <path d="M59.8 -35.7 L58.4 -34.95 58.35 -34.9 55.2 -33.5 55.05 -34.35 Q53.85 -41.1 52.05 -48.2 L49.15 -58.35 50.75 -59.05 50.75 -59.1 53.2 -60.5 53.25 -60.35 Q55.85 -52.4 57.85 -44.4 L59.8 -35.7 M52.4 -32.55 L50.05 -31.8 48.75 -44.75 Q48.75 -45.85 49.7 -45.85 51.0 -45.85 52.4 -32.55 M44.8 -30.5 L38.5 -29.2 38.35 -29.15 38.2 -32.2 34.75 -54.2 39.8 -55.35 42.1 -45.3 42.1 -45.2 42.3 -44.4 44.8 -30.5 M42.55 -56.1 L43.7 -56.4 Q46.0 -49.7 47.35 -36.85 L46.7 -36.35 Q45.1 -39.95 44.6 -47.65 L42.55 -56.1 M-38.9 -66.4 L-28.25 -68.6 -28.25 -68.55 -23.6 -69.2 0.0 -70.4 0.1 -70.4 25.9 -68.95 27.9 -68.65 40.55 -65.95 42.4 -65.3 43.75 -64.75 45.45 -63.75 Q42.35 -61.6 33.6 -59.85 L28.35 -58.95 4.4 -57.15 0.1 -57.15 Q-4.45 -57.15 -8.6 -57.3 L-21.45 -58.1 -29.4 -59.15 -39.6 -61.35 -39.8 -61.9 -40.05 -63.55 Q-40.05 -64.6 -38.9 -66.4 M0.0 -70.4 L-39.8 -61.9 0.0 -70.4 M-6.6 -72.3 L-23.6 -71.1 -23.6 -74.2 -6.6 -75.3 -6.6 -72.3 M-44.1 -66.75 L-46.8 -65.55 -46.9 -66.25 Q-46.95 -68.0 -44.1 -69.45 L-44.1 -66.75 M36.4 -64.0 L36.85 -64.05 37.05 -64.15 36.4 -64.0 4.4 -57.15 36.4 -64.0 M42.4 -65.3 L37.05 -64.15 42.4 -65.3 M37.95 -5.35 L41.9 -6.1 42.25 -6.2 47.35 -7.3 60.95 -11.55 61.7 -11.9 61.7 -11.85 61.8 -11.9 61.85 -11.9 61.9 -11.95 63.15 -12.5 63.75 -3.25 Q64.05 5.15 63.7 13.6 L62.9 24.9 57.6 27.1 57.9 23.5 58.2 -2.1 54.65 -1.35 55.55 17.75 54.9 27.95 53.7 28.25 53.45 28.35 53.55 25.85 Q53.8 21.6 53.55 15.8 L52.75 -0.95 47.7 0.15 47.75 1.2 Q48.2 15.5 47.15 29.85 L41.35 31.0 41.15 17.55 39.95 31.2 38.9 31.4 38.25 31.5 38.35 11.15 38.2 2.85 38.05 -3.25 37.95 -5.35 M-64.75 -13.4 L-61.7 -11.95 -61.55 -11.9 -60.1 -11.3 -45.9 -7.05 -45.85 -7.05 -45.95 -5.4 Q-53.2 -7.35 -60.95 -9.9 L-64.9 -11.25 -64.75 -13.4 M47.4 -6.4 L47.35 -7.3 47.4 -6.4 M47.4 -6.05 L47.7 0.15 47.4 -6.05 M44.4 53.25 L56.65 49.3 56.7 49.3 59.2 48.2 57.5 55.6 Q55.8 62.25 53.7 68.95 55.8 62.25 57.5 55.6 L59.2 48.2 62.2 46.65 60.35 52.4 Q57.85 59.75 54.7 67.1 L54.05 68.5 53.7 68.95 53.0 69.7 50.65 71.35 Q52.5 63.3 53.45 56.8 L48.6 58.35 45.45 73.6 42.95 74.4 Q45.15 65.5 45.65 62.2 L46.0 59.2 43.2 60.0 44.4 53.25 43.2 60.0 39.95 75.2 37.25 75.85 Q37.45 73.55 37.8 71.3 L38.85 61.2 36.25 61.55 35.5 66.75 36.35 58.95 Q26.3 61.05 16.2 61.75 L16.5 57.6 16.2 61.75 Q4.85 62.55 -6.6 61.6 L-14.25 60.85 -14.5 57.65 -4.9 58.05 16.5 57.55 16.5 57.6 16.7 57.55 17.2 57.5 20.4 57.2 20.4 57.25 42.3 53.8 43.55 53.45 43.55 53.5 44.4 53.25 M35.3 68.3 L34.2 76.45 34.4 76.45 30.55 77.15 31.8 69.25 35.3 68.3 M5.15 73.15 L15.25 72.35 14.6 78.9 5.25 79.25 5.15 73.15 M-7.1 73.05 L-4.75 73.15 -4.55 79.2 -4.55 79.25 -6.8 79.2 -6.8 79.15 -7.1 73.05 M19.8 78.5 L18.8 78.55 Q18.1 76.85 18.05 75.85 L18.0 72.0 20.85 71.55 21.0 76.65 20.8 78.4 19.8 78.5 M-60.75 50.4 L-62.0 46.55 Q-61.4 46.85 -60.75 47.2 L-58.1 48.55 -45.2 52.95 -43.95 53.25 -43.7 53.35 -43.4 53.4 -43.1 55.55 -60.0 50.65 -60.75 50.4 M-55.15 65.5 Q-48.75 67.85 -40.8 69.5 L-39.7 75.2 -44.5 73.85 -50.45 71.35 Q-52.8 70.0 -53.8 68.5 L-54.15 67.95 -55.1 65.65 -55.15 65.5 M-60.75 47.2 L-60.0 50.65 -60.75 47.2 M-21.45 -58.1 L27.9 -68.65 -21.45 -58.1" fill="#84572f" fill-rule="evenodd" stroke="none"/>
    <path d="M38.35 -29.15 L32.1 -28.2 Q30.5 -33.3 27.1 -38.15 26.25 -38.3 26.25 -37.3 L29.55 -27.85 16.7 -26.7 14.45 -51.65 20.15 -52.1 Q20.5 -44.4 21.45 -42.85 22.1 -43.0 22.1 -43.7 L21.4 -52.2 30.95 -53.5 Q31.05 -50.85 31.55 -47.5 L32.65 -39.25 33.5 -39.3 33.8 -39.6 34.0 -42.45 32.3 -53.7 34.75 -54.2 38.2 -32.2 38.35 -29.15 M2.0 -26.2 L-5.85 -26.25 -4.8 -46.7 Q-4.8 -47.15 -5.65 -47.55 -7.8 -44.45 -8.3 -34.35 L-8.4 -26.35 -14.7 -26.6 -12.6 -51.55 6.15 -51.3 7.4 -27.5 Q6.35 -37.95 4.5 -37.95 L3.65 -37.8 3.5 -36.9 3.8 -33.95 3.75 -33.0 2.0 -26.2 M-61.35 -37.0 Q-63.45 -38.75 -63.7 -40.65 L-61.8 -47.35 Q-59.3 -55.4 -55.95 -63.4 L-56.3 -64.4 -55.55 -62.4 -54.85 -61.8 Q-57.7 -53.1 -59.75 -44.4 L-61.35 -37.0 M48.15 -72.6 L44.1 -71.8 Q40.8 -73.05 35.75 -74.15 L25.95 -75.85 30.45 -77.2 38.75 -75.55 Q44.5 -74.2 48.15 -72.6 M36.9 -56.6 L31.0 -55.45 Q22.8 -54.1 13.2 -53.55 6.95 -53.2 0.1 -53.2 -6.15 -53.2 -11.9 -53.5 L-10.2 -55.4 0.05 -55.2 Q6.1 -55.2 11.6 -55.5 L13.2 -53.55 11.6 -55.5 Q21.85 -56.0 30.35 -57.4 L32.9 -57.85 36.9 -56.6 M-52.8 -62.85 Q-54.6 -64.45 -54.55 -66.25 -54.6 -69.6 -48.65 -72.25 L-44.7 -71.5 Q-50.45 -69.15 -50.45 -66.3 -50.45 -65.0 -49.25 -63.8 L-48.9 -63.45 -52.8 -62.85 M43.15 -70.0 L43.15 -67.1 Q40.1 -68.2 35.75 -69.15 L25.9 -70.85 25.9 -73.9 33.3 -72.75 Q39.7 -71.5 43.15 -70.0 M36.6 31.75 L30.4 32.45 Q29.55 25.6 26.75 25.6 25.05 25.6 23.9 33.15 L21.95 33.3 22.1 32.4 Q22.4 30.85 28.5 11.4 L30.85 3.5 38.2 2.85 38.35 11.15 36.6 31.75 M28.8 32.65 L26.35 32.95 Q26.75 30.3 27.3 27.7 28.35 29.75 28.8 32.65 M19.3 33.45 L17.8 33.55 Q18.25 18.8 18.0 4.05 L28.25 3.7 22.8 19.35 Q20.55 25.65 19.3 33.45 M6.15 34.0 L4.05 34.0 4.25 25.35 Q4.25 22.4 1.45 13.05 -0.2 7.6 -0.9 4.2 L6.25 4.25 6.5 18.6 6.15 34.0 M1.8 34.05 L-5.9 34.0 -6.5 18.05 -6.15 4.0 -3.3 4.1 Q-2.6 8.3 -1.0 13.0 1.9 21.75 1.9 29.75 L1.8 34.05 M-6.95 33.95 L-15.75 33.65 -15.75 32.8 -15.75 31.95 -15.95 3.4 -15.6 3.4 -8.3 3.9 -8.3 11.95 Q-8.3 17.15 -7.25 27.4 L-6.95 33.95 M-64.45 23.85 Q-67.75 21.6 -67.8 19.1 L-68.1 18.35 -68.1 17.35 -68.05 17.35 -68.5 13.25 Q-69.6 0.3 -68.6 -12.55 L-64.9 -11.25 -65.15 -7.65 Q-66.0 8.05 -64.45 23.85 M17.2 57.5 L16.7 57.55 16.5 57.6 16.5 57.55 17.2 57.5 M20.85 71.55 L20.55 63.1 23.2 62.95 Q24.4 65.7 27.1 65.7 28.3 65.7 29.2 62.65 L32.8 62.2 31.8 69.25 20.85 71.55 M-4.75 73.15 L-5.0 63.85 5.3 64.1 5.15 73.15 -4.75 73.15 M15.25 72.35 L16.05 63.4 17.85 63.25 18.0 72.0 15.25 72.35 M-14.1 63.25 L-7.4 63.75 -7.1 73.05 -13.25 72.8 -14.1 63.25 M-59.6 52.3 L-58.25 57.6 -60.75 50.4 -60.0 50.65 -59.6 52.3" fill="#ca9460" fill-rule="evenodd" stroke="none"/>
    <path d="M-49.55 -31.75 L-52.7 -32.75 -51.5 -38.35 Q-51.5 -39.35 -51.75 -38.75 -53.3 -37.2 -54.35 -33.3 L-57.15 -34.5 -55.8 -43.65 Q-55.3 -46.2 -52.45 -56.4 -52.45 -56.9 -53.1 -57.15 -55.2 -54.75 -56.6 -50.15 -57.9 -44.85 -58.55 -42.65 L-59.7 -35.8 -61.35 -37.0 -59.75 -44.4 Q-57.7 -53.1 -54.85 -61.8 -52.05 -59.55 -48.5 -58.15 -46.7 -57.4 -44.45 -56.7 -47.25 -49.65 -49.55 -31.75 M46.85 -62.05 L50.55 -61.1 Q48.6 -60.05 45.75 -59.0 L36.9 -56.6 32.9 -57.85 35.75 -58.45 Q43.15 -60.05 46.85 -62.05 M-37.35 -56.75 L-38.55 -57.0 Q-42.6 -58.0 -45.6 -59.05 -48.5 -60.05 -50.45 -61.15 -51.9 -62.0 -52.8 -62.85 L-48.9 -63.45 -46.75 -62.05 -44.35 -60.95 Q-40.95 -59.6 -35.65 -58.45 L-33.3 -57.95 -37.35 -56.75 M10.25 -79.2 L10.4 -79.2 Q21.3 -78.7 30.45 -77.2 L25.95 -75.85 8.55 -77.25 10.25 -79.2 M-50.75 29.0 L-54.35 28.05 -55.15 -3.1 -51.3 -1.9 -51.5 10.0 -50.75 29.0 M-55.25 27.8 L-57.35 27.1 Q-61.9 25.55 -64.45 23.85 -66.0 8.05 -65.15 -7.65 L-62.05 -6.0 -62.1 -5.7 Q-62.1 -5.0 -61.35 -4.7 L-60.6 -5.1 -60.55 -5.3 -57.0 -3.8 -57.05 -0.1 Q-57.05 9.8 -55.25 27.8 M-59.6 52.3 L-51.95 56.25 -51.85 57.2 -51.2 57.1 -51.1 56.7 -51.1 56.65 -48.8 57.65 -48.75 58.1 -48.75 62.55 Q-48.75 64.05 -48.15 64.45 L-47.8 64.75 -47.75 65.2 -57.0 60.9 -58.25 57.6 -59.6 52.3" fill="#c79460" fill-rule="evenodd" stroke="none"/>
    <path d="M55.2 -33.5 L52.4 -32.55 Q51.0 -45.85 49.7 -45.85 48.75 -45.85 48.75 -44.75 L50.05 -31.8 44.8 -30.5 42.3 -44.4 42.1 -45.2 42.1 -45.3 39.8 -55.35 42.55 -56.1 44.6 -47.65 Q45.1 -39.95 46.7 -36.35 L47.35 -36.85 Q46.0 -49.7 43.7 -56.4 L48.5 -58.05 49.15 -58.35 52.05 -48.2 Q53.85 -41.1 55.05 -34.35 L55.2 -33.5 M8.4 -72.25 L-6.6 -72.3 -6.6 -75.3 8.4 -75.25 8.4 -72.25 M57.6 27.1 L54.9 27.95 55.55 17.75 54.65 -1.35 58.2 -2.1 57.9 23.5 57.6 27.1 M53.45 28.35 L47.15 29.85 Q48.2 15.5 47.75 1.2 L47.7 0.15 52.75 -0.95 53.55 15.8 Q53.8 21.6 53.55 25.85 L53.45 28.35 M41.35 31.0 L38.9 31.4 39.95 31.2 41.15 17.55 41.35 31.0 M43.2 60.0 L46.0 59.2 45.65 62.2 Q45.15 65.5 42.95 74.4 L39.95 75.2 43.2 60.0 M45.45 73.6 L48.6 58.35 53.45 56.8 Q52.5 63.3 50.65 71.35 L50.55 71.4 Q48.6 72.45 45.75 73.5 L45.45 73.6 M35.5 66.75 L36.25 61.55 38.85 61.2 37.8 71.3 Q37.45 73.55 37.25 75.85 L34.2 76.45 35.3 68.3 35.5 66.75 M20.85 71.55 L31.8 69.25 30.55 77.15 20.8 78.4 21.0 76.65 20.85 71.55 M-4.75 73.15 L5.15 73.15 5.25 79.25 -4.55 79.2 -4.75 73.15 M15.25 72.35 L18.0 72.0 18.05 75.85 Q18.1 76.85 18.8 78.55 L19.8 78.5 14.6 78.9 15.25 72.35 M-13.25 72.8 L-7.1 73.05 -6.8 79.15 -12.7 79.0 -13.25 72.8" fill="#92643b" fill-rule="evenodd" stroke="none"/>
    <path d="M-21.75 -27.05 L-26.35 -27.5 -25.25 -37.25 Q-23.8 -48.5 -23.8 -50.6 -23.8 -51.9 -24.25 -52.55 L-18.9 -52.0 Q-20.4 -46.2 -21.35 -33.0 L-21.75 -27.05 M-28.5 -27.75 L-35.5 -28.75 -34.15 -39.7 -31.75 -53.7 -24.3 -52.55 Q-25.75 -49.7 -28.05 -31.9 L-28.5 -27.75 M-38.35 -29.2 L-43.8 -30.3 -39.65 -55.35 -34.4 -54.2 -36.35 -43.5 Q-37.75 -34.65 -38.35 -29.2 M-11.9 -53.5 L-12.65 -53.55 Q-26.5 -54.3 -37.35 -56.75 L-33.3 -57.95 -27.1 -56.9 -10.2 -55.4 -11.9 -53.5 M-8.05 -79.25 L10.25 -79.2 8.55 -77.25 -6.45 -77.3 -8.05 -79.25 M-23.25 33.2 L-34.95 31.95 -35.1 24.45 Q-35.15 19.15 -34.1 15.55 -33.6 13.85 -29.75 6.65 L-28.0 2.9 -23.0 3.4 -23.25 33.2 M-37.35 31.6 L-40.4 31.1 -39.45 26.3 Q-36.8 13.35 -36.8 7.35 L-37.5 1.35 -30.2 2.6 -34.55 10.5 Q-37.75 17.2 -37.35 21.05 -37.0 24.6 -37.35 31.6 M-43.0 30.65 L-45.7 30.15 -46.35 10.6 -46.15 -0.5 -39.85 0.9 Q-39.35 7.3 -39.45 10.4 -39.6 15.5 -40.75 20.7 L-43.0 30.65 M-26.9 20.35 Q-27.5 16.1 -28.6 16.1 -30.9 16.1 -30.3 21.4 -30.8 27.3 -28.05 27.3 L-26.9 26.85 Q-26.55 25.65 -26.55 24.65 L-26.9 20.35 M-40.8 69.5 L-40.85 69.35 -41.25 67.05 -41.3 66.9 -42.7 58.35 -42.7 58.3 -40.85 58.8 -40.3 60.35 Q-38.3 66.3 -36.7 69.9 L-36.5 70.3 -40.8 69.5 M-22.05 72.2 L-22.1 71.95 Q-22.35 70.8 -24.95 66.8 -28.65 63.35 -29.85 61.65 L-29.95 61.35 -21.7 62.65 -20.9 72.3 -22.05 72.2 M-34.35 70.7 L-38.2 59.45 -31.95 60.9 Q-31.45 62.5 -29.1 64.95 -25.95 68.25 -24.4 71.95 L-34.35 70.7" fill="#c78f55" fill-rule="evenodd" stroke="none"/>
    <path d="M32.1 -28.2 L29.55 -27.85 26.25 -37.3 Q26.25 -38.3 27.1 -38.15 30.5 -33.3 32.1 -28.2 M16.7 -26.7 L2.0 -26.2 3.75 -33.0 3.8 -33.95 3.5 -36.9 3.65 -37.8 4.5 -37.95 Q6.35 -37.95 7.4 -27.5 L6.15 -51.3 14.45 -51.65 16.7 -26.7 M-5.85 -26.25 L-8.4 -26.35 -8.3 -34.35 Q-7.8 -44.45 -5.65 -47.55 -4.8 -47.15 -4.8 -46.7 L-5.85 -26.25 M-43.8 -30.3 L-45.0 -30.6 -45.35 -30.65 -49.55 -31.75 Q-47.25 -49.65 -44.45 -56.7 L-42.4 -56.1 -42.15 -56.0 -39.65 -55.35 -43.8 -30.3 M-52.7 -32.75 L-52.8 -32.75 -54.35 -33.3 Q-53.3 -37.2 -51.75 -38.75 -51.5 -39.35 -51.5 -38.35 L-52.7 -32.75 M-57.15 -34.5 L-57.15 -34.45 -59.7 -35.8 -58.55 -42.65 Q-57.9 -44.85 -56.6 -50.15 -55.2 -54.75 -53.1 -57.15 -52.45 -56.9 -52.45 -56.4 -55.3 -46.2 -55.8 -43.65 L-57.15 -34.5 M20.15 -52.1 L21.4 -52.2 22.1 -43.7 Q22.1 -43.0 21.45 -42.85 20.5 -44.4 20.15 -52.1 M30.95 -53.5 L32.3 -53.75 32.3 -53.7 34.0 -42.45 33.8 -39.6 33.5 -39.3 32.65 -39.25 31.55 -47.5 Q31.05 -50.85 30.95 -53.5 M25.9 -70.85 L8.55 -72.25 8.4 -72.25 8.4 -75.25 25.9 -73.9 25.9 -70.85 M-15.9 0.05 L-7.55 0.4 17.9 -0.65 Q28.4 -1.55 38.05 -3.25 L38.2 2.85 30.85 3.5 28.5 11.4 Q22.4 30.85 22.1 32.4 L21.95 33.3 19.3 33.45 Q20.55 25.65 22.8 19.35 L28.25 3.7 18.0 4.05 17.9 -0.65 18.0 4.05 Q18.25 18.8 17.8 33.55 L6.15 34.0 6.5 18.6 6.25 4.25 -0.9 4.2 Q-0.2 7.6 1.45 13.05 4.25 22.4 4.25 25.35 L4.05 34.0 1.8 34.05 1.9 29.75 Q1.9 21.75 -1.0 13.0 -2.6 8.3 -3.3 4.1 L-6.15 4.0 -6.5 18.05 -5.9 34.0 -6.95 33.95 -7.25 27.4 Q-8.3 17.15 -8.3 11.95 L-8.3 3.9 -15.6 3.4 -15.95 3.4 -15.9 0.05 M38.25 31.5 L36.6 31.75 38.35 11.15 38.25 31.5 M30.4 32.45 L30.4 32.5 28.8 32.7 28.8 32.65 Q28.35 29.75 27.3 27.7 26.75 30.3 26.35 32.95 L24.15 33.1 23.9 33.15 Q25.05 25.6 26.75 25.6 29.55 25.6 30.4 32.45 M-45.7 30.15 L-50.75 29.0 -51.5 10.0 -51.3 -1.9 -55.15 -3.1 -54.35 28.05 -55.25 27.8 Q-57.05 9.8 -57.05 -0.1 L-57.0 -3.8 -60.55 -5.3 -60.6 -5.1 -61.35 -4.7 Q-62.1 -5.0 -62.1 -5.7 L-62.05 -6.0 -65.15 -7.65 -64.9 -11.25 -60.95 -9.9 Q-53.2 -7.35 -45.95 -5.4 L-46.15 -0.5 -46.35 10.6 -45.7 30.15 M16.2 61.75 Q26.3 61.05 36.35 58.95 L35.5 66.75 35.3 68.3 31.8 69.25 32.8 62.2 29.2 62.65 Q28.3 65.7 27.1 65.7 24.4 65.7 23.2 62.95 L20.55 63.1 20.85 71.55 18.0 72.0 17.85 63.25 16.05 63.4 15.25 72.35 5.15 73.15 5.3 64.1 -5.0 63.85 -4.75 73.15 -7.1 73.05 -7.4 63.75 -14.1 63.25 -14.25 60.85 -6.6 61.6 Q4.85 62.55 16.2 61.75 L16.05 63.4 16.2 61.75 M-57.0 60.9 L-47.75 65.2 -47.8 64.75 -48.15 64.45 Q-48.75 64.05 -48.75 62.55 L-48.75 58.1 -48.8 57.65 -51.1 56.65 -51.1 56.7 -51.2 57.1 -51.85 57.2 -51.95 56.25 -59.6 52.3 -60.0 50.65 -43.1 55.55 -42.7 58.3 -42.7 58.35 -41.3 66.9 -41.25 67.05 -40.85 69.35 -40.8 69.5 Q-48.75 67.85 -55.15 65.5 L-56.5 62.25 -56.5 62.15 -57.0 60.9" fill="#b3804c" fill-rule="evenodd" stroke="none"/>
    <path d="M-40.75 -61.7 Q-43.75 -62.7 -45.25 -63.75 -43.3 -65.2 -38.9 -66.4 -40.05 -64.6 -40.05 -63.55 L-39.8 -61.9 -40.75 -61.7 M37.05 -64.15 L36.85 -64.05 36.4 -64.0 37.05 -64.15" fill="#cc9966" fill-rule="evenodd" stroke="none"/>
    <path d="M16.95 -22.9 L0.15 -22.35 -14.95 -22.8 Q-31.2 -23.75 -44.2 -26.85 L-48.3 -27.9 Q-53.4 -29.3 -57.15 -30.85 -60.0 -32.0 -62.1 -33.25 L-65.05 -35.25 -67.15 -37.55 Q-68.4 -39.4 -68.4 -41.3 L-68.4 -41.55 -68.25 -41.95 -65.85 -44.2 -65.55 -44.4 -65.25 -44.55 -66.0 -41.9 -66.25 -41.9 -66.3 -40.95 Q-66.2 -39.0 -64.6 -37.2 -63.55 -36.05 -61.8 -34.9 -59.5 -33.4 -56.05 -32.05 -52.15 -30.5 -46.8 -29.15 L-44.0 -28.45 Q-31.1 -25.5 -14.85 -24.6 -7.7 -24.2 0.15 -24.2 L16.8 -24.7 Q27.45 -25.35 36.6 -26.9 L47.1 -29.15 Q52.25 -30.5 56.05 -31.95 L60.2 -33.8 Q63.3 -35.45 64.9 -37.25 66.35 -38.9 66.55 -40.7 L66.6 -41.25 66.55 -41.9 66.25 -41.9 65.55 -44.25 67.25 -43.65 68.35 -42.65 68.95 -41.9 68.65 -41.9 68.7 -41.3 Q68.65 -39.35 67.4 -37.5 L65.35 -35.3 63.4 -33.85 57.35 -30.8 Q53.6 -29.3 48.6 -27.9 L36.75 -25.25 Q27.55 -23.6 16.95 -22.9 M67.35 24.45 Q70.35 22.2 70.7 19.7 L71.1 15.35 Q73.0 16.75 73.0 18.1 L72.95 19.8 72.85 20.3 72.6 21.1 72.2 21.95 70.25 24.3 67.4 26.4 67.0 26.65 Q65.0 27.75 62.45 28.85 L61.0 29.45 Q56.95 30.95 51.65 32.35 L38.15 35.15 Q28.55 36.7 17.65 37.35 L0.15 37.9 -15.6 37.5 Q-30.2 36.65 -42.35 34.35 L-51.4 32.35 Q-56.8 30.95 -60.8 29.4 L-67.25 26.35 -70.05 24.25 Q-71.55 22.85 -72.2 21.35 L-72.35 21.0 Q-72.75 20.0 -72.75 18.95 L-72.7 18.45 -71.85 16.7 -70.8 15.95 -70.5 18.4 -70.5 18.45 -70.55 18.7 -70.5 19.6 Q-70.2 22.15 -67.1 24.45 L-64.2 26.25 -59.65 28.2 Q-55.5 29.75 -49.85 31.1 L-31.25 34.35 -15.65 35.7 Q-8.1 36.05 0.15 36.05 9.35 36.05 17.7 35.6 L38.2 33.45 50.05 31.1 Q55.55 29.75 59.6 28.3 61.15 27.7 62.65 27.05 65.5 25.8 67.35 24.45" fill="#979797" fill-rule="evenodd" stroke="none"/>
    <path d="M-62.05 -30.85 L-59.2 -29.45 Q-55.3 -27.75 -50.0 -26.15 L-44.45 -24.65 Q-31.3 -21.4 -15.1 -20.35 L0.15 -19.9 17.05 -20.5 Q27.65 -21.25 36.95 -22.95 L43.1 -24.25 44.65 -9.0 37.85 -7.7 Q28.5 -6.1 17.75 -5.4 L0.1 -4.85 -15.75 -5.3 Q-32.35 -6.25 -45.75 -9.3 L-50.35 -10.4 Q-55.65 -11.8 -59.6 -13.35 L-64.55 -15.6 -65.9 -16.4 -66.1 -16.55 -62.05 -30.85 M67.45 -34.25 L68.05 -34.8 69.55 -36.5 71.5 -24.4 71.55 -23.8 Q71.55 -22.25 70.7 -20.75 L69.85 -19.5 69.05 -18.6 69.05 -18.65 67.45 -34.25 M42.7 36.65 L40.75 51.85 37.0 52.6 Q27.55 54.35 16.7 55.1 L0.2 55.65 -14.7 55.2 Q-30.8 54.2 -43.7 51.05 L-47.4 50.1 Q-52.4 48.7 -56.1 47.15 L-58.75 45.95 -58.4 46.1 -60.65 36.2 -61.25 31.5 -52.2 34.35 -45.3 36.05 Q-31.85 38.95 -15.5 39.9 L0.15 40.35 17.55 39.8 Q28.45 39.1 38.05 37.5 L42.7 36.65 M68.1 28.45 L69.7 27.45 69.8 27.4 70.55 26.9 70.85 26.75 67.15 38.75 Q66.3 41.2 63.35 43.4 L63.95 41.5 Q66.25 34.0 68.1 28.45" fill="#6f6f6f" fill-rule="evenodd" stroke="none"/>
    <path d="M-15.8 -2.85 L-8.35 -2.5 -8.35 -2.55 -8.0 -2.5 11.05 -2.6 11.05 -2.65 17.85 -3.0 17.9 -0.65 17.85 -3.0 37.95 -5.35 38.05 -3.25 Q28.4 -1.55 17.9 -0.65 L-7.55 0.4 -15.9 0.05 -15.8 -2.85 M-68.6 -12.55 L-68.3 -15.5 -68.25 -15.45 Q-66.7 -14.4 -64.75 -13.4 L-64.9 -11.25 -68.6 -12.55" fill="#95643b" fill-rule="evenodd" stroke="none"/>
    <path d="M55.95 -28.05 L60.85 -30.1 Q63.6 -31.45 65.65 -32.85 L65.9 -33.0 67.45 -34.25 69.05 -18.65 68.35 -18.0 66.05 -16.35 62.95 -14.7 56.7 -12.2 57.15 -17.45 Q57.15 -22.1 55.95 -28.05 M51.85 48.85 Q53.3 42.75 53.4 40.65 L53.65 34.05 62.15 31.2 66.5 29.3 Q67.35 28.85 68.1 28.45 66.25 34.0 63.95 41.5 L63.35 43.4 63.1 43.6 59.75 45.65 51.85 48.85" fill="#333333" fill-rule="evenodd" stroke="none"/>
    <path d="M-62.05 -30.85 L-66.1 -16.55 -68.05 -17.95 Q-69.65 -19.35 -70.45 -20.8 -71.3 -22.25 -71.3 -23.8 L-71.25 -24.4 -69.25 -36.55 -67.8 -34.9 -65.55 -33.0 -65.45 -32.95 -62.5 -31.1 -62.2 -30.95 -62.05 -30.85 M44.65 -9.0 L43.1 -24.25 43.4 -24.3 55.95 -28.05 Q57.15 -22.1 57.15 -17.45 L56.7 -12.2 44.65 -9.0 M42.7 36.65 L42.8 36.65 53.5 34.1 53.65 34.05 53.4 40.65 Q53.3 42.75 51.85 48.85 L40.75 51.85 42.7 36.65 M-61.25 31.5 L-60.65 36.2 -58.4 46.1 -58.75 45.95 -61.3 44.55 Q-61.7 44.3 -62.05 44.1 L-65.75 40.85 -70.3 26.85 -66.25 29.3 -63.0 30.8 -62.9 30.8 -62.9 30.85 -61.25 31.45 -61.25 31.5" fill="#474747" fill-rule="evenodd" stroke="none"/>
    <path d="M-48.65 -72.25 Q-44.85 -74.05 -38.55 -75.55 L-28.0 -77.55 -23.6 -76.1 -35.65 -74.15 Q-41.2 -72.95 -44.7 -71.5 L-48.65 -72.25 M-23.6 -71.1 L-35.65 -69.15 Q-40.75 -68.05 -44.1 -66.75 L-44.1 -69.45 Q-40.7 -71.3 -33.15 -72.75 L-23.6 -74.2 -23.6 -71.1" fill="#85651d" fill-rule="evenodd" stroke="none"/>
    <path d="M-14.7 -26.6 L-21.75 -27.05 -21.35 -33.0 Q-20.4 -46.2 -18.9 -52.0 L-12.6 -51.55 -14.7 -26.6 M-26.35 -27.5 L-28.5 -27.75 -28.05 -31.9 Q-25.75 -49.7 -24.3 -52.55 L-24.25 -52.55 Q-23.8 -51.9 -23.8 -50.6 -23.8 -48.5 -25.25 -37.25 L-26.35 -27.5 M-35.5 -28.75 L-38.35 -29.2 Q-37.75 -34.65 -36.35 -43.5 L-34.4 -54.2 -31.75 -53.7 -34.15 -39.7 -35.5 -28.75 M-15.75 33.65 L-18.8 33.5 -19.1 33.45 -23.25 33.2 -23.0 3.4 -28.0 2.9 -29.75 6.65 Q-33.6 13.85 -34.1 15.55 -35.15 19.15 -35.1 24.45 L-34.95 31.95 -37.35 31.6 Q-37.0 24.6 -37.35 21.05 -37.75 17.2 -34.55 10.5 L-30.2 2.6 -37.5 1.35 -36.8 7.35 Q-36.8 13.35 -39.45 26.3 L-40.4 31.1 -43.0 30.65 -40.75 20.7 Q-39.6 15.5 -39.45 10.4 -39.35 7.3 -39.85 0.9 L-46.15 -0.5 -45.95 -5.4 Q-29.5 -1.0 -15.9 0.05 L-15.95 3.4 -15.75 31.95 -15.75 32.8 -15.75 33.65 M-14.25 60.85 L-14.1 63.25 -13.25 72.8 -20.9 72.3 -21.7 62.65 -29.95 61.35 -29.85 61.65 Q-28.65 63.35 -24.95 66.8 -22.35 70.8 -22.1 71.95 L-22.05 72.2 -24.4 71.95 Q-25.95 68.25 -29.1 64.95 -31.45 62.5 -31.95 60.9 L-38.2 59.45 -34.35 70.7 -36.5 70.3 -36.7 69.9 Q-38.3 66.3 -40.3 60.35 L-40.85 58.8 -42.7 58.3 -43.1 55.55 Q-28.9 59.15 -14.25 60.85 M-26.9 20.35 L-26.55 24.65 Q-26.55 25.65 -26.9 26.85 L-28.05 27.3 Q-30.8 27.3 -30.3 21.4 -30.9 16.1 -28.6 16.1 -27.5 16.1 -26.9 20.35" fill="#b37b41" fill-rule="evenodd" stroke="none"/>
    <path d="M-39.6 -61.35 L-40.75 -61.7 -39.8 -61.9 -39.6 -61.35" fill="#dca976" fill-rule="evenodd" stroke="none"/>
    <path d="M-22.05 72.2 L-20.9 72.3 -20.35 78.4 -21.1 78.35 -21.1 76.7 -22.05 72.2 M-34.35 70.7 L-24.4 71.95 -24.1 72.85 Q-23.75 74.0 -23.4 78.1 -31.6 77.15 -38.55 75.5 L-39.7 75.2 -40.8 69.5 -36.5 70.3 -34.65 74.5 -34.1 76.45 -32.5 76.75 -34.35 70.7" fill="#926135" fill-rule="evenodd" stroke="none"/>
    <path d="M53.2 -60.5 L53.25 -60.35 Q55.85 -52.4 57.85 -44.4 L59.8 -35.7 M48.15 -72.6 L44.1 -71.8 M46.85 -62.05 L50.55 -61.1 M10.25 -79.2 L10.4 -79.2 M-39.8 -61.9 L0.0 -70.4 M43.15 -70.0 L43.15 -67.1 M25.95 -75.85 L30.45 -77.2 M8.55 -77.25 L10.25 -79.2 M11.6 -55.5 L13.2 -53.55 M-10.2 -55.4 L-11.9 -53.5 M36.4 -64.0 L4.4 -57.15 M36.4 -64.0 L37.05 -64.15 42.4 -65.3 M25.9 -70.85 L25.9 -73.9 M36.9 -56.6 L32.9 -57.85 M8.4 -75.25 L8.4 -72.25 M-15.8 -2.85 L-15.9 0.05 -15.95 3.4 -15.75 31.95 M17.9 -0.65 L17.85 -3.0 M17.9 -0.65 L18.0 4.05 Q18.25 18.8 17.8 33.55 M42.1 -45.3 L39.8 -55.35 M44.8 -30.5 L42.3 -44.4 42.1 -45.2 M47.35 -7.3 L47.4 -6.4 M63.15 -12.5 L63.75 -3.25 Q64.05 5.15 63.7 13.6 L62.9 24.9 M14.45 -51.65 L16.7 -26.7 M47.15 29.85 Q48.2 15.5 47.75 1.2 L47.7 0.15 47.4 -6.05 M44.4 53.25 L43.2 60.0 39.95 75.2 M53.7 68.95 Q55.8 62.25 57.5 55.6 L59.2 48.2 M53.7 68.95 L53.15 70.6 M16.5 57.6 L16.2 61.75 16.05 63.4 15.25 72.35 14.6 78.9 M16.5 57.55 L16.5 57.6 M-14.25 60.85 L-14.1 63.25 -13.25 72.8 -12.7 79.0 M-8.05 -79.25 L-6.45 -77.3 M-28.0 -77.55 L-23.6 -76.1 M-23.6 -74.2 L-23.6 -71.1 M-37.35 -56.75 L-33.3 -57.95 M-48.9 -63.45 L-52.8 -62.85 M-6.6 -72.3 L-6.6 -75.3 M-44.1 -66.75 L-44.1 -69.45 M-48.65 -72.25 L-44.7 -71.5 M-45.95 -5.4 L-45.85 -7.05 M-64.9 -11.25 L-65.15 -7.65 Q-66.0 8.05 -64.45 23.85 M-64.75 -13.4 L-64.9 -11.25 M-46.15 -0.5 L-45.95 -5.4 M-54.85 -61.8 Q-57.7 -53.1 -59.75 -44.4 L-61.35 -37.0 M-12.6 -51.55 L-14.7 -26.6 M-39.65 -55.35 L-43.8 -30.3 M-40.75 -61.7 L-39.8 -61.9 M-15.75 32.8 L-15.75 33.65 M-45.7 30.15 L-46.35 10.6 -46.15 -0.5 M-43.4 53.4 L-43.1 55.55 -42.7 58.3 -42.7 58.35 -41.3 66.9 M-14.25 60.85 L-14.5 57.65 M-59.6 52.3 L-58.25 57.6 -54.6 70.1 M-40.8 69.5 L-40.85 69.35 -41.25 67.05 M-60.0 50.65 L-59.6 52.3 M-39.7 75.2 L-40.8 69.5 M-60.0 50.65 L-60.75 47.2 M27.9 -68.65 L-21.45 -58.1" fill="none" stroke="#000000" stroke-linecap="round" stroke-linejoin="round" stroke-width="1.0"/>
  </g>
</svg>
