<?xml version="1.0" encoding="UTF-8" standalone="no"?>
<svg xmlns:xlink="http://www.w3.org/1999/xlink" height="69.0px" width="86.8px" xmlns="http://www.w3.org/2000/svg">
  <g transform="matrix(1.0, 0.0, 0.0, 1.0, 43.4, 34.5)">
    <path d="M14.55 -27.35 L14.75 -27.5 14.7 -27.3 14.55 -27.35 M13.15 -19.3 L14.6 -23.85 Q22.5 -20.5 30.35 -23.8 L37.05 -26.65 Q37.3 -24.15 35.05 -22.95 34.45 -22.65 34.2 -22.05 33.9 -21.45 33.9 -20.7 L37.45 -19.4 Q33.4 -15.4 31.25 -9.85 L32.45 -8.75 37.35 -9.1 37.7 -1.5 Q33.8 0.95 32.55 5.4 L37.0 7.5 Q38.3 13.55 33.5 17.2 32.7 17.8 33.2 18.7 34.35 20.8 36.85 21.35 L36.7 23.8 Q26.85 27.5 16.55 29.2 16.6 24.95 13.9 21.75 9.45 22.5 8.0 26.9 -1.3 30.0 -11.15 30.7 L-11.5 30.7 -13.55 30.8 -12.9 30.7 -14.9 30.7 -16.9 28.2 -18.1 25.8 -18.15 25.7 -36.15 24.2 -36.15 -6.05 -37.45 -6.6 Q-36.6 -11.65 -37.3 -16.7 L-34.05 -17.25 Q-33.15 -17.1 -32.5 -17.95 L-32.05 -18.35 -31.95 -18.95 -37.5 -24.45 -35.9 -26.4 Q-29.95 -26.5 -24.1 -25.1 L-20.6 -15.7 Q-17.6 -15.9 -17.05 -18.8 L-16.2 -22.85 -13.0 -16.7 Q-9.85 -17.95 -9.9 -21.4 L-9.75 -23.35 Q-3.8 -23.05 1.6 -24.85 L6.95 -24.05 Q6.65 -19.05 11.35 -17.65 12.7 -18.15 13.15 -19.3" fill="#fee3bc" fill-rule="evenodd" stroke="none"/>
    <path d="M36.4 -30.05 L35.85 -29.6 35.95 -28.4 37.2 -27.95 37.75 -29.55 36.5 -30.1 39.35 -31.05 38.95 -23.45 37.45 -23.25 37.2 -21.9 37.6 -21.7 Q39.0 -20.9 40.0 -19.55 L40.35 -18.95 33.85 -11.05 34.0 -10.55 34.45 -10.25 40.35 -10.85 39.85 -0.9 36.25 3.2 39.75 6.05 38.85 15.4 36.05 18.35 39.25 19.35 39.45 26.25 Q26.85 31.85 13.15 30.85 L13.55 28.4 Q14.0 25.95 12.95 23.8 L11.25 29.25 Q-2.4 31.7 -16.55 32.15 L-17.4 29.85 -21.55 31.85 -21.9 27.7 -26.05 29.2 -40.15 27.2 -40.2 -5.3 -40.95 -18.45 -35.65 -20.25 -35.85 -20.85 Q-37.55 -21.1 -39.2 -22.0 -40.45 -22.6 -41.25 -23.75 L-39.3 -27.1 -37.95 -27.2 -37.65 -28.2 -26.4 -27.2 Q-23.35 -27.4 -21.15 -25.15 L-21.1 -24.8 Q-21.45 -22.3 -20.0 -20.45 L-19.2 -20.55 Q-17.7 -21.65 -17.2 -23.45 L-16.8 -24.65 -13.75 -20.9 -12.9 -20.9 -11.55 -25.45 Q-3.6 -25.7 4.05 -27.15 L4.85 -26.35 8.5 -26.3 Q8.2 -23.55 10.4 -22.0 L11.05 -21.65 14.8 -25.9 Q23.75 -24.0 31.95 -28.2 34.1 -29.3 36.4 -30.05 M13.15 -19.3 Q12.7 -18.15 11.35 -17.65 6.65 -19.05 6.95 -24.05 L1.6 -24.85 Q-3.8 -23.05 -9.75 -23.35 L-9.9 -21.4 Q-9.85 -17.95 -13.0 -16.7 L-16.2 -22.85 -17.05 -18.8 Q-17.6 -15.9 -20.6 -15.7 L-24.1 -25.1 Q-29.95 -26.5 -35.9 -26.4 L-37.5 -24.45 -31.95 -18.95 -32.05 -18.35 -32.5 -17.95 Q-33.15 -17.1 -34.05 -17.25 L-37.3 -16.7 Q-36.6 -11.65 -37.45 -6.6 L-36.15 -6.05 -36.15 24.2 -18.15 25.7 -18.1 25.8 -16.9 28.2 -14.9 30.7 -12.9 30.7 -13.55 30.8 -11.5 30.7 -11.15 30.7 Q-1.3 30.0 8.0 26.9 9.45 22.5 13.9 21.75 16.6 24.95 16.55 29.2 26.85 27.5 36.7 23.8 L36.85 21.35 Q34.35 20.8 33.2 18.7 32.7 17.8 33.5 17.2 38.3 13.55 37.0 7.5 L32.55 5.4 Q33.8 0.95 37.7 -1.5 L37.35 -9.1 32.45 -8.75 31.25 -9.85 Q33.4 -15.4 37.45 -19.4 L33.9 -20.7 Q33.9 -21.45 34.2 -22.05 34.45 -22.65 35.05 -22.95 37.3 -24.15 37.05 -26.65 L30.35 -23.8 Q22.5 -20.5 14.6 -23.85 L13.15 -19.3 M38.2 21.25 Q37.75 21.25 37.45 21.6 37.1 21.9 37.1 22.35 37.1 22.8 37.45 23.15 37.75 23.45 38.2 23.45 L39.0 23.15 39.3 22.35 39.0 21.6 Q38.65 21.25 38.2 21.25 M-39.65 25.65 L-39.35 26.4 -38.65 26.7 -37.95 26.4 Q-37.65 26.1 -37.65 25.65 -37.65 25.2 -37.95 24.9 -38.25 24.6 -38.65 24.6 -39.05 24.6 -39.35 24.9 L-39.65 25.65" fill="#decba0" fill-rule="evenodd" stroke="none"/>
    <path d="M36.5 -30.1 L36.4 -30.05 Q34.1 -29.3 31.95 -28.2 23.75 -24.0 14.8 -25.9 L11.05 -21.65 10.4 -22.0 Q8.2 -23.55 8.5 -26.3 L4.85 -26.35 4.05 -27.15 Q-3.6 -25.7 -11.55 -25.45 L-12.9 -20.9 -13.75 -20.9 -16.8 -24.65 -17.2 -23.45 Q-17.7 -21.65 -19.2 -20.55 L-20.0 -20.45 Q-21.45 -22.3 -21.1 -24.8 L-21.15 -25.15 Q-23.35 -27.4 -26.4 -27.2 L-37.65 -28.2 -38.0 -28.85 Q-38.8 -29.55 -39.6 -28.6 L-39.3 -27.1 -41.25 -23.75 Q-40.45 -22.6 -39.2 -22.0 -37.55 -21.1 -35.85 -20.85 L-35.65 -20.25 -40.95 -18.45 -40.2 -5.3 -40.15 27.2 -26.05 29.2 -21.9 27.7 -21.55 31.85 -17.4 29.85 -16.55 32.15 Q-2.4 31.7 11.25 29.25 L12.95 23.8 Q14.0 25.95 13.55 28.4 L13.15 30.85 Q26.85 31.85 39.45 26.25 L39.25 19.35 36.05 18.35 38.85 15.4 39.75 6.05 36.25 3.2 39.85 -0.9 40.35 -10.85 34.45 -10.25 34.0 -10.55 33.85 -11.05 40.35 -18.95 40.0 -19.55 Q39.0 -20.9 37.6 -21.7 L37.2 -21.9 37.45 -23.25 38.95 -23.45 39.35 -31.05 36.5 -30.1 M14.75 -27.5 L40.95 -32.65 41.35 7.0 40.9 27.4 30.95 30.1 Q6.1 34.85 -19.2 32.85 L-20.1 31.75 -22.55 32.65 -23.25 30.1 -24.0 29.8 -25.05 30.7 Q-33.4 31.0 -41.2 28.55 L-42.25 -31.75 Q-30.85 -30.65 -20.2 -26.35 L-17.9 -27.3 -16.0 -25.45 Q-1.45 -29.95 13.3 -26.35 L14.55 -27.35 14.7 -27.3 14.75 -27.5" fill="#a39065" fill-rule="evenodd" stroke="none"/>
    <path d="M36.4 -30.05 L36.5 -30.1 37.75 -29.55 37.2 -27.95 35.95 -28.4 35.85 -29.6 36.4 -30.05 M-39.3 -27.1 L-39.6 -28.6 Q-38.8 -29.55 -38.0 -28.85 L-37.65 -28.2 -37.95 -27.2 -39.3 -27.1 M12.3 -28.25 L41.75 -34.5 Q44.0 -9.9 43.2 14.55 L42.45 29.0 Q27.25 34.85 10.95 34.15 L-0.4 34.3 Q-11.7 34.55 -23.1 34.45 L-24.45 32.3 Q-33.85 32.25 -42.8 29.85 L-43.4 -33.35 Q-31.55 -31.55 -20.3 -28.05 L-17.8 -29.25 -16.05 -27.3 -13.9 -28.9 Q-1.5 -29.65 10.95 -28.7 L12.3 -28.25 M14.55 -27.35 L13.3 -26.35 Q-1.45 -29.95 -16.0 -25.45 L-17.9 -27.3 -20.2 -26.35 Q-30.85 -30.65 -42.25 -31.75 L-41.2 28.55 Q-33.4 31.0 -25.05 30.7 L-24.0 29.8 -23.25 30.1 -22.55 32.65 -20.1 31.75 -19.2 32.85 Q6.1 34.85 30.95 30.1 L40.9 27.4 41.35 7.0 40.95 -32.65 14.75 -27.5 14.55 -27.35 M38.2 21.25 Q38.65 21.25 39.0 21.6 L39.3 22.35 39.0 23.15 38.2 23.45 Q37.75 23.45 37.45 23.15 37.1 22.8 37.1 22.35 37.1 21.9 37.45 21.6 37.75 21.25 38.2 21.25 M-39.65 25.65 L-39.35 24.9 Q-39.05 24.6 -38.65 24.6 -38.25 24.6 -37.95 24.9 -37.65 25.2 -37.65 25.65 -37.65 26.1 -37.95 26.4 L-38.65 26.7 -39.35 26.4 -39.65 25.65" fill="#000000" fill-rule="evenodd" stroke="none"/>
  </g>
</svg>
