<?xml version="1.0" encoding="UTF-8" standalone="no"?>
<svg xmlns:xlink="http://www.w3.org/1999/xlink" height="52.45px" width="77.05px" xmlns="http://www.w3.org/2000/svg">
  <g transform="matrix(1.0, 0.0, 0.0, 1.0, 38.75, 24.95)">
    <path d="M-23.3 24.65 Q-19.75 21.2 -22.6 16.9 -21.65 21.5 -24.2 25.4 L-23.3 24.65 M-29.5 10.1 Q-29.5 7.25 -29.05 5.6 L-30.25 6.9 Q-31.85 10.9 -28.7 12.55 -29.5 11.45 -29.5 10.1 M-22.35 5.25 L-20.9 4.2 -20.25 4.8 -20.75 5.75 Q-21.55 7.2 -23.3 7.9 -23.55 7.75 -23.85 7.55 L-23.25 6.3 -23.8 5.95 Q-25.3 5.25 -27.1 5.3 -29.65 9.7 -25.3 12.6 -22.65 14.35 -21.05 16.95 -19.2 20.05 -20.4 23.5 -21.6 26.85 -25.25 27.4 -31.05 28.05 -33.8 23.1 L-34.85 23.55 -35.35 22.8 Q-33.8 21.3 -31.75 21.0 L-31.45 21.65 -32.45 22.6 Q-31.05 25.6 -27.9 25.85 -24.6 25.25 -24.0 21.7 -23.4 18.1 -25.1 15.0 -27.8 15.05 -29.65 13.4 -34.15 9.3 -30.25 4.4 -26.1 2.5 -22.35 5.25 M-13.8 22.65 L-13.15 23.9 Q-14.7 14.8 -11.8 6.0 -15.5 10.65 -14.8 17.15 -14.95 20.05 -13.8 22.65 M-15.7 10.3 Q-15.6 9.25 -14.15 7.05 -12.25 4.1 -10.0 4.1 -2.95 4.1 -2.9 15.65 L-3.35 21.65 Q-3.5 27.05 -9.4 27.05 -14.25 27.05 -15.7 22.15 -16.15 20.6 -16.25 18.7 L-16.2 17.2 Q-16.2 13.6 -15.7 10.3 M-5.15 9.55 Q-6.0 5.6 -9.9 5.8 -12.35 9.35 -12.45 13.95 L-12.6 18.7 Q-12.8 22.35 -10.95 25.35 L-8.1 25.45 Q-6.25 25.25 -5.6 23.8 -5.0 22.6 -4.8 21.3 -3.9 15.3 -5.15 9.55 M-14.2 -15.9 Q-13.2 -16.7 -13.2 -18.2 -13.2 -19.45 -14.1 -20.6 -15.25 -22.05 -17.5 -22.35 L-17.6 -14.6 Q-15.2 -15.2 -14.2 -15.9 M-18.9 -12.65 L-20.0 -12.65 -20.1 -5.75 -18.95 -5.75 -18.9 -12.65 M-19.0 -21.1 L-18.9 -22.35 Q-20.8 -18.5 -20.0 -14.15 L-18.9 -14.35 -19.0 -21.1 M-4.0 -13.6 L-4.9 -13.65 -4.9 -6.2 -3.95 -6.3 -4.0 -13.6 M-4.45 -22.15 L-4.8 -22.05 -4.9 -14.8 -4.0 -14.9 Q-4.05 -18.55 -4.45 -22.15 M-35.5 -7.45 L-35.95 -8.8 Q-37.75 -15.35 -34.65 -21.35 -39.25 -14.55 -35.5 -7.45 M-20.75 -22.8 L-22.9 -23.25 Q-19.4 -24.9 -15.9 -23.35 -11.8 -21.65 -12.0 -17.55 -12.25 -16.8 -12.65 -16.15 -13.7 -14.65 -15.5 -13.85 -14.55 -13.35 -14.2 -12.45 L-11.35 -5.8 -11.0 -5.4 -9.5 -6.9 -8.95 -6.3 -10.2 -2.85 -11.3 -2.9 -11.2 -4.05 Q-13.1 -4.65 -13.65 -6.5 L-14.4 -9.8 Q-14.9 -12.4 -17.6 -12.65 L-18.0 -4.7 -23.0 -5.2 -21.3 -5.8 -20.75 -22.8 M-29.85 -21.15 L-30.25 -21.95 -31.2 -22.25 Q-32.3 -22.15 -32.95 -21.0 -34.5 -18.2 -35.2 -14.95 -36.45 -9.2 -31.8 -6.2 -29.05 -5.95 -27.7 -8.3 -28.75 -9.95 -27.5 -10.45 -25.65 -9.05 -24.95 -6.8 L-26.55 -7.0 Q-28.6 -4.65 -31.75 -4.7 -37.0 -4.75 -38.25 -9.85 -39.45 -14.65 -37.8 -19.1 -36.8 -21.65 -34.45 -23.05 -30.75 -25.1 -28.5 -21.95 L-27.3 -22.85 -26.65 -22.3 Q-27.85 -20.15 -30.05 -19.45 L-30.75 -20.2 -29.85 -21.15 M4.75 5.45 L3.45 5.3 3.45 25.75 4.7 25.55 4.75 5.45 M11.8 21.8 Q13.6 17.55 12.5 12.75 11.25 7.25 5.8 5.65 L5.8 25.4 Q7.9 25.1 9.65 24.1 11.1 23.35 11.8 21.8 M14.4 18.4 L14.35 18.7 Q13.2 25.25 6.45 27.1 2.45 28.05 -0.55 26.45 L-0.1 25.95 2.1 25.85 1.8 4.9 -0.3 4.85 -0.55 4.5 0.0 3.75 Q7.55 2.85 11.95 8.75 13.8 11.25 14.35 14.05 14.75 16.15 14.4 18.4 M23.55 18.6 L22.2 18.4 Q20.55 24.05 19.5 26.35 L20.9 26.5 23.55 18.6 M25.15 17.05 L30.05 16.8 27.1 9.6 25.15 17.05 M28.4 4.6 Q27.95 5.65 26.7 5.6 31.9 15.35 34.95 25.95 L38.2 26.3 38.3 27.1 32.1 27.25 Q31.55 27.2 31.7 26.7 32.1 25.85 33.2 25.95 L30.5 18.3 24.8 18.6 Q24.05 23.45 21.4 27.45 L21.35 27.35 15.85 27.2 18.0 26.35 Q21.7 16.1 24.25 5.75 L22.45 5.75 22.0 5.05 Q22.3 4.15 23.4 4.1 25.9 3.75 28.15 4.15 L28.4 4.6 M26.15 8.05 L25.4 6.55 22.6 17.1 23.9 17.2 26.15 8.05 M2.7 -6.5 Q2.2 -8.75 2.7 -11.15 3.95 -17.15 6.4 -22.5 5.35 -14.4 2.7 -6.5 M1.35 -22.1 L0.65 -21.65 -0.15 -22.6 -2.5 -22.4 -2.6 -14.95 -1.1 -15.0 -1.0 -16.0 -0.55 -16.15 -0.05 -16.0 Q1.0 -14.2 0.0 -12.35 L-0.85 -12.5 -0.95 -13.8 -2.6 -13.65 -2.75 -6.45 0.0 -7.0 0.1 -8.7 1.0 -8.7 1.0 -3.95 0.25 -3.75 -0.1 -5.65 -5.95 -4.65 Q-7.1 -9.95 -6.65 -15.5 L-6.0 -22.1 -5.55 -22.75 Q-3.15 -24.15 -0.3 -23.85 L-0.35 -24.3 0.05 -24.95 Q1.85 -24.15 1.35 -22.1 M8.65 -20.75 L6.8 -12.8 11.45 -12.8 8.65 -20.75 M16.8 -21.85 L17.15 -22.7 21.8 -22.65 21.5 -21.8 Q20.65 -21.75 20.8 -21.2 L24.3 -15.45 Q26.9 -18.95 28.5 -22.95 L27.25 -23.15 26.9 -23.95 27.5 -24.15 28.9 -24.25 Q31.1 -24.9 31.9 -23.55 L29.9 -22.9 31.0 -6.25 32.4 -6.15 32.2 -5.2 Q31.1 -4.75 30.0 -4.85 27.9 -4.5 27.85 -5.85 L29.35 -6.25 28.65 -19.35 27.7 -17.4 Q26.55 -15.2 24.7 -14.0 L24.0 -14.05 Q22.1 -15.55 20.85 -17.9 L21.0 -5.8 21.5 -5.1 21.3 -5.0 16.95 -4.85 16.85 -5.55 16.35 -5.8 17.65 -6.05 18.2 -21.45 16.8 -21.85 M11.15 -23.9 L10.75 -23.5 9.2 -22.8 Q12.5 -15.5 14.65 -7.65 L15.1 -6.0 15.7 -5.65 13.1 -4.1 12.65 -4.8 13.7 -5.6 11.85 -11.55 6.5 -11.55 4.95 -6.2 5.95 -5.8 6.25 -4.9 Q3.35 -3.6 2.75 -6.3 L2.75 -6.4 3.55 -6.35 7.25 -22.95 5.95 -23.3 6.1 -24.0 8.7 -24.5 9.95 -24.35 11.15 -23.9 M19.65 -18.7 L19.15 -19.35 18.85 -6.05 19.6 -5.95 19.65 -18.7" fill="#000000" fill-rule="evenodd" stroke="none"/>
  </g>
</svg>
