<?xml version="1.0" encoding="UTF-8" standalone="no"?>
<svg xmlns:xlink="http://www.w3.org/1999/xlink" height="48.55px" width="74.6px" xmlns="http://www.w3.org/2000/svg">
  <g transform="matrix(1.0, 0.0, 0.0, 1.0, 38.0, 24.65)">
    <path d="M-16.5 -11.1 Q-16.65 -8.2 -15.5 -5.6 L-14.85 -4.35 Q-16.4 -13.45 -13.5 -22.25 -17.2 -17.6 -16.5 -11.1 M-11.6 -22.45 Q-14.05 -18.9 -14.15 -14.3 L-14.3 -9.55 Q-14.5 -5.9 -12.65 -2.9 L-9.8 -2.8 Q-7.95 -3.0 -7.3 -4.45 -6.7 -5.65 -6.5 -6.95 -5.6 -12.95 -6.85 -18.7 -7.7 -22.65 -11.6 -22.45 M-17.4 -17.95 Q-17.3 -19.0 -15.85 -21.2 -13.95 -24.15 -11.7 -24.15 -4.65 -24.15 -4.6 -12.6 L-5.05 -6.6 Q-5.2 -1.2 -11.1 -1.2 -15.95 -1.2 -17.4 -6.1 -17.85 -7.65 -17.95 -9.55 L-17.9 -11.05 Q-17.9 -14.65 -17.4 -17.95 M-25.0 -3.6 Q-21.45 -7.05 -24.3 -11.35 -23.35 -6.75 -25.9 -2.85 L-25.0 -3.6 M-30.4 -15.7 Q-31.2 -16.8 -31.2 -18.15 -31.2 -21.0 -30.75 -22.65 L-31.95 -21.35 Q-33.55 -17.35 -30.4 -15.7 M-22.6 -24.05 L-21.95 -23.45 -22.45 -22.5 Q-23.25 -21.05 -25.0 -20.35 L-25.55 -20.7 -24.95 -21.95 -25.5 -22.3 Q-27.0 -23.0 -28.8 -22.95 -31.35 -18.55 -27.0 -15.65 -24.35 -13.9 -22.75 -11.3 -20.9 -8.2 -22.1 -4.75 -23.3 -1.4 -26.95 -0.85 -32.75 -0.2 -35.5 -5.15 L-36.55 -4.7 -37.05 -5.45 Q-35.5 -6.95 -33.45 -7.25 L-33.15 -6.6 -34.15 -5.65 Q-32.75 -2.65 -29.6 -2.4 -26.3 -3.0 -25.7 -6.55 -25.1 -10.15 -26.8 -13.25 -29.5 -13.2 -31.35 -14.85 -35.85 -18.95 -31.95 -23.85 -27.8 -25.75 -24.05 -23.0 L-22.6 -24.05 M10.35 22.15 L11.05 21.5 Q13.85 18.6 11.6 15.0 12.35 18.85 10.35 22.15 M5.55 6.75 Q4.8 8.85 5.55 10.15 5.95 10.85 6.8 11.35 6.2 10.45 6.2 9.3 6.2 6.9 6.5 5.55 L5.6 6.6 5.55 6.75 M19.25 11.2 Q18.65 10.3 18.65 9.15 18.65 6.75 18.95 5.4 L18.05 6.45 Q16.8 9.8 19.25 11.2 M11.8 5.25 L12.9 4.35 13.45 4.85 13.05 5.65 Q12.4 6.85 11.05 7.45 L10.65 7.15 11.1 6.1 10.65 5.8 Q9.45 5.25 8.05 5.3 6.05 8.95 9.45 11.4 11.55 12.85 12.8 15.05 14.25 17.65 13.35 20.55 12.35 23.35 9.5 23.8 7.25 24.1 5.55 23.2 3.9 22.3 2.8 20.2 L2.0 20.6 1.6 19.95 Q2.8 18.7 4.4 18.45 L4.65 19.0 3.85 19.8 Q4.45 21.2 5.55 21.9 6.35 22.4 7.45 22.5 10.0 22.0 10.5 19.05 10.95 16.0 9.65 13.4 7.5 13.45 6.05 12.05 L5.55 11.55 Q2.8 8.35 5.55 4.6 L5.6 4.5 Q8.85 2.95 11.8 5.25 M30.35 5.6 L30.25 12.85 31.1 12.75 Q31.05 9.1 30.65 5.5 L30.35 5.6 M30.25 14.0 L30.25 21.45 31.1 21.35 31.1 14.05 30.25 14.0 M23.5 21.35 Q26.3 18.45 24.05 14.85 24.8 18.7 22.8 22.0 L23.5 21.35 M25.9 4.7 L25.5 5.5 Q24.85 6.7 23.5 7.3 L23.1 7.0 23.55 5.95 23.15 5.65 Q21.9 5.1 20.5 5.15 18.5 8.8 21.9 11.25 24.0 12.7 25.3 14.9 26.75 17.5 25.8 20.4 24.8 23.2 21.95 23.65 17.4 24.2 15.25 20.05 L14.45 20.45 14.05 19.8 Q15.25 18.55 16.85 18.3 L17.1 18.85 16.3 19.65 Q17.4 22.15 19.9 22.35 22.45 21.85 22.95 18.9 23.4 15.85 22.1 13.25 19.95 13.3 18.5 11.9 15.0 8.5 18.05 4.35 21.3 2.8 24.25 5.1 L25.35 4.2 25.9 4.7 M34.85 2.7 Q36.55 3.5 36.1 5.55 L35.4 6.0 34.7 5.05 32.5 5.25 32.4 12.7 33.8 12.65 33.9 11.65 34.3 11.5 34.75 11.65 Q35.75 13.45 34.8 15.3 L34.0 15.15 33.95 13.85 32.4 14.0 32.25 21.2 34.8 20.65 34.9 18.95 35.75 18.95 35.75 23.7 35.05 23.9 34.7 22.0 29.25 23.0 Q28.2 17.7 28.6 12.15 L29.2 5.55 Q29.25 5.1 29.65 4.9 31.85 3.5 34.55 3.8 L34.5 3.35 34.85 2.7 M23.45 -11.2 L28.35 -11.45 25.4 -18.65 23.45 -11.2 M24.45 -20.2 L23.7 -21.7 20.9 -11.15 22.2 -11.05 24.45 -20.2 M10.25 -19.5 Q13.5 -15.2 12.7 -9.85 11.65 -3.05 4.75 -1.15 0.75 -0.2 -2.25 -1.8 L-1.8 -2.3 0.4 -2.4 0.1 -23.35 -2.0 -23.4 -2.25 -23.75 -1.7 -24.5 Q5.85 -25.4 10.25 -19.5 M17.8 -1.9 L19.2 -1.75 21.85 -9.65 20.5 -9.85 Q18.85 -4.2 17.8 -1.9 M14.15 -1.05 L16.3 -1.9 Q20.0 -12.15 22.55 -22.5 L20.75 -22.5 20.3 -23.2 Q20.6 -24.1 21.7 -24.15 24.2 -24.5 26.45 -24.1 L26.7 -23.65 Q26.25 -22.6 25.0 -22.65 30.2 -12.9 33.25 -2.3 L36.5 -1.95 36.6 -1.15 30.4 -1.0 Q29.85 -1.05 30.0 -1.55 30.4 -2.4 31.5 -2.3 L28.8 -9.95 23.1 -9.65 Q22.35 -4.8 19.7 -0.8 L19.65 -0.9 14.15 -1.05 M4.1 -2.85 Q6.2 -3.15 7.95 -4.15 9.4 -4.9 10.1 -6.45 11.9 -10.7 10.8 -15.5 9.55 -21.0 4.1 -22.6 L4.1 -2.85 M3.05 -22.8 L1.75 -22.95 1.75 -2.5 3.0 -2.7 3.05 -22.8 M-21.05 19.25 L-20.5 20.35 Q-21.8 12.55 -19.45 5.05 -22.4 9.05 -21.85 14.55 -21.95 17.05 -21.05 19.25 M-34.9 8.5 L-35.35 7.85 Q-35.45 20.25 -35.65 21.15 L-34.95 21.25 -34.9 8.5 M-23.45 3.65 L-25.3 4.3 -24.3 20.95 -22.95 21.05 -23.15 22.0 -25.2 22.35 Q-27.2 22.7 -27.2 21.35 L-25.8 20.95 -26.5 7.85 -27.35 9.8 Q-28.45 12.0 -30.15 13.2 L-30.8 13.15 Q-32.6 11.65 -33.75 9.3 L-33.65 21.4 -33.15 22.1 -33.35 22.2 -37.4 22.35 -37.5 21.65 -38.0 21.4 -36.75 21.15 -36.25 5.75 -37.55 5.35 -37.25 4.5 -32.9 4.55 -33.15 5.4 Q-33.95 5.45 -33.8 6.0 L-30.55 11.75 Q-28.1 8.25 -26.6 4.25 L-27.8 4.05 -28.1 3.25 -27.55 3.05 -26.25 2.95 Q-24.2 2.3 -23.45 3.65 M-12.35 13.3 L-12.7 18.4 Q-12.85 23.0 -17.55 23.0 -21.4 23.0 -22.6 18.85 L-23.0 15.9 -22.95 14.6 Q-22.95 11.55 -22.6 8.75 -22.5 7.85 -21.3 5.95 -19.8 3.45 -18.05 3.45 -12.4 3.45 -12.35 13.3 M-17.95 4.9 Q-19.9 7.95 -19.95 11.85 L-20.1 15.9 Q-20.25 19.0 -18.8 21.55 L-16.5 21.65 Q-15.05 21.5 -14.55 20.25 -14.0 19.2 -13.9 18.1 -13.2 13.0 -14.15 8.1 -14.8 4.75 -17.95 4.9" fill="#000000" fill-rule="evenodd" stroke="none"/>
    <path d="M-5.7 6.15 L-8.2 6.3 -8.7 6.3 -9.2 11.0 -9.5 15.2 Q-9.5 19.1 -8.65 20.8 -7.6 23.0 -4.75 23.0 -2.0 23.0 -0.75 19.9 0.1 17.75 0.1 14.3 L-0.2 10.15 -0.6 5.7 -0.75 4.9 -2.4 5.25 M-0.75 4.9 L-0.7 4.9 1.35 4.85 M-8.65 5.7 L-8.7 6.3 -10.7 6.15" fill="none" stroke="#000000" stroke-linecap="round" stroke-linejoin="round" stroke-width="1.5"/>
    <path d="M-7.0 6.6 L-7.55 12.25 -7.8 16.55 Q-7.8 17.25 -7.0 19.45 -6.25 21.55 -5.7 22.1" fill="none" stroke="#000000" stroke-linecap="round" stroke-linejoin="round" stroke-width="1.0"/>
  </g>
</svg>
