<?xml version="1.0" encoding="UTF-8" standalone="no"?>
<svg xmlns:xlink="http://www.w3.org/1999/xlink" height="53.0px" width="71.25px" xmlns="http://www.w3.org/2000/svg">
  <g transform="matrix(1.0, 0.0, 0.0, 1.0, 35.45, 22.65)">
    <path d="M13.0 -21.75 L12.85 -22.0 13.25 -22.55 Q18.75 -23.25 22.0 -18.9 23.4 -17.05 23.75 -15.0 L23.75 -11.6 Q22.9 -6.8 17.95 -5.4 15.0 -4.75 12.85 -5.9 L13.15 -6.25 14.75 -6.35 14.55 -21.75 13.0 -21.75 M26.0 -17.85 Q26.05 -18.65 27.15 -20.4 28.6 -22.65 30.35 -22.65 35.8 -22.65 35.8 -13.75 L35.5 -9.15 Q35.4 -4.95 30.85 -4.95 27.1 -4.95 26.0 -8.75 25.65 -9.95 25.55 -11.4 L25.6 -12.55 Q25.6 -15.3 26.0 -17.85 M29.0 -21.2 Q26.15 -17.6 26.65 -12.6 26.55 -10.35 27.4 -8.35 L27.95 -7.4 Q26.75 -14.4 29.0 -21.2 M34.1 -18.4 Q33.45 -21.5 30.45 -21.3 28.6 -18.6 28.5 -15.05 L28.35 -11.4 Q28.2 -8.55 29.65 -6.25 L31.8 -6.2 Q33.25 -6.35 33.75 -7.45 34.25 -8.35 34.35 -9.4 35.05 -14.0 34.1 -18.4 M17.5 -21.2 L17.5 -6.65 Q19.05 -6.9 20.3 -7.65 21.35 -8.2 21.9 -9.3 23.2 -12.45 22.4 -15.95 21.5 -20.0 17.5 -21.2 M3.4 -11.6 L2.45 -11.75 0.55 -6.1 1.5 -6.0 3.4 -11.6 M8.0 -12.9 L5.9 -17.95 4.55 -12.7 8.0 -12.9 M2.75 -12.65 L3.65 -12.6 5.25 -19.05 4.7 -20.1 2.75 -12.65 M6.65 -21.8 L6.85 -21.55 Q6.5 -20.75 5.65 -20.8 9.3 -13.9 11.5 -6.4 L12.45 -6.25 12.45 -5.55 9.45 -5.45 Q9.05 -5.5 9.2 -5.85 9.45 -6.45 10.25 -6.4 L8.35 -11.8 4.3 -11.6 Q3.75 -8.15 1.9 -5.35 L1.85 -5.4 Q0.3 -4.75 -1.0 -5.05 L-1.4 -5.15 -1.4 -5.75 -0.55 -6.1 Q2.1 -13.35 3.9 -20.65 L2.6 -20.65 2.35 -21.2 Q2.55 -21.8 3.3 -21.85 5.05 -22.1 6.65 -21.8 M16.75 -21.3 L15.75 -21.45 15.75 -6.4 16.7 -6.55 16.75 -21.3 M-25.5 -20.2 L-25.5 -20.25 -24.6 -20.25 -24.6 -20.2 -25.5 -20.2 -24.6 -20.2 -24.6 -4.15 -24.6 -4.0 -25.55 -4.0 -25.55 -4.05 -24.6 -4.15 -25.55 -4.05 -25.5 -12.65 -25.5 -20.2 M-20.95 -19.5 L-20.55 -20.1 Q-18.5 -21.25 -16.1 -21.0 L-16.15 -21.4 -15.8 -21.95 Q-14.25 -21.25 -14.7 -19.5 L-15.25 -19.15 -15.95 -19.95 -17.95 -19.8 -18.05 -13.45 -16.75 -13.45 -16.7 -14.3 -16.3 -14.45 -15.85 -14.3 Q-15.0 -12.8 -15.85 -11.2 L-16.55 -11.35 -16.65 -12.45 -18.05 -12.3 -18.15 -6.2 -15.85 -6.65 -15.75 -8.1 -15.0 -8.1 -15.0 -4.05 -15.6 -3.9 -15.9 -5.5 -20.9 -4.65 Q-21.9 -9.15 -21.5 -13.9 L-20.95 -19.5 M-34.15 -19.7 L-34.15 -20.1 -32.8 -20.1 -32.8 -19.7 -34.15 -19.7 -32.8 -19.7 -32.8 -12.0 -32.8 -3.9 -33.95 -3.9 -34.15 -19.7 M-31.7 -19.8 L-31.7 -20.1 -30.8 -20.1 -30.8 -19.8 -31.7 -19.8 -30.8 -19.8 -30.8 -12.1 -30.8 -3.9 -31.7 -3.9 -31.7 -12.0 -31.7 -19.8 M-8.2 -20.8 L-9.1 -20.7 -8.2 -20.8 -8.2 -5.55 -9.15 -5.4 -8.2 -5.55 -8.2 -4.95 -9.15 -4.95 -9.15 -5.4 -9.1 -20.7 -9.1 -20.85 -8.2 -20.9 -8.2 -20.8 M-11.55 -20.65 L-11.55 -20.75 -10.2 -20.75 -10.2 -20.65 -11.55 -20.65 -10.2 -20.65 -10.2 -5.15 -10.2 -4.95 -10.5 -4.95 -11.35 -4.95 -11.55 -20.65 M-19.25 -12.3 L-20.0 -12.3 -20.0 -5.95 -19.2 -6.05 -19.25 -12.3 M-19.6 -19.55 L-19.9 -19.5 -20.0 -13.3 -19.25 -13.4 -19.6 -19.55 M-10.2 -5.15 L-10.5 -4.95 -10.2 -5.15" fill="#000000" fill-rule="evenodd" stroke="none"/>
    <path d="M-24.6 -20.2 L-23.9 -20.2 M-25.5 -20.2 L-25.95 -20.2 M-25.5 -20.2 L-24.6 -20.2 M-24.6 -4.15 L-23.35 -4.25 M-34.95 -19.7 L-34.15 -19.7 -32.8 -19.7 -31.7 -19.8 -30.8 -19.8 -30.05 -19.95 M-32.8 -12.0 L-31.7 -12.0 M-25.55 -4.05 L-25.95 -4.05 M-24.6 -4.15 L-25.55 -4.05 M-25.5 -12.65 L-28.5 -12.3 -30.8 -12.1 M-34.95 -3.3 Q-32.15 -3.15 -29.8 -4.0 M-9.1 -20.7 L-8.2 -20.8 -7.55 -20.9 M-9.15 -5.4 L-8.2 -5.55 -6.6 -5.7 -2.3 -6.1 -2.3 -7.75 M-11.55 -20.65 L-12.4 -20.65 -12.4 -20.2 M-11.55 -20.65 L-10.2 -20.65 -9.1 -20.7 M-10.5 -4.95 L-10.2 -5.15 -9.15 -5.4 M-2.3 -6.1 L-2.3 -4.5" fill="none" stroke="#000000" stroke-linecap="round" stroke-linejoin="round" stroke-width="1.0"/>
    <path d="M-28.75 26.75 L-29.15 25.55 Q-30.7 19.85 -28.0 14.6 -32.05 20.55 -28.75 26.75 M-31.15 24.65 Q-32.2 20.45 -30.75 16.55 -29.9 14.3 -27.85 13.1 -24.6 11.3 -22.65 14.05 L-21.6 13.25 -21.0 13.75 Q-22.05 15.65 -24.0 16.25 L-24.6 15.6 -23.8 14.75 -24.15 14.05 -25.0 13.8 Q-25.95 13.9 -26.55 14.9 -27.9 17.35 -28.5 20.2 -29.6 25.2 -25.5 27.85 -23.1 28.05 -21.95 26.0 -22.85 24.55 -21.75 24.1 -20.15 25.35 -19.55 27.3 L-20.95 27.15 Q-22.7 29.2 -25.5 29.15 -30.05 29.1 -31.15 24.65 M-1.2 21.35 L-2.0 21.3 -2.0 27.85 -1.2 27.75 -1.2 21.35 M-1.6 13.9 L-1.9 13.95 -2.0 20.3 -1.2 20.2 Q-1.25 17.05 -1.6 13.9 M-14.25 22.2 L-15.2 22.2 -15.3 28.2 -14.3 28.2 -14.25 22.2 M-13.1 20.5 Q-11.0 19.95 -10.15 19.35 -9.25 18.65 -9.25 17.35 -9.25 16.25 -10.05 15.25 -11.05 13.95 -13.0 13.7 L-13.1 20.5 M-15.85 13.3 L-17.75 12.95 Q-14.7 11.5 -11.6 12.85 -8.05 14.3 -8.2 17.9 L-8.8 19.15 Q-9.7 20.45 -11.25 21.15 -10.45 21.6 -10.15 22.35 L-7.65 28.2 -7.35 28.55 -6.05 27.2 -5.55 27.75 -6.45 30.35 -7.55 30.35 -7.5 29.7 Q-9.2 29.2 -9.65 27.55 L-10.3 24.7 Q-10.75 22.4 -13.1 22.2 L-13.45 29.15 -17.85 28.7 -16.35 28.2 -15.85 13.3 M-14.35 14.8 L-14.25 13.7 Q-15.9 17.1 -15.2 20.9 L-14.25 20.7 -14.35 14.8 M8.35 16.9 L7.9 16.35 7.65 27.95 8.3 28.05 8.35 16.9 M1.95 12.0 L2.3 11.45 Q3.9 12.15 3.45 13.95 L2.85 14.3 2.15 13.5 0.1 13.65 0.0 20.2 1.3 20.15 1.4 19.25 1.8 19.15 2.25 19.25 Q3.15 20.85 2.25 22.45 L1.55 22.3 1.45 21.2 0.0 21.3 -0.15 27.6 2.25 27.15 2.35 25.65 3.15 25.65 3.15 29.8 2.5 29.95 2.2 28.3 -2.95 29.2 Q-3.95 24.55 -3.55 19.7 L-2.95 13.95 Q-2.95 13.55 -2.6 13.35 -0.5 12.15 2.0 12.4 L1.95 12.0 M15.2 12.15 L16.45 12.05 Q18.35 11.5 19.05 12.65 L17.3 13.25 18.25 27.8 19.5 27.85 19.3 28.7 17.4 29.0 Q15.55 29.3 15.5 28.15 L16.8 27.8 16.2 16.35 15.4 18.05 Q14.4 19.95 12.75 21.0 L12.15 20.95 Q10.5 19.65 9.4 17.6 L9.55 28.2 9.95 28.8 9.8 28.9 6.0 29.0 5.9 28.4 Q5.7 28.25 5.45 28.2 L6.6 27.95 7.1 14.5 5.85 14.15 6.15 13.4 10.25 13.45 9.95 14.2 Q9.2 14.25 9.35 14.7 L12.4 19.75 Q14.7 16.7 16.1 13.2 L15.0 13.0 14.7 12.3 15.2 12.15 M21.2 19.55 Q22.1 16.55 23.4 13.75 22.7 19.1 21.2 24.35 L20.15 27.75 Q19.7 25.75 20.15 23.7 20.6 21.6 21.2 19.55 M27.8 22.25 L25.35 15.3 23.75 22.25 27.8 22.25 M25.4 12.0 L26.5 12.15 27.55 12.55 27.2 12.9 25.85 13.5 Q28.25 18.95 30.0 24.75 L30.6 26.75 31.0 28.2 31.5 28.5 30.6 29.05 30.0 29.35 Q29.65 29.55 29.25 29.85 L28.85 29.25 29.75 28.55 28.15 23.35 23.45 23.35 22.1 28.0 23.0 28.35 23.25 29.15 21.2 29.4 Q20.45 29.1 20.2 27.9 L20.2 27.85 20.9 27.85 24.1 13.35 23.0 13.05 23.1 12.45 25.4 12.0" fill="#000000" fill-rule="evenodd" stroke="none"/>
    <path d="M0.75 3.65 L0.4 3.65 0.4 8.35 0.8 8.25 0.75 3.65 M4.4 -2.65 L4.45 -2.25 4.4 -1.75 3.9 -1.5 3.85 -1.55 3.7 -1.5 3.25 -2.05 1.95 -1.9 1.85 2.85 2.65 2.75 2.65 2.15 3.0 2.05 3.1 2.1 3.15 2.05 3.45 2.15 Q4.15 3.25 3.45 4.45 L3.3 4.45 2.8 4.4 2.75 3.5 1.85 3.6 1.75 8.15 3.3 7.85 3.4 6.75 4.15 6.75 4.15 9.55 3.45 9.55 3.3 8.7 -0.25 9.3 -0.4 9.3 Q-1.15 5.9 -0.85 2.4 L-0.55 -1.25 -0.5 -1.75 -0.25 -2.15 -0.1 -2.25 0.95 -2.65 2.55 -2.85 3.3 -2.85 4.3 -2.85 4.4 -2.65 M0.55 -1.25 L0.5 -1.65 0.4 2.9 0.75 2.85 0.55 -1.25 M-7.9 -2.05 Q-6.15 -2.05 -4.85 -1.25 L-3.25 0.3 Q-2.4 1.5 -2.15 2.85 L-2.15 4.95 Q-2.7 7.95 -5.85 8.9 L-7.1 9.0 -9.2 8.5 -9.0 8.35 -8.0 8.25 -8.2 -1.5 -9.15 -1.5 -9.2 -1.65 -9.0 -2.0 -7.9 -2.05 M-4.55 7.45 Q-3.9 7.1 -3.5 6.4 -2.7 4.4 -3.2 2.2 -3.75 -0.25 -6.1 -1.05 L-6.1 8.1 -4.55 7.45 M-6.8 -1.2 L-7.2 -1.25 -7.2 8.25 -6.85 8.15 -6.8 -1.2" fill="#000000" fill-rule="evenodd" stroke="none"/>
  </g>
</svg>
