<?xml version="1.0" encoding="UTF-8" standalone="no"?>
<svg xmlns:xlink="http://www.w3.org/1999/xlink" height="34.3px" width="76.9px" xmlns="http://www.w3.org/2000/svg">
  <g transform="matrix(1.0, 0.0, 0.0, 1.0, 39.6, 12.75)">
    <path d="M6.7 -6.15 L8.95 -2.8 9.3 -3.7 10.45 -6.75 12.1 -10.65 12.3 -10.9 Q12.4 -11.7 12.75 -11.4 L12.85 -11.3 13.1 -11.05 13.95 -9.3 Q15.65 -5.0 16.15 -0.05 16.3 2.4 17.0 6.95 L17.6 12.95 18.05 13.05 Q20.05 13.6 21.8 15.6 L22.0 15.6 22.1 15.85 22.25 16.2 22.25 16.3 22.25 16.55 22.1 17.05 22.1 17.35 21.95 17.45 21.55 17.6 20.95 17.95 17.3 19.05 14.05 19.05 Q12.6 18.6 12.6 17.5 12.6 16.8 14.25 16.3 13.5 12.85 12.95 4.25 L12.45 -5.25 10.75 0.3 11.2 1.05 11.15 1.6 11.0 1.8 10.85 2.0 10.1 2.2 Q8.15 2.2 5.75 -0.75 L5.25 4.25 Q4.7 8.55 4.7 10.5 L4.7 15.0 Q4.7 16.45 5.9 17.2 L6.0 17.25 8.35 17.4 8.5 17.65 8.65 18.35 Q8.65 19.2 7.7 19.4 5.9 19.75 4.7 20.45 L4.25 20.05 3.1 20.45 Q0.8 20.45 -1.1 19.05 -2.6 17.9 -2.8 16.85 L-1.2 16.65 -0.75 16.65 -0.8 16.5 -1.0 15.5 Q-1.0 12.9 -0.35 8.75 L0.75 1.9 Q1.5 -2.35 1.5 -4.8 1.8 -6.5 2.25 -7.4 2.4 -12.0 6.7 -6.15 M26.55 -4.45 Q25.1 -1.95 25.1 1.5 25.1 3.45 26.15 5.15 27.6 7.65 30.6 7.65 33.0 7.65 33.8 4.3 34.15 2.6 34.1 0.7 34.1 -3.65 32.65 -5.75 31.45 -7.6 29.6 -7.15 27.8 -6.7 26.55 -4.45 M29.5 -10.15 Q25.05 -10.15 22.8 -7.2 21.7 -5.65 20.85 -2.3 L20.85 -2.2 21.6 -4.05 Q22.15 -5.35 22.8 -6.25 24.85 -8.95 29.5 -10.15 M22.8 -0.2 Q22.65 0.6 22.65 2.4 22.65 5.1 23.6 7.35 25.25 11.25 29.2 11.25 L30.6 11.15 31.1 10.4 31.4 10.2 Q25.15 9.2 23.55 5.4 23.0 4.15 22.9 2.35 L22.8 -0.3 22.8 -0.2 M27.8 -12.75 Q31.7 -12.95 34.35 -9.25 37.3 -5.05 37.3 2.85 37.3 7.6 36.5 9.75 34.7 14.75 28.7 14.75 22.45 14.75 19.75 8.1 18.45 4.75 18.35 1.1 18.35 -4.95 21.3 -8.9 24.05 -12.6 27.8 -12.75 M2.55 10.35 Q1.7 14.75 0.9 16.7 L2.55 16.7 2.55 10.9 2.55 10.35 M17.6 15.75 L18.25 15.7 17.6 15.25 17.6 15.75 M-28.25 -9.5 L-30.1 -10.1 -30.2 -10.25 -30.15 -10.9 Q-29.95 -11.8 -28.6 -11.85 L-21.55 -11.4 -18.35 -10.85 -17.8 -10.05 -17.6 -9.55 -22.4 -9.25 -23.5 -9.25 Q-24.8 -3.6 -25.6 -0.9 L-27.25 5.4 -28.5 10.3 -29.85 15.4 -29.4 15.4 -23.5 16.6 Q-20.0 17.3 -19.65 15.8 L-19.0 13.45 Q-17.25 13.7 -17.25 15.05 -17.25 15.75 -17.65 16.55 -18.2 18.9 -19.4 19.35 L-30.5 17.6 -30.5 17.65 -30.7 17.7 -31.5 17.7 -31.55 17.5 -35.1 17.35 -38.85 17.85 -39.55 16.9 -39.6 16.4 Q-39.35 15.25 -37.45 15.15 L-34.85 15.15 -34.75 14.35 -34.15 11.8 -31.15 1.15 -28.2 -9.5 -28.25 -9.5 M-10.3 -9.65 Q-10.3 -10.35 -9.65 -10.85 -9.0 -11.4 -8.2 -11.4 -6.05 -11.55 -6.05 -9.05 -6.05 -8.25 -6.2 -8.0 -6.55 -7.45 -7.85 -7.45 -9.75 -7.45 -10.25 -8.7 L-10.3 -9.65 M-11.15 -6.7 Q-6.15 -5.45 -2.35 -5.15 L-2.2 -4.9 -2.1 -4.2 Q-2.1 -3.55 -2.75 -3.25 L-6.9 -2.8 -7.2 -2.8 -7.1 -2.5 -7.1 17.9 -6.85 18.15 -6.7 18.6 -5.65 18.3 Q-4.55 18.3 -4.55 19.55 -4.55 20.5 -5.3 20.95 -6.25 21.55 -8.7 21.55 -11.55 21.55 -13.45 20.7 -15.0 20.0 -15.0 19.45 L-14.95 18.9 -15.0 18.5 Q-15.0 17.5 -13.0 16.55 L-11.75 16.25 -11.75 0.0 -10.6 -3.05 -11.5 -3.3 -14.05 -4.05 -14.15 -4.2 -14.25 -4.85 Q-14.25 -6.3 -13.45 -6.65 L-11.15 -6.7 M-9.35 -2.9 Q-9.2 -2.25 -9.2 -1.2 -9.2 0.6 -9.6 1.35 L-9.6 19.2 -8.55 19.2 Q-9.1 17.8 -9.2 14.05 L-9.2 7.95 -9.1 -0.1 -8.8 -2.85 -9.35 -2.9 M-12.0 18.65 L-12.1 18.75 -12.1 18.8 -12.05 18.85 -12.0 18.7 -12.0 18.65 M-31.35 15.3 L-29.4 3.7 -32.9 15.25 -31.35 15.3" fill="#000000" fill-rule="evenodd" stroke="none"/>
  </g>
</svg>
