<?xml version="1.0" encoding="UTF-8" standalone="no"?>
<svg xmlns:xlink="http://www.w3.org/1999/xlink" height="75.05px" width="41.45px" xmlns="http://www.w3.org/2000/svg">
  <g transform="matrix(1.0, 0.0, 0.0, 1.0, -6.75, -10.75)">
    <path d="M45.35 45.4 Q43.35 53.15 40.75 60.45 33.75 85.05 31.65 85.65 L29.45 85.8 27.8 85.75 Q26.9 85.05 21.9 75.45 15.45 62.35 13.05 55.0 L9.4 43.5 Q8.15 39.35 6.95 34.2 6.0 30.1 9.9 22.9 14.85 13.7 24.1 11.0 L31.15 10.75 Q34.2 11.45 39.5 14.25 43.2 16.2 46.05 23.7 48.6 30.4 48.1 33.25 L45.35 45.4" fill="url(#gradient0)" fill-rule="evenodd" stroke="none"/>
    <path d="M10.2 31.45 Q15.45 52.15 28.2 83.8 L28.15 83.9 Q15.8 54.3 10.1 31.45 L10.2 31.45 M20.0 23.55 Q21.45 35.9 24.15 53.1 L28.95 82.8 Q27.55 77.05 26.2 68.05 L24.0 53.15 Q21.05 35.6 19.9 23.55 L20.0 23.55 M32.6 21.7 Q32.6 27.9 29.95 79.5 L29.85 79.55 29.8 76.7 Q29.8 71.65 31.05 46.85 L32.45 20.8 32.5 20.8 32.6 21.7 M31.7 80.95 Q37.2 44.05 40.45 27.8 L36.05 55.0 Q33.25 71.9 31.75 82.3 L31.7 82.3 31.7 80.95" fill="#ffffff" fill-rule="evenodd" stroke="none"/>
  </g>
  <defs>
    <radialGradient cx="0" cy="0" gradientTransform="matrix(-0.0233, 2.0E-4, -0.0015, -0.0851, 29.5, 85.25)" gradientUnits="userSpaceOnUse" id="gradient0" r="819.2" spreadMethod="pad">
      <stop offset="0.0" stop-color="#fdabfe" stop-opacity="0.7529412"/>
      <stop offset="0.3764705882352941" stop-color="#fdeffe" stop-opacity="0.6"/>
      <stop offset="0.5254901960784314" stop-color="#fef7fe" stop-opacity="0.48235294"/>
      <stop offset="1.0" stop-color="#ffffff" stop-opacity="0.0"/>
    </radialGradient>
  </defs>
</svg>
