<?xml version="1.0" encoding="UTF-8" standalone="no"?>
<svg xmlns:xlink="http://www.w3.org/1999/xlink" height="84.6px" width="42.6px" xmlns="http://www.w3.org/2000/svg">
  <g transform="matrix(1.0, 0.0, 0.0, 1.0, -6.3, -1.15)">
    <path d="M48.1 31.85 Q46.9 37.55 43.55 45.5 40.2 53.5 38.45 60.25 31.2 84.45 30.45 85.75 L27.75 85.75 23.05 72.9 Q18.65 61.65 15.0 54.55 11.3 47.5 9.75 43.45 8.15 39.35 6.95 34.2 6.25 31.2 6.3 26.8 6.35 21.7 7.5 19.1 9.3 15.05 12.2 11.05 16.05 5.7 20.0 3.35 24.6 0.65 30.1 1.25 35.9 1.9 40.15 6.05 46.3 12.0 48.75 23.4 49.3 26.15 48.1 31.85 M21.35 67.5 L21.35 67.45 21.25 67.6 21.35 67.5 M33.35 73.95 L33.25 74.15 33.35 74.05 33.35 73.95" fill="url(#gradient0)" fill-rule="evenodd" stroke="none"/>
    <path d="M23.7 21.55 L23.75 21.55 25.55 52.95 Q26.85 70.9 29.45 84.45 L29.4 84.55 Q26.75 70.85 25.4 53.3 24.65 43.7 23.7 22.05 L23.7 21.55 M30.45 9.55 L30.5 10.5 Q30.5 14.75 29.7 27.25 28.85 39.75 28.85 49.45 L29.0 62.6 29.2 72.95 29.2 80.8 29.15 80.85 Q28.6 55.25 28.6 49.15 28.6 40.65 29.2 29.45 L30.35 9.55 30.45 9.55 M11.25 24.05 Q14.2 37.9 19.05 54.4 22.6 66.45 28.7 84.7 L28.65 84.8 Q24.45 73.65 17.95 51.2 11.2 28.05 11.2 24.2 L11.2 24.05 11.25 24.05 M29.6 82.8 L34.6 49.55 Q37.6 29.6 41.0 16.45 L37.7 33.05 Q35.7 43.1 34.85 49.65 32.2 69.45 29.7 82.75 L29.6 82.8" fill="#ffffff" fill-rule="evenodd" stroke="none"/>
  </g>
  <defs>
    <radialGradient cx="0" cy="0" gradientTransform="matrix(-0.015, 1.0E-4, -0.0011, -0.0924, 28.85, 88.2)" gradientUnits="userSpaceOnUse" id="gradient0" r="819.2" spreadMethod="pad">
      <stop offset="0.0" stop-color="#fdabfe" stop-opacity="0.7529412"/>
      <stop offset="0.3764705882352941" stop-color="#fdeffe" stop-opacity="0.6"/>
      <stop offset="0.5254901960784314" stop-color="#fef7fe" stop-opacity="0.48235294"/>
      <stop offset="1.0" stop-color="#ffffff" stop-opacity="0.0"/>
    </radialGradient>
  </defs>
</svg>
