<?xml version="1.0" encoding="UTF-8" standalone="no"?>
<svg xmlns:xlink="http://www.w3.org/1999/xlink" height="110.4px" width="106.0px" xmlns="http://www.w3.org/2000/svg">
  <g transform="matrix(1.0, 0.0, 0.0, 1.0, 53.0, 55.15)">
    <path d="M42.35 -51.25 L40.25 -52.05 Q31.05 -52.3 22.0 -50.45 17.6 -49.4 13.15 -49.9 L3.95 -51.0 0.35 -50.75 Q2.65 -47.35 3.2 -43.55 L3.45 -38.45 3.15 -35.95 Q6.55 -35.3 9.65 -33.45 L12.05 -31.95 13.1 -31.1 Q14.15 -34.95 14.05 -38.8 L13.8 -43.35 Q17.2 -42.8 20.3 -41.25 21.5 -40.65 22.9 -40.35 26.85 -40.45 30.35 -41.5 L38.15 -43.9 41.0 -45.1 Q42.7 -45.9 43.95 -47.15 L44.5 -48.15 Q44.7 -49.15 44.05 -49.9 L42.35 -51.25 M4.35 -52.65 L12.15 -52.05 21.55 -52.5 24.65 -53.2 29.1 -54.4 39.0 -55.15 Q43.75 -54.4 45.95 -50.25 46.8 -48.7 47.05 -46.95 L46.95 -45.5 44.6 -36.05 Q43.55 -31.45 43.15 -26.7 42.75 -22.05 42.8 -17.3 L43.0 -9.6 42.95 -5.35 Q42.95 -4.7 43.3 -4.15 L46.5 0.1 Q48.95 3.35 50.2 7.1 L51.75 12.25 Q53.0 16.9 51.55 21.5 L52.65 23.15 Q53.3 24.2 52.7 25.5 L51.55 27.1 47.55 30.05 Q44.4 32.1 41.1 33.95 34.15 37.8 26.7 40.85 L15.35 45.25 11.45 46.5 Q3.7 48.5 -3.9 50.65 L-10.15 52.4 -17.2 54.1 -23.85 55.1 Q-25.6 55.45 -27.3 55.1 -32.25 54.6 -37.05 53.35 -41.9 52.2 -46.6 50.55 L-50.0 49.15 -51.55 48.5 -52.55 46.45 -53.0 44.5 -52.8 42.45 -52.1 40.25 -52.5 37.25 Q-52.6 35.6 -52.25 34.05 -51.9 32.25 -51.2 30.5 -49.75 26.8 -47.2 23.65 -44.35 20.2 -40.55 18.1 L-36.75 16.3 Q-32.65 14.75 -28.4 14.8 -26.45 14.85 -24.8 15.8 L-24.4 15.35 -24.35 14.7 -21.95 13.05 Q-20.35 12.15 -18.85 11.6 -15.6 10.45 -12.6 8.7 -12.4 5.05 -8.15 3.35 -7.35 2.8 -6.4 2.55 L-4.5 1.9 -1.2 -1.7 -1.45 -5.65 Q-1.75 -8.9 -2.7 -12.1 -3.85 -16.05 -6.15 -19.35 -8.6 -22.9 -9.0 -27.25 L-9.0 -29.95 Q-8.75 -32.75 -6.45 -34.55 L-3.9 -35.95 -0.7 -36.5 0.95 -36.3 0.85 -40.4 Q0.75 -43.55 -0.3 -46.65 -1.3 -49.6 -2.95 -52.15 L-0.6 -52.7 1.9 -52.75 4.35 -52.65 M42.85 -40.5 L43.6 -43.4 42.25 -42.65 39.35 -41.55 34.85 -40.4 28.05 -38.75 24.35 -38.3 Q19.0 -38.35 14.9 -41.55 16.5 -38.45 16.3 -34.9 16.15 -32.05 14.65 -29.65 L16.15 -27.95 18.7 -24.25 19.45 -22.65 19.6 -20.0 Q19.15 -16.55 17.7 -13.4 L14.75 -7.05 12.6 -3.0 11.15 -1.15 6.85 3.15 10.15 4.6 11.8 5.45 Q12.9 6.0 13.45 7.15 L14.85 6.35 Q15.25 8.3 13.3 9.0 L10.85 9.55 Q7.75 9.85 4.85 8.7 L2.55 7.55 -2.25 8.25 0.9 11.05 1.6 12.1 2.15 13.15 3.0 15.45 Q3.75 18.0 3.85 20.2 L5.95 18.95 5.65 20.5 3.25 21.45 2.7 21.85 2.1 21.9 1.05 21.3 -1.25 19.6 -12.7 18.05 -11.25 19.65 Q-9.2 22.25 -8.4 25.4 L-7.6 24.55 Q-7.4 27.55 -10.0 28.55 L-10.2 28.55 Q-11.5 28.8 -12.3 28.55 L-19.6 17.7 -22.0 17.45 -20.45 20.6 -21.4 19.8 -24.1 17.85 -24.25 17.9 -30.05 17.2 -30.85 17.25 Q-34.2 17.6 -37.3 18.8 -41.85 20.7 -45.25 24.4 L-46.15 25.45 Q-48.15 28.1 -49.1 31.05 -50.3 34.85 -50.7 39.15 L-43.4 43.55 -42.55 43.95 Q-37.45 46.1 -32.0 46.75 L-22.6 46.35 Q-20.4 45.95 -18.1 45.15 L-13.65 43.2 -17.75 26.25 Q-14.5 30.35 -12.8 35.55 -11.4 39.75 -11.15 44.5 3.1 42.2 16.55 37.15 L25.4 33.65 33.55 30.2 Q36.9 28.65 40.15 26.9 L43.1 24.8 49.05 19.55 48.9 17.3 Q48.3 9.15 44.8 1.7 L43.8 0.15 Q43.0 -0.75 42.55 -2.2 L41.35 1.8 39.7 5.7 40.45 -1.1 Q39.3 1.4 36.9 2.9 L35.25 3.9 35.1 3.05 Q37.1 0.35 38.7 -2.8 39.8 -4.95 40.4 -7.2 40.95 -9.4 40.9 -11.85 L40.4 -20.7 40.7 -24.65 41.6 -32.6 42.85 -40.5 M-8.45 25.35 L-8.45 25.4 -8.4 25.4 -8.45 25.4 -8.45 25.35 M5.85 -32.35 L5.65 -32.4 Q1.75 -33.65 -2.35 -33.45 L-5.5 -32.85 -6.25 -32.3 -6.95 -31.0 -7.6 -28.2 Q-7.05 -24.25 -4.75 -20.7 -3.0 -18.15 -1.95 -15.15 -1.0 -12.3 -0.6 -9.3 -0.2 -6.45 -0.25 -3.55 -0.25 -2.15 -0.4 -0.7 L1.15 -0.9 2.4 -0.45 Q0.35 0.55 -1.75 1.5 L-1.85 1.7 -1.75 1.7 3.4 2.2 5.0 2.55 Q9.15 -2.1 12.0 -7.45 L14.3 -12.1 16.15 -16.9 Q16.95 -19.2 16.75 -21.55 L16.5 -23.1 Q16.15 -24.6 15.1 -25.65 L12.55 -28.35 11.15 -29.65 8.15 -31.5 5.85 -32.35 M-3.2 -30.1 L-3.1 -30.1 -3.0 -30.15 2.15 -30.0 2.3 -29.95 5.2 -28.7 5.6 -28.45 Q7.3 -27.3 8.85 -25.4 L8.85 -25.3 Q2.95 -29.3 -5.05 -29.15 L-5.9 -29.35 -3.2 -30.1 M41.35 29.45 L39.65 30.25 32.25 33.3 25.8 36.2 22.2 37.7 14.9 40.45 7.35 42.7 2.4 44.2 -6.35 46.2 Q-9.9 47.15 -13.6 46.8 L-17.05 48.15 -20.7 49.15 -22.55 49.5 -31.95 49.25 Q-37.0 48.5 -42.15 46.8 -46.0 45.65 -49.55 43.7 L-50.2 44.55 -50.2 46.2 -47.5 48.05 -43.75 50.15 -42.45 50.75 -35.5 51.95 Q-28.05 52.75 -20.75 51.9 L-14.6 50.95 -5.6 48.7 1.55 46.95 Q7.65 45.6 13.55 43.65 L20.55 41.15 Q26.5 38.95 32.2 36.05 41.7 31.35 50.5 25.45 L50.7 24.85 49.85 23.3 Q47.2 25.5 44.4 27.5 L41.35 29.45 M11.35 7.35 Q6.15 3.45 -0.25 3.65 -5.1 4.05 -9.35 6.3 -9.7 7.2 -10.65 7.8 L-11.1 8.2 Q-0.9 4.35 9.45 7.65 10.25 7.95 10.95 7.65 L11.35 7.35 M2.0 19.65 Q2.4 16.1 0.45 13.15 -1.35 10.5 -4.05 8.5 L-6.45 8.85 Q-2.6 11.25 -0.7 15.35 L0.8 18.6 1.5 19.4 2.0 19.65 M-9.85 9.45 L-14.7 12.4 -3.95 14.6 -8.75 9.2 -9.85 9.45 M-18.45 14.05 L-20.85 14.55 -21.7 15.35 -20.55 15.15 -19.65 15.4 Q-10.95 15.55 -2.45 17.3 L-2.95 16.25 Q-8.5 16.35 -13.8 14.7 -16.05 14.1 -18.45 14.05 M-16.85 17.65 Q-13.75 20.95 -11.9 25.1 L-11.2 26.7 -9.95 25.5 Q-11.15 22.75 -13.3 20.7 -15.0 19.1 -16.85 17.65" fill="#000000" fill-rule="evenodd" stroke="none"/>
    <path d="M42.85 -40.5 L41.6 -32.6 40.7 -24.65 40.4 -20.7 38.1 -13.9 Q38.25 -19.5 36.95 -24.85 36.35 -27.2 34.0 -27.75 L31.85 -26.95 30.05 -24.05 Q27.45 -29.6 19.6 -35.25 31.95 -33.25 42.85 -40.5 M-45.25 24.4 Q-41.85 20.7 -37.3 18.8 -34.2 17.6 -30.85 17.25 L-30.15 17.45 -28.7 17.9 Q-27.9 18.95 -27.35 20.2 L-27.2 21.25 -26.95 22.85 Q-27.75 25.15 -30.15 25.9 -35.35 27.55 -36.65 31.7 L-37.05 32.55 -37.35 32.75 Q-42.25 36.0 -46.4 32.25 -46.8 29.3 -46.0 26.35 L-45.25 24.4 M5.65 -32.4 L5.65 -32.35 5.85 -32.35 8.15 -31.5 11.15 -29.65 9.5 -27.7 9.25 -27.55 Q7.2 -27.15 5.75 -28.5 L5.6 -28.45 5.2 -28.7 2.3 -29.95 2.15 -30.0 -3.0 -30.15 -3.1 -30.1 -3.2 -30.1 -3.7 -30.55 -4.75 -30.15 Q-6.3 -29.55 -7.45 -28.25 L-7.6 -28.2 -6.95 -31.0 -6.25 -32.3 -5.5 -32.85 -2.35 -33.45 Q1.75 -33.65 5.65 -32.4" fill="#bf8c26" fill-rule="evenodd" stroke="none"/>
    <path d="M16.15 -27.95 L14.65 -29.65 Q16.15 -32.05 16.3 -34.9 16.5 -38.45 14.9 -41.55 19.0 -38.35 24.35 -38.3 L28.05 -38.75 34.85 -40.4 39.35 -41.55 42.25 -42.65 43.6 -43.4 42.85 -40.5 Q31.95 -33.25 19.6 -35.25 27.45 -29.6 30.05 -24.05 L31.85 -26.95 34.0 -27.75 Q36.35 -27.2 36.95 -24.85 38.25 -19.5 38.1 -13.9 L40.4 -20.7 40.9 -11.85 Q40.95 -9.4 40.4 -7.2 39.8 -4.95 38.7 -2.8 37.1 0.35 35.1 3.05 L35.25 3.9 36.9 2.9 Q39.3 1.4 40.45 -1.1 L39.7 5.7 41.35 1.8 42.55 -2.2 Q43.0 -0.75 43.8 0.15 L44.8 1.7 Q48.3 9.15 48.9 17.3 L49.05 19.55 43.1 24.8 40.15 26.9 Q36.9 28.65 33.55 30.2 L25.4 33.65 16.55 37.15 Q3.1 42.2 -11.15 44.5 -11.4 39.75 -12.8 35.55 -14.5 30.35 -17.75 26.25 L-13.65 43.2 -18.1 45.15 Q-20.4 45.95 -22.6 46.35 L-32.0 46.75 Q-37.45 46.1 -42.55 43.95 -40.25 41.6 -37.45 39.75 -34.7 37.95 -31.6 37.9 -28.25 37.85 -25.7 36.45 L-25.1 36.5 -25.6 36.3 -28.45 34.9 -29.05 34.55 Q-30.2 33.65 -30.4 32.25 L-30.45 31.4 Q-30.55 28.65 -28.15 26.9 L-27.1 26.55 Q-24.9 25.85 -22.65 25.3 L-19.45 24.65 -19.1 24.2 -18.85 23.55 -18.8 23.35 -18.95 22.9 -19.2 22.5 -19.4 22.25 -19.75 22.05 -19.95 22.0 -21.4 19.8 -20.45 20.6 -22.0 17.45 -19.6 17.7 -12.3 28.55 Q-11.5 28.8 -10.2 28.55 L-10.0 28.55 Q-7.4 27.55 -7.6 24.55 L-8.4 25.4 Q-9.2 22.25 -11.25 19.65 L-12.7 18.05 -1.25 19.6 1.05 21.3 2.1 21.9 2.7 21.85 3.25 21.45 5.65 20.5 5.95 18.95 3.85 20.2 Q3.75 18.0 3.0 15.45 L2.15 13.15 1.6 12.1 0.9 11.05 4.85 8.7 Q7.75 9.85 10.85 9.55 L13.3 9.0 Q15.25 8.3 14.85 6.35 L13.45 7.15 Q12.9 6.0 11.8 5.45 L10.15 4.6 Q16.5 -1.0 20.75 -8.9 27.4 -21.15 16.15 -27.95 M11.15 -29.65 L12.55 -28.35 15.1 -25.65 Q16.15 -24.6 16.5 -23.1 L16.75 -21.55 Q16.95 -19.2 16.15 -16.9 L14.3 -12.1 12.0 -7.45 Q9.15 -2.1 5.0 2.55 L3.4 2.2 -1.75 1.7 -1.75 1.5 Q0.35 0.55 2.4 -0.45 L1.15 -0.9 -0.4 -0.7 Q-0.25 -2.15 -0.25 -3.55 -0.2 -6.45 -0.6 -9.3 -1.0 -12.3 -1.95 -15.15 -3.0 -18.15 -4.75 -20.7 -7.05 -24.25 -7.6 -28.2 L-7.45 -28.25 Q-6.3 -29.55 -4.75 -30.15 L-3.7 -30.55 -3.2 -30.1 -5.9 -29.35 -5.05 -29.15 Q2.95 -29.3 8.85 -25.3 L8.85 -25.4 Q7.3 -27.3 5.6 -28.45 L5.75 -28.5 Q7.2 -27.15 9.25 -27.55 L9.5 -27.7 11.15 -29.65 M29.9 -23.95 L30.15 -23.25 30.05 -24.05 29.9 -23.9 30.05 -24.05 30.15 -23.25 29.9 -23.95 M-9.85 9.45 L-8.75 9.2 -3.95 14.6 -14.7 12.4 -9.85 9.45 M-22.95 21.8 L-22.9 21.75 -22.85 21.8 -22.95 21.8" fill="#996600" fill-rule="evenodd" stroke="none"/>
    <path d="M42.35 -51.25 L44.05 -49.9 Q44.7 -49.15 44.5 -48.15 L43.95 -47.15 Q42.7 -45.9 41.0 -45.1 L38.15 -43.9 30.35 -41.5 Q26.85 -40.45 22.9 -40.35 21.5 -40.65 20.3 -41.25 17.2 -42.8 13.8 -43.35 L14.05 -38.8 Q14.15 -34.95 13.1 -31.1 L12.05 -31.95 9.65 -33.45 Q6.55 -35.3 3.15 -35.95 L3.45 -38.45 3.2 -43.55 Q2.65 -47.35 0.35 -50.75 L3.95 -51.0 13.15 -49.9 Q17.6 -49.4 22.0 -50.45 31.05 -52.3 40.25 -52.05 L42.35 -51.25 M41.35 29.45 L44.4 27.5 Q47.2 25.5 49.85 23.3 L50.7 24.85 50.5 25.45 Q41.7 31.35 32.2 36.05 26.5 38.95 20.55 41.15 L13.55 43.65 Q7.65 45.6 1.55 46.95 L-5.6 48.7 -14.6 50.95 -20.75 51.9 Q-28.05 52.75 -35.5 51.95 L-42.45 50.75 -43.75 50.15 -47.5 48.05 -50.2 46.2 -50.2 44.55 -49.55 43.7 Q-46.0 45.65 -42.15 46.8 -37.0 48.5 -31.95 49.25 L-22.55 49.5 -20.7 49.15 -17.05 48.15 -13.6 46.8 Q-9.9 47.15 -6.35 46.2 L2.4 44.2 7.35 42.7 14.9 40.45 22.2 37.7 25.8 36.2 32.25 33.3 39.65 30.25 41.35 29.45" fill="#663300" fill-rule="evenodd" stroke="none"/>
    <path d="M5.65 -32.4 L5.85 -32.35 5.65 -32.35 5.65 -32.4 M11.35 7.35 L10.95 7.65 Q10.25 7.95 9.45 7.65 -0.9 4.35 -11.1 8.2 L-10.65 7.8 Q-9.7 7.2 -9.35 6.3 -5.1 4.05 -0.25 3.65 6.15 3.45 11.35 7.35 M2.0 19.65 L1.5 19.4 0.8 18.6 -0.7 15.35 Q-2.6 11.25 -6.45 8.85 L-4.05 8.5 Q-1.35 10.5 0.45 13.15 2.4 16.1 2.0 19.65 M-16.85 17.65 Q-15.0 19.1 -13.3 20.7 -11.15 22.75 -9.95 25.5 L-11.2 26.7 -11.9 25.1 Q-13.75 20.95 -16.85 17.65 M-18.45 14.05 Q-16.05 14.1 -13.8 14.7 -8.5 16.35 -2.95 16.25 L-2.45 17.3 Q-10.95 15.55 -19.65 15.4 L-20.55 15.15 -21.7 15.35 -20.85 14.55 -18.45 14.05" fill="#cc9933" fill-rule="evenodd" stroke="none"/>
    <path d="M10.15 4.6 L6.85 3.15 11.15 -1.15 12.6 -3.0 14.75 -7.05 17.7 -13.4 Q19.15 -16.55 19.6 -20.0 L19.45 -22.65 18.7 -24.25 16.15 -27.95 Q27.4 -21.15 20.75 -8.9 16.5 -1.0 10.15 4.6 M0.9 11.05 L-2.25 8.25 2.55 7.55 4.85 8.7 0.9 11.05" fill="#724701" fill-rule="evenodd" stroke="none"/>
    <path d="M-25.7 36.45 L-25.6 36.3 -25.1 36.5 -25.7 36.45" fill="#d38401" fill-rule="evenodd" stroke="none"/>
    <path d="M-42.55 43.95 L-43.4 43.55 -50.7 39.15 Q-50.3 34.85 -49.1 31.05 -48.15 28.1 -46.15 25.45 L-45.25 24.4 -46.0 26.35 Q-46.8 29.3 -46.4 32.25 -42.25 36.0 -37.35 32.75 L-37.05 32.55 -36.65 31.7 Q-35.35 27.55 -30.15 25.9 -27.75 25.15 -26.95 22.85 L-27.2 21.25 -27.35 20.2 Q-27.9 18.95 -28.7 17.9 L-30.15 17.45 -30.05 17.2 -24.25 17.9 -24.1 17.85 -21.4 19.8 -19.95 22.0 -19.75 22.05 -19.4 22.25 -19.2 22.5 -18.95 22.9 -18.8 23.35 -18.85 23.55 -19.1 24.2 -19.45 24.65 -22.65 25.3 Q-24.9 25.85 -27.1 26.55 L-28.15 26.9 Q-30.55 28.65 -30.45 31.4 L-30.4 32.25 Q-30.2 33.65 -29.05 34.55 L-28.45 34.9 -25.6 36.3 -25.7 36.45 Q-28.25 37.85 -31.6 37.9 -34.7 37.95 -37.45 39.75 -40.25 41.6 -42.55 43.95 M-24.35 17.9 L-24.3 17.95 -24.25 17.9 -24.3 17.95 -24.35 17.9 M-22.95 21.8 L-22.85 21.8 -22.9 21.75 -22.95 21.8" fill="#aa7711" fill-rule="evenodd" stroke="none"/>
    <path d="M-30.85 17.25 L-30.05 17.2 -30.15 17.45 -30.85 17.25" fill="#a4710b" fill-rule="evenodd" stroke="none"/>
  </g>
</svg>
