<?xml version="1.0" encoding="UTF-8" standalone="no"?>
<svg xmlns:xlink="http://www.w3.org/1999/xlink" height="34.3px" width="68.25px" xmlns="http://www.w3.org/2000/svg">
  <g transform="matrix(1.0, 0.0, 0.0, 1.0, 34.15, 17.15)">
    <path d="M-29.45 14.9 L-29.9 14.95 -30.5 13.9 -32.9 9.85 -32.9 9.55 -32.75 5.35 Q-31.7 -0.15 -27.95 -4.9 L-27.75 -5.1 -27.6 -5.35 Q-24.3 -9.35 -19.35 -11.3 L-18.85 -11.5 -16.1 -12.45 Q-4.85 -16.1 6.85 -14.35 L7.5 -14.25 10.6 -13.65 10.75 -13.65 Q16.75 -12.3 22.05 -8.75 26.3 -5.9 28.7 -2.35 32.05 2.65 31.75 9.1 L31.65 10.65 30.65 12.65 29.8 13.35 29.55 13.65 28.9 13.6 28.8 13.0 Q24.95 -3.2 10.45 -10.15 L10.3 -10.0 Q10.65 -7.85 12.0 -5.1 7.6 -6.85 2.6 -7.05 L0.95 -9.55 1.15 -7.1 -0.85 -7.05 -6.85 -6.75 -6.8 -6.4 -7.35 -9.75 -8.45 -7.35 -8.9 -6.45 Q-14.2 -5.6 -18.15 -2.65 L-18.1 -3.55 Q-17.9 -6.25 -16.75 -8.6 L-21.2 -5.6 Q-23.3 -3.8 -24.75 -1.5 -26.35 0.9 -27.35 3.6 -29.25 8.6 -29.45 13.9 L-29.45 14.9 M16.15 13.0 L10.4 12.85 10.95 12.85 9.9 8.8 10.65 8.75 Q13.7 8.45 15.8 7.1 L16.1 11.25 16.15 13.0 M0.2 12.95 L-1.2 12.95 -4.2 13.0 -4.95 13.05 -4.9 9.9 0.3 9.6 0.2 12.95 M-14.5 13.55 L-18.3 13.8 -18.4 10.0 -14.15 10.25 -14.1 10.0 -14.5 13.55" fill="#273fa3" fill-rule="evenodd" stroke="none"/>
    <path d="M28.9 13.6 L29.55 13.65 29.8 13.35 30.65 12.65 31.65 10.65 31.75 9.1 Q32.05 2.65 28.7 -2.35 26.3 -5.9 22.05 -8.75 16.75 -12.3 10.75 -13.65 L10.6 -13.65 7.5 -14.25 6.85 -14.35 Q-4.85 -16.1 -16.1 -12.45 L-18.85 -11.5 -19.35 -11.3 Q-24.3 -9.35 -27.6 -5.35 L-27.75 -5.1 -27.95 -4.9 Q-31.7 -0.15 -32.75 5.35 L-32.9 9.55 -32.9 9.85 -30.5 13.9 -29.9 14.95 -29.45 14.9 -26.85 14.65 -19.9 13.95 -18.3 13.8 -14.5 13.55 -11.5 13.4 -7.8 13.2 -4.95 13.05 -4.2 13.0 -1.2 12.95 0.2 12.95 2.65 12.9 5.7 12.85 6.65 12.85 7.1 12.85 8.8 12.85 10.4 12.85 16.15 13.0 18.8 13.05 19.0 13.1 20.05 13.1 21.15 13.15 22.1 13.2 26.55 13.45 27.8 13.5 27.95 13.5 28.9 13.6 M34.1 7.3 L34.0 9.1 34.05 9.0 33.95 9.25 33.95 9.45 33.8 9.95 32.35 14.55 31.7 15.0 29.8 14.9 29.0 14.9 14.85 14.85 -2.05 15.05 -16.3 15.5 -17.45 15.55 -17.7 15.6 Q-22.15 16.0 -25.2 16.75 L-28.25 17.15 -30.8 16.85 Q-31.35 15.45 -32.4 14.45 L-32.7 13.9 -33.0 13.25 -32.9 13.8 -33.25 12.65 Q-34.45 9.6 -34.05 6.5 -33.9 -3.6 -23.6 -10.75 -15.15 -16.7 -4.55 -16.9 L-3.55 -17.05 Q20.95 -18.4 32.75 2.6 33.95 4.7 34.1 7.3" fill="#000000" fill-rule="evenodd" stroke="none"/>
    <path d="M-29.45 14.9 L-29.45 13.9 Q-29.25 8.6 -27.35 3.6 -26.35 0.9 -24.75 -1.5 -23.3 -3.8 -21.2 -5.6 L-16.75 -8.6 Q-17.9 -6.25 -18.1 -3.55 L-18.15 -2.65 -18.15 -2.55 -18.35 1.6 -18.4 2.25 -18.45 8.05 -18.45 8.35 -18.4 10.0 -18.3 13.8 -19.9 13.95 -19.9 13.9 Q-21.0 10.55 -20.9 6.95 L-20.85 6.7 Q-20.7 6.3 -20.7 5.9 L-20.8 5.6 Q-21.15 4.3 -21.85 3.2 L-21.85 2.95 Q-21.7 2.0 -22.6 1.7 L-22.6 1.75 Q-23.6 2.05 -23.3 3.2 -26.35 8.3 -26.8 13.9 L-26.85 14.65 -29.45 14.9 M-8.9 -6.45 L-8.45 -7.35 -7.35 -9.75 -6.8 -6.4 -6.3 -3.9 -6.15 -3.2 Q-5.45 0.3 -5.15 3.9 -4.95 6.55 -4.9 9.2 L-4.9 9.9 -4.95 13.05 -7.8 13.2 -7.45 10.9 -7.45 10.6 Q-7.5 6.35 -9.05 3.2 L-9.3 3.35 Q-10.45 7.65 -11.0 12.3 L-11.5 13.4 -14.5 13.55 -14.1 10.0 -13.85 8.3 -12.6 2.9 -10.9 -1.95 -8.9 -6.45 M1.15 -7.1 L0.95 -9.55 2.6 -7.05 Q4.9 -3.45 6.7 0.4 L6.9 0.8 9.75 8.3 9.9 8.75 9.9 8.8 10.95 12.85 10.4 12.85 8.8 12.85 7.35 9.4 7.35 9.1 Q6.3 4.4 4.15 0.65 2.75 3.75 2.9 8.5 L2.65 12.9 0.2 12.95 0.3 9.6 0.6 6.45 Q1.55 -0.7 1.15 -7.1 M12.0 -5.1 Q10.65 -7.85 10.3 -10.0 L10.45 -10.15 Q24.95 -3.2 28.8 13.0 L28.9 13.6 27.95 13.5 27.8 13.5 26.55 13.45 Q25.4 8.55 21.65 4.2 L21.45 3.95 18.05 -0.8 Q17.75 -0.8 17.75 -0.5 18.0 1.9 19.15 4.1 L18.8 13.05 16.15 13.0 16.1 11.25 15.8 7.1 Q14.95 0.75 12.1 -4.9 L12.0 -5.1" fill="#56a3f5" fill-rule="evenodd" stroke="none"/>
    <path d="M-18.15 -2.65 Q-14.2 -5.6 -8.9 -6.45 L-10.9 -1.95 -12.6 2.9 -13.85 8.3 -14.1 10.0 -14.15 10.25 -18.4 10.0 -18.45 8.35 -18.45 8.05 -18.4 2.25 -18.35 1.6 -18.15 -2.55 -18.15 -2.65 M-6.8 -6.4 L-6.85 -6.75 -0.85 -7.05 1.15 -7.1 Q1.55 -0.7 0.6 6.45 L0.3 9.6 -4.9 9.9 -4.9 9.2 Q-4.95 6.55 -5.15 3.9 -5.45 0.3 -6.15 -3.2 L-6.3 -3.9 -6.8 -6.4 M2.6 -7.05 Q7.6 -6.85 12.0 -5.1 L12.1 -4.9 Q14.95 0.75 15.8 7.1 13.7 8.45 10.65 8.75 L9.9 8.8 9.9 8.75 9.75 8.3 6.9 0.8 6.7 0.4 Q4.9 -3.45 2.6 -7.05" fill="#953fba" fill-rule="evenodd" stroke="none"/>
    <path d="M26.55 13.45 L22.1 13.2 21.15 13.15 20.05 13.1 19.0 13.1 18.8 13.05 19.15 4.1 Q18.0 1.9 17.75 -0.5 17.75 -0.8 18.05 -0.8 L21.45 3.95 21.65 4.2 Q25.4 8.55 26.55 13.45 M8.8 12.85 L7.1 12.85 6.65 12.85 5.7 12.85 2.65 12.9 2.9 8.5 Q2.75 3.75 4.15 0.65 6.3 4.4 7.35 9.1 L7.35 9.4 8.8 12.85 M-7.8 13.2 L-11.5 13.4 -11.0 12.3 Q-10.45 7.65 -9.3 3.35 L-9.05 3.2 Q-7.5 6.35 -7.45 10.6 L-7.45 10.9 -7.8 13.2 M-19.9 13.95 L-26.85 14.65 -26.8 13.9 Q-26.35 8.3 -23.3 3.2 -23.6 2.05 -22.6 1.75 L-22.6 1.7 Q-21.7 2.0 -21.85 2.95 L-21.85 3.2 Q-21.15 4.3 -20.8 5.6 L-20.7 5.9 Q-20.7 6.3 -20.85 6.7 L-20.9 6.95 Q-21.0 10.55 -19.9 13.9 L-19.9 13.95" fill="#a9d1fa" fill-rule="evenodd" stroke="none"/>
  </g>
</svg>
