<?xml version="1.0" encoding="UTF-8" standalone="no"?>
<svg xmlns:xlink="http://www.w3.org/1999/xlink" height="39.7px" width="86.45px" xmlns="http://www.w3.org/2000/svg">
  <g transform="matrix(1.0, 0.0, 0.0, 1.0, 43.2, 4.35)">
    <path d="M-19.8 -3.7 L-19.8 -3.8 -18.05 -3.8 -16.95 -1.7 -16.8 -1.35 Q-16.6 0.15 -17.0 1.65 L-17.1 2.25 Q-18.55 6.05 -21.0 9.45 L-22.65 16.0 -22.9 16.6 Q-23.2 20.9 -21.5 24.7 L-21.4 25.6 Q-18.1 29.9 -13.7 32.55 -12.95 33.05 -13.65 33.8 -17.25 37.5 -20.7 32.35 -30.15 18.15 -20.65 3.7 -19.45 1.8 -18.9 -0.35 -19.7 -2.15 -19.45 -3.75 L-19.8 -3.7 M-27.35 -0.6 L-27.25 -0.25 -32.25 5.95 Q-44.35 14.75 -35.85 26.05 -34.7 27.55 -34.05 29.5 -34.15 30.8 -35.25 31.5 -42.7 29.45 -43.15 21.3 -43.55 14.9 -40.15 9.65 -34.95 3.95 -28.95 -0.85 L-28.9 -2.25 -27.7 -2.25 -27.35 -0.6 M29.15 -3.85 L29.8 -3.3 31.0 -2.25 37.7 4.9 Q40.4 8.2 42.65 11.95 43.35 13.05 43.2 14.6 L43.0 17.6 Q41.25 28.05 31.75 32.8 L30.4 33.3 Q28.5 33.6 27.5 32.0 28.75 27.0 34.75 24.65 36.15 24.1 36.95 22.7 40.95 15.6 37.7 9.4 L35.55 6.8 27.95 -2.25 27.15 -4.35 28.55 -4.35 29.15 -3.85 M13.4 -2.25 L13.0 -2.65 Q12.6 -3.55 12.65 -4.35 L14.3 -4.35 15.75 -2.25 Q17.65 -0.75 19.0 1.3 L22.7 6.75 22.7 11.9 Q21.85 22.9 14.4 32.25 L13.2 33.7 Q11.8 34.65 10.4 33.7 9.2 32.55 9.6 31.0 L9.6 30.7 Q16.65 22.1 19.1 11.9 L20.0 7.95 Q18.75 5.1 16.8 2.9 14.8 0.65 13.4 -2.25 M-4.05 -3.8 L-4.05 -4.05 -4.0 -4.3 -4.05 -4.3 -4.05 -4.35 -2.7 -4.35 Q-1.3 -0.6 -3.15 3.85 L-5.3 8.9 Q-10.9 21.45 -2.7 32.1 -2.6 33.1 -3.3 33.9 L-3.6 34.2 Q-7.0 34.9 -9.1 31.5 -12.85 17.5 -6.7 4.0 -5.0 0.2 -4.1 -3.8 L-4.05 -3.8" fill="#000000" fill-rule="evenodd" stroke="none"/>
  </g>
</svg>
