<?xml version="1.0" encoding="UTF-8" standalone="no"?>
<svg xmlns:xlink="http://www.w3.org/1999/xlink" height="71.4px" width="23.0px" xmlns="http://www.w3.org/2000/svg">
  <g transform="matrix(1.0, 0.0, 0.0, 1.0, 10.5, 64.6)">
    <path d="M4.0 -51.45 L3.85 -52.1 -7.05 -49.15 Q-8.65 -56.95 -3.9 -62.85 -3.4 -63.55 -2.25 -63.6 2.15 -63.75 3.25 -59.65 4.35 -55.55 4.0 -51.45 M-7.0 -35.45 Q-1.45 -35.85 3.2 -37.65 3.65 -35.3 5.5 -33.3 8.0 -30.55 8.0 -24.7 L7.6 -21.6 Q-1.75 -18.9 -6.65 -18.3 -10.55 -26.05 -7.55 -33.85 L-7.0 -35.45 M-6.8 -3.6 Q-4.65 -3.75 1.2 -5.55 6.2 -7.1 7.75 -7.8 L9.65 -2.55 Q11.35 2.7 11.5 5.3 L11.5 6.5 -9.5 6.5 -9.5 5.8 -6.8 -3.6" fill="#009900" fill-rule="evenodd" stroke="none"/>
    <path d="M-7.05 -49.15 L3.85 -52.1 4.0 -51.45 3.0 -39.45 3.2 -37.65 Q-1.45 -35.85 -7.0 -35.45 -5.0 -41.8 -6.85 -48.2 L-7.05 -49.15 M7.75 -7.8 Q6.2 -7.1 1.2 -5.55 -4.65 -3.75 -6.8 -3.6 -4.65 -11.1 -5.0 -13.05 -5.3 -14.8 -6.65 -18.3 -1.75 -18.9 7.6 -21.6 L6.5 -12.7 Q6.35 -11.05 7.75 -7.8" fill="#017e01" fill-rule="evenodd" stroke="none"/>
    <path d="M4.0 -51.45 Q4.35 -55.55 3.25 -59.65 2.15 -63.75 -2.25 -63.6 -3.4 -63.55 -3.9 -62.85 -8.65 -56.95 -7.05 -49.15 L-6.85 -48.2 Q-5.0 -41.8 -7.0 -35.45 L-7.55 -33.85 Q-10.55 -26.05 -6.65 -18.3 -5.3 -14.8 -5.0 -13.05 -4.65 -11.1 -6.8 -3.6 L-9.5 5.8 M3.2 -37.65 L3.0 -39.45 4.0 -51.45 M7.75 -7.8 Q6.35 -11.05 6.5 -12.7 L7.6 -21.6 8.0 -24.7 Q8.0 -30.55 5.5 -33.3 3.65 -35.3 3.2 -37.65 M11.5 5.3 Q11.35 2.7 9.65 -2.55 L7.75 -7.8" fill="none" stroke="#000000" stroke-linecap="round" stroke-linejoin="round" stroke-width="2.0"/>
  </g>
</svg>
