<?xml version="1.0" encoding="UTF-8" standalone="no"?>
<svg xmlns:xlink="http://www.w3.org/1999/xlink" height="43.1px" width="31.5px" xmlns="http://www.w3.org/2000/svg">
  <g transform="matrix(1.0, 0.0, 0.0, 1.0, 14.2, 25.1)">
    <path d="M16.45 -9.6 L16.55 -9.3 15.45 -7.3 Q8.85 -8.9 3.35 -13.6 -0.25 -16.55 -3.5 -19.75 -4.7 -10.2 -6.9 -2.75 -8.5 2.65 -9.45 8.2 -10.3 12.8 -11.75 17.25 L-12.5 17.15 Q-14.4 6.0 -12.4 -4.95 -11.6 -9.5 -10.05 -13.35 L-6.75 -21.15 Q-5.9 -23.0 -4.7 -23.85 L-4.7 -24.3 Q-3.45 -24.55 -2.15 -23.9 0.85 -22.35 5.0 -19.15 L10.4 -15.15 14.6 -12.05 14.65 -11.4 16.05 -10.1 16.45 -9.6" fill="#cc3333" fill-rule="evenodd" stroke="none"/>
    <path d="M16.45 -9.6 L16.55 -9.3 15.45 -7.3 Q8.85 -8.9 3.35 -13.6 -0.25 -16.55 -3.5 -19.75 -4.7 -10.2 -6.9 -2.75 -8.5 2.65 -9.45 8.2 -10.3 12.8 -11.75 17.25 L-12.5 17.15 Q-14.4 6.0 -12.4 -4.95 -11.6 -9.5 -10.05 -13.35 L-6.75 -21.15 Q-5.9 -23.0 -4.7 -23.85 L-4.7 -24.3 Q-3.45 -24.55 -2.15 -23.9 0.85 -22.35 5.0 -19.15 L10.4 -15.15 14.6 -12.05 14.65 -11.4 16.05 -10.1 16.45 -9.6 Z" fill="none" stroke="#000000" stroke-linecap="round" stroke-linejoin="round" stroke-width="1.5"/>
  </g>
</svg>
