<?xml version="1.0" encoding="UTF-8" standalone="no"?>
<svg xmlns:xlink="http://www.w3.org/1999/xlink" height="35.7px" width="59.4px" xmlns="http://www.w3.org/2000/svg">
  <g transform="matrix(1.0, 0.0, 0.0, 1.0, 42.25, 13.3)">
    <path d="M2.95 -7.6 L-1.85 -8.35 Q-4.85 -8.6 -7.65 -10.0 L-8.15 -9.8 Q-9.5 -7.15 -11.45 -5.2 L-13.15 -3.55 Q-17.35 0.0 -21.15 3.85 L-27.05 10.15 -31.4 14.6 -36.8 19.15 -39.75 21.65 -41.5 21.3 -36.3 13.45 -29.15 6.35 -19.75 -3.55 Q-14.9 -8.75 -13.2 -9.75 -11.5 -10.75 -8.55 -11.4 L-8.1 -11.9 -7.85 -12.25 Q2.55 -13.2 12.8 -11.35 L14.65 -11.0 15.2 -10.85 Q17.0 -10.0 16.05 -8.35 L15.2 -7.35 Q14.2 -6.5 13.0 -6.5 8.05 -6.55 2.95 -7.6" fill="#cc3333" fill-rule="evenodd" stroke="none"/>
    <path d="M2.95 -7.6 L-1.85 -8.35 Q-4.85 -8.6 -7.65 -10.0 L-8.15 -9.8 Q-9.5 -7.15 -11.45 -5.2 L-13.15 -3.55 Q-17.35 0.0 -21.15 3.85 L-27.05 10.15 -31.4 14.6 -36.8 19.15 -39.75 21.65 -41.5 21.3 -36.3 13.45 -29.15 6.35 -19.75 -3.55 Q-14.9 -8.75 -13.2 -9.75 -11.5 -10.75 -8.55 -11.4 L-8.1 -11.9 -7.85 -12.25 Q2.55 -13.2 12.8 -11.35 L14.65 -11.0 15.2 -10.85 Q17.0 -10.0 16.05 -8.35 L15.2 -7.35 Q14.2 -6.5 13.0 -6.5 8.05 -6.55 2.95 -7.6 Z" fill="none" stroke="#000000" stroke-linecap="round" stroke-linejoin="round" stroke-width="1.5"/>
  </g>
</svg>
