<?xml version="1.0" encoding="UTF-8" standalone="no"?>
<svg xmlns:xlink="http://www.w3.org/1999/xlink" height="43.0px" width="31.15px" xmlns="http://www.w3.org/2000/svg">
  <g transform="matrix(1.0, 0.0, 0.0, 1.0, 13.85, 25.45)">
    <path d="M-4.35 -24.3 L-4.35 -24.35 -4.2 -24.35 -4.35 -24.3" fill="#336600" fill-rule="evenodd" stroke="none"/>
    <path d="M-4.2 -24.35 L-3.55 -24.7 -3.45 -24.35 -2.15 -23.9 Q0.85 -22.35 5.0 -19.15 L10.4 -15.15 14.6 -12.05 14.65 -11.4 16.05 -10.1 16.45 -9.6 16.55 -9.3 15.45 -7.3 Q8.85 -8.9 3.35 -13.6 L-3.25 -19.5 Q-4.4 -10.4 -6.55 -3.2 -8.15 2.2 -9.1 7.75 -9.95 12.35 -11.4 16.8 L-12.15 16.7 Q-14.05 5.55 -12.05 -5.4 -11.25 -9.95 -9.7 -13.8 L-6.4 -21.6 Q-5.55 -23.45 -4.35 -24.3 L-4.2 -24.35" fill="#cc3333" fill-rule="evenodd" stroke="none"/>
    <path d="M-4.2 -24.35 L-3.55 -24.7 -3.45 -24.35 -2.15 -23.9 Q0.85 -22.35 5.0 -19.15 L10.4 -15.15 14.6 -12.05 14.65 -11.4 16.05 -10.1 16.45 -9.6 16.55 -9.3 15.45 -7.3 Q8.85 -8.9 3.35 -13.6 L-3.25 -19.5 Q-4.4 -10.4 -6.55 -3.2 -8.15 2.2 -9.1 7.75 -9.95 12.35 -11.4 16.8 L-12.15 16.7 Q-14.05 5.55 -12.05 -5.4 -11.25 -9.95 -9.7 -13.8 L-6.4 -21.6 Q-5.55 -23.45 -4.35 -24.3 L-4.35 -24.35 -4.2 -24.35 Z" fill="none" stroke="#000000" stroke-linecap="round" stroke-linejoin="round" stroke-width="1.5"/>
  </g>
</svg>
