<?xml version="1.0" encoding="UTF-8" standalone="no"?>
<svg xmlns:xlink="http://www.w3.org/1999/xlink" height="44.2px" width="93.55px" xmlns="http://www.w3.org/2000/svg">
  <g transform="matrix(1.0, 0.0, 0.0, 1.0, 46.8, 22.0)">
    <path d="M-23.55 14.05 L-23.55 14.3 -27.15 13.8 -26.55 13.85 -23.55 14.05" fill="#336600" fill-rule="evenodd" stroke="none"/>
    <path d="M-26.55 13.85 L-21.4 14.1 -23.55 14.05 -26.55 13.85" fill="#669900" fill-rule="evenodd" stroke="none"/>
    <path d="M-26.55 13.85 L-16.65 13.0 -8.05 11.75 Q-1.3 11.1 5.45 11.6 L13.8 12.55 15.4 13.05 Q22.1 14.35 29.15 14.95 L-2.95 15.9 -23.55 14.3 -23.55 14.05 -21.4 14.1 -26.55 13.85" fill="#993333" fill-rule="evenodd" stroke="none"/>
    <path d="M8.3 -20.45 Q13.9 -19.75 19.0 -17.65 24.1 -15.5 28.15 -11.7 L29.65 -10.15 35.85 -0.85 Q38.0 2.5 40.3 5.1 L40.85 5.75 Q42.3 7.35 44.2 7.6 45.35 7.8 45.75 8.65 L45.5 10.15 40.65 11.8 42.35 14.95 Q37.6 18.25 31.7 18.65 23.75 18.8 15.8 20.05 L7.6 21.1 Q0.25 21.35 -7.0 20.85 L-16.6 20.1 -28.1 18.3 -39.85 15.75 -42.85 14.8 -43.15 14.05 -43.25 12.7 -42.85 11.25 -42.25 10.55 -44.95 9.6 -45.2 8.7 -45.8 8.0 -45.75 7.1 Q-42.9 6.25 -40.2 4.7 -39.65 4.45 -39.25 4.0 L-28.3 -8.45 Q-25.15 -11.7 -21.35 -14.35 -16.7 -17.55 -11.3 -19.45 -7.15 -20.85 -2.65 -21.0 L8.3 -20.45 M-23.55 14.3 L-2.95 15.9 29.15 14.95 Q22.1 14.35 15.4 13.05 L13.8 12.55 5.45 11.6 Q-1.3 11.1 -8.05 11.75 L-16.65 13.0 -26.55 13.85 -27.15 13.8 -23.55 14.3" fill="url(#gradient0)" fill-rule="evenodd" stroke="none"/>
    <path d="M8.3 -20.45 L-2.65 -21.0 Q-7.15 -20.85 -11.3 -19.45 -16.7 -17.55 -21.35 -14.35 -25.15 -11.7 -28.3 -8.45 L-39.25 4.0 Q-39.65 4.45 -40.2 4.7 -42.9 6.25 -45.75 7.1 L-45.8 8.0 -45.2 8.7 -44.95 9.6 -42.25 10.55 -42.85 11.25 -43.25 12.7 -43.15 14.05 -42.85 14.8 -39.85 15.75 -28.1 18.3 -16.6 20.1 -7.0 20.85 Q0.25 21.35 7.6 21.1 L15.8 20.05 Q23.75 18.8 31.7 18.65 37.6 18.25 42.35 14.95 L40.65 11.8 45.5 10.15 45.75 8.65 Q45.35 7.8 44.2 7.6 42.3 7.35 40.85 5.75 L40.3 5.1 Q38.0 2.5 35.85 -0.85 L29.65 -10.15 28.15 -11.7 Q24.1 -15.5 19.0 -17.65 13.9 -19.75 8.3 -20.45 Z" fill="none" stroke="#000000" stroke-linecap="round" stroke-linejoin="round" stroke-width="2.0"/>
  </g>
  <defs>
    <radialGradient cx="0" cy="0" gradientTransform="matrix(0.0316, 0.0078, -0.0078, 0.0316, -5.05, -6.65)" gradientUnits="userSpaceOnUse" id="gradient0" r="819.2" spreadMethod="pad">
      <stop offset="0.0" stop-color="#ff3333"/>
      <stop offset="1.0" stop-color="#cc3333"/>
    </radialGradient>
  </defs>
</svg>
