<?xml version="1.0" encoding="UTF-8" standalone="no"?>
<svg xmlns:xlink="http://www.w3.org/1999/xlink" height="30.65px" width="52.35px" xmlns="http://www.w3.org/2000/svg">
  <g transform="matrix(1.0, 0.0, 0.0, 1.0, 26.15, 15.35)">
    <path d="M-24.05 1.45 L-24.1 1.4 -24.05 1.4 -24.05 1.45" fill="#009900" fill-rule="evenodd" stroke="none"/>
    <path d="M-24.05 1.4 Q-16.1 3.15 -8.3 0.7 L-8.3 2.7 -6.85 2.9 -6.15 4.0 -4.55 4.4 -1.8 4.1 -1.45 6.55 -0.8 6.65 0.4 6.2 Q1.65 5.5 2.95 5.85 L3.75 8.2 5.25 7.35 Q5.85 6.9 6.5 6.6 L8.5 6.5 9.55 8.6 10.2 8.6 12.6 6.95 13.45 7.75 13.55 8.85 13.85 8.75 16.6 9.35 16.95 9.6 16.9 9.8 16.35 10.5 Q15.4 11.3 14.35 11.6 L13.75 11.7 11.5 12.1 9.3 12.85 2.9 14.1 Q-0.2 14.5 -3.3 14.1 -6.4 13.75 -9.35 12.75 -12.45 11.55 -15.25 9.85 -19.6 7.05 -22.0 2.65 L-23.6 2.15 -24.05 1.45 -24.05 1.4" fill="#ff3333" fill-rule="evenodd" stroke="none"/>
    <path d="M-24.05 1.4 Q-25.35 -0.4 -25.1 -2.65 -24.7 -5.85 -22.55 -8.35 L-19.6 -10.95 Q-18.25 -12.0 -16.6 -12.5 L-12.6 -13.8 -10.3 -14.05 -4.8 -14.35 Q4.7 -13.5 13.35 -9.75 L17.75 -7.7 Q19.8 -6.7 21.0 -4.75 L21.0 -3.55 24.4 0.6 Q25.0 1.3 25.1 2.1 25.35 4.25 24.9 6.5 L24.4 6.65 23.65 6.2 23.0 6.35 22.05 5.35 20.7 3.55 19.55 3.55 18.3 4.75 17.45 5.55 Q16.1 6.2 14.9 5.15 14.05 4.4 13.85 3.4 L11.1 3.5 10.4 4.7 8.5 4.45 Q8.1 2.45 6.05 1.95 L4.7 2.85 Q4.0 3.35 3.05 2.85 L1.95 2.1 1.2 1.55 0.3 2.2 Q0.0 3.25 -0.8 3.65 L-2.4 3.15 -3.8 0.95 Q-5.55 2.5 -7.7 1.6 L-8.3 0.7 Q-16.1 3.15 -24.05 1.4" fill="#cc3333" fill-rule="evenodd" stroke="none"/>
    <path d="M-8.3 0.7 L-7.7 1.6 Q-5.55 2.5 -3.8 0.95 L-2.4 3.15 -0.8 3.65 Q0.0 3.25 0.3 2.2 L1.2 1.55 1.95 2.1 3.05 2.85 Q4.0 3.35 4.7 2.85 L6.05 1.95 Q8.1 2.45 8.5 4.45 L10.4 4.7 11.1 3.5 13.85 3.4 Q14.05 4.4 14.9 5.15 16.1 6.2 17.45 5.55 L18.3 4.75 19.55 3.55 20.7 3.55 22.05 5.35 23.0 6.35 23.65 6.2 24.4 6.65 24.9 6.5 Q25.35 4.25 25.1 2.1 25.0 1.3 24.4 0.6 L21.0 -3.55 21.0 -4.75 Q19.8 -6.7 17.75 -7.7 L13.35 -9.75 Q4.7 -13.5 -4.8 -14.35 L-10.3 -14.05 -12.6 -13.8 -16.6 -12.5 Q-18.25 -12.0 -19.6 -10.95 L-22.55 -8.35 Q-24.7 -5.85 -25.1 -2.65 -25.35 -0.4 -24.05 1.4 M-8.3 0.7 L-8.3 2.7 -6.85 2.9 -6.15 4.0 -4.55 4.4 -1.8 4.1 -1.45 6.55 -0.8 6.65 0.4 6.2 Q1.65 5.5 2.95 5.85 L3.75 8.2 5.25 7.35 Q5.85 6.9 6.5 6.6 L8.5 6.5 9.55 8.6 10.2 8.6 12.6 6.95 13.45 7.75 13.55 8.85 13.85 8.75 16.6 9.35 16.95 9.6 16.9 9.8 16.35 10.5 Q15.4 11.3 14.35 11.6 L13.75 11.7 11.5 12.1 9.3 12.85 2.9 14.1 Q-0.2 14.5 -3.3 14.1 -6.4 13.75 -9.35 12.75 -12.45 11.55 -15.25 9.85 -19.6 7.05 -22.0 2.65 L-23.6 2.15 -24.05 1.45" fill="none" stroke="#000000" stroke-linecap="round" stroke-linejoin="round" stroke-width="2.0"/>
  </g>
</svg>
