<?xml version="1.0" encoding="UTF-8" standalone="no"?>
<svg xmlns:xlink="http://www.w3.org/1999/xlink" height="25.85px" width="40.95px" xmlns="http://www.w3.org/2000/svg">
  <g transform="matrix(1.0, 0.0, 0.0, 1.0, 20.45, 12.95)">
    <path d="M6.0 1.25 L5.95 1.25 4.85 1.5 Q3.8 1.5 2.9 0.75 L2.35 1.4 1.85 2.5 1.35 2.75 Q0.35 3.25 -0.2 1.75 L-0.95 1.2 -1.15 0.95 Q-2.45 3.6 -4.65 1.55 L-5.1 1.65 Q-6.15 2.05 -6.55 3.55 L-7.05 3.75 -8.05 3.75 -8.4 3.1 -8.55 2.75 -10.65 2.7 Q-11.5 5.2 -13.45 4.45 L-13.55 4.25 -13.7 3.9 Q-14.25 3.95 -14.55 3.5 L-15.05 2.85 -16.0 2.8 -16.4 3.55 Q-17.15 5.45 -18.25 4.95 L-18.25 5.0 -18.35 5.2 Q-18.8 5.45 -19.2 5.2 L-19.35 4.85 -19.45 3.95 -19.35 2.0 -19.35 1.9 -19.35 1.8 -19.3 1.45 -18.7 0.55 -18.45 0.25 -18.45 0.2 -16.2 -2.9 -16.25 -3.55 -16.2 -3.9 -15.2 -5.15 Q-12.1 -7.45 -8.6 -8.8 -0.55 -11.8 8.0 -11.95 9.7 -11.1 11.6 -10.8 13.15 -10.55 14.5 -9.7 L15.8 -8.75 Q17.65 -7.05 19.1 -3.95 L19.4 -2.9 19.45 -2.85 19.5 -1.7 19.5 -1.1 19.4 -0.6 19.25 -0.3 19.25 -0.25 Q11.95 1.55 6.4 0.5 L6.0 1.25" fill="#cc3333" fill-rule="evenodd" stroke="none"/>
    <path d="M6.0 1.25 L6.4 0.5 Q11.95 1.55 19.25 -0.25 L17.6 0.9 Q17.35 1.3 17.7 2.5 17.95 3.65 16.3 4.9 L13.45 7.0 11.3 8.4 Q9.0 9.85 6.45 10.8 3.95 11.75 1.4 11.9 L-3.45 11.6 -9.7 9.7 -11.8 8.95 -12.95 8.25 -13.1 7.75 -12.85 7.4 -10.45 7.1 -10.4 6.5 -10.25 5.95 -10.1 5.8 -9.25 5.75 -7.9 6.9 -7.35 6.9 -7.35 6.4 -6.55 5.2 -5.5 5.3 Q-4.75 5.55 -4.05 5.95 L-2.9 6.6 -2.3 4.7 -1.1 4.65 -0.85 4.8 -0.35 5.15 0.15 5.35 1.1 5.25 1.25 4.55 1.35 3.8 1.4 3.3 4.75 3.2 6.0 1.25 M6.4 0.55 L6.4 0.5 6.4 0.55" fill="#ff3333" fill-rule="evenodd" stroke="none"/>
    <path d="M6.0 1.25 L6.4 0.5 6.4 0.55" fill="none" stroke="#000000" stroke-linecap="round" stroke-linejoin="round" stroke-width="1.5"/>
    <path d="M19.25 -0.3 L19.4 -0.6 19.5 -1.1 19.5 -1.7 19.45 -2.85 19.4 -2.9 19.1 -3.95 Q17.65 -7.05 15.8 -8.75 L14.5 -9.7 Q13.15 -10.55 11.6 -10.8 9.7 -11.1 8.0 -11.95 -0.55 -11.8 -8.6 -8.8 -12.1 -7.45 -15.2 -5.15 L-16.2 -3.9 -16.25 -3.55 -16.2 -2.9 -18.45 0.2 -18.45 0.25 -18.7 0.55 -19.3 1.45 -19.35 1.8 -19.35 1.9 -19.35 2.0 -19.45 3.95 -19.35 4.85 -19.2 5.2 Q-18.8 5.45 -18.35 5.2 L-18.25 5.0 -18.25 4.95 Q-17.15 5.45 -16.4 3.55 L-16.0 2.8 -15.05 2.85 -14.55 3.5 Q-14.25 3.95 -13.7 3.9 L-13.55 4.25 -13.45 4.45 Q-11.5 5.2 -10.65 2.7 L-8.55 2.75 -8.4 3.1 -8.05 3.75 -7.05 3.75 -6.55 3.55 Q-6.15 2.05 -5.1 1.65 L-4.65 1.55 Q-2.45 3.6 -1.15 0.95 L-0.95 1.2 -0.2 1.75 Q0.35 3.25 1.35 2.75 L1.85 2.5 2.35 1.4 2.9 0.75 Q3.8 1.5 4.85 1.5 L5.95 1.25 6.0 1.25 4.75 3.2 1.4 3.3 1.35 3.8 1.25 4.55 1.1 5.25 0.15 5.35 -0.35 5.15 -0.85 4.8 -1.1 4.65 -2.3 4.7 -2.9 6.6 -4.05 5.95 Q-4.75 5.55 -5.5 5.3 L-6.55 5.2 -7.35 6.4 -7.35 6.9 -7.9 6.9 -9.25 5.75 -10.1 5.8 -10.25 5.95 -10.4 6.5 -10.45 7.1 -12.85 7.4 -13.1 7.75 -12.95 8.25 -11.8 8.95 -9.7 9.7 -3.45 11.6 1.4 11.9 Q3.95 11.75 6.45 10.8 9.0 9.85 11.3 8.4 L13.45 7.0 16.3 4.9 Q17.95 3.65 17.7 2.5 17.35 1.3 17.6 0.9 L19.25 -0.25" fill="none" stroke="#000000" stroke-linecap="round" stroke-linejoin="round" stroke-width="2.0"/>
  </g>
</svg>
