<?xml version="1.0" encoding="UTF-8" standalone="no"?>
<svg xmlns:xlink="http://www.w3.org/1999/xlink" height="131.1px" width="364.3px" xmlns="http://www.w3.org/2000/svg">
  <g transform="matrix(1.0, 0.0, 0.0, 1.0, -0.55, 1.05)">
    <path d="M333.9 129.05 L27.6 129.05" fill="none" stroke="#203360" stroke-linecap="round" stroke-linejoin="round" stroke-width="2.0"/>
    <path d="M363.5 49.65 L363.5 73.15 362.5 73.25 362.5 49.7 363.5 49.65" fill="#ffffff" fill-rule="evenodd" stroke="none"/>
    <path d="M0.55 41.05 L0.55 29.9 7.3 29.9 7.3 -1.05 363.5 -1.05 363.5 -0.3 Q364.75 1.1 363.85 4.15 363.35 5.85 363.8 7.65 365.6 14.6 364.35 21.85 363.8 24.85 364.25 27.8 364.65 29.75 363.5 30.75 L363.5 39.4 318.3 38.8 Q303.85 38.7 293.05 38.85 L293.05 38.9 275.5 40.0 Q249.2 43.6 222.5 42.1 L184.1 40.05 Q161.35 38.9 138.55 40.3 L48.35 45.15 0.55 41.05 M363.5 42.05 L363.5 48.35 362.5 48.3 Q356.25 48.1 349.15 48.25 L323.8 48.9 Q308.45 49.55 293.05 49.8 L293.05 49.85 291.2 49.85 290.4 44.95 289.9 44.4 289.9 44.25 289.8 43.9 289.6 43.95 289.35 44.55 289.0 44.9 288.2 49.85 285.4 49.85 285.55 48.9 Q286.05 45.6 286.05 42.15 L286.1 41.25 293.05 41.25 Q302.9 41.2 312.9 41.7 334.1 42.25 362.5 42.05 L363.5 42.05 M0.55 51.2 L0.55 42.95 48.35 46.25 48.35 46.2 Q58.2 46.8 68.6 46.25 L130.6 42.8 Q148.25 41.9 165.9 42.0 165.45 45.4 165.95 48.8 L166.6 48.25 168.35 42.05 197.4 43.0 196.1 53.05 187.0 52.1 Q164.3 49.4 141.25 51.25 L124.2 52.5 123.25 46.45 123.1 46.3 122.45 46.0 Q121.95 46.05 121.65 46.45 L121.35 48.9 Q121.2 50.8 121.3 52.7 85.8 54.8 50.1 54.35 L48.35 54.35 21.05 52.15 20.55 48.9 Q19.95 47.15 18.4 46.3 18.05 46.3 17.85 46.6 L15.05 51.8 0.55 51.2 M359.3 29.65 L359.3 29.9 359.35 29.9 359.3 29.65 M214.55 44.25 L216.0 44.35 Q237.65 46.3 259.05 43.35 L278.0 41.55 Q277.4 45.2 277.05 48.9 L276.85 50.7 254.75 52.95 Q233.95 54.15 213.05 53.85 L214.55 44.25" fill="#edfefd" fill-rule="evenodd" stroke="none"/>
    <path d="M363.5 39.4 L363.5 42.05 362.5 42.05 Q334.1 42.25 312.9 41.7 302.9 41.2 293.05 41.25 L286.1 41.25 278.0 41.55 259.05 43.35 Q237.65 46.3 216.0 44.35 L214.55 44.25 197.4 43.0 168.35 42.05 165.9 42.0 Q148.25 41.9 130.6 42.8 L68.6 46.25 Q58.2 46.8 48.35 46.2 L48.35 46.25 0.55 42.95 0.55 41.05 48.35 45.15 138.55 40.3 Q161.35 38.9 184.1 40.05 L222.5 42.1 Q249.2 43.6 275.5 40.0 L293.05 38.9 293.05 38.85 Q303.85 38.7 318.3 38.8 L363.5 39.4 M363.5 48.35 L363.5 49.65 362.5 49.7 247.45 55.5 Q229.55 55.9 211.7 55.9 L179.1 54.15 Q153.05 51.3 126.95 53.65 87.75 57.25 48.35 55.95 L0.55 54.0 0.55 51.2 15.05 51.8 21.05 52.15 48.35 54.35 50.1 54.35 Q85.8 54.8 121.3 52.7 L124.2 52.5 141.25 51.25 Q164.3 49.4 187.0 52.1 L196.1 53.05 213.05 53.85 Q233.95 54.15 254.75 52.95 L276.85 50.7 281.9 49.9 285.4 49.85 288.2 49.85 291.2 49.85 293.05 49.85 293.05 49.8 Q308.45 49.55 323.8 48.9 L349.15 48.25 Q356.25 48.1 362.5 48.3 L363.5 48.35" fill="#000000" fill-rule="evenodd" stroke="none"/>
    <path d="M286.1 41.25 L286.05 42.15 Q286.05 45.6 285.55 48.9 L285.4 49.85 281.9 49.9 276.85 50.7 277.05 48.9 Q277.4 45.2 278.0 41.55 L286.1 41.25 M288.2 49.85 L289.0 44.9 289.35 44.55 289.6 43.95 289.8 43.9 289.9 44.25 289.9 44.4 290.4 44.95 291.2 49.85 288.2 49.85 M213.05 53.85 L196.1 53.05 197.4 43.0 214.55 44.25 213.05 53.85 M124.2 52.5 L121.3 52.7 Q121.2 50.8 121.35 48.9 L121.65 46.45 Q121.95 46.05 122.45 46.0 L123.1 46.3 123.25 46.45 124.2 52.5 M21.05 52.15 L15.05 51.8 17.85 46.6 Q18.05 46.3 18.4 46.3 19.95 47.15 20.55 48.9 L21.05 52.15 M168.35 42.05 L166.6 48.25 165.95 48.8 Q165.45 45.4 165.9 42.0 L168.35 42.05" fill="#ccffff" fill-rule="evenodd" stroke="none"/>
  </g>
</svg>
