<?xml version="1.0" encoding="UTF-8" standalone="no"?>
<svg xmlns:xlink="http://www.w3.org/1999/xlink" height="70.8px" width="106.05px" xmlns="http://www.w3.org/2000/svg">
  <g transform="matrix(1.0, 0.0, 0.0, 1.0, 51.1, 36.7)">
    <path d="M54.95 18.4 Q52.4 20.05 49.55 21.25 23.85 32.65 -4.3 33.95 L-7.8 34.05 -15.65 34.05 -25.6 33.6 -26.45 33.5 -30.0 33.15 Q-36.45 32.35 -42.55 30.6 -46.35 29.6 -47.75 26.0 -38.8 22.8 -30.0 22.5 -27.8 22.45 -25.6 22.55 -15.8 23.1 -6.25 27.25 3.8 26.25 13.75 24.3 30.6 21.05 47.4 16.65 51.5 15.6 54.65 18.1 L54.95 18.4" fill="#a7c6d0" fill-rule="evenodd" stroke="none"/>
    <path d="M34.1 -28.45 L33.95 -28.45 38.0 -29.9 22.05 -32.4 Q19.85 -33.05 12.45 -32.5 L-36.65 -21.85 -30.25 -21.55 -33.35 -20.9 -33.65 -20.85 -34.2 -20.75 Q-44.75 -19.05 -50.35 -22.75 L13.6 -35.35 Q19.4 -36.55 25.2 -35.35 L47.45 -31.8 Q45.15 -26.6 34.1 -28.45" fill="#dfffff" fill-rule="evenodd" stroke="none"/>
    <path d="M33.95 -28.45 L21.45 -30.45 16.7 -30.65 10.25 -30.05 -29.9 -21.65 -30.25 -21.55 -36.65 -21.85 12.45 -32.5 Q19.85 -33.05 22.05 -32.4 L38.0 -29.9 33.95 -28.45" fill="#c0dbdb" fill-rule="evenodd" stroke="none"/>
    <path d="M16.7 -30.65 L16.7 8.35 -33.8 5.05 -34.2 -20.75 -33.65 -20.85 -33.35 -20.9 -30.25 -21.55 -29.9 -21.65 10.25 -30.05 16.7 -30.65" fill="#c9b578" fill-rule="evenodd" stroke="none"/>
    <path d="M33.95 -28.45 L34.1 -28.45 32.85 5.3 23.95 8.8 16.7 8.35 16.7 -30.65 21.45 -30.45 33.95 -28.45" fill="#9f8f5f" fill-rule="evenodd" stroke="none"/>
    <path d="M34.1 -28.45 L33.95 -28.45 21.45 -30.45 16.7 -30.65 10.25 -30.05 -29.9 -21.65 M16.7 8.35 L23.95 8.8 32.85 5.3 34.1 -28.45 M47.45 -31.8 L25.2 -35.35 Q19.4 -36.55 13.6 -35.35 L-50.35 -22.75 M-34.2 -20.75 L-33.65 -20.85 M-33.35 -20.9 L-30.25 -21.55 M-34.2 -20.75 L-33.8 5.05 16.7 8.35" fill="none" stroke="#000000" stroke-linecap="round" stroke-linejoin="round" stroke-width="1.5"/>
  </g>
</svg>
