<?xml version="1.0" encoding="UTF-8" standalone="no"?>
<svg xmlns:xlink="http://www.w3.org/1999/xlink" height="26.0px" width="26.2px" xmlns="http://www.w3.org/2000/svg">
  <g transform="matrix(1.0, 0.0, 0.0, 1.0, 13.1, 13.0)">
    <path d="M7.65 1.2 Q7.15 -0.45 6.95 -2.1 L6.6 -9.85 6.55 -10.5 4.7 -10.2 3.3 -9.65 -1.1 -6.95 -3.5 -5.1 -5.9 -2.7 -6.9 -1.45 -8.6 1.25 -10.0 4.55 -11.1 8.55 -11.7 13.0 -12.75 12.95 -13.1 12.7 -12.65 9.6 Q-12.3 7.3 -11.5 5.15 L-9.65 1.0 -6.7 -3.85 -3.5 -7.1 -0.65 -9.3 2.55 -11.1 7.8 -13.0 8.45 -10.85 Q8.75 -9.75 9.3 -8.75 10.5 -6.8 11.2 -4.6 L12.45 0.05 13.1 4.55 12.8 8.5 11.65 8.85 11.75 4.55 11.25 1.35 7.9 -8.95 Q7.6 -6.6 7.75 -3.8 L7.8 0.3 7.8 1.7 7.7 1.4 7.65 1.2 M-3.85 -3.4 L-2.65 -3.9 -1.4 -3.8 -2.05 -3.2 Q0.3 -2.3 1.0 0.15 1.6 2.25 0.5 4.25 L-0.25 5.45 1.7 6.2 1.35 6.6 Q0.55 7.2 -0.3 6.9 L-2.1 6.6 -4.75 5.7 -5.85 5.1 -6.65 4.1 -7.1 2.45 -7.05 0.75 -6.9 0.3 -6.55 -0.75 -5.65 -2.25 -4.95 -2.75 -4.25 -3.25 -4.2 -3.25 -3.85 -3.4 M-3.1 -0.7 Q-2.55 -0.7 -2.15 -0.3 -1.75 0.1 -1.75 0.65 -1.75 1.2 -2.15 1.6 -2.55 2.0 -3.1 2.0 -3.65 2.0 -4.05 1.6 -4.45 1.2 -4.45 0.65 -4.45 0.1 -4.05 -0.3 -3.65 -0.7 -3.1 -0.7 M-5.05 -1.0 Q-5.9 -0.1 -5.9 1.25 -5.9 2.6 -5.05 3.55 -4.2 4.45 -3.0 4.45 -1.8 4.45 -0.95 3.55 -0.1 2.6 -0.1 1.25 -0.1 -0.1 -0.95 -1.0 -1.8 -1.95 -3.0 -1.95 -4.2 -1.95 -5.05 -1.0 M-4.95 -2.75 L-6.9 0.3 -4.95 -2.75" fill="#000000" fill-rule="evenodd" stroke="none"/>
    <path d="M6.6 -9.85 L6.95 -2.1 Q7.15 -0.45 7.65 1.2 L7.7 1.4 Q9.0 5.85 1.8 12.0 L-1.5 13.0 -10.9 13.0 Q-10.55 7.55 -7.9 1.85 L-6.9 0.3 -7.05 0.75 -7.1 2.45 -6.65 4.1 -5.85 5.1 -4.75 5.7 -2.1 6.6 -0.3 6.9 Q0.55 7.2 1.35 6.6 L1.7 6.2 2.1 5.95 2.85 2.7 2.9 1.5 2.55 0.0 1.7 -1.4 0.35 -2.7 -1.4 -3.8 -2.65 -3.9 -3.85 -3.4 Q0.65 -7.75 6.6 -9.85" fill="#ffcc33" fill-rule="evenodd" stroke="none"/>
    <path d="M-1.4 -3.8 L0.35 -2.7 1.7 -1.4 2.55 0.0 2.9 1.5 2.85 2.7 2.1 5.95 1.7 6.2 -0.25 5.45 0.5 4.25 Q1.6 2.25 1.0 0.15 0.3 -2.3 -2.05 -3.2 L-1.4 -3.8" fill="#ff9933" fill-rule="evenodd" stroke="none"/>
    <path d="M-5.05 -1.0 Q-4.2 -1.95 -3.0 -1.95 -1.8 -1.95 -0.95 -1.0 -0.1 -0.1 -0.1 1.25 -0.1 2.6 -0.95 3.55 -1.8 4.45 -3.0 4.45 -4.2 4.45 -5.05 3.55 -5.9 2.6 -5.9 1.25 -5.9 -0.1 -5.05 -1.0 M-3.1 -0.7 Q-3.65 -0.7 -4.05 -0.3 -4.45 0.1 -4.45 0.65 -4.45 1.2 -4.05 1.6 -3.65 2.0 -3.1 2.0 -2.55 2.0 -2.15 1.6 -1.75 1.2 -1.75 0.65 -1.75 0.1 -2.15 -0.3 -2.55 -0.7 -3.1 -0.7" fill="#ffffff" fill-rule="evenodd" stroke="none"/>
    <path d="M7.7 1.4 L7.8 1.7 7.8 0.3 7.75 -3.8 Q7.6 -6.6 7.9 -8.95 L11.25 1.35 11.75 4.55 11.65 8.85 1.8 12.0 Q9.0 5.85 7.7 1.4" fill="#ecb20a" fill-rule="evenodd" stroke="none"/>
    <path d="M-11.7 13.0 L-11.1 8.55 -10.0 4.55 -8.6 1.25 -6.9 -1.45 -5.9 -2.7 -3.5 -5.1 -1.1 -6.95 3.3 -9.65 4.7 -10.2 6.55 -10.5 6.6 -9.85 Q0.65 -7.75 -3.85 -3.4 L-4.2 -3.25 -4.25 -3.25 -4.95 -2.75 -5.65 -2.25 -6.55 -0.75 -6.9 0.3 -7.9 1.85 Q-10.55 7.55 -10.9 13.0 L-11.7 13.0" fill="#ffd75f" fill-rule="evenodd" stroke="none"/>
    <path d="M7.65 1.2 L7.7 1.4 M-4.2 -3.25 L-3.85 -3.4 M-6.9 0.3 L-4.95 -2.75" fill="none" stroke="#000000" stroke-linecap="round" stroke-linejoin="miter-clip" stroke-miterlimit="3.0" stroke-width="0.1"/>
  </g>
</svg>
