<?xml version="1.0" encoding="UTF-8" standalone="no"?>
<svg xmlns:xlink="http://www.w3.org/1999/xlink" height="28.3px" width="25.8px" xmlns="http://www.w3.org/2000/svg">
  <g transform="matrix(1.0, 0.0, 0.0, 1.0, 11.2, 14.05)">
    <path d="M5.25 -2.55 L5.0 -3.65 5.0 -3.8 Q4.65 -5.5 4.65 -7.1 4.9 -9.8 5.2 -10.6 L5.75 -12.3 Q6.0 -13.0 6.8 -13.0 L10.35 -11.9 10.4 -11.85 9.65 -10.6 Q9.65 -11.0 8.7 -11.1 7.35 -11.25 6.75 -9.4 6.15 -7.6 5.55 -4.3 L5.25 -2.55 M-9.35 10.3 L-9.25 9.85 -9.1 9.4 -9.05 9.0 -9.05 9.05 -7.35 2.6 Q-6.65 4.05 -5.25 4.05 -0.85 4.05 -0.85 -0.4 -0.7 -4.0 -2.3 -5.1 L0.15 -7.9 4.15 -10.5 Q3.9 -9.4 3.8 -7.9 1.95 -6.65 1.35 -3.95 0.75 -1.2 0.6 1.55 0.55 -0.5 0.1 -1.2 L0.05 -1.2 0.25 -0.05 Q0.25 1.5 -0.15 2.8 L-1.65 4.15 Q-2.2 4.55 -3.55 4.75 -4.65 4.95 -4.65 5.2 -4.7 5.75 -3.25 5.75 L-1.55 5.4 -2.85 7.0 Q-4.75 9.45 -6.6 9.95 L-9.35 10.3" fill="#cccccc" fill-rule="evenodd" stroke="none"/>
    <path d="M9.65 -10.6 L10.4 -11.85 10.35 -11.9 6.8 -13.0 Q6.0 -13.0 5.75 -12.3 L5.2 -10.6 Q4.9 -9.8 4.65 -7.1 4.65 -5.5 5.0 -3.8 L5.0 -3.65 5.25 -2.55 5.3 -2.4 5.65 -0.25 5.55 0.15 5.4 0.2 Q4.5 0.2 4.0 -3.5 3.75 -4.75 3.8 -7.9 L3.7 -6.5 3.7 -7.1 3.8 -7.9 Q3.9 -9.4 4.15 -10.5 L0.15 -7.9 -2.3 -5.1 Q-0.7 -4.0 -0.85 -0.4 -0.85 4.05 -5.25 4.05 -6.65 4.05 -7.35 2.6 L-9.05 9.05 -9.05 9.0 -9.1 9.4 -9.25 9.8 -9.25 9.85 -9.35 10.3 -9.35 10.35 -10.35 13.75 -10.7 14.25 Q-11.2 14.25 -11.2 13.6 -11.2 11.5 -9.65 6.15 L-7.9 1.2 -7.95 1.0 -8.2 -2.0 Q-8.2 -2.85 -7.4 -4.0 -6.2 -5.6 -4.15 -5.6 L-2.95 -5.4 Q0.7 -11.2 4.45 -11.65 5.2 -14.05 6.65 -14.05 L11.65 -12.15 10.65 -10.35 Q11.95 -9.05 13.2 -4.35 14.6 0.65 14.6 3.4 14.7 9.1 13.4 9.1 L12.9 8.65 12.8 8.55 13.5 3.45 Q13.5 1.1 12.2 -4.15 11.2 -8.15 10.45 -9.9 L10.05 -8.6 9.85 -6.65 Q9.75 -5.65 9.05 -5.05 8.7 -5.3 8.7 -6.0 8.7 -8.4 9.5 -10.2 L9.65 -10.6 M0.6 1.55 L0.6 1.85 Q0.6 2.85 -0.1 4.0 L-0.35 4.35 -1.55 5.4 -3.25 5.75 Q-4.7 5.75 -4.65 5.2 -4.65 4.95 -3.55 4.75 -2.2 4.55 -1.65 4.15 L-0.15 2.8 Q0.25 1.5 0.25 -0.05 L0.05 -1.2 0.1 -1.2 Q0.55 -0.5 0.6 1.55 M-6.85 -1.25 Q-6.75 2.95 -5.45 2.95 -2.35 2.95 -2.05 0.35 -1.9 -3.85 -3.95 -4.25 L-3.8 -3.85 Q-3.8 -2.85 -4.85 -2.85 -5.7 -2.85 -5.7 -3.7 L-5.45 -4.1 Q-6.75 -3.5 -6.85 -1.25" fill="#000000" fill-rule="evenodd" stroke="none"/>
    <path d="M5.25 -2.55 L5.55 -4.3 Q6.15 -7.6 6.75 -9.4 7.35 -11.25 8.7 -11.1 9.65 -11.0 9.65 -10.6 L9.5 -10.2 Q8.7 -8.4 8.7 -6.0 8.7 -5.3 9.05 -5.05 9.75 -5.65 9.85 -6.65 L10.05 -8.6 10.45 -9.9 Q11.2 -8.15 12.2 -4.15 13.5 1.1 13.5 3.45 L12.8 8.55 12.9 8.65 Q0.95 14.55 -10.35 13.75 L-9.35 10.35 -9.35 10.3 -6.6 9.95 Q-4.75 9.45 -2.85 7.0 L-1.55 5.4 -0.35 4.35 -0.1 4.0 Q0.6 2.85 0.6 1.85 L0.6 1.55 Q0.75 -1.2 1.35 -3.95 1.95 -6.65 3.8 -7.9 3.75 -4.75 4.0 -3.5 4.5 0.2 5.4 0.2 L5.55 0.15 5.65 -0.25 5.3 -2.4 5.25 -2.55 M-9.25 9.85 L-9.25 9.8 -9.1 9.4 -9.25 9.85 M3.8 -7.9 L3.7 -7.1 3.7 -6.5 3.8 -7.9" fill="#999999" fill-rule="evenodd" stroke="none"/>
    <path d="M-6.85 -1.25 Q-6.75 -3.5 -5.45 -4.1 L-5.7 -3.7 Q-5.7 -2.85 -4.85 -2.85 -3.8 -2.85 -3.8 -3.85 L-3.95 -4.25 Q-1.9 -3.85 -2.05 0.35 -2.35 2.95 -5.45 2.95 -6.75 2.95 -6.85 -1.25" fill="#ffffff" fill-rule="evenodd" stroke="none"/>
  </g>
</svg>
