<?xml version="1.0" encoding="UTF-8" standalone="no"?>
<svg xmlns:xlink="http://www.w3.org/1999/xlink" height="70.7px" width="22.0px" xmlns="http://www.w3.org/2000/svg">
  <g transform="matrix(1.0, 0.0, 0.0, 1.0, 10.6, 63.2)">
    <path d="M2.95 -60.2 Q4.45 -58.65 4.85 -56.45 L-7.4 -53.05 -7.5 -53.7 Q-7.5 -62.2 -2.0 -62.2 L2.95 -60.2 M3.7 -41.9 Q5.0 -36.5 7.55 -31.7 9.05 -28.85 8.15 -25.75 L-7.25 -22.0 Q-10.8 -28.1 -8.05 -34.45 L-6.15 -39.5 Q-1.1 -39.95 3.2 -41.7 L3.7 -41.9 M8.3 -12.1 Q11.05 -6.65 10.2 -0.5 L9.5 6.5 -9.5 6.5 Q-10.05 -0.4 -6.6 -6.7 L-6.2 -7.6 Q-4.15 -7.85 1.6 -9.7 6.85 -11.4 8.3 -12.1" fill="#009900" fill-rule="evenodd" stroke="none"/>
    <path d="M-7.4 -53.05 L4.85 -56.45 Q5.05 -51.55 3.9 -46.75 3.3 -44.3 3.7 -41.9 L3.2 -41.7 Q-1.1 -39.95 -6.15 -39.5 -6.0 -40.4 -6.0 -41.2 -6.0 -44.5 -7.4 -53.05 M8.15 -25.75 L7.4 -23.65 Q5.0 -17.55 8.3 -12.1 6.85 -11.4 1.6 -9.7 -4.15 -7.85 -6.2 -7.6 -5.0 -11.1 -5.0 -13.7 -5.0 -16.45 -7.25 -22.0 L8.15 -25.75" fill="#017e01" fill-rule="evenodd" stroke="none"/>
    <path d="M4.85 -56.45 Q4.45 -58.65 2.95 -60.2 1.0 -62.2 -2.0 -62.2 -7.5 -62.2 -7.5 -53.7 L-7.4 -53.05 Q-6.0 -44.5 -6.0 -41.2 -6.0 -40.4 -6.15 -39.5 L-8.05 -34.45 Q-10.8 -28.1 -7.25 -22.0 -5.0 -16.45 -5.0 -13.7 -5.0 -11.1 -6.2 -7.6 L-6.6 -6.7 Q-10.05 -0.4 -9.5 6.5 M4.85 -56.45 Q5.05 -51.55 3.9 -46.75 3.3 -44.3 3.7 -41.9 5.0 -36.5 7.55 -31.7 9.05 -28.85 8.15 -25.75 L7.4 -23.65 Q5.0 -17.55 8.3 -12.1 11.05 -6.65 10.2 -0.5 L9.5 6.5" fill="none" stroke="#000000" stroke-linecap="round" stroke-linejoin="round" stroke-width="2.0"/>
  </g>
</svg>
