<?xml version="1.0" encoding="UTF-8" standalone="no"?>
<svg xmlns:xlink="http://www.w3.org/1999/xlink" height="64.35px" width="111.35px" xmlns="http://www.w3.org/2000/svg">
  <g transform="matrix(1.0, 0.0, 0.0, 1.0, 57.05, 32.55)">
    <path d="M47.45 -31.8 Q53.75 -29.45 47.35 -27.5 L2.75 -15.5 Q-3.8 -13.75 -10.65 -14.3 L-50.95 -18.5 Q-56.1 -19.25 -54.35 -21.9 L-46.8 -23.45 Q-45.55 -19.5 -39.5 -21.4 L-11.1 -18.5 Q-5.6 -18.0 -0.1 -19.75 L40.75 -29.9 Q44.65 -27.8 47.45 -31.8" fill="#dfffff" fill-rule="evenodd" stroke="none"/>
    <path d="M-4.85 -12.3 L0.7 -12.85 48.3 -25.0 50.3 -25.5 50.3 -24.7 Q48.55 -15.5 45.35 -7.75 L44.85 -6.55 Q18.25 22.5 -5.65 23.7 L-4.85 -12.3 M-5.15 22.6 L-4.65 -5.65 -5.15 22.6" fill="#fee598" fill-rule="evenodd" stroke="none"/>
    <path d="M-41.65 3.55 Q-42.75 2.45 -41.95 0.85 L-40.35 -3.0 -36.75 -2.9 -38.65 1.1 -27.6 2.35 -26.2 -2.15 Q-24.05 -5.15 -23.35 -2.7 L-23.25 -2.15 -23.3 -1.75 -24.5 3.5 Q-24.75 5.5 -27.5 5.25 L-40.5 4.35 -41.65 3.55" fill="#ff9933" fill-rule="evenodd" stroke="none"/>
    <path d="M50.3 -25.5 L48.3 -25.0 0.7 -12.85 -4.85 -12.3 -11.6 -12.85 -52.0 -16.75 -52.95 -16.85 Q-58.45 -17.8 -54.95 -21.8 L-54.35 -21.9 Q-56.1 -19.25 -50.95 -18.5 L-10.65 -14.3 Q-3.8 -13.75 2.75 -15.5 L47.35 -27.5 Q53.75 -29.45 47.45 -31.8 57.25 -29.35 51.3 -25.7 L50.9 -25.5 50.3 -25.5" fill="#c0dbdb" fill-rule="evenodd" stroke="none"/>
    <path d="M-4.85 -12.3 L-5.65 23.7 -5.8 31.05 Q-38.3 28.5 -47.05 10.5 -51.0 -2.9 -52.0 -16.75 L-11.6 -12.85 -4.85 -12.3 M-23.3 -1.75 L-23.25 -2.15 -23.35 -2.7 Q-24.05 -5.15 -26.2 -2.15 L-27.6 2.35 -38.65 1.1 -36.75 -2.9 -40.35 -3.0 -41.95 0.85 Q-42.75 2.45 -41.65 3.55 L-41.65 6.15 Q-41.9 7.9 -40.85 7.8 L-25.15 8.25 Q-22.85 8.55 -23.0 6.6 L-23.3 -1.75" fill="#cbb879" fill-rule="evenodd" stroke="none"/>
    <path d="M-52.95 -16.85 L-52.0 -16.75 Q-51.0 -2.9 -47.05 10.5 -38.3 28.5 -5.8 31.05 L-10.1 30.75 -45.85 26.5 Q-50.75 25.4 -52.25 19.1 L-52.95 -16.85 M-41.65 3.55 L-40.5 4.35 -27.5 5.25 Q-24.75 5.5 -24.5 3.5 L-23.3 -1.75 -23.0 6.6 Q-22.85 8.55 -25.15 8.25 L-40.85 7.8 Q-41.9 7.9 -41.65 6.15 L-41.65 3.55" fill="#bfad72" fill-rule="evenodd" stroke="none"/>
    <path d="M-5.65 23.7 Q18.25 22.5 44.85 -6.55 L45.35 -7.75 Q48.55 -15.5 50.3 -24.7 L50.3 11.5 Q50.1 17.25 44.15 18.85 L5.45 29.25 Q-0.15 30.8 -4.75 31.05 L-5.8 31.05 -5.65 23.7" fill="#eed78e" fill-rule="evenodd" stroke="none"/>
    <path d="M50.3 -25.5 L48.3 -25.0 0.7 -12.85 -4.85 -12.3 -11.6 -12.85 -52.0 -16.75 -52.95 -16.85 Q-58.45 -17.8 -54.95 -21.8 L-54.35 -21.9 -46.8 -23.45 M50.3 -24.7 L50.3 -25.5 50.9 -25.5 51.3 -25.7 Q57.25 -29.35 47.45 -31.8 M40.75 -29.9 L-0.1 -19.75 Q-5.6 -18.0 -11.1 -18.5 L-39.5 -21.4 M50.3 -24.7 L50.3 11.5 Q50.1 17.25 44.15 18.85 L5.45 29.25 Q-0.15 30.8 -4.75 31.05 L-5.8 31.05 -10.1 30.75 -45.85 26.5 Q-50.75 25.4 -52.25 19.1 L-52.95 -16.85 M-4.65 -5.65 L-5.15 22.6" fill="none" stroke="#000000" stroke-linecap="round" stroke-linejoin="miter-clip" stroke-miterlimit="3.0" stroke-width="1.5"/>
    <path d="M-23.3 -1.75 L-23.25 -2.15 -23.35 -2.7 Q-24.05 -5.15 -26.2 -2.15 L-27.6 2.35 -38.65 1.1 -36.75 -2.9 -40.35 -3.0 -41.95 0.85 Q-42.75 2.45 -41.65 3.55 L-40.5 4.35 -27.5 5.25 Q-24.75 5.5 -24.5 3.5 L-23.3 -1.75" fill="none" stroke="#000000" stroke-linecap="round" stroke-linejoin="round" stroke-width="1.5"/>
  </g>
</svg>
