<?xml version="1.0" encoding="UTF-8" standalone="no"?>
<svg xmlns:xlink="http://www.w3.org/1999/xlink" height="237.05px" width="346.7px" xmlns="http://www.w3.org/2000/svg">
  <g transform="matrix(1.0, 0.0, 0.0, 1.0, -9.3, -2.75)">
    <path d="M315.45 104.35 L311.25 105.1 Q299.4 107.0 282.65 107.0 L268.2 106.4 267.25 106.25 266.35 106.5 254.05 105.1 Q249.6 104.4 246.85 103.55 249.55 102.7 254.05 102.0 L262.05 101.0 282.65 100.1 Q299.4 100.1 311.25 102.0 L316.4 103.05 315.45 104.35" fill="#8eb9dd" fill-rule="evenodd" stroke="none"/>
    <path d="M346.5 83.0 L352.5 82.55 352.5 239.8 12.65 239.8 12.65 89.7 Q34.55 89.7 59.0 93.15 98.4 95.55 137.6 89.0 163.7 84.8 189.75 89.95 205.9 93.1 222.35 93.1 240.2 93.1 258.1 92.4 271.15 91.9 284.15 90.0 293.65 88.55 303.7 88.05 323.85 84.8 346.5 83.0 M315.45 104.35 L316.4 103.05 311.25 102.0 Q299.4 100.1 282.65 100.1 L262.05 101.0 254.05 102.0 Q249.55 102.7 246.85 103.55 249.6 104.4 254.05 105.1 L266.35 106.5 267.25 106.25 268.2 106.4 282.65 107.0 Q299.4 107.0 311.25 105.1 L315.45 104.35 M61.85 100.55 L56.7 101.6 57.65 102.9 61.85 103.65 Q73.7 105.55 90.5 105.55 L100.95 105.35 105.9 104.8 106.8 105.05 119.1 103.65 126.35 102.1 Q123.6 101.25 119.1 100.55 L111.1 99.55 90.5 98.65 Q73.7 98.65 61.85 100.55" fill="url(#gradient0)" fill-rule="evenodd" stroke="none"/>
    <path d="M352.5 52.3 L352.5 108.2 289.95 108.2 289.2 106.4 310.0 104.75 Q312.85 104.8 315.2 103.95 315.55 103.8 315.35 103.5 314.65 102.55 313.4 102.45 L309.25 102.5 309.25 102.3 Q309.15 101.65 308.45 101.6 L295.25 100.3 287.3 100.55 285.2 100.8 Q281.85 97.85 276.45 98.0 L266.95 97.25 Q261.1 95.9 255.5 95.4 L255.5 95.55 Q255.1 98.3 252.25 98.9 248.5 99.65 245.35 101.75 L244.9 102.0 248.3 103.4 Q266.85 108.95 287.45 107.3 289.2 107.15 289.95 108.2 L290.4 109.25 Q290.75 110.65 289.65 110.85 270.25 113.7 250.7 112.15 250.1 113.7 248.45 113.95 245.6 114.3 243.1 112.6 241.05 111.2 238.55 110.55 L238.2 110.5 Q237.75 110.85 237.25 111.15 232.1 113.35 226.55 110.9 L218.8 107.5 Q216.45 108.1 214.2 108.85 209.2 110.5 205.5 108.2 L9.3 108.2 9.3 52.3 352.5 52.3" fill="#edfefd" fill-rule="evenodd" stroke="none"/>
    <path d="M12.8 60.25 L12.8 65.8 10.3 65.8 10.3 17.2 12.8 17.2 12.8 60.25" fill="#ffffff" fill-rule="evenodd" stroke="none"/>
    <path d="M355.0 49.8 L353.7 50.25 Q345.8 53.0 338.25 56.3 333.2 62.7 323.2 65.8 314.2 68.6 301.15 68.65 L290.85 65.8 286.45 64.35 Q266.95 57.45 252.4 45.7 246.15 40.6 240.8 34.65 211.35 25.45 149.55 48.55 105.45 64.65 61.35 64.0 L12.8 60.25 12.8 17.2 12.8 2.75 355.0 2.75 355.0 49.8" fill="#f8f8f8" fill-rule="evenodd" stroke="none"/>
    <path d="M355.0 68.1 Q308.15 80.9 286.45 74.0 280.3 72.05 276.2 68.6 274.15 67.15 272.1 65.8 262.25 59.35 252.4 55.15 217.9 40.05 183.4 51.55 140.25 61.7 97.05 65.8 69.85 68.4 42.7 68.6 27.55 69.3 12.8 69.1 L12.8 65.8 12.8 60.25 61.35 64.0 Q105.45 64.65 149.55 48.55 211.35 25.45 240.8 34.65 246.15 40.6 252.4 45.7 266.95 57.45 286.45 64.35 L290.85 65.8 301.15 68.65 Q314.2 68.6 323.2 65.8 333.2 62.7 338.25 56.3 345.8 53.0 353.7 50.25 L355.0 49.8 355.0 68.1" fill="#e2e1e8" fill-rule="evenodd" stroke="none"/>
    <path d="M355.0 68.1 L355.0 77.1 Q308.2 89.9 286.45 82.95 280.3 81.05 276.2 77.55 266.25 70.6 256.35 65.8 L252.4 64.0 Q217.9 49.0 183.4 60.55 L158.9 65.8 Q100.85 77.1 42.7 77.55 27.55 78.25 12.8 78.1 L12.8 69.1 Q27.55 69.3 42.7 68.6 69.85 68.4 97.05 65.8 140.25 61.7 183.4 51.55 217.9 40.05 252.4 55.15 262.25 59.35 272.1 65.8 274.15 67.15 276.2 68.6 280.3 72.05 286.45 74.0 308.15 80.9 355.0 68.1" fill="#a7c6d0" fill-rule="evenodd" stroke="none"/>
    <path d="M158.9 65.8 L183.4 60.55 Q217.9 49.0 252.4 64.0 L256.35 65.8 158.9 65.8 M252.4 100.9 L268.5 100.9 Q268.55 101.45 268.95 101.9 L252.4 101.9 252.4 100.9" fill="#edfefd" fill-rule="evenodd" stroke="none"/>
    <path d="M12.8 65.8 L10.3 65.8 10.3 17.2" fill="none" stroke="#ffffff" stroke-linecap="round" stroke-linejoin="round" stroke-width="1.0"/>
    <path d="M355.0 68.1 Q308.15 80.9 286.45 74.0 280.3 72.05 276.2 68.6 274.15 67.15 272.1 65.8 262.25 59.35 252.4 55.15 217.9 40.05 183.4 51.55 140.25 61.7 97.05 65.8 69.85 68.4 42.7 68.6 27.55 69.3 12.8 69.1" fill="none" stroke="#000000" stroke-linecap="round" stroke-linejoin="miter-clip" stroke-miterlimit="3.0" stroke-width="2.0"/>
    <path d="M262.05 101.0 L261.5 99.25 261.4 98.2 Q261.6 97.1 262.9 96.5 L263.5 96.6 Q264.1 96.8 264.25 97.15 L265.95 100.65 262.05 101.0 M313.65 102.45 L313.6 101.35 Q313.65 99.85 314.15 98.4 L314.4 98.3 314.8 98.25 315.1 98.25 315.35 98.35 315.65 98.55 315.7 98.6 Q316.2 100.75 317.0 102.8 L317.1 103.2 313.65 102.45 M294.2 94.35 Q294.4 96.15 294.05 98.0 L294.0 98.3 Q293.65 98.7 292.9 98.5 L292.45 97.85 Q291.35 96.1 291.0 94.25 L294.2 94.35 M268.0 94.55 L268.35 97.25 268.35 97.9 267.95 98.2 266.9 98.35 266.45 98.15 266.2 97.75 266.1 97.5 266.05 96.7 Q265.4 96.45 265.35 96.0 L265.1 94.75 268.0 94.55" fill="#ccffff" fill-rule="evenodd" stroke="none"/>
    <path d="M265.95 100.65 L264.25 97.15 Q264.1 96.8 263.5 96.6 L262.9 96.5 Q261.6 97.1 261.4 98.2 L261.5 99.25 262.05 101.0 254.05 102.0 Q249.55 102.7 246.85 103.55 L245.25 103.05 Q242.45 101.95 242.3 100.7 L242.3 100.45 242.5 99.9 Q243.8 97.65 254.05 96.0 L265.1 94.75 265.35 96.0 Q265.4 96.45 266.05 96.7 L266.1 97.5 266.2 97.75 266.45 98.15 266.9 98.35 267.95 98.2 268.35 97.9 268.35 97.25 268.0 94.55 282.65 94.1 Q287.0 94.1 291.0 94.25 291.35 96.1 292.45 97.85 L292.9 98.5 Q293.65 98.7 294.0 98.3 L294.05 98.0 Q294.4 96.15 294.2 94.35 303.7 94.8 311.25 96.0 321.6 97.65 322.85 99.9 L323.05 100.45 323.05 100.7 Q322.85 102.25 318.45 103.6 L317.1 103.2 317.0 102.8 Q316.2 100.75 315.7 98.6 L315.65 98.55 315.35 98.35 315.1 98.25 314.8 98.25 314.4 98.3 314.15 98.4 Q313.65 99.85 313.6 101.35 L313.65 102.45 311.25 102.0 Q299.4 100.1 282.65 100.1 L265.95 100.65" fill="#edfefd" fill-rule="evenodd" stroke="none"/>
    <path d="M272.2 106.8 L266.35 106.5 267.25 106.25 272.2 106.8" fill="url(#gradient1)" fill-rule="evenodd" stroke="none"/>
    <path d="M262.05 101.0 L265.95 100.65 282.65 100.1 Q299.4 100.1 311.25 102.0 L313.65 102.45 317.1 103.2 318.45 103.6 Q322.85 102.25 323.05 100.7 M323.05 100.45 L322.85 99.9 Q321.6 97.65 311.25 96.0 303.7 94.8 294.2 94.35 L291.0 94.25 Q287.0 94.1 282.65 94.1 L268.0 94.55 265.1 94.75 254.05 96.0 Q243.8 97.65 242.5 99.9 L242.3 100.45 M242.3 100.7 Q242.45 101.95 245.25 103.05 L246.85 103.55 Q249.55 102.7 254.05 102.0 L262.05 101.0 M318.45 103.6 L311.25 105.1 Q299.4 107.0 282.65 107.0 L272.2 106.8 266.35 106.5 254.05 105.1 Q249.6 104.4 246.85 103.55" fill="none" stroke="#000000" stroke-linecap="round" stroke-linejoin="round" stroke-width="1.5"/>
    <path d="M284.1 12.2 L284.1 146.6" fill="none" stroke="#666666" stroke-linecap="round" stroke-linejoin="round" stroke-width="5.25"/>
  </g>
  <defs>
    <linearGradient gradientTransform="matrix(0.0, 0.3915, -0.2209, 0.0, 399.0, 417.2)" gradientUnits="userSpaceOnUse" id="gradient0" spreadMethod="pad" x1="-819.2" x2="819.2">
      <stop offset="0.0" stop-color="#60a3f4"/>
      <stop offset="0.5058823529411764" stop-color="#2b59a4"/>
      <stop offset="1.0" stop-color="#1d4e89"/>
    </linearGradient>
    <linearGradient gradientTransform="matrix(0.0, 0.2175, 0.2207, 0.0, 416.95, 235.1)" gradientUnits="userSpaceOnUse" id="gradient1" spreadMethod="pad" x1="-819.2" x2="819.2">
      <stop offset="0.0" stop-color="#b8d9e4"/>
      <stop offset="0.5058823529411764" stop-color="#508bd3"/>
      <stop offset="1.0" stop-color="#254578"/>
    </linearGradient>
  </defs>
</svg>
