<?xml version="1.0" encoding="UTF-8" standalone="no"?>
<svg xmlns:xlink="http://www.w3.org/1999/xlink" height="33.7px" width="37.45px" xmlns="http://www.w3.org/2000/svg">
  <g transform="matrix(1.0, 0.0, 0.0, 1.0, 18.35, 0.5)">
    <path d="M0.0 -0.5 L1.15 -0.4 Q2.8 0.0 3.4 1.6 3.5 4.0 2.6 6.4 L1.05 9.75 Q-0.25 12.05 -0.5 14.7 L2.85 14.9 5.35 11.25 6.0 11.5 Q6.2 13.85 5.65 16.25 L9.0 22.0 Q9.85 23.45 11.05 24.55 L17.05 25.65 Q19.05 27.45 19.1 29.9 18.9 31.4 15.35 32.95 L12.6 33.2 Q10.45 32.9 8.45 31.75 7.55 31.15 7.1 30.25 L3.7 23.3 2.9 22.0 2.55 21.7 1.6 22.1 -0.75 22.0 Q-2.9 23.55 -4.35 25.75 L-5.9 28.05 Q-7.05 29.85 -8.75 30.85 -9.6 31.35 -10.55 31.65 L-14.4 31.75 Q-18.65 30.35 -18.3 25.85 -15.15 21.8 -10.4 19.85 L-8.65 18.95 -7.0 17.8 Q-4.95 16.0 -2.25 15.0 -2.15 13.6 -1.7 12.3 -0.9 9.75 -0.5 7.05 L-0.2 4.8 Q-1.1 4.5 -1.35 3.6 L-1.55 1.75 Q-1.4 0.1 0.0 -0.5 M0.55 7.85 L0.6 7.85 1.7 5.35 Q2.7 3.1 1.8 1.2 L1.0 0.65 -0.65 1.25 Q-1.45 2.45 -0.7 3.65 L0.05 4.05 1.75 4.15 0.55 4.7 0.7 5.4 Q0.9 6.6 0.5 7.8 0.9 6.6 0.7 5.4 L0.55 4.7 1.75 4.15 0.05 4.05 -0.7 3.65 Q-1.45 2.45 -0.65 1.25 L1.0 0.65 1.8 1.2 Q2.7 3.1 1.7 5.35 L0.6 7.85 0.55 7.85 M-5.85 22.25 L-6.45 21.0 -6.35 21.15 Q-4.95 22.2 -4.55 24.15 L-2.45 21.5 -3.9 18.15 Q-2.4 19.2 -2.1 21.15 L-0.5 20.05 -0.7 18.1 -0.75 17.75 Q0.05 18.55 0.2 19.6 1.2 19.0 2.35 19.25 L2.5 18.25 2.2 17.7 2.35 17.2 3.1 18.15 3.3 17.25 3.3 16.55 2.15 16.15 2.2 15.7 0.45 15.6 -0.75 15.7 -1.05 15.65 -2.35 16.25 -7.75 19.75 -9.95 20.9 -13.6 22.8 Q-16.25 24.25 -17.45 27.0 -16.5 30.3 -13.1 30.8 -10.5 30.85 -8.6 29.25 -7.6 26.4 -8.6 23.65 -7.0 25.35 -7.2 27.65 L-5.35 25.2 Q-5.3 23.65 -5.85 22.25 M2.95 18.1 L3.0 18.3 3.1 18.15 3.0 18.3 2.95 18.1 M12.7 25.95 L12.65 26.25 12.5 26.4 Q10.8 26.1 9.5 24.8 L8.7 23.65 Q8.55 23.25 8.7 23.75 L5.3 17.3 Q4.85 18.65 4.05 19.8 L3.5 20.6 4.1 21.4 5.55 19.9 5.35 20.9 4.65 22.0 4.55 22.1 5.85 25.3 Q6.55 25.0 6.85 24.2 L7.1 23.65 7.3 23.35 7.5 24.1 7.5 24.2 7.05 25.0 6.35 25.7 6.0 25.85 7.55 28.95 8.2 28.85 Q9.3 27.95 9.8 26.55 L9.8 26.5 10.1 27.4 9.95 27.7 Q9.6 28.75 8.55 29.4 L7.95 29.65 Q9.05 31.3 10.8 31.75 L12.25 31.9 12.85 30.9 12.15 28.4 12.6 27.85 12.65 27.85 12.6 28.05 Q13.25 28.9 13.3 30.25 13.35 31.35 12.7 32.0 L15.35 31.65 Q16.7 31.35 17.55 30.5 L18.2 29.85 18.35 29.25 Q18.0 26.9 16.55 26.65 L12.7 25.85 12.6 25.8 12.7 25.95" fill="#000000" fill-rule="evenodd" stroke="none"/>
    <path d="M-0.75 17.75 L-2.35 16.25 -1.05 15.65 -0.75 15.7 0.45 15.6 2.2 15.7 2.15 16.15 3.3 16.55 3.3 17.25 3.1 18.15 2.35 17.2 2.2 17.7 2.5 18.25 2.35 19.25 Q1.2 19.0 0.2 19.6 0.05 18.55 -0.75 17.75 M-7.75 19.75 L-6.8 20.45 -5.85 22.25 Q-5.3 23.65 -5.35 25.2 L-7.2 27.65 Q-7.0 25.35 -8.6 23.65 -7.6 26.4 -8.6 29.25 -10.5 30.85 -13.1 30.8 -16.5 30.3 -17.45 27.0 -16.25 24.25 -13.6 22.8 L-9.95 20.9 -7.75 19.75 M12.7 25.85 L16.55 26.65 Q18.0 26.9 18.35 29.25 L18.2 29.85 17.55 30.5 Q16.7 31.35 15.35 31.65 L12.7 32.0 Q13.35 31.35 13.3 30.25 13.25 28.9 12.6 28.05 L12.65 27.85 12.6 27.85 12.15 28.4 12.85 30.9 12.25 31.9 10.8 31.75 Q9.05 31.3 7.95 29.65 L8.55 29.4 Q9.6 28.75 9.95 27.7 L10.1 27.4 9.8 26.5 9.8 26.55 Q9.3 27.95 8.2 28.85 L7.55 28.95 6.0 25.85 6.35 25.7 7.05 25.0 7.5 24.2 7.5 24.1 7.3 23.35 7.1 23.65 6.85 24.2 Q6.55 25.0 5.85 25.3 L4.55 22.1 4.65 22.0 5.35 20.9 5.55 19.9 4.1 21.4 3.5 20.6 4.05 19.8 Q4.85 18.65 5.3 17.3 L8.7 23.75 Q8.55 23.25 8.7 23.65 L9.5 24.8 Q10.8 26.1 12.5 26.4 L12.65 26.25 12.7 25.95 12.7 25.85" fill="#ffcccc" fill-rule="evenodd" stroke="none"/>
    <path d="M-0.75 17.75 L-0.7 18.1 -0.5 20.05 -2.1 21.15 Q-2.4 19.2 -3.9 18.15 L-2.45 21.5 -4.55 24.15 Q-4.95 22.2 -6.35 21.15 L-6.45 21.0 -5.85 22.25 -6.8 20.45 -7.75 19.75 -2.35 16.25 -0.75 17.75" fill="#cc9999" fill-rule="evenodd" stroke="none"/>
  </g>
</svg>
