<?xml version="1.0" encoding="UTF-8" standalone="no"?>
<svg xmlns:xlink="http://www.w3.org/1999/xlink" height="95.5px" width="343.2px" xmlns="http://www.w3.org/2000/svg">
  <g transform="matrix(1.0, 0.0, 0.0, 1.0, -9.3, -52.3)">
    <path d="M341.35 126.7 L341.5 125.35 Q341.55 124.3 341.85 123.45 342.45 121.7 344.0 120.85 344.35 120.85 344.55 121.15 L346.5 124.5 347.35 126.35 341.35 126.7 M238.35 127.05 L239.3 121.0 239.45 120.85 240.1 120.55 Q240.6 120.6 240.9 121.0 L241.2 123.45 241.25 127.25 238.35 127.05 M166.5 127.6 L149.6 128.4 Q148.95 126.0 148.6 123.45 L148.1 118.8 165.2 117.55 166.5 127.6 M85.85 125.25 L80.8 124.45 77.3 124.4 77.15 123.45 Q76.65 120.15 76.65 116.7 L76.6 115.8 84.7 116.1 85.85 125.25 M74.5 124.4 L71.5 124.4 71.6 123.45 Q71.8 121.5 72.3 119.5 L72.8 118.95 72.8 118.8 72.9 118.45 73.1 118.5 73.35 119.1 73.7 119.45 74.5 124.4 M196.7 116.55 Q197.15 119.95 196.65 123.35 196.1 123.1 196.0 122.8 L194.25 116.6 196.7 116.55" fill="#ccffff" fill-rule="evenodd" stroke="none"/>
    <path d="M9.3 113.95 L9.3 52.3 10.3 52.3 10.3 104.5 213.25 104.5 Q213.6 107.05 225.05 108.85 236.9 110.75 253.6 110.75 L261.0 110.65 261.1 110.3 Q261.8 109.1 263.4 108.75 L269.2 108.2 Q270.15 107.55 271.4 107.4 L275.4 106.85 286.8 106.95 289.55 107.35 Q291.05 106.8 292.5 106.2 L294.3 106.4 294.8 106.6 Q301.15 106.6 307.25 105.1 L313.5 104.5 352.5 104.5 352.5 116.5 314.1 119.7 224.0 114.85 Q201.25 113.45 178.5 114.6 L140.15 116.65 Q113.45 118.15 87.2 114.55 L69.65 113.45 69.65 113.4 Q58.9 113.25 44.45 113.35 L9.3 113.95 M352.5 118.7 L352.5 126.25 347.35 126.35 346.5 124.5 344.55 121.15 Q344.35 120.85 344.0 120.85 342.45 121.7 341.85 123.45 341.55 124.3 341.5 125.35 L341.35 126.7 314.1 128.9 312.35 128.9 Q276.7 129.35 241.25 127.25 L241.2 123.45 240.9 121.0 Q240.6 120.6 240.1 120.55 L239.45 120.85 239.3 121.0 238.35 127.05 221.3 125.8 Q198.3 123.95 175.6 126.65 L166.5 127.6 165.2 117.55 194.25 116.6 196.0 122.8 Q196.1 123.1 196.65 123.35 197.15 119.95 196.7 116.55 214.3 116.45 231.95 117.35 L293.9 120.8 Q304.25 121.35 314.1 120.75 L314.1 120.8 352.5 118.7 M9.3 122.9 L9.3 116.6 10.3 116.6 Q30.1 116.75 49.85 116.25 59.85 115.75 69.65 115.8 L76.6 115.8 76.65 116.7 Q76.65 120.15 77.15 123.45 L77.3 124.4 74.5 124.4 73.7 119.45 73.35 119.1 73.1 118.5 72.9 118.45 72.8 118.8 72.8 118.95 72.3 119.5 Q71.8 121.5 71.6 123.45 L71.5 124.4 69.65 124.4 69.65 124.35 Q54.3 124.1 38.95 123.45 L23.6 122.8 Q16.95 122.65 10.3 122.85 L9.3 122.9 M149.6 128.4 Q128.7 128.7 107.95 127.5 96.75 126.85 85.85 125.25 L84.7 116.1 103.65 117.9 Q125.0 120.85 146.65 118.9 L148.1 118.8 148.6 123.45 Q148.95 126.0 149.6 128.4 M270.85 110.05 L270.85 110.15 271.55 110.1 270.85 110.05 M279.2 108.25 L276.65 108.3 Q279.05 108.8 280.5 108.35 L280.45 108.35 279.45 108.3 279.2 108.25" fill="#edfefd" fill-rule="evenodd" stroke="none"/>
    <path d="M10.3 124.25 L10.3 147.8 9.3 147.7 9.3 124.2 10.3 124.25" fill="#ffffff" fill-rule="evenodd" stroke="none"/>
    <path d="M9.3 113.95 L44.45 113.35 Q58.9 113.25 69.65 113.4 L69.65 113.45 87.2 114.55 Q113.45 118.15 140.15 116.65 L178.5 114.6 Q201.25 113.45 224.0 114.85 L314.1 119.7 352.5 116.5 352.5 118.7 314.1 120.8 314.1 120.75 Q304.25 121.35 293.9 120.8 L231.95 117.35 Q214.3 116.45 196.7 116.55 L194.25 116.6 165.2 117.55 148.1 118.8 146.65 118.9 Q125.0 120.85 103.65 117.9 L84.7 116.1 76.6 115.8 69.65 115.8 Q59.85 115.75 49.85 116.25 30.1 116.75 10.3 116.6 L9.3 116.6 9.3 113.95 M352.5 126.25 L352.5 128.65 314.1 130.5 Q274.75 131.8 235.6 128.2 209.5 125.85 183.5 128.7 L150.95 130.45 Q133.1 130.45 115.2 130.05 L69.65 127.65 Q42.25 125.2 10.3 124.25 L9.3 124.2 9.3 122.9 10.3 122.85 Q16.95 122.65 23.6 122.8 L38.95 123.45 Q54.3 124.1 69.65 124.35 L69.65 124.4 71.5 124.4 74.5 124.4 77.3 124.4 80.8 124.45 85.85 125.25 Q96.75 126.85 107.95 127.5 128.7 128.7 149.6 128.4 L166.5 127.6 175.6 126.65 Q198.3 123.95 221.3 125.8 L238.35 127.05 241.25 127.25 Q276.7 129.35 312.35 128.9 L314.1 128.9 341.35 126.7 347.35 126.35 352.5 126.25" fill="#000000" fill-rule="evenodd" stroke="none"/>
    <path d="M262.05 101.0 L261.5 99.25 261.4 98.2 Q261.6 97.1 262.9 96.5 L263.5 96.6 263.95 96.8 263.95 100.8 262.05 101.0 M313.65 102.45 L313.6 101.35 Q313.65 99.85 314.15 98.4 L314.4 98.3 314.8 98.25 315.1 98.25 315.35 98.35 315.65 98.55 315.7 98.6 Q316.2 100.75 317.0 102.8 L317.1 103.2 313.65 102.45" fill="#ccffff" fill-rule="evenodd" stroke="none"/>
    <path d="M263.95 96.8 L263.5 96.6 262.9 96.5 Q261.6 97.1 261.4 98.2 L261.5 99.25 262.05 101.0 254.05 102.0 Q249.55 102.7 246.85 103.55 L245.25 103.05 Q242.45 101.95 242.3 100.7 L242.3 100.45 242.5 99.9 Q243.8 97.65 254.05 96.0 L263.95 94.85 263.95 96.8 M278.9 97.05 L278.9 95.9 281.1 96.25 Q281.4 96.4 280.7 96.6 L278.9 97.05 M310.3 95.85 L311.25 96.0 Q321.6 97.65 322.85 99.9 L323.05 100.45 323.05 100.7 Q322.85 102.25 318.45 103.6 L317.1 103.2 317.0 102.8 Q316.2 100.75 315.7 98.6 L315.65 98.55 315.35 98.35 315.1 98.25 314.8 98.25 314.4 98.3 314.15 98.4 Q313.65 99.85 313.6 101.35 L313.65 102.45 310.3 101.85 310.3 95.85" fill="#edfefd" fill-rule="evenodd" stroke="none"/>
    <path d="M272.2 106.8 L266.35 106.5 267.25 106.25 272.2 106.8" fill="url(#gradient0)" fill-rule="evenodd" stroke="none"/>
    <path d="M262.05 101.0 L263.95 100.8 M263.95 94.85 L254.05 96.0 Q243.8 97.65 242.5 99.9 L242.3 100.45 M242.3 100.7 Q242.45 101.95 245.25 103.05 L246.85 103.55 Q249.55 102.7 254.05 102.0 L262.05 101.0 M323.05 100.45 L322.85 99.9 Q321.6 97.65 311.25 96.0 L310.3 95.85 M310.3 101.85 L313.65 102.45 317.1 103.2 318.45 103.6 Q322.85 102.25 323.05 100.7 M318.45 103.6 L311.25 105.1 Q299.4 107.0 282.65 107.0 L272.2 106.8 266.35 106.5 254.05 105.1 Q249.6 104.4 246.85 103.55" fill="none" stroke="#000000" stroke-linecap="round" stroke-linejoin="round" stroke-width="1.5"/>
  </g>
  <defs>
    <linearGradient gradientTransform="matrix(0.0, 0.2175, 0.2207, 0.0, 416.95, 235.1)" gradientUnits="userSpaceOnUse" id="gradient0" spreadMethod="pad" x1="-819.2" x2="819.2">
      <stop offset="0.0" stop-color="#b8d9e4"/>
      <stop offset="0.5058823529411764" stop-color="#508bd3"/>
      <stop offset="1.0" stop-color="#254578"/>
    </linearGradient>
  </defs>
</svg>
