<?xml version="1.0" encoding="UTF-8" standalone="no"?>
<svg xmlns:xlink="http://www.w3.org/1999/xlink" height="69.7px" width="22.0px" xmlns="http://www.w3.org/2000/svg">
  <g transform="matrix(1.0, 0.0, 0.0, 1.0, 10.55, 62.2)">
    <path d="M8.15 -16.0 L1.5 -13.6 Q-4.2 -11.8 -6.2 -11.55 -5.5 -14.95 -5.5 -18.45 -5.5 -21.8 -6.75 -25.65 L-6.85 -26.15 Q0.3 -27.15 7.05 -29.4 3.85 -22.65 7.95 -16.25 L8.15 -16.0 M-9.5 6.05 Q0.5 5.1 7.35 2.4 L8.95 1.75 9.0 6.5 -9.5 6.5 -9.5 6.05 M4.15 -46.05 L3.0 -45.6 Q-1.35 -43.85 -6.5 -43.4 -5.5 -49.55 -6.35 -55.7 L-6.35 -57.2 1.75 -59.4 Q4.6 -54.45 4.15 -48.7 L4.15 -46.05" fill="#017e01" fill-rule="evenodd" stroke="none"/>
    <path d="M-6.2 -11.55 Q-4.2 -11.8 1.5 -13.6 L8.15 -16.0 Q12.05 -8.25 9.35 0.0 L8.95 1.75 7.35 2.4 Q0.5 5.1 -9.5 6.05 -9.8 -2.3 -6.6 -10.25 L-6.2 -11.55 M7.05 -29.4 Q0.3 -27.15 -6.85 -26.15 L-6.75 -25.65 Q-9.05 -33.25 -7.05 -40.95 L-6.5 -43.4 Q-1.35 -43.85 3.0 -45.6 L4.15 -46.05 Q5.2 -40.15 7.1 -34.45 8.0 -31.9 7.05 -29.4 M1.75 -59.4 L-6.35 -57.2 Q-5.75 -61.2 -2.75 -61.2 0.15 -61.2 1.75 -59.4" fill="#009900" fill-rule="evenodd" stroke="none"/>
    <path d="M8.15 -16.0 L7.95 -16.25 Q3.85 -22.65 7.05 -29.4 8.0 -31.9 7.1 -34.45 5.2 -40.15 4.15 -46.05 L4.15 -48.7 Q4.6 -54.45 1.75 -59.4 0.15 -61.2 -2.75 -61.2 -5.75 -61.2 -6.35 -57.2 L-6.35 -55.7 Q-5.5 -49.55 -6.5 -43.4 L-7.05 -40.95 Q-9.05 -33.25 -6.75 -25.65 -5.5 -21.8 -5.5 -18.45 -5.5 -14.95 -6.2 -11.55 L-6.6 -10.25 Q-9.8 -2.3 -9.5 6.05 L-9.5 6.5 M8.95 1.75 L9.35 0.0 Q12.05 -8.25 8.15 -16.0 M8.95 1.75 L9.0 6.5" fill="none" stroke="#000000" stroke-linecap="round" stroke-linejoin="round" stroke-width="2.0"/>
  </g>
</svg>
