<?xml version="1.0" encoding="UTF-8" standalone="no"?>
<svg xmlns:xlink="http://www.w3.org/1999/xlink" height="69.05px" width="35.1px" xmlns="http://www.w3.org/2000/svg">
  <g transform="matrix(1.0, 0.0, 0.0, 1.0, -204.25, -136.75)">
    <path d="M213.6 178.0 L227.4 177.0 229.35 179.45 229.15 187.15 234.05 186.9 236.0 189.15 222.0 203.8 206.25 188.8 213.15 188.2 213.6 178.0 Z" fill="none" stroke="#000000" stroke-linecap="round" stroke-linejoin="round" stroke-width="4.0"/>
    <path d="M219.85 201.75 L206.25 188.8 213.15 188.2 213.6 178.0 227.4 177.0 227.15 187.25 229.15 187.15 234.05 186.9 219.85 201.75" fill="#ffef80" fill-rule="evenodd" stroke="none"/>
    <path d="M227.4 177.0 L229.35 179.45 229.15 187.15 227.15 187.25 227.4 177.0 M234.05 186.9 L236.0 189.15 222.0 203.8 219.85 201.75 234.05 186.9" fill="#fcb700" fill-rule="evenodd" stroke="none"/>
    <path d="M219.85 201.75 L206.25 188.8 213.15 188.2 213.6 178.0 227.4 177.0 227.15 187.25 229.15 187.15 234.05 186.9 219.85 201.75 Z" fill="none" stroke="#000000" stroke-linecap="round" stroke-linejoin="round" stroke-width="1.0"/>
    <path d="M216.2 154.6 L215.85 160.7 217.75 163.4 230.95 161.85 230.9 153.15 237.35 152.2 235.9 149.4 222.9 138.75 209.55 152.3 211.45 155.0 216.2 154.6 Z" fill="none" stroke="#000000" stroke-linecap="round" stroke-linejoin="round" stroke-width="4.0"/>
    <path d="M235.9 149.4 L237.35 152.2 234.15 152.7 229.25 149.95 235.9 149.4 M230.95 161.85 L217.75 163.4 215.85 160.7 229.0 159.05 230.95 161.85 M216.2 154.6 L211.45 155.0 209.55 152.3 216.3 151.4 216.2 154.6" fill="#fcb700" fill-rule="evenodd" stroke="none"/>
    <path d="M215.85 160.7 L216.2 154.6 216.3 151.4 209.55 152.3 222.9 138.75 235.9 149.4 229.25 149.95 229.0 159.05 215.85 160.7" fill="#ffef80" fill-rule="evenodd" stroke="none"/>
    <path d="M234.15 152.7 L230.9 153.15 230.95 161.85 229.0 159.05 229.25 149.95 234.15 152.7 M230.9 153.15 L229.25 149.95 230.9 153.15" fill="#cc6600" fill-rule="evenodd" stroke="none"/>
    <path d="M215.85 160.7 L216.2 154.6 216.3 151.4 209.55 152.3 M235.9 149.4 L229.25 149.95 230.9 153.15 M229.0 159.05 L229.25 149.95 M230.95 161.85 L229.0 159.05 215.85 160.7 Z" fill="none" stroke="#000000" stroke-linecap="round" stroke-linejoin="round" stroke-width="1.0"/>
  </g>
</svg>
