<?xml version="1.0" encoding="UTF-8" standalone="no"?>
<svg xmlns:xlink="http://www.w3.org/1999/xlink" height="216.5px" width="344.6px" xmlns="http://www.w3.org/2000/svg">
  <g transform="matrix(1.0, 0.0, 0.0, 1.0, -352.85, 1.2)">
    <path d="M695.5 215.3 L352.85 215.3 352.85 0.0 695.5 0.0 695.5 215.3" fill="url(#gradient0)" fill-rule="evenodd" stroke="none"/>
    <path d="M352.85 40.0 L377.7 42.1 472.5 37.25 Q496.45 35.85 520.35 37.0 L560.7 39.05 Q588.8 40.55 616.4 36.95 L634.85 35.85 634.85 35.8 Q646.2 35.65 661.4 35.75 L697.45 36.3 697.45 39.0 697.35 39.0 Q676.45 39.15 655.7 38.65 645.2 38.15 634.85 38.2 L627.55 38.2 619.05 38.5 599.15 40.3 Q576.65 43.25 553.9 41.3 L552.35 41.2 534.35 39.95 503.8 39.0 501.25 38.95 Q482.7 38.85 464.15 39.75 L399.0 43.2 Q388.05 43.75 377.7 43.15 L377.7 43.2 352.85 41.9 352.85 40.0 M697.45 45.25 L697.45 46.65 697.35 46.65 Q663.65 47.6 634.85 50.05 L586.95 52.45 Q568.15 52.85 549.35 52.85 L515.1 51.1 Q487.75 48.25 460.3 50.6 419.1 54.2 377.7 52.9 L352.85 51.45 352.85 49.35 377.7 51.3 379.55 51.3 Q417.05 51.75 454.35 49.65 L457.4 49.45 475.35 48.2 Q499.55 46.35 523.4 49.05 L533.0 50.0 550.8 50.8 Q572.75 51.1 594.6 49.9 L617.85 47.65 623.15 46.85 626.8 46.8 629.75 46.8 632.9 46.8 634.85 46.8 634.85 46.75 Q651.05 46.5 667.15 45.85 L683.3 45.2 Q690.35 45.05 697.35 45.25 L697.45 45.25" fill="#000000" fill-rule="evenodd" stroke="none"/>
    <path d="M352.85 40.0 L352.85 -1.2 697.45 -1.2 697.45 36.3 661.4 35.75 Q646.2 35.65 634.85 35.8 L634.85 35.85 616.4 36.95 Q588.8 40.55 560.7 39.05 L520.35 37.0 Q496.45 35.85 472.5 37.25 L377.7 42.1 352.85 40.0 M697.45 39.0 L697.45 45.25 697.35 45.25 Q690.35 45.05 683.3 45.2 L667.15 45.85 Q651.05 46.5 634.85 46.75 L634.85 46.8 632.9 46.8 632.8 45.85 Q632.6 43.9 632.05 41.9 L631.55 41.35 631.55 41.2 631.45 40.85 631.25 40.9 630.95 41.5 630.6 41.85 629.75 46.8 626.8 46.8 627.0 45.85 Q627.5 42.55 627.5 39.1 L627.55 38.2 634.85 38.2 Q645.2 38.15 655.7 38.65 676.45 39.15 697.35 39.0 L697.45 39.0 M352.85 49.35 L352.85 41.9 377.7 43.2 377.7 43.15 Q388.05 43.75 399.0 43.2 L464.15 39.75 Q482.7 38.85 501.25 38.95 500.75 42.35 501.3 45.75 L502.0 45.2 503.8 39.0 534.35 39.95 533.0 50.0 523.4 49.05 Q499.55 46.35 475.35 48.2 L457.4 49.45 456.4 43.4 456.25 43.25 455.6 42.95 Q455.05 43.0 454.75 43.4 L454.4 45.85 Q454.25 47.75 454.35 49.65 417.05 51.75 379.55 51.3 L377.7 51.3 352.85 49.35 M693.95 26.65 L693.95 26.85 694.0 26.85 693.95 26.65 M617.85 47.65 L594.6 49.9 Q572.75 51.1 550.8 50.8 L552.35 41.2 553.9 41.3 Q576.65 43.25 599.15 40.3 L619.05 38.5 Q618.4 42.15 618.05 45.85 L617.85 47.65" fill="#edfefd" fill-rule="evenodd" stroke="none"/>
    <path d="M632.9 46.8 L629.75 46.8 630.6 41.85 630.95 41.5 631.25 40.9 631.45 40.85 631.55 41.2 631.55 41.35 632.05 41.9 Q632.6 43.9 632.8 45.85 L632.9 46.8 M626.8 46.8 L623.15 46.85 617.85 47.65 618.05 45.85 Q618.4 42.15 619.05 38.5 L627.55 38.2 627.5 39.1 Q627.5 42.55 627.0 45.85 L626.8 46.8 M550.8 50.8 L533.0 50.0 534.35 39.95 552.35 41.2 550.8 50.8 M457.4 49.45 L454.35 49.65 Q454.25 47.75 454.4 45.85 L454.75 43.4 Q455.05 43.0 455.6 42.95 L456.25 43.25 456.4 43.4 457.4 49.45 M503.8 39.0 L502.0 45.2 501.3 45.75 Q500.75 42.35 501.25 38.95 L503.8 39.0" fill="#ccffff" fill-rule="evenodd" stroke="none"/>
  </g>
  <defs>
    <linearGradient gradientTransform="matrix(0.0, 0.2177, -0.2167, 0.0, 368.7, 81.5)" gradientUnits="userSpaceOnUse" id="gradient0" spreadMethod="pad" x1="-819.2" x2="819.2">
      <stop offset="0.0" stop-color="#b8d9e4"/>
      <stop offset="0.5058823529411764" stop-color="#508bd3"/>
      <stop offset="1.0" stop-color="#254578"/>
    </linearGradient>
  </defs>
</svg>
