<?xml version="1.0" encoding="UTF-8" standalone="no"?>
<svg xmlns:xlink="http://www.w3.org/1999/xlink" height="36.35px" width="25.55px" xmlns="http://www.w3.org/2000/svg">
  <g transform="matrix(1.0, 0.0, 0.0, 1.0, -6.6, -5.15)">
    <path d="M22.9 10.25 L28.6 10.25 29.95 13.1 24.25 13.1 22.9 10.25 M27.5 8.65 L21.8 8.65 20.5 7.25 26.2 7.25 27.5 8.65 M25.85 20.65 L24.85 14.9 30.55 14.9 Q31.35 17.55 31.6 20.65 L25.85 20.65 M25.95 22.15 L31.65 22.15 31.45 27.5 25.7 27.5 25.95 22.15 M17.05 40.85 L20.05 39.65 25.8 39.65 Q24.15 41.0 22.1 41.0 L16.65 40.9 17.05 40.85 M23.25 35.6 L25.05 31.0 30.75 31.0 Q30.05 33.5 28.95 35.6 L23.25 35.6" fill="#cf9c54" fill-rule="evenodd" stroke="none"/>
    <path d="M28.6 10.25 L22.9 10.25 21.8 8.65 27.5 8.65 28.6 10.25 M24.25 13.1 L29.95 13.1 30.55 14.9 24.85 14.9 24.25 13.1 M16.45 5.65 L22.1 5.7 Q24.45 5.7 26.2 7.25 L20.5 7.25 19.6 6.6 Q18.25 5.7 16.45 5.65 M25.95 22.15 L25.85 20.65 31.6 20.65 31.65 22.15 25.95 22.15 M25.7 27.5 L31.45 27.5 30.75 31.0 25.05 31.0 25.7 27.5 M20.05 39.65 L21.8 37.95 Q22.85 36.85 23.25 35.6 L28.95 35.6 28.85 35.75 Q27.85 38.05 25.8 39.65 L20.05 39.65" fill="#e0ae5d" fill-rule="evenodd" stroke="none"/>
    <path d="M21.8 8.65 L22.9 10.25 24.25 13.1 24.85 14.9 25.85 20.65 25.95 22.15 25.7 27.5 25.05 31.0 23.25 35.6 Q22.85 36.85 21.8 37.95 L20.05 39.65 17.05 40.85 15.95 40.85 15.85 40.85 Q13.7 40.25 12.3 38.8 9.6 36.05 8.55 32.45 L8.5 29.3 Q8.5 22.75 9.4 18.25 9.9 15.8 11.6 12.5 14.3 7.25 17.25 7.25 L18.75 7.4 Q19.55 7.4 19.6 6.6 L20.5 7.25 21.8 8.65 M10.7 9.35 L11.2 8.65 Q12.3 7.15 14.05 6.25 L10.7 9.35" fill="#e1a542" fill-rule="evenodd" stroke="none"/>
    <path d="M16.45 5.65 Q18.25 5.7 19.6 6.6 19.55 7.4 18.75 7.4 L17.25 7.25 Q14.3 7.25 11.6 12.5 9.9 15.8 9.4 18.25 8.5 22.75 8.5 29.3 L8.55 32.45 Q7.15 27.95 7.1 23.3 7.05 18.3 8.65 13.6 9.4 11.45 10.7 9.35 L14.05 6.25 16.45 5.65" fill="#fecb56" fill-rule="evenodd" stroke="none"/>
    <path d="M15.95 40.85 L17.05 40.85 16.65 40.9 16.25 40.9 15.95 40.85" fill="url(#gradient0)" fill-rule="evenodd" stroke="none"/>
    <path d="M22.9 10.25 L28.6 10.25 27.5 8.65 21.8 8.65 22.9 10.25 24.25 13.1 29.95 13.1 28.6 10.25 M26.2 7.25 L27.5 8.65 M26.2 7.25 Q24.45 5.7 22.1 5.7 L16.45 5.65 Q18.25 5.7 19.6 6.6 L20.5 7.25 26.2 7.25 M21.8 8.65 L20.5 7.25 M25.95 22.15 L25.85 20.65 24.85 14.9 24.25 13.1 M31.65 22.15 L31.6 20.65 25.85 20.65 M30.55 14.9 Q31.35 17.55 31.6 20.65 M31.65 22.15 L25.95 22.15 25.7 27.5 31.45 27.5 31.65 22.15 M30.55 14.9 L29.95 13.1 M24.85 14.9 L30.55 14.9 M14.05 6.25 Q12.3 7.15 11.2 8.65 L10.7 9.35 Q9.4 11.45 8.65 13.6 7.05 18.3 7.1 23.3 7.15 27.95 8.55 32.45 9.6 36.05 12.3 38.8 13.7 40.25 15.85 40.85 L15.95 40.85 16.25 40.9 16.65 40.9 17.05 40.85 20.05 39.65 21.8 37.95 Q22.85 36.85 23.25 35.6 L25.05 31.0 25.7 27.5 M14.05 6.25 L16.45 5.65 M15.85 40.85 L16.25 40.9 M30.75 31.0 L31.45 27.5 M25.8 39.65 Q27.85 38.05 28.85 35.75 L28.95 35.6 23.25 35.6 M16.65 40.9 L22.1 41.0 Q24.15 41.0 25.8 39.65 L20.05 39.65 M28.95 35.6 Q30.05 33.5 30.75 31.0 L25.05 31.0" fill="none" stroke="#663300" stroke-linecap="round" stroke-linejoin="round" stroke-width="1.0"/>
  </g>
  <defs>
    <linearGradient gradientTransform="matrix(-0.0128, 0.0183, -0.0391, -0.0945, 24.3, 41.8)" gradientUnits="userSpaceOnUse" id="gradient0" spreadMethod="pad" x1="-819.2" x2="819.2">
      <stop offset="0.0" stop-color="#e5b14c"/>
      <stop offset="1.0" stop-color="#ebbb73"/>
    </linearGradient>
  </defs>
</svg>
