<?xml version="1.0" encoding="UTF-8" standalone="no"?>
<svg xmlns:xlink="http://www.w3.org/1999/xlink" height="231.25px" width="241.2px" xmlns="http://www.w3.org/2000/svg">
  <g transform="matrix(1.0, 0.0, 0.0, 1.0, 119.5, 112.85)">
    <path d="M67.8 -41.05 Q67.8 -41.55 68.5 -41.9 69.15 -42.25 70.1 -42.25 78.4 -42.45 86.95 -37.05 115.0 -19.2 121.7 13.55 L119.95 14.8 109.3 6.6 Q70.4 -12.15 54.35 35.2 53.3 38.25 51.5 41.1 L48.8 35.4 49.0 34.45 53.9 16.8 Q57.4 7.8 63.05 -0.3 L63.6 -1.05 70.95 -0.25 Q82.0 -3.25 83.6 -14.7 L83.75 -16.25 85.45 -12.8 85.9 -13.75 83.4 -25.9 Q90.1 -19.15 89.25 -9.6 L91.8 -18.2 93.1 -18.75 93.8 -10.75 102.75 -13.35 103.3 -11.75 102.55 -9.45 97.9 -7.1 112.25 0.85 Q106.45 -16.0 92.0 -26.75 L73.95 -38.7 67.8 -41.05 M-89.55 -96.2 L-89.15 -100.3 -87.2 -102.2 -87.55 -103.9 -86.8 -109.5 Q-82.35 -105.15 -77.5 -101.3 -68.75 -94.45 -57.9 -97.5 L-62.95 -93.5 Q-56.25 -98.25 -49.85 -98.75 L-51.35 -96.8 -59.5 -90.85 Q-75.0 -83.8 -87.3 -96.35 L-87.55 -96.6 -89.35 -95.95 -89.55 -96.2 M5.75 -99.7 Q51.65 -90.3 66.5 -47.25 L67.6 -43.2 65.25 -42.45 Q54.2 -66.75 33.15 -82.35 L5.75 -99.7 M-80.55 41.25 L-74.85 24.55 -72.2 23.05 -73.75 37.85 Q-64.7 28.4 -56.1 18.5 -53.1 15.1 -51.9 10.7 -47.9 -4.25 -49.95 -20.05 -51.0 -27.9 -50.55 -35.9 L-47.6 -31.8 -46.35 -29.65 Q-43.55 -24.2 -42.85 -18.0 L-41.25 -23.8 -40.65 -26.7 Q-39.65 -34.1 -41.45 -41.35 L-45.15 -45.35 -43.1 -46.15 -41.05 -46.85 -39.15 -47.8 Q-34.4 -50.1 -30.3 -53.8 L-28.75 -52.0 -28.75 -51.2 -28.85 -50.45 -29.15 -49.75 Q-30.75 -46.75 -33.7 -44.55 -36.2 -42.65 -39.55 -41.85 L-38.7 -40.7 -37.0 -38.7 -35.1 -37.0 -31.05 -33.85 -29.7 -33.4 Q-18.45 -29.2 -6.15 -28.6 7.25 -28.05 20.05 -31.7 29.1 -34.35 37.25 -38.95 37.4 -39.05 39.2 -35.95 18.6 -19.9 -8.85 -23.65 -23.1 -25.55 -35.95 -31.9 L-36.55 -32.75 -36.6 -30.4 Q-35.5 -20.95 -41.2 -13.5 L-42.45 -11.95 Q-41.05 26.65 -75.3 44.75 L-75.65 62.0 -79.45 64.05 -81.45 60.2 Q-83.35 56.55 -82.75 52.35 L-80.55 41.25 M-57.4 -36.25 L-61.0 -34.4 -57.25 -41.9 Q-51.95 -46.7 -54.3 -52.2 L-55.25 -54.1 -55.85 -55.15 -54.4 -54.45 -54.15 -54.45 -54.1 -54.45 Q-52.7 -54.45 -51.6 -53.4 -50.55 -52.35 -50.55 -50.9 L-52.6 -42.3 -51.05 -43.7 -57.4 -36.25 M-49.4 -61.05 L-51.3 -60.2 -46.9 -66.1 -44.5 -71.2 Q-43.6 -73.85 -43.2 -76.6 -42.1 -74.35 -41.8 -72.25 L-43.1 -66.3 Q-40.45 -60.45 -44.35 -55.45 -46.2 -53.1 -48.75 -51.55 L-45.5 -63.6 -49.4 -61.05 M-32.9 -71.85 L-32.05 -71.0 Q-29.1 -66.25 -32.0 -61.5 L-32.75 -60.4 -31.9 -66.1 Q-33.95 -64.65 -34.05 -62.1 -34.1 -60.85 -33.65 -59.65 L-37.2 -58.8 -34.0 -67.9 -36.75 -74.0 -32.9 -71.85 M-22.65 -64.5 L-21.5 -62.65 Q-21.45 -61.1 -21.8 -59.9 -21.7 -60.7 -22.05 -61.05 -22.75 -61.8 -23.9 -62.1 L-25.25 -55.9 -27.25 -55.3 -27.65 -57.3 Q-25.1 -59.95 -24.95 -63.7 L-25.0 -65.55 -22.65 -64.5 M-98.5 -26.65 Q-94.9 -23.25 -94.8 -18.5 -99.6 -22.7 -101.3 -28.75 L-98.5 -26.65 M-105.15 -18.05 L-104.3 -15.3 Q-102.9 -10.0 -105.7 -5.3 L-106.0 -4.75 Q-105.5 -13.85 -110.7 -21.5 L-110.25 -22.2 -107.9 -22.05 -105.15 -18.05 M-20.35 -68.4 L-23.35 -68.25 Q-23.45 -70.45 -22.0 -72.1 L-19.9 -73.8 -21.25 -79.95 -18.15 -76.6 Q-17.25 -74.8 -17.25 -72.75 -18.5 -69.4 -20.35 -68.4 M-10.6 58.7 L-12.6 60.1 Q-24.5 69.25 -35.95 62.25 L-33.65 61.95 -30.5 61.4 Q-18.95 58.65 -8.35 52.9 L-8.1 53.0 -8.15 53.9 -10.6 58.7 M7.95 44.25 Q9.05 40.65 11.25 40.75 L11.5 41.2 9.6 51.45 1.15 89.95 -1.2 92.8 -3.1 94.3 Q-3.0 68.25 7.95 44.25 M21.75 91.95 L24.65 92.0 24.3 98.05 23.75 99.85 Q5.55 116.6 -24.4 111.65 -38.7 109.25 -52.85 106.15 L-53.4 106.0 -58.65 104.7 -57.75 102.15 -56.75 102.8 -54.0 101.55 -6.65 103.3 Q5.0 103.05 16.4 100.4 L21.75 91.95" fill="#d79c2f" fill-rule="evenodd" stroke="none"/>
    <path d="M67.45 -40.15 L66.95 -40.5 Q66.45 -40.85 67.8 -41.05 L73.95 -38.7 92.0 -26.75 Q81.75 -31.15 72.1 -37.15 L67.45 -40.15 M50.95 41.2 L48.1 40.9 46.45 37.25 Q34.0 7.0 43.85 -24.5 L43.25 -29.75 39.2 -35.9 39.2 -35.95 Q37.4 -39.05 37.25 -38.95 L31.05 -48.75 Q38.7 -42.2 42.85 -33.1 49.05 -19.4 47.6 -4.35 46.2 10.45 47.25 25.15 47.6 29.75 49.0 34.45 L48.8 35.4 51.5 41.1 50.95 41.2 M-95.4 53.25 Q-104.7 42.05 -110.65 28.9 -119.35 9.5 -119.5 -11.7 -115.8 -31.05 -105.45 -47.6 L-99.45 -56.5 -89.55 -96.2 -89.35 -95.95 -89.75 -89.55 -91.8 -66.6 -72.4 -84.55 -70.95 -84.85 Q-72.15 -80.2 -73.25 -78.1 -86.5 -52.6 -98.5 -26.65 L-101.3 -28.75 -106.0 -31.8 -104.65 -30.1 -105.15 -18.05 -107.9 -22.05 -110.25 -22.2 -110.7 -21.5 Q-105.5 -13.85 -106.0 -4.75 L-105.7 -5.3 Q-102.9 -10.0 -104.3 -15.3 L-97.05 -11.65 -95.65 -12.1 -94.75 -11.0 -95.35 -6.5 Q-96.2 -3.5 -98.2 -0.85 -100.25 1.8 -103.05 2.55 L-106.55 2.85 Q-101.4 30.7 -82.75 52.35 -83.35 56.55 -81.45 60.2 L-79.45 64.05 Q-84.6 65.3 -88.2 61.55 L-95.4 53.25 M-40.25 -105.85 Q-31.45 -107.65 -21.6 -106.15 -7.45 -104.05 5.75 -99.7 L33.15 -82.35 Q7.15 -86.6 -17.45 -97.5 -28.5 -102.5 -40.85 -100.75 L-49.85 -98.75 Q-56.25 -98.25 -62.95 -93.5 L-57.9 -97.5 -56.15 -98.85 Q-49.1 -104.25 -40.25 -105.85 M-57.5 -21.15 L-72.2 -27.7 -71.4 -29.5 -63.5 -29.1 Q-60.15 -28.0 -57.5 -25.75 -52.9 -22.75 -53.8 -17.45 -53.95 -16.7 -54.25 -15.95 L-57.5 -21.15 M-6.15 -28.6 Q-18.45 -29.2 -29.7 -33.4 L-31.05 -33.85 -33.05 -40.05 Q-23.5 -33.85 -12.5 -30.45 L-6.15 -28.6 M70.95 -0.25 L63.6 -1.05 Q53.2 -9.3 52.35 -22.4 L52.25 -25.35 Q58.2 -10.3 70.95 -0.25 M-57.75 102.15 Q-56.85 93.8 -51.05 90.45 L-49.75 91.2 -47.9 91.0 Q-34.05 92.55 -20.8 88.2 L-20.6 87.85 -10.6 58.7 -8.15 53.9 -18.05 88.25 -17.85 89.75 Q-20.4 92.15 -23.75 93.65 -36.55 99.25 -49.9 94.5 L-54.0 101.55 -56.75 102.8 -57.75 102.15 M-37.5 48.15 Q-11.3 41.95 4.2 18.7 L7.1 21.4 Q-5.6 46.65 -33.95 50.35 L-36.8 55.7 -37.15 54.5 Q-37.5 51.8 -37.5 48.15 M3.9 89.4 L15.75 88.6 15.9 90.65 Q9.6 95.5 0.8 93.2 L-1.2 92.8 1.15 89.95 3.9 89.4" fill="#fffcd0" fill-rule="evenodd" stroke="none"/>
    <path d="M109.3 6.6 Q73.9 7.1 56.65 43.75 L53.25 50.1 50.95 41.2 51.5 41.1 Q53.3 38.25 54.35 35.2 70.4 -12.15 109.3 6.6 M43.25 -29.75 L42.6 -29.4 Q6.95 -13.05 -32.15 -18.25 -32.65 30.25 -73.45 50.7 -69.05 62.45 -74.9 72.85 L-75.45 73.05 -77.25 72.5 Q-91.65 68.0 -95.4 53.25 L-88.2 61.55 Q-84.6 65.3 -79.45 64.05 L-75.65 62.0 -75.3 44.75 Q-41.05 26.65 -42.45 -11.95 L-41.2 -13.5 Q-35.5 -20.95 -36.6 -30.4 L-36.55 -32.75 -35.95 -31.9 Q-23.1 -25.55 -8.85 -23.65 18.6 -19.9 39.2 -35.95 L39.2 -35.9 43.25 -29.75 M-87.55 -103.9 L-90.35 -112.85 -74.3 -108.35 Q-63.25 -105.35 -51.75 -106.05 L-40.25 -105.85 Q-49.1 -104.25 -56.15 -98.85 L-57.9 -97.5 Q-68.75 -94.45 -77.5 -101.3 -82.35 -105.15 -86.8 -109.5 L-87.55 -103.9 M-21.8 -59.9 L-22.15 -58.75 -25.25 -55.9 -23.9 -62.1 Q-22.75 -61.8 -22.05 -61.05 -21.7 -60.7 -21.8 -59.9 M-18.15 -76.6 Q-13.0 -71.75 -19.8 -66.3 L-19.95 -66.2 -20.35 -68.4 Q-18.5 -69.4 -17.25 -72.75 -17.25 -74.8 -18.15 -76.6 M-33.65 -59.65 Q-34.1 -60.85 -34.05 -62.1 -33.95 -64.65 -31.9 -66.1 L-32.75 -60.4 -33.65 -59.65 M-50.55 -50.9 L-51.05 -43.7 -52.6 -42.3 -50.55 -50.9 M9.6 51.45 Q10.75 48.8 12.05 46.25 10.3 67.7 3.9 89.4 L1.15 89.95 9.6 51.45 M24.25 99.45 L25.35 98.75 Q24.3 120.95 -8.05 118.05 -33.85 115.65 -59.25 110.5 -60.95 108.5 -60.55 106.05 L-53.35 106.15 -52.85 106.15 Q-38.7 109.25 -24.4 111.65 5.55 116.6 23.75 99.85 L24.25 99.45" fill="#a16e3f" fill-rule="evenodd" stroke="none"/>
    <path d="M-57.25 -41.9 L-56.75 -51.4 Q-56.6 -53.2 -55.25 -54.1 L-54.3 -52.2 Q-51.95 -46.7 -57.25 -41.9 M24.3 98.05 L24.25 99.45 23.75 99.85 24.3 98.05 M-53.35 106.15 L-53.4 106.0 -52.85 106.15 -53.35 106.15" fill="#e1b66c" fill-rule="evenodd" stroke="none"/>
    <path d="M-22.15 -58.75 L-23.1 -50.2 Q-15.75 -46.25 -7.45 -45.2 L9.65 -45.7 Q17.1 -46.6 23.95 -49.9 L23.55 -53.65 23.4 -55.4 Q23.0 -63.75 27.8 -70.65 37.8 -58.7 44.6 -44.8 L46.55 -45.7 Q54.05 -40.8 57.7 -32.7 63.2 -20.5 74.7 -13.85 L73.15 -16.9 Q67.6 -27.8 67.45 -40.15 L72.1 -37.15 Q81.75 -31.15 92.0 -26.75 106.45 -16.0 112.25 0.85 L97.9 -7.1 102.55 -9.45 103.3 -11.75 102.75 -13.35 93.8 -10.75 93.1 -18.75 91.8 -18.2 89.25 -9.6 Q90.1 -19.15 83.4 -25.9 L85.9 -13.75 85.45 -12.8 83.75 -16.25 83.6 -14.7 Q82.0 -3.25 70.95 -0.25 58.2 -10.3 52.25 -25.35 L52.35 -22.4 Q53.2 -9.3 63.6 -1.05 L63.05 -0.3 Q57.4 7.8 53.9 16.8 L49.0 34.45 Q47.6 29.75 47.25 25.15 46.2 10.45 47.6 -4.35 49.05 -19.4 42.85 -33.1 38.7 -42.2 31.05 -48.75 L37.25 -38.95 Q29.1 -34.35 20.05 -31.7 7.25 -28.05 -6.15 -28.6 L-12.5 -30.45 Q-23.5 -33.85 -33.05 -40.05 L-31.05 -33.85 -35.1 -37.0 -37.0 -38.7 -38.7 -40.7 -39.55 -41.85 Q-36.2 -42.65 -33.7 -44.55 -30.75 -46.75 -29.15 -49.75 L-28.85 -50.45 -28.75 -51.2 -28.75 -52.0 -30.3 -53.8 Q-34.4 -50.1 -39.15 -47.8 L-41.05 -46.85 -43.1 -46.15 -45.15 -45.35 -41.45 -41.35 Q-39.65 -34.1 -40.65 -26.7 L-41.25 -23.8 -42.85 -18.0 Q-43.55 -24.2 -46.35 -29.65 L-47.6 -31.8 -50.55 -35.9 Q-51.0 -27.9 -49.95 -20.05 -47.9 -4.25 -51.9 10.7 -53.1 15.1 -56.1 18.5 -64.7 28.4 -73.75 37.85 L-72.2 23.05 -74.85 24.55 Q-70.55 15.0 -67.3 4.9 -63.7 -6.45 -61.0 -18.1 L-57.4 -15.05 -57.5 -21.15 -54.25 -15.95 Q-53.95 -16.7 -53.8 -17.45 -52.9 -22.75 -57.5 -25.75 L-57.4 -36.25 -51.05 -43.7 -50.55 -50.9 Q-50.55 -52.35 -51.6 -53.4 -52.7 -54.45 -54.1 -54.45 -52.2 -54.45 -50.8 -56.35 -49.4 -58.3 -49.4 -61.05 L-45.5 -63.6 -48.75 -51.55 Q-46.2 -53.1 -44.35 -55.45 -40.45 -60.45 -43.1 -66.3 L-41.8 -72.25 -37.55 -76.15 -35.9 -75.5 Q-33.35 -74.55 -32.9 -71.85 L-36.75 -74.0 -34.0 -67.9 -37.2 -58.8 -33.65 -59.65 -32.75 -60.4 -32.0 -61.5 Q-29.1 -66.25 -32.05 -71.0 L-28.75 -75.75 -27.25 -74.0 Q-24.0 -69.75 -22.65 -64.5 L-25.0 -65.55 -24.95 -63.7 Q-25.1 -59.95 -27.65 -57.3 L-27.25 -55.3 -25.25 -55.9 -22.15 -58.75 M-59.5 -90.85 Q-70.6 -71.9 -79.05 -51.65 -89.35 -26.95 -95.35 -6.5 L-94.75 -11.0 -95.65 -12.1 -97.05 -11.65 -104.3 -15.3 -105.15 -18.05 -104.65 -30.1 -106.0 -31.8 -101.3 -28.75 Q-99.6 -22.7 -94.8 -18.5 -94.9 -23.25 -98.5 -26.65 -86.5 -52.6 -73.25 -78.1 -72.15 -80.2 -70.95 -84.85 L-72.4 -84.55 -91.8 -66.6 -89.75 -89.55 -89.35 -95.95 -87.55 -96.6 -87.3 -96.35 Q-75.0 -83.8 -59.5 -90.85 M-103.05 2.55 L-80.55 41.25 -82.75 52.35 Q-101.4 30.7 -106.55 2.85 L-103.05 2.55 M-33.65 61.95 Q-40.95 56.8 -37.5 48.15 -37.5 51.8 -37.15 54.5 L-36.8 55.7 -33.95 50.35 Q-5.6 46.65 7.1 21.4 L7.75 20.7 10.05 22.25 7.95 44.25 Q-3.0 68.25 -3.1 94.3 L-1.2 92.8 0.8 93.2 Q9.6 95.5 15.9 90.65 L21.0 91.05 21.75 91.95 16.4 100.4 Q5.0 103.05 -6.65 103.3 L-54.0 101.55 -49.9 94.5 Q-36.55 99.25 -23.75 93.65 -20.4 92.15 -17.85 89.75 L-18.05 88.25 -8.15 53.9 -8.1 53.0 -8.1 52.9 -8.35 52.9 Q-18.95 58.65 -30.5 61.4 L-33.65 61.95" fill="#f1be49" fill-rule="evenodd" stroke="none"/>
  </g>
</svg>
