<?xml version="1.0" encoding="UTF-8" standalone="no"?>
<svg xmlns:xlink="http://www.w3.org/1999/xlink" height="126.5px" width="69.8px" xmlns="http://www.w3.org/2000/svg">
  <g transform="matrix(1.0, 0.0, 0.0, 1.0, 36.0, 56.6)">
    <path d="M28.85 -56.4 L28.8 -56.6 29.15 -56.5 28.85 -56.4 M-8.65 3.45 Q-4.65 3.35 -0.65 2.4 L6.1 0.85 Q9.8 0.2 13.4 -1.2 L16.75 -2.8 18.25 -3.85 19.55 -5.05 20.65 -6.85 20.65 -7.55 Q20.6 -8.85 19.95 -9.8 19.1 -11.85 16.45 -13.15 11.95 -15.35 6.95 -15.4 L-10.35 -13.5 Q-14.65 -12.7 -18.75 -11.25 -24.85 -9.1 -30.2 -5.4 -31.85 -4.25 -32.2 -2.5 L-31.75 -1.8 -30.05 -0.55 Q-25.5 -6.15 -18.35 -7.65 L-17.75 -7.0 -17.8 -7.0 -21.2 -3.7 Q-22.4 -2.6 -23.2 -1.1 L-19.7 -2.45 -22.25 2.5 -15.3 3.45 -9.7 3.55 -9.0 3.5 -8.65 3.45 M23.7 -3.5 L23.5 -2.1 Q23.1 -0.9 22.3 0.0 L24.2 9.8 Q25.55 16.6 25.8 23.6 L27.75 25.3 Q28.55 37.9 30.6 50.45 L32.1 50.85 32.5 52.6 32.0 53.55 Q29.25 57.95 24.9 60.7 20.45 63.4 15.7 64.95 L6.8 67.1 Q-2.7 68.85 -12.4 68.6 -18.1 68.35 -21.85 64.5 -23.25 50.0 -26.5 35.75 L-28.1 34.4 -27.4 30.2 -32.15 3.65 -34.65 0.2 -33.75 -2.55 Q-31.9 -7.0 -27.5 -9.15 -23.35 -11.25 -18.95 -12.7 L-15.3 -13.85 5.4 -17.75 Q13.9 -17.85 20.3 -12.35 L21.2 -11.5 22.15 -10.3 23.2 -7.7 Q23.8 -5.65 23.7 -3.5 M16.05 3.4 L13.25 4.5 21.85 -2.45 22.1 -3.5 Q21.25 -2.1 19.95 -1.45 L15.0 0.55 Q9.3 2.7 3.3 3.75 L0.25 4.2 -15.0 5.45 -23.4 4.95 -24.45 4.7 Q-27.2 3.95 -29.65 2.35 L-32.15 0.45 Q-31.0 2.05 -30.55 4.05 L-27.25 19.7 Q-26.35 23.75 -26.1 27.95 L-26.2 31.45 -26.55 33.25 -25.75 33.9 -21.7 36.2 Q-15.9 38.7 -9.35 38.05 -8.7 38.0 -8.15 38.5 -12.0 39.6 -16.0 39.4 L-18.9 39.15 -23.05 37.7 -24.45 37.25 -21.8 50.9 Q-20.5 57.25 -20.2 63.9 L-19.05 64.45 -14.3 65.9 -7.75 66.7 Q-3.25 67.15 8.55 64.75 L9.2 64.6 Q17.4 63.2 24.35 58.9 L25.8 57.9 30.65 52.85 30.35 52.3 29.75 52.6 29.1 52.25 26.3 28.85 20.2 32.55 10.7 34.9 21.05 30.2 Q23.3 29.25 25.1 27.6 25.8 26.9 26.1 25.95 L25.25 24.8 25.0 25.35 20.65 1.35 16.05 3.4 M-6.25 -0.6 L-6.2 -0.6 -6.2 -0.55 -6.25 -0.6 M-2.65 1.3 L-2.65 1.2 -2.6 1.3 -2.65 1.3 M-9.0 2.05 L-9.0 1.95 -8.95 2.05 -9.0 2.05" fill="#000000" fill-rule="evenodd" stroke="none"/>
    <path d="M-9.0 3.5 L-9.7 3.55 -15.3 3.45 -22.25 2.5 -19.7 -2.45 -23.2 -1.1 Q-22.4 -2.6 -21.2 -3.7 L-17.8 -7.0 -17.75 -7.0 -18.35 -7.65 Q-25.5 -6.15 -30.05 -0.55 L-31.75 -1.8 -32.2 -2.5 Q-31.85 -4.25 -30.2 -5.4 -24.85 -9.1 -18.75 -11.25 -14.65 -12.7 -10.35 -13.5 L6.95 -15.4 Q11.95 -15.35 16.45 -13.15 19.1 -11.85 19.95 -9.8 20.6 -8.85 20.65 -7.55 L20.65 -6.85 19.55 -5.05 18.25 -3.85 16.75 -2.8 13.4 -1.2 Q9.8 0.2 6.1 0.85 L-0.65 2.4 Q-4.65 3.35 -8.65 3.45 L-8.9 3.45 -9.0 3.5 M-9.0 2.05 L-8.95 2.05 -9.0 1.95 -9.0 2.05 M-2.65 1.3 L-2.6 1.3 -2.65 1.2 -2.65 1.3 M-6.25 -0.6 L-6.2 -0.55 -6.2 -0.6 -6.25 -0.6" fill="#333333" fill-rule="evenodd" stroke="none"/>
    <path d="M0.25 4.2 L3.3 3.75 Q9.3 2.7 15.0 0.55 L19.95 -1.45 Q21.25 -2.1 22.1 -3.5 L21.85 -2.45 13.25 4.5 16.05 3.4 Q17.3 14.9 19.05 26.35 L19.45 27.3 Q20.05 27.95 21.0 28.0 L21.2 28.35 Q21.8 29.25 21.05 30.2 L10.7 34.9 20.2 32.55 22.85 48.65 Q23.35 52.05 24.2 55.45 24.3 55.95 24.8 56.45 L25.4 56.45 26.05 57.25 25.8 57.9 24.35 58.9 Q17.4 63.2 9.2 64.6 L8.55 64.75 6.8 51.05 6.8 51.6 1.9 17.1 Q1.0 11.6 0.45 6.05 L0.25 4.2 M-25.75 33.9 Q-25.45 31.7 -25.3 29.5 -25.1 24.7 -26.0 19.8 -27.75 11.05 -29.65 2.35 -27.2 3.95 -24.45 4.7 L-23.4 4.95 Q-22.0 12.1 -20.85 19.2 -19.95 25.45 -18.45 31.55 -18.2 32.8 -18.6 33.4 -20.15 33.85 -21.85 33.0 L-22.2 33.65 Q-22.7 34.6 -22.4 35.7 L-21.7 36.2 -25.75 33.9 M-18.9 39.15 Q-17.9 41.5 -17.6 44.45 L-14.3 65.9 -19.05 64.45 Q-18.6 63.6 -18.7 62.75 -19.05 59.35 -19.75 56.05 -21.7 47.0 -23.05 37.7 L-18.9 39.15" fill="#999999" fill-rule="evenodd" stroke="none"/>
    <path d="M0.25 4.2 L0.45 6.05 Q1.0 11.6 1.9 17.1 L6.8 51.6 6.8 51.05 8.55 64.75 Q-3.25 67.15 -7.75 66.7 L-14.3 65.9 -17.6 44.45 Q-17.9 41.5 -18.9 39.15 L-16.0 39.4 Q-12.0 39.6 -8.15 38.5 -8.7 38.0 -9.35 38.05 -15.9 38.7 -21.7 36.2 L-22.4 35.7 Q-22.7 34.6 -22.2 33.65 L-21.85 33.0 Q-20.15 33.85 -18.6 33.4 -18.2 32.8 -18.45 31.55 -19.95 25.45 -20.85 19.2 -22.0 12.1 -23.4 4.95 L-15.0 5.45 0.25 4.2" fill="#cccccc" fill-rule="evenodd" stroke="none"/>
    <path d="M25.8 57.9 L26.05 57.25 25.4 56.45 24.8 56.45 Q24.3 55.95 24.2 55.45 23.35 52.05 22.85 48.65 L20.2 32.55 26.3 28.85 29.1 52.25 29.75 52.6 30.35 52.3 30.65 52.85 25.8 57.9 M21.05 30.2 Q21.8 29.25 21.2 28.35 L21.0 28.0 Q20.05 27.95 19.45 27.3 L19.05 26.35 Q17.3 14.9 16.05 3.4 L20.65 1.35 25.0 25.35 25.25 24.8 26.1 25.95 Q25.8 26.9 25.1 27.6 23.3 29.25 21.05 30.2 M-25.75 33.9 L-26.55 33.25 -26.2 31.45 -26.1 27.95 Q-26.35 23.75 -27.25 19.7 L-30.55 4.05 Q-31.0 2.05 -32.15 0.45 L-29.65 2.35 Q-27.75 11.05 -26.0 19.8 -25.1 24.7 -25.3 29.5 -25.45 31.7 -25.75 33.9 M-19.05 64.45 L-20.2 63.9 Q-20.5 57.25 -21.8 50.9 L-24.45 37.25 -23.05 37.7 Q-21.7 47.0 -19.75 56.05 -19.05 59.35 -18.7 62.75 -18.6 63.6 -19.05 64.45" fill="#666666" fill-rule="evenodd" stroke="none"/>
    <path d="M23.7 -3.5 Q23.8 -5.65 23.2 -7.7 L22.15 -10.3 21.2 -11.5 20.3 -12.35 Q13.9 -17.85 5.4 -17.75 L-15.3 -13.85 -18.95 -12.7 Q-23.35 -11.25 -27.5 -9.15 -31.9 -7.0 -33.75 -2.55 L-34.65 0.2 -32.15 3.65 -27.4 30.2 -28.1 34.4 -26.5 35.75 Q-23.25 50.0 -21.85 64.5 -18.1 68.35 -12.4 68.6 -2.7 68.85 6.8 67.1 L15.7 64.95 Q20.45 63.4 24.9 60.7 29.25 57.95 32.0 53.55 L32.5 52.6 32.1 50.85 30.6 50.45 Q28.55 37.9 27.75 25.3 L25.8 23.6 Q25.55 16.6 24.2 9.8 L22.3 0.0 Q23.1 -0.9 23.5 -2.1 L23.7 -3.5 Z" fill="none" stroke="#000000" stroke-linecap="round" stroke-linejoin="miter-clip" stroke-miterlimit="3.0" stroke-width="2.5"/>
    <path d="M-10.15 -10.4 L-10.6 -10.75 Q-8.4 -10.5 -7.25 -12.45 L-6.3 -16.85 -4.75 -20.95 Q-4.2 -22.2 -4.35 -23.75 L-4.85 -26.6 Q-5.35 -28.65 -7.7 -28.8 -9.3 -28.55 -10.6 -27.85 -12.5 -26.85 -13.15 -24.8 -13.75 -23.0 -13.95 -21.25 L-14.0 -18.7 -13.4 -13.9 -12.35 -9.85 -11.5 -7.85 -7.9 -1.05 -7.75 -0.7 Q-6.95 1.35 -7.45 3.35 L-9.35 3.4 -9.0 1.95 -9.0 1.65 Q-9.9 -2.25 -12.25 -5.6 -14.0 -8.2 -14.75 -11.2 L-15.05 -12.45 Q-15.7 -16.25 -15.75 -18.7 -16.0 -23.75 -13.0 -27.65 -11.0 -30.15 -7.7 -30.25 -3.6 -29.95 -2.8 -26.1 -1.95 -21.6 -4.1 -17.65 L-5.3 -14.3 -5.45 -12.7 Q-5.5 -10.0 -4.15 -7.35 L-1.15 -1.65 Q-0.65 -0.75 -0.55 0.35 L-0.55 2.1 -2.75 2.55 -2.65 1.2 -2.9 -1.0 -4.25 -0.5 -5.45 -0.25 Q-6.0 -0.2 -6.25 -0.6 L-6.2 -0.6 -6.35 -0.8 -6.35 -0.85 -6.25 -0.95 -5.85 -1.1 Q-4.6 -1.2 -3.4 -2.4 L-6.0 -6.8 -7.9 -5.8 -8.85 -5.65 -8.15 -6.25 Q-7.15 -6.95 -6.5 -8.0 L-7.15 -10.85 Q-9.05 -9.7 -10.15 -10.4" fill="#000000" fill-rule="evenodd" stroke="none"/>
    <path d="M-12.35 -9.85 L-13.4 -13.9 -14.0 -18.7 -13.95 -21.25 Q-13.75 -23.0 -13.15 -24.8 -12.5 -26.85 -10.6 -27.85 -9.3 -28.55 -7.7 -28.8 -5.35 -28.65 -4.85 -26.6 L-4.35 -23.75 Q-4.2 -22.2 -4.75 -20.95 L-6.3 -16.85 -7.25 -12.45 Q-8.4 -10.5 -10.6 -10.75 L-10.15 -10.4 -11.2 -10.25 -12.35 -9.85 M-6.25 -0.6 Q-6.0 -0.2 -5.45 -0.25 L-4.25 -0.5 -2.9 -1.0 -2.65 1.2 -2.75 2.55 -7.45 3.35 Q-6.95 1.35 -7.75 -0.7 L-6.25 -0.6" fill="#ffcccc" fill-rule="evenodd" stroke="none"/>
    <path d="M-10.15 -10.4 Q-9.05 -9.7 -7.15 -10.85 L-6.5 -8.0 Q-7.15 -6.95 -8.15 -6.25 L-8.85 -5.65 -7.9 -5.8 -6.0 -6.8 -3.4 -2.4 Q-4.6 -1.2 -5.85 -1.1 L-6.25 -0.95 -6.35 -0.85 -6.35 -0.8 -6.2 -0.6 -6.25 -0.6 -7.75 -0.7 -7.9 -1.05 -11.5 -7.85 -12.35 -9.85 -11.2 -10.25 -10.15 -10.4" fill="#cc9999" fill-rule="evenodd" stroke="none"/>
    <path d="M-2.75 2.55 L-0.55 2.1 -0.55 0.35 Q-0.65 -0.75 -1.15 -1.65 L-4.15 -7.35 Q-5.5 -10.0 -5.45 -12.7 L-5.3 -14.3 -4.1 -17.65 Q-1.95 -21.6 -2.8 -26.1 -3.6 -29.95 -7.7 -30.25 -11.0 -30.15 -13.0 -27.65 -16.0 -23.75 -15.75 -18.7 -15.7 -16.25 -15.05 -12.45 L-14.75 -11.2 Q-14.0 -8.2 -12.25 -5.6 -9.9 -2.25 -9.0 1.65 L-9.0 1.95 -9.35 3.4 -7.45 3.35" fill="none" stroke="#000000" stroke-linecap="round" stroke-linejoin="miter-clip" stroke-miterlimit="3.0" stroke-width="2.5"/>
  </g>
</svg>
