<?xml version="1.0" encoding="UTF-8" standalone="no"?>
<svg xmlns:xlink="http://www.w3.org/1999/xlink" height="68.7px" width="21.9px" xmlns="http://www.w3.org/2000/svg">
  <g transform="matrix(1.0, 0.0, 0.0, 1.0, 10.35, 61.2)">
    <path d="M5.95 -51.0 Q8.55 -42.25 6.15 -33.35 L6.05 -33.1 -6.9 -30.1 Q-8.65 -37.45 -7.95 -45.1 L-7.8 -47.25 Q-5.3 -47.4 0.15 -49.05 4.85 -50.45 5.95 -51.0 M7.15 -19.6 Q12.3 -12.65 9.6 -4.2 L9.1 -2.3 Q-2.75 1.4 -9.2 2.05 -9.85 -6.55 -7.75 -14.85 L-7.6 -15.35 Q-5.4 -15.5 0.55 -17.3 5.75 -18.95 7.15 -19.6" fill="#009900" fill-rule="evenodd" stroke="none"/>
    <path d="M-7.8 -47.25 L-7.5 -51.2 Q-6.3 -60.2 -2.25 -60.2 0.9 -60.2 3.6 -56.3 5.05 -54.15 5.95 -51.0 4.85 -50.45 0.15 -49.05 -5.3 -47.4 -7.8 -47.25 M6.05 -33.1 Q4.5 -28.4 4.5 -25.45 4.5 -23.6 7.15 -19.6 5.75 -18.95 0.55 -17.3 -5.4 -15.5 -7.6 -15.35 -6.0 -22.9 -6.0 -24.95 -6.0 -26.9 -6.9 -30.1 L6.05 -33.1 M9.1 -2.3 L8.0 6.5 -7.5 6.5 -7.7 6.5 Q-8.8 4.95 -9.2 2.05 -2.75 1.4 9.1 -2.3" fill="#017e01" fill-rule="evenodd" stroke="none"/>
    <path d="M-7.8 -47.25 L-7.5 -51.2 Q-6.3 -60.2 -2.25 -60.2 0.9 -60.2 3.6 -56.3 5.05 -54.15 5.95 -51.0 8.55 -42.25 6.15 -33.35 L6.05 -33.1 Q4.5 -28.4 4.5 -25.45 4.5 -23.6 7.15 -19.6 12.3 -12.65 9.6 -4.2 L9.1 -2.3 8.0 6.5 M-7.5 6.5 L-7.7 6.5 Q-8.8 4.95 -9.2 2.05 -9.85 -6.55 -7.75 -14.85 L-7.6 -15.35 Q-6.0 -22.9 -6.0 -24.95 -6.0 -26.9 -6.9 -30.1 -8.65 -37.45 -7.95 -45.1 L-7.8 -47.25 Z" fill="none" stroke="#000000" stroke-linecap="round" stroke-linejoin="round" stroke-width="2.0"/>
  </g>
</svg>
