<?xml version="1.0" encoding="UTF-8" standalone="no"?>
<svg xmlns:xlink="http://www.w3.org/1999/xlink" height="111.7px" width="229.8px" xmlns="http://www.w3.org/2000/svg">
  <g transform="matrix(1.0, 0.0, 0.0, 1.0, 114.9, 55.85)">
    <path d="M-73.8 -52.65 L-72.35 -52.75 -81.85 -44.15 -81.6 -43.4 -83.3 -42.2 Q-83.55 -41.0 -82.65 -40.15 -82.0 -39.55 -81.1 -39.9 L-69.3 -45.3 Q-69.15 -44.45 -68.45 -44.95 L-66.35 -46.5 -65.3 -46.9 Q-69.15 -44.0 -72.0 -40.15 -68.95 -38.05 -65.75 -40.1 L-62.1 -42.65 -63.7 -40.65 -61.85 -39.15 Q-50.15 -45.7 -36.85 -47.8 L-40.75 -42.5 Q-42.4 -40.2 -42.7 -37.45 L-46.45 -36.15 -46.45 -35.25 -45.25 -35.1 Q-46.65 -34.1 -47.85 -32.8 L-47.65 -32.2 -47.1 -31.5 -45.9 -31.7 Q-45.0 -32.1 -44.05 -32.6 -30.4 -33.95 -17.25 -30.25 -10.05 -28.2 -2.8 -26.9 9.6 -21.8 22.1 -16.9 36.35 -11.35 51.3 -11.3 L51.6 -11.7 51.8 -12.1 51.8 -12.5 51.1 -12.7 56.85 -15.65 57.25 -12.0 57.85 -12.05 Q64.1 -19.2 72.3 -24.4 74.75 -25.9 77.35 -27.25 83.8 -30.7 90.95 -32.4 L99.1 -34.15 Q90.5 -30.95 83.7 -24.7 L80.2 -21.45 Q77.35 -18.9 77.65 -15.85 L78.2 -15.8 75.8 -14.6 75.95 -13.0 84.75 -13.15 80.1 -11.25 Q81.5 -9.45 83.8 -9.95 L96.85 -11.45 Q91.55 -9.45 86.55 -6.7 82.6 -4.5 82.4 -1.05 L79.1 -0.25 78.55 0.7 Q87.2 5.25 96.8 6.75 86.7 11.65 80.45 6.9 74.75 3.2 64.8 0.8 56.45 -1.75 47.45 -2.2 44.4 -3.45 40.8 -3.65 34.45 -3.9 28.4 -5.95 L-8.1 -18.0 -22.05 -21.65 -31.5 -23.5 Q-43.25 -25.9 -55.15 -25.05 L-55.75 -24.85 -56.1 -24.4 -56.25 -22.75 -53.25 -18.5 -56.7 -22.9 -56.75 -22.8 Q-54.05 -13.65 -53.55 -4.3 -53.35 0.4 -54.0 4.95 -56.65 -1.4 -63.2 -7.75 -70.35 -16.05 -91.5 -27.25 L-114.9 -14.7 -114.9 -36.4 -106.5 -36.1 Q-102.15 -35.7 -98.35 -38.25 -94.65 -40.8 -91.15 -43.85 L-73.8 -52.65" fill="#858585" fill-rule="evenodd" stroke="none"/>
    <path d="M-114.9 -36.4 L-114.85 -38.6 -102.8 -44.35 Q-98.2 -46.55 -93.85 -49.1 -90.85 -50.9 -87.45 -52.15 L-75.95 -55.1 Q-73.0 -55.9 -70.25 -55.0 -68.8 -54.6 -67.9 -53.55 L-67.9 -52.75 -71.95 -49.9 Q-62.85 -53.45 -53.3 -55.25 L-48.75 -55.85 -48.0 -55.6 -47.7 -54.7 -51.3 -50.85 Q-43.5 -52.8 -35.4 -52.55 L-30.85 -51.5 -30.7 -51.05 Q-33.85 -48.4 -36.2 -45.05 -37.9 -42.65 -39.25 -39.85 L-40.05 -38.0 Q-31.6 -39.0 -23.25 -37.25 L-15.05 -35.25 Q-10.95 -34.25 -6.9 -32.9 L0.95 -29.7 Q13.45 -23.9 26.45 -19.8 34.75 -17.1 43.25 -14.9 46.95 -16.65 50.5 -18.85 54.25 -21.2 57.5 -24.1 L63.15 -28.8 Q67.95 -32.45 73.3 -35.15 83.15 -40.0 94.0 -39.4 98.9 -39.0 103.7 -37.2 L108.3 -35.3 108.65 -35.0 108.15 -34.0 Q101.2 -32.65 94.95 -29.4 91.15 -27.5 87.7 -24.8 84.15 -22.0 81.3 -18.7 87.55 -19.35 93.85 -18.6 99.25 -18.05 104.25 -15.85 L110.25 -12.95 110.05 -12.1 Q103.7 -11.0 97.8 -8.7 93.25 -7.0 89.25 -4.5 L86.55 -2.75 Q93.05 -0.8 99.2 2.1 L104.45 4.6 105.1 5.1 104.8 6.1 Q98.0 9.7 90.85 11.85 L85.3 13.25 Q89.8 14.95 94.4 16.3 L102.65 18.7 Q108.55 20.05 114.65 20.5 L114.9 21.15 114.55 22.15 Q109.7 24.45 104.55 25.4 L98.45 26.35 Q93.1 26.9 87.85 26.5 84.25 26.25 81.0 25.2 74.05 23.0 67.5 19.6 L54.85 13.1 Q51.95 11.65 48.7 11.35 46.55 11.0 44.5 11.35 41.9 11.35 39.4 12.15 37.8 12.8 36.3 13.6 31.8 15.95 27.55 18.8 L14.85 29.05 Q8.55 34.5 1.3 38.8 -3.45 41.5 -8.7 43.25 L-8.85 43.7 Q-17.05 46.85 -25.45 49.4 L-42.65 53.4 -53.2 54.85 -63.8 55.75 Q-78.1 56.5 -91.95 52.75 -94.85 51.85 -97.6 50.55 L-104.45 47.2 Q-109.9 44.25 -114.9 40.8 L-108.2 40.1 Q-97.2 46.4 -95.15 47.1 -88.55 49.4 -81.5 50.45 L-63.8 51.85 Q-46.1 51.85 -29.1 46.35 -26.0 45.35 -22.9 45.2 -18.8 45.05 -17.7 43.15 L-18.25 43.3 -9.3 39.5 Q1.25 35.1 10.45 28.45 L21.7 19.25 Q30.05 12.8 39.9 8.7 49.55 4.65 60.05 4.15 L67.35 4.4 67.75 4.8 70.5 5.35 70.5 6.1 67.7 6.2 67.2 6.6 49.55 8.65 55.15 10.3 Q59.7 11.65 64.2 13.95 69.35 16.55 74.3 19.4 75.4 20.0 76.65 20.4 L79.15 21.1 Q82.95 22.15 86.9 22.7 L97.2 23.65 107.35 22.35 91.8 18.5 Q86.7 16.25 82.25 13.1 L81.45 12.95 Q82.95 11.85 84.9 11.5 91.35 10.35 96.85 6.75 L101.05 4.8 Q97.7 4.45 94.55 3.45 88.35 1.6 82.4 -1.05 82.6 -4.5 86.55 -6.7 91.55 -9.45 96.85 -11.45 L103.35 -13.6 Q97.35 -15.75 90.95 -16.35 L78.2 -15.8 77.65 -15.85 Q77.35 -18.9 80.2 -21.45 L83.7 -24.7 Q90.5 -30.95 99.1 -34.15 L102.1 -35.15 Q86.3 -39.15 72.4 -30.95 62.05 -24.85 54.6 -18.55 49.4 -14.2 46.65 -13.95 L51.1 -12.7 51.8 -12.5 51.8 -12.1 51.6 -11.7 51.3 -11.3 Q36.35 -11.35 22.1 -16.9 9.6 -21.8 -2.8 -26.9 L-12.05 -30.75 Q-21.5 -34.7 -31.85 -34.95 L-45.25 -35.1 -46.45 -35.25 -46.45 -36.15 -42.7 -37.45 Q-42.4 -40.2 -40.75 -42.5 L-36.85 -47.8 -32.7 -51.5 -40.4 -50.8 Q-46.85 -49.7 -52.65 -47.2 -54.2 -46.5 -55.8 -45.9 L-58.55 -45.7 -58.25 -46.05 -58.6 -45.85 -60.2 -45.15 -53.25 -52.7 Q-55.15 -52.55 -56.7 -51.7 -61.3 -49.2 -66.0 -46.85 L-66.25 -46.6 -66.4 -46.5 -66.35 -46.5 -68.45 -44.95 Q-69.15 -44.45 -69.3 -45.3 -66.85 -49.15 -63.05 -51.8 L-72.9 -46.95 -78.5 -43.55 -81.2 -43.45 -81.6 -43.4 -81.85 -44.15 -72.35 -52.75 -73.8 -52.65 -80.05 -51.75 Q-90.35 -49.6 -99.3 -43.35 -104.35 -39.8 -114.9 -36.4 M-106.5 -36.1 L-88.1 -46.4 -91.15 -43.85 Q-94.65 -40.8 -98.35 -38.25 -102.15 -35.7 -106.5 -36.1 M9.6 -2.6 L8.4 -0.5 15.1 3.55 17.4 1.25 12.1 -2.7 18.5 0.15 19.2 -0.35 19.2 0.55 Q24.2 2.95 28.8 6.0 L18.8 2.05 17.05 4.8 19.75 9.35 15.45 6.5 9.95 12.05 13.7 14.45 13.8 15.0 13.05 15.65 12.1 15.65 11.45 16.0 8.35 14.25 8.35 13.45 Q3.25 17.1 -2.65 19.2 L-2.2 20.6 -6.25 19.25 -9.8 14.75 -15.9 15.05 -11.3 13.2 -15.3 8.95 -19.5 11.55 Q-17.85 14.35 -16.7 17.4 L-17.95 18.3 Q-20.45 16.1 -22.35 13.4 L-26.35 14.4 -27.95 14.5 -27.75 13.6 -23.55 11.2 -27.8 5.55 -32.6 8.85 Q-30.8 12.0 -30.2 15.85 L-30.2 16.1 -30.85 16.35 -34.3 10.3 -37.6 12.1 -35.6 8.5 -37.85 6.3 -43.8 11.95 -43.8 8.8 -39.8 4.4 -42.7 1.15 Q-46.7 5.5 -51.75 8.7 L-51.65 8.2 -52.05 7.05 Q-47.9 3.05 -44.6 -1.55 -48.9 -9.25 -51.15 -17.9 L-43.15 -3.65 -39.2 -9.85 Q-43.1 -13.5 -42.9 -18.7 L-37.85 -12.6 -36.25 -16.45 Q-35.3 -15.5 -35.35 -14.15 -35.4 -12.15 -35.9 -10.25 L-31.95 -5.55 -28.85 -10.15 -31.7 -16.0 -28.2 -11.15 -26.5 -13.95 -26.75 -9.2 -22.5 -3.8 -17.75 -9.35 -18.0 -11.45 -16.8 -10.55 -15.3 -12.55 -15.35 -9.15 -7.75 -1.85 -3.85 -5.65 -6.7 -0.8 0.45 6.2 6.1 0.7 -4.5 -6.7 -5.5 -9.65 7.8 -1.0 9.6 -2.6 M-51.05 -55.15 L-50.75 -54.85 -50.4 -55.15 -51.05 -55.15 M-9.45 -0.05 L-16.45 -6.9 -20.45 -1.4 -14.35 5.25 -9.45 -0.05 M-23.9 -2.25 L-27.4 -7.75 -30.15 -3.4 -26.75 0.7 -23.9 -2.25 M-34.35 -2.3 L-37.3 -7.05 -41.25 -0.65 -38.6 3.0 -34.35 -2.3 M-1.2 7.25 L-8.1 1.3 -13.55 7.8 -9.45 12.15 -1.2 7.25 M-32.65 0.1 L-36.85 5.25 -34.75 7.6 -29.75 3.55 -32.65 0.1 M-22.05 0.4 L-24.8 3.05 -22.2 6.15 -22.5 6.5 -20.75 9.45 -17.0 7.05 -22.05 0.4 M-28.15 8.0 L-28.1 8.0 -28.15 8.05 -28.15 8.0 M-4.2 17.4 L-1.35 16.5 Q3.0 15.0 6.5 12.3 L3.65 10.15 3.3 10.55 0.5 8.3 -7.95 13.7 -4.2 17.4 M-100.0 38.5 L-99.6 38.4 -99.6 38.6 -100.0 38.5 M13.45 5.2 L12.1 4.45 11.45 4.5 7.05 1.35 2.05 7.2 8.2 10.85 13.45 5.2" fill="#000000" fill-rule="evenodd" stroke="none"/>
    <path d="M-114.9 -36.4 Q-104.35 -39.8 -99.3 -43.35 -90.35 -49.6 -80.05 -51.75 L-73.8 -52.65 -91.15 -43.85 -88.1 -46.4 -106.5 -36.1 -114.9 -36.4 M-81.6 -43.4 L-81.2 -43.45 -78.5 -43.55 -72.9 -46.95 -63.05 -51.8 Q-66.85 -49.15 -69.3 -45.3 L-81.1 -39.9 Q-82.0 -39.55 -82.65 -40.15 -83.55 -41.0 -83.3 -42.2 L-81.6 -43.4 M-66.35 -46.5 L-66.4 -46.5 -66.25 -46.6 -66.0 -46.85 Q-61.3 -49.2 -56.7 -51.7 -55.15 -52.55 -53.25 -52.7 L-60.2 -45.15 -58.6 -45.85 -58.55 -45.7 -55.8 -45.9 Q-54.2 -46.5 -52.65 -47.2 -46.85 -49.7 -40.4 -50.8 L-32.7 -51.5 -36.85 -47.8 Q-50.15 -45.7 -61.85 -39.15 L-63.7 -40.65 -62.1 -42.65 -65.75 -40.1 Q-68.95 -38.05 -72.0 -40.15 -69.15 -44.0 -65.3 -46.9 L-66.35 -46.5 M-45.25 -35.1 L-31.85 -34.95 Q-21.5 -34.7 -12.05 -30.75 L-2.8 -26.9 Q-10.05 -28.2 -17.25 -30.25 -30.4 -33.95 -44.05 -32.6 -45.0 -32.1 -45.9 -31.7 L-47.1 -31.5 -47.65 -32.2 -47.85 -32.8 Q-46.65 -34.1 -45.25 -35.1 M51.1 -12.7 L46.65 -13.95 Q49.4 -14.2 54.6 -18.55 62.05 -24.85 72.4 -30.95 86.3 -39.15 102.1 -35.15 L99.1 -34.15 90.95 -32.4 Q83.8 -30.7 77.35 -27.25 74.75 -25.9 72.3 -24.4 64.1 -19.2 57.85 -12.05 L57.25 -12.0 56.85 -15.65 51.1 -12.7 M78.2 -15.8 L90.95 -16.35 Q97.35 -15.75 103.35 -13.6 L96.85 -11.45 83.8 -9.95 Q81.5 -9.45 80.1 -11.25 L84.75 -13.15 75.95 -13.0 75.8 -14.6 78.2 -15.8 M82.4 -1.05 Q88.35 1.6 94.55 3.45 97.7 4.45 101.05 4.8 L96.85 6.75 96.8 6.75 Q87.2 5.25 78.55 0.7 L79.1 -0.25 82.4 -1.05 M82.25 13.1 Q86.7 16.25 91.8 18.5 L107.35 22.35 97.2 23.65 Q87.95 20.4 80.4 14.7 80.4 13.85 81.2 13.5 L82.25 13.1" fill="#aaaaaa" fill-rule="evenodd" stroke="none"/>
    <path d="M96.85 6.75 Q91.35 10.35 84.9 11.5 82.95 11.85 81.45 12.95 L82.25 13.1 81.2 13.5 Q80.4 13.85 80.4 14.7 87.95 20.4 97.2 23.65 L86.9 22.7 Q82.95 22.15 79.15 21.1 L76.65 20.4 Q75.4 20.0 74.3 19.4 69.35 16.55 64.2 13.95 59.7 11.65 55.15 10.3 L49.55 8.65 67.2 6.6 67.7 6.2 70.5 6.1 70.5 5.35 67.75 4.8 67.35 4.4 60.05 4.15 Q49.55 4.65 39.9 8.7 30.05 12.8 21.7 19.25 L10.45 28.45 Q1.25 35.1 -9.3 39.5 L-18.25 43.3 -22.55 44.6 -21.35 43.45 -21.55 41.75 -28.85 44.75 Q-27.45 43.75 -27.35 42.05 L-27.25 39.5 -33.0 43.3 Q-41.55 48.8 -51.45 48.75 -47.5 47.05 -44.4 44.15 L-43.0 42.9 Q-41.65 41.55 -40.8 39.65 L-41.8 38.85 Q-44.75 41.25 -48.15 43.1 -49.85 44.0 -52.0 44.4 L-66.85 45.9 Q-60.8 43.8 -57.1 38.65 L-57.5 38.05 -58.05 37.85 Q-62.0 40.4 -66.65 41.6 L-69.65 42.55 Q-76.75 44.6 -84.05 43.65 -77.3 41.75 -72.2 36.75 L-73.15 36.0 -81.95 38.45 Q-88.05 40.25 -94.3 40.3 -101.25 40.4 -108.2 40.1 L-114.9 40.8 -114.9 -14.7 -91.5 -27.25 Q-70.35 -16.05 -63.2 -7.75 -56.65 -1.4 -54.0 4.95 L-54.25 6.3 -54.9 10.75 Q-54.95 11.25 -54.6 11.35 L-53.95 11.15 -48.45 12.25 Q-47.5 12.5 -46.6 12.95 -45.4 13.35 -44.35 14.0 -40.3 16.35 -36.35 18.9 -29.65 23.05 -22.2 25.55 -15.95 27.55 -9.5 28.55 L2.15 28.55 4.5 27.45 Q11.2 23.95 17.1 19.1 23.0 14.15 29.4 9.75 37.8 3.9 47.1 -0.7 L47.45 -2.2 Q56.45 -1.75 64.8 0.8 74.75 3.2 80.45 6.9 86.7 11.65 96.8 6.75 L96.85 6.75 M-100.0 38.5 L-99.6 38.6 -99.6 38.4 -100.0 38.5" fill="#696969" fill-rule="evenodd" stroke="none"/>
    <path d="M9.6 -2.6 L7.8 -1.0 -5.5 -9.65 -4.5 -6.7 6.1 0.7 0.45 6.2 -6.7 -0.8 -3.85 -5.65 -7.75 -1.85 -15.35 -9.15 -15.3 -12.55 -16.8 -10.55 -18.0 -11.45 -17.75 -9.35 -22.5 -3.8 -26.75 -9.2 -26.5 -13.95 -28.2 -11.15 -31.7 -16.0 -28.85 -10.15 -31.95 -5.55 -35.9 -10.25 Q-35.4 -12.15 -35.35 -14.15 -35.3 -15.5 -36.25 -16.45 L-37.85 -12.6 -42.9 -18.7 Q-43.1 -13.5 -39.2 -9.85 L-43.15 -3.65 -51.15 -17.9 Q-48.9 -9.25 -44.6 -1.55 -47.9 3.05 -52.05 7.05 L-51.65 8.2 -51.75 8.7 Q-46.7 5.5 -42.7 1.15 L-39.8 4.4 -43.8 8.8 -43.8 11.95 -37.85 6.3 -35.6 8.5 -37.6 12.1 -34.3 10.3 -30.85 16.35 -30.2 16.1 -30.2 15.85 Q-30.8 12.0 -32.6 8.85 L-27.8 5.55 -23.55 11.2 -27.75 13.6 -27.95 14.5 -26.35 14.4 -22.35 13.4 Q-20.45 16.1 -17.95 18.3 L-16.7 17.4 Q-17.85 14.35 -19.5 11.55 L-15.3 8.95 -11.3 13.2 -15.9 15.05 -9.8 14.75 -6.25 19.25 -2.2 20.6 -2.65 19.2 Q3.25 17.1 8.35 13.45 L8.35 14.25 11.45 16.0 12.1 15.65 13.05 15.65 13.8 15.0 13.7 14.45 9.95 12.05 15.45 6.5 19.75 9.35 17.05 4.8 18.8 2.05 28.8 6.0 Q24.2 2.95 19.2 0.55 L19.2 -0.35 18.5 0.15 12.1 -2.7 17.4 1.25 15.1 3.55 8.4 -0.5 9.6 -2.6 M47.45 -2.2 L47.1 -0.7 Q37.8 3.9 29.4 9.75 23.0 14.15 17.1 19.1 11.2 23.95 4.5 27.45 L2.15 28.55 -9.5 28.55 Q-15.95 27.55 -22.2 25.55 -29.65 23.05 -36.35 18.9 -40.3 16.35 -44.35 14.0 -45.4 13.35 -46.6 12.95 -47.5 12.5 -48.45 12.25 L-53.95 11.15 -54.6 11.35 Q-54.95 11.25 -54.9 10.75 L-54.25 6.3 -54.0 4.95 Q-53.35 0.4 -53.55 -4.3 -54.05 -13.65 -56.75 -22.8 L-56.7 -22.9 -53.25 -18.5 -56.25 -22.75 -56.1 -24.4 -55.75 -24.85 -55.15 -25.05 Q-43.25 -25.9 -31.5 -23.5 L-22.05 -21.65 -8.1 -18.0 28.4 -5.95 Q34.45 -3.9 40.8 -3.65 44.4 -3.45 47.45 -2.2 M-34.35 -2.3 L-38.6 3.0 -41.25 -0.65 -37.3 -7.05 -34.35 -2.3 M-23.9 -2.25 L-26.75 0.7 -30.15 -3.4 -27.4 -7.75 -23.9 -2.25 M-9.45 -0.05 L-14.35 5.25 -20.45 -1.4 -16.45 -6.9 -9.45 -0.05 M-1.2 7.25 L-9.45 12.15 -13.55 7.8 -8.1 1.3 -1.2 7.25 M-4.2 17.4 L-7.95 13.7 0.5 8.3 3.3 10.55 3.65 10.15 6.5 12.3 Q3.0 15.0 -1.35 16.5 L-4.2 17.4 M-28.15 8.0 L-28.15 8.05 -28.1 8.0 -28.15 8.0 M-22.05 0.4 L-17.0 7.05 -20.75 9.45 -22.5 6.5 -22.2 6.15 -24.8 3.05 -22.05 0.4 M-32.65 0.1 L-29.75 3.55 -34.75 7.6 -36.85 5.25 -32.65 0.1 M13.45 5.2 L8.2 10.85 2.05 7.2 7.05 1.35 11.45 4.5 12.1 4.45 13.45 5.2" fill="#7b7b7b" fill-rule="evenodd" stroke="none"/>
    <path d="M-18.25 43.3 L-17.7 43.15 Q-18.8 45.05 -22.9 45.2 -26.0 45.35 -29.1 46.35 -46.1 51.85 -63.8 51.85 L-81.5 50.45 Q-88.55 49.4 -95.15 47.1 -97.2 46.4 -108.2 40.1 -101.25 40.4 -94.3 40.3 -88.05 40.25 -81.95 38.45 L-73.15 36.0 -72.2 36.75 Q-77.3 41.75 -84.05 43.65 -76.75 44.6 -69.65 42.55 L-66.65 41.6 Q-62.0 40.4 -58.05 37.85 L-57.5 38.05 -57.1 38.65 Q-60.8 43.8 -66.85 45.9 L-52.0 44.4 Q-49.85 44.0 -48.15 43.1 -44.75 41.25 -41.8 38.85 L-40.8 39.65 Q-41.65 41.55 -43.0 42.9 L-44.4 44.15 Q-47.5 47.05 -51.45 48.75 -41.55 48.8 -33.0 43.3 L-27.25 39.5 -27.35 42.05 Q-27.45 43.75 -28.85 44.75 L-21.55 41.75 -21.35 43.45 -22.55 44.6 -18.25 43.3" fill="#5f5f5f" fill-rule="evenodd" stroke="none"/>
    <path d="M-56.4 14.2 Q-56.35 13.9 -56.55 13.8 L-56.65 13.7 -56.75 13.55 -56.75 13.4 -56.45 12.65 -55.8 11.45 -55.15 10.95 Q-53.45 9.6 -51.4 9.35 -46.75 8.3 -44.15 11.5 -43.05 12.8 -42.7 14.55 -41.2 22.5 -48.55 26.75 -54.85 30.45 -60.35 26.0 -61.9 24.75 -61.55 22.7 -61.4 22.05 -60.85 21.65 -60.45 21.5 -60.25 21.9 L-58.5 24.95 -58.15 25.4 Q-49.3 27.15 -45.3 19.2 -44.0 16.6 -44.9 13.7 -45.35 12.2 -46.85 11.8 -52.4 10.35 -56.4 14.2" fill="#000000" fill-rule="evenodd" stroke="none"/>
    <path d="M-60.25 21.9 L-56.4 14.2 Q-52.4 10.35 -46.85 11.8 -45.35 12.2 -44.9 13.7 -44.0 16.6 -45.3 19.2 -49.3 27.15 -58.15 25.4 L-58.5 24.95 -60.25 21.9" fill="#aaaaaa" fill-rule="evenodd" stroke="none"/>
  </g>
</svg>
