<?xml version="1.0" encoding="UTF-8" standalone="no"?>
<svg xmlns:xlink="http://www.w3.org/1999/xlink" height="41.05px" width="33.0px" xmlns="http://www.w3.org/2000/svg">
  <g transform="matrix(1.0, 0.0, 0.0, 1.0, 16.5, 20.55)">
    <path d="M9.05 11.6 L9.05 11.65 9.75 10.7 11.5 7.85 12.9 4.25 Q13.7 1.45 13.8 -1.65 13.95 -8.2 10.05 -13.25 9.05 -14.55 7.75 -15.45 L6.5 -16.2 6.3 -16.3 6.1 -16.4 0.0 -17.7 -0.05 -17.7 -0.3 -17.7 Q-4.75 -16.95 -8.25 -14.1 L-8.45 -14.0 Q-13.8 -6.3 -13.9 3.05 -14.05 13.3 -4.35 16.55 1.9 18.65 6.7 14.15 L9.05 11.6 M0.25 -3.6 Q1.2 -2.2 1.2 -0.2 1.2 1.8 0.25 3.25 -0.75 4.65 -2.1 4.65 -3.45 4.65 -4.4 3.25 -5.4 1.8 -5.4 -0.2 -5.4 -2.2 -4.4 -3.6 -3.45 -5.05 -2.1 -5.05 -0.75 -5.05 0.25 -3.6 M16.45 -1.2 Q16.95 8.55 8.1 16.4 5.35 18.85 2.4 19.85 -1.7 21.2 -6.15 19.7 -13.85 17.15 -16.1 8.1 L-16.45 5.45 Q-16.7 1.45 -15.95 -2.2 -14.55 -9.2 -9.55 -14.95 L-9.35 -15.1 Q-7.75 -17.95 -4.75 -19.4 -2.55 -20.4 -0.2 -20.55 6.35 -20.4 10.45 -16.9 15.95 -11.0 16.45 -1.2" fill="#000000" fill-rule="evenodd" stroke="none"/>
    <path d="M-0.05 -17.7 L0.0 -17.7 6.1 -16.4 6.3 -16.3 6.5 -16.2 7.75 -15.45 Q9.05 -14.55 10.05 -13.25 13.95 -8.2 13.8 -1.65 13.7 1.45 12.9 4.25 L11.5 7.85 9.75 10.7 9.05 11.65 9.05 11.6 10.45 8.9 Q11.55 7.0 12.45 1.9 13.3 -3.25 11.55 -7.35 9.8 -11.5 7.25 -14.0 4.7 -16.55 -0.05 -17.7" fill="#ecbdb7" fill-rule="evenodd" stroke="none"/>
    <path d="M-0.05 -17.7 Q4.7 -16.55 7.25 -14.0 9.8 -11.5 11.55 -7.35 13.3 -3.25 12.45 1.9 11.55 7.0 10.45 8.9 L9.05 11.6 6.7 14.15 Q1.9 18.65 -4.35 16.55 -14.05 13.3 -13.9 3.05 -13.8 -6.3 -8.45 -14.0 L-8.25 -14.1 Q-4.75 -16.95 -0.3 -17.7 L-0.05 -17.7 M0.25 -3.6 Q-0.75 -5.05 -2.1 -5.05 -3.45 -5.05 -4.4 -3.6 -5.4 -2.2 -5.4 -0.2 -5.4 1.8 -4.4 3.25 -3.45 4.65 -2.1 4.65 -0.75 4.65 0.25 3.25 1.2 1.8 1.2 -0.2 1.2 -2.2 0.25 -3.6" fill="#ffffff" fill-rule="evenodd" stroke="none"/>
  </g>
</svg>
