<?xml version="1.0" encoding="UTF-8" standalone="no"?>
<svg xmlns:xlink="http://www.w3.org/1999/xlink" height="66.25px" width="21.25px" xmlns="http://www.w3.org/2000/svg">
  <g transform="matrix(1.0, 0.0, 0.0, 1.0, 10.75, 58.75)">
    <path d="M-7.0 -52.2 Q-5.2 -56.2 -2.1 -57.4 1.0 -58.6 3.5 -55.65 L4.5 -54.3 Q-0.8 -51.75 -6.9 -51.3 L-7.0 -52.2 M5.7 -37.0 L4.65 -33.3 Q3.05 -27.85 5.45 -22.85 L-0.55 -20.95 Q-6.35 -19.35 -8.7 -19.25 -6.4 -24.3 -6.2 -29.95 -6.1 -32.15 -6.6 -34.15 -1.55 -34.8 5.7 -37.0 M9.35 -5.0 Q8.65 -1.45 7.5 5.8 L7.5 6.5 -6.9 6.5 -8.95 -1.95 Q0.3 -2.65 8.9 -6.25 L9.35 -5.0" fill="#017e01" fill-rule="evenodd" stroke="none"/>
    <path d="M-7.0 -52.2 L-6.9 -51.3 Q-0.8 -51.75 4.5 -54.3 6.1 -51.6 6.5 -47.45 6.9 -42.6 5.7 -37.0 -1.55 -34.8 -6.6 -34.15 -7.95 -40.1 -8.15 -46.0 -8.3 -49.3 -7.0 -52.2 M5.45 -22.85 Q8.75 -18.85 9.25 -13.6 9.7 -9.35 9.35 -5.0 L8.9 -6.25 Q0.3 -2.65 -8.95 -1.95 -10.4 -8.95 -9.3 -16.0 L-8.7 -19.25 Q-6.35 -19.35 -0.55 -20.95 L5.45 -22.85" fill="#009900" fill-rule="evenodd" stroke="none"/>
    <path d="M4.5 -54.3 L3.5 -55.65 Q1.0 -58.6 -2.1 -57.4 -5.2 -56.2 -7.0 -52.2 -8.3 -49.3 -8.15 -46.0 -7.95 -40.1 -6.6 -34.15 -6.1 -32.15 -6.2 -29.95 -6.4 -24.3 -8.7 -19.25 L-9.3 -16.0 Q-10.4 -8.95 -8.95 -1.95 L-6.9 6.5 M4.5 -54.3 Q6.1 -51.6 6.5 -47.45 6.9 -42.6 5.7 -37.0 L4.65 -33.3 Q3.05 -27.85 5.45 -22.85 8.75 -18.85 9.25 -13.6 9.7 -9.35 9.35 -5.0 8.65 -1.45 7.5 5.8" fill="none" stroke="#000000" stroke-linecap="round" stroke-linejoin="round" stroke-width="2.0"/>
  </g>
</svg>
