<?xml version="1.0" encoding="UTF-8" standalone="no"?>
<svg xmlns:xlink="http://www.w3.org/1999/xlink" height="24.7px" width="34.0px" xmlns="http://www.w3.org/2000/svg">
  <g transform="matrix(1.0, 0.0, 0.0, 1.0, 16.65, 9.3)">
    <path d="M9.6 -2.55 L8.4 -3.1 Q4.0 -5.15 -0.8 -6.05 L-11.9 -6.95 -13.7 -0.9 -13.9 -0.4 Q-14.95 7.1 -10.15 12.8 L-8.4 12.95 Q-5.4 13.3 -2.4 13.05 4.15 12.55 10.35 11.0 12.3 8.15 13.3 5.0 L13.4 4.75 13.45 4.45 14.25 0.45 14.3 -0.2 13.75 -0.5 9.6 -2.55 M16.0 -2.1 Q16.85 -1.5 17.35 -0.55 L17.3 -0.1 17.0 0.5 16.4 0.9 16.25 0.85 Q16.3 6.6 12.85 11.8 12.15 12.9 11.15 13.15 9.4 14.3 6.85 14.7 -2.5 16.1 -11.65 14.65 -13.7 14.35 -14.35 12.7 L-13.4 12.7 Q-19.05 4.1 -14.9 -5.55 L-14.25 -6.8 -15.45 -6.7 -15.55 -6.85 -15.6 -7.0 -15.6 -7.15 -15.6 -7.3 -15.55 -7.45 -13.0 -8.55 -12.95 -8.65 -12.75 -8.75 -12.45 -8.85 -12.2 -8.8 -7.15 -9.3 Q5.0 -8.7 15.3 -2.6 L15.7 -2.5 15.95 -2.35 16.0 -2.1 M-5.2 0.05 Q-5.05 -3.35 -2.25 -4.6 2.0 -2.85 0.75 2.0 -0.1 5.3 -3.2 3.75 -5.25 2.7 -5.2 0.05" fill="#000000" fill-rule="evenodd" stroke="none"/>
    <path d="M13.3 5.0 Q12.3 8.15 10.35 11.0 4.15 12.55 -2.4 13.05 -5.4 13.3 -8.4 12.95 L-10.15 12.8 Q-14.95 7.1 -13.9 -0.4 L-13.7 -0.9 -11.9 -6.95 -0.8 -6.05 Q4.0 -5.15 8.4 -3.1 L9.6 -2.55 12.35 -0.15 13.25 0.35 13.15 2.15 Q12.95 3.65 13.3 5.0 M-5.2 0.05 Q-5.25 2.7 -3.2 3.75 -0.1 5.3 0.75 2.0 2.0 -2.85 -2.25 -4.6 -5.05 -3.35 -5.2 0.05" fill="#ffffff" fill-rule="evenodd" stroke="none"/>
    <path d="M13.3 5.0 Q12.95 3.65 13.15 2.15 L13.25 0.35 12.35 -0.15 9.6 -2.55 13.75 -0.5 14.3 -0.2 14.25 0.45 13.45 4.45 13.4 4.75 13.3 5.0 13.4 4.75 13.3 5.0" fill="#ecbdb7" fill-rule="evenodd" stroke="none"/>
  </g>
</svg>
