<?xml version="1.0" encoding="UTF-8" standalone="no"?>
<svg xmlns:xlink="http://www.w3.org/1999/xlink" height="8.9px" width="35.8px" xmlns="http://www.w3.org/2000/svg">
  <g transform="matrix(1.0, 0.0, 0.0, 1.0, 18.55, -0.75)">
    <path d="M17.25 4.55 L17.2 4.7 17.15 4.85 17.1 5.0 15.8 5.0 15.5 5.8 15.1 5.95 16.1 5.65 Q16.95 5.75 17.2 6.55 L17.25 6.65 Q15.2 8.9 11.55 9.2 -0.35 10.15 -12.1 9.15 -15.2 8.9 -17.3 7.25 L-17.3 6.95 -17.0 6.45 -15.85 6.6 Q-16.4 5.55 -16.35 3.9 L-16.25 3.25 -18.55 3.4 Q-15.4 0.75 -10.5 0.85 L-2.85 0.75 Q7.0 0.8 16.5 3.35 L16.8 3.45 16.9 3.6 17.1 3.9 17.15 4.05 17.2 4.2 17.25 4.4 17.25 4.55 M14.65 6.05 L15.1 5.95 14.65 6.05 M15.25 5.0 L15.8 5.0 15.25 5.0 M13.05 6.35 Q13.1 5.5 13.5 4.85 L8.25 4.0 Q5.1 3.3 1.85 3.15 L0.5 3.1 1.0 3.15 Q0.85 3.95 -0.35 5.05 -2.5 7.0 -3.9 4.7 -4.55 3.65 -4.6 3.0 L-14.0 3.15 Q-13.75 3.85 -13.65 4.7 L-13.65 5.15 Q-13.05 5.9 -12.9 6.8 L-12.85 6.9 Q-0.9 7.85 11.3 6.55 L13.05 6.35" fill="#000000" fill-rule="evenodd" stroke="none"/>
    <path d="M13.05 6.35 L11.3 6.55 Q-0.9 7.85 -12.85 6.9 L-12.9 6.8 Q-13.05 5.9 -13.65 5.15 L-13.65 4.7 Q-13.75 3.85 -14.0 3.15 L-4.6 3.0 Q-4.55 3.65 -3.9 4.7 -2.5 7.0 -0.35 5.05 0.85 3.95 1.0 3.15 L0.5 3.1 1.85 3.15 Q5.1 3.3 8.25 4.0 L13.5 4.85 Q13.1 5.5 13.05 6.35" fill="#ffffff" fill-rule="evenodd" stroke="none"/>
  </g>
</svg>
