<?xml version="1.0" encoding="UTF-8" standalone="no"?>
<svg xmlns:xlink="http://www.w3.org/1999/xlink" height="6.6px" width="36.0px" xmlns="http://www.w3.org/2000/svg">
  <g transform="matrix(1.0, 0.0, 0.0, 1.0, 18.95, -2.55)">
    <path d="M14.5 5.1 L16.8 5.75 17.05 6.05 17.0 6.2 16.7 6.65 16.45 6.8 Q3.6 4.0 -9.7 5.45 -12.65 6.05 -15.5 7.2 L-17.05 7.6 Q-18.2 7.8 -18.85 7.0 L-18.9 6.8 -18.95 6.65 -18.95 6.5 -18.95 6.35 -18.85 6.05 Q-17.65 5.25 -16.15 4.65 -10.8 2.35 -4.9 2.75 3.9 1.95 12.45 4.5 L14.5 5.1 M8.15 8.05 L-6.15 8.95 -7.55 9.15 -7.75 9.1 -7.8 9.1 -8.5 8.9 -8.6 8.8 -8.6 8.65 -7.8 8.2 -3.05 7.5 -1.35 7.4 8.2 7.95 8.15 8.05" fill="#000000" fill-rule="evenodd" stroke="none"/>
  </g>
</svg>
