<?xml version="1.0" encoding="UTF-8" standalone="no"?>
<svg xmlns:xlink="http://www.w3.org/1999/xlink" height="18.8px" width="34.75px" xmlns="http://www.w3.org/2000/svg">
  <g transform="matrix(1.0, 0.0, 0.0, 1.0, 17.5, 5.65)">
    <path d="M10.6 0.6 L10.15 0.45 10.2 0.45 9.45 0.2 Q5.35 -1.45 1.05 -2.3 L0.6 -2.4 Q1.2 -1.1 1.05 0.85 0.85 3.3 -1.55 3.55 -4.55 3.85 -5.0 1.0 -5.45 -1.55 -4.1 -3.1 L-12.9 -3.4 Q-15.05 3.55 -11.95 10.5 0.25 11.7 12.0 8.75 L13.25 5.3 13.4 4.75 13.95 2.05 13.95 1.85 14.0 1.5 10.6 0.6 M15.15 -0.4 L15.55 -0.25 15.85 -0.05 15.9 0.05 16.0 0.35 17.15 1.2 17.25 1.35 17.25 1.5 17.15 1.6 17.05 1.65 16.2 1.7 Q16.6 5.1 15.0 7.95 L15.6 7.75 15.6 7.8 16.05 7.65 16.2 7.65 16.35 7.75 Q16.75 8.85 16.1 9.6 15.45 10.3 13.8 10.65 3.85 12.7 -6.5 13.1 -10.95 13.3 -15.1 11.95 L-15.2 11.9 -16.1 11.15 -16.3 10.8 Q-16.3 10.05 -15.5 10.0 L-15.45 10.0 -15.0 10.1 Q-15.8 8.65 -16.05 6.8 -16.7 1.95 -15.85 -2.95 L-15.8 -2.95 -15.7 -3.25 -17.0 -3.15 -17.1 -3.15 -17.2 -3.2 -17.4 -3.5 -17.5 -3.9 -17.5 -4.05 -17.45 -4.25 -17.35 -4.45 -17.3 -4.5 -17.1 -4.65 -15.85 -5.15 -13.9 -5.55 -13.85 -5.55 Q-1.7 -6.2 9.9 -2.55 12.55 -1.7 14.85 -0.35 L15.1 -0.4 15.15 -0.4" fill="#000000" fill-rule="evenodd" stroke="none"/>
    <path d="M13.25 5.3 L12.0 8.75 Q0.25 11.7 -11.95 10.5 -15.05 3.55 -12.9 -3.4 L-4.1 -3.1 Q-5.45 -1.55 -5.0 1.0 -4.55 3.85 -1.55 3.55 0.85 3.3 1.05 0.85 1.2 -1.1 0.6 -2.4 L1.05 -2.3 Q5.35 -1.45 9.45 0.2 L10.2 0.45 10.15 0.45 10.6 0.6 Q11.65 1.75 13.25 2.45 L13.05 3.5 Q12.95 4.45 13.25 5.3" fill="#ffffff" fill-rule="evenodd" stroke="none"/>
    <path d="M13.25 5.3 Q12.95 4.45 13.05 3.5 L13.25 2.45 Q11.65 1.75 10.6 0.6 L14.0 1.5 13.95 1.85 13.95 2.05 13.4 4.75 13.25 5.3" fill="#ecbdb7" fill-rule="evenodd" stroke="none"/>
  </g>
</svg>
