<?xml version="1.0" encoding="UTF-8" standalone="no"?>
<svg xmlns:xlink="http://www.w3.org/1999/xlink" height="35.7px" width="33.25px" xmlns="http://www.w3.org/2000/svg">
  <g transform="matrix(1.0, 0.0, 0.0, 1.0, 16.3, 17.35)">
    <path d="M0.5 -3.95 Q1.45 -2.6 1.45 -0.65 1.45 1.3 0.5 2.7 -0.5 4.05 -1.9 4.05 -3.3 4.05 -4.25 2.7 -5.25 1.3 -5.25 -0.65 -5.25 -2.6 -4.25 -3.95 -3.3 -5.35 -1.9 -5.35 -0.5 -5.35 0.5 -3.95 M16.6 -6.8 L16.95 -5.85 16.0 -4.9 16.45 -2.75 16.45 -0.25 Q16.05 7.85 10.7 13.35 L13.05 12.25 13.45 12.35 13.7 12.5 13.95 12.8 14.1 13.25 Q11.8 16.2 7.7 17.05 -1.2 18.9 -10.05 18.1 -12.5 17.9 -13.75 16.35 L-10.45 16.35 Q-14.55 14.5 -15.55 9.65 -18.15 -2.5 -11.5 -13.05 -10.5 -14.65 -9.15 -15.75 L-11.05 -16.25 -11.25 -16.4 -11.2 -16.7 -11.0 -17.0 -10.85 -17.15 -6.95 -17.25 -6.9 -17.3 -6.7 -17.25 -4.9 -17.35 Q7.3 -16.2 15.55 -7.5 L15.6 -7.4 16.6 -6.8 M13.15 4.0 Q13.75 1.4 13.75 -1.4 L13.6 -4.45 13.4 -5.75 13.05 -6.2 11.8 -7.65 Q8.9 -10.65 5.1 -12.6 1.85 -14.3 -1.85 -14.6 L-6.8 -15.25 -9.2 -11.2 Q-16.05 -0.55 -11.5 10.95 -10.45 13.65 -8.5 15.85 L-8.6 16.3 0.45 15.8 6.35 14.8 6.35 14.65 Q11.6 10.1 13.15 4.0" fill="#000000" fill-rule="evenodd" stroke="none"/>
    <path d="M0.5 -3.95 Q-0.5 -5.35 -1.9 -5.35 -3.3 -5.35 -4.25 -3.95 -5.25 -2.6 -5.25 -0.65 -5.25 1.3 -4.25 2.7 -3.3 4.05 -1.9 4.05 -0.5 4.05 0.5 2.7 1.45 1.3 1.45 -0.65 1.45 -2.6 0.5 -3.95 M11.8 -7.65 L13.15 4.0 Q11.6 10.1 6.35 14.65 L6.35 14.8 0.45 15.8 -8.6 16.3 -8.5 15.85 Q-10.45 13.65 -11.5 10.95 -16.05 -0.55 -9.2 -11.2 L-6.8 -15.25 -1.85 -14.6 Q1.85 -14.3 5.1 -12.6 8.9 -10.65 11.8 -7.65" fill="#ffffff" fill-rule="evenodd" stroke="none"/>
    <path d="M11.8 -7.65 L13.05 -6.2 13.4 -5.75 13.6 -4.45 13.75 -1.4 Q13.75 1.4 13.15 4.0 L11.8 -7.65" fill="#ecbdb7" fill-rule="evenodd" stroke="none"/>
  </g>
</svg>
