<?xml version="1.0" encoding="UTF-8" standalone="no"?>
<svg xmlns:xlink="http://www.w3.org/1999/xlink" height="38.35px" width="46.35px" xmlns="http://www.w3.org/2000/svg">
  <g transform="matrix(1.0, 0.0, 0.0, 1.0, 34.75, 21.5)">
    <path d="M8.1 -13.8 Q-2.3 -21.6 -14.75 -17.3 -16.6 -16.65 -18.05 -15.3 -23.4 -10.2 -29.4 -6.1 L-30.95 -4.5 Q-32.65 -2.0 -32.55 0.9 -30.2 2.2 -28.5 4.15 L-28.75 1.6 -28.65 1.0 Q-28.9 0.45 -28.75 0.05 L-28.5 -0.05 Q-25.85 4.25 -24.75 9.3 -24.55 10.2 -23.9 10.9 -20.6 14.4 -15.35 13.4 L-8.7 12.25 Q-7.6 12.2 -6.55 11.6 -4.05 10.2 -2.05 8.35 L-4.2 8.35 Q-9.8 7.9 -13.25 4.25 L-13.1 4.2 Q-6.45 6.75 0.6 5.4 3.25 1.85 4.5 -2.85 2.3 -2.95 -0.25 -3.6 L-2.95 -4.45 -3.1 -4.6 Q-3.45 -5.0 -3.45 -5.5 -3.45 -6.15 -2.95 -6.55 0.7 -8.35 4.05 -10.75 L8.1 -13.8 M11.6 -13.55 Q9.6 -11.2 6.55 -9.3 L1.2 -5.85 Q4.9 -6.2 7.15 -4.1 7.5 -3.8 7.3 -3.25 5.85 1.65 3.15 5.95 L0.25 9.95 Q-2.2 12.9 -5.65 14.65 -7.6 15.6 -9.5 15.65 -11.7 16.65 -14.7 16.5 L-15.1 16.55 Q-23.6 18.1 -27.45 11.4 -28.05 10.4 -27.95 9.25 L-28.2 7.25 Q-30.45 5.45 -32.8 3.75 L-34.15 2.85 -34.35 2.65 Q-34.95 2.15 -34.6 1.5 -35.05 -3.75 -31.2 -7.65 -29.0 -9.9 -26.3 -11.55 -24.35 -12.75 -22.8 -14.45 -17.45 -20.25 -9.8 -21.4 2.8 -22.3 11.5 -13.65 L11.6 -13.55" fill="#000000" fill-rule="evenodd" stroke="none"/>
    <path d="M8.1 -13.8 L4.05 -10.75 Q0.7 -8.35 -2.95 -6.55 -3.45 -6.15 -3.45 -5.5 -3.45 -5.0 -3.1 -4.6 L-2.95 -4.45 -0.25 -3.6 Q2.3 -2.95 4.5 -2.85 3.25 1.85 0.6 5.4 -6.45 6.75 -13.1 4.2 L-13.25 4.25 Q-9.8 7.9 -4.2 8.35 L-2.05 8.35 Q-4.05 10.2 -6.55 11.6 -7.6 12.2 -8.7 12.25 L-15.35 13.4 Q-20.6 14.4 -23.9 10.9 -24.55 10.2 -24.75 9.3 -25.85 4.25 -28.5 -0.05 L-28.75 0.05 Q-28.9 0.45 -28.65 1.0 L-28.75 1.6 -28.5 4.15 Q-30.2 2.2 -32.55 0.9 -32.65 -2.0 -30.95 -4.5 L-29.4 -6.1 Q-23.4 -10.2 -18.05 -15.3 -16.6 -16.65 -14.75 -17.3 -2.3 -21.6 8.1 -13.8" fill="#cd7467" fill-rule="evenodd" stroke="none"/>
  </g>
</svg>
