<?xml version="1.0" encoding="UTF-8" standalone="no"?>
<svg xmlns:xlink="http://www.w3.org/1999/xlink" height="37.3px" width="32.3px" xmlns="http://www.w3.org/2000/svg">
  <g transform="matrix(1.0, 0.0, 0.0, 1.0, 35.25, 20.7)">
    <path d="M-20.35 -11.25 L-20.2 -11.35 -20.0 -11.0 Q-19.0 -10.35 -17.85 -9.85 L-15.15 -10.45 Q-16.6 -15.7 -20.3 -19.6 L-20.1 -19.9 -19.8 -20.2 -19.5 -20.2 Q-19.3 -20.5 -18.9 -20.55 L-17.6 -20.7 Q-14.75 -19.7 -12.1 -18.2 L-11.95 -18.1 Q-3.6 -11.5 -3.0 -0.7 -2.6 6.85 -6.3 13.05 -7.55 15.2 -9.85 16.15 -13.15 17.6 -15.85 14.6 -18.45 12.5 -19.75 9.75 L-20.9 8.75 Q-22.1 7.3 -23.65 6.35 -28.95 4.25 -34.25 2.45 L-35.1 2.35 Q-36.0 -3.15 -31.8 -7.25 -30.65 -8.4 -29.2 -8.9 L-20.55 -9.45 -20.4 -11.0 -20.5 -11.25 -20.4 -11.3 -20.35 -11.25 M-20.45 -6.95 L-28.95 -7.2 Q-30.8 -5.75 -32.2 -3.5 -33.6 -1.25 -33.05 0.15 L-26.4 2.4 Q-21.4 4.1 -20.7 5.3 -21.35 -1.7 -20.4 -6.45 L-20.45 -6.95 M-13.9 -15.15 Q-12.5 -12.5 -12.0 -9.6 L-12.1 -8.55 -12.0 -8.2 -12.05 -7.9 -12.35 -7.45 Q-15.85 -6.5 -18.45 -7.75 L-18.5 -7.75 -18.6 -7.5 Q-18.6 -2.35 -17.95 2.85 L-12.95 4.25 -13.0 4.3 Q-15.5 5.1 -17.7 4.75 L-17.3 7.4 Q-17.05 9.1 -16.0 10.6 -14.65 12.6 -12.45 13.6 -7.35 12.4 -6.6 6.8 -5.85 1.15 -6.85 -4.45 -8.4 -12.8 -14.95 -16.85 L-13.9 -15.15" fill="#000000" fill-rule="evenodd" stroke="none"/>
    <path d="M-13.9 -15.15 L-14.95 -16.85 Q-8.4 -12.8 -6.85 -4.45 -5.85 1.15 -6.6 6.8 -7.35 12.4 -12.45 13.6 -14.65 12.6 -16.0 10.6 -17.05 9.1 -17.3 7.4 L-17.7 4.75 Q-15.5 5.1 -13.0 4.3 L-12.95 4.25 -17.95 2.85 Q-18.6 -2.35 -18.6 -7.5 L-18.5 -7.75 -18.45 -7.75 Q-15.85 -6.5 -12.35 -7.45 L-12.05 -7.9 -12.0 -8.2 -12.1 -8.55 -12.0 -9.6 Q-12.5 -12.5 -13.9 -15.15 M-20.45 -6.95 L-20.4 -6.45 Q-21.35 -1.7 -20.7 5.3 -21.4 4.1 -26.4 2.4 L-33.05 0.15 Q-33.6 -1.25 -32.2 -3.5 -30.8 -5.75 -28.95 -7.2 L-20.45 -6.95" fill="#cd7467" fill-rule="evenodd" stroke="none"/>
  </g>
</svg>
