<?xml version="1.0" encoding="UTF-8" standalone="no"?>
<svg xmlns:xlink="http://www.w3.org/1999/xlink" height="66.55px" width="20.6px" xmlns="http://www.w3.org/2000/svg">
  <g transform="matrix(1.0, 0.0, 0.0, 1.0, 10.15, 59.05)">
    <path d="M-6.45 -38.15 Q-8.2 -46.8 -6.1 -55.35 L-5.45 -56.3 Q-1.7 -59.15 2.85 -57.3 5.65 -56.15 6.2 -53.25 7.35 -47.25 6.55 -41.25 -1.7 -38.8 -6.45 -38.15 M5.2 -26.8 L9.0 -15.55 Q9.75 -13.15 9.3 -10.4 -2.0 -6.7 -7.65 -6.05 L-8.15 -7.75 Q-10.35 -15.6 -7.6 -23.3 -2.3 -23.7 5.2 -26.8" fill="#009900" fill-rule="evenodd" stroke="none"/>
    <path d="M-6.45 -38.15 Q-1.7 -38.8 6.55 -41.25 L5.2 -26.8 Q-2.3 -23.7 -7.6 -23.3 -6.0 -26.05 -6.0 -32.45 -6.0 -34.1 -6.45 -38.15 M9.3 -10.4 L8.0 6.5 -7.55 6.5 Q-7.0 2.45 -7.0 -0.2 -7.0 -2.8 -7.65 -6.05 -2.0 -6.7 9.3 -10.4" fill="#017e01" fill-rule="evenodd" stroke="none"/>
    <path d="M6.55 -41.25 Q7.35 -47.25 6.2 -53.25 5.65 -56.15 2.85 -57.3 -1.7 -59.15 -5.45 -56.3 L-6.1 -55.35 Q-8.2 -46.8 -6.45 -38.15 -6.0 -34.1 -6.0 -32.45 -6.0 -26.05 -7.6 -23.3 -10.35 -15.6 -8.15 -7.75 L-7.65 -6.05 Q-7.0 -2.8 -7.0 -0.2 -7.0 2.45 -7.55 6.5 M6.55 -41.25 L5.2 -26.8 9.0 -15.55 Q9.75 -13.15 9.3 -10.4 L8.0 6.5" fill="none" stroke="#000000" stroke-linecap="round" stroke-linejoin="round" stroke-width="2.0"/>
  </g>
</svg>
