<?xml version="1.0" encoding="UTF-8" standalone="no"?>
<svg xmlns:xlink="http://www.w3.org/1999/xlink" height="36.3px" width="42.45px" xmlns="http://www.w3.org/2000/svg">
  <g transform="matrix(1.0, 0.0, 0.0, 1.0, 35.3, 19.65)">
    <path d="M4.15 -16.15 L3.4 -15.15 Q2.2 -13.6 0.3 -12.7 -7.5 -9.75 -15.95 -9.25 -22.6 -8.6 -30.3 -6.25 -33.65 -1.85 -32.15 1.45 -27.75 3.15 -23.05 3.2 L-18.1 3.25 Q-13.85 3.3 -9.95 5.25 -7.2 6.7 -5.15 9.2 L-1.1 14.15 0.95 10.8 2.1 8.1 1.15 7.5 Q-0.5 6.5 -1.4 5.15 L-1.45 4.7 -1.2 4.5 Q0.8 4.9 2.6 6.15 L3.95 -3.0 2.85 -4.2 1.85 -5.7 1.4 -6.65 1.5 -7.25 3.75 -8.75 Q4.8 -12.35 4.15 -16.15 M4.1 -19.6 L4.8 -19.65 5.85 -18.5 6.55 -17.2 7.05 -15.65 7.15 -14.85 Q7.2 -12.15 6.7 -9.5 6.25 -6.9 4.0 -5.9 L5.85 -4.75 Q6.15 -0.75 5.65 3.35 L4.95 7.55 4.1 10.4 2.8 12.95 1.05 15.3 -0.55 16.65 -2.55 16.55 -3.35 15.45 Q-4.85 12.3 -7.55 10.15 -10.95 7.3 -15.45 6.7 L-24.15 5.85 Q-28.35 5.55 -32.45 3.75 -33.75 3.15 -34.85 2.2 -35.75 0.75 -34.9 -1.85 -34.1 -4.45 -32.1 -7.0 -30.9 -8.4 -29.2 -9.0 L-29.05 -9.0 -24.1 -10.6 -18.9 -11.65 -11.75 -12.25 Q-8.3 -12.9 -4.95 -13.9 -2.0 -14.65 0.55 -16.2 2.6 -17.5 4.1 -19.6" fill="#000000" fill-rule="evenodd" stroke="none"/>
    <path d="M4.15 -16.15 Q4.8 -12.35 3.75 -8.75 L1.5 -7.25 1.4 -6.65 1.85 -5.7 2.85 -4.2 3.95 -3.0 2.6 6.15 Q0.8 4.9 -1.2 4.5 L-1.45 4.7 -1.4 5.15 Q-0.5 6.5 1.15 7.5 L2.1 8.1 0.95 10.8 -1.1 14.15 -5.15 9.2 Q-7.2 6.7 -9.95 5.25 -13.85 3.3 -18.1 3.25 L-23.05 3.2 Q-27.75 3.15 -32.15 1.45 -33.65 -1.85 -30.3 -6.25 -22.6 -8.6 -15.95 -9.25 -7.5 -9.75 0.3 -12.7 2.2 -13.6 3.4 -15.15 L4.15 -16.15" fill="#cd7467" fill-rule="evenodd" stroke="none"/>
  </g>
</svg>
