<?xml version="1.0" encoding="UTF-8" standalone="no"?>
<svg xmlns:xlink="http://www.w3.org/1999/xlink" height="29.05px" width="30.95px" xmlns="http://www.w3.org/2000/svg">
  <g transform="matrix(1.0, 0.0, 0.0, 1.0, -470.7, -39.75)">
    <path d="M498.1 56.35 L483.65 66.8 472.7 51.4 474.75 50.2 479.0 51.0 480.0 42.9 482.1 41.75 494.6 44.1 493.4 53.7 499.65 54.95 498.1 56.35 Z" fill="none" stroke="#000000" stroke-linecap="round" stroke-linejoin="round" stroke-width="4.0"/>
    <path d="M492.75 45.45 L491.65 55.25 498.1 56.35 483.65 66.8 472.7 51.4 478.8 52.7 479.0 51.0 480.0 42.9 492.75 45.45" fill="#ffef80" fill-rule="evenodd" stroke="none"/>
    <path d="M494.6 44.1 L492.75 45.45 480.0 42.9 482.1 41.75 494.6 44.1 M491.65 55.25 L496.55 54.35 499.65 54.95 498.1 56.35 491.65 55.25 M472.7 51.4 L474.75 50.2 479.0 51.0 478.8 52.7 472.7 51.4" fill="#fcb700" fill-rule="evenodd" stroke="none"/>
    <path d="M492.75 45.45 L494.6 44.1 493.4 53.7 491.65 55.25 493.4 53.7 496.55 54.35 491.65 55.25 492.75 45.45" fill="#cc6600" fill-rule="evenodd" stroke="none"/>
    <path d="M494.6 44.1 L492.75 45.45 491.65 55.25 493.4 53.7 M480.0 42.9 L492.75 45.45 M498.1 56.35 L491.65 55.25 M479.0 51.0 L480.0 42.9 M479.0 51.0 L478.8 52.7 472.7 51.4" fill="none" stroke="#000000" stroke-linecap="round" stroke-linejoin="round" stroke-width="1.0"/>
  </g>
</svg>
