<?xml version="1.0" encoding="UTF-8" standalone="no"?>
<svg xmlns:xlink="http://www.w3.org/1999/xlink" height="416.75px" width="692.75px" xmlns="http://www.w3.org/2000/svg">
  <g transform="matrix(1.0, 0.0, 0.0, 1.0, -16.1, -15.45)">
    <path d="M359.8 16.45 L362.0 16.45 362.0 431.2 359.8 431.2 359.8 16.45" fill="#663300" fill-rule="evenodd" stroke="none"/>
    <path d="M358.45 16.45 L359.8 16.45 359.8 431.2 358.45 431.2 358.45 16.45" fill="#383737" fill-rule="evenodd" stroke="none"/>
    <path d="M349.65 16.45 L358.45 16.45 358.45 431.2 349.65 431.2 349.65 16.45" fill="#d9b38c" fill-rule="evenodd" stroke="none"/>
    <path d="M362.0 16.45 L362.0 431.2 M359.8 431.2 L359.8 16.45" fill="none" stroke="#000000" stroke-linecap="round" stroke-linejoin="round" stroke-width="1.0"/>
    <path d="M358.45 16.45 L358.45 431.2" fill="none" stroke="#ffcc99" stroke-linecap="round" stroke-linejoin="round" stroke-width="1.5"/>
    <path d="M349.65 431.2 L349.65 16.45" fill="none" stroke="#000000" stroke-linecap="round" stroke-linejoin="round" stroke-width="2.0"/>
    <path d="M707.85 222.4 L707.85 231.2 358.25 231.2 358.25 231.25 358.25 231.35 358.2 231.45 358.05 231.5 357.85 231.45 357.8 231.35 357.8 231.2 17.1 231.2 17.1 222.4 707.85 222.4" fill="#d9b38c" fill-rule="evenodd" stroke="none"/>
    <path d="M707.85 221.05 L707.85 222.4 17.1 222.4 17.1 221.05 707.85 221.05" fill="#383737" fill-rule="evenodd" stroke="none"/>
    <path d="M707.85 218.85 L707.85 221.05 17.1 221.05 17.1 218.85 707.85 218.85" fill="#663300" fill-rule="evenodd" stroke="none"/>
    <path d="M707.85 231.2 L358.25 231.2 358.25 231.25 M357.8 231.2 L17.1 231.2" fill="none" stroke="#000000" stroke-linecap="round" stroke-linejoin="round" stroke-width="2.0"/>
    <path d="M17.1 222.4 L707.85 222.4" fill="none" stroke="#ffcc99" stroke-linecap="round" stroke-linejoin="round" stroke-width="1.5"/>
    <path d="M17.1 218.85 L707.85 218.85 M707.85 221.05 L17.1 221.05" fill="none" stroke="#000000" stroke-linecap="round" stroke-linejoin="round" stroke-width="1.0"/>
  </g>
</svg>
