<?xml version="1.0" encoding="UTF-8" standalone="no"?>
<svg xmlns:xlink="http://www.w3.org/1999/xlink" height="66.35px" width="20.35px" xmlns="http://www.w3.org/2000/svg">
  <g transform="matrix(1.0, 0.0, 0.0, 1.0, 9.85, 58.85)">
    <path d="M-7.35 -41.95 Q-9.25 -48.2 -7.3 -54.0 -6.6 -56.05 -4.5 -56.8 -1.3 -58.15 2.05 -57.75 5.55 -57.15 5.9 -53.6 6.3 -49.15 5.7 -44.95 -3.85 -42.4 -7.35 -41.95 M5.55 -30.9 L6.8 -28.1 Q10.05 -20.7 7.8 -13.1 -2.25 -10.6 -7.9 -9.95 -9.9 -17.75 -7.75 -25.6 L-7.35 -27.25 Q-5.3 -27.45 -0.1 -29.0 4.4 -30.4 5.55 -30.9 M8.35 0.85 L9.5 6.5 -8.0 6.5 -7.85 4.75 Q2.15 4.05 8.35 0.85" fill="#009900" fill-rule="evenodd" stroke="none"/>
    <path d="M-7.35 -41.95 Q-3.85 -42.4 5.7 -44.95 L5.0 -35.2 Q5.0 -33.15 5.55 -30.9 4.4 -30.4 -0.1 -29.0 -5.3 -27.45 -7.35 -27.25 -6.5 -31.0 -6.5 -34.2 -6.5 -37.25 -7.35 -41.95 M7.8 -13.1 Q7.5 -11.6 7.5 -10.7 7.5 -3.3 8.35 0.85 2.15 4.05 -7.85 4.75 -5.2 -1.7 -7.4 -8.25 L-7.9 -9.95 Q-2.25 -10.6 7.8 -13.1" fill="#017e01" fill-rule="evenodd" stroke="none"/>
    <path d="M5.7 -44.95 Q6.3 -49.15 5.9 -53.6 5.55 -57.15 2.05 -57.75 -1.3 -58.15 -4.5 -56.8 -6.6 -56.05 -7.3 -54.0 -9.25 -48.2 -7.35 -41.95 -6.5 -37.25 -6.5 -34.2 -6.5 -31.0 -7.35 -27.25 L-7.75 -25.6 Q-9.9 -17.75 -7.9 -9.95 L-7.4 -8.25 Q-5.2 -1.7 -7.85 4.75 L-8.0 6.5 M5.7 -44.95 L5.0 -35.2 Q5.0 -33.15 5.55 -30.9 L6.8 -28.1 Q10.05 -20.7 7.8 -13.1 7.5 -11.6 7.5 -10.7 7.5 -3.3 8.35 0.85 L9.5 6.5" fill="none" stroke="#000000" stroke-linecap="round" stroke-linejoin="round" stroke-width="2.0"/>
  </g>
</svg>
