<?xml version="1.0" encoding="UTF-8" standalone="no"?>
<svg xmlns:xlink="http://www.w3.org/1999/xlink" height="69.2px" width="22.05px" xmlns="http://www.w3.org/2000/svg">
  <g transform="matrix(1.0, 0.0, 0.0, 1.0, 11.05, 61.7)">
    <path d="M-7.85 -45.85 Q-9.2 -51.1 -7.45 -56.2 -6.2 -59.7 -2.55 -60.5 0.7 -61.3 3.45 -59.15 6.4 -56.9 5.8 -53.15 L5.2 -48.8 -7.85 -45.85 M4.75 -34.6 Q5.6 -31.15 7.3 -28.0 10.2 -22.6 7.9 -16.95 L6.5 -17.3 Q0.8 -15.05 -7.05 -14.0 L-7.0 -13.75 Q-9.8 -21.95 -7.35 -30.1 L-7.1 -31.2 Q-5.15 -31.45 -0.35 -32.9 L4.75 -34.6 M9.2 -3.65 L10.0 6.5 -10.05 6.5 Q-7.2 2.8 -6.5 0.65 3.3 -0.25 9.2 -3.65" fill="#009900" fill-rule="evenodd" stroke="none"/>
    <path d="M5.2 -48.8 Q4.5 -41.7 4.5 -37.95 4.5 -36.15 4.75 -34.6 L-0.35 -32.9 Q-5.15 -31.45 -7.1 -31.2 -5.8 -37.55 -7.45 -43.9 L-7.85 -45.85 5.2 -48.8 M7.9 -16.95 Q7.15 -11.45 8.65 -5.85 L9.2 -3.65 Q3.3 -0.25 -6.5 0.65 -5.5 -2.3 -5.5 -5.95 -5.5 -9.85 -7.0 -13.75 L-7.05 -14.0 Q0.8 -15.05 6.5 -17.3 L7.9 -16.95" fill="#017e01" fill-rule="evenodd" stroke="none"/>
    <path d="M-7.85 -45.85 Q-9.2 -51.1 -7.45 -56.2 -6.2 -59.7 -2.55 -60.5 0.7 -61.3 3.45 -59.15 6.4 -56.9 5.8 -53.15 L5.2 -48.8 Q4.5 -41.7 4.5 -37.95 4.5 -36.15 4.75 -34.6 5.6 -31.15 7.3 -28.0 10.2 -22.6 7.9 -16.95 7.15 -11.45 8.65 -5.85 L9.2 -3.65 10.0 6.5 M-10.05 6.5 Q-7.2 2.8 -6.5 0.65 -5.5 -2.3 -5.5 -5.95 -5.5 -9.85 -7.0 -13.75 -9.8 -21.95 -7.35 -30.1 L-7.1 -31.2 Q-5.8 -37.55 -7.45 -43.9 L-7.85 -45.85 Z" fill="none" stroke="#000000" stroke-linecap="round" stroke-linejoin="round" stroke-width="2.0"/>
  </g>
</svg>
