<?xml version="1.0" encoding="UTF-8" standalone="no"?>
<svg xmlns:xlink="http://www.w3.org/1999/xlink" height="13.3px" width="82.35px" xmlns="http://www.w3.org/2000/svg">
  <g transform="matrix(1.0, 0.0, 0.0, 1.0, 41.15, 6.65)">
    <path d="M14.7 -5.45 Q14.3 -3.85 14.35 -2.1 L14.75 -1.8 15.8 -1.65 16.25 -1.85 16.5 -2.25 16.65 -3.3 Q17.3 -3.55 17.35 -4.0 L17.6 -5.25 28.65 -4.0 Q38.95 -2.35 40.25 -0.1 L40.45 0.45 40.45 5.9 40.25 5.9 Q38.95 3.65 28.65 2.0 L16.75 0.65 17.2 0.7 0.05 0.1 Q-16.75 0.1 -28.6 2.0 L-31.0 2.45 Q-30.8 0.4 -31.5 -1.6 L-31.75 -1.7 -32.15 -1.75 -32.45 -1.75 -32.7 -1.65 -33.0 -1.45 -33.05 -1.4 Q-33.55 0.75 -34.35 2.8 L-34.45 3.2 Q-39.35 4.4 -40.2 5.9 L-40.4 5.9 -40.4 0.45 -40.2 -0.1 Q-38.95 -2.35 -28.6 -4.0 L-11.5 -5.65 Q-11.7 -3.7 -11.3 -1.7 -10.95 -1.3 -10.2 -1.5 -8.75 -3.5 -8.3 -5.75 L0.05 -5.9 14.7 -5.45 M16.75 0.65 L21.2 -0.75 Q21.7 -2.6 19.8 -3.5 L19.2 -3.4 18.45 -2.85 16.75 0.65" fill="#edfefd" fill-rule="evenodd" stroke="none"/>
    <path d="M17.6 -5.25 L17.35 -4.0 Q17.3 -3.55 16.65 -3.3 L16.5 -2.25 16.25 -1.85 15.8 -1.65 14.75 -1.8 14.35 -2.1 Q14.3 -3.85 14.7 -5.45 L17.6 -5.25 M-8.3 -5.75 Q-8.75 -3.5 -10.2 -1.5 -10.95 -1.3 -11.3 -1.7 -11.7 -3.7 -11.5 -5.65 L-8.3 -5.75 M-34.45 3.2 L-34.35 2.8 Q-33.55 0.75 -33.05 -1.4 L-33.0 -1.45 -32.7 -1.65 -32.45 -1.75 -32.15 -1.75 -31.75 -1.7 -31.5 -1.6 Q-30.8 0.4 -31.0 2.45 L-34.45 3.2 M16.75 0.65 L18.45 -2.85 19.2 -3.4 19.8 -3.5 Q21.7 -2.6 21.2 -0.75 L16.75 0.65" fill="#ccffff" fill-rule="evenodd" stroke="none"/>
    <path d="M14.7 -5.45 L0.05 -5.9 -8.3 -5.75 -11.5 -5.65 -28.6 -4.0 Q-38.95 -2.35 -40.2 -0.1 L-40.4 0.45 M-40.2 5.9 Q-39.35 4.4 -34.45 3.2 L-31.0 2.45 -28.6 2.0 Q-16.75 0.1 0.05 0.1 L17.2 0.7 M16.75 0.65 L28.65 2.0 Q38.95 3.65 40.25 5.9 M40.45 0.45 L40.25 -0.1 Q38.95 -2.35 28.65 -4.0 L17.6 -5.25 14.7 -5.45 Z" fill="none" stroke="#000000" stroke-linecap="round" stroke-linejoin="round" stroke-width="1.5"/>
  </g>
</svg>
