<?xml version="1.0" encoding="UTF-8" standalone="no"?>
<svg xmlns:xlink="http://www.w3.org/1999/xlink" height="98.75px" width="14.9px" xmlns="http://www.w3.org/2000/svg">
  <g transform="matrix(1.0, 0.0, 0.0, 1.0, 7.45, 49.35)">
    <path d="M1.05 -25.35 Q1.65 -19.45 1.05 -13.65 L0.95 -12.7 0.9 -11.45 1.8 -10.5 Q2.9 -9.55 3.8 -8.05 L6.25 -4.2 5.9 -3.75 5.55 -3.65 Q2.8 -5.15 0.85 -7.25 L1.25 -7.8 0.6 -7.0 0.2 -6.55 0.0 -5.9 -0.5 -3.55 -0.2 -2.0 -0.1 -2.0 3.85 1.1 Q5.4 2.45 6.45 3.85 4.15 3.55 1.65 2.3 1.4 3.2 -0.1 4.2 L-0.25 4.7 -0.3 4.85 Q2.55 9.45 3.9 14.45 L6.0 17.3 6.05 17.45 7.45 19.45 7.4 19.95 7.15 20.15 6.5 20.2 5.9 19.35 5.5 18.85 Q4.0 18.0 2.75 17.0 -0.1 20.5 1.15 24.9 L1.2 25.45 1.2 25.1 Q2.75 26.25 4.0 27.7 L4.05 27.85 Q2.25 27.35 0.75 26.4 L0.3 27.85 Q1.9 30.45 -0.4 33.4 L-0.3 33.35 Q-0.1 33.4 0.05 33.5 L0.3 33.65 Q2.3 38.6 5.55 42.8 L5.7 43.1 5.45 43.55 5.15 43.9 Q3.55 43.05 2.25 41.9 2.25 43.65 1.6 45.55 L0.85 47.5 Q-0.55 51.0 -2.95 48.1 -3.65 47.25 -3.5 46.1 -2.9 41.4 -1.15 37.0 -4.55 33.75 -1.45 29.95 -3.95 27.8 -1.65 24.7 -3.15 23.7 -3.55 22.3 L-7.0 24.9 -7.35 24.55 -7.45 24.05 -2.8 17.6 -1.0 14.1 -2.95 6.0 Q-4.75 7.25 -6.25 8.75 L-6.8 8.95 -7.0 8.55 -7.1 8.25 -1.9 0.8 -1.9 0.5 -1.85 0.75 Q-2.2 -0.5 -2.0 -1.8 L-1.95 -2.3 -2.5 -2.8 -2.5 -3.95 -5.2 -1.95 -5.5 -2.3 -5.6 -2.6 Q-3.5 -6.8 -2.15 -11.15 -1.85 -11.95 -1.05 -12.1 -0.95 -12.7 -1.1 -13.3 -1.6 -15.35 -1.7 -17.45 -2.85 -18.15 -2.75 -20.2 -2.7 -21.45 -3.1 -22.7 -3.9 -25.0 -3.7 -26.5 L-1.75 -24.1 -3.15 -31.45 Q-3.7 -34.4 -2.95 -37.05 L-2.05 -38.95 Q-0.3 -43.75 -1.5 -48.95 -1.6 -49.35 -1.15 -49.35 1.75 -44.8 -0.05 -40.05 1.95 -38.25 1.95 -35.05 2.0 -34.15 2.2 -33.2 L2.4 -31.35 3.05 -29.95 Q3.25 -29.65 3.05 -29.3 L2.8 -29.2 2.25 -29.2 Q1.15 -30.85 0.4 -32.6 L1.05 -25.35" fill="#33ffff" fill-rule="evenodd" stroke="none"/>
    <path d="M1.05 -25.35 Q1.65 -19.45 1.05 -13.65 L0.95 -12.7 0.9 -11.45 1.8 -10.5 Q2.9 -9.55 3.8 -8.05 L6.25 -4.2 5.9 -3.75 5.55 -3.65 Q2.8 -5.15 0.85 -7.25 L1.25 -7.8 0.6 -7.0 0.2 -6.55 0.0 -5.9 -0.5 -3.55 -0.2 -2.0 -0.1 -2.0 3.85 1.1 Q5.4 2.45 6.45 3.85 4.15 3.55 1.65 2.3 1.4 3.2 -0.1 4.2 L-0.25 4.7 -0.3 4.85 Q2.55 9.45 3.9 14.45 L6.0 17.3 6.05 17.45 7.45 19.45 7.4 19.95 7.15 20.15 6.5 20.2 5.9 19.35 5.5 18.85 Q4.0 18.0 2.75 17.0 -0.1 20.5 1.15 24.9 L1.2 25.45 1.2 25.1 Q2.75 26.25 4.0 27.7 L4.05 27.85 Q2.25 27.35 0.75 26.4 L0.3 27.85 Q1.9 30.45 -0.4 33.4 L-0.3 33.35 Q-0.1 33.4 0.05 33.5 L0.3 33.65 Q2.3 38.6 5.55 42.8 L5.7 43.1 5.45 43.55 5.15 43.9 Q3.55 43.05 2.25 41.9 2.25 43.65 1.6 45.55 L0.85 47.5 Q-0.55 51.0 -2.95 48.1 -3.65 47.25 -3.5 46.1 -2.9 41.4 -1.15 37.0 -4.55 33.75 -1.45 29.95 -3.95 27.8 -1.65 24.7 -3.15 23.7 -3.55 22.3 L-7.0 24.9 -7.35 24.55 -7.45 24.05 -2.8 17.6 -1.0 14.1 -2.95 6.0 Q-4.75 7.25 -6.25 8.75 L-6.8 8.95 -7.0 8.55 -7.1 8.25 -1.9 0.8 -1.9 0.5 -1.85 0.75 Q-2.2 -0.5 -2.0 -1.8 L-1.95 -2.3 -2.5 -2.8 -2.5 -3.95 -5.2 -1.95 -5.5 -2.3 -5.6 -2.6 Q-3.5 -6.8 -2.15 -11.15 -1.85 -11.95 -1.05 -12.1 -0.95 -12.7 -1.1 -13.3 -1.6 -15.35 -1.7 -17.45 -2.85 -18.15 -2.75 -20.2 -2.7 -21.45 -3.1 -22.7 -3.9 -25.0 -3.7 -26.5 L-1.75 -24.1 -3.15 -31.45 Q-3.7 -34.4 -2.95 -37.05 L-2.05 -38.95 Q-0.3 -43.75 -1.5 -48.95 -1.6 -49.35 -1.15 -49.35 1.75 -44.8 -0.05 -40.05 1.95 -38.25 1.95 -35.05 2.0 -34.15 2.2 -33.2 L2.4 -31.35 3.05 -29.95 Q3.25 -29.65 3.05 -29.3 L2.8 -29.2 2.25 -29.2 Q1.15 -30.85 0.4 -32.6 L1.05 -25.35 Z" fill="none" stroke="#0066cc" stroke-linecap="round" stroke-linejoin="round" stroke-width="0.05"/>
  </g>
</svg>
