<?xml version="1.0" encoding="UTF-8" standalone="no"?>
<svg xmlns:xlink="http://www.w3.org/1999/xlink" height="100.1px" width="23.55px" xmlns="http://www.w3.org/2000/svg">
  <g transform="matrix(1.0, 0.0, 0.0, 1.0, 10.8, 49.8)">
    <path d="M1.25 -49.1 L0.95 -43.1 4.75 -43.25 5.25 -42.15 2.7 -40.15 9.3 -36.7 8.8 -35.85 1.35 -37.15 0.75 -32.9 1.4 -32.7 2.05 -31.85 1.85 -30.75 6.05 -28.35 -1.0 -23.35 7.6 -23.35 8.05 -22.3 1.7 -19.05 1.45 -17.5 2.65 -16.2 1.2 -12.5 2.2 -12.2 2.8 -11.1 -1.95 -6.8 7.35 -6.25 1.85 -1.8 2.85 0.15 0.9 2.75 1.05 3.45 -0.05 5.1 0.85 5.3 2.0 4.65 2.9 4.75 3.85 7.5 2.65 8.65 4.45 17.1 1.9 19.7 4.9 20.5 0.1 22.25 0.25 24.85 12.75 31.7 1.1 34.75 0.15 37.8 1.9 38.95 -3.5 38.95 0.0 50.3 -10.8 39.05 -3.85 35.5 -7.35 32.4 1.05 27.25 -4.95 25.4 -3.25 19.25 0.6 13.35 -7.9 16.8 -8.2 15.05 -5.3 12.9 -5.95 10.25 1.2 6.55 -3.25 6.0 -4.05 2.55 -3.25 1.45 -4.7 -2.05 -8.4 -2.8 -8.5 -2.9 -4.5 -9.0 -4.65 -10.75 -1.05 -14.7 -3.65 -19.3 -6.95 -20.15 -2.65 -25.5 -4.45 -27.25 -9.65 -24.8 -2.15 -36.4 -9.15 -36.7 -3.1 -40.15 -3.45 -41.05 -9.45 -44.55 -3.7 -42.75 -0.95 -49.5 0.0 -49.8 1.25 -49.1" fill="#33ffff" fill-rule="evenodd" stroke="none"/>
    <path d="M1.25 -49.1 L0.0 -49.8 -0.95 -49.5 -3.7 -42.75 -9.45 -44.55 -3.45 -41.05 -3.1 -40.15 -9.15 -36.7 -2.15 -36.4 -9.65 -24.8 -4.45 -27.25 -2.65 -25.5 -6.95 -20.15 -3.65 -19.3 -1.05 -14.7 -4.65 -10.75 -4.5 -9.0 -8.5 -2.9 -8.4 -2.8 -4.7 -2.05 -3.25 1.45 -4.05 2.55 -3.25 6.0 1.2 6.55 -5.95 10.25 -5.3 12.9 -8.2 15.05 -7.9 16.8 0.6 13.35 -3.25 19.25 -4.95 25.4 1.05 27.25 -7.35 32.4 -3.85 35.5 -10.8 39.05 0.0 50.3 -3.5 38.95 1.9 38.95 0.15 37.8 1.1 34.75 12.75 31.7 0.25 24.85 0.1 22.25 4.9 20.5 1.9 19.7 4.45 17.1 2.65 8.65 3.85 7.5 2.9 4.75 2.0 4.65 0.85 5.3 -0.05 5.1 1.05 3.45 0.9 2.75 2.85 0.15 1.85 -1.8 7.35 -6.25 -1.95 -6.8 2.8 -11.1 2.2 -12.2 1.2 -12.5 2.65 -16.2 1.45 -17.5 1.7 -19.05 8.05 -22.3 7.6 -23.35 -1.0 -23.35 6.05 -28.35 1.85 -30.75 2.05 -31.85 1.4 -32.7 0.75 -32.9 1.35 -37.15 8.8 -35.85 9.3 -36.7 2.7 -40.15 5.25 -42.15 4.75 -43.25 0.95 -43.1 1.25 -49.1 M-8.4 -2.8 L-8.2 -2.45" fill="none" stroke="#0066cc" stroke-linecap="round" stroke-linejoin="round" stroke-width="0.05"/>
  </g>
</svg>
