<?xml version="1.0" encoding="UTF-8" standalone="no"?>
<svg xmlns:xlink="http://www.w3.org/1999/xlink" height="97.85px" width="17.45px" xmlns="http://www.w3.org/2000/svg">
  <g transform="matrix(1.0, 0.0, 0.0, 1.0, 9.15, 46.95)">
    <path d="M4.1 -37.15 L0.8 -35.4 3.3 -19.15 -0.8 -18.65 4.35 -10.25 4.1 -9.5 5.9 -7.35 5.45 -6.6 0.4 -5.45 4.0 -3.5 -1.15 0.45 2.65 1.7 3.2 1.45 3.3 2.05 4.5 2.7 -3.2 11.45 8.15 6.7 8.3 7.95 -0.4 12.1 1.9 13.1 -0.05 16.35 1.25 17.0 -0.15 22.05 7.3 23.05 7.7 24.8 2.85 26.1 0.95 30.9 4.75 33.0 -0.4 37.35 1.45 37.6 2.1 38.4 -0.7 41.65 0.4 41.95 -0.45 50.9 -1.45 50.75 -2.3 49.0 -3.1 48.15 -2.45 44.85 -4.5 44.05 -3.25 40.35 2.0 33.25 -2.55 32.7 -2.8 31.85 -3.55 30.75 -2.45 27.8 -2.95 27.25 -2.95 25.95 -1.85 25.1 -2.95 24.65 -2.6 19.95 -3.9 19.0 -2.1 14.6 -7.55 14.2 -0.35 4.75 -9.15 5.95 -7.85 5.0 -0.2 2.8 -4.35 1.05 0.25 -2.55 -5.3 -5.6 0.55 -8.05 -3.55 -12.35 -2.75 -13.35 -0.2 -12.5 0.65 -12.8 -4.5 -20.65 -3.4 -21.45 0.45 -21.3 -0.7 -33.05 -1.8 -33.95 0.15 -37.7 -2.25 -39.25 -2.45 -40.9 1.1 -43.85 -0.7 -46.95 4.65 -41.3 1.45 -39.75 4.1 -37.15" fill="#33ffff" fill-rule="evenodd" stroke="none"/>
    <path d="M4.1 -37.15 L1.45 -39.75 4.65 -41.3 -0.7 -46.95 1.1 -43.85 -2.45 -40.9 -2.25 -39.25 0.15 -37.7 -1.8 -33.95 -0.7 -33.05 0.45 -21.3 -3.4 -21.45 -4.5 -20.65 0.65 -12.8 -0.2 -12.5 -2.75 -13.35 -3.55 -12.35 0.55 -8.05 -5.3 -5.6 0.25 -2.55 -4.35 1.05 -0.2 2.8 -7.85 5.0 -9.15 5.95 -0.35 4.75 -7.55 14.2 -2.1 14.6 -3.9 19.0 -2.6 19.95 -2.95 24.65 -1.85 25.1 -2.95 25.95 -2.95 27.25 -2.45 27.8 -3.55 30.75 -2.8 31.85 -2.55 32.7 2.0 33.25 -3.25 40.35 -4.5 44.05 -2.45 44.85 -3.1 48.15 -2.3 49.0 -1.45 50.75 -0.45 50.9 0.4 41.95 -0.7 41.65 2.1 38.4 1.45 37.6 -0.4 37.35 4.75 33.0 0.95 30.9 2.85 26.1 7.7 24.8 7.3 23.05 -0.15 22.05 1.25 17.0 -0.05 16.35 1.9 13.1 -0.4 12.1 8.3 7.95 8.15 6.7 -3.2 11.45 4.5 2.7 3.3 2.05 3.2 1.45 2.65 1.7 -1.15 0.45 4.0 -3.5 0.4 -5.45 5.45 -6.6 5.9 -7.35 4.1 -9.5 4.35 -10.25 -0.8 -18.65 3.3 -19.15 0.8 -35.4 4.1 -37.15 Z" fill="none" stroke="#0066cc" stroke-linecap="round" stroke-linejoin="round" stroke-width="0.05"/>
  </g>
</svg>
