<?xml version="1.0" encoding="UTF-8" standalone="no"?>
<svg xmlns:xlink="http://www.w3.org/1999/xlink" height="36.9px" width="12.25px" xmlns="http://www.w3.org/2000/svg">
  <g transform="matrix(1.0, 0.0, 0.0, 1.0, 6.1, 0.0)">
    <path d="M1.55 1.15 Q1.55 1.95 1.15 2.4 L3.95 7.65 Q5.0 9.8 5.55 12.1 L5.6 12.25 5.85 13.5 5.85 13.6 6.15 16.05 6.15 16.5 3.4 27.75 2.05 31.85 0.7 35.9 1.1 36.7 0.9 36.9 Q0.05 36.9 -0.85 35.05 L-4.0 27.35 -4.2 26.6 -4.2 26.55 -5.6 22.35 -5.85 21.15 -6.1 18.6 -6.1 18.45 -5.65 13.75 Q-5.2 11.1 -4.45 9.6 L-0.65 3.05 Q-1.3 3.05 -1.35 1.7 -1.35 0.0 0.15 0.0 1.35 0.0 1.55 1.15 M2.05 6.1 L0.4 2.8 0.45 2.8 0.3 2.55 0.95 1.5 Q0.95 0.75 0.1 0.75 -0.55 0.75 -0.7 1.7 L-0.3 2.5 -0.2 2.3 -0.1 2.3 0.2 2.75 -0.2 4.05 -0.2 4.1 -2.1 7.45 -2.15 7.5 -2.25 7.65 -2.25 7.7 -2.5 8.05 Q-4.25 10.85 -4.85 13.9 L-5.05 15.05 -5.2 17.15 -5.0 19.85 -4.75 21.25 -4.2 23.4 -4.2 23.45 -4.05 23.95 -4.0 24.2 -3.1 26.9 -0.55 33.1 0.05 34.5 1.1 31.4 3.45 24.2 3.55 23.95 3.55 23.85 4.35 21.1 4.35 21.0 4.7 19.55 5.0 15.45 4.95 14.85 4.3 11.5 3.55 9.4 3.0 8.15 3.0 8.05 2.7 7.45 2.7 7.4 2.15 6.3 2.05 6.1" fill="#000000" fill-rule="evenodd" stroke="none"/>
    <path d="M3.55 9.4 L4.3 11.5 4.95 14.85 5.0 15.45 Q4.0 17.05 2.3 18.45 L2.0 18.7 2.1 12.15 Q3.05 11.05 3.55 9.4 M-0.55 33.1 L-3.1 26.9 -1.8 26.75 -2.3 20.95 Q-0.1 20.35 2.0 18.7 L1.65 25.55 Q0.05 26.45 -1.8 26.75 -1.4 30.0 -0.55 33.1" fill="#ffff99" fill-rule="evenodd" stroke="none"/>
    <path d="M2.15 6.3 L2.7 7.4 2.7 7.45 3.0 8.05 3.0 8.15 3.55 9.4 Q3.05 11.05 2.1 12.15 L2.0 18.7 2.3 18.45 Q4.0 17.05 5.0 15.45 L4.7 19.55 4.35 21.0 4.35 21.1 3.55 23.85 3.55 23.95 3.45 24.2 1.65 25.55 1.1 31.4 0.05 34.5 -0.55 33.1 Q-1.4 30.0 -1.8 26.75 0.05 26.45 1.65 25.55 L2.0 18.7 Q-0.1 20.35 -2.3 20.95 L-1.8 26.75 -3.1 26.9 -4.0 24.2 -4.05 23.95 -4.2 23.45 -4.2 23.4 -4.75 21.25 -2.3 20.95 -2.05 14.0 Q0.6 13.8 2.1 12.15 L2.05 6.3 2.15 6.3" fill="#f4fb00" fill-rule="evenodd" stroke="none"/>
    <path d="M-4.85 13.9 L-2.05 14.0 -1.25 7.45 Q0.75 7.4 2.05 6.1 L2.05 6.3 2.1 12.15 Q0.6 13.8 -2.05 14.0 L-2.3 20.95 -4.75 21.25 -5.0 19.85 -5.2 17.15 -5.05 15.05 -4.85 13.9 M3.45 24.2 L1.1 31.4 1.65 25.55 3.45 24.2" fill="#caed00" fill-rule="evenodd" stroke="none"/>
    <path d="M-4.85 13.9 Q-4.25 10.85 -2.5 8.05 L-2.25 7.7 -2.25 7.65 -2.15 7.5 -2.1 7.45 -0.2 4.1 -0.2 4.05 0.2 2.75 -0.1 2.3 -0.2 2.3 -0.3 2.5 -0.7 1.7 Q-0.55 0.75 0.1 0.75 0.95 0.75 0.95 1.5 L0.3 2.55 0.45 2.8 0.4 2.8 2.05 6.1 Q0.75 7.4 -1.25 7.45 L-2.05 14.0 -4.85 13.9 M2.05 6.1 L2.15 6.3 2.05 6.3 2.05 6.1" fill="#85d600" fill-rule="evenodd" stroke="none"/>
  </g>
</svg>
