<?xml version="1.0" encoding="UTF-8" standalone="no"?>
<svg xmlns:xlink="http://www.w3.org/1999/xlink" height="37.85px" width="19.2px" xmlns="http://www.w3.org/2000/svg">
  <g transform="matrix(1.0, 0.0, 0.0, 1.0, 10.7, 0.15)">
    <path d="M1.4 -0.1 L1.65 -0.05 Q4.45 3.5 2.15 7.7 L1.45 9.2 1.55 9.2 1.15 10.25 1.05 10.75 0.85 10.75 -0.75 12.95 -0.6 12.95 2.3 13.95 6.45 11.2 6.8 11.35 3.85 16.15 4.85 22.45 Q5.45 24.75 6.55 26.9 L8.3 30.4 8.45 31.0 Q8.65 32.25 8.3 33.55 7.7 35.9 5.6 36.95 2.7 36.9 2.05 35.75 L1.3 34.3 Q0.9 33.4 0.85 32.5 0.65 28.75 0.05 25.0 L-0.75 21.25 -1.1 20.5 Q-0.5 23.5 -0.2 26.5 L-0.4 31.55 Q-0.6 32.65 -1.1 33.65 -2.5 36.2 -5.0 37.7 L-6.95 37.5 Q-9.3 36.7 -10.65 34.6 -10.85 33.1 -10.5 31.8 -8.7 24.7 -5.95 17.95 -5.2 16.15 -4.0 14.65 -3.1 13.5 -2.0 13.05 L-2.25 12.65 -0.7 9.75 0.15 4.8 -0.8 4.1 -1.15 3.65 -1.15 2.6 -1.25 2.5 -1.3 2.35 -1.4 2.25 -1.4 1.45 Q-1.45 0.95 -1.1 0.55 L-0.6 0.2 -0.45 0.05 0.7 -0.15 1.4 -0.1 M0.0 1.05 L-0.45 1.5 -0.25 3.2 -0.1 3.45 0.3 3.85 0.4 2.9 0.5 2.85 0.7 4.15 0.85 4.15 0.85 4.2 0.9 4.2 1.05 4.3 Q1.15 4.55 0.8 4.65 L0.75 4.7 Q0.9 6.55 0.7 8.4 2.2 5.2 1.65 1.9 L1.2 0.95 1.15 0.9 0.4 0.85 0.0 1.05 M-0.25 18.7 L0.8 17.8 2.65 15.65 1.75 14.7 -2.05 14.1 -3.55 16.05 -7.0 23.2 -8.5 27.9 Q-9.1 30.05 -9.35 32.25 L-9.3 33.3 Q-9.15 34.55 -8.2 35.5 -7.7 36.0 -6.15 36.35 -4.1 36.1 -2.65 34.6 -1.9 33.85 -1.65 32.85 L-1.1 30.15 -2.25 29.1 -4.8 26.7 -3.75 26.75 -3.2 26.95 -2.85 27.1 Q-2.0 27.6 -1.15 28.25 -1.5 26.75 -2.2 25.5 L-2.25 25.35 -2.3 25.3 -2.3 25.25 -2.35 25.25 -2.65 24.75 Q-3.25 23.9 -4.0 23.15 L-4.25 22.75 -3.0 23.45 -2.15 23.9 -2.65 19.7 -2.8 19.6 -3.4 19.1 -2.8 19.2 -2.25 19.3 -1.85 18.5 -1.4 17.6 -0.95 15.9 -0.95 17.8 -0.95 19.3 -0.25 18.7 M2.2 20.25 L2.4 20.15 2.55 20.65 2.55 21.2 2.3 20.7 1.45 21.15 1.25 21.25 0.65 21.4 1.4 24.0 2.8 23.6 2.8 23.8 1.95 24.55 1.45 24.95 1.65 28.15 3.5 27.4 3.9 27.25 3.85 28.05 3.7 28.35 2.9 28.75 2.2 29.1 1.65 29.0 Q1.7 32.0 2.7 35.05 L5.4 35.35 Q5.8 35.6 6.2 35.35 7.0 35.0 7.2 34.1 L7.3 33.1 7.35 32.75 7.0 30.65 Q6.4 28.45 5.25 26.4 4.1 24.45 3.6 22.3 3.1 19.95 3.1 17.5 L1.8 19.25 1.55 19.35 Q1.25 19.5 1.05 19.75 L0.5 20.4 0.75 20.65 2.2 20.25" fill="#000000" fill-rule="evenodd" stroke="none"/>
    <path d="M0.0 1.05 L0.4 0.85 1.15 0.9 1.2 0.95 1.65 1.9 Q2.2 5.2 0.7 8.4 0.9 6.55 0.75 4.7 L0.8 4.65 Q1.15 4.55 1.05 4.3 L0.9 4.2 0.85 4.2 0.85 4.15 0.7 4.15 0.5 2.85 0.4 2.9 0.3 3.85 -0.1 3.45 -0.25 3.2 -0.45 1.5 0.0 1.05" fill="#666666" fill-rule="evenodd" stroke="none"/>
    <path d="M-3.55 16.05 L-2.05 14.1 1.75 14.7 2.65 15.65 0.8 17.8 -0.25 18.7 -0.95 17.8 -0.95 15.9 -1.4 17.6 -3.55 16.05 M1.25 21.25 L1.45 21.15 2.3 20.7 2.55 21.2 2.55 20.65 2.4 20.15 2.2 20.25 1.05 19.75 Q1.25 19.5 1.55 19.35 L1.8 19.25 3.1 17.5 Q3.1 19.95 3.6 22.3 4.1 24.45 5.25 26.4 6.4 28.45 7.0 30.65 L7.35 32.75 7.3 33.1 Q6.9 34.05 5.4 33.9 4.25 33.65 3.8 33.25 3.0 32.5 2.9 31.5 2.45 30.15 2.9 28.75 L3.7 28.35 3.85 28.05 3.9 27.25 3.5 27.4 Q2.65 27.4 2.35 26.6 1.35 25.5 1.95 24.55 L2.8 23.8 2.8 23.6 1.8 23.1 Q0.85 22.25 1.25 21.25 M-7.0 23.2 L-6.55 23.2 -5.85 22.9 -4.0 23.15 Q-3.25 23.9 -2.65 24.75 L-2.35 25.25 -2.3 25.25 -2.3 25.3 -2.25 25.35 Q-1.95 26.2 -2.55 26.75 L-3.2 26.95 -3.75 26.75 -4.8 26.7 -2.25 29.1 Q-1.55 30.95 -2.6 32.25 -3.75 33.75 -6.2 34.55 -8.2 34.8 -9.3 33.3 L-9.35 32.25 Q-9.1 30.05 -8.5 27.9 L-7.0 23.2" fill="#ffcccc" fill-rule="evenodd" stroke="none"/>
    <path d="M-3.55 16.05 L-1.4 17.6 -1.85 18.5 -2.8 19.2 -3.4 19.1 -2.8 19.6 Q-2.15 22.1 -3.0 23.45 L-4.25 22.75 -4.0 23.15 -5.85 22.9 -6.55 23.2 -7.0 23.2 -3.55 16.05" fill="#cc9999" fill-rule="evenodd" stroke="none"/>
    <path d="M-0.95 17.8 L-0.25 18.7 -0.95 19.3 -0.95 17.8 M2.2 20.25 L0.75 20.65 0.5 20.4 1.05 19.75 2.2 20.25 M7.3 33.1 L7.2 34.1 Q7.0 35.0 6.2 35.35 5.8 35.6 5.4 35.35 L2.7 35.05 Q1.7 32.0 1.65 29.0 L2.2 29.1 2.9 28.75 Q2.45 30.15 2.9 31.5 3.0 32.5 3.8 33.25 4.25 33.65 5.4 33.9 6.9 34.05 7.3 33.1 M3.5 27.4 L1.65 28.15 1.45 24.95 1.95 24.55 Q1.35 25.5 2.35 26.6 2.65 27.4 3.5 27.4 M2.8 23.6 L1.4 24.0 0.65 21.4 1.25 21.25 Q0.85 22.25 1.8 23.1 L2.8 23.6 M-9.3 33.3 Q-8.2 34.8 -6.2 34.55 -3.75 33.75 -2.6 32.25 -1.55 30.95 -2.25 29.1 L-1.1 30.15 -1.65 32.85 Q-1.9 33.85 -2.65 34.6 -4.1 36.1 -6.15 36.35 -7.7 36.0 -8.2 35.5 -9.15 34.55 -9.3 33.3 M-3.2 26.95 L-2.55 26.75 Q-1.95 26.2 -2.25 25.35 L-2.2 25.5 Q-1.5 26.75 -1.15 28.25 -2.0 27.6 -2.85 27.1 L-3.2 26.95" fill="#d0a6a6" fill-rule="evenodd" stroke="none"/>
    <path d="M-3.0 23.45 Q-2.15 22.1 -2.8 19.6 L-2.65 19.7 -2.15 23.9 -3.0 23.45 M-2.8 19.2 L-1.85 18.5 -2.25 19.3 -2.8 19.2" fill="#a68484" fill-rule="evenodd" stroke="none"/>
    <path d="M-2.3 25.25 L-2.35 25.25 -2.65 24.75" fill="none" stroke="#000000" stroke-linecap="round" stroke-linejoin="miter-clip" stroke-miterlimit="3.0" stroke-width="0.5"/>
  </g>
</svg>
