<?xml version="1.0" encoding="UTF-8" standalone="no"?>
<svg xmlns:xlink="http://www.w3.org/1999/xlink" height="32.25px" width="37.45px" xmlns="http://www.w3.org/2000/svg">
  <g transform="matrix(1.0, 0.0, 0.0, 1.0, 18.35, 0.5)">
    <path d="M0.0 -0.5 L1.15 -0.4 Q2.8 0.0 3.4 1.6 3.5 4.0 2.6 6.4 L1.05 9.75 Q-0.25 12.05 -0.5 14.7 L2.85 14.9 5.35 11.25 6.0 11.5 Q6.2 13.85 5.65 16.25 L9.0 21.35 Q9.85 22.6 11.05 23.45 L17.05 23.25 Q19.05 24.6 19.1 27.05 18.9 28.6 15.35 30.9 14.0 31.6 12.6 31.75 L8.45 31.2 Q7.55 30.8 7.1 30.0 L5.8 27.8 3.7 23.3 2.9 22.0 2.55 21.7 1.6 22.1 -0.75 22.0 -2.25 23.25 -2.4 23.4 Q-3.5 24.25 -4.35 25.45 L-5.9 27.45 Q-7.05 29.05 -8.75 29.8 L-10.55 30.3 Q-12.5 30.7 -14.4 29.7 -18.65 27.6 -18.3 23.15 -15.15 19.65 -10.4 18.5 L-8.65 17.9 -7.0 17.05 Q-5.0 15.6 -2.4 15.05 L-2.25 15.0 Q-2.15 13.6 -1.7 12.3 -0.9 9.75 -0.5 7.05 L-0.2 4.8 Q-1.1 4.5 -1.35 3.6 L-1.55 1.75 Q-1.4 0.1 0.0 -0.5 M-15.95 22.35 Q-16.85 23.2 -17.45 24.45 -16.5 27.9 -13.1 29.0 -10.5 29.45 -8.6 28.2 -7.65 25.65 -8.5 22.9 L-8.6 22.6 Q-7.7 23.7 -7.35 24.9 -7.1 25.85 -7.2 26.85 L-5.35 24.7 Q-5.3 23.15 -5.85 21.65 L-6.45 20.3 -6.35 20.5 Q-5.3 21.4 -4.8 22.8 L-4.55 23.8 -2.45 21.5 -3.75 18.3 -3.9 17.9 Q-2.85 18.8 -2.4 20.05 L-2.1 21.15 -0.5 20.05 -0.65 18.55 -0.7 17.9 -0.75 17.75 0.0 18.85 0.2 19.6 Q1.2 19.0 2.35 19.25 L2.45 18.8 2.5 18.25 2.2 17.7 2.35 17.2 2.95 18.1 3.0 18.3 3.1 18.15 3.3 17.25 3.3 16.55 2.15 16.15 2.2 15.7 0.45 15.6 -0.75 15.7 -1.05 15.65 -2.35 16.25 -7.75 18.85 -13.6 20.9 Q-15.0 21.4 -15.95 22.35 M3.9 20.0 L3.5 20.6 4.1 21.4 5.35 20.15 5.55 19.9 5.35 20.9 5.0 21.45 4.65 22.0 4.55 22.1 5.85 25.3 6.65 24.45 7.1 23.45 7.1 23.4 7.3 23.05 7.5 23.75 7.5 23.85 7.05 24.75 6.7 25.25 6.35 25.6 6.0 25.85 7.55 28.6 8.2 28.35 Q9.15 27.35 9.65 26.1 L9.8 25.7 9.8 25.65 10.1 26.5 9.95 26.85 9.05 28.4 8.55 28.85 7.95 29.2 Q9.05 30.6 10.8 30.7 L12.25 30.55 12.85 29.4 12.15 27.05 12.6 26.4 12.65 26.4 12.6 26.6 Q13.25 27.3 13.3 28.65 L13.3 28.7 Q13.35 29.75 12.7 30.55 14.1 30.3 15.35 29.6 16.7 29.0 17.55 28.0 L18.2 27.2 18.35 26.6 18.2 25.8 Q17.7 24.3 16.55 24.35 L12.7 24.4 12.6 24.35 12.7 24.5 12.65 24.8 12.5 25.0 Q10.8 25.05 9.5 24.05 L8.7 23.05 Q8.55 22.65 8.7 23.15 L5.3 17.3 Q4.85 18.65 4.05 19.8 L3.9 20.0" fill="#000000" fill-rule="evenodd" stroke="none"/>
    <path d="M-15.95 22.35 Q-15.0 21.4 -13.6 20.9 L-7.75 18.85 -6.8 19.7 -6.3 20.75 Q-5.65 22.45 -6.35 24.5 -6.6 24.8 -7.35 24.9 -7.7 23.7 -8.6 22.6 L-8.5 22.9 Q-7.65 26.75 -10.8 27.1 -13.5 27.35 -14.95 25.65 -16.1 24.4 -15.95 22.35 M-2.35 16.25 L-1.05 15.65 -0.75 15.7 0.45 15.6 2.2 15.7 2.15 16.15 3.3 16.55 3.3 17.25 3.1 18.15 2.95 18.1 2.35 17.2 2.2 17.7 2.5 18.25 2.45 18.8 Q1.9 18.2 1.05 18.5 L0.0 18.85 -0.75 17.75 -2.35 16.25 M3.9 20.0 L4.05 19.8 Q4.85 18.65 5.3 17.3 L8.7 23.15 Q8.55 22.65 8.7 23.05 L9.5 24.05 Q10.8 25.05 12.5 25.0 L12.65 24.8 12.7 24.5 12.7 24.4 16.55 24.35 Q17.7 24.3 18.2 25.8 16.2 28.85 13.3 28.7 L13.3 28.65 Q13.25 27.3 12.6 26.6 L12.65 26.4 12.6 26.4 12.15 27.05 Q12.25 28.6 10.8 29.05 9.6 29.1 9.05 28.4 L9.95 26.85 10.1 26.5 9.8 25.65 9.8 25.7 9.65 26.1 Q8.6 26.9 7.4 26.5 6.4 26.25 6.7 25.25 L7.05 24.75 7.5 23.85 7.5 23.75 7.3 23.05 7.1 23.4 7.1 23.45 Q6.35 24.2 5.65 23.6 4.65 22.55 5.0 21.45 L5.35 20.9 5.55 19.9 5.35 20.15 Q4.45 20.7 3.9 20.0" fill="#ffcccc" fill-rule="evenodd" stroke="none"/>
    <path d="M-7.75 18.85 L-2.35 16.25 -0.75 17.75 -0.7 17.9 -0.65 18.55 Q-0.75 19.2 -1.35 19.8 -1.85 20.4 -2.4 20.05 -2.85 18.8 -3.9 17.9 L-3.75 18.3 Q-3.15 19.95 -3.55 21.8 -3.9 22.75 -4.8 22.8 -5.3 21.4 -6.35 20.5 L-6.45 20.3 -5.85 21.65 -6.3 20.75 -6.8 19.7 -7.75 18.85" fill="#cc9999" fill-rule="evenodd" stroke="none"/>
    <path d="M-8.5 22.9 Q-7.65 25.65 -8.6 28.2 -10.5 29.45 -13.1 29.0 -16.5 27.9 -17.45 24.45 -16.85 23.2 -15.95 22.35 -16.1 24.4 -14.95 25.65 -13.5 27.35 -10.8 27.1 -7.65 26.75 -8.5 22.9 M2.45 18.8 L2.35 19.25 Q1.2 19.0 0.2 19.6 L0.0 18.85 1.05 18.5 Q1.9 18.2 2.45 18.8 M-5.85 21.65 Q-5.3 23.15 -5.35 24.7 L-7.2 26.85 Q-7.1 25.85 -7.35 24.9 -6.6 24.8 -6.35 24.5 -5.65 22.45 -6.3 20.75 L-5.85 21.65 M5.35 20.15 L4.1 21.4 3.5 20.6 3.9 20.0 Q4.45 20.7 5.35 20.15 M18.2 25.8 L18.35 26.6 18.2 27.2 17.55 28.0 Q16.7 29.0 15.35 29.6 14.1 30.3 12.7 30.55 13.35 29.75 13.3 28.7 16.2 28.85 18.2 25.8 M12.15 27.05 L12.85 29.4 12.25 30.55 10.8 30.7 Q9.05 30.6 7.95 29.2 L8.55 28.85 9.05 28.4 Q9.6 29.1 10.8 29.05 12.25 28.6 12.15 27.05 M9.65 26.1 Q9.15 27.35 8.2 28.35 L7.55 28.6 6.0 25.85 6.35 25.6 6.7 25.25 Q6.4 26.25 7.4 26.5 8.6 26.9 9.65 26.1 M7.1 23.45 L6.65 24.45 5.85 25.3 4.55 22.1 4.65 22.0 5.0 21.45 Q4.65 22.55 5.65 23.6 6.35 24.2 7.1 23.45" fill="#d0a6a6" fill-rule="evenodd" stroke="none"/>
    <path d="M-0.65 18.55 L-0.5 20.05 -2.1 21.15 -2.4 20.05 Q-1.85 20.4 -1.35 19.8 -0.75 19.2 -0.65 18.55 M-3.75 18.3 L-2.45 21.5 -4.55 23.8 -4.8 22.8 Q-3.9 22.75 -3.55 21.8 -3.15 19.95 -3.75 18.3" fill="#a68484" fill-rule="evenodd" stroke="none"/>
  </g>
</svg>
