<?xml version="1.0" encoding="UTF-8" standalone="no"?>
<svg xmlns:xlink="http://www.w3.org/1999/xlink" height="36.9px" width="12.25px" xmlns="http://www.w3.org/2000/svg">
  <g transform="matrix(1.0, 0.0, 0.0, 1.0, 6.1, 0.0)">
    <path d="M1.15 2.4 L2.4 5.1 2.45 5.2 2.75 5.65 3.95 7.65 Q5.0 9.8 5.55 12.1 L5.6 12.25 5.75 12.95 5.85 13.5 5.85 13.6 6.05 15.3 6.15 16.05 6.15 16.5 6.0 17.4 4.85 22.65 4.1 25.35 3.9 26.05 3.4 27.75 0.7 35.9 1.1 36.7 0.9 36.9 Q0.05 36.9 -0.85 35.05 L-2.1 32.1 -4.0 27.35 -4.1 26.9 -4.2 26.6 -4.2 26.55 -5.6 22.35 -5.85 21.15 -6.1 18.6 -6.1 18.45 -5.65 13.75 Q-5.2 11.1 -4.45 9.6 L-3.15 7.3 -0.65 3.05 Q-1.3 3.05 -1.35 1.7 -1.35 0.0 0.15 0.0 1.35 0.0 1.55 1.15 1.55 1.95 1.15 2.4 M2.15 6.3 L1.9 5.8 1.8 5.6 1.75 5.5 1.25 4.5 1.1 4.15 0.4 2.8 0.45 2.8 0.3 2.55 0.5 2.2 0.95 1.5 Q0.95 0.75 0.1 0.75 -0.55 0.75 -0.7 1.7 L-0.3 2.5 -0.2 2.3 -0.1 2.3 0.2 2.75 -0.2 4.05 -0.2 4.1 -0.55 4.8 -1.6 6.65 -2.1 7.45 -2.15 7.5 -2.25 7.65 -2.25 7.7 -2.5 8.05 Q-4.25 10.85 -4.85 13.9 L-5.05 15.05 -5.2 17.15 -5.1 18.8 -5.0 19.85 -4.9 20.3 -4.8 21.0 -4.75 21.25 -4.2 23.4 -4.2 23.45 -4.05 23.95 -4.0 24.2 -3.75 24.95 -3.65 25.3 -3.35 26.25 -3.2 26.6 -3.1 26.9 -2.8 27.8 -2.5 28.55 -2.2 29.3 -1.65 30.65 -1.45 31.15 -0.9 32.3 -0.8 32.55 -0.55 33.1 -0.3 33.7 0.05 34.5 1.1 31.4 3.45 24.2 3.55 23.95 3.55 23.85 3.8 23.0 4.05 22.15 4.25 21.4 4.35 21.1 4.35 21.0 4.55 20.3 4.7 19.55 4.95 17.65 5.0 16.15 5.0 15.45 4.95 14.85 4.3 11.5 3.55 9.4 3.35 8.95 3.2 8.55 3.0 8.15 3.0 8.05 2.9 7.85 2.7 7.45 2.7 7.4 2.5 7.0 2.15 6.3 M5.85 13.65 L5.85 13.6 5.85 13.65" fill="#000000" fill-rule="evenodd" stroke="none"/>
    <path d="M-4.85 13.9 Q-4.25 10.85 -2.5 8.05 L-2.25 7.7 -2.25 7.65 -2.15 7.5 -2.1 7.45 -1.6 6.65 -0.55 4.8 -0.2 4.1 -0.2 4.05 0.2 2.75 -0.1 2.3 -0.2 2.3 -0.3 2.5 -0.7 1.7 Q-0.55 0.75 0.1 0.75 0.95 0.75 0.95 1.5 L0.5 2.2 0.3 2.55 0.45 2.8 0.4 2.8 1.1 4.15 1.25 4.5 1.75 5.5 1.8 5.6 1.9 5.8 2.15 6.3 Q0.75 7.4 -1.25 7.45 L-1.7 10.7 -2.05 14.0 -2.65 14.0 -4.85 13.9" fill="#5eba01" fill-rule="evenodd" stroke="none"/>
    <path d="M2.15 6.3 L2.5 7.0 2.7 7.4 2.7 7.45 2.9 7.85 3.0 8.05 3.0 8.15 3.2 8.55 3.35 8.95 3.55 9.4 Q3.05 11.05 2.1 12.15 L2.0 18.7 Q-0.1 20.35 -2.3 20.95 L-2.35 18.9 -2.05 14.0 Q0.6 13.8 2.1 12.15 L2.1 10.55 2.15 6.3 M-3.1 26.9 L-3.2 26.6 -3.35 26.25 -3.65 25.3 -3.75 24.95 -4.0 24.2 -4.05 23.95 -4.2 23.45 -4.2 23.4 -4.75 21.25 -2.3 20.95 -1.8 26.75 -3.1 26.9 M-4.2 23.4 L-4.05 23.95 -4.2 23.4" fill="#85d600" fill-rule="evenodd" stroke="none"/>
    <path d="M-4.85 13.9 L-2.65 14.0 -2.05 14.0 -1.7 10.7 -1.25 7.45 Q0.75 7.4 2.15 6.3 L2.1 10.55 2.1 12.15 Q0.6 13.8 -2.05 14.0 L-2.35 18.9 -2.3 20.95 -4.75 21.25 -4.8 21.0 -4.9 20.3 -5.0 19.85 -5.1 18.8 -5.2 17.15 -5.05 15.05 -4.85 13.9" fill="#66cc00" fill-rule="evenodd" stroke="none"/>
    <path d="M3.55 9.4 L4.3 11.5 4.95 14.85 5.0 15.45 Q4.0 17.05 2.3 18.45 L2.0 18.7 1.65 25.55 Q0.05 26.45 -1.8 26.75 L-2.3 20.95 Q-0.1 20.35 2.0 18.7 L2.1 12.15 Q3.05 11.05 3.55 9.4 M-0.55 33.1 L-0.8 32.55 -0.9 32.3 -1.45 31.15 -1.65 30.65 -2.2 29.3 -2.5 28.55 -2.8 27.8 -3.1 26.9 -1.8 26.75 Q-1.4 30.0 -0.55 33.1" fill="#caed00" fill-rule="evenodd" stroke="none"/>
    <path d="M5.0 15.45 L5.0 16.15 4.95 17.65 4.7 19.55 4.55 20.3 4.35 21.0 4.35 21.1 4.25 21.4 4.05 22.15 3.8 23.0 3.55 23.85 3.55 23.95 3.45 24.2 1.65 25.55 2.0 18.7 2.3 18.45 Q4.0 17.05 5.0 15.45 M1.1 31.4 L0.05 34.5 -0.3 33.7 -0.55 33.1 Q-1.4 30.0 -1.8 26.75 0.05 26.45 1.65 25.55 L1.1 31.4" fill="#f4fb00" fill-rule="evenodd" stroke="none"/>
    <path d="M3.45 24.2 L1.1 31.4 1.65 25.55 3.45 24.2" fill="#ffff99" fill-rule="evenodd" stroke="none"/>
  </g>
</svg>
