<?xml version="1.0" encoding="UTF-8" standalone="no"?>
<svg xmlns:xlink="http://www.w3.org/1999/xlink" height="35.1px" width="32.6px" xmlns="http://www.w3.org/2000/svg">
  <g transform="matrix(1.0, 0.0, 0.0, 1.0, 16.2, 0.5)">
    <path d="M0.0 -0.5 L1.15 -0.4 Q2.8 0.0 3.4 1.6 3.5 4.0 2.6 6.4 L1.05 9.75 Q-0.25 12.05 -0.5 14.7 L2.85 14.9 5.35 11.25 6.0 11.5 Q6.2 13.85 5.65 16.25 L5.95 16.8 Q7.7 19.45 8.5 22.4 8.7 23.15 9.05 23.9 L9.85 25.4 15.35 28.0 Q16.8 30.25 16.2 32.65 15.6 34.05 11.8 34.6 L9.1 34.15 Q7.1 33.3 5.45 31.65 4.75 30.85 4.55 29.85 L4.0 27.45 3.05 22.3 3.15 22.3 2.9 22.0 2.55 21.7 1.6 22.1 -0.75 22.0 Q-1.2 22.3 -1.45 23.15 L-2.75 26.05 -3.7 28.7 Q-4.35 30.7 -5.7 32.15 L-7.25 33.35 Q-8.95 34.6 -10.95 34.45 -15.4 34.2 -16.2 29.75 -14.25 25.05 -10.15 21.95 L-8.7 20.6 -7.4 19.05 Q-5.9 16.8 -2.3 15.05 L-2.25 15.0 Q-2.15 13.6 -1.7 12.3 -0.9 9.75 -0.5 7.05 L-0.2 4.8 Q-1.1 4.5 -1.35 3.6 L-1.55 1.75 Q-1.4 0.1 0.0 -0.5 M0.55 7.85 L0.6 7.85 1.7 5.35 Q2.7 3.1 1.8 1.2 L1.0 0.65 -0.65 1.25 Q-1.45 2.45 -0.7 3.65 L0.05 4.05 1.75 4.15 0.55 4.7 0.7 5.4 Q0.9 6.6 0.5 7.8 0.9 6.6 0.7 5.4 L0.55 4.7 1.75 4.15 0.05 4.05 -0.7 3.65 Q-1.45 2.45 -0.65 1.25 L1.0 0.65 1.8 1.2 Q2.7 3.1 1.7 5.35 L0.6 7.85 0.55 7.85 M-5.15 23.05 L-6.05 22.0 -5.9 22.15 Q-4.3 22.75 -3.4 24.55 L-2.05 21.45 -4.3 18.6 Q-3.05 19.05 -2.3 20.15 L-2.2 20.25 -2.0 21.1 -0.5 20.05 -0.7 18.1 -0.75 17.75 Q0.05 18.55 0.2 19.6 1.2 19.0 2.35 19.25 L2.5 18.25 2.2 17.7 2.35 17.2 3.1 18.15 3.3 17.25 3.3 16.55 2.15 16.15 2.2 15.7 0.45 15.6 -0.75 15.7 -1.05 15.65 -2.3 16.25 -7.6 21.15 -9.45 22.85 -12.45 25.6 Q-14.65 27.7 -15.1 30.65 -13.35 33.6 -9.9 33.2 -7.4 32.55 -5.95 30.55 -5.75 27.5 -7.4 25.15 -5.45 26.35 -5.05 28.65 L-3.9 25.8 Q-4.25 24.25 -5.15 23.05 M5.3 17.3 Q4.85 18.65 4.05 19.8 L3.5 20.6 4.1 21.4 5.55 19.9 5.35 20.9 4.65 22.0 4.35 22.65 4.6 24.75 4.7 24.75 5.85 23.95 6.25 23.5 6.5 23.25 6.5 24.05 6.5 24.15 5.85 24.8 5.0 25.3 4.6 25.35 5.3 28.75 5.95 28.8 Q7.25 28.2 8.1 27.0 L8.2 27.9 7.95 28.15 Q7.35 29.05 6.15 29.4 L5.5 29.5 Q6.15 31.4 7.75 32.3 L9.1 32.8 9.95 32.0 9.9 29.4 10.5 28.95 10.5 29.0 10.4 29.15 Q10.8 30.15 10.55 31.45 10.3 32.55 9.5 33.0 L12.15 33.35 Q13.5 33.4 14.55 32.8 L15.35 32.35 15.65 31.8 Q15.9 29.45 14.6 28.85 L10.8 27.25 9.85 26.9 Q9.05 26.6 8.5 25.6 7.9 24.55 7.8 23.9 7.75 23.5 7.75 24.0 L5.95 18.55 5.3 17.3 M13.5 28.3 L14.6 28.85 13.5 28.3 M2.95 18.1 L3.0 18.3 3.1 18.15 3.0 18.3 2.95 18.1" fill="#000000" fill-rule="evenodd" stroke="none"/>
    <path d="M-0.75 17.75 L-0.7 18.1 -0.5 20.05 -2.0 21.1 -2.2 20.25 -2.3 20.15 Q-3.05 19.05 -4.3 18.6 L-2.05 21.45 -3.4 24.55 Q-4.3 22.75 -5.9 22.15 L-6.05 22.0 -5.15 23.05 -6.5 21.6 -7.6 21.15 -2.3 16.25 -2.3 16.3 -0.75 17.75" fill="#cc9999" fill-rule="evenodd" stroke="none"/>
    <path d="M-0.75 17.75 L-2.3 16.3 -2.3 16.25 -1.05 15.65 -0.75 15.7 0.45 15.6 2.2 15.7 2.15 16.15 3.3 16.55 3.3 17.25 3.1 18.15 2.35 17.2 2.2 17.7 2.5 18.25 2.35 19.25 Q1.2 19.0 0.2 19.6 0.05 18.55 -0.75 17.75 M-7.6 21.15 L-6.5 21.6 -5.15 23.05 Q-4.25 24.25 -3.9 25.8 L-5.05 28.65 Q-5.45 26.35 -7.4 25.15 -5.75 27.5 -5.95 30.55 -7.4 32.55 -9.9 33.2 -13.35 33.6 -15.1 30.65 -14.65 27.7 -12.45 25.6 L-9.45 22.85 -7.6 21.15 M5.3 17.3 L5.95 18.55 7.75 24.0 Q7.75 23.5 7.8 23.9 7.9 24.55 8.5 25.6 9.05 26.6 9.85 26.9 L10.8 27.25 14.6 28.85 Q15.9 29.45 15.65 31.8 L15.35 32.35 14.55 32.8 Q13.5 33.4 12.15 33.35 L9.5 33.0 Q10.3 32.55 10.55 31.45 10.8 30.15 10.4 29.15 L10.5 29.0 10.5 28.95 9.9 29.4 9.95 32.0 9.1 32.8 7.75 32.3 Q6.15 31.4 5.5 29.5 L6.15 29.4 Q7.35 29.05 7.95 28.15 L8.2 27.9 8.1 27.0 Q7.25 28.2 5.95 28.8 L5.3 28.75 4.6 25.35 5.0 25.3 5.85 24.8 6.5 24.15 6.5 24.05 6.5 23.25 6.25 23.5 5.85 23.95 4.7 24.75 4.6 24.75 4.35 22.65 4.65 22.0 5.35 20.9 5.55 19.9 4.1 21.4 3.5 20.6 4.05 19.8 Q4.85 18.65 5.3 17.3" fill="#ffcccc" fill-rule="evenodd" stroke="none"/>
  </g>
</svg>
