<?xml version="1.0" encoding="UTF-8" standalone="no"?>
<svg xmlns:xlink="http://www.w3.org/1999/xlink" height="22.6px" width="8.35px" xmlns="http://www.w3.org/2000/svg">
  <g transform="matrix(1.0, 0.0, 0.0, 1.0, 4.15, 11.35)">
    <path d="M1.55 -9.25 Q1.65 -6.85 0.75 -4.45 L-0.8 -1.1 Q-2.0 1.0 -2.3 2.85 L-2.4 3.45 Q-3.0 5.85 -1.85 8.25 L-1.25 9.2 Q-0.5 9.75 0.5 8.4 L1.15 7.45 1.25 7.3 1.45 6.4 1.45 5.7 0.3 5.3 0.35 4.85 3.5 0.4 4.15 0.65 Q4.35 2.8 3.9 4.95 3.0 7.8 2.2 8.95 L0.7 10.85 -0.25 11.25 -1.25 11.2 Q-2.9 10.25 -3.55 8.75 L-4.05 6.95 Q-4.3 5.15 -4.0 3.45 L-3.55 1.45 Q-2.75 -1.1 -2.35 -3.8 L-2.05 -6.05 Q-2.95 -6.35 -3.2 -7.25 L-3.4 -9.1 Q-3.25 -10.75 -1.85 -11.35 L-0.7 -11.25 Q0.95 -10.85 1.55 -9.25 M-1.25 -3.0 L-0.15 -5.5 0.25 -6.65 Q0.6 -8.25 -0.05 -9.65 L-0.85 -10.2 -2.5 -9.6 Q-3.3 -8.4 -2.55 -7.2 L-1.8 -6.8 -0.1 -6.7 -1.3 -6.15 -1.15 -5.45 Q-0.95 -4.25 -1.35 -3.05 L-1.3 -3.0 -1.25 -3.0" fill="#000000" fill-rule="evenodd" stroke="none"/>
    <path d="M-1.35 -3.05 Q-0.95 -4.25 -1.15 -5.45 L-1.3 -6.15 -0.1 -6.7 -1.8 -6.8 -2.55 -7.2 Q-3.3 -8.4 -2.5 -9.6 L-0.85 -10.2 -0.05 -9.65 Q0.6 -8.25 0.25 -6.65 L-0.15 -5.5 -1.25 -3.0 -1.35 -3.05" fill="#666666" fill-rule="evenodd" stroke="none"/>
  </g>
</svg>
