<?xml version="1.0" encoding="UTF-8" standalone="no"?>
<svg xmlns:xlink="http://www.w3.org/1999/xlink" height="72.5px" width="52.5px" xmlns="http://www.w3.org/2000/svg">
  <g transform="matrix(1.0, 0.0, 0.0, 1.0, 26.3, 37.05)">
    <path d="M9.15 -27.7 L10.2 -24.9 Q10.6 -21.8 7.9 -17.1 9.8 -16.15 13.2 -17.0 15.8 -17.65 16.8 -18.35 M7.9 -17.1 Q5.25 -14.9 2.45 -11.55 L2.35 -7.7 Q1.9 -4.75 -0.25 -2.7 L-2.35 2.8 Q-4.2 8.2 -4.0 9.45 1.85 10.2 3.9 8.45 5.4 7.2 5.35 3.8 5.3 -0.95 5.55 -1.9 6.3 -5.0 9.7 -6.1 M2.45 -11.55 L2.45 -12.05 Q2.45 -14.2 1.55 -18.3 L0.6 -22.0 Q-8.25 -19.25 -12.35 -20.15 -15.5 -20.9 -16.55 -24.1 -17.25 -28.15 -17.85 -30.05 -18.95 -33.3 -22.2 -34.05 M14.45 -4.35 Q15.4 -2.5 15.15 1.5 14.9 5.15 14.3 5.7 17.9 4.85 19.25 2.55 21.0 -0.35 19.8 -6.35 M23.15 3.65 Q23.85 12.7 16.85 16.75 14.4 18.3 8.05 19.15 2.85 19.85 -1.5 24.35 L-0.8 30.15 M14.3 5.7 Q10.6 10.95 12.9 14.1 13.85 15.4 16.85 16.75 M-14.15 -13.05 Q-13.25 -3.45 -0.25 -2.7 M0.6 -22.0 Q-2.55 -29.3 -6.7 -30.7 L-9.2 -31.0 -10.2 -30.7 M-1.5 24.35 L-4.0 9.45 Q-5.8 8.35 -9.8 7.7 L-16.5 6.4 Q-24.15 4.2 -23.2 -4.35" fill="none" stroke="#000000" stroke-linecap="round" stroke-linejoin="round" stroke-width="6.0"/>
    <path d="M9.15 -27.7 L10.2 -24.9 Q10.6 -21.8 7.9 -17.1 9.8 -16.15 13.2 -17.0 15.8 -17.65 16.8 -18.35 M7.9 -17.1 Q5.25 -14.9 2.45 -11.55 L2.35 -7.7 Q1.9 -4.75 -0.25 -2.7 L-2.35 2.8 Q-4.2 8.2 -4.0 9.45 1.85 10.2 3.9 8.45 5.4 7.2 5.35 3.8 5.3 -0.95 5.55 -1.9 6.3 -5.0 9.7 -6.1 M2.45 -11.55 L2.45 -12.05 Q2.45 -14.2 1.55 -18.3 L0.6 -22.0 Q-8.25 -19.25 -12.35 -20.15 -15.5 -20.9 -16.55 -24.1 -17.25 -28.15 -17.85 -30.05 -18.95 -33.3 -22.2 -34.05 M14.45 -4.35 Q15.4 -2.5 15.15 1.5 14.9 5.15 14.3 5.7 17.9 4.85 19.25 2.55 21.0 -0.35 19.8 -6.35 M23.15 3.65 Q23.85 12.7 16.85 16.75 14.4 18.3 8.05 19.15 2.85 19.85 -1.5 24.35 L-0.8 30.15 M14.3 5.7 Q10.6 10.95 12.9 14.1 13.85 15.4 16.85 16.75 M-14.15 -13.05 Q-13.25 -3.45 -0.25 -2.7 M0.6 -22.0 Q-2.55 -29.3 -6.7 -30.7 L-9.2 -31.0 -10.2 -30.7 M-1.5 24.35 L-4.0 9.45 Q-5.8 8.35 -9.8 7.7 L-16.5 6.4 Q-24.15 4.2 -23.2 -4.35" fill="none" stroke="#6e3953" stroke-linecap="round" stroke-linejoin="round" stroke-width="3.0"/>
    <path d="M10.25 -17.3 L13.3 -18.0 Q15.85 -18.75 16.3 -19.05 M5.55 -16.15 Q8.65 -18.55 9.55 -22.45 10.3 -25.65 8.65 -28.4 M0.7 8.85 Q2.45 8.55 3.4 7.75 4.9 6.5 4.85 3.1 4.8 -1.65 5.05 -2.6 5.8 -5.7 9.2 -6.8 M13.95 -5.05 Q14.9 -3.2 14.65 0.8 14.4 4.45 13.8 5.0 10.8 9.25 11.75 12.15 M22.65 2.95 Q23.35 12.0 16.35 16.05 13.9 17.6 7.55 18.45 5.1 18.8 2.85 19.95 M19.45 0.25 Q20.2 -2.5 19.3 -7.05 M-1.3 30.45 Q-1.95 23.3 -3.5 16.25 -5.65 6.5 -0.8 -2.2 0.6 -4.75 1.15 -7.4 3.05 -16.3 -0.25 -24.55 -3.3 -32.05 -10.7 -31.4 M-14.65 -13.75 Q-13.95 -6.45 -6.3 -4.25 M-22.7 -34.75 Q-19.45 -34.0 -18.35 -30.75 -17.75 -28.85 -17.05 -24.8 -16.0 -21.6 -12.85 -20.85 L-5.95 -21.1 M-23.7 -5.05 Q-24.65 3.5 -17.0 5.7 L-9.5 7.15" fill="none" stroke="#d998a0" stroke-linecap="round" stroke-linejoin="round" stroke-width="1.5"/>
    <path d="M7.55 27.35 Q6.4 26.75 10.85 26.95 15.25 27.1 15.25 27.7 15.25 29.75 10.3 32.45 4.75 35.45 -1.5 35.45 -5.05 35.45 -10.5 34.0 -17.35 32.2 -18.5 29.65 L-11.4 29.25 Q-6.5 28.5 -0.85 30.95 0.7 29.8 3.15 28.75 6.1 27.55 7.55 27.35 M-2.8 32.9 L-0.85 30.95 -2.8 32.9" fill="#bddfe6" fill-rule="evenodd" stroke="none"/>
    <path d="M7.55 27.35 Q6.1 27.55 3.15 28.75 0.7 29.8 -0.85 30.95 L-2.8 32.9 M-0.85 30.95 Q-6.5 28.5 -11.4 29.25" fill="none" stroke="#000000" stroke-linecap="round" stroke-linejoin="round" stroke-width="2.0"/>
  </g>
</svg>
