<?xml version="1.0" encoding="UTF-8" standalone="no"?>
<svg xmlns:xlink="http://www.w3.org/1999/xlink" height="41.35px" width="99.65px" xmlns="http://www.w3.org/2000/svg">
  <g transform="matrix(1.0, 0.0, 0.0, 1.0, 59.4, 17.5)">
    <path d="M14.9 -13.35 L14.15 -13.95 Q15.95 -14.35 17.85 -12.8 L19.75 -12.25 19.8 -12.25 21.6 -12.4 20.75 -12.8 18.25 -14.45 17.8 -14.75 24.35 -12.45 25.75 -12.4 27.8 -12.65 32.05 -12.5 35.1 -12.45 Q30.15 -14.2 24.9 -15.15 L12.65 -16.1 8.55 -16.0 10.1 -15.25 11.2 -14.75 13.9 -12.8 14.6 -12.45 14.8 -12.3 15.3 -11.55 15.75 -11.55 17.25 -11.85 15.6 -12.8 14.9 -13.35 M30.4 21.95 L30.4 22.15 30.35 22.25 Q19.75 24.55 8.6 23.0 L0.3 21.65 Q-13.2 19.2 -25.05 12.5 L-25.15 12.45 -25.95 12.2 -28.65 12.1 Q-32.05 13.0 -34.95 15.0 L-39.95 18.8 Q-42.7 20.95 -46.0 22.15 L-49.4 23.45 Q-51.65 24.25 -53.9 23.4 -56.8 22.35 -59.1 20.55 L-59.4 18.55 Q-59.5 17.0 -58.85 15.75 -57.45 13.1 -55.5 10.95 L-52.25 7.1 Q-50.55 4.9 -50.4 2.3 -50.3 -0.4 -51.85 -2.65 L-53.7 -4.85 Q-56.0 -7.2 -56.95 -10.25 L-56.95 -11.0 -56.6 -12.45 -55.45 -12.9 Q-52.5 -13.15 -49.65 -12.0 L-46.7 -10.75 Q-44.4 -9.75 -42.2 -8.4 L-38.8 -6.5 Q-36.95 -5.6 -34.9 -4.9 L-31.3 -3.7 Q-27.7 -5.2 -23.85 -6.15 L13.15 -11.3 13.2 -11.3 15.3 -11.55 13.2 -11.35 13.15 -11.35 6.1 -16.75 7.0 -16.55 6.5 -16.75 Q15.75 -18.3 24.9 -16.55 29.55 -15.7 34.05 -14.1 L34.15 -14.05 38.1 -12.7 Q38.85 -12.45 39.05 -11.8 L38.95 -11.5 38.8 -11.35 38.5 -11.2 37.7 -11.5 37.6 -11.45 37.5 -11.35 37.25 -11.35 38.5 -11.05 38.8 -11.0 38.9 -10.9 32.45 -11.2 13.85 -9.95 12.95 -10.0 -17.35 -5.55 -30.05 -2.6 -34.7 -1.6 -35.15 -1.5 -35.2 -1.6 -35.2 -1.7 -33.1 -2.85 -33.2 -2.9 -33.25 -2.9 Q-35.2 -3.45 -37.05 -4.35 L-47.3 -9.25 Q-50.95 -11.1 -52.2 -11.35 L-54.7 -11.75 -55.85 -10.95 -55.65 -10.25 -55.15 -9.6 -51.75 -8.65 Q-45.95 -6.7 -41.2 -2.75 L-54.45 -8.25 -50.85 -4.25 -50.2 -4.05 Q-45.5 -2.85 -42.1 0.5 L-42.7 0.5 Q-43.15 0.25 -45.05 -0.65 -47.0 -1.6 -49.95 -2.25 L-49.65 -1.1 Q-49.1 1.2 -49.35 3.35 -49.65 5.5 -50.8 7.5 L-52.25 9.65 -46.55 8.15 -43.85 7.1 Q-42.75 6.55 -42.7 6.55 L-42.65 6.55 Q-44.85 8.45 -47.7 9.8 L-47.8 9.85 Q-50.75 11.45 -53.35 11.0 -55.2 13.25 -56.7 15.75 L-57.6 17.7 Q-49.7 15.65 -42.7 11.7 L-42.65 12.15 Q-42.7 13.2 -44.4 14.1 -46.6 15.25 -48.9 16.0 L-49.5 16.45 Q-53.5 18.85 -57.85 19.0 L-57.8 19.4 -52.2 21.85 -49.65 21.95 -47.25 21.25 Q-44.8 20.35 -42.8 18.9 L-32.25 11.35 Q-30.85 10.4 -29.45 10.45 L-32.2 9.25 Q-33.35 8.9 -34.1 7.9 L-34.05 7.9 -33.95 7.9 -32.8 8.2 Q-29.2 9.15 -25.8 11.0 L-25.75 11.05 Q-17.95 14.05 -10.1 17.35 -6.45 18.85 -2.45 19.6 7.7 21.55 18.05 21.8 L29.7 21.35 30.25 21.45 30.4 21.8 30.4 21.95 M9.65 -7.75 L9.8 -6.55 9.4 -5.3 9.4 -5.2 Q10.45 -4.3 11.65 -3.75 L11.85 -3.65 Q9.15 -2.15 8.6 -5.45 8.45 -6.1 8.8 -6.85 L9.6 -7.75 9.6 -7.8 9.65 -7.75 M4.3 -3.65 L4.45 -3.5 4.6 -3.25 Q4.1 -2.5 3.05 -2.95 L2.3 -3.65 Q2.0 -5.2 2.95 -6.4 L3.15 -6.55 3.45 -6.2 3.5 -6.1 3.5 -5.7 3.2 -5.2 3.15 -5.05 3.2 -4.55 3.2 -4.25 Q3.9 -4.1 4.3 -3.65 M9.85 4.1 L9.85 4.95 Q9.95 6.05 10.65 7.05 L11.6 8.15 11.65 8.25 Q11.35 8.85 10.65 8.75 9.65 8.25 9.15 7.25 L8.85 6.6 Q8.7 5.0 9.7 3.8 L9.85 3.75 9.85 4.1 M3.6 5.1 L3.65 5.15 3.7 5.55 3.55 6.1 3.4 6.25 Q2.6 6.1 1.7 5.45 L1.45 5.0 1.4 4.85 0.75 4.35 0.8 1.7 2.5 0.05 2.6 0.35 2.65 0.7 Q2.55 1.3 1.85 2.05 L1.7 2.15 1.75 3.6 3.6 5.1 M-11.2 0.25 L-10.8 0.3 -10.05 0.95 Q-9.75 1.1 -9.85 1.35 -9.9 1.7 -10.25 1.75 L-10.9 1.8 Q-14.3 1.1 -15.05 -1.55 L-15.15 -1.8 -15.4 -3.45 Q-14.85 -3.9 -14.15 -4.15 L-13.6 -4.35 -13.5 -4.35 -13.55 -4.25 Q-13.8 -3.75 -14.6 -3.25 L-14.7 -3.1 Q-14.45 -1.35 -13.25 -0.5 -12.5 0.1 -11.2 0.25 M-2.05 -1.75 L-1.45 -1.15 -1.4 -1.0 Q-2.0 0.05 -3.3 -0.5 -4.4 -1.3 -5.2 -2.45 L-5.1 -4.0 -3.95 -5.1 -3.25 -5.15 -3.1 -5.15 -3.2 -5.0 -3.85 -4.2 -4.05 -4.05 -4.1 -3.1 -2.65 -1.85 -2.05 -1.75 M-4.7 6.7 L-4.15 7.25 -6.4 6.4 Q-7.65 4.6 -6.45 2.65 L-6.15 3.1 -6.1 3.2 -6.1 3.25 -6.15 3.45 -6.35 3.85 -6.1 5.25 -4.7 6.7" fill="#000000" fill-rule="evenodd" stroke="none"/>
    <path d="M19.8 -12.25 L19.75 -12.25 17.85 -12.8 Q15.95 -14.35 14.15 -13.95 L14.9 -13.35 15.75 -11.55 15.3 -11.55 14.8 -12.3 14.6 -12.45 13.9 -12.8 11.2 -14.75 10.1 -15.25 21.45 -14.9 Q27.9 -14.7 32.05 -12.5 L27.8 -12.65 25.75 -12.4 24.35 -12.45 17.8 -14.75 18.25 -14.45 19.8 -12.25 M-34.7 -1.6 L-30.05 -2.6 Q-17.0 -5.2 -3.55 -6.7 L9.6 -7.75 8.8 -6.85 Q8.45 -6.1 8.6 -5.45 9.15 -2.15 11.85 -3.65 L11.65 -3.75 Q10.2 -5.15 9.8 -6.55 L9.65 -7.75 24.45 -9.0 39.45 -8.5 Q42.3 5.65 34.9 16.6 25.9 4.55 27.65 -3.65 24.65 -0.6 22.65 3.7 21.9 2.3 22.35 0.75 22.75 -3.55 24.3 -6.9 17.6 -1.35 13.85 6.35 L11.0 7.0 Q10.25 5.45 9.85 4.1 L9.85 3.75 9.7 3.8 Q8.7 5.0 8.85 6.6 L9.15 7.25 Q0.95 11.15 -4.0 10.3 -8.95 9.45 -16.25 7.5 L-36.15 1.75 -36.6 1.6 -36.6 1.5 Q-36.15 0.05 -35.2 -1.05 L-34.7 -1.6 M38.5 -11.05 L37.25 -11.35 37.5 -11.35 37.6 -11.45 37.7 -11.5 38.5 -11.2 38.5 -11.05 M3.5 -5.7 L3.5 -6.1 3.45 -6.2 3.15 -6.55 2.95 -6.4 Q2.0 -5.2 2.3 -3.65 L3.05 -2.95 Q4.1 -2.5 4.6 -3.25 L4.45 -3.5 4.3 -3.65 Q3.5 -4.7 3.5 -5.7 M2.65 0.7 L2.6 0.35 2.5 0.05 0.8 1.7 0.75 4.35 1.4 4.85 1.45 5.0 1.7 5.45 Q2.6 6.1 3.4 6.25 L3.55 6.1 3.7 5.55 3.65 5.15 3.6 5.1 Q2.45 2.9 2.65 0.7 M-13.55 -4.25 L-13.5 -4.35 -13.6 -4.35 -14.15 -4.15 Q-14.85 -3.9 -15.4 -3.45 L-15.15 -1.8 -15.05 -1.55 Q-14.3 1.1 -10.9 1.8 L-10.25 1.75 Q-9.9 1.7 -9.85 1.35 -9.75 1.1 -10.05 0.95 L-10.8 0.3 -11.2 0.25 Q-13.4 -1.2 -13.55 -4.25 M-3.2 -5.0 L-3.1 -5.15 -3.25 -5.15 -3.95 -5.1 -5.1 -4.0 -5.2 -2.45 Q-4.4 -1.3 -3.3 -0.5 -2.0 0.05 -1.4 -1.0 L-1.45 -1.15 -2.05 -1.75 Q-3.3 -3.1 -3.2 -5.0 M-6.1 3.25 L-6.1 3.2 -6.15 3.1 -6.45 2.65 Q-7.65 4.6 -6.4 6.4 L-4.15 7.25 -4.7 6.7 Q-5.9 5.0 -6.1 3.25" fill="#ffcc33" fill-rule="evenodd" stroke="none"/>
    <path d="M-42.65 12.15 L-42.7 11.7 Q-49.7 15.65 -57.6 17.7 L-56.7 15.75 Q-55.2 13.25 -53.35 11.0 -50.75 11.45 -47.8 9.85 L-47.7 9.8 Q-44.85 8.45 -42.65 6.55 L-42.7 6.55 Q-42.75 6.55 -43.85 7.1 L-46.55 8.15 -52.25 9.65 -50.8 7.5 Q-49.65 5.5 -49.35 3.35 -49.1 1.2 -49.65 -1.1 L-49.95 -2.25 Q-47.0 -1.6 -45.05 -0.65 -43.15 0.25 -42.7 0.5 L-42.1 0.5 Q-45.5 -2.85 -50.2 -4.05 L-50.85 -4.25 -54.45 -8.25 -41.2 -2.75 Q-45.95 -6.7 -51.75 -8.65 L-55.15 -9.6 -55.65 -10.25 -55.85 -10.95 -54.7 -11.75 -52.2 -11.35 Q-50.95 -11.1 -47.3 -9.25 L-37.05 -4.35 Q-35.2 -3.45 -33.25 -2.9 L-33.2 -2.9 -33.1 -2.85 -35.2 -1.7 -35.2 -1.6 -35.15 -1.5 -34.7 -1.6 -35.2 -1.05 Q-36.15 0.05 -36.6 1.5 L-36.6 1.6 -36.8 2.95 -40.05 8.7 -42.65 12.15" fill="#ffdd44" fill-rule="evenodd" stroke="none"/>
    <path d="M19.8 -12.25 L18.25 -14.45 20.75 -12.8 21.6 -12.4 19.8 -12.25 M15.75 -11.55 L14.9 -13.35 15.6 -12.8 17.25 -11.85 15.75 -11.55 M-30.05 -2.6 L-17.35 -5.55 12.95 -10.0 13.85 -9.95 32.45 -11.2 38.9 -10.9 39.45 -8.5 24.45 -9.0 9.65 -7.75 9.6 -7.8 9.6 -7.75 -3.55 -6.7 Q-17.0 -5.2 -30.05 -2.6 M9.8 -6.55 Q10.2 -5.15 11.65 -3.75 10.45 -4.3 9.4 -5.2 L9.4 -5.3 9.8 -6.55 M3.5 -5.7 Q3.5 -4.7 4.3 -3.65 3.9 -4.1 3.2 -4.25 L3.2 -4.55 3.15 -5.05 3.2 -5.2 3.5 -5.7 M11.6 8.15 L10.65 7.05 Q9.95 6.05 9.85 4.95 L9.85 4.1 Q10.25 5.45 11.0 7.0 L11.6 8.15 M2.65 0.7 Q2.45 2.9 3.6 5.1 L1.75 3.6 1.7 2.15 1.85 2.05 Q2.55 1.3 2.65 0.7 M-13.55 -4.25 Q-13.4 -1.2 -11.2 0.25 -12.5 0.1 -13.25 -0.5 -14.45 -1.35 -14.7 -3.1 L-14.6 -3.25 Q-13.8 -3.75 -13.55 -4.25 M-3.2 -5.0 Q-3.3 -3.1 -2.05 -1.75 L-2.65 -1.85 -4.1 -3.1 -4.05 -4.05 -3.85 -4.2 -3.2 -5.0 M-6.1 3.25 Q-5.9 5.0 -4.7 6.7 L-6.1 5.25 -6.35 3.85 -6.15 3.45 -6.1 3.25" fill="#ffda6d" fill-rule="evenodd" stroke="none"/>
    <path d="M-34.05 7.9 L-34.1 7.9 Q-33.35 8.9 -32.2 9.25 L-29.45 10.45 Q-30.85 10.4 -32.25 11.35 L-42.8 18.9 Q-44.8 20.35 -47.25 21.25 L-49.65 21.95 -52.2 21.85 -57.8 19.4 -57.85 19.0 Q-53.5 18.85 -49.5 16.45 L-48.9 16.0 Q-46.6 15.25 -44.4 14.1 -42.7 13.2 -42.65 12.15 L-40.05 8.7 -36.8 2.95 Q-36.8 4.5 -35.65 5.75 L-35.6 5.9 -34.4 7.65 -34.3 7.7 -34.05 7.9" fill="#e7c83d" fill-rule="evenodd" stroke="none"/>
    <path d="M32.05 -12.5 Q27.9 -14.7 21.45 -14.9 L10.1 -15.25 8.55 -16.0 12.65 -16.1 24.9 -15.15 Q30.15 -14.2 35.1 -12.45 L32.05 -12.5 M30.4 21.95 L30.4 21.8 30.25 21.45 29.7 21.35 18.05 21.8 Q7.7 21.55 -2.45 19.6 -6.45 18.85 -10.1 17.35 -17.95 14.05 -25.75 11.05 L-25.8 11.0 Q-29.2 9.15 -32.8 8.2 L-33.95 7.9 -34.05 7.9 -34.3 7.7 -34.4 7.65 -35.6 5.9 -35.65 5.75 Q-36.8 4.5 -36.8 2.95 L-36.6 1.6 -36.15 1.75 -16.25 7.5 Q-8.95 9.45 -4.0 10.3 0.95 11.15 9.15 7.25 9.65 8.25 10.65 8.75 11.35 8.85 11.65 8.25 L11.6 8.15 11.0 7.0 13.85 6.35 Q17.6 -1.35 24.3 -6.9 22.75 -3.55 22.35 0.75 21.9 2.3 22.65 3.7 24.65 -0.6 27.65 -3.65 25.9 4.55 34.9 16.6 33.0 19.4 30.45 22.0 L30.4 21.95" fill="#ecb20a" fill-rule="evenodd" stroke="none"/>
  </g>
</svg>
