<?xml version="1.0" encoding="UTF-8" standalone="no"?>
<svg xmlns:xlink="http://www.w3.org/1999/xlink" height="117.65px" width="99.9px" xmlns="http://www.w3.org/2000/svg">
  <g transform="matrix(1.0, 0.0, 0.0, 1.0, 57.4, 84.9)">
    <path d="M9.85 -84.6 Q15.2 -85.15 20.5 -84.6 L9.85 -84.6 M16.55 -15.65 Q16.35 -15.8 16.65 -15.8 16.7 -15.3 17.15 -15.45 L17.6 -15.45 Q19.5 -14.95 20.9 -14.0 L22.45 -14.05 Q21.05 -14.95 20.35 -16.1 L20.5 -16.1 Q22.7 -15.3 24.6 -14.05 30.4 -14.1 35.75 -12.3 29.2 -17.15 20.1 -17.5 L11.55 -18.2 Q14.7 -16.7 16.95 -14.0 L17.0 -13.85 17.0 -13.8 18.75 -13.9 16.55 -15.65 M8.25 -3.25 Q6.65 -2.95 5.8 -4.8 5.7 -6.1 6.4 -7.15 L6.6 -7.25 6.9 -6.9 7.05 -6.4 6.8 -5.5 6.75 -5.3 8.25 -3.25 M2.35 -1.55 Q1.65 -1.0 0.85 -1.7 L-0.25 -2.9 -0.3 -4.35 -0.25 -4.95 1.2 -6.65 1.45 -6.8 1.85 -6.25 1.85 -6.0 1.75 -5.55 0.95 -4.75 0.85 -4.6 0.85 -3.8 0.9 -3.4 2.35 -1.55 M15.2 -4.75 L15.3 -4.55 Q14.2 -4.05 13.4 -5.15 13.0 -7.85 15.1 -9.75 L15.35 -9.85 15.1 -9.35 Q14.05 -7.0 15.2 -4.75 M35.65 21.55 L35.65 21.7 35.3 22.2 34.8 22.6 Q13.1 25.0 -7.3 17.8 -10.2 16.8 -12.8 15.6 L-14.85 15.1 -22.5 14.2 -23.75 15.25 -25.1 16.1 Q-29.55 20.0 -33.4 24.85 L-36.8 28.3 -40.3 30.85 -42.55 32.05 -45.2 32.65 Q-47.15 32.95 -49.0 32.15 -51.4 31.2 -52.6 29.2 -53.65 27.35 -53.55 25.3 -53.4 20.5 -50.7 16.4 L-47.45 11.55 Q-47.05 10.9 -46.95 10.25 L-46.9 8.75 -56.2 -0.2 Q-59.05 -2.25 -55.0 -4.3 L-49.1 -5.45 -42.95 -4.25 Q-37.9 -2.95 -33.3 -1.15 -29.05 -0.25 -24.65 -1.0 L-14.85 -6.4 -13.75 -6.8 Q-10.55 -7.85 -7.55 -9.25 3.5 -12.7 15.0 -13.65 L7.9 -18.4 14.4 -19.05 Q26.5 -19.0 37.0 -13.6 L40.65 -11.15 40.75 -10.7 40.7 -10.25 42.25 -9.4 42.4 -9.25 42.5 -9.0 42.45 -8.85 42.35 -8.65 42.15 -8.4 Q33.05 -12.2 22.8 -12.35 6.5 -12.55 -8.7 -7.25 L-13.9 -5.55 -14.85 -5.1 -25.65 1.2 Q-27.8 2.5 -30.45 2.8 L-30.95 2.85 -27.5 0.7 -27.65 0.7 -27.75 0.75 -27.85 0.75 Q-29.5 1.0 -31.3 0.75 L-33.3 0.35 -46.75 -3.4 -50.95 -3.6 -54.1 -3.0 -54.55 -1.8 -50.95 -1.15 Q-46.3 -0.05 -42.05 2.35 -41.3 2.7 -40.55 3.15 L-40.7 3.25 -42.7 2.9 -54.7 -0.9 -48.5 4.9 Q-45.8 4.85 -43.5 6.05 L-42.05 6.9 -46.9 6.55 -45.55 8.0 Q-45.3 12.6 -48.25 16.3 L-50.8 19.55 -41.95 12.7 Q-42.75 14.45 -44.05 15.95 L-47.8 19.7 -50.4 21.6 -52.0 22.5 Q-52.45 24.2 -52.2 25.9 L-51.85 27.3 -51.25 28.8 -41.0 21.3 Q-39.2 20.0 -37.8 18.15 -39.9 21.3 -42.5 23.95 L-44.8 26.15 Q-47.55 28.35 -50.55 29.8 -49.75 30.2 -48.6 30.4 -45.8 31.1 -43.1 30.35 -41.35 29.8 -39.75 28.9 L-36.8 26.85 Q-33.15 22.6 -29.95 18.0 L-28.55 16.1 -27.75 15.4 Q-26.5 14.4 -25.1 13.9 L-29.35 13.4 -27.3 13.2 -20.6 12.55 Q-18.5 12.6 -16.7 13.2 L-15.5 13.65 -16.0 13.6 -15.5 13.7 -13.2 14.25 -12.45 14.35 Q8.45 21.7 30.75 21.05 L34.0 21.15 35.65 21.55 M11.5 7.95 Q10.65 5.3 12.75 3.0 12.8 2.9 13.0 2.9 12.0 5.1 12.55 7.55 L12.7 8.2 13.3 8.9 13.4 9.0 Q14.2 9.05 14.7 9.4 L13.05 9.65 Q12.85 9.9 12.1 9.35 L11.5 7.95 M5.95 1.75 L5.25 2.65 5.1 2.85 Q4.95 4.0 5.3 5.1 L5.4 5.5 6.45 6.5 5.5 6.55 4.65 5.95 Q3.5 3.25 5.55 1.15 L5.85 1.0 6.0 1.5 5.95 1.75 M-6.6 4.5 L-5.95 4.75 Q-9.15 4.85 -12.1 2.25 -12.5 0.7 -11.25 -0.45 L-10.95 -0.55 -10.95 -0.05 Q-11.0 0.6 -11.4 1.3 L-11.45 1.5 Q-9.35 3.4 -6.6 4.5 M-2.3 8.25 L-1.4 9.3 -2.7 9.4 -4.05 8.05 -3.95 6.45 -3.9 6.25 -3.0 5.65 -2.8 5.6 -2.85 6.15 -3.05 7.25 -3.05 7.45 -2.3 8.25" fill="#000000" fill-rule="evenodd" stroke="none"/>
    <path d="M7.05 -6.4 L6.9 -6.9 6.6 -7.25 6.4 -7.15 Q5.7 -6.1 5.8 -4.8 6.65 -2.95 8.25 -3.25 L7.05 -6.4 M16.55 -15.65 L18.75 -13.9 17.0 -13.8 17.0 -13.85 16.95 -14.0 Q14.7 -16.7 11.55 -18.2 L20.1 -17.5 Q29.2 -17.15 35.75 -12.3 30.4 -14.1 24.6 -14.05 22.7 -15.3 20.5 -16.1 L20.35 -16.1 Q21.05 -14.95 22.45 -14.05 L20.9 -14.0 Q19.5 -14.95 17.6 -15.45 L17.15 -15.45 Q16.7 -15.3 16.65 -15.8 16.35 -15.8 16.55 -15.65 M1.75 -5.55 L1.85 -6.0 1.85 -6.25 1.45 -6.8 1.2 -6.65 -0.25 -4.95 -0.3 -4.35 -0.25 -2.9 0.85 -1.7 Q1.65 -1.0 2.35 -1.55 1.15 -3.4 1.75 -5.55 M15.1 -9.35 L15.35 -9.85 15.1 -9.75 Q13.0 -7.85 13.4 -5.15 14.2 -4.05 15.3 -4.55 L15.2 -4.75 15.1 -9.35 M42.3 -6.95 Q43.45 5.75 38.7 16.05 L31.05 11.2 Q27.25 4.5 27.4 -2.8 L22.85 3.2 22.45 0.2 Q21.5 -4.55 23.65 -7.6 17.8 -4.85 16.05 2.0 L15.85 6.2 13.25 7.25 Q12.75 5.6 13.0 2.9 12.8 2.9 12.75 3.0 10.65 5.3 11.5 7.95 8.55 10.0 4.45 10.4 -13.15 13.2 -32.25 6.85 -32.1 4.3 -30.45 2.8 -27.8 2.5 -25.65 1.2 L-14.85 -5.1 7.05 -10.2 Q16.95 -12.15 26.85 -11.2 34.95 -11.0 42.3 -6.95 M6.45 6.5 Q5.4 4.3 5.95 1.75 L6.0 1.5 5.85 1.0 5.55 1.15 Q3.5 3.25 4.65 5.95 L5.5 6.55 6.45 6.5 M-10.95 -0.05 L-10.95 -0.55 -11.25 -0.45 Q-12.5 0.7 -12.1 2.25 -9.15 4.85 -5.95 4.75 L-6.6 4.5 Q-9.65 2.25 -10.95 -0.05 M-2.85 6.15 L-2.8 5.6 -3.0 5.65 -3.9 6.25 -3.95 6.45 -4.05 8.05 -2.7 9.4 -1.4 9.3 -2.3 8.25 -2.85 6.15" fill="#ffcc33" fill-rule="evenodd" stroke="none"/>
    <path d="M-52.2 25.9 Q-52.45 24.2 -52.0 22.5 L-50.4 21.6 -47.8 19.7 -44.05 15.95 Q-42.75 14.45 -41.95 12.7 L-50.8 19.55 -48.25 16.3 Q-45.3 12.6 -45.55 8.0 L-46.9 6.55 -42.05 6.9 -43.5 6.05 Q-45.8 4.85 -48.5 4.9 L-54.7 -0.9 -42.7 2.9 -40.7 3.25 -40.55 3.15 Q-41.3 2.7 -42.05 2.35 -46.3 -0.05 -50.95 -1.15 L-54.55 -1.8 -54.1 -3.0 -50.95 -3.6 -46.75 -3.4 -33.3 0.35 -31.3 0.75 Q-29.5 1.0 -27.85 0.75 L-27.75 0.75 -27.65 0.7 -27.5 0.7 -30.95 2.85 -30.45 2.8 Q-32.1 4.3 -32.25 6.85 -34.25 13.35 -40.35 17.8 L-52.2 25.9" fill="#ffdd44" fill-rule="evenodd" stroke="none"/>
    <path d="M7.05 -6.4 L8.25 -3.25 6.75 -5.3 6.8 -5.5 7.05 -6.4 M1.75 -5.55 Q1.15 -3.4 2.35 -1.55 L0.9 -3.4 0.85 -3.8 0.85 -4.6 0.95 -4.75 1.75 -5.55 M15.2 -4.75 Q14.05 -7.0 15.1 -9.35 L15.2 -4.75 M42.15 -8.4 L42.3 -6.95 Q34.95 -11.0 26.85 -11.2 16.95 -12.15 7.05 -10.2 L-14.85 -5.1 -13.9 -5.55 -8.7 -7.25 Q6.5 -12.55 22.8 -12.35 33.05 -12.2 42.15 -8.4 M13.0 2.9 Q12.75 5.6 13.25 7.25 13.7 8.65 14.7 9.4 14.2 9.05 13.4 9.0 L13.3 8.9 12.7 8.2 12.55 7.55 Q12.0 5.1 13.0 2.9 M6.45 6.5 L5.4 5.5 5.3 5.1 Q4.95 4.0 5.1 2.85 L5.25 2.65 5.95 1.75 Q5.4 4.3 6.45 6.5 M-10.95 -0.05 Q-9.65 2.25 -6.6 4.5 -9.35 3.4 -11.45 1.5 L-11.4 1.3 Q-11.0 0.6 -10.95 -0.05 M-2.85 6.15 L-2.3 8.25 -3.05 7.45 -3.05 7.25 -2.85 6.15" fill="#ffda6d" fill-rule="evenodd" stroke="none"/>
    <path d="M-27.3 13.2 L-29.35 13.4 -25.1 13.9 Q-26.5 14.4 -27.75 15.4 L-28.55 16.1 -29.95 18.0 Q-33.15 22.6 -36.8 26.85 L-39.75 28.9 Q-41.35 29.8 -43.1 30.35 -45.8 31.1 -48.6 30.4 -49.75 30.2 -50.55 29.8 -47.55 28.35 -44.8 26.15 L-42.5 23.95 Q-39.9 21.3 -37.8 18.15 -39.2 20.0 -41.0 21.3 L-51.25 28.8 -51.85 27.3 -52.2 25.9 -40.35 17.8 Q-34.25 13.35 -32.25 6.85 L-32.25 7.8 -31.85 9.85 -31.65 10.0 -31.4 10.25 -31.3 10.45 -31.15 11.05 Q-29.5 12.7 -27.3 13.2" fill="#e7c83d" fill-rule="evenodd" stroke="none"/>
    <path d="M38.7 16.05 Q37.4 18.9 35.65 21.55 L34.0 21.15 30.75 21.05 Q8.45 21.7 -12.45 14.35 L-13.2 14.25 -15.5 13.7 -15.5 13.65 -16.7 13.2 Q-18.5 12.6 -20.6 12.55 L-27.3 13.2 Q-29.5 12.7 -31.15 11.05 L-31.3 10.45 -31.4 10.25 -31.65 10.0 -31.85 9.85 -32.25 7.8 -32.25 6.85 Q-13.15 13.2 4.45 10.4 8.55 10.0 11.5 7.95 L12.1 9.35 Q12.85 9.9 13.05 9.65 L14.7 9.4 Q13.7 8.65 13.25 7.25 L15.85 6.2 16.05 2.0 Q17.8 -4.85 23.65 -7.6 21.5 -4.55 22.45 0.2 L22.85 3.2 27.4 -2.8 Q27.25 4.5 31.05 11.2 L38.7 16.05" fill="#ecb20a" fill-rule="evenodd" stroke="none"/>
  </g>
</svg>
