<?xml version="1.0" encoding="UTF-8" standalone="no"?>
<svg xmlns:xlink="http://www.w3.org/1999/xlink" height="52.9px" width="106.5px" xmlns="http://www.w3.org/2000/svg">
  <g transform="matrix(1.0, 0.0, 0.0, 1.0, 66.05, 25.8)">
    <path d="M16.95 -12.55 L13.3 -15.3 10.75 -16.4 Q15.25 -17.3 19.75 -16.5 28.3 -15.15 34.75 -12.8 L25.5 -13.0 19.35 -14.2 18.5 -14.8 Q18.15 -14.75 18.45 -14.6 L19.1 -14.05 19.7 -12.75 16.9 -13.9 16.8 -13.9 16.9 -13.65 16.95 -12.55 M-35.5 -0.5 L-36.45 -0.4 -36.25 -0.45 -35.9 -0.6 -35.5 -0.5 M-36.65 -0.4 L-31.0 -0.1 -29.8 -0.35 -29.7 -0.35 -10.45 -5.5 Q2.85 -9.15 15.75 -9.1 L39.9 -10.95 Q42.45 4.0 33.6 17.85 29.1 6.45 27.45 -4.0 L23.05 2.7 Q22.0 1.4 22.55 0.1 22.9 -4.1 25.65 -8.0 21.8 -6.3 18.95 -0.7 17.0 4.25 13.25 8.05 11.25 5.95 11.3 3.1 L11.3 3.05 11.25 3.05 10.05 4.4 Q9.65 6.6 11.05 8.3 L12.1 9.3 Q8.6 11.55 1.45 11.4 L-21.75 5.0 -33.05 4.1 -35.85 3.85 -39.1 4.0 -39.1 4.05 -39.15 3.55 Q-39.1 2.2 -38.55 1.0 L-36.45 -0.3 -36.65 -0.4 M4.35 -6.05 L4.25 -6.85 4.1 -6.8 3.05 -5.45 3.0 -5.25 3.1 -4.5 Q3.85 -3.75 4.8 -3.35 5.25 -3.15 5.35 -3.6 L4.95 -3.95 4.35 -6.05 M-0.9 -4.8 Q-0.75 -5.25 -0.85 -5.65 L-2.35 -4.8 -2.45 -4.65 -3.2 -3.7 -3.3 -2.45 Q-1.8 0.05 0.5 -0.8 L0.45 -1.05 0.4 -1.05 Q-0.85 -2.95 -0.9 -4.8 M11.5 -7.05 Q11.7 -7.4 11.25 -7.7 L10.05 -6.85 10.0 -5.65 Q10.6 -4.35 11.8 -3.45 12.3 -3.1 12.6 -3.6 L12.6 -3.65 11.5 -7.05 M5.7 5.25 Q4.25 3.6 4.85 0.55 4.9 0.1 4.4 0.0 L3.3 0.5 Q2.45 1.0 2.2 1.85 0.9 6.5 5.85 6.65 L6.15 6.3 6.2 5.65 5.85 5.2 5.7 5.25 M-13.3 -3.25 L-14.7 -2.1 -14.75 -1.7 Q-15.15 -0.7 -15.0 0.35 -12.9 3.55 -9.15 3.2 L-8.95 2.75 -9.3 2.1 -9.6 2.1 Q-13.1 -0.1 -13.3 -3.25 M-5.45 4.05 L-5.45 3.95 -5.5 3.7 -5.55 3.7 -6.75 4.4 Q-7.0 5.0 -6.9 5.6 -6.3 8.4 -3.55 8.05 L-3.55 7.8 Q-3.55 7.4 -3.85 7.2 -5.5 5.95 -5.45 4.05" fill="#ffcc33" fill-rule="evenodd" stroke="none"/>
    <path d="M10.75 -16.4 L13.3 -15.3 16.95 -12.55 17.95 -12.65 18.0 -12.65 17.95 -12.7 Q17.25 -13.1 16.9 -13.65 L16.8 -13.9 16.9 -13.9 19.7 -12.75 21.45 -12.85 20.6 -13.25 19.8 -13.5 19.1 -14.05 18.45 -14.6 Q18.15 -14.75 18.5 -14.8 L19.35 -14.2 25.5 -13.0 34.75 -12.8 37.2 -12.75 Q33.25 -14.25 29.2 -15.35 23.5 -16.9 17.7 -17.4 L8.1 -17.55 10.75 -16.4 M29.55 22.9 Q26.35 24.65 22.1 24.45 4.2 23.7 -12.9 17.25 L-26.6 12.1 -26.7 12.2 Q-31.75 13.6 -36.2 16.2 -42.9 20.2 -49.45 24.6 -56.0 29.05 -62.95 25.55 -63.7 25.2 -64.0 24.4 -65.1 21.4 -63.4 18.75 -60.45 14.05 -56.3 10.25 -53.65 7.85 -54.65 4.75 L-56.5 3.3 Q-60.45 0.85 -64.15 -1.9 L-65.3 -3.0 -66.0 -4.2 Q-66.2 -4.55 -65.3 -5.9 -63.95 -7.8 -61.6 -8.05 -52.2 -8.55 -43.5 -5.05 L-43.4 -5.0 Q-40.8 -3.95 -38.1 -3.3 -33.15 -2.05 -28.35 -2.1 L-15.45 -6.35 Q-5.1 -9.95 5.65 -11.4 L14.55 -12.35 10.55 -15.3 6.0 -17.55 8.85 -18.15 17.7 -18.6 Q25.55 -18.1 33.0 -15.6 L39.8 -13.05 39.85 -12.9 40.05 -12.55 40.1 -12.4 40.0 -12.2 39.8 -11.95 39.75 -11.85 39.7 -11.85 39.5 -11.8 39.4 -11.85 38.55 -11.6 38.5 -11.6 11.4 -10.05 3.85 -9.2 Q-2.5 -8.45 -8.7 -6.7 L-24.85 -2.2 -29.7 -0.35 -29.8 -0.35 -31.0 -0.1 -36.65 -0.4 -36.45 -0.4 -35.5 -0.5 -33.15 -0.85 -32.8 -0.95 -34.9 -1.3 -43.35 -3.9 Q-47.5 -5.35 -51.9 -6.15 -56.95 -7.1 -62.1 -6.35 -63.4 -6.15 -64.25 -5.2 L-64.45 -4.55 -64.45 -4.45 -64.5 -4.2 -63.85 -3.65 -63.8 -3.7 -63.05 -3.85 Q-55.1 -3.95 -48.05 -0.95 L-48.05 -0.9 -62.6 -2.6 Q-60.25 -0.85 -57.55 0.45 L-57.5 0.5 Q-54.4 0.8 -52.5 1.55 -50.85 2.15 -48.8 3.6 L-48.85 3.6 -51.5 2.7 -55.25 2.0 Q-53.85 3.25 -53.0 5.1 -52.35 6.5 -53.0 7.9 -54.15 10.4 -55.8 12.6 -51.8 10.95 -48.85 7.8 -52.1 13.15 -57.9 14.95 L-61.0 17.8 -61.65 18.65 Q-62.45 19.8 -62.65 21.05 -54.05 19.15 -46.35 14.65 -45.9 14.15 -45.25 13.95 L-45.2 13.95 Q-52.05 20.85 -62.05 22.6 L-62.65 22.65 -62.15 24.4 Q-55.25 27.1 -49.05 22.6 L-37.7 14.9 Q-34.45 12.85 -30.8 11.55 L-29.65 11.2 -35.4 8.8 -35.35 8.8 -34.85 8.9 Q-25.5 10.7 -16.5 14.1 -7.35 17.55 2.2 20.0 11.35 22.35 20.65 22.45 L28.95 22.35 Q29.5 22.35 29.55 22.9 M4.95 -3.95 L5.35 -3.6 Q5.25 -3.15 4.8 -3.35 3.85 -3.75 3.1 -4.5 L3.0 -5.25 3.05 -5.45 4.1 -6.8 4.25 -6.85 4.35 -6.05 3.8 -5.15 3.75 -5.05 4.95 -3.95 M0.4 -1.05 L0.45 -1.05 0.5 -0.8 Q-1.8 0.05 -3.3 -2.45 L-3.2 -3.7 -2.45 -4.65 -2.35 -4.8 -0.85 -5.65 Q-0.75 -5.25 -0.9 -4.8 -1.15 -4.1 -2.05 -3.3 L-2.1 -3.25 Q-1.2 -1.85 0.4 -1.05 M12.6 -3.65 L12.6 -3.6 Q12.3 -3.1 11.8 -3.45 10.6 -4.35 10.0 -5.65 L10.05 -6.85 11.25 -7.7 Q11.7 -7.4 11.5 -7.05 L11.0 -6.65 10.85 -6.55 Q11.25 -4.85 12.6 -3.65 M14.1 8.85 L14.15 8.95 Q13.15 9.95 12.1 9.3 L11.05 8.3 Q9.65 6.6 10.05 4.4 L11.25 3.05 11.3 3.05 11.3 3.1 11.1 3.45 11.0 3.55 Q10.25 7.35 14.1 8.85 M4.85 0.55 L4.8 0.7 Q1.75 2.2 3.7 4.6 4.35 5.35 5.3 5.25 L5.7 5.25 5.85 5.2 6.2 5.65 6.15 6.3 5.85 6.65 Q0.9 6.5 2.2 1.85 2.45 1.0 3.3 0.5 L4.4 0.0 Q4.9 0.1 4.85 0.55 M-59.55 -25.7 L-59.75 -25.8 -59.55 -25.8 -59.55 -25.7 M-9.6 2.1 L-9.3 2.1 -8.95 2.75 -9.15 3.2 Q-12.9 3.55 -15.0 0.35 -15.15 -0.7 -14.75 -1.7 L-14.7 -2.1 -13.3 -3.25 Q-13.45 -2.7 -13.9 -2.15 L-14.05 -2.0 -14.1 -0.4 -14.05 -0.05 Q-12.3 1.85 -9.6 2.1 M-3.85 7.2 Q-3.55 7.4 -3.55 7.8 L-3.55 8.05 Q-6.3 8.4 -6.9 5.6 -7.0 5.0 -6.75 4.4 L-5.55 3.7 -5.5 3.7 -5.45 3.95 -5.45 4.05 -6.05 4.6 -6.15 4.7 -6.15 5.9 Q-5.2 6.9 -3.85 7.2" fill="#000000" fill-rule="evenodd" stroke="none"/>
    <path d="M16.95 -12.55 L16.9 -13.65 Q17.25 -13.1 17.95 -12.7 L17.95 -12.65 16.95 -12.55 M19.7 -12.75 L19.1 -14.05 19.8 -13.5 20.6 -13.25 21.45 -12.85 19.7 -12.75 M-29.7 -0.35 L-24.85 -2.2 -8.7 -6.7 Q-2.5 -8.45 3.85 -9.2 L11.4 -10.05 38.5 -11.6 38.55 -11.6 39.4 -11.85 39.5 -11.8 39.7 -11.85 39.75 -11.85 39.9 -10.95 15.75 -9.1 Q2.85 -9.15 -10.45 -5.5 L-29.7 -0.35 M4.35 -6.05 L4.95 -3.95 3.75 -5.05 3.8 -5.15 4.35 -6.05 M-0.9 -4.8 Q-0.85 -2.95 0.4 -1.05 -1.2 -1.85 -2.1 -3.25 L-2.05 -3.3 Q-1.15 -4.1 -0.9 -4.8 M11.5 -7.05 L12.6 -3.65 Q11.25 -4.85 10.85 -6.55 L11.0 -6.65 11.5 -7.05 M13.25 8.05 L14.1 8.85 Q10.25 7.35 11.0 3.55 L11.1 3.45 11.3 3.1 Q11.25 5.95 13.25 8.05 M5.7 5.25 L5.3 5.25 Q4.35 5.35 3.7 4.6 1.75 2.2 4.8 0.7 L4.85 0.55 Q4.25 3.6 5.7 5.25 M-9.6 2.1 Q-12.3 1.85 -14.05 -0.05 L-14.1 -0.4 -14.05 -2.0 -13.9 -2.15 Q-13.45 -2.7 -13.3 -3.25 -13.1 -0.1 -9.6 2.1 M-3.85 7.2 Q-5.2 6.9 -6.15 5.9 L-6.15 4.7 -6.05 4.6 -5.45 4.05 Q-5.5 5.95 -3.85 7.2" fill="#ffda6d" fill-rule="evenodd" stroke="none"/>
    <path d="M34.75 -12.8 Q28.3 -15.15 19.75 -16.5 15.25 -17.3 10.75 -16.4 L8.1 -17.55 17.7 -17.4 Q23.5 -16.9 29.2 -15.35 33.25 -14.25 37.2 -12.75 L34.75 -12.8" fill="#ecba29" fill-rule="evenodd" stroke="none"/>
    <path d="M29.55 22.9 Q29.5 22.35 28.95 22.35 L20.65 22.45 Q11.35 22.35 2.2 20.0 -7.35 17.55 -16.5 14.1 -25.5 10.7 -34.85 8.9 -35.65 8.3 -36.45 8.9 L-37.4 8.3 -39.0 5.85 -39.1 4.05 -39.1 4.0 -35.85 3.85 -33.05 4.1 -21.75 5.0 1.45 11.4 Q8.6 11.55 12.1 9.3 13.15 9.95 14.15 8.95 L14.1 8.85 13.25 8.05 Q17.0 4.25 18.95 -0.7 21.8 -6.3 25.65 -8.0 22.9 -4.1 22.55 0.1 22.0 1.4 23.05 2.7 L27.45 -4.0 Q29.1 6.45 33.6 17.85 32.45 19.7 29.55 22.9" fill="#ecb20a" fill-rule="evenodd" stroke="none"/>
    <path d="M-61.65 18.65 L-61.0 17.8 -57.9 14.95 Q-52.1 13.15 -48.85 7.8 -51.8 10.95 -55.8 12.6 -54.15 10.4 -53.0 7.9 -52.35 6.5 -53.0 5.1 -53.85 3.25 -55.25 2.0 L-51.5 2.7 -48.85 3.6 -48.8 3.6 Q-50.85 2.15 -52.5 1.55 -54.4 0.8 -57.5 0.5 L-57.55 0.45 Q-60.25 -0.85 -62.6 -2.6 L-48.05 -0.9 -48.05 -0.95 Q-55.1 -3.95 -63.05 -3.85 L-63.8 -3.7 -63.85 -3.65 -64.5 -4.2 -64.45 -4.45 -64.45 -4.55 -64.25 -5.2 Q-63.4 -6.15 -62.1 -6.35 -56.95 -7.1 -51.9 -6.15 -47.5 -5.35 -43.35 -3.9 L-34.9 -1.3 -32.8 -0.95 -33.15 -0.85 -35.5 -0.5 -35.9 -0.6 -36.25 -0.45 -36.45 -0.4 -36.65 -0.4 -36.45 -0.3 -38.55 1.0 Q-39.1 2.2 -39.15 3.55 L-39.1 4.05 Q-42.9 6.85 -45.65 11.4 -51.55 17.45 -61.65 18.65" fill="#ffdd44" fill-rule="evenodd" stroke="none"/>
    <path d="M-34.85 8.9 L-35.35 8.8 -35.4 8.8 -29.65 11.2 -30.8 11.55 Q-34.45 12.85 -37.7 14.9 L-49.05 22.6 Q-55.25 27.1 -62.15 24.4 L-62.65 22.65 -62.05 22.6 Q-52.05 20.85 -45.2 13.95 L-45.25 13.95 Q-45.9 14.15 -46.35 14.65 -54.05 19.15 -62.65 21.05 -62.45 19.8 -61.65 18.65 -51.55 17.45 -45.65 11.4 -42.9 6.85 -39.1 4.05 L-39.0 5.85 -37.4 8.3 -36.45 8.9 Q-35.65 8.3 -34.85 8.9" fill="#e7c83d" fill-rule="evenodd" stroke="none"/>
  </g>
</svg>
