<?xml version="1.0" encoding="UTF-8" standalone="no"?>
<svg xmlns:xlink="http://www.w3.org/1999/xlink" height="47.25px" width="44.1px" xmlns="http://www.w3.org/2000/svg">
  <g transform="matrix(1.0, 0.0, 0.0, 1.0, 22.05, 23.6)">
    <path d="M5.35 -14.75 L16.6 -20.4 16.9 -19.65 7.6 -6.1 21.55 -2.65 21.35 -2.05 7.15 4.3 13.4 15.9 12.95 16.95 -0.05 9.65 -14.2 23.15 -8.1 2.6 -21.55 4.4 -10.2 -6.05 -21.3 -16.15 -21.3 -16.6 -4.75 -9.7 2.6 -23.1 5.35 -14.75 M4.4 -4.35 Q3.6 -7.75 5.75 -10.5 -0.25 -3.6 0.9 -12.35 L-3.75 -5.0 -7.05 -6.4 -5.8 -4.35 -9.75 -0.75 -4.1 0.45 -6.2 7.1 -2.15 4.05 3.5 7.75 2.65 2.0 9.25 -1.0 Q7.4 -1.2 6.0 -2.05 4.75 -2.85 4.4 -4.35" fill="#33ffff" fill-rule="evenodd" stroke="none"/>
    <path d="M4.4 -4.35 Q4.75 -2.85 6.0 -2.05 7.4 -1.2 9.25 -1.0 L2.65 2.0 3.5 7.75 -2.15 4.05 -6.2 7.1 -4.1 0.45 -9.75 -0.75 -5.8 -4.35 -7.05 -6.4 -3.75 -5.0 0.9 -12.35 Q-0.25 -3.6 5.75 -10.5 3.6 -7.75 4.4 -4.35" fill="#ffff00" fill-rule="evenodd" stroke="none"/>
    <path d="M5.35 -14.75 L16.6 -20.4 16.9 -19.65 7.6 -6.1 21.55 -2.65 21.35 -2.05 7.15 4.3 13.4 15.9 12.95 16.95 -0.05 9.65 -14.2 23.15 -8.1 2.6 -21.55 4.4 -10.2 -6.05 -21.3 -16.15 -21.3 -16.6 -4.75 -9.7 2.6 -23.1 5.35 -14.75 Z" fill="none" stroke="#0066cc" stroke-linecap="round" stroke-linejoin="round" stroke-width="1.0"/>
  </g>
</svg>
