<?xml version="1.0" encoding="UTF-8" standalone="no"?>
<svg xmlns:xlink="http://www.w3.org/1999/xlink" height="67.95px" width="76.65px" xmlns="http://www.w3.org/2000/svg">
  <g transform="matrix(1.0, 0.0, 0.0, 1.0, 36.15, 35.0)">
    <path d="M40.0 -14.4 L8.05 -2.2 18.4 5.9 5.95 2.85 12.25 32.45 11.55 32.3 -2.6 2.85 -29.85 18.2 -30.1 17.7 -30.0 17.1 -20.25 3.3 -35.65 -0.9 -9.8 -4.9 -25.45 -23.5 -24.8 -23.95 -3.95 -14.4 8.65 -34.5 2.7 -8.2 40.0 -14.4 M8.4 -7.7 L1.65 -6.25 1.6 -16.1 -2.1 -7.4 -8.85 -11.9 -9.35 -11.5 -3.15 -4.2 -14.3 1.35 -1.7 -1.05 2.55 5.45 3.1 5.2 2.75 -1.75 8.45 -6.6 8.4 -7.7" fill="#33ffff" fill-rule="evenodd" stroke="none"/>
    <path d="M8.4 -7.7 L8.45 -6.6 2.75 -1.75 3.1 5.2 2.55 5.45 -1.7 -1.05 -14.3 1.35 -3.15 -4.2 -9.35 -11.5 -8.85 -11.9 -2.1 -7.4 1.6 -16.1 1.65 -6.25 8.4 -7.7" fill="#ffff00" fill-rule="evenodd" stroke="none"/>
    <path d="M40.0 -14.4 L2.7 -8.2 8.65 -34.5 -3.95 -14.4 -24.8 -23.95 -25.45 -23.5 -9.8 -4.9 -35.65 -0.9 -20.25 3.3 -30.0 17.1 -30.1 17.7 -29.85 18.2 -2.6 2.85 11.55 32.3 12.25 32.45 5.95 2.85 18.4 5.9 8.05 -2.2 40.0 -14.4 Z" fill="none" stroke="#0066cc" stroke-linecap="round" stroke-linejoin="round" stroke-width="1.0"/>
  </g>
</svg>
