<?xml version="1.0" encoding="UTF-8" standalone="no"?>
<svg xmlns:xlink="http://www.w3.org/1999/xlink" height="33.2px" width="49.4px" xmlns="http://www.w3.org/2000/svg">
  <g transform="matrix(1.0, 0.0, 0.0, 1.0, 23.0, 20.3)">
    <path d="M8.15 -2.2 L1.15 -0.7 1.75 1.6 -0.55 0.5 -1.2 1.4 -1.85 2.8 -2.6 3.1 -3.3 -0.8 -10.3 -1.9 -6.9 -3.75 -9.15 -4.9 -4.7 -5.7 -4.45 -8.1 Q-1.4 -2.7 3.8 -7.65 L2.85 -5.65 2.65 -5.1 1.95 -4.55 8.15 -2.2" fill="#ffff00" fill-rule="evenodd" stroke="none"/>
    <path d="M5.15 -6.15 L25.9 -1.6 3.7 2.1 3.65 9.5 3.1 9.65 2.65 9.35 0.3 3.4 -5.05 12.4 -5.65 11.95 -4.4 0.6 -22.5 -0.2 -11.35 -4.65 -21.45 -9.6 -7.1 -7.05 -9.6 -15.9 -1.25 -7.95 11.25 -19.8 5.15 -6.15 M8.15 -2.2 L1.95 -4.55 2.65 -5.1 2.85 -5.65 3.8 -7.65 Q-1.4 -2.7 -4.45 -8.1 L-4.7 -5.7 -9.15 -4.9 -6.9 -3.75 -10.3 -1.9 -3.3 -0.8 -2.6 3.1 -1.85 2.8 -1.2 1.4 -0.55 0.5 1.75 1.6 1.15 -0.7 8.15 -2.2" fill="#33ffff" fill-rule="evenodd" stroke="none"/>
    <path d="M5.15 -6.15 L25.9 -1.6 3.7 2.1 3.65 9.5 3.1 9.65 2.65 9.35 0.3 3.4 -5.05 12.4 -5.65 11.95 -4.4 0.6 -22.5 -0.2 -11.35 -4.65 -21.45 -9.6 -7.1 -7.05 -9.6 -15.9 -1.25 -7.95 11.25 -19.8 5.15 -6.15 Z" fill="none" stroke="#0066cc" stroke-linecap="round" stroke-linejoin="round" stroke-width="1.0"/>
  </g>
</svg>
