<?xml version="1.0" encoding="UTF-8" standalone="no"?>
<svg xmlns:xlink="http://www.w3.org/1999/xlink" height="46.55px" width="132.6px" xmlns="http://www.w3.org/2000/svg">
  <g transform="matrix(1.0, 0.0, 0.0, 1.0, 62.4, 19.5)">
    <path d="M-20.9 8.6 L-23.65 8.15 Q-29.05 8.15 -37.25 12.8 -45.4 17.45 -47.1 17.45 L-48.0 17.45 -49.25 17.55 Q-50.15 17.55 -50.15 16.7 -50.15 15.9 -47.35 11.35 -44.55 6.85 -44.55 5.55 -44.55 4.85 -53.45 -2.0 -62.4 -8.8 -62.4 -11.2 L-62.4 -11.95 Q-62.15 -12.45 -60.7 -12.45 L-45.65 -8.95 Q-31.3 -5.45 -26.55 -5.45 L-22.7 -5.75 -26.1 -4.1 -27.2 -4.05 -27.35 -4.05 Q-37.2 -4.05 -60.8 -10.8 L-60.75 -10.7 -60.0 -9.9 -59.55 -9.45 -59.1 -9.0 -59.05 -8.95 -58.0 -7.95 -57.75 -7.75 -56.75 -6.85 -51.3 -2.4 -45.1 1.7 Q-42.9 3.3 -42.9 5.6 -42.9 7.4 -44.7 10.6 L-47.55 15.45 -47.55 15.6 -47.5 15.6 -47.2 15.55 -45.0 15.0 -43.65 14.45 -39.8 12.3 -39.1 11.9 Q-37.35 10.85 -35.45 10.05 L-32.65 9.05 Q-29.6 7.85 -26.2 7.05 -24.35 6.55 -22.5 7.0 L-20.9 8.6 M-43.15 -2.7 Q-45.5 -3.2 -47.15 -4.1 L-46.05 -3.85 -42.05 -3.35 -41.75 -3.3 -39.85 -3.0 -39.45 -2.9 -32.9 -1.55 -27.75 0.0 -26.8 0.4 Q-26.6 0.9 -26.85 1.4 -27.1 1.9 -27.9 2.45 L-31.05 4.5 -33.8 6.2 -37.65 8.2 -36.15 6.85 -32.15 3.55 -36.8 4.65 Q-35.95 3.3 -34.5 2.85 L-30.55 1.45 -39.7 1.15 -39.35 0.7 Q-38.6 0.25 -37.7 0.1 L-33.65 -0.05 Q-35.8 -0.4 -37.9 -1.1 L-43.15 -2.7" fill="#000000" fill-rule="evenodd" stroke="none"/>
    <path d="M-59.05 -8.95 L-59.1 -9.0 -59.55 -9.45 -60.0 -9.9 -60.75 -10.7 -60.8 -10.8 Q-37.2 -4.05 -27.35 -4.05 L-27.2 -4.05 -26.1 -4.1 -26.0 -4.1 -26.5 -3.8 -27.45 -3.35 Q-28.7 -2.85 -29.75 -2.85 -35.5 -2.85 -52.1 -6.2 -53.65 -6.5 -57.8 -8.4 L-59.05 -8.95" fill="#cccccc" fill-rule="evenodd" stroke="none"/>
    <path d="M-22.7 -5.75 L-20.85 -2.7 -20.85 -2.5 -22.7 -5.75 -20.85 8.6 -20.9 8.6 -22.5 7.0 -22.4 7.0 -24.85 4.6 -24.95 4.5 -25.05 4.35 Q-26.6 3.75 -27.2 3.95 L-29.95 5.0 Q-32.55 6.15 -35.05 7.45 L-39.1 9.75 -41.75 11.5 -44.0 13.0 -45.8 14.4 -47.2 15.55 -47.5 15.6 -47.55 15.45 -44.7 10.6 Q-42.9 7.4 -42.9 5.6 -42.9 3.3 -45.1 1.7 L-51.3 -2.4 -56.75 -6.85 -57.75 -7.75 -58.0 -7.95 -59.05 -8.95 -57.8 -8.4 Q-53.65 -6.5 -52.1 -6.2 -35.5 -2.85 -29.75 -2.85 -28.7 -2.85 -27.45 -3.35 L-26.5 -3.8 -26.0 -4.1 -26.1 -4.1 -22.7 -5.75 M-43.15 -2.7 L-37.9 -1.1 Q-35.8 -0.4 -33.65 -0.05 L-37.7 0.1 Q-38.6 0.25 -39.35 0.7 L-39.7 1.15 -30.55 1.45 -34.5 2.85 Q-35.95 3.3 -36.8 4.65 L-32.15 3.55 -36.15 6.85 -37.65 8.2 -33.8 6.2 -31.05 4.5 -27.9 2.45 Q-27.1 1.9 -26.85 1.4 -26.6 0.9 -26.8 0.4 L-27.75 0.0 -32.9 -1.55 -39.45 -2.9 -39.85 -3.0 -41.75 -3.3 -42.05 -3.35 -46.05 -3.85 -47.15 -4.1 Q-45.5 -3.2 -43.15 -2.7 M-27.7 0.05 L-27.7 0.0 -27.75 0.0 -27.7 0.0 -27.7 0.05" fill="#999999" fill-rule="evenodd" stroke="none"/>
    <path d="M-22.5 7.0 Q-24.35 6.55 -26.2 7.05 -29.6 7.85 -32.65 9.05 L-35.45 10.05 Q-37.35 10.85 -39.1 11.9 L-39.8 12.3 -43.65 14.45 -45.0 15.0 -47.2 15.55 -45.8 14.4 -44.0 13.0 -41.75 11.5 -39.1 9.75 -35.05 7.45 Q-32.55 6.15 -29.95 5.0 L-27.2 3.95 Q-26.6 3.75 -25.05 4.35 L-24.95 4.5 -24.85 4.6 -22.4 7.0 -22.5 7.0" fill="#666666" fill-rule="evenodd" stroke="none"/>
    <path d="M-6.25 -16.65 L-4.65 -15.6 -6.45 -16.7 -1.15 -12.9 Q2.55 -9.75 2.25 -9.35 4.4 -9.2 4.4 -8.75 L2.55 -8.6 -15.6 -6.0 -19.1 -5.15 -25.85 -3.5 -26.85 -3.4 -26.95 -3.35 -26.95 -3.4 -25.9 -4.1 -26.0 -4.1 -22.5 -5.75 -19.1 -6.9 -18.1 -7.2 Q-10.1 -9.45 -0.5 -9.45 L0.4 -9.45 -4.05 -13.5 Q-6.5 -15.3 -11.45 -17.6 -12.9 -18.35 -11.45 -19.05 L-4.85 -19.5 Q9.95 -19.5 21.45 -14.9 L27.7 -11.45 32.55 -8.25 34.4 -7.85 37.0 -7.2 Q40.5 -6.35 42.2 -5.45 L44.7 -5.55 Q47.2 -5.55 49.05 -4.35 L49.3 -4.2 Q50.75 -3.2 50.85 -2.4 51.95 -1.6 52.45 -0.25 55.35 0.2 65.05 6.55 68.85 6.65 69.65 8.4 70.45 10.15 70.05 12.3 L69.7 13.6 68.9 14.9 66.6 15.25 66.6 15.35 Q66.6 18.5 59.85 22.15 58.15 23.1 56.25 23.85 50.65 26.05 43.65 26.55 L37.9 27.05 36.4 27.05 27.4 26.6 12.95 24.6 Q4.2 23.2 -4.05 19.85 -12.3 16.45 -18.95 10.2 L-19.1 10.1 -20.65 8.65 -24.85 4.6 -25.05 4.3 -25.55 3.5 -25.25 3.45 Q-24.55 3.45 -23.8 3.95 -21.45 5.35 -19.6 7.4 L-19.1 7.95 -16.15 10.7 -11.6 14.15 Q-9.3 15.65 -6.65 16.85 L-2.55 18.5 1.5 20.05 5.7 21.25 9.95 22.1 14.3 22.95 18.6 23.7 23.0 24.35 27.4 24.85 32.7 25.05 37.25 25.05 42.55 25.0 45.5 24.8 50.8 24.0 53.1 23.3 56.25 22.15 57.1 21.75 Q59.65 20.55 61.65 18.65 L62.25 18.1 62.6 17.8 62.6 17.75 65.3 15.15 64.35 15.25 60.45 15.45 Q58.7 15.65 57.65 16.15 L56.25 16.7 55.65 16.85 56.25 16.2 Q57.05 15.55 58.75 14.85 61.05 13.85 63.4 13.6 L65.15 13.5 66.3 13.6 66.55 13.65 66.65 13.65 67.9 13.7 67.9 13.6 68.5 12.75 Q69.15 11.95 68.4 8.55 L64.3 8.1 60.55 8.4 Q59.6 8.6 58.6 8.95 L57.05 9.5 56.5 9.75 54.6 10.65 53.55 11.25 Q53.2 11.4 49.0 15.25 L48.2 16.0 Q48.55 13.35 52.4 10.3 L53.55 9.5 54.25 9.0 Q55.6 8.2 57.05 7.65 L58.6 7.15 60.55 6.75 62.55 6.55 57.6 3.6 52.8 1.65 Q52.65 3.35 51.15 4.8 L49.7 5.9 Q47.25 6.85 44.65 6.95 41.75 7.3 39.65 5.4 38.95 4.75 38.55 3.85 38.05 2.75 38.5 1.6 39.25 -0.3 40.65 -1.55 41.2 -2.1 41.9 -2.5 43.85 -3.5 46.1 -3.6 45.1 -4.45 43.75 -4.45 L39.3 -3.95 39.15 -4.3 39.25 -4.6 39.75 -5.0 37.0 -5.65 33.3 -6.6 Q26.05 -8.25 25.05 -9.0 L26.35 -9.2 26.5 -9.2 28.95 -8.9 29.1 -8.9 28.95 -9.0 28.75 -9.15 27.65 -9.95 27.25 -10.2 Q24.95 -11.75 22.9 -12.7 12.0 -17.9 -7.9 -18.05 L-9.1 -17.95 Q-7.85 -17.55 -6.25 -16.65 M40.85 7.85 L40.6 7.9 40.0 8.0 Q37.75 8.0 36.3 6.35 35.1 5.05 35.1 3.8 35.1 3.0 35.25 2.4 L35.3 2.25 35.7 1.4 36.25 1.25 36.3 1.45 36.2 2.25 Q36.15 3.0 36.5 3.75 L37.25 4.95 Q39.25 7.0 41.85 7.5 L40.85 7.85 M-9.05 -18.05 L-9.35 -18.0 -9.1 -17.95 -9.35 -18.0 -9.05 -18.05 M49.95 -0.6 L48.5 -1.55 46.2 -2.0 43.9 -1.55 Q42.65 -1.05 41.5 0.05 39.75 1.7 39.75 2.6 39.75 5.4 44.55 5.4 47.9 5.4 49.8 3.7 L50.0 3.35 Q49.3 3.35 49.05 2.55 L48.95 1.7 Q48.95 -0.2 50.3 -0.3 L49.95 -0.6 M50.1 3.45 L50.2 3.35 50.0 3.35 50.2 3.35 50.1 3.45 M60.55 8.4 L60.55 6.75 60.55 8.4 M36.25 1.4 L36.3 1.45 36.25 1.4 M29.15 7.0 L28.8 8.6 Q28.8 17.15 41.1 21.45 40.65 22.2 39.8 22.2 35.0 22.2 31.05 17.55 27.6 13.55 27.6 10.35 L27.8 7.55 Q28.15 5.15 28.55 5.0 29.3 6.25 29.15 7.0 M24.5 11.1 Q24.25 13.5 27.15 16.6 30.1 19.7 34.1 21.15 L34.1 21.2 33.2 21.3 Q29.25 21.3 26.5 17.85 24.15 14.95 24.15 12.1 24.15 11.25 24.5 11.1" fill="#000000" fill-rule="evenodd" stroke="none"/>
    <path d="M2.55 -8.55 L2.55 -8.6 2.55 -8.55 M-26.95 -3.35 L-26.85 -3.4 -25.85 -3.5 -19.1 -5.15 -15.6 -6.0 2.55 -8.6 4.4 -8.75 Q4.4 -9.2 2.25 -9.35 2.55 -9.75 -1.15 -12.9 L-6.45 -16.7 -4.65 -15.6 -6.25 -16.65 Q8.4 -16.3 16.7 -9.95 L25.85 -9.3 26.35 -9.2 25.05 -9.0 Q26.05 -8.25 33.3 -6.6 L37.0 -5.65 39.75 -5.0 39.25 -4.6 39.15 -4.3 39.3 -3.95 38.7 -3.95 37.95 -3.65 37.2 -3.35 37.0 -3.35 36.25 -3.4 34.8 -3.75 30.1 -4.45 25.0 -5.2 23.05 -5.4 21.35 -5.5 18.2 -5.6 17.4 -5.6 16.45 -5.6 14.35 -5.8 12.25 -5.9 10.2 -5.9 6.55 -5.65 3.2 -5.45 0.35 -5.15 -2.55 -4.95 -4.8 -4.65 -7.1 -4.45 -12.25 -3.5 -19.1 -1.75 -20.25 -1.35 -19.1 -1.35 -16.8 -1.45 -13.4 -1.5 -10.0 -1.5 -6.6 -1.45 -3.2 -1.4 0.2 -1.3 3.6 -1.1 6.9 -0.95 10.3 -0.65 13.6 -0.4 20.25 0.3 33.4 2.25 35.25 2.4 Q35.1 3.0 35.1 3.8 35.1 5.05 36.3 6.35 37.75 8.0 40.0 8.0 L40.6 7.9 40.85 7.85 45.05 7.9 Q47.8 7.85 49.7 5.9 L51.15 4.8 Q52.65 3.35 52.8 1.65 L57.6 3.6 62.55 6.55 60.55 6.75 58.6 7.15 57.05 7.65 Q55.6 8.2 54.25 9.0 L53.55 9.5 52.4 10.3 Q48.55 13.35 48.2 16.0 L49.0 15.25 Q53.2 11.4 53.55 11.25 L54.6 10.65 56.5 9.75 57.05 9.5 58.6 8.95 Q59.6 8.6 60.55 8.4 L64.3 8.1 68.4 8.55 Q69.15 11.95 68.5 12.75 L67.9 13.6 67.9 13.7 66.65 13.65 66.55 13.65 66.3 13.6 65.15 13.5 63.4 13.6 Q61.05 13.85 58.75 14.85 57.05 15.55 56.25 16.2 L55.65 16.85 56.25 16.7 57.65 16.15 Q58.7 15.65 60.45 15.45 L64.35 15.25 65.3 15.15 62.6 17.75 62.6 17.8 58.4 20.15 56.25 21.1 53.5 22.1 49.05 22.9 44.3 23.8 39.05 24.0 34.85 23.65 28.45 22.75 23.85 22.05 19.7 21.3 15.9 20.4 9.5 18.8 5.75 17.85 Q2.9 17.2 0.15 16.1 L-3.65 14.3 -8.55 11.65 -11.6 9.8 -15.1 7.4 -18.6 5.0 -19.1 4.65 Q-20.6 3.65 -22.25 2.6 -23.4 1.8 -24.65 1.4 -25.15 1.6 -25.5 1.95 L-25.8 2.85 Q-28.55 -1.55 -26.95 -3.35 M27.65 -9.95 L27.25 -10.15 27.25 -10.2 27.65 -9.95 M24.5 11.1 Q24.15 11.25 24.15 12.1 24.15 14.95 26.5 17.85 29.25 21.3 33.2 21.3 L34.1 21.2 34.1 21.15 Q30.1 19.7 27.15 16.6 24.25 13.5 24.5 11.1 M29.15 7.0 Q29.3 6.25 28.55 5.0 28.15 5.15 27.8 7.55 L27.6 10.35 Q27.6 13.55 31.05 17.55 35.0 22.2 39.8 22.2 40.65 22.2 41.1 21.45 28.8 17.15 28.8 8.6 L29.15 7.0 M-26.0 -4.1 L-25.9 -4.1 -26.95 -3.4 -27.0 -3.55 -26.5 -3.8 -26.0 -4.1 M-28.6 -0.6 L-28.55 -0.3 -28.6 -0.3 -28.6 -0.6" fill="#999999" fill-rule="evenodd" stroke="none"/>
    <path d="M19.9 -2.25 Q19.05 -2.6 18.75 -2.85 L21.0 -3.45 22.65 -2.8 24.0 -1.85 19.9 -2.25 M18.2 -3.95 L18.25 -3.95 18.2 -3.9 18.2 -3.95 M10.7 -4.0 L14.45 -2.6 Q4.2 -3.0 -2.45 -3.0 L-3.05 -3.05 10.7 -4.0 M26.15 -3.2 L26.05 -3.15 26.05 -3.2 26.15 -3.2 M49.95 -0.6 L50.3 -0.3 Q48.95 -0.2 48.95 1.7 L49.05 2.55 Q49.3 3.35 50.0 3.35 L49.8 3.7 Q47.9 5.4 44.55 5.4 39.75 5.4 39.75 2.6 39.75 1.7 41.5 0.05 42.65 -1.05 43.9 -1.55 L46.2 -2.0 48.5 -1.55 49.95 -0.6" fill="#ffffff" fill-rule="evenodd" stroke="none"/>
    <path d="M49.7 5.9 Q47.8 7.85 45.05 7.9 L40.85 7.85 41.85 7.5 Q39.25 7.0 37.25 4.95 L36.5 3.75 Q36.15 3.0 36.2 2.25 L36.3 1.45 36.25 1.25 35.7 1.4 35.3 2.25 35.25 2.4 33.4 2.25 20.25 0.3 13.6 -0.4 10.3 -0.65 6.9 -0.95 3.6 -1.1 0.2 -1.3 -3.2 -1.4 -6.6 -1.45 -10.0 -1.5 -13.4 -1.5 -16.8 -1.45 -19.1 -1.35 -20.25 -1.35 -19.1 -1.75 -12.25 -3.5 -7.1 -4.45 -4.8 -4.65 -2.55 -4.95 0.35 -5.15 3.2 -5.45 6.55 -5.65 10.2 -5.9 12.25 -5.9 14.35 -5.8 16.45 -5.6 17.4 -5.6 18.2 -5.6 21.35 -5.5 23.05 -5.4 25.0 -5.2 30.1 -4.45 34.8 -3.75 36.25 -3.4 37.0 -3.35 37.2 -3.35 37.95 -3.65 38.7 -3.95 39.3 -3.95 43.75 -4.45 Q45.1 -4.45 46.1 -3.6 43.85 -3.5 41.9 -2.5 41.2 -2.1 40.65 -1.55 39.25 -0.3 38.5 1.6 38.05 2.75 38.55 3.85 38.95 4.75 39.65 5.4 41.75 7.3 44.65 6.95 47.25 6.85 49.7 5.9 M26.35 -9.2 L25.85 -9.3 16.7 -9.95 Q8.4 -16.3 -6.25 -16.65 -7.85 -17.55 -9.1 -17.95 L-7.9 -18.05 Q12.0 -17.9 22.9 -12.7 24.95 -11.75 27.25 -10.2 L27.25 -10.15 27.65 -9.95 28.75 -9.15 28.95 -9.0 28.95 -8.9 26.5 -9.2 26.35 -9.2 M10.7 -4.0 L-3.05 -3.05 -2.45 -3.0 Q4.2 -3.0 14.45 -2.6 L10.7 -4.0 M18.2 -3.95 L18.2 -3.9 18.25 -3.95 18.2 -3.95 M19.9 -2.25 L24.0 -1.85 22.65 -2.8 21.0 -3.45 18.75 -2.85 Q19.05 -2.6 19.9 -2.25 M26.15 -3.2 L26.05 -3.2 26.05 -3.15 26.15 -3.2 M-27.0 -3.55 Q-27.85 -3.15 -28.6 -2.95 L-28.6 -4.05 -27.35 -4.05 -27.2 -4.05 -27.15 -4.05 -26.0 -4.1 -26.5 -3.8 -27.0 -3.55 M-27.7 0.05 L-27.75 0.0 -27.7 0.0 -27.7 0.05" fill="#cccccc" fill-rule="evenodd" stroke="none"/>
    <path d="M-25.8 2.85 L-25.5 1.95 Q-25.15 1.6 -24.65 1.4 -23.4 1.8 -22.25 2.6 -20.6 3.65 -19.1 4.65 L-18.6 5.0 -15.1 7.4 -11.6 9.8 -8.55 11.65 -3.65 14.3 0.15 16.1 Q2.9 17.2 5.75 17.85 L9.5 18.8 15.9 20.4 19.7 21.3 23.85 22.05 28.45 22.75 34.85 23.65 39.05 24.0 44.3 23.8 49.05 22.9 53.5 22.1 56.25 21.1 58.4 20.15 62.6 17.8 62.25 18.1 61.65 18.65 Q59.65 20.55 57.1 21.75 L56.25 22.15 53.1 23.3 50.8 24.0 45.5 24.8 42.55 25.0 37.25 25.05 32.7 25.05 27.4 24.85 23.0 24.35 18.6 23.7 14.3 22.95 9.95 22.1 5.7 21.25 1.5 20.05 -2.55 18.5 -6.65 16.85 Q-9.3 15.65 -11.6 14.15 L-16.15 10.7 -19.1 7.95 -19.6 7.4 Q-21.45 5.35 -23.8 3.95 -24.55 3.45 -25.25 3.45 L-25.55 3.5 -25.8 2.85" fill="#666666" fill-rule="evenodd" stroke="none"/>
  </g>
</svg>
