<?xml version="1.0" encoding="UTF-8" standalone="no"?>
<svg xmlns:xlink="http://www.w3.org/1999/xlink" height="12.0px" width="22.15px" xmlns="http://www.w3.org/2000/svg">
  <g transform="matrix(1.0, 0.0, 0.0, 1.0, 11.05, 12.0)">
    <path d="M6.45 -12.0 L10.8 -11.05 Q7.6 -9.75 5.2 -7.05 L1.5 -2.2 -7.5 -5.0 -7.7 -5.0 Q-5.05 -6.9 -0.85 -8.8 L6.45 -12.0" fill="#999999" fill-rule="evenodd" stroke="none"/>
    <path d="M10.8 -11.05 L11.1 -10.7 Q7.0 -7.3 5.55 -5.25 L1.95 0.0 Q-2.3 -1.95 -3.85 -2.35 L-9.3 -3.2 Q-11.05 -3.4 -11.05 -4.25 -11.05 -5.1 -7.65 -7.15 -4.7 -8.9 -3.45 -9.3 L3.25 -11.5 3.95 -11.7 6.15 -12.0 6.45 -12.0 -0.85 -8.8 Q-5.05 -6.9 -7.7 -5.0 L-7.5 -5.0 1.5 -2.2 5.2 -7.05 Q7.6 -9.75 10.8 -11.05 M-7.75 -5.0 L-7.7 -5.0 -7.75 -5.0" fill="#000000" fill-rule="evenodd" stroke="none"/>
  </g>
</svg>
