<?xml version="1.0" encoding="UTF-8" standalone="no"?>
<svg xmlns:xlink="http://www.w3.org/1999/xlink" height="12.4px" width="19.5px" xmlns="http://www.w3.org/2000/svg">
  <g transform="matrix(1.0, 0.0, 0.0, 1.0, 7.8, 23.55)">
    <path d="M4.7 -11.4 Q0.65 -11.55 -3.0 -14.75 L-5.95 -17.6 -7.5 -19.6 Q-8.0 -20.35 -7.7 -21.2 -6.8 -22.1 -5.4 -22.2 L-0.9 -22.75 2.5 -23.55 3.45 -23.4 3.9 -22.8 4.45 -21.1 5.15 -17.6 5.2 -17.35 Q6.2 -13.6 11.7 -11.4 L11.7 -11.25 11.1 -11.15 10.4 -11.2 10.35 -11.2 9.35 -11.4 8.4 -11.8 8.35 -11.8 Q5.95 -13.0 4.15 -16.4 L3.8 -17.6 3.2 -20.85 2.65 -22.15 -6.25 -20.65 -6.2 -20.5 Q-5.85 -19.0 -4.5 -17.6 L-2.15 -15.6 Q1.2 -13.05 3.55 -12.05 L6.05 -11.45 4.7 -11.4" fill="#000000" fill-rule="evenodd" stroke="none"/>
    <path d="M4.7 -11.4 L6.05 -11.45 3.55 -12.05 Q1.2 -13.05 -2.15 -15.6 L-4.5 -17.6 Q-5.85 -19.0 -6.2 -20.5 L-6.25 -20.65 2.65 -22.15 3.2 -20.85 3.8 -17.6 4.15 -16.4 Q5.95 -13.0 8.35 -11.8 L8.4 -11.8 9.35 -11.4 10.35 -11.2 9.65 -11.15 4.7 -11.4" fill="#999999" fill-rule="evenodd" stroke="none"/>
  </g>
</svg>
