<?xml version="1.0" encoding="UTF-8" standalone="no"?>
<svg xmlns:xlink="http://www.w3.org/1999/xlink" height="8.15px" width="22.6px" xmlns="http://www.w3.org/2000/svg">
  <g transform="matrix(1.0, 0.0, 0.0, 1.0, 11.45, 14.9)">
    <path d="M10.8 -11.1 L10.85 -11.05 Q11.1 -10.85 11.15 -10.9 L11.05 -10.75 10.85 -10.4 9.0 -8.75 Q6.35 -6.95 2.9 -6.8 0.6 -6.65 -1.7 -6.85 -4.5 -7.35 -7.15 -8.4 -10.15 -9.45 -11.45 -12.2 -11.0 -13.35 -9.7 -13.65 L-5.05 -14.55 Q-2.1 -15.25 0.7 -14.55 0.6 -12.05 2.05 -9.9 L2.9 -10.2 Q4.45 -10.95 6.05 -11.95 L6.25 -11.95 6.0 -11.45 5.7 -11.05 5.15 -10.45 Q4.35 -9.65 3.8 -9.45 L2.8 -9.05 Q3.8 -7.3 6.4 -8.35 9.0 -9.4 9.85 -10.2 L10.8 -11.1 M2.65 -7.6 L1.0 -9.4 Q-0.5 -11.4 -0.4 -14.0 L-4.7 -13.35 -9.9 -12.45 Q-9.0 -11.3 -7.85 -10.45 -5.85 -9.0 -3.25 -8.3 L2.65 -7.6" fill="#000000" fill-rule="evenodd" stroke="none"/>
    <path d="M6.25 -11.95 L6.2 -12.0 8.9 -11.45 10.8 -11.1 9.85 -10.2 Q9.0 -9.4 6.4 -8.35 3.8 -7.3 2.8 -9.05 L3.8 -9.45 Q4.35 -9.65 5.15 -10.45 L5.7 -11.05 6.0 -11.45 6.25 -11.95 M11.05 -10.75 L11.05 -10.7 10.85 -10.4 11.05 -10.75 M2.65 -7.6 L-3.25 -8.3 Q-5.85 -9.0 -7.85 -10.45 -9.0 -11.3 -9.9 -12.45 L-4.7 -13.35 -0.4 -14.0 Q-0.5 -11.4 1.0 -9.4 L2.65 -7.6" fill="#999999" fill-rule="evenodd" stroke="none"/>
  </g>
</svg>
