<?xml version="1.0" encoding="UTF-8" standalone="no"?>
<svg xmlns:xlink="http://www.w3.org/1999/xlink" height="18.3px" width="17.05px" xmlns="http://www.w3.org/2000/svg">
  <g transform="matrix(1.0, 0.0, 0.0, 1.0, 6.0, 12.4)">
    <path d="M6.05 -12.15 L6.1 -11.8 6.1 -11.75 5.95 -10.65 Q5.95 -8.25 2.5 -3.75 -1.15 1.0 -4.55 2.1 -4.4 2.45 0.0 3.85 L5.45 4.55 6.05 4.55 Q8.25 1.55 9.35 -3.3 L9.95 -7.35 10.35 -10.15 10.35 -10.2 10.45 -10.65 10.55 -10.85 10.8 -11.45 11.05 -9.15 Q11.05 -6.6 10.0 -1.7 L9.05 1.95 6.85 5.8 4.4 5.9 Q2.0 6.1 -2.0 4.55 -6.0 3.0 -6.0 1.85 -6.0 1.5 -0.95 -1.7 L2.3 -5.3 Q3.75 -7.55 5.95 -12.4 L6.05 -12.15" fill="#000000" fill-rule="evenodd" stroke="none"/>
    <path d="M10.55 -10.85 L10.45 -10.65 10.35 -10.2 10.35 -10.15 9.95 -7.35 9.35 -3.3 Q8.25 1.55 6.05 4.55 L5.45 4.55 0.0 3.85 Q-4.4 2.45 -4.55 2.1 -1.15 1.0 2.5 -3.75 5.95 -8.25 5.95 -10.65 L6.1 -11.75 6.1 -11.8 6.05 -12.15 6.5 -12.25 Q7.9 -12.25 10.55 -10.85" fill="#999999" fill-rule="evenodd" stroke="none"/>
  </g>
</svg>
