<?xml version="1.0" encoding="UTF-8" standalone="no"?>
<svg xmlns:xlink="http://www.w3.org/1999/xlink" height="19.45px" width="12.65px" xmlns="http://www.w3.org/2000/svg">
  <g transform="matrix(1.0, 0.0, 0.0, 1.0, 0.65, 11.85)">
    <path d="M5.7 -11.8 L5.9 -11.7 5.35 -11.0 Q2.4 -7.45 1.4 -4.1 0.55 -1.35 0.55 3.25 L0.5 4.05 5.7 5.5 10.0 6.05 Q9.35 4.7 8.85 2.15 8.35 -0.4 8.35 -3.1 8.35 -8.5 9.55 -10.25 L10.0 -10.75 10.65 -11.05 10.95 -10.8 Q9.5 -8.8 9.5 -7.0 L9.3 -3.2 Q9.3 0.7 12.0 7.6 L11.75 7.6 Q8.15 7.6 3.7 6.3 -0.5 5.05 -0.5 4.3 L-0.45 4.1 -0.65 2.15 Q-0.65 -7.3 5.65 -11.85 L5.7 -11.8" fill="#000000" fill-rule="evenodd" stroke="none"/>
    <path d="M10.0 -10.75 L9.55 -10.25 Q8.35 -8.5 8.35 -3.1 8.35 -0.4 8.85 2.15 9.35 4.7 10.0 6.05 L5.7 5.5 0.5 4.05 0.55 3.25 Q0.55 -1.35 1.4 -4.1 2.4 -7.45 5.35 -11.0 L5.9 -11.7 5.7 -11.8 6.0 -11.85 8.8 -11.5 10.4 -11.0 10.0 -10.75" fill="#999999" fill-rule="evenodd" stroke="none"/>
  </g>
</svg>
