<?xml version="1.0" encoding="UTF-8" standalone="no"?>
<svg xmlns:xlink="http://www.w3.org/1999/xlink" height="15.7px" width="20.05px" xmlns="http://www.w3.org/2000/svg">
  <g transform="matrix(1.0, 0.0, 0.0, 1.0, 8.8, 11.95)">
    <path d="M6.2 -11.85 L6.2 -11.75 6.0 -11.5 5.95 -11.45 5.85 -11.35 5.8 -11.35 5.6 -11.2 3.2 -9.8 -1.85 -6.75 -3.9 -4.9 -7.1 -1.45 Q-5.1 -0.4 -3.15 0.3 L0.05 1.6 0.85 1.9 2.1 2.35 2.45 1.35 3.7 -1.95 Q4.4 -3.75 5.55 -5.45 L7.8 -8.5 9.35 -9.85 10.1 -10.3 10.6 -10.55 11.25 -10.85 8.55 -7.95 Q7.0 -5.9 5.85 -3.5 L4.65 -0.95 4.3 -0.1 2.85 3.7 2.65 3.75 2.4 3.65 -0.2 2.7 -4.4 1.15 -7.2 0.05 -8.1 -0.4 -8.8 -0.75 Q-8.65 -2.2 -7.5 -3.4 L-3.25 -7.2 0.3 -9.5 2.6 -10.7 3.7 -11.25 6.05 -11.95 6.2 -11.85" fill="#000000" fill-rule="evenodd" stroke="none"/>
    <path d="M10.6 -10.55 L10.1 -10.3 9.35 -9.85 7.8 -8.5 5.55 -5.45 Q4.4 -3.75 3.7 -1.95 L2.45 1.35 2.1 2.35 0.85 1.9 0.05 1.6 -3.15 0.3 Q-5.1 -0.4 -7.1 -1.45 L-3.9 -4.9 -1.85 -6.75 3.2 -9.8 5.6 -11.2 5.8 -11.35 5.85 -11.35 5.95 -11.45 6.0 -11.5 6.2 -11.75 6.2 -11.85 6.2 -11.9 6.35 -11.9 Q7.2 -11.9 8.95 -11.3 L10.6 -10.55" fill="#999999" fill-rule="evenodd" stroke="none"/>
  </g>
</svg>
