<?xml version="1.0" encoding="UTF-8" standalone="no"?>
<svg xmlns:xlink="http://www.w3.org/1999/xlink" height="12.3px" width="36.9px" xmlns="http://www.w3.org/2000/svg">
  <g transform="matrix(1.0, 0.0, 0.0, 1.0, 11.1, 5.25)">
    <path d="M4.65 -5.0 Q1.65 -3.3 1.65 -2.7 1.65 -2.35 3.0 -1.7 4.35 -1.05 4.35 -0.8 4.35 -0.3 3.6 -0.3 1.4 -0.3 0.6 -2.45 0.6 -3.4 1.8 -4.35 3.0 -5.25 4.05 -5.25 L4.55 -5.25 4.65 -5.0 M6.5 -1.05 Q4.95 -0.25 4.95 0.8 4.95 2.25 8.75 2.9 L8.85 3.15 Q8.85 3.6 7.55 3.6 3.95 3.6 3.95 0.8 3.95 0.25 4.85 -0.9 6.05 -2.3 7.5 -2.3 L7.95 -2.25 8.0 -2.1 6.5 -1.05 M8.85 -2.75 Q8.85 -3.45 9.9 -4.3 11.05 -5.25 12.1 -5.25 L12.9 -5.0 12.9 -4.95 Q12.2 -4.95 11.1 -4.2 9.9 -3.4 9.9 -2.85 9.9 -2.15 11.4 -1.5 12.9 -0.85 12.9 -0.65 12.9 -0.05 11.75 -0.05 10.5 -0.05 9.55 -1.35 8.85 -2.3 8.85 -2.75 M18.35 -2.3 L18.6 -2.1 16.4 -0.95 Q15.75 -0.6 15.75 0.0 15.75 1.15 18.2 2.0 20.6 2.85 20.6 3.05 20.6 3.75 20.15 3.75 17.4 3.75 15.9 2.4 14.85 1.45 14.85 0.6 14.85 -0.7 15.25 -1.15 15.95 -2.05 18.35 -2.3 M24.8 -3.8 Q20.1 -3.45 20.1 -2.25 20.1 -1.2 22.95 -0.45 25.8 0.25 25.8 0.6 25.8 1.2 25.1 1.2 22.7 1.2 20.85 -0.15 19.4 -1.2 19.4 -1.8 19.4 -4.1 23.25 -4.1 L24.75 -4.1 24.8 -3.8 M11.45 3.6 Q11.45 6.5 17.4 6.3 L17.4 6.5 Q17.4 7.05 15.65 7.05 10.4 7.05 10.4 3.9 10.4 1.9 12.9 1.4 L13.35 1.85 Q13.35 2.25 12.4 2.7 11.45 3.15 11.45 3.6 M-6.75 -3.8 Q-5.8 -4.8 -4.85 -4.8 L-4.4 -4.65 -4.35 -4.5 -6.5 -2.55 -4.55 -1.65 -4.4 -1.35 -5.4 -0.95 Q-7.25 -0.95 -7.55 -2.55 -7.55 -2.95 -6.75 -3.8 M-8.7 -2.1 Q-10.1 -1.25 -10.1 -0.8 -10.1 0.0 -7.5 0.6 L-9.0 1.05 Q-9.9 1.05 -10.6 0.2 L-11.1 -0.8 Q-11.1 -2.45 -9.15 -2.45 -8.7 -2.45 -8.7 -2.1 M-0.9 -1.95 Q-1.55 -0.75 -2.55 -0.4 -2.55 0.5 1.05 1.65 0.9 2.25 -0.3 2.25 -1.75 2.25 -2.7 1.1 -3.45 0.2 -3.45 -0.35 L-3.3 -1.3 Q-2.95 -1.7 -1.05 -2.1 L-0.9 -1.95" fill="#000000" fill-rule="evenodd" stroke="none"/>
  </g>
</svg>
