<?xml version="1.0" encoding="UTF-8" standalone="no"?>
<svg xmlns:xlink="http://www.w3.org/1999/xlink" height="27.9px" width="768.25px" xmlns="http://www.w3.org/2000/svg">
  <g transform="matrix(1.0, 0.0, 0.0, 1.0, 384.1, 14.3)">
    <path d="M-241.55 0.35 L-241.05 0.4 -241.55 0.4 -241.55 0.35" fill="#ffffff" fill-rule="evenodd" stroke="none"/>
    <path d="M40.4 -1.45 Q22.75 -1.55 5.1 -0.65 L-56.9 2.8 Q-67.3 3.35 -77.15 2.75 L-77.15 2.8 -119.5 -0.05 Q-136.7 -1.65 -153.85 -0.8 L-157.45 -0.55 -160.8 -0.3 -168.45 0.45 -173.4 1.05 Q-194.8 4.0 -216.45 2.05 L-238.7 0.5 -241.05 0.4 -241.55 0.35 -248.65 0.1 -250.1 0.05 -257.55 -0.15 -257.55 -0.25 Q-277.7 -0.7 -297.9 0.2 L-299.7 0.3 -322.55 1.55 -322.55 1.5 -326.2 1.7 -326.2 1.75 -341.65 2.55 -342.0 2.6 -343.5 2.65 -354.35 3.3 -354.7 3.35 -356.6 3.45 -360.5 3.65 -366.55 4.0 -366.55 4.1 -372.55 4.2 -384.1 3.9 -384.1 2.85 -366.55 1.9 -366.55 1.85 -294.45 -2.1 Q-276.0 -3.25 -257.55 -2.7 L-257.55 -2.6 -248.35 -2.25 -209.95 -0.2 Q-183.25 1.3 -156.95 -2.3 -154.75 -2.6 -153.1 -3.2 -128.1 -3.2 -103.3 -0.65 L-77.15 1.7 13.05 -3.15 Q35.85 -4.55 58.6 -3.4 L97.0 -1.35 Q123.7 0.15 150.0 -3.45 L167.55 -4.55 167.55 -4.6 192.8 -4.65 Q221.1 -4.4 263.7 -3.15 284.5 -2.55 306.55 -3.55 L306.55 -3.5 320.0 -4.3 Q342.8 -5.7 365.55 -4.55 L384.15 -3.6 384.15 -1.25 361.25 -2.35 357.0 -2.45 Q334.55 -2.95 312.05 -1.8 L294.95 -1.1 Q279.85 -1.0 264.9 -1.15 L251.6 -1.25 Q250.8 -1.45 250.0 -1.25 L243.45 -1.35 229.75 -1.55 229.75 -1.45 Q208.5 -1.2 187.4 -1.75 177.4 -2.25 167.55 -2.2 L160.6 -2.2 152.5 -1.9 133.55 -0.1 Q112.15 2.85 90.5 0.9 L89.05 0.8 71.9 -0.45 42.85 -1.4 40.4 -1.45 M384.15 8.9 L384.15 11.2 360.55 9.55 Q334.5 6.7 308.4 9.05 L306.55 9.25 Q268.15 9.0 229.75 6.15 196.15 7.1 167.55 9.65 L121.95 12.05 Q104.05 12.45 86.2 12.45 L53.6 10.7 Q27.55 7.85 1.45 10.2 -37.75 13.8 -77.15 12.5 -122.35 8.9 -158.95 11.9 L-185.0 13.2 Q-202.9 13.6 -220.75 13.6 L-282.85 10.3 -292.25 10.5 -292.25 10.55 -305.5 11.15 Q-344.7 14.0 -384.1 12.0 L-384.1 10.4 -372.45 10.7 -367.4 10.8 -366.55 10.85 -366.55 10.75 -364.2 10.75 -361.15 10.8 -356.6 10.85 -333.55 10.65 -332.6 10.65 -327.4 10.5 -323.1 10.4 -301.85 9.5 -283.4 8.35 Q-270.4 7.75 -257.55 8.65 L-257.55 8.7 -251.15 9.2 -249.85 9.35 -244.05 10.0 -239.9 10.45 -236.05 10.8 -228.1 11.3 -220.75 11.5 Q-199.15 11.9 -177.7 10.65 L-171.8 10.25 -162.4 9.3 -150.55 7.6 Q-139.4 7.45 -128.3 7.7 L-124.85 7.75 -110.45 8.35 -104.45 8.7 -77.15 10.9 -75.4 10.9 Q-39.7 11.35 -4.2 9.25 L-1.3 9.05 15.75 7.8 Q38.8 5.95 61.5 8.65 L70.6 9.6 87.55 10.4 Q108.45 10.7 129.25 9.5 L151.35 7.25 156.4 6.45 159.9 6.4 162.7 6.4 165.7 6.4 167.55 6.4 167.55 6.35 201.85 5.3 Q216.0 4.35 229.75 4.95 L231.5 4.85 Q256.8 5.25 282.1 7.65 L287.4 8.0 287.85 8.0 289.4 8.0 291.45 8.1 295.3 8.1 322.7 6.65 Q340.05 5.25 357.2 6.45 L362.05 6.85 362.35 6.85 384.15 8.9" fill="#000000" fill-rule="evenodd" stroke="none"/>
    <path d="M40.4 -1.45 L42.85 -1.4 41.1 4.8 40.45 5.35 Q39.95 1.95 40.4 -1.45 M71.9 -0.45 L89.05 0.8 88.65 4.05 Q88.4 7.35 87.55 10.4 L70.6 9.6 Q71.1 4.5 71.9 -0.45 M152.5 -1.9 L160.6 -2.2 160.55 -1.3 Q160.55 2.65 159.9 6.4 L156.4 6.45 151.35 7.25 Q151.75 2.65 152.5 -1.9 M243.45 -1.35 L250.0 -1.25 Q250.8 -1.45 251.6 -1.25 L251.3 5.35 243.65 4.9 Q243.35 1.8 243.45 -1.35 M294.95 -1.1 L312.05 -1.8 Q334.55 -2.95 357.0 -2.45 L361.25 -2.35 361.15 0.25 361.9 0.7 363.4 -0.7 363.65 -1.25 363.85 -1.3 363.7 -0.6 Q364.05 3.15 362.35 6.85 L362.05 6.85 357.2 6.45 Q340.05 5.25 322.7 6.65 L295.3 8.1 294.95 -1.1 M-372.55 4.2 L-366.55 4.1 -366.6 5.3 -366.65 5.3 -367.4 10.8 -372.45 10.7 -372.55 4.2 M-360.5 3.65 L-356.6 3.45 -356.6 5.4 -356.65 5.4 -356.65 5.6 -356.6 5.55 -356.55 5.4 -356.0 5.4 -355.6 4.6 -355.5 4.45 -355.05 4.25 -354.7 3.35 -354.35 3.3 -354.6 4.0 -354.7 4.2 -354.45 4.9 -354.65 5.4 -355.1 5.4 -355.5 6.5 Q-356.25 8.6 -356.6 10.85 L-361.15 10.8 -360.7 7.3 -360.4 6.75 -360.4 5.7 -360.45 5.3 -360.5 3.65 M-343.5 2.65 L-342.0 2.6 -341.65 2.55 -341.65 2.7 -341.95 5.65 -342.1 5.65 -342.3 6.05 -342.4 6.2 -342.5 6.25 Q-342.95 6.35 -343.15 6.05 L-343.25 5.75 -343.25 5.6 -343.35 5.6 -343.5 2.65 M-326.2 1.75 L-326.2 1.7 -322.55 1.5 -322.55 1.55 -322.8 6.0 -322.85 6.4 -322.85 6.5 -323.1 10.4 -327.4 10.5 -326.85 6.5 -326.85 6.3 -326.8 5.9 -326.7 5.9 -326.2 1.85 -326.2 1.75 M-299.7 0.3 L-297.9 0.2 Q-277.7 -0.7 -257.55 -0.25 L-257.55 -0.15 -250.1 0.05 -248.65 0.1 -248.9 0.95 Q-249.3 2.55 -249.0 4.1 L-249.85 9.35 -251.15 9.2 -257.55 8.7 -257.55 8.65 Q-270.4 7.75 -283.4 8.35 L-301.85 9.5 -301.55 6.75 -301.55 6.5 -301.5 6.35 -301.35 4.7 -301.0 4.35 -300.85 4.85 -299.7 0.3 M-241.05 0.4 L-238.7 0.5 Q-239.55 5.3 -239.7 10.15 L-239.9 10.45 -244.05 10.0 -243.6 4.2 -243.45 4.0 Q-242.9 5.75 -243.0 7.85 L-241.55 0.4 -241.05 0.4 M-168.45 0.45 L-160.8 -0.3 Q-161.35 1.05 -161.15 2.5 -160.7 6.45 -162.4 9.3 L-171.8 10.25 Q-171.3 7.05 -170.4 4.0 L-170.15 3.75 -169.7 6.75 Q-169.35 3.5 -168.45 0.45 M-157.45 -0.55 L-153.85 -0.8 -154.05 0.4 Q-154.55 3.8 -156.4 5.9 -156.8 6.35 -157.2 5.75 -158.25 4.05 -157.9 1.85 L-157.45 -0.55 M291.45 8.1 L289.4 8.0 Q288.8 5.0 289.35 1.75 289.25 1.45 289.7 1.5 290.9 4.6 291.45 8.1 M287.85 8.0 L287.4 8.0 282.1 7.65 Q282.0 3.85 282.85 0.25 282.85 -0.3 283.6 -0.3 286.2 1.9 287.15 5.5 L287.85 8.0 M165.7 6.4 L162.7 6.4 163.5 1.45 163.85 1.1 164.1 0.5 164.3 0.45 164.4 0.8 164.4 0.95 164.9 1.5 Q165.5 3.95 165.7 6.4 M-1.3 9.05 L-4.2 9.25 Q-4.35 6.1 -3.85 3.0 -3.55 2.6 -3.05 2.55 L-2.4 2.85 -2.25 3.0 Q-1.6 6.0 -1.3 9.05 M-104.45 8.7 L-110.45 8.35 Q-109.3 5.6 -107.65 3.15 -107.45 2.85 -107.1 2.85 -104.8 4.15 -104.6 7.35 L-104.45 8.7 M-124.85 7.75 L-128.3 7.7 Q-127.65 4.5 -125.75 2.0 L-125.7 1.85 Q-125.1 4.7 -124.85 7.75 M-228.1 11.3 L-236.05 10.8 -236.35 5.95 Q-236.4 3.95 -235.5 2.9 -232.7 5.2 -230.3 8.6 L-228.1 11.3 M-332.6 10.65 L-333.55 10.65 -332.85 6.5 -332.75 6.2 -332.7 5.8 -332.5 5.8 -332.15 4.25 -332.0 4.1 -331.95 6.25 -332.0 6.5 Q-332.1 8.55 -332.6 10.65 M-364.2 10.75 L-366.55 10.75 -366.55 7.45 -366.5 7.1 -365.7 5.6 -365.4 5.25 -364.65 5.25 -364.45 5.65 -364.3 6.4 -364.2 10.75" fill="#ccffff" fill-rule="evenodd" stroke="none"/>
    <path d="M-153.85 -0.8 Q-136.7 -1.65 -119.5 -0.05 L-77.15 2.8 -77.15 2.75 Q-67.3 3.35 -56.9 2.8 L5.1 -0.65 Q22.75 -1.55 40.4 -1.45 39.95 1.95 40.45 5.35 L41.1 4.8 42.85 -1.4 71.9 -0.45 Q71.1 4.5 70.6 9.6 L61.5 8.65 Q38.8 5.95 15.75 7.8 L-1.3 9.05 Q-1.6 6.0 -2.25 3.0 L-2.4 2.85 -3.05 2.55 Q-3.55 2.6 -3.85 3.0 -4.35 6.1 -4.2 9.25 -39.7 11.35 -75.4 10.9 L-77.15 10.9 -104.45 8.7 -104.6 7.35 Q-104.8 4.15 -107.1 2.85 -107.45 2.85 -107.65 3.15 -109.3 5.6 -110.45 8.35 L-124.85 7.75 Q-125.1 4.7 -125.7 1.85 L-125.75 2.0 Q-127.65 4.5 -128.3 7.7 -139.4 7.45 -150.55 7.6 L-162.4 9.3 Q-160.7 6.45 -161.15 2.5 -161.35 1.05 -160.8 -0.3 L-157.45 -0.55 -157.9 1.85 Q-158.25 4.05 -157.2 5.75 -156.8 6.35 -156.4 5.9 -154.55 3.8 -154.05 0.4 L-153.85 -0.8 M89.05 0.8 L90.5 0.9 Q112.15 2.85 133.55 -0.1 L152.5 -1.9 Q151.75 2.65 151.35 7.25 L129.25 9.5 Q108.45 10.7 87.55 10.4 88.4 7.35 88.65 4.05 L89.05 0.8 M160.6 -2.2 L167.55 -2.2 Q177.4 -2.25 187.4 -1.75 208.5 -1.2 229.75 -1.45 L229.75 -1.55 243.45 -1.35 Q243.35 1.8 243.65 4.9 L251.3 5.35 251.6 -1.25 264.9 -1.15 Q279.85 -1.0 294.95 -1.1 L295.3 8.1 291.45 8.1 Q290.9 4.6 289.7 1.5 289.25 1.45 289.35 1.75 288.8 5.0 289.4 8.0 L287.85 8.0 287.15 5.5 Q286.2 1.9 283.6 -0.3 282.85 -0.3 282.85 0.25 282.0 3.85 282.1 7.65 256.8 5.25 231.5 4.85 L229.75 4.95 Q216.0 4.35 201.85 5.3 L167.55 6.35 167.55 6.4 165.7 6.4 Q165.5 3.95 164.9 1.5 L164.4 0.95 164.4 0.8 164.3 0.45 164.1 0.5 163.85 1.1 163.5 1.45 162.7 6.4 159.9 6.4 Q160.55 2.65 160.55 -1.3 L160.6 -2.2 M361.25 -2.35 L384.15 -1.25 384.15 8.9 362.35 6.85 Q364.05 3.15 363.7 -0.6 L363.85 -1.3 363.65 -1.25 363.4 -0.7 361.9 0.7 361.15 0.25 361.25 -2.35 M384.15 -3.6 L365.55 -4.55 Q342.8 -5.7 320.0 -4.3 L306.55 -3.5 306.55 -3.55 Q284.5 -2.55 263.7 -3.15 221.1 -4.4 192.8 -4.65 L167.55 -4.6 167.55 -4.55 150.0 -3.45 Q123.7 0.15 97.0 -1.35 L58.6 -3.4 Q35.85 -4.55 13.05 -3.15 L-77.15 1.7 -103.3 -0.65 Q-128.1 -3.2 -153.1 -3.2 -154.75 -2.6 -156.95 -2.3 -183.25 1.3 -209.95 -0.2 L-248.35 -2.25 -257.55 -2.6 -257.55 -2.7 Q-276.0 -3.25 -294.45 -2.1 L-366.55 1.85 -366.55 1.9 -384.1 2.85 -384.1 -13.55 -366.55 -13.55 -366.55 -13.65 -257.55 -13.65 -257.55 -13.55 -57.05 -13.55 Q-56.75 -11.0 -45.25 -9.15 -33.4 -7.25 -16.6 -7.25 0.15 -7.25 12.0 -9.15 23.45 -11.0 23.8 -13.55 L384.15 -13.55 384.15 -3.6 M-384.1 3.9 L-372.55 4.2 -372.45 10.7 -384.1 10.4 -384.1 3.9 M-366.55 4.1 L-366.55 4.0 -360.5 3.65 -360.45 5.3 -360.4 5.7 -360.4 6.75 -360.7 7.3 -361.15 10.8 -364.2 10.75 -364.3 6.4 -364.45 5.65 -364.65 5.25 -365.4 5.25 -365.7 5.6 -366.5 7.1 -366.55 7.45 -366.55 10.75 -366.55 10.85 -367.4 10.8 -366.65 5.3 -366.6 5.3 -366.55 4.1 M-356.6 3.45 L-354.7 3.35 -355.05 4.25 -355.5 4.45 -355.6 4.6 -356.0 5.4 -356.55 5.4 -356.6 5.55 -356.65 5.6 -356.65 5.4 -356.6 5.4 -356.6 3.45 M-354.35 3.3 L-343.5 2.65 -343.35 5.6 -343.25 5.6 -343.25 5.75 -343.15 6.05 Q-342.95 6.35 -342.5 6.25 L-342.4 6.2 -342.3 6.05 -342.1 5.65 -341.95 5.65 -341.65 2.7 -341.65 2.55 -326.2 1.75 -326.2 1.85 -326.7 5.9 -326.8 5.9 -326.85 6.3 -326.85 6.5 -327.4 10.5 -332.6 10.65 Q-332.1 8.55 -332.0 6.5 L-331.95 6.25 -332.0 4.1 -332.15 4.25 -332.5 5.8 -332.7 5.8 -332.75 6.2 -332.85 6.5 -333.55 10.65 -356.6 10.85 Q-356.25 8.6 -355.5 6.5 L-355.1 5.4 -354.65 5.4 -354.45 4.9 -354.7 4.2 -354.6 4.0 -354.35 3.3 M-322.55 1.55 L-299.7 0.3 -300.85 4.85 -301.0 4.35 -301.35 4.7 -301.5 6.35 -301.55 6.5 -301.55 6.75 -301.85 9.5 -323.1 10.4 -322.85 6.5 -322.85 6.4 -322.8 6.0 -322.55 1.55 M-248.65 0.1 L-241.55 0.35 -241.55 0.4 -243.0 7.85 Q-242.9 5.75 -243.45 4.0 L-243.6 4.2 -244.05 10.0 -249.85 9.35 -249.0 4.1 Q-249.3 2.55 -248.9 0.95 L-248.65 0.1 M-238.7 0.5 L-216.45 2.05 Q-194.8 4.0 -173.4 1.05 L-168.45 0.45 Q-169.35 3.5 -169.7 6.75 L-170.15 3.75 -170.4 4.0 Q-171.3 7.05 -171.8 10.25 L-177.7 10.65 Q-199.15 11.9 -220.75 11.5 L-228.1 11.3 -230.3 8.6 Q-232.7 5.2 -235.5 2.9 -236.4 3.95 -236.35 5.95 L-236.05 10.8 -239.9 10.45 -239.7 10.15 Q-239.55 5.3 -238.7 0.5" fill="#edfefd" fill-rule="evenodd" stroke="none"/>
    <path d="M23.8 -13.55 Q23.45 -11.0 12.0 -9.15 0.15 -7.25 -16.6 -7.25 -33.4 -7.25 -45.25 -9.15 -56.75 -11.0 -57.05 -13.55" fill="none" stroke="#000000" stroke-linecap="round" stroke-linejoin="round" stroke-width="1.5"/>
  </g>
</svg>
