<?xml version="1.0" encoding="UTF-8" standalone="no"?>
<svg xmlns:xlink="http://www.w3.org/1999/xlink" height="15.6px" width="121.45px" xmlns="http://www.w3.org/2000/svg">
  <g transform="matrix(1.0, 0.0, 0.0, 1.0, 21.95, -46.55)">
    <path d="M96.45 51.25 Q97.0 51.5 97.55 51.9 L98.8 52.95 99.4 53.8 99.5 54.7 99.1 55.65 98.35 56.45 96.65 57.6 94.25 58.7 88.85 60.25 74.85 62.15 63.2 61.85 50.55 60.2 40.7 56.85 32.1 55.4 18.3 55.15 16.8 55.3 16.7 55.65 16.75 55.8 16.9 55.95 17.15 56.3 17.2 56.55 14.8 56.4 Q13.55 56.2 12.5 55.6 L11.55 54.9 11.55 54.85 -19.4 54.6 -21.95 53.5 -20.3 53.2 -13.65 52.6 -1.2 53.15 10.05 52.95 33.05 51.25 38.6 49.45 Q40.4 48.6 42.25 48.15 L48.2 46.9 51.6 46.55 69.6 46.7 86.6 48.0 94.05 50.1 Q95.3 50.6 96.45 51.25" fill="#a7c6d0" fill-rule="evenodd" stroke="none"/>
  </g>
</svg>
