<?xml version="1.0" encoding="UTF-8" standalone="no"?>
<svg xmlns:xlink="http://www.w3.org/1999/xlink" height="103.45px" width="88.85px" xmlns="http://www.w3.org/2000/svg">
  <g transform="matrix(1.0, 0.0, 0.0, 1.0, 44.4, 51.7)">
    <path d="M30.5 -50.95 Q32.15 -50.0 32.85 -48.6 L33.95 -45.55 Q35.5 -38.85 36.25 -32.1 37.15 -23.9 38.4 -15.55 L43.9 15.9 Q44.65 20.3 44.4 24.65 L43.35 33.15 Q42.9 35.45 41.9 37.7 40.2 41.4 37.25 44.0 L34.35 46.1 Q27.65 49.85 19.85 51.35 14.2 52.2 8.75 51.25 L10.45 48.45 11.8 48.2 12.95 47.7 13.95 46.4 Q16.0 41.85 15.1 36.95 L15.05 34.65 Q2.4 38.1 -8.55 35.9 -12.1 34.9 -12.75 34.0 -13.4 33.05 -12.8 31.2 L-11.2 33.75 Q-10.1 32.1 -7.1 31.6 -4.15 31.05 0.6 28.3 5.3 25.55 14.85 23.05 L13.6 7.45 Q13.0 0.05 10.45 -6.95 -5.45 -14.8 12.75 -42.7 15.25 -45.9 17.8 -48.0 20.3 -50.1 22.4 -50.85 24.5 -51.6 26.65 -51.7 28.8 -51.85 30.5 -50.95 M-40.85 -3.55 L-39.85 4.45 -19.55 7.45 -19.3 19.6 -32.9 12.0 Q-39.55 8.8 -44.2 3.1 -44.85 0.55 -43.25 -1.6 L-42.6 -2.3 -40.85 -3.55 M-10.15 6.7 L-12.6 5.55 -8.15 0.45 -10.15 6.7" fill="#0066cc" fill-rule="evenodd" stroke="none"/>
  </g>
</svg>
