<?xml version="1.0" encoding="UTF-8" standalone="no"?>
<svg xmlns:xlink="http://www.w3.org/1999/xlink" height="107.5px" width="159.55px" xmlns="http://www.w3.org/2000/svg">
  <g transform="matrix(1.0, 0.0, 0.0, 1.0, 57.0, 47.45)">
    <path d="M-0.15 -2.45 L-26.8 -23.9 -53.4 -44.25 -57.0 -47.45 -2.75 -7.45 12.05 3.9 15.15 1.4 16.75 1.6 18.5 10.6 18.95 11.05 36.95 13.05 42.9 11.9 Q46.65 7.3 50.0 2.1 51.35 0.0 51.9 -2.4 L52.05 -3.15 49.6 -3.8 Q48.8 -4.15 48.1 -4.6 46.55 -5.6 45.65 -7.25 45.25 -7.95 45.1 -8.7 44.8 -10.5 46.05 -11.95 47.3 -13.35 48.8 -14.35 51.25 -15.9 53.95 -17.0 L59.25 -18.85 60.3 -20.65 60.55 -22.75 Q61.55 -26.45 63.4 -29.85 64.45 -31.7 65.75 -33.35 L67.1 -34.65 67.65 -34.9 69.65 -38.3 72.2 -41.25 Q75.65 -44.5 80.2 -45.95 83.45 -47.1 86.8 -45.5 88.05 -44.95 89.1 -44.0 90.1 -43.15 90.7 -41.9 91.5 -40.15 91.9 -38.25 L93.35 -30.9 Q94.95 -21.75 95.95 -12.5 96.5 -7.2 97.35 -2.15 98.0 1.95 99.05 6.05 101.05 14.1 101.85 22.35 L102.5 30.15 Q102.7 33.8 102.25 37.35 101.55 42.75 98.6 47.25 93.8 54.65 85.7 58.2 82.8 59.5 79.55 60.05 L61.35 59.95 Q58.65 60.4 56.2 59.05 50.95 56.3 48.4 50.7 L47.7 49.15 46.6 49.4 44.55 49.3 Q43.5 49.05 42.8 48.3 40.2 45.85 38.95 42.5 L38.2 40.5 35.65 41.85 35.75 42.45 Q37.0 43.15 37.85 44.4 L37.9 44.6 37.9 44.85 34.8 43.7 34.45 42.05 32.4 41.5 Q30.5 40.7 29.25 38.9 L27.7 36.15 Q27.0 34.7 26.45 32.6 25.9 30.45 27.3 28.8 28.65 27.15 31.15 26.25 L32.15 25.95 30.1 24.35 Q28.75 23.3 27.25 22.55 L21.6 20.0 Q16.8 17.45 13.25 13.2 12.2 11.9 11.5 10.45 11.0 9.45 10.9 8.3 10.8 7.35 10.85 6.4 L0.7 -1.75 -0.15 -2.45 M70.9 51.7 L70.25 53.3 69.25 54.6 Q68.75 55.0 68.1 55.1 L66.75 55.35 65.05 58.15 Q70.5 59.1 76.15 58.25 83.95 56.75 90.65 53.0 L93.55 50.9 Q96.0 48.75 97.6 45.8 L98.2 44.6 Q99.2 42.35 99.65 40.05 100.4 35.95 100.7 31.55 100.95 27.2 100.2 22.8 L94.7 -8.65 Q93.45 -17.0 92.55 -25.2 91.8 -31.95 90.25 -38.65 L89.15 -41.7 Q88.45 -43.1 86.8 -44.05 85.1 -44.95 82.95 -44.8 80.8 -44.7 78.7 -43.95 76.6 -43.2 74.1 -41.1 L70.75 -37.85 69.2 -35.95 69.05 -35.8 69.8 -35.7 70.6 -34.55 72.5 -35.45 72.8 -35.6 73.85 -35.3 74.05 -35.2 75.0 -34.8 77.9 -32.45 Q79.8 -30.2 79.75 -27.15 L79.5 -22.4 Q79.1 -19.05 76.95 -16.5 L75.25 -14.95 74.15 -14.4 74.85 -13.25 75.8 -10.3 75.8 -8.6 Q75.35 -5.45 73.5 -3.1 L73.45 -3.05 72.5 -2.05 71.1 -1.25 66.75 -0.05 67.75 2.85 Q69.4 8.5 69.9 14.35 L71.1 29.15 72.2 28.75 78.7 9.0 79.1 8.7 79.25 8.25 Q77.2 18.65 73.65 28.6 L74.2 28.55 49.35 39.55 Q47.35 40.45 45.1 40.65 L43.5 38.1 Q43.0 39.95 44.75 40.75 46.8 41.8 49.3 42.2 L58.6 42.65 Q67.95 42.55 77.1 40.4 81.5 39.25 84.15 35.45 L86.15 32.6 88.8 28.7 95.75 16.8 Q94.5 21.05 92.5 25.05 90.65 28.65 88.25 32.05 L86.0 35.15 83.95 37.75 81.9 39.8 79.7 41.35 Q77.1 42.9 73.95 43.5 L71.4 43.85 71.7 46.2 Q71.75 49.0 70.9 51.7 M72.5 -35.45 L73.85 -35.3 72.5 -35.45 M69.45 -34.15 Q68.25 -33.65 66.2 -31.6 64.1 -29.6 63.0 -25.5 L63.35 -24.9 63.5 -23.75 Q63.4 -22.15 62.4 -20.75 L61.8 -20.65 62.3 -19.55 72.7 -15.7 74.05 -16.85 76.3 -19.5 Q77.75 -21.55 78.0 -24.2 78.45 -29.35 75.35 -33.6 73.0 -34.5 71.1 -33.15 L69.45 -32.05 Q69.15 -31.8 68.75 -31.7 L69.45 -34.15 M46.75 -7.55 L47.55 -6.6 Q48.5 -5.95 49.65 -5.5 L53.35 -4.5 Q59.8 -4.0 65.75 -6.55 68.4 -7.65 70.05 -9.7 L68.75 -11.1 68.65 -11.2 68.8 -11.15 71.7 -10.65 72.0 -10.25 72.55 -10.1 73.1 -9.05 72.4 -8.4 71.1 -9.15 Q69.85 -7.05 67.95 -6.0 63.95 -3.75 59.3 -3.1 L66.6 -2.15 Q70.05 -2.0 72.5 -4.25 73.75 -5.35 74.15 -7.15 74.6 -8.95 73.8 -10.7 L72.6 -12.65 72.05 -13.25 70.25 -14.6 Q66.3 -16.95 61.75 -17.6 L59.05 -17.2 49.9 -13.4 Q46.7 -11.9 46.55 -8.6 L46.75 -7.55 M66.8 3.85 L66.3 0.8 66.2 -0.05 Q62.9 -0.05 59.75 -1.4 L56.4 -2.85 54.4 -3.1 54.2 -2.7 Q50.8 4.15 48.6 11.5 L46.85 18.1 Q48.95 17.95 51.0 18.15 L56.6 19.55 Q60.95 21.05 64.65 23.8 67.25 25.8 69.25 28.2 68.65 15.9 66.8 3.85 M66.05 -23.25 L66.85 -24.45 67.65 -24.45 67.9 -23.65 Q68.75 -20.6 66.0 -19.3 L65.45 -19.9 Q65.25 -21.75 66.05 -23.25 M39.05 14.25 L42.05 14.85 45.95 14.8 46.05 14.0 38.2 13.7 38.15 13.7 38.2 13.75 38.05 14.3 Q37.45 21.5 39.15 28.65 L42.0 31.65 43.75 33.6 43.9 18.5 45.35 18.3 45.7 16.1 41.7 15.8 41.25 22.95 40.8 24.35 40.65 16.05 39.05 14.25 M45.2 20.35 L45.2 23.55 Q45.2 30.05 46.65 36.45 L48.2 38.05 48.2 38.1 48.25 38.1 61.5 32.4 69.05 29.85 63.2 24.7 59.85 22.55 Q52.85 19.15 45.2 19.65 L45.2 20.35 M61.5 31.6 L61.3 31.6 60.0 30.05 Q58.25 27.5 55.45 26.0 52.3 24.25 48.75 22.6 47.65 22.15 47.0 21.1 53.05 22.75 58.2 26.2 60.05 27.4 61.2 29.15 61.9 30.3 61.5 31.6 M46.15 13.6 L48.15 7.35 43.7 12.45 46.15 13.6 M42.85 36.8 L42.95 36.8 42.9 36.75 40.45 34.15 40.15 36.6 39.45 38.9 Q41.15 43.9 44.55 48.05 L46.3 47.5 44.55 44.2 Q44.0 43.15 44.1 41.9 L42.9 40.0 Q42.65 39.5 42.65 39.0 42.6 38.2 42.7 37.4 L42.85 36.8 M63.4 47.65 L63.0 48.3 63.35 44.15 55.3 44.35 58.35 47.0 58.25 48.6 57.9 48.85 56.35 48.75 Q52.65 47.65 50.75 44.15 L47.4 43.85 52.35 54.05 Q53.35 55.85 55.05 56.75 57.2 58.0 59.65 58.15 L63.45 57.2 64.1 56.8 Q67.8 50.9 69.05 44.1 L63.85 44.15 63.4 47.65 M70.2 48.35 L70.1 46.7 Q69.3 49.85 67.95 52.85 L69.05 51.75 Q70.45 50.4 70.2 48.35 M18.05 15.7 Q20.55 17.5 23.4 18.9 L25.3 19.9 19.25 14.5 19.0 14.9 Q18.25 14.75 17.7 14.4 16.7 13.7 16.55 12.25 L15.45 3.35 13.7 4.6 13.05 5.3 Q11.45 7.45 12.1 10.0 14.75 13.25 18.05 15.7 M35.85 29.2 L35.9 29.1 35.85 29.05 Q34.65 28.15 33.3 27.6 L31.9 27.45 Q29.55 28.2 27.95 30.1 26.8 32.95 28.35 35.55 28.45 34.05 29.0 32.6 29.45 31.3 30.6 30.45 33.05 28.75 35.85 29.2 M38.65 37.05 Q39.7 33.9 37.3 31.7 L34.45 30.15 32.15 31.4 Q30.4 32.55 30.25 34.55 30.2 35.7 30.45 36.8 31.15 39.7 34.1 40.0 L34.05 35.05 35.4 39.95 Q37.9 39.5 38.65 37.05 M36.75 14.35 L20.1 12.1 37.0 26.5 36.75 14.35" fill="#000000" fill-rule="evenodd" stroke="none"/>
    <path d="M69.45 -34.15 L68.75 -31.7 Q69.15 -31.8 69.45 -32.05 L71.1 -33.15 Q73.0 -34.5 75.35 -33.6 78.45 -29.35 78.0 -24.2 77.75 -21.55 76.3 -19.5 L74.05 -16.85 72.7 -15.7 62.3 -19.55 61.8 -20.65 62.4 -20.75 Q63.4 -22.15 63.5 -23.75 L63.35 -24.9 63.0 -25.5 Q64.1 -29.6 66.2 -31.6 68.25 -33.65 69.45 -34.15 M66.8 3.85 Q68.65 15.9 69.25 28.2 67.25 25.8 64.65 23.8 60.95 21.05 56.6 19.55 L51.0 18.15 Q48.95 17.95 46.85 18.1 L48.6 11.5 Q50.8 4.15 54.2 -2.7 55.05 -0.25 57.35 2.35 59.6 4.9 66.8 3.85 M66.05 -23.25 Q65.25 -21.75 65.45 -19.9 L66.0 -19.3 Q68.75 -20.6 67.9 -23.65 L67.65 -24.45 66.85 -24.45 66.05 -23.25" fill="#ffffff" fill-rule="evenodd" stroke="none"/>
    <path d="M68.75 -11.1 L63.9 -8.05 Q58.65 -5.4 53.4 -6.05 48.55 -5.8 47.35 -8.3 L49.4 -10.8 Q56.3 -15.15 63.15 -15.8 67.5 -15.65 71.85 -13.1 L68.8 -11.15 68.65 -11.2 68.75 -11.1 M39.05 14.25 L40.65 16.05 40.8 24.35 41.25 22.95 Q41.3 27.4 42.0 31.65 L39.15 28.65 Q37.45 21.5 38.05 14.3 L38.2 13.75 38.8 13.9 39.05 14.25 M48.2 38.05 L46.65 36.45 Q45.2 30.05 45.2 23.55 L45.2 20.35 47.0 21.1 Q47.65 22.15 48.75 22.6 52.3 24.25 55.45 26.0 58.25 27.5 60.0 30.05 L61.3 31.6 61.5 31.6 61.5 32.4 48.25 38.1 48.2 38.05 M42.9 36.75 L42.85 36.8 42.7 37.4 Q42.6 38.2 42.65 39.0 42.65 39.5 42.9 40.0 L44.1 41.9 Q44.0 43.15 44.55 44.2 L46.3 47.5 44.55 48.05 Q41.15 43.9 39.45 38.9 L40.15 36.6 40.45 34.15 42.9 36.75 M59.65 58.15 Q57.2 58.0 55.05 56.75 53.35 55.85 52.35 54.05 L47.4 43.85 50.75 44.15 Q52.65 47.65 56.35 48.75 L57.9 48.85 58.25 48.6 58.35 47.0 55.3 44.35 63.35 44.15 63.0 48.3 63.4 47.65 61.5 54.8 Q60.95 56.65 59.65 58.15" fill="#ffb409" fill-rule="evenodd" stroke="none"/>
    <path d="M54.2 -2.7 L54.4 -3.1 56.4 -2.85 59.75 -1.4 Q62.9 -0.05 66.2 -0.05 L66.3 0.8 66.8 3.85 Q59.6 4.9 57.35 2.35 55.05 -0.25 54.2 -2.7 M70.2 48.35 Q70.45 50.4 69.05 51.75 L67.95 52.85 Q69.3 49.85 70.1 46.7 L70.2 48.35 M38.65 37.05 Q37.9 39.5 35.4 39.95 L34.05 35.05 34.1 40.0 Q31.15 39.7 30.45 36.8 30.2 35.7 30.25 34.55 30.4 32.55 32.15 31.4 L34.45 30.15 37.3 31.7 Q39.7 33.9 38.65 37.05" fill="#cccccc" fill-rule="evenodd" stroke="none"/>
    <path d="M69.05 -35.8 L69.2 -35.95 70.75 -37.85 74.1 -41.1 Q76.6 -43.2 78.7 -43.95 80.8 -44.7 82.95 -44.8 85.1 -44.95 86.8 -44.05 88.45 -43.1 89.15 -41.7 L90.25 -38.65 Q91.8 -31.95 92.55 -25.2 93.45 -17.0 94.7 -8.65 L100.2 22.8 Q100.95 27.2 100.7 31.55 100.4 35.95 99.65 40.05 99.2 42.35 98.2 44.6 L97.6 45.8 Q96.0 48.75 93.55 50.9 L90.65 53.0 Q83.95 56.75 76.15 58.25 70.5 59.1 65.05 58.15 L66.75 55.35 68.1 55.1 Q68.75 55.0 69.25 54.6 L70.25 53.3 70.9 51.7 Q80.1 53.25 88.4 50.45 94.4 46.55 96.95 41.75 99.7 32.3 98.2 24.5 L92.95 -8.55 90.45 -29.55 87.7 -33.05 79.4 -32.8 75.0 -34.8 74.05 -35.2 73.85 -35.3 72.8 -35.6 72.5 -35.45 69.05 -35.8 M71.7 46.2 L71.4 43.85 73.95 43.5 Q77.1 42.9 79.7 41.35 L81.9 39.8 83.95 37.75 86.0 35.15 Q81.55 44.9 71.7 46.2 M67.75 2.85 L66.75 -0.05 71.1 -1.25 72.5 -2.05 Q71.25 2.0 67.75 2.85 M17.7 14.4 Q18.25 14.75 19.0 14.9 L19.25 14.5 25.3 19.9 23.4 18.9 Q20.55 17.5 18.05 15.7 L17.7 14.4" fill="#000000" fill-opacity="0.4" fill-rule="evenodd" stroke="none"/>
    <path d="M68.75 -11.1 L70.05 -9.7 Q68.4 -7.65 65.75 -6.55 59.8 -4.0 53.35 -4.5 L49.65 -5.5 Q48.5 -5.95 47.55 -6.6 L46.75 -7.55 47.35 -8.3 Q48.55 -5.8 53.4 -6.05 58.65 -5.4 63.9 -8.05 L68.75 -11.1 M72.6 -12.65 L73.8 -10.7 Q74.6 -8.95 74.15 -7.15 73.75 -5.35 72.5 -4.25 70.05 -2.0 66.6 -2.15 L59.3 -3.1 Q63.95 -3.75 67.95 -6.0 69.85 -7.05 71.1 -9.15 L72.4 -8.4 73.1 -9.05 72.55 -10.1 72.0 -10.25 71.7 -10.65 68.8 -11.15 71.85 -13.1 72.6 -12.65 M38.2 13.7 L46.05 14.0 45.95 14.8 42.05 14.85 39.05 14.25 38.8 13.9 38.2 13.75 38.2 13.7 M41.25 22.95 L41.7 15.8 45.7 16.1 45.35 18.3 43.9 18.5 43.75 33.6 42.0 31.65 Q41.3 27.4 41.25 22.95 M45.2 20.35 L45.2 19.65 Q52.85 19.15 59.85 22.55 L63.2 24.7 69.05 29.85 61.5 32.4 61.5 31.6 Q61.9 30.3 61.2 29.15 60.05 27.4 58.2 26.2 53.05 22.75 47.0 21.1 L45.2 20.35 M63.4 47.65 L63.85 44.15 69.05 44.1 Q67.8 50.9 64.1 56.8 L63.45 57.2 59.65 58.15 Q60.95 56.65 61.5 54.8 L63.4 47.65" fill="#f99108" fill-rule="evenodd" stroke="none"/>
    <path d="M35.85 29.05 L35.85 29.2 Q33.05 28.75 30.6 30.45 29.45 31.3 29.0 32.6 28.45 34.05 28.35 35.55 26.8 32.95 27.95 30.1 29.55 28.2 31.9 27.45 L33.3 27.6 Q34.65 28.15 35.85 29.05" fill="#cc9999" fill-rule="evenodd" stroke="none"/>
    <path d="M47.35 -8.3 L46.75 -7.55 46.55 -8.6 Q46.7 -11.9 49.9 -13.4 L59.05 -17.2 61.75 -17.6 Q66.3 -16.95 70.25 -14.6 L72.05 -13.25 72.6 -12.65 71.85 -13.1 Q67.5 -15.65 63.15 -15.8 56.3 -15.15 49.4 -10.8 L47.35 -8.3" fill="#ffcd5b" fill-rule="evenodd" stroke="none"/>
    <path d="M86.15 32.6 L84.15 35.45 Q81.5 39.25 77.1 40.4 67.95 42.55 58.6 42.65 70.25 41.65 81.15 36.75 84.2 34.65 86.15 32.6" fill="#000000" fill-opacity="0.2" fill-rule="evenodd" stroke="none"/>
    <path d="M-0.15 -2.45 L0.7 -1.75 M-26.8 -23.9 Q-10.35 -9.05 -0.15 -2.45 M-53.4 -44.25 Q-42.8 -31.05 -26.8 -23.9" fill="none" stroke="#cccccc" stroke-linecap="round" stroke-linejoin="round" stroke-width="0.05"/>
    <path d="M73.85 -35.3 L72.5 -35.45 69.05 -35.8" fill="none" stroke="#000000" stroke-linecap="round" stroke-linejoin="round" stroke-width="2.0"/>
  </g>
</svg>
