<?xml version="1.0" encoding="UTF-8" standalone="no"?>
<svg xmlns:xlink="http://www.w3.org/1999/xlink" height="26.65px" width="46.75px" xmlns="http://www.w3.org/2000/svg">
  <g transform="matrix(1.0, 0.0, 0.0, 1.0, 23.35, 13.3)">
    <path d="M-12.4 5.15 L-12.35 5.2 Q-12.6 6.45 -15.0 5.65 -17.4 4.85 -18.45 4.2 -21.9 2.0 -23.35 -1.75 L-9.65 -3.65 -8.65 -5.2 Q-6.5 -8.5 -3.2 -10.95 2.35 -11.35 7.7 -9.4 8.55 -12.1 9.6 -12.8 10.65 -13.5 11.5 -13.25 11.9 -13.45 12.2 -13.0 12.5 -12.55 11.35 -7.95 L12.35 -7.25 14.05 -5.35 Q15.25 -3.8 14.7 2.9 16.6 4.5 23.4 7.8 21.5 10.05 18.8 11.6 L15.15 12.95 Q12.05 14.05 13.05 12.3 L13.0 12.3 15.1 11.4 16.35 11.1 Q19.25 10.3 20.95 7.9 16.65 6.65 13.1 3.7 11.25 2.15 9.05 1.1 L7.35 0.55 Q-0.3 1.7 -6.9 -2.25 L-20.7 -0.6 -18.6 1.45 Q-15.85 3.95 -12.4 5.15 M12.65 10.35 Q9.75 8.75 7.75 6.1 L6.5 6.45 Q-0.15 7.35 -5.75 3.35 L-11.4 3.7 -15.0 3.3 Q-16.4 2.95 -16.7 1.85 L-16.1 1.95 Q-12.6 2.5 -9.1 2.0 -5.3 1.4 -1.4 3.2 2.5 5.05 8.55 5.0 L13.45 9.35 14.7 10.45 14.7 10.5 14.0 11.0 12.65 10.35 M6.85 -5.9 L6.8 -8.1 Q2.1 -10.1 -3.2 -9.15 L-6.45 -5.85 0.8 -4.85 4.85 -3.6 6.15 -3.1 7.3 -2.6 9.15 -1.65 9.45 -1.5 9.2 -1.55 6.05 -2.4 5.95 -2.4 Q0.5 -3.75 -5.1 -4.3 L-5.5 -4.3 -5.9 -4.35 -6.3 -4.35 -6.65 -4.4 -7.2 -4.4 -7.45 -4.45 -7.95 -3.65 Q-1.25 -1.95 5.75 -1.55 L7.2 -1.5 Q8.95 -1.35 10.45 -0.6 11.85 0.05 13.1 1.2 L13.45 -1.85 Q13.65 -3.2 13.05 -4.25 L11.7 -6.0 10.65 -6.9 8.05 -4.15 Q6.95 -3.45 6.85 -5.45 L6.85 -5.9 M7.85 -6.1 L8.5 -6.6 Q10.9 -8.5 10.8 -11.9 8.55 -9.4 7.85 -6.1" fill="#000000" fill-rule="evenodd" stroke="none"/>
    <path d="M7.85 -6.1 Q8.55 -9.4 10.8 -11.9 10.9 -8.5 8.5 -6.6 L7.85 -6.1" fill="#ffcc99" fill-rule="evenodd" stroke="none"/>
    <path d="M6.15 -3.1 L4.85 -3.6 0.8 -4.85 -6.45 -5.85 -3.2 -9.15 Q2.1 -10.1 6.8 -8.1 L6.85 -5.9 6.15 -3.1 M5.75 -1.55 Q-1.25 -1.95 -7.95 -3.65 L-7.45 -4.45 -7.2 -4.4 -6.65 -4.4 -6.3 -4.35 -5.9 -4.35 -5.5 -4.3 -5.1 -4.3 Q0.5 -3.75 5.95 -2.4 L5.75 -1.55" fill="#e2e1c7" fill-rule="evenodd" stroke="none"/>
    <path d="M-12.4 5.15 Q-15.85 3.95 -18.6 1.45 L-20.7 -0.6 -6.9 -2.25 Q-0.3 1.7 7.35 0.55 L9.05 1.1 Q11.25 2.15 13.1 3.7 16.65 6.65 20.95 7.9 19.25 10.3 16.35 11.1 L15.1 11.4 13.0 12.3 12.65 10.35 14.0 11.0 14.7 10.5 14.7 10.45 13.45 9.35 15.45 8.35 7.95 1.85 -1.3 2.1 -8.05 -0.9 -17.8 0.1 -16.1 1.95 -16.7 1.85 Q-16.4 2.95 -15.0 3.3 L-11.4 3.7 -12.4 5.15" fill="#cccc99" fill-rule="evenodd" stroke="none"/>
    <path d="M6.15 -3.1 L6.85 -5.9 6.85 -5.45 Q6.95 -3.45 8.05 -4.15 L10.65 -6.9 11.7 -6.0 10.45 -0.6 Q8.95 -1.35 7.2 -1.5 L5.75 -1.55 5.95 -2.4 6.05 -2.4 9.2 -1.55 9.45 -1.5 9.15 -1.65 7.3 -2.6 6.15 -3.1" fill="#cdccb5" fill-rule="evenodd" stroke="none"/>
    <path d="M11.7 -6.0 L13.05 -4.25 Q13.65 -3.2 13.45 -1.85 L13.1 1.2 Q11.85 0.05 10.45 -0.6 L11.7 -6.0" fill="#b8b7a3" fill-rule="evenodd" stroke="none"/>
    <path d="M13.45 9.35 L8.55 5.0 Q2.5 5.05 -1.4 3.2 -5.3 1.4 -9.1 2.0 -12.6 2.5 -16.1 1.95 L-17.8 0.1 -8.05 -0.9 -1.3 2.1 7.95 1.85 15.45 8.35 13.45 9.35" fill="#b1b185" fill-rule="evenodd" stroke="none"/>
  </g>
</svg>
