<?xml version="1.0" encoding="UTF-8" standalone="no"?>
<svg xmlns:xlink="http://www.w3.org/1999/xlink" height="140.25px" width="71.95px" xmlns="http://www.w3.org/2000/svg">
  <g transform="matrix(1.0, 0.0, 0.0, 1.0, 36.0, 70.35)">
    <path d="M19.2 -64.8 Q17.1 -64.55 15.35 -63.5 L13.85 -63.3 Q13.1 -63.35 12.5 -63.65 14.9 -65.3 17.75 -66.05 L19.55 -66.35 19.2 -64.8 M2.1 -23.45 Q4.55 -19.25 9.15 -17.65 13.15 -16.4 17.2 -17.75 21.6 -19.35 24.6 -23.0 27.0 -25.85 27.8 -29.55 29.85 -38.7 28.45 -47.9 L26.95 -56.2 Q26.5 -58.4 25.2 -60.35 23.6 -62.85 20.55 -62.75 L19.85 -62.95 Q19.4 -63.2 19.55 -63.75 23.5 -64.75 26.7 -62.6 L27.65 -61.95 Q27.6 -60.8 27.9 -59.65 29.25 -54.75 31.0 -49.8 L30.15 -49.4 Q30.75 -46.2 31.75 -43.15 32.65 -40.15 32.95 -37.05 L31.75 -37.45 Q31.6 -31.1 29.95 -24.9 L29.9 -24.6 29.75 -24.95 28.95 -26.25 25.4 -18.05 25.1 -19.7 19.75 -13.55 20.1 -15.65 18.6 -14.85 Q16.05 -13.25 13.05 -13.45 L14.1 -15.95 14.1 -16.5 13.8 -16.45 Q10.15 -14.7 6.1 -15.55 L5.65 -15.6 Q6.9 -16.9 5.75 -17.8 2.85 -19.95 2.1 -23.45" fill="#9f8d71" fill-rule="evenodd" stroke="none"/>
    <path d="M12.5 -63.65 Q13.1 -63.35 13.85 -63.3 L15.35 -63.5 Q17.1 -64.55 19.2 -64.8 L19.55 -63.75 Q19.4 -63.2 19.85 -62.95 L20.55 -62.75 Q23.6 -62.85 25.2 -60.35 26.5 -58.4 26.95 -56.2 L28.45 -47.9 Q29.85 -38.7 27.8 -29.55 27.0 -25.85 24.6 -23.0 21.6 -19.35 17.2 -17.75 13.15 -16.4 9.15 -17.65 4.55 -19.25 2.1 -23.45 1.15 -27.0 0.8 -30.85 L0.7 -31.55 1.75 -31.0 2.05 -31.75 Q0.25 -40.95 2.55 -50.1 L2.55 -50.15 3.0 -49.05 3.5 -48.85 Q4.6 -53.9 6.5 -58.8 7.2 -60.7 8.3 -62.1 L9.7 -63.95 10.1 -62.25 12.5 -63.65" fill="#d6cdc0" fill-rule="evenodd" stroke="none"/>
    <path d="M19.2 -64.8 L19.55 -66.35 17.75 -66.05 Q14.9 -65.3 12.5 -63.65 L10.1 -62.25 9.7 -63.95 8.3 -62.1 Q7.2 -60.7 6.5 -58.8 4.6 -53.9 3.5 -48.85 L3.0 -49.05 2.55 -50.15 2.55 -50.1 Q0.25 -40.95 2.05 -31.75 L1.75 -31.0 0.7 -31.55 0.8 -30.85 Q1.15 -27.0 2.1 -23.45 2.85 -19.95 5.75 -17.8 6.9 -16.9 5.65 -15.6 L6.1 -15.55 Q10.15 -14.7 13.8 -16.45 L14.1 -16.5 14.1 -15.95 13.05 -13.45 Q16.05 -13.25 18.6 -14.85 L20.1 -15.65 19.75 -13.55 25.1 -19.7 25.4 -18.05 28.95 -26.25 29.75 -24.95 29.9 -24.6 29.95 -24.9 Q31.6 -31.1 31.75 -37.45 L32.95 -37.05 Q32.65 -40.15 31.75 -43.15 30.75 -46.2 30.15 -49.4 L31.0 -49.8 Q29.25 -54.75 27.9 -59.65 27.6 -60.8 27.65 -61.95 L26.7 -62.6 Q23.5 -64.75 19.55 -63.75 L19.2 -64.8 M10.95 -67.5 L11.45 -67.15 11.1 -65.2 Q15.7 -68.25 21.25 -68.6 L21.45 -66.4 22.35 -66.2 Q24.2 -65.95 25.95 -65.0 28.55 -63.55 29.55 -60.85 L28.95 -60.05 32.0 -51.15 Q32.85 -48.8 32.95 -46.4 L32.75 -46.1 34.55 -36.95 Q34.95 -34.65 34.3 -32.4 L32.85 -34.05 32.6 -30.4 Q32.15 -25.1 30.0 -20.2 L28.9 -22.6 27.75 -19.45 Q26.65 -16.65 24.4 -14.75 L23.9 -15.0 20.95 -12.4 22.15 -10.3 Q23.85 -7.0 23.7 -3.5 L23.5 -2.1 Q23.1 -0.9 22.3 0.0 L24.2 9.8 Q25.55 16.6 25.8 23.6 L27.75 25.3 27.75 25.35 Q28.55 37.95 30.6 50.45 L32.1 50.85 32.5 52.6 32.0 53.55 Q29.25 57.95 24.9 60.7 20.45 63.4 15.7 64.95 L6.8 67.1 Q-2.7 68.85 -12.4 68.6 -18.1 68.35 -21.85 64.5 -23.25 50.0 -26.5 35.75 L-28.1 34.4 -27.4 30.2 -32.15 3.65 -34.65 0.2 -33.75 -2.55 Q-31.9 -7.0 -27.5 -9.15 -23.35 -11.25 -18.95 -12.7 L-15.3 -13.85 3.45 -17.1 0.4 -25.8 Q-1.05 -31.8 -0.55 -38.0 -0.1 -42.05 0.7 -45.9 1.45 -49.8 2.7 -53.1 3.9 -56.45 5.8 -60.5 7.75 -64.55 10.95 -67.5 M-8.65 3.45 Q-4.65 3.35 -0.65 2.4 L6.1 0.85 Q9.8 0.2 13.4 -1.2 L16.75 -2.8 18.25 -3.85 19.8 -5.3 19.95 -5.25 20.8 -6.7 19.35 -8.45 18.9 -9.3 20.5 -9.5 19.7 -11.2 18.4 -10.35 18.0 -10.6 17.8 -11.15 18.4 -12.95 Q14.55 -11.6 10.35 -12.0 L10.25 -12.55 12.1 -14.4 Q9.55 -13.0 6.75 -13.55 4.95 -14.0 3.7 -14.95 L-10.35 -13.5 Q-14.65 -12.7 -18.75 -11.25 -24.85 -9.1 -30.2 -5.4 -31.85 -4.25 -32.2 -2.5 L-31.75 -1.8 -30.05 -0.55 Q-25.5 -6.15 -18.35 -7.65 L-17.75 -7.0 -17.8 -7.0 -21.2 -3.7 Q-22.4 -2.6 -23.2 -1.1 L-19.7 -2.45 -22.25 2.5 -19.6 3.0 -9.7 3.55 -9.0 3.5 -8.65 3.45 M16.05 3.4 L13.25 4.5 21.85 -2.45 22.1 -3.5 Q21.25 -2.1 19.95 -1.45 L15.0 0.55 Q9.3 2.7 3.3 3.75 L0.25 4.2 -15.0 5.45 -23.4 4.95 -24.45 4.7 Q-27.2 3.95 -29.65 2.35 L-32.15 0.45 Q-31.0 2.05 -30.55 4.05 L-27.25 19.7 Q-26.35 23.75 -26.1 27.95 L-26.2 31.45 -26.55 33.25 -25.75 33.9 -21.7 36.2 Q-15.9 38.7 -9.35 38.05 -8.7 38.0 -8.15 38.5 -12.0 39.6 -16.0 39.4 L-18.9 39.15 -23.05 37.7 -24.45 37.25 -21.8 50.9 Q-20.5 57.25 -20.2 63.9 L-19.05 64.45 -14.3 65.9 -7.75 66.7 Q-3.25 67.15 8.55 64.75 L9.2 64.6 Q17.4 63.2 24.35 58.9 L25.8 57.9 30.65 52.85 30.35 52.3 29.75 52.6 29.1 52.25 26.3 28.85 20.2 32.55 10.7 34.9 21.05 30.2 Q23.3 29.25 25.1 27.6 25.8 26.9 26.1 25.95 L25.25 24.8 25.0 25.35 20.65 1.35 16.05 3.4 M-6.2 -0.55 L-6.25 -0.6 -6.2 -0.6 -6.2 -0.55 M-2.6 1.3 L-2.65 1.3 -2.65 1.2 -2.6 1.3 M-9.0 2.05 L-9.0 1.95 -8.95 2.05 -9.0 2.05" fill="#000000" fill-rule="evenodd" stroke="none"/>
    <path d="M-9.0 3.5 L-9.7 3.55 -19.6 3.0 -22.25 2.5 -19.7 -2.45 -23.2 -1.1 Q-22.4 -2.6 -21.2 -3.7 L-17.8 -7.0 -17.75 -7.0 -18.35 -7.65 Q-25.5 -6.15 -30.05 -0.55 L-31.75 -1.8 -32.2 -2.5 Q-31.85 -4.25 -30.2 -5.4 -24.85 -9.1 -18.75 -11.25 -14.65 -12.7 -10.35 -13.5 L3.7 -14.95 Q4.95 -14.0 6.75 -13.55 9.55 -13.0 12.1 -14.4 L10.25 -12.55 10.35 -12.0 Q14.55 -11.6 18.4 -12.95 L17.8 -11.15 18.0 -10.6 18.4 -10.35 19.7 -11.2 20.5 -9.5 18.9 -9.3 19.35 -8.45 20.8 -6.7 19.95 -5.25 19.8 -5.3 18.25 -3.85 16.75 -2.8 13.4 -1.2 Q9.8 0.2 6.1 0.85 L-0.65 2.4 Q-4.65 3.35 -8.65 3.45 L-8.9 3.45 -9.0 3.5 M-9.0 2.05 L-8.95 2.05 -9.0 1.95 -9.0 2.05 M-2.6 1.3 L-2.65 1.2 -2.65 1.3 -2.6 1.3 M-6.2 -0.55 L-6.2 -0.6 -6.25 -0.6 -6.2 -0.55" fill="#333333" fill-rule="evenodd" stroke="none"/>
    <path d="M0.25 4.2 L3.3 3.75 Q9.3 2.7 15.0 0.55 L19.95 -1.45 Q21.25 -2.1 22.1 -3.5 L21.85 -2.45 13.25 4.5 16.05 3.4 Q17.3 14.9 19.05 26.35 L19.45 27.3 Q20.05 27.95 21.0 28.0 L21.2 28.35 Q21.8 29.25 21.05 30.2 L10.7 34.9 20.2 32.55 22.85 48.65 Q23.35 52.05 24.2 55.45 24.3 55.95 24.8 56.45 L25.4 56.45 26.05 57.25 25.8 57.9 24.35 58.9 Q17.4 63.2 9.2 64.6 L8.55 64.75 6.8 51.05 6.8 51.6 1.9 17.1 Q1.0 11.6 0.45 6.05 L0.25 4.2 M-29.65 2.35 Q-27.2 3.95 -24.45 4.7 L-23.4 4.95 Q-22.0 12.1 -20.85 19.2 -19.95 25.45 -18.45 31.55 -18.2 32.8 -18.6 33.4 -20.15 33.85 -21.85 33.0 L-22.2 33.65 -22.5 34.7 -22.4 35.7 -21.7 36.2 -25.75 33.9 Q-25.45 31.7 -25.3 29.5 -25.1 24.7 -26.0 19.8 -27.75 11.05 -29.65 2.35 M-23.05 37.7 L-18.9 39.15 Q-17.9 41.5 -17.6 44.45 L-14.3 65.9 -19.05 64.45 Q-18.6 63.6 -18.7 62.75 -19.05 59.35 -19.75 56.05 -21.7 47.0 -23.05 37.7" fill="#999999" fill-rule="evenodd" stroke="none"/>
    <path d="M0.25 4.2 L0.45 6.05 Q1.0 11.6 1.9 17.1 L6.8 51.6 6.8 51.05 8.55 64.75 Q-3.25 67.15 -7.75 66.7 L-14.3 65.9 -17.6 44.45 Q-17.9 41.5 -18.9 39.15 L-16.0 39.4 Q-12.0 39.6 -8.15 38.5 -8.7 38.0 -9.35 38.05 -15.9 38.7 -21.7 36.2 L-22.4 35.7 -22.5 34.7 -22.2 33.65 -21.85 33.0 Q-20.15 33.85 -18.6 33.4 -18.2 32.8 -18.45 31.55 -19.95 25.45 -20.85 19.2 -22.0 12.1 -23.4 4.95 L-15.0 5.45 0.25 4.2" fill="#cccccc" fill-rule="evenodd" stroke="none"/>
    <path d="M25.8 57.9 L26.05 57.25 25.4 56.45 24.8 56.45 Q24.3 55.95 24.2 55.45 23.35 52.05 22.85 48.65 L20.2 32.55 26.3 28.85 29.1 52.25 29.75 52.6 30.35 52.3 30.65 52.85 25.8 57.9 M21.05 30.2 Q21.8 29.25 21.2 28.35 L21.0 28.0 Q20.05 27.95 19.45 27.3 L19.05 26.35 Q17.3 14.9 16.05 3.4 L20.65 1.35 25.0 25.35 25.25 24.8 26.1 25.95 Q25.8 26.9 25.1 27.6 23.3 29.25 21.05 30.2 M-29.65 2.35 Q-27.75 11.05 -26.0 19.8 -25.1 24.7 -25.3 29.5 -25.45 31.7 -25.75 33.9 L-26.55 33.25 -26.2 31.45 -26.1 27.95 Q-26.35 23.75 -27.25 19.7 L-30.55 4.05 Q-31.0 2.05 -32.15 0.45 L-29.65 2.35 M-19.05 64.45 L-20.2 63.9 Q-20.5 57.25 -21.8 50.9 L-24.45 37.25 -23.05 37.7 Q-21.7 47.0 -19.75 56.05 -19.05 59.35 -18.7 62.75 -18.6 63.6 -19.05 64.45" fill="#666666" fill-rule="evenodd" stroke="none"/>
    <path d="M10.95 -67.5 Q7.75 -64.55 5.8 -60.5 3.9 -56.45 2.7 -53.1 1.45 -49.8 0.7 -45.9 -0.1 -42.05 -0.55 -38.0 -1.05 -31.8 0.4 -25.8 L3.45 -17.1 -15.3 -13.85 -18.95 -12.7 Q-23.35 -11.25 -27.5 -9.15 -31.9 -7.0 -33.75 -2.55 L-34.65 0.2 -32.15 3.65 -27.4 30.2 -28.1 34.4 -26.5 35.75 Q-23.25 50.0 -21.85 64.5 -18.1 68.35 -12.4 68.6 -2.7 68.85 6.8 67.1 L15.7 64.95 Q20.45 63.4 24.9 60.7 29.25 57.95 32.0 53.55 L32.5 52.6 32.1 50.85 30.6 50.45 Q28.55 37.95 27.75 25.35 L27.75 25.3 25.8 23.6 Q25.55 16.6 24.2 9.8 L22.3 0.0 Q23.1 -0.9 23.5 -2.1 L23.7 -3.5 Q23.85 -7.0 22.15 -10.3 L20.95 -12.4 23.9 -15.0 24.4 -14.75 Q26.65 -16.65 27.75 -19.45 L28.9 -22.6 30.0 -20.2 Q32.15 -25.1 32.6 -30.4 L32.85 -34.05 34.3 -32.4 Q34.95 -34.65 34.55 -36.95 L32.75 -46.1 32.95 -46.4 Q32.85 -48.8 32.0 -51.15 L28.95 -60.05 29.55 -60.85 Q28.55 -63.55 25.95 -65.0 24.2 -65.95 22.35 -66.2 L21.45 -66.4 21.25 -68.6 Q15.7 -68.25 11.1 -65.2 L11.45 -67.15 10.95 -67.5 Z" fill="none" stroke="#000000" stroke-linecap="round" stroke-linejoin="miter-clip" stroke-miterlimit="3.0" stroke-width="2.5"/>
  </g>
</svg>
