<?xml version="1.0" encoding="UTF-8" standalone="no"?>
<svg xmlns:xlink="http://www.w3.org/1999/xlink" height="36.15px" width="17.7px" xmlns="http://www.w3.org/2000/svg">
  <g transform="matrix(1.0, 0.0, 0.0, 1.0, 17.0, 31.5)">
    <path d="M-10.15 -10.4 L-10.6 -10.75 Q-8.4 -10.5 -7.25 -12.45 L-6.3 -16.85 -4.75 -20.95 Q-4.2 -22.2 -4.35 -23.75 L-4.85 -26.6 Q-5.35 -28.65 -7.7 -28.8 -9.3 -28.55 -10.6 -27.85 -12.5 -26.85 -13.15 -24.8 -13.75 -23.0 -13.95 -21.25 L-14.0 -18.7 -13.4 -13.9 -12.35 -9.85 -11.5 -7.85 -7.9 -1.05 -7.75 -0.7 Q-6.95 1.35 -7.45 3.35 L-9.35 3.4 -9.0 1.95 -9.0 1.65 Q-9.9 -2.25 -12.25 -5.6 -14.0 -8.2 -14.75 -11.2 L-15.05 -12.45 Q-15.7 -16.25 -15.75 -18.7 -16.0 -23.75 -13.0 -27.65 -11.0 -30.15 -7.7 -30.25 -3.6 -29.95 -2.8 -26.1 -1.95 -21.6 -4.1 -17.65 L-5.3 -14.3 -5.45 -12.7 Q-5.5 -10.0 -4.15 -7.35 L-1.15 -1.65 Q-0.65 -0.75 -0.55 0.35 L-0.55 2.1 -2.75 2.55 -2.65 1.2 -2.9 -1.0 -4.25 -0.5 -5.45 -0.25 Q-6.0 -0.2 -6.25 -0.6 L-6.2 -0.6 -6.35 -0.8 -6.35 -0.85 -6.25 -0.95 -5.85 -1.1 Q-4.6 -1.2 -3.4 -2.4 L-6.0 -6.8 -7.9 -5.8 -8.85 -5.65 -8.15 -6.25 Q-7.15 -6.95 -6.5 -8.0 L-7.15 -10.85 Q-9.05 -9.7 -10.15 -10.4" fill="#000000" fill-rule="evenodd" stroke="none"/>
    <path d="M-12.35 -9.85 L-13.4 -13.9 -14.0 -18.7 -13.95 -21.25 Q-13.75 -23.0 -13.15 -24.8 -12.5 -26.85 -10.6 -27.85 -9.3 -28.55 -7.7 -28.8 -5.35 -28.65 -4.85 -26.6 L-4.35 -23.75 Q-4.2 -22.2 -4.75 -20.95 L-6.3 -16.85 -7.25 -12.45 Q-8.4 -10.5 -10.6 -10.75 L-10.15 -10.4 -11.2 -10.25 -12.35 -9.85 M-6.25 -0.6 Q-6.0 -0.2 -5.45 -0.25 L-4.25 -0.5 -2.9 -1.0 -2.65 1.2 -2.75 2.55 -7.45 3.35 Q-6.95 1.35 -7.75 -0.7 L-6.25 -0.6" fill="#ffcccc" fill-rule="evenodd" stroke="none"/>
    <path d="M-10.15 -10.4 Q-9.05 -9.7 -7.15 -10.85 L-6.5 -8.0 Q-7.15 -6.95 -8.15 -6.25 L-8.85 -5.65 -7.9 -5.8 -6.0 -6.8 -3.4 -2.4 Q-4.6 -1.2 -5.85 -1.1 L-6.25 -0.95 -6.35 -0.85 -6.35 -0.8 -6.2 -0.6 -6.25 -0.6 -7.75 -0.7 -7.9 -1.05 -11.5 -7.85 -12.35 -9.85 -11.2 -10.25 -10.15 -10.4" fill="#cc9999" fill-rule="evenodd" stroke="none"/>
    <path d="M-2.75 2.55 L-0.55 2.1 -0.55 0.35 Q-0.65 -0.75 -1.15 -1.65 L-4.15 -7.35 Q-5.5 -10.0 -5.45 -12.7 L-5.3 -14.3 -4.1 -17.65 Q-1.95 -21.6 -2.8 -26.1 -3.6 -29.95 -7.7 -30.25 -11.0 -30.15 -13.0 -27.65 -16.0 -23.75 -15.75 -18.7 -15.7 -16.25 -15.05 -12.45 L-14.75 -11.2 Q-14.0 -8.2 -12.25 -5.6 -9.9 -2.25 -9.0 1.65 L-9.0 1.95 -9.35 3.4 -7.45 3.35" fill="none" stroke="#000000" stroke-linecap="round" stroke-linejoin="miter-clip" stroke-miterlimit="3.0" stroke-width="2.5"/>
  </g>
</svg>
