<?xml version="1.0" encoding="UTF-8" standalone="no"?>
<svg xmlns:xlink="http://www.w3.org/1999/xlink" height="104.95px" width="87.5px" xmlns="http://www.w3.org/2000/svg">
  <g transform="matrix(1.0, 0.0, 0.0, 1.0, 43.75, 52.45)">
    <path d="M-42.7 -2.05 Q-42.15 -3.05 -40.5 -4.3 L-39.95 3.15 -39.95 3.7 -35.9 5.2 -35.95 5.2 -28.35 6.4 -22.0 6.65 -19.25 6.95 -11.8 5.3 -8.85 0.25 -7.75 -1.85 -8.25 0.25 -9.45 6.45 -19.0 19.7 -19.45 19.3 -32.1 12.7 -38.1 8.65 Q-40.25 7.3 -41.85 5.35 L-43.1 3.5 Q-44.05 2.25 -43.65 0.6 L-42.7 -2.05 M17.45 -51.65 L18.85 -50.6 Q22.1 -48.25 23.95 -44.45 L24.1 -44.1 24.1 -44.05 25.55 -39.7 Q29.55 -29.65 31.65 -19.3 32.2 -16.35 33.0 -13.45 L34.85 -8.15 36.85 -3.0 37.9 -0.4 38.4 1.05 39.85 5.05 41.3 9.1 42.6 13.1 Q43.65 18.95 43.75 25.0 43.85 29.75 42.8 34.2 40.9 42.45 33.55 47.55 L31.25 48.9 Q19.8 54.35 7.5 51.6 9.15 50.75 10.65 49.15 L10.7 49.0 10.75 48.95 Q15.2 44.95 15.5 39.25 L15.45 36.75 15.4 35.45 -2.5 36.6 -6.8 36.25 -8.65 35.85 Q-12.55 34.45 -13.4 29.9 -11.7 31.65 -9.6 32.8 -2.45 31.6 1.4 29.9 2.85 28.65 5.85 27.4 L10.75 25.4 13.55 24.2 14.0 24.05 14.0 24.0 14.15 23.95 14.65 23.6 14.15 18.2 9.1 -6.25 9.1 -6.45 8.75 -7.65 Q4.0 -21.45 -0.8 -21.45 -1.2 -21.4 -2.85 -26.05 -4.55 -30.75 2.25 -40.75 L2.6 -41.8 5.1 -46.65 Q6.35 -48.35 8.0 -49.75 12.9 -53.95 17.45 -51.65" fill="#0066cc" fill-rule="evenodd" stroke="none"/>
  </g>
</svg>
