<?xml version="1.0" encoding="UTF-8" standalone="no"?>
<svg xmlns:xlink="http://www.w3.org/1999/xlink" height="108.35px" width="158.05px" xmlns="http://www.w3.org/2000/svg">
  <g transform="matrix(1.0, 0.0, 0.0, 1.0, 55.95, 46.9)">
    <path d="M59.6 -35.6 L61.35 -39.6 Q62.6 -41.3 64.25 -42.7 69.15 -46.9 73.7 -44.6 L75.1 -43.55 Q78.35 -41.2 80.2 -37.4 L80.35 -37.05 80.35 -37.0 81.8 -32.65 Q85.8 -22.6 87.9 -12.25 L89.25 -6.4 98.85 20.15 Q99.9 26.0 100.0 32.05 100.1 36.8 99.05 41.25 98.4 44.2 97.0 46.7 94.55 51.3 89.8 54.6 L87.5 55.95 Q76.05 61.4 63.75 58.65 65.4 57.8 66.9 56.2 L66.95 56.05 67.0 56.0 Q69.0 54.2 70.2 52.0 79.2 53.5 87.85 50.8 95.25 48.25 97.35 40.45 100.5 28.7 96.45 17.5 L88.85 -3.55 Q85.45 -15.75 80.15 -31.55 78.75 -35.6 77.4 -35.05 L72.4 -33.8 Q66.5 -34.1 63.9 -36.05 L59.6 -35.6 M71.75 46.3 L71.7 43.8 76.15 42.55 76.2 42.55 77.3 42.15 Q82.05 40.2 85.05 36.0 81.45 44.55 71.75 46.3 M65.75 2.65 L65.35 0.8 65.35 0.6 65.0 -0.6 Q66.75 -1.3 68.2 -2.55 L70.55 -5.75 Q69.45 -1.55 65.75 2.65 M17.9 14.65 Q18.5 15.15 18.65 14.65 L18.75 13.85 18.8 13.85 Q20.95 17.15 24.15 19.75 L18.15 15.7 17.9 14.65" fill="#000000" fill-opacity="0.4" fill-rule="evenodd" stroke="none"/>
    <path d="M70.2 52.0 Q69.0 54.2 67.0 56.0 L66.95 56.05 66.9 56.2 Q65.4 57.8 63.75 58.65 76.05 61.4 87.5 55.95 L89.8 54.6 Q94.55 51.3 97.0 46.7 98.4 44.2 99.05 41.25 100.1 36.8 100.0 32.05 99.9 26.0 98.85 20.15 L89.25 -6.4 87.9 -12.25 Q85.8 -22.6 81.8 -32.65 L80.35 -37.0 80.35 -37.05 80.2 -37.4 Q78.35 -41.2 75.1 -43.55 L73.7 -44.6 Q69.15 -46.9 64.25 -42.7 62.6 -41.3 61.35 -39.6 L59.6 -35.6 57.8 -31.6 Q55.8 -28.4 55.15 -26.85 54.55 -25.5 54.25 -24.0 53.7 -21.05 54.1 -18.1 L54.55 -16.2 56.35 -17.0 56.3 -16.9 58.4 -17.45 58.55 -17.5 61.95 -17.6 Q65.0 -17.3 67.5 -15.8 L67.55 -15.8 70.45 -13.3 70.8 -12.85 70.9 -12.65 Q72.6 -8.85 70.55 -5.75 L68.2 -2.55 Q66.75 -1.3 65.0 -0.6 L65.35 0.6 65.35 0.8 65.75 2.65 70.4 25.25 70.8 29.3 73.0 28.15 72.9 25.25 Q72.7 17.7 73.45 10.2 73.45 10.1 73.6 10.15 74.35 17.6 74.25 25.25 L74.1 28.55 69.5 31.6 61.4 35.15 Q54.5 38.7 46.95 40.75 L46.35 40.65 Q46.1 40.3 46.15 39.9 44.3 38.75 42.85 36.95 43.4 39.1 44.9 41.05 L45.35 41.55 45.45 41.5 45.75 41.85 45.9 41.95 46.8 42.4 47.9 42.55 Q61.2 43.45 74.35 41.15 L76.35 40.8 Q80.15 39.1 82.85 35.85 L84.6 33.85 86.9 30.35 87.85 28.55 89.95 23.45 90.35 22.45 91.35 20.2 92.7 17.35 91.65 22.65 89.3 28.55 85.05 36.0 Q82.05 40.2 77.3 42.15 L76.2 42.55 76.15 42.55 71.7 43.8 71.75 46.3 Q71.6 49.4 70.2 52.0 M-27.0 -24.0 L-55.95 -46.7 Q-24.35 -23.7 6.9 -0.2 L12.4 3.95 14.75 1.35 Q15.25 0.9 16.0 0.65 L16.9 1.0 17.45 3.5 Q18.1 6.7 18.0 10.2 L18.0 10.45 Q18.75 10.85 19.3 11.6 L19.35 11.65 21.55 11.4 22.6 11.4 35.3 12.8 Q36.55 12.7 37.55 13.15 L37.6 13.15 Q39.95 12.25 42.5 12.2 L44.1 10.0 48.95 0.9 49.85 -0.5 Q46.2 0.15 43.75 -2.3 L43.25 -2.85 43.4 -4.15 Q44.25 -9.25 48.05 -12.65 L50.05 -14.15 53.45 -15.75 Q52.45 -18.3 52.6 -21.15 52.75 -24.15 53.8 -26.9 54.85 -29.7 56.6 -32.1 L56.95 -32.45 56.95 -32.55 57.05 -32.55 57.3 -34.3 57.65 -35.5 59.7 -39.6 Q62.35 -43.4 66.55 -45.8 68.0 -46.6 69.5 -46.9 L73.7 -46.45 Q78.65 -43.9 81.25 -39.05 L82.25 -37.4 84.65 -30.45 92.6 -2.15 98.55 12.55 Q100.05 16.25 100.55 20.15 102.0 27.8 102.1 35.0 102.2 42.2 98.1 49.1 94.0 56.0 88.0 58.25 81.95 60.5 79.65 60.9 70.15 62.55 61.65 59.45 L60.65 59.65 60.1 60.05 Q57.15 60.25 55.05 58.45 50.65 55.5 48.05 50.7 L47.4 49.05 46.7 49.45 44.1 48.7 Q40.75 46.3 37.95 41.05 L35.65 41.45 35.75 42.05 35.8 42.2 Q37.6 43.1 38.35 44.5 36.45 44.5 34.7 43.25 L34.3 41.4 33.75 41.3 33.65 41.3 Q32.5 41.05 31.65 40.5 30.2 40.15 29.25 39.1 28.6 38.4 27.95 36.75 27.3 35.1 27.05 32.95 26.75 30.8 27.6 29.45 28.45 28.05 29.75 27.25 30.65 26.75 31.65 26.35 L32.6 26.0 Q30.65 24.4 28.55 22.95 25.6 22.85 22.65 21.15 17.85 18.35 13.8 14.45 12.3 12.45 11.85 11.05 L11.15 8.8 Q10.95 8.0 11.15 6.85 L0.65 -1.7 -0.55 -2.7 -26.2 -23.35 -27.0 -24.0 -26.8 -23.9 -26.2 -23.35 -26.8 -23.9 -27.0 -24.0 M53.05 -13.8 L51.05 -12.65 50.05 -11.9 Q46.2 -8.35 45.15 -5.95 L44.75 -4.3 44.75 -4.15 Q44.75 -3.25 45.4 -2.6 L50.05 -1.95 Q54.8 -1.9 59.55 -4.05 L65.45 -7.25 65.15 -7.35 64.25 -7.9 63.85 -8.05 Q63.55 -8.2 63.6 -8.5 L63.65 -8.85 63.75 -9.0 63.85 -9.1 64.25 -9.25 68.2 -8.6 Q68.9 -8.25 68.45 -7.65 L68.2 -7.35 66.85 -7.1 Q65.7 -4.55 62.45 -3.05 L58.8 -1.65 Q64.55 -0.7 68.2 -5.15 70.15 -7.05 70.05 -9.25 69.9 -10.6 69.0 -12.1 L68.5 -12.85 67.9 -13.4 67.9 -13.45 Q63.25 -15.85 60.4 -15.8 L56.9 -15.8 53.05 -13.8 M64.7 3.4 L64.2 1.65 64.1 -0.3 56.4 -0.6 55.8 -0.95 54.35 -0.7 51.35 -0.5 51.4 0.9 51.4 1.05 49.6 7.3 Q49.1 9.5 48.95 11.85 48.15 14.85 47.9 17.9 L51.35 17.75 Q60.6 18.95 67.05 25.25 L68.75 27.15 64.7 3.4 M44.45 12.35 Q45.75 12.65 46.8 13.5 L48.5 5.2 44.45 12.35 M42.3 31.35 L42.3 31.4 44.5 33.75 44.55 32.35 Q43.75 25.95 44.45 19.7 L44.45 19.6 Q44.4 19.05 44.5 18.55 L46.0 18.2 46.4 15.9 46.3 15.9 46.05 16.05 41.3 16.25 41.65 22.25 Q41.7 22.8 41.35 23.25 L41.35 23.3 40.6 23.25 40.45 23.15 40.25 17.15 Q39.05 16.0 39.1 14.5 L39.25 14.35 40.9 15.75 41.0 15.85 41.1 15.8 43.9 15.1 44.1 15.1 45.6 14.95 46.5 15.2 46.7 14.15 46.35 14.3 Q43.45 13.4 40.45 13.65 L38.7 13.9 38.4 13.95 Q37.85 14.35 37.65 15.1 L37.65 15.15 39.1 28.3 42.3 31.35 M45.35 20.6 L45.5 23.1 Q45.5 29.6 46.3 35.9 L47.85 37.95 48.2 38.6 Q55.25 36.2 62.05 33.3 L68.85 30.2 62.05 23.55 Q60.3 22.15 58.35 21.2 53.1 18.85 47.9 19.4 L47.85 19.4 45.35 19.8 45.3 20.2 45.35 20.6 M61.75 30.8 L61.25 30.95 Q57.65 27.15 53.1 24.55 L47.6 21.3 46.95 20.6 Q52.2 22.15 56.7 25.25 59.95 27.35 61.8 30.45 L61.75 30.8 M62.15 44.5 L54.95 44.75 56.7 45.95 Q58.0 46.95 58.6 48.2 L57.85 48.85 54.25 46.95 Q52.4 45.85 51.15 44.25 L46.75 43.1 49.25 49.2 51.1 51.65 54.95 55.55 Q56.45 56.85 58.35 57.5 L59.05 57.7 Q61.85 58.2 64.15 56.35 L65.2 55.5 Q67.8 51.45 69.1 44.2 L62.15 44.5 M43.15 41.2 Q42.35 40.35 42.25 39.1 42.1 37.85 42.75 36.8 L39.25 32.25 39.8 33.3 40.4 35.35 40.4 36.65 Q40.45 38.1 39.65 39.55 L40.05 40.7 Q41.45 44.5 44.8 47.0 45.4 47.45 46.2 47.55 L45.85 46.35 Q45.4 44.4 45.3 42.55 L44.1 42.0 43.15 41.2 M70.1 45.2 L68.7 50.1 Q68.2 51.45 68.05 52.95 L68.75 51.7 Q69.7 49.85 69.95 47.65 L70.1 45.2 M34.05 23.95 L35.15 25.05 37.25 26.75 Q36.0 20.85 37.0 14.0 L27.9 13.45 20.3 12.25 Q26.3 18.7 33.65 23.7 L34.05 23.95 M17.9 14.65 L17.6 14.35 16.55 11.2 16.35 10.85 15.75 2.75 Q14.1 4.0 13.55 5.0 13.0 6.0 12.6 7.65 12.2 9.3 13.15 10.55 L14.4 12.4 Q16.0 14.35 18.15 15.7 L24.15 19.75 Q20.95 17.15 18.8 13.85 L18.7 13.75 18.75 13.85 18.65 14.65 Q18.5 15.15 17.9 14.65 M36.45 29.4 L34.2 27.35 33.65 27.4 Q31.1 27.7 29.5 29.35 27.7 31.1 28.85 35.85 29.1 29.8 33.65 29.3 L34.7 29.25 36.3 29.55 36.9 29.85 36.45 29.4 M34.2 35.4 L35.35 40.2 36.3 39.85 37.05 39.3 37.8 38.55 Q39.5 36.5 38.25 33.9 37.55 32.45 36.3 31.45 34.8 30.85 33.65 30.95 32.1 31.05 31.2 32.35 29.6 34.7 30.4 35.85 L31.6 38.05 34.1 40.1 33.9 37.95 Q33.85 37.0 33.95 36.05 L34.2 35.4" fill="#000000" fill-rule="evenodd" stroke="none"/>
    <path d="M44.75 -4.3 L45.15 -5.95 Q46.2 -8.35 50.05 -11.9 L51.05 -12.65 53.05 -13.8 Q58.2 -15.75 63.45 -13.95 66.2 -12.9 67.95 -11.6 L68.15 -11.45 66.9 -10.55 63.85 -9.1 Q61.85 -7.95 59.4 -6.05 62.95 -7.95 60.4 -6.55 52.55 -2.35 44.75 -4.3 M42.3 31.35 L39.1 28.3 37.65 15.15 37.65 15.1 Q37.85 14.35 38.4 13.95 L38.7 13.9 40.45 13.65 40.45 13.7 38.7 13.9 39.1 14.5 Q39.05 16.0 40.25 17.15 L40.45 23.15 40.6 23.25 41.35 23.3 Q41.55 27.35 42.3 31.35 M41.1 15.8 L41.0 15.85 40.9 15.75 41.1 15.8 M62.05 33.3 Q55.25 36.2 48.2 38.6 L47.85 37.95 46.3 35.9 Q45.5 29.6 45.5 23.1 L45.35 20.6 47.6 21.3 53.1 24.55 Q57.65 27.15 61.25 30.95 L61.75 30.8 62.0 33.05 62.05 33.3 M43.15 41.2 L44.1 42.0 45.3 42.55 Q45.4 44.4 45.85 46.35 L46.2 47.55 Q45.4 47.45 44.8 47.0 41.45 44.5 40.05 40.7 L39.65 39.55 Q40.45 38.1 40.4 36.65 L40.4 35.35 39.8 33.3 39.25 32.25 42.75 36.8 Q42.1 37.85 42.25 39.1 42.35 40.35 43.15 41.2 M59.05 57.7 L58.35 57.5 Q56.45 56.85 54.95 55.55 L51.1 51.65 49.25 49.2 46.75 43.1 51.15 44.25 Q52.4 45.85 54.25 46.95 L57.85 48.85 58.6 48.2 Q58.0 46.95 56.7 45.95 L54.95 44.75 62.15 44.5 Q61.85 49.95 60.0 55.25 L59.05 57.7" fill="#ffb409" fill-rule="evenodd" stroke="none"/>
    <path d="M68.15 -11.45 L67.95 -11.6 Q66.2 -12.9 63.45 -13.95 58.2 -15.75 53.05 -13.8 L56.9 -15.8 60.4 -15.8 Q63.25 -15.85 67.9 -13.45 L67.9 -13.4 68.5 -12.85 69.0 -12.1 Q69.9 -10.6 70.05 -9.25 69.4 -10.45 68.15 -11.45" fill="#ffcd5b" fill-rule="evenodd" stroke="none"/>
    <path d="M44.75 -4.3 Q52.55 -2.35 60.4 -6.55 62.95 -7.95 59.4 -6.05 61.85 -7.95 63.85 -9.1 L66.9 -10.55 68.15 -11.45 Q69.4 -10.45 70.05 -9.25 70.15 -7.05 68.2 -5.15 64.55 -0.7 58.8 -1.65 L62.45 -3.05 Q65.7 -4.55 66.85 -7.1 L68.2 -7.35 68.45 -7.65 Q68.9 -8.25 68.2 -8.6 L64.25 -9.25 63.85 -9.1 63.75 -9.0 63.65 -8.85 63.6 -8.5 Q63.55 -8.2 63.85 -8.05 L64.25 -7.9 65.15 -7.35 65.45 -7.25 59.55 -4.05 Q54.8 -1.9 50.05 -1.95 L45.4 -2.6 Q44.75 -3.25 44.75 -4.15 L44.75 -4.3 M41.35 23.3 L41.35 23.25 Q41.7 22.8 41.65 22.25 L41.3 16.25 46.05 16.05 46.3 15.9 46.4 15.9 46.0 18.2 44.5 18.55 Q44.4 19.05 44.45 19.6 L44.45 19.7 Q43.75 25.95 44.55 32.35 L44.5 33.75 42.3 31.4 42.3 31.35 Q41.55 27.35 41.35 23.3 M40.45 13.65 Q43.45 13.4 46.35 14.3 L46.7 14.15 46.5 15.2 45.6 14.95 44.1 15.1 43.9 15.1 41.1 15.8 40.9 15.75 39.25 14.35 39.1 14.5 38.7 13.9 40.45 13.7 40.45 13.65 M45.35 20.6 L45.3 20.2 45.35 19.8 47.85 19.4 47.9 19.4 Q53.1 18.85 58.35 21.2 60.3 22.15 62.05 23.55 L68.85 30.2 62.05 33.3 62.0 33.05 61.75 30.8 61.8 30.45 Q59.95 27.35 56.7 25.25 52.2 22.15 46.95 20.6 L47.6 21.3 45.35 20.6 M62.15 44.5 L69.1 44.2 Q67.8 51.45 65.2 55.5 L64.15 56.35 Q61.85 58.2 59.05 57.7 L60.0 55.25 Q61.85 49.95 62.15 44.5" fill="#f99108" fill-rule="evenodd" stroke="none"/>
    <path d="M51.4 1.05 L51.4 0.9 51.35 -0.5 54.35 -0.7 55.8 -0.95 56.4 -0.6 64.1 -0.3 64.2 1.65 64.7 3.4 Q61.05 4.75 57.3 4.45 53.05 4.05 51.4 1.05 M70.1 45.2 L69.95 47.65 Q69.7 49.85 68.75 51.7 L68.05 52.95 Q68.2 51.45 68.7 50.1 L70.1 45.2 M34.2 35.4 L33.95 36.05 Q33.85 37.0 33.9 37.95 L34.1 40.1 31.6 38.05 30.4 35.85 Q29.6 34.7 31.2 32.35 32.1 31.05 33.65 30.95 34.8 30.85 36.3 31.45 37.55 32.45 38.25 33.9 39.5 36.5 37.8 38.55 L37.05 39.3 36.3 39.85 35.35 40.2 34.2 35.4" fill="#cccccc" fill-rule="evenodd" stroke="none"/>
    <path d="M89.95 23.45 L87.85 28.55 86.9 30.35 84.6 33.85 82.85 35.85 Q80.15 39.1 76.35 40.8 L74.35 41.15 Q61.2 43.45 47.9 42.55 L46.8 42.4 Q57.25 42.45 68.2 40.55 74.35 39.45 81.9 34.25 87.15 29.1 89.95 23.45" fill="#000000" fill-opacity="0.2" fill-rule="evenodd" stroke="none"/>
    <path d="M51.4 1.05 Q53.05 4.05 57.3 4.45 61.05 4.75 64.7 3.4 L68.75 27.15 67.05 25.25 Q60.6 18.95 51.35 17.75 L47.9 17.9 Q48.15 14.85 48.95 11.85 49.1 9.5 49.6 7.3 L51.4 1.05" fill="#ffffff" fill-rule="evenodd" stroke="none"/>
    <path d="M36.45 29.4 L36.3 29.55 34.7 29.25 33.65 29.3 Q29.1 29.8 28.85 35.85 27.7 31.1 29.5 29.35 31.1 27.7 33.65 27.4 L34.2 27.35 36.45 29.4" fill="#cc9999" fill-rule="evenodd" stroke="none"/>
    <path d="M0.65 -1.7 L-0.55 -2.7 Q-10.5 -9.25 -26.2 -23.35 L-26.8 -23.9 -27.0 -24.0 Q-42.85 -31.15 -53.4 -44.25" fill="none" stroke="#cccccc" stroke-linecap="round" stroke-linejoin="round" stroke-width="0.05"/>
  </g>
</svg>
