<?xml version="1.0" encoding="UTF-8" standalone="no"?>
<svg xmlns:xlink="http://www.w3.org/1999/xlink" height="20.8px" width="19.0px" xmlns="http://www.w3.org/2000/svg">
  <g transform="matrix(1.0, 0.0, 0.0, 1.0, 7.2, 10.55)">
    <path d="M-3.55 7.75 L-5.9 8.7 Q-6.9 7.05 -7.15 5.2 -7.3 3.35 -7.1 1.65 -6.6 -4.45 -2.8 -7.9 L-0.8 -9.4 -0.1 -9.55 0.1 -9.5 0.5 -9.45 0.85 -9.2 1.65 -9.6 1.75 -9.65 1.9 -9.7 3.45 -10.35 4.5 -10.55 Q13.0 -5.6 11.6 5.2 11.45 8.55 9.5 10.25 L7.65 8.85 7.7 8.85 8.6 8.15 Q9.45 6.75 9.8 5.2 10.25 -2.3 7.85 -5.55 L5.3 -9.05 3.9 -8.85 1.65 -7.9 0.5 -7.3 0.3 -6.2 -0.1 -6.05 -0.1 -7.95 -0.75 -8.05 Q-7.15 -2.15 -5.55 6.3 L-5.1 4.85 Q-5.0 4.6 -4.75 4.6 L-4.1 4.75 -3.85 4.85 Q-3.1 6.25 -3.55 7.75 M2.1 7.05 L0.35 7.0 Q-0.25 5.95 -0.05 4.6 L0.05 4.25 Q0.3 3.6 1.0 3.5 L1.0 3.45 Q2.75 4.75 2.1 7.05" fill="#000000" fill-rule="evenodd" stroke="none"/>
    <path d="M-3.55 7.75 Q-3.1 6.25 -3.85 4.85 L-4.1 4.75 -4.75 4.6 Q-5.0 4.6 -5.1 4.85 L-5.55 6.3 Q-7.15 -2.15 -0.75 -8.05 L-0.1 -7.95 -0.1 -6.05 0.3 -6.2 0.5 -7.3 1.65 -7.9 3.9 -8.85 5.3 -9.05 7.85 -5.55 Q10.25 -2.3 9.8 5.2 9.45 6.75 8.6 8.15 L7.7 8.85 7.65 8.85 Q5.15 7.35 2.1 7.05 2.75 4.75 1.0 3.45 L1.0 3.5 Q0.3 3.6 0.05 4.25 L-0.05 4.6 Q-0.25 5.95 0.35 7.0 L-1.3 7.15 -1.25 7.15 -3.45 7.7 -3.55 7.75" fill="#ffffff" fill-rule="evenodd" stroke="none"/>
  </g>
</svg>
