<?xml version="1.0" encoding="UTF-8" standalone="no"?>
<svg xmlns:xlink="http://www.w3.org/1999/xlink" height="10.05px" width="18.7px" xmlns="http://www.w3.org/2000/svg">
  <g transform="matrix(1.0, 0.0, 0.0, 1.0, 7.85, -0.1)">
    <path d="M10.5 8.1 L9.75 9.55 9.45 10.15 7.75 9.3 7.8 9.25 8.45 8.45 9.45 6.6 Q7.9 6.0 6.35 5.55 L2.25 5.0 Q3.15 5.4 3.95 5.95 L4.0 6.0 4.35 6.15 4.5 6.5 4.45 6.55 4.4 6.6 4.3 6.65 4.0 6.55 3.65 6.45 3.55 6.35 -0.7 5.3 -0.7 5.35 Q-0.5 6.35 -1.05 7.1 L-1.1 7.15 -1.25 7.15 -1.35 7.1 Q-1.8 6.05 -1.75 5.0 L-2.25 4.95 -5.6 5.5 -5.55 6.1 -5.5 6.85 -5.25 7.55 Q-4.7 8.1 -5.05 8.4 L-5.55 8.65 -6.05 8.5 Q-6.95 7.4 -7.1 6.0 L-7.15 6.0 -7.5 5.9 Q-7.95 5.45 -7.85 4.75 L-7.35 1.7 -7.05 0.35 -6.7 0.1 -6.5 0.3 -6.45 0.35 -6.7 4.35 -6.7 4.45 -6.45 4.35 -6.35 4.4 Q-4.35 3.75 -2.2 3.45 L-1.8 3.45 -1.8 3.3 -1.45 1.0 -1.3 0.65 -1.2 0.55 -1.1 0.55 -1.0 0.6 -0.9 0.6 Q-0.6 2.1 -0.55 3.6 L-0.35 3.65 -0.15 3.8 Q5.5 3.1 10.4 6.05 10.75 6.25 10.6 6.5 11.1 7.1 10.5 8.1" fill="#000000" fill-rule="evenodd" stroke="none"/>
  </g>
</svg>
