<?xml version="1.0" encoding="UTF-8" standalone="no"?>
<svg xmlns:xlink="http://www.w3.org/1999/xlink" height="16.05px" width="19.8px" xmlns="http://www.w3.org/2000/svg">
  <g transform="matrix(1.0, 0.0, 0.0, 1.0, 7.45, 5.8)">
    <path d="M-3.8 7.85 Q-3.5 7.4 -3.6 6.8 -3.45 5.4 -4.5 4.7 L-5.4 5.7 -5.3 6.25 Q-6.05 3.15 -5.5 0.0 L-5.4 -0.5 -5.25 -1.15 -4.6 -1.7 Q-3.25 -2.85 -1.5 -3.15 L-1.55 -2.7 -1.35 -2.4 1.0 -2.25 3.3 -2.3 Q7.3 -1.65 10.1 1.1 L10.25 1.7 Q10.6 5.65 8.2 8.7 L7.8 9.05 7.7 9.15 Q4.6 7.25 1.65 7.0 L2.0 6.7 Q2.35 6.35 2.35 5.8 2.35 4.25 1.05 3.7 0.45 3.85 0.15 4.45 -0.2 5.05 -0.15 5.75 -0.1 6.6 0.65 6.95 -1.65 6.9 -3.8 7.85" fill="#ffffff" fill-rule="evenodd" stroke="none"/>
    <path d="M7.7 9.15 L7.8 9.05 8.2 8.7 Q10.6 5.65 10.25 1.7 L10.1 1.1 Q7.3 -1.65 3.3 -2.3 L1.0 -2.25 -1.35 -2.4 -1.55 -2.7 -1.5 -3.15 Q-3.25 -2.85 -4.6 -1.7 L-5.25 -1.15 -5.4 -0.5 -5.5 0.0 Q-6.05 3.15 -5.3 6.25 L-5.4 5.7 -4.5 4.7 Q-3.45 5.4 -3.6 6.8 -3.5 7.4 -3.8 7.85 L-4.7 8.45 -5.65 8.6 -6.3 8.1 -6.45 7.7 -6.7 7.15 Q-7.3 3.5 -6.8 -0.05 L-6.95 0.0 -7.2 -0.1 Q-7.65 -0.7 -7.25 -1.45 L-6.7 -2.8 Q-6.2 -4.6 -4.95 -5.8 L-6.1 -2.35 -6.1 -2.3 Q-4.25 -4.05 -1.6 -4.4 L-1.25 -4.4 -0.85 -5.5 -0.8 -5.6 -0.75 -5.7 -0.65 -5.75 -0.55 -5.8 -0.35 -5.55 -0.35 -5.45 -0.4 -5.35 -0.4 -3.7 -0.35 -3.55 Q4.6 -3.9 9.05 -1.65 11.05 -0.65 12.0 1.25 12.65 2.5 12.1 3.6 L11.8 3.45 11.55 5.55 Q11.05 8.3 9.55 10.25 L7.7 9.15 M0.65 6.95 Q-0.1 6.6 -0.15 5.75 -0.2 5.05 0.15 4.45 0.45 3.85 1.05 3.7 2.35 4.25 2.35 5.8 2.35 6.35 2.0 6.7 L1.65 7.0 0.7 6.95 0.65 6.95" fill="#000000" fill-rule="evenodd" stroke="none"/>
  </g>
</svg>
