<?xml version="1.0" encoding="UTF-8" standalone="no"?>
<svg xmlns:xlink="http://www.w3.org/1999/xlink" height="104.75px" width="91.55px" xmlns="http://www.w3.org/2000/svg">
  <g transform="matrix(1.0, 0.0, 0.0, 1.0, 13.65, 52.3)">
    <path d="M45.8 -52.15 Q49.15 -52.8 51.9 -50.7 L52.3 -50.4 52.75 -49.2 54.2 -45.5 57.4 -38.35 58.15 -36.55 60.05 -31.0 62.2 -23.8 63.95 -16.45 65.3 -11.0 Q65.65 -9.8 66.5 -8.85 70.1 -4.8 74.05 -1.0 L72.35 2.65 71.65 4.65 74.5 8.6 75.5 10.45 Q76.2 12.25 76.25 14.5 L77.9 18.95 77.3 19.75 Q75.25 22.6 76.5 25.95 75.35 28.1 74.55 30.55 L73.35 34.4 Q72.45 37.2 70.95 39.65 69.3 42.45 67.05 44.95 L64.65 47.3 Q62.9 48.95 60.55 50.05 56.0 51.95 51.2 52.4 44.5 52.8 38.15 51.05 39.8 49.6 40.9 47.8 L42.55 44.85 Q44.55 41.0 45.0 36.7 44.35 35.4 44.55 33.6 L38.25 34.35 35.45 34.6 27.1 34.95 21.65 34.7 19.35 33.85 Q18.55 33.35 18.05 32.55 17.5 31.75 17.2 30.75 L17.2 30.7 17.95 29.05 21.05 32.3 20.75 32.45 21.8 32.7 22.85 32.3 26.3 31.0 28.0 30.3 31.3 28.7 Q36.35 26.3 41.65 24.7 L44.45 23.75 44.8 23.6 44.65 21.6 44.35 21.8 44.0 19.0 Q43.7 16.15 43.7 13.3 L42.05 12.8 Q31.55 9.95 21.7 6.1 L17.6 4.45 17.8 3.45 19.1 2.55 20.55 1.25 Q21.45 0.25 20.9 -1.2 22.2 -2.45 23.05 -4.1 L24.35 -6.8 Q25.7 -9.8 26.15 -13.1 L26.5 -14.9 27.75 -20.3 29.25 -25.6 31.2 -31.8 33.55 -37.9 35.5 -42.25 Q37.1 -45.45 39.45 -48.05 L42.4 -50.6 Q43.95 -51.75 45.8 -52.15 M47.2 2.55 L46.6 2.15 47.2 2.75 47.2 2.55 M11.2 8.2 L11.25 12.25 11.5 16.3 11.65 17.8 11.95 19.9 10.8 18.75 10.7 18.2 10.15 17.85 Q9.1 18.2 7.5 17.35 L0.15 13.35 -0.5 12.95 -0.45 13.05 -3.9 11.8 -4.15 11.35 -4.85 10.85 -6.35 9.85 -7.7 8.85 -8.15 8.55 -8.5 8.35 Q-10.2 7.35 -11.3 5.85 L-12.05 4.75 -13.65 1.15 -13.45 0.05 Q-12.8 -3.15 -10.15 -4.95 L-9.2 -5.5 -8.05 -5.95 Q-8.85 -2.35 -8.8 1.35 L-8.65 3.65 -5.85 4.55 -5.95 4.45 11.35 6.1 11.2 8.2" fill="#0066cc" fill-rule="evenodd" stroke="none"/>
  </g>
</svg>
