<?xml version="1.0" encoding="UTF-8" standalone="no"?>
<svg xmlns:xlink="http://www.w3.org/1999/xlink" height="107.45px" width="88.0px" xmlns="http://www.w3.org/2000/svg">
  <g transform="matrix(1.0, 0.0, 0.0, 1.0, 13.1, 53.6)">
    <path d="M48.75 -53.6 Q52.3 -51.55 54.55 -48.0 L55.45 -46.65 56.8 -43.45 57.45 -41.75 58.05 -39.25 Q58.95 -33.1 62.35 -27.9 63.5 -26.05 64.1 -23.95 L64.65 -22.75 Q64.0 -15.85 65.85 -9.3 L66.1 -8.5 Q66.6 -7.3 66.6 -5.9 L69.45 1.1 71.1 5.55 Q72.6 9.1 73.6 12.85 74.5 16.25 74.85 19.8 L74.9 22.7 74.5 27.2 Q73.95 32.7 74.15 38.3 71.8 39.85 70.35 42.35 69.75 43.4 69.55 44.6 69.35 45.8 69.3 47.1 L62.55 49.7 62.0 51.55 61.2 52.75 Q55.8 54.4 50.1 53.6 43.7 52.4 37.8 50.5 L41.5 44.3 43.05 43.5 43.5 41.6 44.4 40.0 45.05 38.3 44.95 37.6 45.05 36.35 43.45 37.15 Q41.2 38.4 38.95 37.45 L36.9 36.15 35.85 35.1 Q32.95 35.65 30.45 36.9 L29.0 37.4 Q27.5 35.5 25.15 34.75 L23.55 34.4 20.95 36.7 20.0 36.5 Q18.05 34.55 17.85 31.95 17.7 30.35 18.2 28.9 L22.4 32.4 23.85 31.5 24.7 30.45 Q25.35 29.15 26.45 28.15 L28.15 28.5 31.4 29.9 Q33.25 30.85 35.35 30.15 36.95 29.5 37.35 27.85 L37.65 26.4 38.5 25.4 40.05 25.9 40.6 25.6 Q43.55 25.55 46.35 24.25 L46.45 24.2 46.35 23.95 45.85 21.95 44.7 20.65 43.85 17.45 43.85 17.05 Q34.7 13.7 25.7 9.75 23.5 8.8 22.05 7.05 L21.85 7.4 18.25 4.95 19.2 3.3 20.05 2.9 Q21.2 -1.2 23.65 -5.0 L23.95 -6.1 Q24.0 -10.45 25.75 -14.5 27.0 -17.45 27.85 -20.55 L28.7 -23.95 29.45 -26.4 32.05 -34.4 32.25 -35.25 32.35 -36.95 Q34.25 -39.2 35.6 -41.9 36.65 -44.05 38.0 -46.0 40.1 -49.0 43.1 -51.0 45.15 -52.35 47.4 -53.3 L48.75 -53.6 M13.2 8.85 L11.7 11.25 Q11.6 12.7 11.95 14.3 L12.05 15.35 12.0 19.25 7.2 16.45 5.7 15.95 2.6 14.4 -7.0 10.85 -7.35 10.4 -8.65 10.2 Q-11.1 8.35 -12.3 5.35 -13.6 2.1 -12.85 -1.5 L-12.7 -2.15 -12.55 -3.15 Q-12.4 -4.15 -11.8 -5.0 -11.25 -2.3 -10.3 0.4 L-8.9 3.8 -8.55 4.9 -6.8 6.35 -6.25 6.15 -5.95 6.4 -5.05 5.7 -4.65 5.5 -4.85 5.35 Q-3.5 5.1 -2.4 3.9 L-1.65 3.1 Q-1.2 5.75 0.55 7.85 L2.3 7.55 4.95 5.95 5.75 6.05 8.25 8.45 Q10.65 9.0 13.15 8.0 L13.2 8.85" fill="#0066cc" fill-rule="evenodd" stroke="none"/>
  </g>
</svg>
