<?xml version="1.0" encoding="UTF-8" standalone="no"?>
<svg xmlns:xlink="http://www.w3.org/1999/xlink" height="109.35px" width="158.25px" xmlns="http://www.w3.org/2000/svg">
  <g transform="matrix(1.0, 0.0, 0.0, 1.0, 79.2, 54.65)">
    <path d="M44.85 -54.65 Q48.15 -54.55 51.1 -53.0 52.2 -52.45 53.05 -51.5 L54.3 -49.8 Q55.5 -46.85 57.05 -43.75 L59.45 -38.7 Q60.95 -35.4 61.95 -31.75 L66.4 -14.35 Q67.3 -10.75 69.25 -7.55 70.2 -6.0 71.65 -4.7 L74.75 -1.65 75.35 -0.7 75.45 -0.25 73.0 4.2 76.0 8.85 78.7 16.1 Q79.2 17.25 79.0 18.4 L78.7 19.5 77.5 22.6 Q78.25 24.85 77.9 27.4 L77.45 29.05 76.65 30.75 Q75.95 32.05 75.55 33.4 75.1 34.9 74.95 36.45 74.7 38.65 73.25 40.4 L67.6 47.25 Q65.2 49.65 62.2 51.25 56.3 54.5 49.25 54.7 44.65 54.8 40.2 53.15 L36.8 51.65 32.65 52.3 Q31.4 51.8 30.25 51.15 L27.9 49.55 Q25.1 47.05 22.9 44.1 21.85 42.75 21.3 41.1 19.6 40.8 18.3 40.05 L16.0 38.45 Q14.6 37.4 13.6 35.95 L13.55 35.25 13.2 34.9 12.8 31.8 9.7 33.35 9.55 34.45 13.05 36.85 11.7 37.2 8.4 35.0 8.5 33.5 Q6.7 33.5 5.4 32.25 4.2 31.1 3.4 29.75 2.5 28.15 1.9 26.5 1.0 24.05 1.95 22.1 2.8 20.35 4.45 19.35 5.35 18.75 6.35 18.25 3.4 16.2 0.1 14.9 L-8.2 11.0 -9.15 10.1 Q-10.4 8.4 -11.8 6.95 -13.2 5.4 -14.1 3.45 L-14.5 1.85 -14.5 -2.0 -15.3 -1.85 Q-17.35 -2.7 -18.85 -4.05 -19.55 -4.7 -20.35 -5.15 -22.95 -6.5 -25.65 -7.65 L-32.7 -10.3 Q-37.1 -11.8 -40.45 -14.7 L-42.25 -16.35 -46.25 -21.6 Q-47.95 -23.95 -49.25 -26.7 L-54.95 -37.35 Q-56.15 -39.25 -58.25 -40.4 -62.25 -42.45 -66.5 -43.9 -68.15 -44.55 -69.6 -45.45 L-76.5 -50.4 -76.55 -50.3 -77.2 -50.15 Q-79.5 -51.6 -79.15 -53.1 L-78.2 -52.65 -77.95 -52.5 -77.65 -51.8 -75.2 -50.35 Q-72.25 -48.55 -69.15 -47.0 -65.8 -45.4 -62.3 -44.05 L-56.75 -41.9 Q-56.0 -41.55 -55.45 -40.9 L-50.75 -34.75 Q-47.5 -30.15 -44.45 -25.05 L-41.3 -19.95 Q-39.9 -17.8 -38.05 -16.05 -36.15 -14.3 -33.9 -12.9 -29.65 -10.5 -24.8 -9.45 -20.65 -8.75 -17.05 -6.2 L-14.5 -4.45 -13.5 -3.45 Q-12.1 -5.2 -10.35 -6.4 L-8.4 -7.3 -7.2 -7.25 -6.85 -7.0 Q-7.25 -2.9 -7.0 0.95 L-6.8 3.65 1.4 3.5 9.75 4.65 16.3 4.1 16.4 3.0 17.1 2.1 18.65 1.45 19.9 0.45 19.65 -1.7 Q21.1 -3.05 22.05 -4.95 L23.1 -7.55 26.05 -18.0 Q26.9 -22.4 28.05 -26.7 29.1 -30.65 30.45 -34.5 31.55 -37.5 32.95 -40.35 34.2 -42.8 35.75 -45.05 L38.9 -49.5 Q40.6 -51.75 42.75 -53.3 L44.85 -54.65 M44.1 41.1 L42.55 44.85 40.9 47.8 Q39.8 49.6 38.15 51.05 44.5 52.8 51.2 52.4 56.0 51.95 60.55 50.05 62.9 48.95 64.65 47.3 L67.05 44.95 Q69.3 42.45 70.95 39.65 L72.0 37.75 74.55 30.55 Q75.35 28.1 76.5 25.95 75.25 22.6 77.3 19.75 L77.9 18.95 76.25 14.5 Q76.2 12.25 75.5 10.45 L74.5 8.6 71.65 4.65 72.35 2.65 74.05 -1.0 Q70.1 -4.8 66.5 -8.85 65.65 -9.8 65.3 -11.0 L60.05 -31.0 58.15 -36.55 52.3 -50.4 51.9 -50.7 Q49.15 -52.8 45.8 -52.15 43.95 -51.75 42.4 -50.6 L39.45 -48.05 Q37.1 -45.45 35.5 -42.25 L34.65 -40.1 31.2 -31.8 27.75 -20.3 26.15 -13.1 Q25.7 -9.8 24.35 -6.8 L23.05 -4.1 Q22.2 -2.45 20.9 -1.2 21.45 0.25 20.55 1.25 L19.1 2.55 17.8 3.45 17.6 4.45 21.7 6.1 Q24.75 0.75 28.7 -4.0 L31.15 -6.8 Q29.0 -9.7 28.6 -13.4 28.45 -14.8 28.65 -16.15 28.85 -18.1 29.85 -19.9 L31.35 -22.35 32.0 -23.1 Q30.1 -25.1 30.8 -28.05 31.6 -31.5 33.95 -34.3 35.6 -36.2 38.0 -37.7 38.7 -38.2 39.55 -38.5 L42.65 -39.6 44.3 -39.75 Q45.05 -41.25 46.5 -42.15 L46.7 -42.3 48.55 -43.2 48.85 -43.1 Q51.55 -42.4 53.8 -40.7 L55.4 -39.3 57.2 -36.85 58.45 -33.85 Q59.05 -32.0 59.05 -30.05 L59.0 -29.15 58.55 -27.5 58.4 -27.1 57.85 -26.0 56.85 -24.6 59.4 -20.75 60.95 -17.4 61.35 -15.9 61.6 -14.2 61.6 -11.0 Q61.5 -9.3 60.7 -7.95 L59.9 -6.75 54.7 -4.95 45.5 -3.75 Q44.45 2.6 43.9 9.15 43.45 14.15 44.0 19.0 L44.35 21.8 47.8 19.0 47.85 17.55 47.45 17.1 47.8 12.75 47.5 11.95 47.15 11.55 47.05 9.55 49.9 5.4 46.6 2.15 50.8 5.0 50.9 6.1 48.35 10.7 49.2 11.75 Q49.6 13.25 49.3 14.8 L48.9 16.35 48.95 20.5 48.2 20.7 Q46.8 22.85 44.45 23.75 L41.65 24.7 Q39.85 25.25 38.1 25.9 34.65 27.1 31.3 28.7 L21.8 32.7 20.75 32.45 21.05 32.3 17.95 29.05 17.2 30.7 17.2 30.75 Q17.5 31.75 18.05 32.55 18.55 33.35 19.35 33.85 L21.65 34.7 27.1 34.95 35.45 34.6 50.7 32.55 55.55 31.9 Q56.45 31.85 57.15 31.3 L61.05 28.1 60.7 27.45 Q63.75 24.85 65.9 21.55 L66.6 20.35 65.95 18.3 Q68.6 15.1 71.9 13.0 L71.15 11.95 68.4 8.1 Q71.15 9.5 72.5 12.25 L73.1 13.45 67.3 18.5 Q68.6 20.95 67.1 23.1 L62.45 27.7 62.45 28.5 Q61.25 30.3 59.55 31.5 L58.25 32.3 57.85 32.5 55.65 33.4 45.05 35.6 44.9 37.5 44.1 41.1 M39.45 -34.65 Q40.0 -34.3 39.95 -33.4 L39.95 -33.25 39.55 -32.45 39.4 -32.3 Q38.8 -32.05 38.45 -32.6 L38.45 -34.0 38.5 -34.15 Q38.85 -34.55 39.45 -34.65 M36.95 -31.25 L36.95 -31.15 Q38.35 -29.7 40.25 -29.1 37.45 -28.25 36.05 -31.05 36.05 -32.1 36.6 -32.8 L36.7 -32.9 Q37.35 -32.35 36.95 -31.25 M33.05 -30.75 Q31.75 -27.75 32.15 -24.65 35.0 -22.2 38.65 -22.5 L44.2 -23.35 44.85 -24.1 53.4 -23.8 Q54.75 -24.25 55.7 -25.15 56.7 -26.2 57.25 -27.6 57.85 -29.0 57.5 -30.5 L56.1 -35.45 Q54.95 -39.4 51.15 -40.95 L48.9 -41.65 47.35 -40.85 45.15 -39.25 45.5 -38.75 45.05 -37.9 Q41.15 -38.6 37.8 -36.35 34.6 -34.25 33.05 -30.75 M60.55 -13.6 L59.85 -16.3 Q59.1 -18.95 57.85 -21.3 L56.0 -23.65 Q53.9 -21.8 51.25 -21.65 48.0 -21.15 44.95 -22.4 41.7 -20.95 38.3 -21.45 L33.1 -22.45 33.15 -22.25 Q30.75 -19.85 30.3 -16.6 L30.2 -15.45 30.2 -14.5 Q30.25 -11.9 31.45 -9.55 L32.35 -8.25 Q32.85 -7.75 33.5 -7.45 35.05 -6.8 36.8 -6.65 L43.2 -5.6 50.2 -5.5 Q54.15 -5.45 57.45 -7.3 59.55 -8.5 60.35 -10.85 60.85 -12.25 60.55 -13.6 M38.55 -8.55 L53.45 -9.0 51.75 -10.2 55.55 -9.05 Q53.9 -11.15 51.6 -12.25 L49.6 -12.95 43.2 -12.75 Q40.95 -12.55 39.0 -11.45 37.05 -10.45 35.45 -8.9 39.15 -10.4 43.25 -10.4 41.35 -9.1 38.95 -8.8 L38.55 -8.55 M43.65 -1.05 L44.2 -3.8 38.3 -4.15 32.1 -6.05 31.7 -5.5 Q28.4 -1.05 25.8 3.6 24.95 5.05 24.2 6.65 L22.45 10.5 28.05 11.35 Q30.75 12.0 33.35 13.0 36.2 14.2 38.9 15.75 L40.1 16.65 42.35 19.2 Q41.9 13.5 42.25 7.9 42.4 5.9 42.7 3.95 43.1 1.45 43.65 -1.05 M35.95 -10.65 Q38.7 -13.25 42.3 -13.7 L48.55 -14.1 Q52.2 -13.75 54.95 -11.25 56.25 -9.95 57.0 -8.15 L56.8 -7.75 56.1 -7.45 33.4 -7.6 35.95 -10.65 M53.85 -29.25 L54.3 -27.75 Q54.0 -26.25 52.85 -25.95 53.65 -27.35 53.7 -29.2 L53.85 -29.25 M50.85 -28.65 L51.35 -28.45 51.55 -28.3 51.7 -27.15 51.6 -26.75 Q50.95 -26.05 50.1 -26.6 49.55 -28.0 50.8 -28.65 L50.85 -28.65 M31.0 49.75 Q33.25 51.05 35.5 50.05 L36.5 49.45 38.6 47.45 40.45 45.0 Q42.45 42.05 43.25 38.6 L43.8 35.7 38.15 35.85 27.45 36.1 Q29.4 37.7 30.7 40.15 L31.45 41.7 31.1 42.1 Q29.9 42.1 28.9 41.55 27.2 40.55 26.2 38.7 L26.15 38.2 25.95 37.75 24.35 36.05 21.95 35.95 23.65 41.7 Q23.85 42.6 24.45 43.45 L25.2 44.55 Q27.5 47.7 30.85 49.65 L31.0 49.75 M15.75 23.25 L18.6 26.25 19.55 27.6 Q19.15 23.55 18.9 19.45 L19.15 11.25 20.5 10.7 21.15 7.75 16.5 9.45 16.0 9.85 15.45 17.4 15.05 15.3 14.65 13.25 Q14.5 12.2 14.5 11.15 L14.55 8.95 13.45 6.95 15.15 8.05 18.8 6.5 18.0 5.75 12.95 6.4 12.4 6.45 13.2 20.45 15.75 23.25 M37.8 23.85 Q35.55 23.7 33.55 21.6 L28.05 16.65 Q25.8 15.65 23.7 14.3 L23.6 14.2 Q21.45 14.1 21.7 13.15 29.55 15.6 35.9 20.75 L36.1 20.9 37.6 22.7 Q38.2 23.15 37.95 23.85 L37.8 23.85 M20.3 13.45 L20.3 17.3 Q20.4 20.6 20.85 23.85 21.3 27.1 22.25 30.25 L22.95 31.4 37.9 24.7 42.65 22.55 40.25 19.6 37.95 17.45 35.2 15.55 31.75 13.85 Q26.3 11.85 20.25 11.85 L20.3 13.45 M11.35 6.1 L-5.95 4.45 -0.05 10.2 9.55 17.5 10.7 18.2 10.8 18.75 11.95 19.9 11.2 8.2 11.35 6.1 M3.2 24.4 L3.0 26.45 Q3.6 24.1 5.4 22.65 L6.7 21.8 Q9.15 21.75 11.5 22.85 L8.95 20.55 8.15 19.6 7.1 19.8 Q5.35 20.45 4.05 21.3 L3.2 24.4 M6.8 23.15 Q3.3 25.85 4.45 29.3 L7.05 31.45 Q7.45 31.8 8.05 32.0 L8.6 31.95 8.95 27.55 9.8 31.75 10.75 31.25 12.4 29.9 13.1 27.0 Q12.15 25.4 10.55 24.25 9.65 23.5 8.45 23.25 L6.8 23.15 M16.25 28.85 L16.8 27.85 13.35 24.2 14.6 26.15 14.45 30.45 Q14.4 32.3 14.75 34.15 L15.0 34.7 15.05 35.4 17.0 37.2 Q18.95 38.85 21.25 40.1 L21.0 35.9 Q18.55 36.05 17.05 34.15 L16.65 33.6 Q16.0 32.4 16.15 31.1 L16.1 31.05 15.95 29.65 16.25 28.85 M-9.2 -5.5 L-10.15 -4.95 Q-12.8 -3.15 -13.45 0.05 L-13.65 1.15 -12.05 4.75 -11.3 5.85 Q-10.2 7.35 -8.5 8.35 -7.4 8.95 -6.35 9.85 L-4.15 11.35 -3.9 11.8 -0.45 13.05 -7.0 5.75 -8.25 5.15 -8.55 4.65 -8.8 1.35 Q-8.85 -2.35 -8.05 -5.95 L-9.2 -5.5" fill="#000000" fill-rule="evenodd" stroke="none"/>
    <path d="M33.05 -30.75 Q34.6 -34.25 37.8 -36.35 41.15 -38.6 45.05 -37.9 L45.5 -38.75 45.15 -39.25 47.35 -40.85 48.9 -41.65 51.15 -40.95 Q54.95 -39.4 56.1 -35.45 L57.5 -30.5 Q57.85 -29.0 57.25 -27.6 56.7 -26.2 55.7 -25.15 54.75 -24.25 53.4 -23.8 L44.85 -24.1 44.2 -23.35 38.65 -22.5 Q35.0 -22.2 32.15 -24.65 31.75 -27.75 33.05 -30.75 M36.95 -31.25 Q37.35 -32.35 36.7 -32.9 L36.6 -32.8 Q36.05 -32.1 36.05 -31.05 37.45 -28.25 40.25 -29.1 38.35 -29.7 36.95 -31.15 L36.95 -31.25 M39.45 -34.65 Q38.85 -34.55 38.5 -34.15 L38.45 -34.0 38.45 -32.6 Q38.8 -32.05 39.4 -32.3 L39.55 -32.45 39.95 -33.25 39.95 -33.4 Q40.0 -34.3 39.45 -34.65 M38.55 -8.55 L38.95 -8.8 Q41.35 -9.1 43.25 -10.4 39.15 -10.4 35.45 -8.9 37.05 -10.45 39.0 -11.45 40.95 -12.55 43.2 -12.75 L49.6 -12.95 51.6 -12.25 Q53.9 -11.15 55.55 -9.05 L51.75 -10.2 53.45 -9.0 38.55 -8.55 M31.7 -5.5 Q32.3 -3.85 34.2 -2.85 35.75 -2.0 37.35 -1.4 40.95 0.0 43.65 -1.05 43.1 1.45 42.7 3.95 42.4 5.9 42.25 7.9 41.9 13.5 42.35 19.2 L40.1 16.65 38.9 15.75 Q36.2 14.2 33.35 13.0 30.75 12.0 28.05 11.35 L22.45 10.5 24.2 6.65 Q24.95 5.05 25.8 3.6 28.4 -1.05 31.7 -5.5 M50.85 -28.65 L50.8 -28.65 Q49.55 -28.0 50.1 -26.6 50.95 -26.05 51.6 -26.75 L51.7 -27.15 51.55 -28.3 51.35 -28.45 50.85 -28.65 M53.85 -29.25 L53.7 -29.2 Q53.65 -27.35 52.85 -25.95 54.0 -26.25 54.3 -27.75 L53.85 -29.25" fill="#ffffff" fill-rule="evenodd" stroke="none"/>
    <path d="M30.2 -15.45 L33.15 -19.9 Q44.3 -22.7 55.4 -20.4 59.15 -18.55 60.55 -13.6 L57.9 -11.4 Q56.0 -15.5 53.15 -15.9 45.9 -17.7 38.65 -15.4 L32.65 -11.9 Q30.55 -12.3 30.2 -14.5 L30.2 -15.45 M38.15 35.85 Q37.5 45.0 31.0 49.75 L30.85 49.65 Q27.5 47.7 25.2 44.55 L24.45 43.45 Q23.85 42.6 23.65 41.7 L21.95 35.95 24.35 36.05 25.95 37.75 26.15 38.2 26.2 38.7 Q27.2 40.55 28.9 41.55 29.9 42.1 31.1 42.1 L31.45 41.7 30.7 40.15 Q29.4 37.7 27.45 36.1 L38.15 35.85 M15.05 15.3 L15.75 23.25 13.2 20.45 12.4 6.45 12.95 6.4 14.55 8.95 14.5 11.15 Q14.5 12.2 14.65 13.25 L15.05 15.3 M21.7 13.15 Q21.45 14.1 23.6 14.2 L23.7 14.3 Q25.8 15.65 28.05 16.65 L33.55 21.6 Q35.55 23.7 37.8 23.85 L37.9 24.7 22.95 31.4 22.25 30.25 Q21.3 27.1 20.85 23.85 20.4 20.6 20.3 17.3 L20.3 13.45 21.7 13.15 M16.25 28.85 L15.95 29.65 16.1 31.05 16.15 31.1 Q16.0 32.4 16.65 33.6 L17.05 34.15 Q18.55 36.05 21.0 35.9 L21.25 40.1 Q18.95 38.85 17.0 37.2 L15.05 35.4 15.0 34.7 14.75 34.15 Q14.4 32.3 14.45 30.45 L14.6 26.15 13.35 24.2 16.8 27.85 16.25 28.85" fill="#ffb409" fill-rule="evenodd" stroke="none"/>
    <path d="M3.2 24.4 L4.05 21.3 Q5.35 20.45 7.1 19.8 L8.15 19.6 8.95 20.55 11.5 22.85 Q9.15 21.75 6.7 21.8 L5.4 22.65 Q3.6 24.1 3.0 26.45 L3.2 24.4" fill="#cc9999" fill-rule="evenodd" stroke="none"/>
    <path d="M31.7 -5.5 L32.1 -6.05 38.3 -4.15 44.2 -3.8 43.65 -1.05 Q40.95 0.0 37.35 -1.4 35.75 -2.0 34.2 -2.85 32.3 -3.85 31.7 -5.5 M6.8 23.15 L8.45 23.25 Q9.65 23.5 10.55 24.25 12.15 25.4 13.1 27.0 L12.4 29.9 10.75 31.25 9.8 31.75 8.95 27.55 8.6 31.95 8.05 32.0 Q7.45 31.8 7.05 31.45 L4.45 29.3 Q3.3 25.85 6.8 23.15" fill="#cccccc" fill-rule="evenodd" stroke="none"/>
    <path d="M34.65 -40.1 L35.5 -42.25 Q37.1 -45.45 39.45 -48.05 L42.4 -50.6 Q43.95 -51.75 45.8 -52.15 49.15 -52.8 51.9 -50.7 L52.3 -50.4 58.15 -36.55 60.05 -31.0 65.3 -11.0 Q65.65 -9.8 66.5 -8.85 70.1 -4.8 74.05 -1.0 L72.35 2.65 71.65 4.65 74.5 8.6 75.5 10.45 Q76.2 12.25 76.25 14.5 L77.9 18.95 77.3 19.75 Q75.25 22.6 76.5 25.95 75.35 28.1 74.55 30.55 L72.0 37.75 70.95 39.65 Q69.3 42.45 67.05 44.95 L64.65 47.3 Q62.9 48.95 60.55 50.05 56.0 51.95 51.2 52.4 44.5 52.8 38.15 51.05 39.8 49.6 40.9 47.8 L42.55 44.85 44.1 41.1 Q53.95 42.85 62.5 41.05 L69.45 35.65 73.2 27.15 72.45 20.9 75.45 17.9 74.2 11.9 68.95 4.4 70.95 -0.1 63.4 -8.15 61.35 -15.9 60.95 -17.4 58.4 -27.1 58.55 -27.5 59.0 -29.15 59.05 -30.05 Q59.05 -32.0 58.45 -33.85 L57.2 -36.85 55.4 -39.3 53.8 -40.7 51.4 -44.15 48.85 -43.1 48.55 -43.2 46.7 -42.3 46.5 -42.15 Q41.95 -39.5 37.4 -41.4 L34.65 -40.1 M44.9 37.5 L45.05 35.6 55.65 33.4 57.85 32.5 58.25 32.3 51.65 36.4 44.9 37.5" fill="#000000" fill-opacity="0.4" fill-rule="evenodd" stroke="none"/>
    <path d="M71.15 11.95 L71.9 13.0 Q68.6 15.1 65.95 18.3 L66.6 20.35 65.9 21.55 Q63.75 24.85 60.7 27.45 L61.05 28.1 57.15 31.3 Q56.45 31.85 55.55 31.9 L50.7 32.55 58.4 28.15 59.1 25.75 65.25 20.65 63.15 17.65 71.15 11.95" fill="#000000" fill-opacity="0.2" fill-rule="evenodd" stroke="none"/>
    <path d="M60.55 -13.6 Q60.85 -12.25 60.35 -10.85 59.55 -8.5 57.45 -7.3 54.15 -5.45 50.2 -5.5 L43.2 -5.6 36.8 -6.65 Q35.05 -6.8 33.5 -7.45 32.85 -7.75 32.35 -8.25 L31.45 -9.55 Q30.25 -11.9 30.2 -14.5 30.55 -12.3 32.65 -11.9 L38.65 -15.4 Q45.9 -17.7 53.15 -15.9 56.0 -15.5 57.9 -11.4 L60.55 -13.6 M35.95 -10.65 L33.4 -7.6 56.1 -7.45 56.8 -7.75 57.0 -8.15 Q56.25 -9.95 54.95 -11.25 52.2 -13.75 48.55 -14.1 L42.3 -13.7 Q38.7 -13.25 35.95 -10.65 M38.15 35.85 L43.8 35.7 43.25 38.6 Q42.45 42.05 40.45 45.0 L38.6 47.45 36.5 49.45 35.5 50.05 Q33.25 51.05 31.0 49.75 37.5 45.0 38.15 35.85 M15.05 15.3 L15.45 17.4 16.0 9.85 16.5 9.45 21.15 7.75 20.5 10.7 19.15 11.25 18.9 19.45 Q19.15 23.55 19.55 27.6 L18.6 26.25 15.75 23.25 15.05 15.3 M12.95 6.4 L18.0 5.75 18.8 6.5 15.15 8.05 13.45 6.95 14.55 8.95 12.95 6.4 M21.7 13.15 L20.3 13.45 20.25 11.85 Q26.3 11.85 31.75 13.85 L35.2 15.55 37.95 17.45 40.25 19.6 42.65 22.55 37.9 24.7 37.8 23.85 37.95 23.85 Q38.2 23.15 37.6 22.7 L36.1 20.9 35.9 20.75 Q29.55 15.6 21.7 13.15" fill="#f99108" fill-rule="evenodd" stroke="none"/>
    <path d="M30.2 -15.45 L30.3 -16.6 Q30.75 -19.85 33.15 -22.25 L33.1 -22.45 38.3 -21.45 Q41.7 -20.95 44.95 -22.4 48.0 -21.15 51.25 -21.65 53.9 -21.8 56.0 -23.65 L57.85 -21.3 Q59.1 -18.95 59.85 -16.3 L60.55 -13.6 Q59.15 -18.55 55.4 -20.4 44.3 -22.7 33.15 -19.9 L30.2 -15.45" fill="#ffcd5b" fill-rule="evenodd" stroke="none"/>
  </g>
</svg>
