<?xml version="1.0" encoding="UTF-8" standalone="no"?>
<svg xmlns:xlink="http://www.w3.org/1999/xlink" height="110.85px" width="155.95px" xmlns="http://www.w3.org/2000/svg">
  <g transform="matrix(1.0, 0.0, 0.0, 1.0, 79.4, 55.1)">
    <path d="M43.5 41.6 L43.05 43.5 41.5 44.3 37.8 50.5 Q43.7 52.4 50.1 53.6 55.8 54.4 61.2 52.75 L62.0 51.55 62.55 49.7 69.3 47.1 Q69.35 45.8 69.55 44.6 69.75 43.4 70.35 42.35 71.8 39.85 74.15 38.3 73.95 32.7 74.5 27.2 L74.9 22.7 74.85 19.8 Q74.5 16.25 73.6 12.85 72.6 9.1 71.1 5.55 L66.6 -5.9 Q66.6 -7.3 66.1 -8.5 L65.85 -9.3 Q64.0 -15.85 64.65 -22.75 L64.1 -23.95 Q63.5 -26.05 62.35 -27.9 58.95 -33.1 58.05 -39.25 L57.45 -41.75 55.45 -46.65 54.55 -48.0 Q52.3 -51.55 48.75 -53.6 L47.4 -53.3 45.45 -52.35 43.1 -51.0 Q40.1 -49.0 38.0 -46.0 36.65 -44.05 35.6 -41.9 L35.0 -40.75 Q33.85 -38.7 32.35 -36.95 L32.25 -35.25 32.05 -34.4 29.45 -26.4 28.7 -23.95 27.85 -20.55 Q27.0 -17.45 25.75 -14.5 24.0 -10.45 23.95 -6.1 L23.65 -5.0 Q21.2 -1.2 20.05 2.9 L19.2 3.3 18.25 4.95 21.85 7.4 24.95 2.1 Q28.1 -3.25 33.5 -6.35 31.35 -7.4 30.1 -9.45 29.35 -10.7 29.1 -12.0 28.7 -13.95 28.7 -15.9 L31.65 -20.15 31.75 -20.65 32.4 -21.1 Q32.3 -21.4 32.35 -21.7 32.4 -22.35 32.75 -22.8 L34.35 -24.8 Q34.15 -27.95 34.2 -31.05 L34.55 -34.15 Q35.5 -38.4 38.9 -40.95 L39.75 -41.55 41.6 -41.45 42.65 -41.15 43.5 -40.95 44.1 -39.1 45.85 -39.1 Q50.6 -39.0 53.95 -35.45 55.6 -33.8 55.7 -31.35 L56.05 -31.05 56.45 -29.5 56.65 -27.4 Q56.6 -26.35 56.2 -25.65 L56.65 -25.45 59.5 -21.65 61.2 -18.85 61.9 -17.45 Q63.15 -14.7 62.85 -11.65 62.8 -10.85 62.3 -10.2 L61.15 -8.65 Q59.85 -7.0 58.05 -5.95 56.15 -4.85 54.05 -4.45 L47.55 -4.0 45.55 2.45 Q45.0 4.1 44.7 5.8 L44.2 8.1 43.85 17.45 44.7 20.65 46.1 22.25 47.6 20.75 48.45 19.45 Q49.7 15.75 50.2 12.2 L51.1 5.6 51.35 5.05 51.25 3.6 51.55 2.8 52.0 3.45 52.2 4.25 51.6 12.65 Q51.4 16.85 49.75 20.75 L48.45 22.7 Q47.55 23.65 46.35 24.25 43.55 25.55 40.6 25.6 L40.05 25.9 38.5 25.4 37.65 26.4 37.35 27.85 Q36.95 29.5 35.35 30.15 33.25 30.85 31.4 29.9 L28.15 28.5 26.45 28.15 Q25.35 29.15 24.7 30.45 L23.85 31.5 22.4 32.4 18.2 28.9 Q17.7 30.35 17.85 31.95 18.05 34.55 20.0 36.5 L20.95 36.7 23.55 34.4 25.15 34.75 Q26.5 35.15 27.55 36.0 L29.0 37.4 30.45 36.9 Q32.95 35.65 35.85 35.1 L36.9 36.15 38.95 37.45 Q41.2 38.4 43.45 37.15 L45.3 36.25 49.85 35.85 51.6 35.0 Q53.3 33.85 55.3 32.85 L58.1 31.0 60.65 28.75 61.7 28.5 Q64.15 27.65 65.55 25.5 L66.4 23.6 67.0 20.3 67.05 19.8 Q67.35 17.4 68.15 15.45 L68.65 15.1 Q69.5 13.0 69.55 10.75 L69.55 9.0 70.15 8.65 Q70.95 10.1 71.05 11.85 71.15 13.4 70.65 14.95 L70.2 16.1 67.35 25.15 66.5 26.9 Q64.65 29.3 61.65 30.1 L59.85 31.9 Q57.05 34.6 53.05 34.9 L52.25 35.8 Q49.95 38.2 46.7 37.7 L44.85 37.6 45.1 37.8 45.05 38.2 44.4 40.0 43.5 41.6 M45.7 -54.6 L47.25 -55.1 Q49.8 -54.65 52.05 -53.15 54.85 -51.25 56.3 -48.2 L57.95 -44.9 Q59.6 -41.85 60.15 -38.45 60.4 -36.7 60.95 -35.05 61.85 -32.3 63.25 -29.7 65.35 -25.9 66.0 -21.9 L66.4 -18.7 Q66.6 -15.65 67.15 -12.6 67.9 -8.1 69.4 -3.7 L74.6 10.5 Q75.85 14.2 76.35 18.1 76.7 21.1 76.5 24.15 L75.45 37.65 75.15 39.45 Q74.75 41.1 73.4 42.15 L72.0 43.45 Q71.6 43.8 71.6 44.3 71.65 45.65 71.05 47.05 70.55 48.25 69.55 48.8 66.9 50.15 64.05 50.75 L63.3 52.1 62.45 53.2 Q59.9 55.9 56.1 55.75 51.35 55.4 46.9 54.4 L40.55 53.3 Q38.75 52.9 37.05 51.65 33.8 52.15 30.75 50.55 L25.75 46.4 Q23.3 44.05 22.2 40.9 19.65 41.4 17.85 39.45 L15.6 36.7 14.2 34.4 13.85 33.95 13.65 32.55 12.75 33.15 Q12.35 33.45 11.85 33.55 L11.0 33.95 10.0 33.95 12.95 36.95 11.95 36.9 10.9 36.5 9.95 35.8 8.85 34.8 8.85 33.75 Q7.15 33.0 5.75 31.85 L4.8 30.8 4.0 29.65 3.55 29.65 Q2.3 27.35 2.0 24.7 1.7 22.4 2.9 20.55 L2.95 20.1 3.45 19.4 4.05 18.85 4.7 18.4 5.45 17.95 4.9 16.7 -4.75 13.4 Q-8.1 12.45 -10.7 10.2 -12.75 8.4 -13.8 5.85 -14.8 3.25 -14.45 0.5 -15.6 0.5 -16.6 -0.25 L-17.7 -1.0 -22.0 -3.9 Q-27.35 -7.7 -30.95 -13.1 L-33.45 -16.25 Q-37.45 -20.7 -42.55 -23.65 -45.25 -25.15 -47.85 -26.8 L-51.1 -29.0 -52.6 -29.85 Q-54.45 -30.65 -56.4 -31.8 -62.4 -35.45 -67.25 -40.45 L-71.1 -44.55 -72.0 -45.25 -75.2 -47.7 -75.3 -48.4 -76.15 -49.8 -79.35 -52.4 -79.4 -52.6 -78.95 -53.05 -78.3 -53.05 -76.65 -52.1 -76.5 -51.75 -74.7 -48.65 Q-74.1 -47.6 -73.05 -46.95 L-71.45 -46.15 -71.15 -45.6 -67.95 -42.95 Q-62.65 -38.4 -56.85 -34.3 L-45.75 -27.1 -43.6 -25.8 -38.15 -22.85 Q-31.5 -19.05 -27.2 -12.7 L-24.2 -8.55 Q-23.0 -7.05 -21.4 -5.95 L-14.2 -1.15 -13.9 -2.3 -12.95 -5.05 -11.5 -7.4 -10.8 -7.15 -10.2 -4.2 Q-9.25 0.0 -7.05 4.0 L-5.5 4.8 -2.3 1.8 -0.7 2.0 0.95 6.45 6.25 4.75 9.05 7.3 13.2 6.8 13.95 4.15 13.35 3.65 13.3 3.55 13.5 3.25 16.8 4.1 18.9 1.25 20.8 -2.5 Q21.85 -4.85 22.15 -7.25 22.65 -11.85 24.8 -16.05 L26.15 -19.0 26.7 -21.0 27.1 -24.3 28.05 -26.35 29.85 -31.6 Q30.8 -34.55 31.25 -37.55 L33.05 -40.15 33.65 -41.75 39.0 -49.55 Q41.7 -52.9 45.7 -54.6 M37.35 -33.35 Q37.35 -30.75 39.7 -29.55 L39.8 -29.45 Q36.65 -29.75 37.1 -33.25 L37.35 -33.35 M37.05 -36.1 Q36.15 -34.35 35.8 -32.4 35.0 -28.15 36.85 -24.35 L37.65 -23.45 Q38.7 -22.75 40.15 -22.7 L45.55 -23.9 45.75 -23.15 Q48.9 -22.1 51.9 -23.6 53.2 -24.3 54.25 -25.5 54.7 -26.0 54.8 -26.65 55.15 -28.7 54.45 -30.5 L54.3 -30.85 52.65 -33.85 Q51.85 -35.1 50.65 -35.9 48.6 -37.3 46.05 -37.25 L43.85 -37.1 Q43.3 -37.2 42.8 -37.9 L42.7 -39.2 42.3 -39.85 39.35 -39.85 37.05 -36.1 M38.95 -35.2 Q39.6 -33.3 39.25 -31.25 L39.2 -31.1 Q38.5 -32.9 38.8 -35.15 L38.95 -35.2 M47.55 -21.6 Q46.4 -21.9 45.4 -22.65 43.45 -21.5 41.2 -21.9 L39.6 -21.55 Q36.9 -21.55 35.25 -23.6 L33.95 -22.35 33.95 -22.2 33.4 -20.65 Q32.6 -19.0 31.4 -17.55 L30.45 -16.05 Q29.25 -13.6 30.6 -10.9 L30.9 -10.35 Q32.4 -7.9 35.35 -7.0 38.6 -6.15 41.95 -6.15 L54.45 -6.7 Q56.7 -7.1 58.45 -8.35 45.4 -7.1 32.65 -9.45 L33.3 -10.0 33.75 -10.7 Q35.0 -11.4 36.25 -12.05 L39.4 -13.7 Q43.6 -15.4 48.1 -14.8 53.7 -14.3 58.15 -11.15 L59.45 -9.3 60.9 -10.85 60.95 -12.15 61.05 -16.8 59.45 -19.35 55.9 -25.0 Q55.3 -23.8 54.1 -23.05 52.25 -21.85 50.15 -21.5 L49.85 -21.45 47.55 -21.6 M45.95 -2.2 L46.9 -4.0 44.7 -4.05 Q39.75 -4.3 35.0 -5.65 L34.45 -5.25 30.25 -1.6 Q25.1 3.7 22.05 10.6 L23.35 10.55 Q28.3 10.9 32.8 13.0 35.65 14.3 38.3 16.25 L42.3 19.05 42.6 19.05 42.2 18.35 42.2 9.15 42.45 8.6 Q43.15 3.6 45.95 -2.2 M38.0 -11.75 L40.3 -11.3 42.0 -10.4 41.9 -10.2 Q41.35 -9.95 40.8 -10.2 38.55 -10.95 36.5 -9.9 L55.45 -9.8 Q53.5 -10.3 51.7 -11.15 51.4 -11.2 51.3 -11.6 L56.5 -10.35 Q54.0 -12.3 50.85 -13.15 L46.05 -13.65 Q40.85 -14.0 36.4 -11.3 L38.0 -11.75 M50.5 -29.45 L50.65 -29.55 Q51.95 -28.25 51.4 -26.2 L51.35 -26.05 50.1 -26.15 Q49.55 -28.05 50.5 -29.45 M53.15 -29.15 Q53.9 -28.6 54.25 -27.65 L54.3 -27.5 Q54.05 -26.05 52.85 -25.9 52.6 -26.7 53.3 -27.5 L53.3 -27.65 Q52.65 -28.35 53.0 -29.05 L53.15 -29.15 M23.6 13.1 Q24.7 13.1 25.85 13.6 L27.45 14.45 Q29.05 15.4 29.55 17.1 L31.9 18.3 Q33.3 19.0 34.4 20.1 35.1 20.8 35.95 21.2 L38.4 22.4 Q39.4 22.8 39.8 23.95 L43.9 23.4 43.15 22.1 42.95 21.35 40.95 20.5 35.3 16.55 Q32.75 14.9 29.95 13.8 25.55 11.95 21.0 12.05 L21.95 23.4 Q22.3 26.6 21.85 30.0 L22.25 30.55 22.9 30.2 Q23.85 28.05 25.8 26.5 L28.15 26.65 Q29.7 27.05 30.85 27.9 L32.35 28.7 Q33.75 29.1 35.0 28.7 L35.55 27.35 37.1 24.95 38.15 23.75 37.9 23.4 33.25 21.5 33.5 20.35 29.4 18.65 28.4 17.7 28.4 16.2 23.6 13.1 M31.6 48.75 L33.3 49.5 36.4 50.2 Q38.2 45.3 41.85 41.9 L42.15 40.55 43.25 38.45 Q41.4 40.1 38.9 39.35 L36.75 38.2 35.2 36.45 33.75 36.75 32.05 37.9 30.55 38.55 Q29.05 39.05 27.65 38.1 L30.65 44.1 29.95 44.4 Q28.2 43.85 27.1 42.65 25.65 41.1 25.1 39.05 24.65 37.45 23.8 36.05 L22.65 37.2 24.8 41.75 Q26.75 45.6 30.35 48.0 L31.6 48.75 M15.9 6.15 Q17.6 7.05 18.45 9.0 L18.85 8.85 Q20.0 8.85 20.9 9.35 L21.15 8.85 18.65 6.35 14.5 4.6 14.55 4.75 Q15.0 8.2 13.25 11.3 L13.0 11.7 13.5 21.25 15.75 22.75 16.8 23.8 20.4 27.9 Q19.3 19.95 19.65 11.95 L19.4 11.45 20.2 10.95 20.4 10.5 18.55 10.0 Q18.9 12.6 17.9 14.9 L17.35 15.0 16.85 14.7 Q17.8 11.45 16.65 8.2 L15.9 6.15 M11.7 11.25 L13.2 8.85 13.15 8.0 Q10.65 9.0 8.25 8.45 L5.75 6.05 4.95 5.95 2.3 7.55 0.55 7.85 Q-1.2 5.75 -1.65 3.1 L-2.4 3.9 Q-3.5 5.1 -4.85 5.35 -1.05 8.2 2.6 11.3 L4.0 12.55 Q5.9 14.1 6.95 16.3 L12.0 19.25 12.05 15.35 11.95 14.3 Q11.6 12.7 11.7 11.25 M9.15 21.85 L6.35 19.45 4.55 20.2 Q2.7 23.15 3.75 26.4 4.05 25.45 4.5 24.55 L5.55 23.15 Q7.1 21.9 9.15 21.85 M8.8 23.35 Q6.8 23.0 5.5 24.4 L5.4 26.85 Q5.45 30.55 8.9 31.9 L9.0 29.7 8.8 29.25 8.7 28.85 8.9 28.15 8.95 28.15 Q10.0 30.05 10.0 32.2 L11.1 32.1 Q12.75 31.55 13.75 30.15 14.4 28.0 13.1 26.25 L11.1 24.25 Q10.05 23.55 8.8 23.35 M8.05 18.75 L8.8 19.9 12.55 21.0 12.25 20.45 8.05 18.75 M13.9 24.85 L14.95 27.45 Q15.35 28.5 15.4 29.7 15.45 30.5 14.85 31.25 L17.0 36.0 Q17.45 36.9 18.25 37.5 20.1 38.95 22.1 40.2 L21.75 38.15 Q19.0 38.2 17.45 36.0 16.05 34.0 16.3 31.5 L16.8 27.25 14.35 23.25 13.9 24.85 M-11.8 -5.0 Q-12.4 -4.15 -12.55 -3.15 L-12.7 -2.15 -12.85 -1.5 Q-13.6 2.1 -12.3 5.35 -11.1 8.35 -8.65 10.2 L-7.35 10.4 -7.0 10.85 3.75 14.85 -6.25 6.15 -6.8 6.35 -8.55 4.9 -8.9 3.8 -10.3 0.4 Q-11.25 -2.3 -11.8 -5.0" fill="#000000" fill-rule="evenodd" stroke="none"/>
    <path d="M34.45 -5.25 L35.0 -5.65 Q39.75 -4.3 44.7 -4.05 L46.9 -4.0 45.95 -2.2 42.05 -2.35 Q37.7 -2.65 34.45 -5.25 M8.8 23.35 Q10.05 23.55 11.1 24.25 L13.1 26.25 Q14.4 28.0 13.75 30.15 12.75 31.55 11.1 32.1 L10.0 32.2 Q10.0 30.05 8.95 28.15 L8.9 28.15 8.7 28.85 8.8 29.25 9.0 29.7 8.9 31.9 Q5.45 30.55 5.4 26.85 L5.5 24.4 Q6.8 23.0 8.8 23.35" fill="#cccccc" fill-rule="evenodd" stroke="none"/>
    <path d="M9.15 21.85 Q7.1 21.9 5.55 23.15 L4.5 24.55 Q4.05 25.45 3.75 26.4 2.7 23.15 4.55 20.2 L6.35 19.45 9.15 21.85" fill="#cc9999" fill-rule="evenodd" stroke="none"/>
    <path d="M47.55 -21.6 L49.85 -21.45 54.9 -20.65 59.45 -19.35 61.05 -16.8 60.95 -12.15 57.9 -14.65 45.9 -17.15 36.15 -15.15 30.9 -10.35 30.6 -10.9 Q29.25 -13.6 30.45 -16.05 L35.9 -20.15 Q41.55 -21.85 47.55 -21.6 M23.6 13.1 L28.4 16.2 28.4 17.7 29.4 18.65 33.5 20.35 33.25 21.5 37.9 23.4 38.15 23.75 37.1 24.95 35.55 27.35 35.0 28.7 Q33.75 29.1 32.35 28.7 L30.85 27.9 Q29.7 27.05 28.15 26.65 L25.8 26.5 Q23.85 28.05 22.9 30.2 L22.25 30.55 21.85 30.0 Q22.3 26.6 21.95 23.4 L21.0 12.05 23.6 13.1 M31.6 48.75 L30.35 48.0 Q26.75 45.6 24.8 41.75 L22.65 37.2 23.8 36.05 Q24.65 37.45 25.1 39.05 25.65 41.1 27.1 42.65 28.2 43.85 29.95 44.4 L30.65 44.1 27.65 38.1 Q29.05 39.05 30.55 38.55 L32.05 37.9 33.75 36.75 35.2 36.45 36.75 38.2 36.4 41.65 33.65 43.9 33.4 47.15 31.6 48.75 M15.9 6.15 L16.65 8.2 Q17.8 11.45 16.85 14.7 L17.65 18.15 16.4 20.9 16.8 23.8 15.75 22.75 13.5 21.25 13.0 11.7 13.25 11.3 Q15.0 8.2 14.55 4.75 L15.9 6.15 M13.9 24.85 L14.35 23.25 16.8 27.25 16.3 31.5 Q16.05 34.0 17.45 36.0 19.0 38.2 21.75 38.15 L22.1 40.2 Q20.1 38.95 18.25 37.5 17.45 36.9 17.0 36.0 L14.85 31.25 Q15.45 30.5 15.4 29.7 15.35 28.5 14.95 27.45 L13.9 24.85" fill="#ffb409" fill-rule="evenodd" stroke="none"/>
    <path d="M37.35 -33.35 L37.1 -33.25 Q36.65 -29.75 39.8 -29.45 L39.7 -29.55 Q37.35 -30.75 37.35 -33.35 M37.05 -36.1 L39.35 -39.85 42.3 -39.85 42.7 -39.2 42.8 -37.9 Q43.3 -37.2 43.85 -37.1 L46.05 -37.25 Q48.6 -37.3 50.65 -35.9 51.85 -35.1 52.65 -33.85 L54.3 -30.85 54.45 -30.5 Q55.15 -28.7 54.8 -26.65 54.7 -26.0 54.25 -25.5 53.2 -24.3 51.9 -23.6 48.9 -22.1 45.75 -23.15 L45.55 -23.9 40.15 -22.7 Q38.7 -22.75 37.65 -23.45 L36.85 -24.35 Q35.0 -28.15 35.8 -32.4 36.15 -34.35 37.05 -36.1 M38.95 -35.2 L38.8 -35.15 Q38.5 -32.9 39.2 -31.1 L39.25 -31.25 Q39.6 -33.3 38.95 -35.2 M45.95 -2.2 Q43.15 3.6 42.45 8.6 L42.2 9.15 42.2 18.35 42.6 19.05 42.3 19.05 38.3 16.25 Q35.65 14.3 32.8 13.0 28.3 10.9 23.35 10.55 L22.05 10.6 Q25.1 3.7 30.25 -1.6 L34.45 -5.25 Q37.7 -2.65 42.05 -2.35 L45.95 -2.2 M38.0 -11.75 L36.4 -11.3 Q40.85 -14.0 46.05 -13.65 L50.85 -13.15 Q54.0 -12.3 56.5 -10.35 L51.3 -11.6 Q51.4 -11.2 51.7 -11.15 53.5 -10.3 55.45 -9.8 L36.5 -9.9 Q38.55 -10.95 40.8 -10.2 41.35 -9.95 41.9 -10.2 L42.0 -10.4 40.3 -11.3 38.0 -11.75 M53.15 -29.15 L53.0 -29.05 Q52.65 -28.35 53.3 -27.65 L53.3 -27.5 Q52.6 -26.7 52.85 -25.9 54.05 -26.05 54.3 -27.5 L54.25 -27.65 Q53.9 -28.6 53.15 -29.15 M50.5 -29.45 Q49.55 -28.05 50.1 -26.15 L51.35 -26.05 51.4 -26.2 Q51.95 -28.25 50.65 -29.55 L50.5 -29.45" fill="#ffffff" fill-rule="evenodd" stroke="none"/>
    <path d="M35.0 -40.75 L35.6 -41.9 Q36.65 -44.05 38.0 -46.0 40.1 -49.0 43.1 -51.0 L45.45 -52.35 47.4 -53.3 48.75 -53.6 Q52.3 -51.55 54.55 -48.0 L55.45 -46.65 57.45 -41.75 58.05 -39.25 Q58.95 -33.1 62.35 -27.9 63.5 -26.05 64.1 -23.95 L64.65 -22.75 Q64.0 -15.85 65.85 -9.3 L66.1 -8.5 Q66.6 -7.3 66.6 -5.9 L71.1 5.55 Q72.6 9.1 73.6 12.85 74.5 16.25 74.85 19.8 L74.9 22.7 74.5 27.2 Q73.95 32.7 74.15 38.3 71.8 39.85 70.35 42.35 69.75 43.4 69.55 44.6 69.35 45.8 69.3 47.1 L62.55 49.7 62.0 51.55 61.2 52.75 Q55.8 54.4 50.1 53.6 43.7 52.4 37.8 50.5 L41.5 44.3 43.05 43.5 43.5 41.6 Q54.6 44.9 65.7 41.7 L70.95 36.15 71.95 21.9 70.65 14.95 Q71.15 13.4 71.05 11.85 70.95 10.1 70.15 8.65 L69.55 9.0 63.9 -5.9 63.15 -22.15 55.4 -36.65 53.05 -44.1 46.9 -41.4 42.65 -41.15 41.6 -41.45 39.75 -41.55 38.9 -40.95 35.0 -40.75" fill="#000000" fill-opacity="0.4" fill-rule="evenodd" stroke="none"/>
    <path d="M67.0 20.3 L66.4 23.6 65.55 25.5 Q64.15 27.65 61.7 28.5 L60.65 28.75 58.1 31.0 55.3 32.85 Q53.3 33.85 51.6 35.0 L49.85 35.85 45.3 36.25 43.45 37.15 Q41.2 38.4 38.95 37.45 L36.9 36.15 35.85 35.1 Q32.95 35.65 30.45 36.9 L29.0 37.4 27.55 36.0 35.4 33.65 Q40.55 35.5 45.65 33.4 49.55 33.75 52.65 31.65 59.3 29.05 64.15 22.9 L67.0 20.3" fill="#000000" fill-opacity="0.2" fill-rule="evenodd" stroke="none"/>
    <path d="M60.95 -12.15 L60.9 -10.85 59.45 -9.3 58.15 -11.15 Q53.7 -14.3 48.1 -14.8 43.6 -15.4 39.4 -13.7 L36.25 -12.05 Q35.0 -11.4 33.75 -10.7 L33.3 -10.0 32.65 -9.45 Q45.4 -7.1 58.45 -8.35 56.7 -7.1 54.45 -6.7 L41.95 -6.15 Q38.6 -6.15 35.35 -7.0 32.4 -7.9 30.9 -10.35 L36.15 -15.15 45.9 -17.15 57.9 -14.65 60.95 -12.15 M21.0 12.05 Q25.55 11.95 29.95 13.8 32.75 14.9 35.3 16.55 L40.95 20.5 42.95 21.35 43.15 22.1 43.9 23.4 39.8 23.95 Q39.4 22.8 38.4 22.4 L35.95 21.2 Q35.1 20.8 34.4 20.1 33.3 19.0 31.9 18.3 L29.55 17.1 Q29.05 15.4 27.45 14.45 L25.85 13.6 Q24.7 13.1 23.6 13.1 L21.0 12.05 M36.75 38.2 L38.9 39.35 Q41.4 40.1 43.25 38.45 L42.15 40.55 41.85 41.9 Q38.2 45.3 36.4 50.2 L33.3 49.5 31.6 48.75 33.4 47.15 33.65 43.9 36.4 41.65 36.75 38.2 M14.55 4.75 L14.5 4.6 18.65 6.35 21.15 8.85 20.9 9.35 Q20.0 8.85 18.85 8.85 L18.45 9.0 Q17.6 7.05 15.9 6.15 L14.55 4.75 M16.85 14.7 L17.35 15.0 17.9 14.9 Q18.9 12.6 18.55 10.0 L20.4 10.5 20.2 10.95 19.4 11.45 19.65 11.95 Q19.3 19.95 20.4 27.9 L16.8 23.8 16.4 20.9 17.65 18.15 16.85 14.7" fill="#f99108" fill-rule="evenodd" stroke="none"/>
    <path d="M30.45 -16.05 L31.4 -17.55 Q32.6 -19.0 33.4 -20.65 L33.95 -22.2 33.95 -22.35 35.25 -23.6 Q36.9 -21.55 39.6 -21.55 L41.2 -21.9 Q43.45 -21.5 45.4 -22.65 46.4 -21.9 47.55 -21.6 41.55 -21.85 35.9 -20.15 L30.45 -16.05 M49.85 -21.45 L50.15 -21.5 Q52.25 -21.85 54.1 -23.05 55.3 -23.8 55.9 -25.0 L59.45 -19.35 54.9 -20.65 49.85 -21.45" fill="#ffcd5b" fill-rule="evenodd" stroke="none"/>
  </g>
</svg>
