<?xml version="1.0" encoding="UTF-8" standalone="no"?>
<svg xmlns:xlink="http://www.w3.org/1999/xlink" height="17.75px" width="102.7px" xmlns="http://www.w3.org/2000/svg">
  <g transform="matrix(1.0, 0.0, 0.0, 1.0, 47.75, -16.35)">
    <path d="M54.95 18.4 Q52.4 20.05 49.55 21.25 23.85 32.65 -4.3 33.95 L-7.8 34.05 -15.65 34.05 -25.6 33.6 -26.45 33.5 -30.0 33.15 Q-36.45 32.35 -42.55 30.6 -46.35 29.6 -47.75 26.0 -38.8 22.8 -30.0 22.5 -27.8 22.45 -25.6 22.55 -15.8 23.1 -6.25 27.25 3.8 26.25 13.75 24.3 30.6 21.05 47.4 16.65 51.5 15.6 54.65 18.1 L54.95 18.4" fill="#a7c6d0" fill-rule="evenodd" stroke="none"/>
  </g>
</svg>
