<?xml version="1.0" encoding="UTF-8" standalone="no"?>
<svg xmlns:xlink="http://www.w3.org/1999/xlink" height="24.15px" width="95.8px" xmlns="http://www.w3.org/2000/svg">
  <g transform="matrix(1.0, 0.0, 0.0, 1.0, 47.9, 12.05)">
    <path d="M5.3 -7.95 L4.6 -7.7 7.0 -6.85 8.3 -6.75 9.6 -6.95 8.05 -6.2 6.85 -6.05 5.55 -6.15 3.9 -6.7 3.75 -7.55 3.6 -8.3 -1.1 -7.8 -0.2 -7.05 0.85 -6.1 Q-0.15 -6.0 -0.75 -6.5 L-1.15 -6.9 Q-1.45 -7.4 -1.25 -7.8 L-6.6 -7.3 Q-11.85 -6.25 -16.75 -4.15 L-19.75 -2.8 -20.1 -2.6 -21.1 -2.2 -21.65 -2.0 -22.0 -1.9 -25.4 -1.25 Q-27.65 -1.1 -29.85 -1.3 L-33.2 -1.85 -27.4 -2.3 -26.55 -2.4 -27.05 -2.45 -33.65 -3.25 -33.9 -3.25 -42.95 -3.95 -43.0 -3.95 -43.0 -3.65 -35.1 -2.45 -40.4 -2.2 -38.3 -1.35 -34.25 -0.85 -34.1 -0.75 -37.35 -0.55 -37.4 0.95 -39.35 2.75 -35.95 2.1 -37.25 2.95 -37.3 3.0 Q-39.4 4.2 -41.9 4.5 L-42.85 4.85 -43.85 5.05 -45.1 6.05 -35.95 3.95 Q-36.55 5.05 -37.65 5.6 L-39.85 6.55 -43.45 7.4 -37.15 7.8 Q-33.9 7.55 -30.85 6.7 L-29.75 6.4 -25.7 4.75 -32.1 2.85 -29.2 2.95 -18.7 3.85 -13.2 5.0 -13.1 5.0 Q-9.2 5.95 -5.45 7.25 -1.45 8.6 2.65 9.05 12.15 10.05 21.55 9.3 L23.25 9.15 Q32.1 8.65 38.6 5.95 40.95 5.15 43.15 3.95 L44.7 2.5 39.9 0.75 37.4 -0.05 Q31.3 -1.95 25.0 -2.95 L27.55 -3.15 33.05 -2.65 39.8 -1.2 41.95 -0.55 Q36.6 -4.25 30.65 -6.6 L25.7 -7.9 16.3 -8.8 17.65 -8.35 18.1 -8.2 18.0 -8.1 Q17.75 -7.85 17.4 -7.75 L16.8 -7.55 16.15 -7.8 Q15.7 -7.95 15.4 -8.2 L15.35 -8.25 14.75 -8.75 6.3 -8.45 6.0 -8.3 5.3 -7.95 M9.6 -4.1 L9.65 -4.15 9.55 -3.9 9.6 -4.1 M7.1 -4.25 L9.35 -4.05 8.0 -3.7 11.75 -2.7 Q9.2 -2.15 7.3 -4.0 L7.1 -4.25 M1.9 -4.5 L4.15 -4.85 2.7 -4.2 5.6 -3.7 Q4.65 -2.95 3.4 -3.05 1.8 -3.4 1.9 -4.5 M12.55 -8.1 L12.65 -8.55 12.7 -8.55 12.6 -8.1 12.55 -8.1 M12.95 -7.45 L13.8 -7.1 12.0 -6.35 Q13.55 -6.55 14.3 -5.35 12.2 -4.35 10.85 -6.15 L11.1 -6.95 12.95 -7.45 M28.35 -10.25 L27.35 -10.55 25.2 -10.55 24.55 -10.05 29.6 -9.1 29.4 -9.6 28.35 -10.25 M27.9 -12.05 L29.95 -11.35 30.75 -10.75 Q31.55 -9.7 31.35 -8.6 32.45 -8.05 33.65 -7.6 37.05 -6.2 40.2 -4.35 42.2 -3.05 44.3 -1.85 46.65 -0.4 47.9 1.45 L47.7 1.75 47.6 1.95 47.8 2.15 47.85 2.35 47.8 2.75 45.9 3.95 Q36.75 10.0 26.0 11.55 L23.25 11.8 Q15.35 12.45 7.65 11.6 -7.4 10.4 -21.65 5.85 L-37.9 9.65 Q-43.05 10.9 -47.35 8.2 L-47.9 7.6 -47.75 7.15 -47.85 6.15 -39.35 0.15 -44.1 -1.9 -44.7 -2.95 -44.5 -4.95 -34.95 -5.7 Q-28.25 -5.55 -21.95 -3.65 L-9.9 -7.9 Q-5.0 -9.55 0.05 -10.05 11.6 -10.6 23.0 -10.15 L23.95 -11.0 Q25.6 -12.2 27.9 -12.05 M-12.0 3.4 Q-9.0 0.2 -4.25 -0.3 L-9.35 3.0 Q-1.4 4.55 6.2 1.9 L6.1 3.1 4.7 4.7 -1.75 5.6 -13.1 4.95 -13.15 4.75 -12.0 3.4 M-6.9 -6.15 L-6.95 -6.3 -6.45 -6.2 -5.6 -6.1 -6.8 -5.85 -6.9 -6.15 M-0.7 1.95 L-3.05 2.0 -0.5 1.05 -0.7 1.95 M-5.7 2.25 L-3.0 0.8 -3.5 1.4 Q-4.45 2.4 -5.7 2.25 M-6.45 -4.85 L-6.8 -5.85 -3.6 -4.75 -6.45 -4.85" fill="#000000" fill-rule="evenodd" stroke="none"/>
    <path d="M3.75 -7.55 L3.9 -6.7 5.55 -6.15 6.85 -6.05 8.05 -6.2 9.6 -6.95 8.3 -6.75 7.0 -6.85 4.6 -7.7 5.3 -7.95 12.55 -8.1 12.6 -8.1 15.4 -8.2 Q15.7 -7.95 16.15 -7.8 L16.8 -7.55 17.4 -7.75 Q17.75 -7.85 18.0 -8.1 L18.1 -8.2 17.65 -8.35 26.9 -6.6 Q35.4 -4.25 39.8 -1.2 L33.05 -2.65 27.55 -3.15 25.0 -2.95 Q31.3 -1.95 37.4 -0.05 31.1 4.4 19.75 5.45 9.55 6.45 -1.75 5.6 L4.7 4.7 6.1 3.1 6.2 1.9 Q-1.4 4.55 -9.35 3.0 L-4.25 -0.3 Q-9.0 0.2 -12.0 3.4 L-24.65 0.75 Q-27.75 0.15 -31.7 1.2 L-31.75 1.15 Q-32.2 0.5 -32.15 -0.2 L-31.9 -0.55 -29.85 -1.3 Q-27.65 -1.1 -25.4 -1.25 L-22.0 -1.9 -21.65 -2.0 -21.1 -2.2 -20.1 -2.6 -19.75 -2.8 -16.75 -4.15 Q-13.1 -5.5 -9.0 -5.9 L-6.9 -6.15 -6.8 -5.85 -5.6 -6.1 -6.45 -6.2 -1.15 -6.9 -0.75 -6.5 Q-0.15 -6.0 0.85 -6.1 L-0.2 -7.05 3.75 -7.55 M-33.9 -3.25 L-33.65 -3.25 -33.95 -2.95 -33.9 -3.25 M-27.05 -2.45 L-26.55 -2.4 -27.4 -2.3 -27.05 -2.45 M1.9 -4.5 Q1.8 -3.4 3.4 -3.05 4.65 -2.95 5.6 -3.7 L2.7 -4.2 4.15 -4.85 1.9 -4.5 M7.1 -4.25 L7.3 -4.0 Q9.2 -2.15 11.75 -2.7 L8.0 -3.7 9.35 -4.05 7.1 -4.25 M9.6 -4.1 L9.55 -3.9 9.65 -4.15 9.6 -4.1 M12.95 -7.45 L11.1 -6.95 10.85 -6.15 Q12.2 -4.35 14.3 -5.35 13.55 -6.55 12.0 -6.35 L13.8 -7.1 12.95 -7.45 M-6.45 -4.85 L-3.6 -4.75 -6.8 -5.85 -6.45 -4.85 M-5.7 2.25 Q-4.45 2.4 -3.5 1.4 L-3.0 0.8 -5.7 2.25 M-0.7 1.95 L-0.5 1.05 -3.05 2.0 -0.7 1.95" fill="#ffcc33" fill-rule="evenodd" stroke="none"/>
    <path d="M5.3 -7.95 L6.0 -8.3 6.3 -8.45 14.75 -8.75 15.35 -8.25 15.4 -8.2 12.6 -8.1 12.7 -8.55 12.65 -8.55 12.55 -8.1 5.3 -7.95 M17.65 -8.35 L16.3 -8.8 25.7 -7.9 30.65 -6.6 Q36.6 -4.25 41.95 -0.55 L39.8 -1.2 Q35.4 -4.25 26.9 -6.6 L17.65 -8.35 M-16.75 -4.15 Q-11.85 -6.25 -6.6 -7.3 L-1.25 -7.8 Q-1.45 -7.4 -1.15 -6.9 L-6.45 -6.2 -6.95 -6.3 -6.9 -6.15 -9.0 -5.9 Q-13.1 -5.5 -16.75 -4.15 M-0.2 -7.05 L-1.1 -7.8 3.6 -8.3 3.75 -7.55 -0.2 -7.05" fill="#ffda6d" fill-rule="evenodd" stroke="none"/>
    <path d="M28.35 -10.25 L29.4 -9.6 29.6 -9.1 24.55 -10.05 25.2 -10.55 27.35 -10.55 28.35 -10.25" fill="#ffffff" fill-rule="evenodd" stroke="none"/>
    <path d="M37.4 -0.05 L39.9 0.75 44.7 2.5 43.15 3.95 Q40.95 5.15 38.6 5.95 32.1 8.65 23.25 9.15 L21.55 9.3 Q12.15 10.05 2.65 9.05 -1.45 8.6 -5.45 7.25 -9.2 5.95 -13.1 5.0 L-13.1 4.95 -1.75 5.6 Q9.55 6.45 19.75 5.45 31.1 4.4 37.4 -0.05 M-13.2 5.0 L-18.7 3.85 -29.2 2.95 -31.3 2.1 -31.7 1.25 -31.7 1.2 Q-27.75 0.15 -24.65 0.75 L-12.0 3.4 -13.15 4.75 -13.2 5.0" fill="#ecb20a" fill-rule="evenodd" stroke="none"/>
    <path d="M-37.3 3.0 L-37.25 2.95 -35.95 2.1 -39.35 2.75 -37.4 0.95 -37.35 -0.55 -34.1 -0.75 -34.25 -0.85 -38.3 -1.35 -40.4 -2.2 -35.1 -2.45 -43.0 -3.65 -42.95 -3.95 -33.9 -3.25 -33.95 -2.95 -33.65 -3.25 -27.05 -2.45 -27.4 -2.3 -33.2 -1.85 -29.85 -1.3 -31.9 -0.55 -32.15 -0.2 Q-32.2 0.5 -31.75 1.15 L-31.7 1.2 -31.7 1.25 -37.3 3.0" fill="#ffdd44" fill-rule="evenodd" stroke="none"/>
    <path d="M-29.2 2.95 L-32.1 2.85 -25.7 4.75 -29.75 6.4 -30.85 6.7 Q-33.9 7.55 -37.15 7.8 L-43.45 7.4 -39.85 6.55 -37.65 5.6 Q-36.55 5.05 -35.95 3.95 L-45.1 6.05 -43.85 5.05 -42.85 4.85 -41.9 4.5 Q-39.4 4.2 -37.3 3.0 L-31.7 1.25 -31.3 2.1 -29.2 2.95" fill="#e0c23b" fill-rule="evenodd" stroke="none"/>
  </g>
</svg>
