<?xml version="1.0" encoding="UTF-8" standalone="no"?>
<svg xmlns:xlink="http://www.w3.org/1999/xlink" height="27.9px" width="96.35px" xmlns="http://www.w3.org/2000/svg">
  <g transform="matrix(1.0, 0.0, 0.0, 1.0, 47.8, 11.7)">
    <path d="M28.05 -8.3 L25.75 -8.8 Q18.35 -9.6 10.95 -8.9 L0.05 -7.3 0.75 -6.75 0.75 -6.55 -0.6 -6.55 -0.95 -7.05 -4.25 -6.15 -5.75 -5.5 Q-4.45 -4.85 -3.05 -4.7 L-3.85 -4.05 -5.85 -4.2 Q-6.7 -4.3 -7.15 -4.95 L-7.25 -5.55 -13.65 -3.8 -11.8 -2.75 -14.6 -2.65 Q-15.5 -2.6 -16.0 -3.15 L-16.95 -2.85 -21.35 -1.9 -22.7 -1.9 -42.05 -5.3 -36.2 -2.2 Q-35.25 -1.55 -34.65 -0.65 L-34.5 -0.05 Q-34.7 0.8 -35.3 1.45 L-37.3 3.35 -44.65 7.0 -22.3 4.9 Q-25.05 3.5 -26.5 1.65 L-26.05 1.6 -22.5 2.5 -13.75 5.6 -0.8 7.85 18.8 8.65 19.4 8.4 18.6 9.6 15.3 13.6 Q14.5 14.35 15.0 14.6 L18.9 14.75 19.15 14.15 20.0 12.55 Q21.4 9.65 24.35 8.65 L25.3 8.75 25.6 9.2 25.6 9.4 26.55 9.55 32.4 8.9 41.0 6.05 Q43.5 5.05 45.35 3.3 45.6 3.0 45.45 2.8 44.9 2.05 43.9 2.05 L35.8 2.35 36.0 1.15 Q37.55 0.05 39.55 0.25 L44.7 0.75 Q45.4 0.9 45.95 1.5 L46.3 1.65 47.2 -0.25 45.4 -0.65 Q40.2 -2.1 34.85 -1.4 33.0 -1.3 31.75 -0.35 L30.75 0.25 30.0 -0.65 30.2 -1.0 Q32.55 -2.95 35.55 -3.1 L40.8 -3.3 40.95 -3.3 40.8 -3.55 38.35 -5.2 36.6 -4.4 33.9 -4.0 Q32.5 -3.8 31.2 -4.35 30.55 -4.55 30.05 -4.95 29.65 -5.25 29.5 -5.7 29.0 -7.2 30.75 -7.85 L30.9 -7.9 30.8 -7.95 28.05 -8.3 M8.25 -7.5 L7.25 -6.8 10.0 -6.15 Q8.1 -5.05 6.0 -5.7 L5.85 -5.95 Q5.45 -7.65 7.0 -8.1 L8.25 -7.5 M-8.6 -1.7 L-9.4 -2.3 -9.85 -2.9 -9.45 -3.5 -8.7 -4.15 -7.65 -4.0 -7.65 -3.9 -7.6 -3.55 -7.7 -3.4 -7.85 -3.25 -8.2 -3.1 -8.75 -3.0 -5.2 -2.5 -4.1 -1.5 -8.6 -1.7 M0.4 -3.8 L0.75 -5.4 2.15 -5.95 Q2.9 -6.25 3.3 -5.95 3.05 -4.7 1.65 -4.6 L1.7 -4.1 Q3.3 -3.2 5.2 -3.3 L5.1 -2.35 3.15 -2.25 Q1.65 -2.1 0.55 -3.1 L0.4 -3.8 M12.95 -5.9 L12.55 -6.45 12.35 -6.9 12.4 -7.2 Q13.2 -8.5 14.85 -8.25 L15.5 -8.05 13.15 -6.85 14.5 -6.05 17.25 -5.75 17.4 -5.2 17.35 -5.0 17.25 -4.8 17.05 -4.65 Q14.7 -4.5 12.95 -5.9 M10.85 -11.6 L34.45 -9.0 Q36.95 -8.95 38.85 -7.5 L38.95 -6.35 40.3 -5.8 42.5 -4.45 43.9 -3.15 46.2 -2.8 47.55 -2.3 48.25 -1.55 48.55 -0.55 48.4 1.1 47.8 2.75 47.2 3.9 46.25 4.75 Q44.9 5.35 43.6 6.15 38.9 9.2 33.25 10.35 L24.15 11.1 21.75 12.8 20.85 14.35 19.45 16.05 19.25 16.2 15.3 16.15 Q14.25 16.1 13.25 15.55 L12.9 15.4 Q12.85 15.1 12.95 14.9 13.2 14.25 13.6 13.75 L17.05 10.05 -1.05 9.8 -12.4 8.25 Q-16.3 7.5 -20.0 6.0 L-41.1 8.45 -46.25 8.35 Q-47.2 8.3 -47.8 7.6 L-47.7 7.15 -47.0 6.3 -44.85 4.8 -36.3 0.15 -40.05 -1.95 Q-41.5 -2.65 -42.75 -3.6 -43.85 -4.45 -44.6 -5.6 L-44.95 -6.75 -44.05 -7.15 -42.45 -7.2 -26.1 -4.15 -23.1 -4.05 -19.4 -4.45 Q-9.0 -7.4 1.45 -9.55 L-2.5 -10.35 -4.9 -10.4 -3.9 -10.75 1.25 -11.7 10.85 -11.6 M24.3 -0.35 L24.35 -0.3 24.35 0.1 15.9 5.75 13.55 5.3 Q11.65 4.65 10.25 3.15 L10.9 2.15 Q11.65 1.1 13.1 0.5 L15.4 -0.55 Q17.7 -1.6 20.25 -1.25 18.1 -0.15 15.85 0.85 13.9 1.65 12.25 2.8 L14.05 3.55 15.7 3.7 19.45 0.7 Q21.7 -1.05 24.3 -0.35 M31.05 -5.95 Q33.8 -4.9 36.6 -5.55 L36.4 -5.55 Q35.3 -5.7 35.7 -6.65 L36.85 -7.15 32.05 -7.4 31.15 -6.9 Q30.75 -6.5 31.15 -6.15 L30.95 -5.95 31.05 -5.95 M-28.2 1.6 L-30.95 3.2 -33.5 3.3 -33.75 2.45 Q-33.6 1.85 -32.95 1.55 L-29.15 0.2 -31.8 -0.2 Q-31.95 -0.05 -32.0 -0.25 L-31.35 -0.6 -30.15 -0.7 -32.5 -2.05 -30.5 -2.0 -26.0 0.0 -28.2 1.6" fill="#000000" fill-rule="evenodd" stroke="none"/>
    <path d="M8.25 -7.5 L7.0 -8.1 Q5.45 -7.65 5.85 -5.95 L6.0 -5.7 Q8.1 -5.05 10.0 -6.15 L7.25 -6.8 8.25 -7.5 M-21.35 -1.9 L-16.95 -2.85 -16.0 -3.15 Q-15.5 -2.6 -14.6 -2.65 L-11.8 -2.75 -13.65 -3.8 -7.25 -5.55 -7.15 -4.95 Q-6.7 -4.3 -5.85 -4.2 L-3.85 -4.05 -3.05 -4.7 Q-4.45 -4.85 -5.75 -5.5 L-4.25 -6.15 -0.95 -7.05 -0.6 -6.55 0.75 -6.55 0.75 -6.75 0.05 -7.3 10.95 -8.9 Q18.35 -9.6 25.75 -8.8 L28.05 -8.3 28.6 -8.1 26.25 -5.5 27.75 -4.45 28.45 -3.75 28.5 -3.6 28.5 -3.25 28.05 -3.15 Q26.45 -3.4 24.95 -4.3 24.05 -4.85 23.5 -5.75 L23.25 -6.2 Q20.5 -6.5 17.75 -6.25 L14.5 -6.05 13.15 -6.85 15.5 -8.05 14.85 -8.25 Q13.2 -8.5 12.4 -7.2 L12.35 -6.9 12.55 -6.45 12.95 -5.9 1.7 -4.1 1.65 -4.6 Q3.05 -4.7 3.3 -5.95 2.9 -6.25 2.15 -5.95 L0.75 -5.4 0.4 -3.8 -5.2 -2.5 -8.75 -3.0 -8.2 -3.1 -7.85 -3.25 -7.7 -3.4 -7.6 -3.55 -7.65 -3.9 -7.65 -4.0 -8.7 -4.15 -9.45 -3.5 -9.85 -2.9 -9.4 -2.3 -8.6 -1.7 -11.3 -1.05 Q-14.1 -0.2 -16.9 -0.25 -19.45 -0.4 -21.35 -1.9" fill="#cccccc" fill-rule="evenodd" stroke="none"/>
    <path d="M28.05 -8.3 L30.8 -7.95 30.75 -7.85 Q29.0 -7.2 29.5 -5.7 29.65 -5.25 30.05 -4.95 30.55 -4.55 31.2 -4.35 32.5 -3.8 33.9 -4.0 L36.6 -4.4 38.35 -5.2 40.8 -3.55 40.8 -3.3 35.55 -3.1 Q32.55 -2.95 30.2 -1.0 L30.0 -0.65 30.75 0.25 31.75 -0.35 Q33.0 -1.3 34.85 -1.4 40.2 -2.1 45.4 -0.65 L47.2 -0.25 46.3 1.65 45.95 1.5 Q45.4 0.9 44.7 0.75 L39.55 0.25 Q37.55 0.05 36.0 1.15 L35.8 2.35 43.9 2.05 Q44.9 2.05 45.45 2.8 45.6 3.0 45.35 3.3 L39.75 4.8 30.25 6.5 Q27.25 6.65 24.85 8.1 L24.35 8.65 Q21.4 9.65 20.0 12.55 L19.15 14.15 18.9 14.75 15.0 14.6 Q14.5 14.35 15.3 13.6 L18.6 9.6 19.4 8.4 Q20.15 7.75 19.15 7.25 L17.5 6.55 -8.2 3.55 -21.9 0.35 -24.25 0.3 -25.05 0.85 -25.25 1.4 -25.75 1.55 -28.2 1.6 -26.0 0.0 -30.5 -2.0 -32.5 -2.05 -30.15 -0.7 -31.35 -0.6 -32.0 -0.25 Q-31.95 -0.05 -31.8 -0.2 L-29.15 0.2 -32.95 1.55 Q-33.6 1.85 -33.75 2.45 L-37.3 3.35 -35.3 1.45 Q-34.7 0.8 -34.5 -0.05 L-34.65 -0.65 Q-35.25 -1.55 -36.2 -2.2 L-42.05 -5.3 -22.7 -1.9 -21.35 -1.9 Q-19.45 -0.4 -16.9 -0.25 -14.1 -0.2 -11.3 -1.05 L-8.6 -1.7 -4.1 -1.5 -5.2 -2.5 0.4 -3.8 0.55 -3.1 Q1.65 -2.1 3.15 -2.25 L5.1 -2.35 5.2 -3.3 Q3.3 -3.2 1.7 -4.1 L12.95 -5.9 Q14.7 -4.5 17.05 -4.65 L17.25 -4.8 17.35 -5.0 17.4 -5.2 17.25 -5.75 14.5 -6.05 17.75 -6.25 Q20.5 -6.5 23.25 -6.2 L23.5 -5.75 Q24.05 -4.85 24.95 -4.3 26.45 -3.4 28.05 -3.15 L28.5 -3.25 28.5 -3.6 28.45 -3.75 27.75 -4.45 26.25 -5.5 28.6 -8.1 28.05 -8.3 M24.3 -0.35 Q21.7 -1.05 19.45 0.7 L15.7 3.7 14.05 3.55 12.25 2.8 Q13.9 1.65 15.85 0.85 18.1 -0.15 20.25 -1.25 17.7 -1.6 15.4 -0.55 L13.1 0.5 Q11.65 1.1 10.9 2.15 L10.25 3.15 Q11.65 4.65 13.55 5.3 L15.9 5.75 24.35 0.1 24.35 -0.3 24.3 -0.35" fill="#999999" fill-rule="evenodd" stroke="none"/>
    <path d="M31.15 -6.15 Q30.75 -6.5 31.15 -6.9 L32.05 -7.4 36.85 -7.15 35.7 -6.65 Q35.3 -5.7 36.4 -5.55 L36.6 -5.55 Q33.8 -4.9 31.05 -5.95 L31.15 -6.15" fill="#ffffff" fill-rule="evenodd" stroke="none"/>
    <path d="M45.35 3.3 Q43.5 5.05 41.0 6.05 L32.4 8.9 26.55 9.55 25.6 9.4 25.6 9.2 25.3 8.75 24.35 8.65 24.85 8.1 Q27.25 6.65 30.25 6.5 L39.75 4.8 45.35 3.3 M19.4 8.4 L18.8 8.65 -0.8 7.85 -13.75 5.6 -22.5 2.5 -26.05 1.6 -26.5 1.65 Q-25.05 3.5 -22.3 4.9 L-44.65 7.0 -37.3 3.35 -33.75 2.45 -33.5 3.3 -30.95 3.2 -28.2 1.6 -25.75 1.55 -25.25 1.4 -25.05 0.85 -24.25 0.3 -21.9 0.35 -8.2 3.55 17.5 6.55 19.15 7.25 Q20.15 7.75 19.4 8.4" fill="#666666" fill-rule="evenodd" stroke="none"/>
  </g>
</svg>
