<?xml version="1.0" encoding="UTF-8" standalone="no"?>
<svg xmlns:xlink="http://www.w3.org/1999/xlink" height="33.9px" width="74.5px" xmlns="http://www.w3.org/2000/svg">
  <g transform="matrix(1.0, 0.0, 0.0, 1.0, 37.25, 17.05)">
    <path d="M14.35 -16.2 Q16.6 -17.2 19.0 -17.0 L22.45 -16.7 Q24.55 -16.5 26.6 -16.75 L37.25 -16.55 37.25 -16.25 Q36.5 -13.15 34.9 -10.35 34.2 -10.15 33.4 -7.5 32.6 -4.9 30.3 -1.9 27.95 1.15 26.0 2.9 L21.4 5.1 Q18.2 6.6 14.85 7.55 L9.85 8.95 1.05 10.4 -3.1 10.4 -11.9 11.3 Q-15.15 11.3 -18.15 10.35 L-21.35 12.65 Q-22.9 13.7 -24.8 14.65 L-28.95 16.65 -32.8 16.85 Q-34.95 16.05 -36.8 14.45 L-36.9 13.3 Q-36.85 11.75 -36.35 10.4 -33.85 8.8 -31.85 6.55 L-33.0 6.05 Q-35.4 5.1 -37.25 3.65 L-37.2 2.15 -34.35 0.5 Q-32.1 -0.45 -29.6 -0.25 L-24.15 0.65 Q-22.6 1.3 -18.65 -0.85 -14.7 -3.0 -13.9 -3.5 -12.1 -4.65 -10.15 -5.25 -3.8 -7.15 2.25 -9.6 L2.75 -9.7 7.95 -11.2 Q10.75 -12.3 13.45 -13.85 L13.6 -14.7 14.35 -16.2 M15.05 -14.5 L16.0 -14.6 Q18.7 -14.9 21.05 -16.0 L15.95 -15.6 15.05 -14.5 M6.95 -8.5 L6.9 -7.75 6.85 -7.5 Q6.1 -7.4 5.75 -6.9 6.45 -6.15 7.55 -6.05 6.05 -5.05 4.65 -6.25 L4.55 -7.5 4.55 -7.75 4.8 -7.85 6.7 -8.5 6.95 -8.55 6.95 -8.5 M-1.25 -6.15 L-0.65 -5.15 1.05 -4.35 0.35 -4.25 Q-0.3 -4.25 -0.75 -4.6 L-2.3 -5.6 -2.2 -6.35 -7.4 -4.3 -6.9 -4.1 -5.55 -3.6 -7.45 -2.4 -7.9 -2.55 -8.7 -3.5 -8.7 -4.45 -12.2 -2.95 -19.05 1.0 -18.0 1.95 -18.4 2.25 Q-19.3 3.1 -20.6 3.2 L-27.45 1.45 -30.15 1.4 -32.85 1.85 -33.55 2.05 -34.3 2.2 -33.55 2.25 -25.15 2.8 -32.8 3.8 -33.35 3.9 -32.8 4.05 -31.05 4.8 -30.6 4.5 -28.7 4.6 Q-27.0 4.8 -25.55 5.4 L-29.5 5.9 -29.5 7.2 -31.25 8.85 -33.6 10.4 -26.0 8.25 -26.1 8.4 Q-28.05 10.5 -30.75 11.45 L-34.85 12.2 -34.95 12.75 -34.95 13.0 -34.8 13.8 -34.15 14.25 -30.95 13.3 -26.0 11.05 Q-26.8 12.25 -28.1 13.1 -30.05 14.45 -32.4 14.95 -30.15 15.1 -28.05 14.15 L-25.9 13.0 Q-24.55 12.1 -23.35 10.85 L-19.9 8.35 -19.75 8.3 -19.35 8.1 -18.25 7.6 -17.55 7.35 -14.35 7.2 -14.4 7.3 -17.35 9.7 -1.45 8.9 4.8 7.95 16.5 4.55 Q20.25 3.25 23.9 1.5 L26.2 0.05 28.65 -2.25 Q30.3 -4.3 31.45 -6.75 32.25 -8.4 32.15 -10.05 L27.9 -9.75 27.2 -9.2 Q25.85 -8.3 24.25 -8.0 L23.7 -7.95 27.3 -11.0 33.85 -11.7 34.05 -11.55 34.1 -11.6 34.9 -13.5 35.15 -14.5 24.6 -14.2 19.15 -13.2 14.4 -11.8 Q14.8 -11.25 15.9 -11.3 L16.05 -11.15 15.45 -10.7 14.4 -10.75 13.85 -11.15 13.7 -11.5 10.85 -10.45 10.75 -9.9 9.7 -9.3 12.15 -8.0 9.65 -7.85 8.85 -8.9 8.9 -9.05 9.1 -9.95 -1.25 -6.15 M-7.65 6.2 L-7.55 6.05 -2.2 1.65 -1.9 1.7 Q-2.6 4.05 -4.9 5.75 L-5.15 5.95 Q-0.7 5.5 2.85 3.9 6.0 2.4 8.6 0.0 L8.75 0.0 Q7.45 3.9 3.55 5.85 L3.25 6.0 -0.7 7.2 -7.85 6.95 -7.65 6.2 M12.4 -10.3 L16.05 -7.65 Q12.2 -8.95 12.05 -10.2 L12.05 -10.55 12.4 -10.3 M3.55 -5.55 L3.2 -3.95 Q4.35 -4.05 4.95 -3.15 L5.05 -2.9 Q2.8 -1.0 1.5 -3.3 1.3 -3.6 1.75 -3.6 L2.5 -3.85 Q2.55 -4.6 3.2 -5.45 L3.55 -5.55 M5.9 0.65 Q4.6 2.4 2.65 3.55 L2.0 3.65 1.9 3.15 2.0 2.6 4.8 0.2 4.8 0.15 5.65 0.45 5.9 0.65 M1.4 0.85 L2.25 0.6 2.5 0.6 Q1.55 3.0 -0.95 4.0 L-1.05 3.9 1.15 1.1 1.4 0.85 M-4.25 -4.2 L-3.85 -4.3 Q-3.55 -3.95 -3.8 -3.55 L-4.05 -3.25 -1.65 -2.65 -5.15 -2.55 -4.65 -3.8 -4.25 -4.2" fill="#000000" fill-rule="evenodd" stroke="none"/>
    <path d="M15.05 -14.5 L15.95 -15.6 21.05 -16.0 Q18.7 -14.9 16.0 -14.6 L15.05 -14.5" fill="#ffffff" fill-rule="evenodd" stroke="none"/>
    <path d="M4.8 -7.85 L4.55 -7.75 4.55 -7.5 4.65 -6.25 Q6.05 -5.05 7.55 -6.05 6.45 -6.15 5.75 -6.9 6.1 -7.4 6.85 -7.5 L6.9 -7.75 6.95 -8.5 8.9 -9.05 8.85 -8.9 9.65 -7.85 12.15 -8.0 9.7 -9.3 10.75 -9.9 12.05 -10.2 Q12.2 -8.95 16.05 -7.65 L12.4 -10.3 14.4 -10.75 15.45 -10.7 Q25.2 -13.8 34.9 -13.5 L34.1 -11.6 33.85 -11.7 27.3 -11.0 23.7 -7.95 24.25 -8.0 Q23.1 -3.2 18.1 0.15 10.05 4.3 3.55 5.85 7.45 3.9 8.75 0.0 L8.6 0.0 Q6.0 2.4 2.85 3.9 -0.7 5.5 -5.15 5.95 L-4.9 5.75 Q-2.6 4.05 -1.9 1.7 L-2.2 1.65 -7.55 6.05 -7.65 6.2 -14.4 7.3 -14.35 7.2 -17.55 7.35 -20.7 7.15 -20.75 4.65 -20.6 3.2 Q-19.3 3.1 -18.4 2.25 L-18.0 1.95 Q-14.25 -1.2 -8.7 -3.5 L-7.9 -2.55 -7.45 -2.4 -5.55 -3.6 -6.9 -4.1 -2.3 -5.6 -0.75 -4.6 Q-0.3 -4.25 0.35 -4.25 L1.05 -4.35 -0.65 -5.15 -1.25 -6.15 4.8 -7.85 M3.55 -5.55 L3.2 -5.45 Q2.55 -4.6 2.5 -3.85 L1.75 -3.6 Q1.3 -3.6 1.5 -3.3 2.8 -1.0 5.05 -2.9 L4.95 -3.15 Q4.35 -4.05 3.2 -3.95 L3.55 -5.55 M1.4 0.85 L1.15 1.1 -1.05 3.9 -0.95 4.0 Q1.55 3.0 2.5 0.6 L2.25 0.6 1.4 0.85 M5.9 0.65 L5.65 0.45 4.8 0.15 4.8 0.2 2.0 2.6 1.9 3.15 2.0 3.65 2.65 3.55 Q4.6 2.4 5.9 0.65 M-4.25 -4.2 L-4.65 -3.8 -5.15 -2.55 -1.65 -2.65 -4.05 -3.25 -3.8 -3.55 Q-3.55 -3.95 -3.85 -4.3 L-4.25 -4.2 M-33.55 2.25 L-34.3 2.2 -33.55 2.05 -33.55 2.25" fill="#ffcc33" fill-rule="evenodd" stroke="none"/>
    <path d="M-20.6 3.2 L-20.75 4.65 -20.7 7.15 -26.1 8.4 -26.0 8.25 -33.6 10.4 -31.25 8.85 -29.5 7.2 -29.5 5.9 -25.55 5.4 Q-27.0 4.8 -28.7 4.6 L-30.6 4.5 -31.05 4.8 -32.8 4.05 -32.8 3.8 -25.15 2.8 -33.55 2.25 -33.55 2.05 -32.85 1.85 -30.15 1.4 -27.45 1.45 -20.6 3.2" fill="#ffdd44" fill-rule="evenodd" stroke="none"/>
    <path d="M4.8 -7.85 L-1.25 -6.15 9.1 -9.95 8.9 -9.05 6.95 -8.5 6.95 -8.55 6.7 -8.5 4.8 -7.85 M-2.3 -5.6 L-6.9 -4.1 -7.4 -4.3 -2.2 -6.35 -2.3 -5.6 M-8.7 -3.5 Q-14.25 -1.2 -18.0 1.95 L-19.05 1.0 -12.2 -2.95 -8.7 -4.45 -8.7 -3.5 M34.9 -13.5 Q25.2 -13.8 15.45 -10.7 L16.05 -11.15 15.9 -11.3 Q14.8 -11.25 14.4 -11.8 L19.15 -13.2 24.6 -14.2 35.15 -14.5 34.9 -13.5 M14.4 -10.75 L12.4 -10.3 12.05 -10.55 12.05 -10.2 10.75 -9.9 10.85 -10.45 13.7 -11.5 13.85 -11.15 14.4 -10.75" fill="#ffda6d" fill-rule="evenodd" stroke="none"/>
    <path d="M-20.7 7.15 L-17.55 7.35 -18.25 7.6 -19.35 8.1 Q-19.9 7.85 -20.5 7.75 L-20.7 7.15 M-14.4 7.3 L-7.65 6.2 -7.85 6.95 -0.7 7.2 3.25 6.0 3.55 5.85 Q10.05 4.3 18.1 0.15 23.1 -3.2 24.25 -8.0 25.85 -8.3 27.2 -9.2 L27.9 -9.75 32.15 -10.05 Q32.25 -8.4 31.45 -6.75 30.3 -4.3 28.65 -2.25 L26.2 0.05 23.9 1.5 Q20.25 3.25 16.5 4.55 L4.8 7.95 -1.45 8.9 -17.35 9.7 -14.4 7.3" fill="#ecb20a" fill-rule="evenodd" stroke="none"/>
    <path d="M-19.35 8.1 L-19.75 8.3 -19.9 8.35 -23.35 10.85 Q-24.55 12.1 -25.9 13.0 L-28.05 14.15 Q-30.15 15.1 -32.4 14.95 -30.05 14.45 -28.1 13.1 -26.8 12.25 -26.0 11.05 L-30.95 13.3 -34.15 14.25 -34.8 13.8 -34.95 13.0 -34.95 12.75 -34.85 12.2 -30.75 11.45 Q-28.05 10.5 -26.1 8.4 L-20.7 7.15 -20.5 7.75 Q-19.9 7.85 -19.35 8.1" fill="#e0c23b" fill-rule="evenodd" stroke="none"/>
  </g>
</svg>
