<?xml version="1.0" encoding="UTF-8" standalone="no"?>
<svg xmlns:xlink="http://www.w3.org/1999/xlink" height="550.15px" width="918.95px" xmlns="http://www.w3.org/2000/svg">
  <g transform="matrix(1.0, 0.0, 0.0, 1.0, 45.0, 58.0)">
    <path d="M147.0 104.5 L44.45 104.5 44.45 -7.5 780.45 -7.5 780.45 104.5 147.0 104.5" fill="url(#gradient0)" fill-rule="evenodd" stroke="none"/>
    <path d="M147.0 104.5 L147.0 144.0 200.45 144.0" fill="none" stroke="#e2c88c" stroke-linecap="round" stroke-linejoin="round" stroke-width="1.0"/>
    <path d="M-45.0 -55.55 L-45.0 -58.0 -44.35 -57.3 Q-38.95 -51.1 -37.35 -43.3 -31.8 -45.4 -26.0 -43.3 -16.4 -39.8 -15.45 -29.6 -11.05 -32.4 -6.45 -29.5 -4.2 -28.2 -2.3 -26.2 L-1.7 -26.7 Q3.0 -27.1 6.65 -24.3 9.2 -22.35 10.95 -19.35 17.0 -21.65 23.05 -18.9 L24.15 -18.35 26.15 -20.05 32.65 -20.35 Q32.05 -24.8 36.05 -26.5 40.25 -28.45 44.95 -28.7 56.35 -30.0 62.25 -20.75 69.8 -24.5 78.45 -22.9 L83.55 -21.65 Q90.5 -19.95 94.4 -13.7 103.7 -19.25 112.3 -26.45 114.1 -27.9 116.55 -28.65 L117.6 -29.3 Q128.9 -40.25 143.05 -48.1 149.5 -51.6 157.35 -53.45 172.55 -56.7 187.25 -51.5 189.95 -50.6 192.0 -48.4 198.0 -41.85 204.75 -35.25 211.65 -28.4 220.0 -23.95 223.0 -22.45 226.25 -19.7 229.35 -17.05 230.0 -13.1 251.35 -4.85 273.6 -2.6 282.85 -1.95 291.6 1.15 297.05 2.85 303.05 6.0 L314.1 11.75 Q329.1 7.8 344.9 10.8 L353.35 12.55 Q359.3 13.95 365.6 14.95 L384.5 12.85 Q378.85 15.75 372.85 16.35 L369.1 16.5 Q358.75 16.3 349.1 13.65 331.05 8.95 313.4 13.85 309.9 11.75 302.8 7.9 297.4 5.0 291.6 3.25 280.15 -0.25 267.6 -1.6 247.9 -3.2 229.8 -11.75 L229.4 -10.9 Q228.05 -10.9 227.95 -12.3 227.8 -14.4 227.2 -16.1 226.6 -17.85 224.95 -18.7 213.05 -25.1 203.3 -34.8 L192.4 -45.55 Q187.85 -50.1 181.85 -51.35 165.5 -54.55 149.8 -48.8 133.15 -42.7 121.55 -30.05 120.45 -28.8 119.0 -27.85 L116.15 -26.2 Q112.65 -24.25 109.7 -21.75 99.25 -12.75 86.55 -9.1 L81.2 -8.95 Q62.05 -13.35 44.8 -4.25 39.4 -1.55 33.4 -0.95 L26.1 -1.55 5.35 -2.15 Q-6.7 -0.45 -17.7 4.75 -31.75 11.7 -43.85 19.05 L-45.0 19.75 -45.0 18.15 -40.2 15.05 Q-37.8 13.35 -32.9 10.3 -18.3 1.8 -2.4 -3.35 10.65 -5.4 23.7 -3.15 30.5 -2.0 36.85 -3.75 40.1 -4.45 42.95 -5.8 52.0 -10.6 62.3 -11.8 67.05 -12.5 71.5 -11.6 82.4 -9.2 92.9 -12.95 L92.55 -14.75 Q85.65 -19.95 76.7 -21.3 68.15 -22.9 61.45 -17.55 60.05 -21.7 56.3 -23.9 49.05 -28.05 40.7 -26.7 35.9 -26.3 34.1 -21.85 L35.8 -18.65 35.6 -17.65 Q33.0 -18.7 29.75 -18.7 26.9 -18.5 25.15 -15.95 21.5 -17.25 17.55 -17.95 13.9 -18.85 10.75 -16.65 L9.45 -16.7 8.6 -19.05 Q7.45 -21.85 4.6 -23.55 1.85 -25.25 -1.2 -24.65 L-1.95 -23.1 Q-4.3 -27.3 -9.1 -28.65 -13.35 -29.9 -16.45 -26.4 L-17.65 -27.1 Q-16.85 -32.3 -19.6 -36.85 -22.1 -40.85 -26.2 -41.75 L-29.8 -42.0 -39.7 -40.4 -40.0 -41.2 Q-39.9 -49.5 -45.0 -55.55 M515.9 55.75 Q519.55 55.35 522.6 56.5 535.15 61.4 548.1 64.6 552.7 63.3 556.95 61.2 L560.8 58.9 Q565.5 55.7 570.7 53.5 L572.0 53.45 Q581.15 54.5 588.4 61.1 L606.75 48.95 Q609.95 46.8 613.45 45.6 620.85 43.15 627.05 48.55 L666.8 74.75 Q674.75 79.8 684.65 78.4 697.1 77.0 708.95 72.05 L711.25 71.2 Q718.35 70.85 723.15 76.55 725.45 71.6 731.05 70.55 L733.5 70.6 736.8 71.05 Q737.3 65.05 743.65 64.65 748.0 64.25 751.95 66.25 753.55 61.65 757.1 59.7 759.7 58.25 763.3 58.15 768.05 58.1 772.6 59.2 771.65 56.7 772.7 54.65 774.0 52.1 776.25 50.85 782.0 47.8 787.9 49.45 791.7 45.4 797.7 44.7 806.45 43.6 812.8 49.55 816.6 53.1 815.4 57.75 L821.85 57.15 Q831.0 56.95 834.45 65.1 839.05 61.8 844.65 63.05 847.0 63.5 848.6 64.45 852.45 58.35 859.75 60.3 862.35 61.05 864.75 61.0 L865.2 60.3 Q867.7 56.5 871.95 55.5 L871.95 57.65 Q867.8 58.3 865.55 63.1 860.5 61.25 855.05 61.3 852.65 61.4 853.45 61.65 L853.4 61.85 Q851.35 63.05 850.6 65.2 L849.7 67.85 849.6 67.85 Q843.45 61.7 835.55 66.0 835.45 67.1 834.3 68.0 L833.5 68.25 Q832.85 67.05 832.55 65.85 832.3 64.65 831.7 63.6 829.3 59.1 824.15 59.05 L813.25 59.8 813.6 57.85 Q814.6 53.95 811.7 51.05 808.6 47.6 804.2 46.75 794.35 44.4 788.1 51.9 787.1 51.1 785.95 50.95 L783.35 50.7 Q777.65 49.7 774.8 54.85 774.3 55.7 774.25 56.65 774.1 59.25 775.1 61.4 772.3 61.45 769.0 60.4 764.35 59.1 759.9 60.6 758.3 61.1 757.1 62.05 753.95 64.25 753.3 68.65 L752.75 68.95 Q749.9 67.0 746.6 66.6 744.25 66.25 741.75 67.05 737.2 68.75 738.2 73.55 L737.65 73.45 Q735.5 72.2 733.4 72.05 726.65 71.65 724.55 77.9 L728.9 81.4 730.65 82.9 736.65 83.15 Q740.55 84.6 744.45 84.1 L757.1 81.3 Q762.5 79.8 767.7 77.9 771.65 76.45 775.0 79.5 779.45 83.35 784.35 86.75 786.55 88.15 789.0 88.15 L798.9 86.25 805.3 85.8 Q811.4 85.95 817.35 88.75 818.45 89.3 819.4 89.25 824.3 87.85 829.1 85.95 L832.55 87.35 Q835.65 88.55 838.85 88.1 842.4 87.3 845.45 85.9 847.05 85.2 848.7 84.75 852.95 85.0 856.8 87.65 859.3 89.25 862.15 89.85 867.0 91.15 871.95 90.75 L871.95 92.15 869.65 92.35 Q861.35 93.35 854.2 88.15 850.05 85.2 845.45 87.75 843.1 88.95 840.55 89.5 834.7 90.95 829.4 87.7 L820.95 91.1 820.05 91.3 Q815.05 90.45 810.45 87.9 806.1 85.7 801.55 87.25 796.05 89.05 790.35 89.9 785.05 90.45 781.25 86.85 776.8 82.5 771.3 79.7 770.25 79.0 769.2 79.4 L757.1 83.15 753.6 84.3 Q745.8 86.95 738.05 84.75 735.25 83.9 732.05 84.1 L740.95 90.45 742.95 91.65 746.25 93.3 749.3 93.5 Q752.3 90.75 756.4 92.45 L758.5 88.95 758.9 88.3 759.05 88.15 759.5 87.5 760.5 88.3 Q760.95 92.05 763.1 93.85 L765.65 90.7 767.15 93.75 770.05 93.7 771.1 92.5 771.7 92.75 Q773.7 96.25 776.3 93.15 L778.15 94.7 781.45 93.85 782.6 94.85 Q784.2 92.95 787.0 93.15 790.8 92.75 793.3 95.15 L795.5 94.5 796.55 94.75 797.1 95.35 807.9 92.55 Q811.4 94.45 814.75 94.7 L815.25 95.7 Q817.85 95.5 819.2 97.25 L841.05 97.3 853.85 97.4 871.95 97.65 871.95 99.45 858.05 99.1 Q832.55 98.5 807.0 99.7 782.05 100.2 757.1 99.8 L746.8 99.6 Q722.9 99.05 698.9 99.5 L698.5 102.5 697.6 103.0 696.0 103.3 690.95 103.65 688.45 103.0 Q686.45 102.3 686.7 100.3 L684.65 100.2 669.0 100.2 Q640.15 100.3 611.25 100.9 L575.3 101.6 517.45 102.05 517.45 100.7 537.55 100.45 538.05 100.5 538.15 100.45 590.5 99.85 592.95 99.8 603.7 99.65 604.7 99.25 599.6 97.9 593.35 98.2 592.4 98.0 592.95 96.45 592.55 96.2 Q591.2 95.65 590.0 96.2 L589.8 96.25 588.25 97.05 587.5 96.85 587.3 96.25 587.7 95.15 587.85 94.1 587.7 93.7 587.3 93.5 Q583.65 91.65 580.3 93.85 L579.85 92.75 580.15 91.85 Q579.15 91.65 577.7 91.85 576.15 91.75 575.1 92.95 L574.65 94.7 568.75 96.85 Q567.4 95.6 565.4 95.7 563.6 96.1 561.95 96.8 L561.25 94.15 558.6 91.95 554.0 93.35 Q553.1 91.15 550.7 90.95 546.85 91.35 545.25 94.85 L543.9 94.3 Q540.1 94.85 537.55 98.0 L536.15 94.05 Q534.75 93.3 533.35 94.25 532.35 94.85 531.35 94.5 L531.0 93.7 531.7 90.15 531.55 89.05 526.4 89.5 Q526.75 88.1 526.6 86.85 526.45 85.8 525.55 85.4 L524.85 85.3 Q519.2 85.15 516.6 90.15 L516.6 88.5 Q517.25 86.25 519.25 84.95 521.75 83.4 524.45 84.1 527.55 84.7 528.05 87.45 L529.15 87.45 Q534.35 87.05 533.7 92.3 537.35 91.5 538.35 95.05 540.15 93.25 542.65 92.95 544.7 92.5 546.6 91.1 551.0 87.95 555.25 91.35 L555.85 91.15 Q561.05 88.95 562.95 94.5 L564.25 94.35 Q566.8 93.95 569.0 94.95 571.6 94.1 573.55 92.55 574.85 91.35 576.25 90.85 579.85 89.35 582.05 91.5 L584.0 91.15 Q588.3 91.1 589.65 94.85 L591.3 94.5 Q593.35 94.7 594.45 95.85 L599.4 95.9 603.0 92.85 600.35 91.95 602.8 90.05 599.8 88.95 607.15 83.0 607.35 83.2 Q610.3 85.8 611.45 89.05 L609.15 89.5 613.25 91.85 611.85 92.5 Q610.1 92.95 609.8 93.75 L611.85 95.7 615.35 93.5 614.05 92.55 Q615.9 89.5 619.7 87.85 L623.25 93.5 620.85 94.5 622.1 95.85 625.7 92.35 628.8 99.2 688.05 98.1 689.95 95.05 Q694.25 94.5 697.9 98.0 L706.85 97.85 709.75 94.65 705.95 94.45 Q705.85 92.75 707.75 92.3 708.45 92.05 708.85 91.65 L707.25 91.25 707.45 90.65 712.55 84.6 716.9 89.95 717.0 90.5 715.1 90.85 716.8 91.95 Q717.95 92.65 717.6 93.85 L714.2 94.85 718.3 97.7 724.9 97.8 726.45 95.05 727.45 94.9 Q729.85 95.3 731.9 93.85 L733.9 94.5 734.9 94.25 Q738.05 93.05 740.55 94.85 L744.05 94.3 Q733.7 88.45 724.95 80.55 L720.7 80.2 718.35 83.1 717.35 82.8 Q714.95 81.7 713.0 79.5 L708.75 81.2 705.4 81.4 705.75 78.6 697.9 77.7 Q691.55 79.7 685.05 80.15 674.8 81.55 666.25 76.4 L636.0 58.45 Q633.65 57.15 631.15 56.25 627.5 55.05 624.3 54.95 L624.0 55.5 622.45 58.8 Q622.0 60.1 620.6 60.1 L615.35 55.3 611.85 58.5 Q610.1 59.6 607.9 59.1 L607.7 54.55 Q602.5 55.95 597.75 58.25 590.5 61.65 583.45 65.7 577.45 69.35 570.4 69.25 541.75 68.05 515.9 55.75 M871.95 108.15 L871.95 110.35 838.1 111.55 780.95 114.6 757.1 116.35 725.45 118.95 Q698.3 120.95 671.65 124.75 659.7 126.15 649.15 131.85 645.5 133.85 646.75 137.5 L647.85 138.85 650.75 142.2 651.25 143.75 Q650.65 146.65 647.6 147.8 643.2 149.75 638.5 150.7 620.05 154.5 601.8 158.95 592.55 161.3 585.1 166.75 580.45 170.25 581.1 175.9 L581.55 177.3 582.7 180.75 591.65 207.2 Q602.0 208.2 612.25 211.0 621.05 213.3 629.0 217.75 638.4 223.0 648.75 225.3 L672.4 230.1 Q684.1 232.9 694.8 237.95 705.35 243.05 703.6 254.25 698.85 265.2 687.35 269.6 681.5 271.95 675.35 273.05 L670.15 274.05 Q655.45 275.15 642.0 280.25 633.25 283.6 624.0 285.4 604.7 288.95 585.0 286.45 L576.3 285.2 Q558.25 282.7 540.25 282.1 529.9 281.8 519.45 282.1 509.7 282.45 500.75 286.4 L496.8 288.0 Q491.35 290.05 485.65 291.55 473.0 294.45 460.1 294.4 L446.75 293.6 Q425.1 292.4 403.6 289.85 L384.1 287.45 Q377.6 287.2 371.45 288.85 L362.05 290.65 Q345.2 291.15 329.1 284.4 317.05 279.1 303.85 277.95 292.25 278.1 281.75 280.3 269.6 282.9 260.7 274.85 242.55 275.7 224.5 270.9 213.65 268.15 201.95 266.6 178.35 262.95 154.35 265.7 L138.1 268.3 126.4 270.25 122.0 269.8 Q118.2 275.5 111.4 277.3 79.95 285.3 48.45 289.65 41.85 290.8 35.7 292.55 14.0 299.2 -6.9 309.1 -22.45 316.4 -39.0 321.2 L-39.0 319.1 -37.4 318.45 16.15 296.6 Q26.85 292.2 37.65 290.0 60.7 285.25 83.05 281.4 94.3 279.3 105.65 276.05 L112.6 273.95 Q119.55 271.7 120.6 264.95 L121.6 265.0 122.45 267.75 131.3 267.5 Q141.7 265.4 153.6 263.6 180.45 260.2 206.9 265.55 233.0 270.85 259.25 272.55 260.85 271.9 262.15 273.05 L262.15 273.85 Q268.05 277.95 275.2 278.45 279.6 278.85 283.65 277.75 306.6 272.1 328.5 281.7 345.1 288.85 362.5 288.0 366.05 287.7 369.5 286.6 376.0 284.65 383.0 284.7 L393.25 286.2 Q419.95 290.15 446.75 291.45 L460.1 291.65 464.45 291.75 478.2 290.85 Q488.15 289.15 497.6 284.9 L498.3 284.65 Q506.1 281.25 514.85 280.4 L537.35 279.3 550.8 280.3 Q579.5 284.3 608.5 284.8 614.95 284.85 621.25 283.45 632.75 281.3 643.7 276.85 652.25 273.3 661.45 272.45 672.6 271.1 683.3 267.95 691.45 265.55 697.65 259.55 703.45 253.8 700.45 246.85 699.9 245.5 699.3 245.0 693.55 239.7 685.85 237.1 668.15 231.55 649.65 228.1 638.35 225.95 628.4 220.05 L625.65 218.65 Q609.4 211.3 591.3 209.65 590.05 209.85 589.7 209.0 588.4 201.3 585.5 193.5 L581.3 182.65 Q579.3 177.6 579.45 172.4 582.75 164.3 591.2 161.05 595.0 159.5 598.95 158.5 L634.8 149.85 640.6 148.65 Q646.3 147.45 649.55 143.65 L648.15 142.0 647.75 141.6 Q643.95 138.7 644.9 134.45 650.3 127.65 659.1 125.65 662.05 124.75 665.05 124.3 692.3 119.4 720.35 117.0 L757.1 113.8 775.9 112.25 832.85 109.2 Q852.45 108.4 871.95 108.15 M-45.0 94.9 L-45.0 92.7 37.5 97.4 40.25 94.05 35.7 94.15 35.65 93.55 Q38.05 90.55 41.0 88.85 L37.7 88.65 37.45 87.9 43.45 81.15 49.85 85.3 60.05 78.8 Q62.3 80.6 63.1 83.7 L63.9 85.15 Q64.7 86.0 64.5 87.5 L61.05 88.3 65.05 93.15 59.7 94.3 61.5 96.25 Q65.55 95.35 69.4 93.25 72.45 91.65 76.25 91.5 77.25 89.95 78.95 89.7 80.05 89.65 80.8 90.15 84.35 87.25 87.9 89.35 L90.2 88.5 93.4 90.3 95.2 89.5 96.55 90.1 Q98.9 88.75 101.3 88.7 L102.65 89.15 Q104.05 89.05 105.25 88.25 105.65 87.95 106.05 87.9 L106.9 88.1 108.05 89.15 Q110.65 88.9 112.1 90.65 L112.8 91.65 Q114.75 90.75 116.2 91.85 L117.25 92.95 121.8 93.15 123.8 91.35 128.4 91.15 Q130.9 89.35 134.15 89.75 L137.15 89.65 Q139.45 90.05 141.05 91.85 143.1 91.7 144.6 92.55 145.6 93.1 145.7 94.3 L148.1 95.65 Q149.8 96.25 150.25 97.85 L153.6 97.9 154.75 96.6 160.9 91.9 165.6 92.95 168.2 91.85 175.75 94.85 Q179.8 94.05 183.25 95.9 185.8 92.95 189.45 94.45 L191.65 93.05 Q195.05 94.15 198.4 92.5 202.1 93.9 204.9 95.45 206.2 96.3 206.95 97.2 L210.9 95.1 214.5 98.9 219.05 98.8 221.65 96.7 224.65 94.3 225.05 94.55 Q228.05 96.3 230.2 99.1 L230.85 99.9 230.6 100.6 228.0 101.2 228.95 101.85 Q231.55 100.45 234.2 101.3 L235.15 103.2 Q238.35 101.7 240.9 103.65 L241.9 104.8 Q247.15 102.9 249.95 107.6 250.35 108.25 250.55 109.25 L270.05 110.0 290.6 110.05 294.0 106.45 Q273.4 105.2 253.05 100.3 228.75 94.7 204.2 86.0 178.15 76.75 147.4 65.45 133.5 60.4 117.95 56.3 89.6 49.0 60.3 50.5 31.6 52.85 3.8 58.9 -20.7 64.1 -45.0 70.05 L-45.0 68.35 Q-26.45 63.4 -5.45 58.85 21.1 52.95 41.6 50.75 61.55 48.5 73.7 48.5 93.7 48.6 112.8 53.35 144.0 61.3 173.9 73.2 196.2 66.8 219.45 64.2 245.85 61.3 272.35 63.2 300.2 65.0 326.9 70.65 L335.95 72.65 346.8 73.85 344.9 73.0 350.3 68.6 Q351.2 64.2 355.3 62.4 356.45 61.9 357.35 62.7 359.85 65.2 361.25 68.55 L360.75 70.15 364.9 75.15 365.9 75.15 Q378.2 75.05 390.75 73.2 390.7 74.0 389.75 74.35 377.15 77.55 364.05 76.8 L367.25 79.95 367.05 82.8 372.4 90.35 371.95 91.3 370.4 91.7 370.6 92.35 375.35 95.45 375.25 96.05 Q375.05 99.65 371.85 101.1 367.65 103.3 362.9 102.1 359.15 101.05 355.3 102.8 348.2 106.0 342.6 101.25 L338.0 101.2 335.45 103.85 329.3 109.85 371.85 109.05 392.25 108.65 392.25 110.75 352.2 112.0 Q323.75 112.55 295.2 112.4 266.05 112.4 240.55 111.95 L183.4 109.8 128.4 105.95 73.65 102.25 15.4 98.25 -40.1 95.05 -45.0 94.9 M-45.0 37.75 L-45.0 36.2 Q-38.0 33.0 -29.15 25.7 L-29.05 28.45 Q-26.55 30.25 -23.3 29.65 -11.95 27.0 -1.4 21.05 1.4 24.45 5.85 24.0 15.8 22.5 23.1 15.55 L23.95 16.25 22.3 20.75 23.25 22.6 Q24.05 23.8 25.15 23.8 34.05 24.0 42.55 21.05 60.85 14.65 77.75 4.7 L78.0 5.5 Q76.1 7.55 76.5 10.3 76.65 11.15 77.05 11.6 81.0 15.95 86.9 13.95 108.2 6.7 127.7 -3.55 129.1 -4.25 130.6 -3.55 L128.5 0.85 Q129.55 4.15 132.55 6.35 133.55 7.0 134.95 7.4 144.1 9.4 152.05 4.0 L156.65 11.1 Q157.6 12.5 158.75 13.05 164.2 15.45 169.9 12.85 176.5 9.8 177.65 2.45 L178.5 2.25 Q196.2 14.35 214.45 15.55 232.6 16.75 235.5 8.15 254.65 18.5 275.1 11.15 L281.7 15.3 Q285.65 17.75 290.05 19.7 298.0 23.3 305.15 18.15 311.5 21.25 318.7 21.65 327.8 22.5 334.25 16.55 L338.8 17.95 347.8 20.3 Q355.35 21.75 362.3 18.35 372.85 25.05 384.95 21.7 L385.7 21.55 Q379.2 26.25 371.4 23.7 366.6 22.4 362.55 20.05 354.35 23.65 345.35 21.25 L334.9 18.3 Q328.3 24.6 319.3 23.2 L310.1 21.3 305.45 20.15 Q298.55 25.05 290.3 22.5 L288.05 21.5 275.35 12.95 Q262.45 18.15 248.5 14.25 L235.7 10.7 Q233.2 15.3 225.65 17.05 218.05 18.65 208.95 16.55 200.15 14.55 192.35 11.5 185.2 8.7 178.7 5.35 177.1 11.3 172.05 14.15 169.55 15.5 166.55 15.5 160.0 15.5 156.15 13.35 152.8 11.0 151.65 7.3 L151.35 5.9 Q143.0 11.9 133.15 8.6 125.0 5.9 128.0 -1.8 L92.8 13.9 90.0 14.85 Q83.45 16.95 76.9 15.15 73.25 12.95 74.3 8.35 L74.4 8.0 55.55 17.55 Q43.15 24.1 29.55 25.9 24.75 26.5 21.3 23.25 L21.1 18.55 Q16.2 22.45 10.4 24.65 3.6 27.45 -1.9 23.0 -12.55 28.65 -24.25 31.35 -29.2 32.65 -30.6 28.2 -35.8 32.75 -43.25 36.85 L-45.0 37.75 M784.2 96.2 L786.5 98.2 816.25 97.3 814.4 96.65 Q813.35 94.9 810.9 95.85 L811.0 94.75 808.65 94.9 808.05 94.05 807.45 93.85 804.5 95.85 804.1 95.35 803.35 95.15 796.25 97.05 795.3 96.0 792.7 97.2 791.9 95.7 789.6 95.1 Q786.3 93.65 783.55 95.6 L784.2 96.2 M752.75 122.55 L753.6 123.1 Q756.4 124.5 756.75 127.65 L756.3 128.9 755.8 129.15 Q743.85 132.8 731.4 130.05 L731.0 129.7 730.85 129.3 Q730.9 126.05 733.85 124.1 L734.25 123.75 746.4 121.0 Q749.8 121.0 752.75 122.55 M739.95 97.25 L739.6 96.8 Q737.9 94.5 735.25 95.7 L734.85 96.4 732.4 95.15 731.3 95.45 729.9 97.2 728.9 96.25 727.35 96.5 Q726.45 96.9 726.1 97.8 L727.75 97.85 755.55 98.1 756.15 97.2 752.9 96.8 752.9 96.5 Q754.6 95.35 755.75 93.65 753.7 92.05 750.4 93.85 L750.4 94.85 747.6 94.5 742.75 95.65 Q740.95 95.25 740.55 96.65 L740.25 97.5 739.95 97.25 M758.15 96.5 L757.1 98.1 784.25 98.2 781.35 95.5 778.55 96.2 Q777.15 96.1 776.1 94.95 775.1 95.8 774.2 96.1 772.0 96.7 771.2 94.35 770.3 95.3 769.1 95.45 767.3 95.9 765.95 94.75 L765.45 93.35 762.75 96.2 761.65 95.35 Q759.85 93.05 759.15 90.35 L755.75 95.85 757.1 96.05 757.9 96.25 758.15 96.5 M722.05 78.55 L722.75 78.6 Q719.0 75.0 714.3 73.25 L712.1 73.15 Q706.6 74.45 701.1 76.55 L706.85 77.3 707.0 80.15 713.5 77.75 717.55 81.3 717.9 80.75 Q719.15 77.8 722.05 78.55 M694.7 98.45 L690.95 96.5 690.45 97.2 Q689.05 99.1 688.55 101.05 L689.3 101.65 689.85 102.0 697.3 101.05 697.2 100.05 694.7 98.45 M714.55 89.5 L714.0 88.65 Q713.1 86.75 712.3 86.9 711.45 89.05 709.35 90.15 L710.95 90.05 Q711.45 89.85 711.75 90.45 710.65 92.55 708.35 93.5 L711.6 93.5 Q711.25 96.1 708.55 97.85 L715.4 97.8 712.3 94.5 715.55 93.05 714.6 92.3 Q713.15 91.55 713.35 90.25 L714.55 89.5 M733.8 126.3 L732.45 128.45 Q742.95 130.25 753.7 128.45 753.95 128.3 754.3 128.25 L754.8 127.25 754.1 125.5 Q749.0 121.75 742.8 123.35 738.1 124.65 733.8 126.3 M582.5 59.05 Q580.15 57.3 577.65 56.3 575.95 55.65 574.3 55.65 569.6 54.9 565.8 58.3 L561.2 61.05 568.15 59.9 569.4 62.8 573.4 60.0 576.75 62.45 577.7 59.3 582.5 59.05 M621.85 47.5 Q618.05 45.4 614.15 47.4 609.1 50.1 604.4 53.15 L609.15 52.35 609.35 53.45 Q609.5 56.1 609.9 57.25 L615.35 53.25 Q618.65 54.85 620.6 57.65 L620.7 57.15 Q621.6 54.3 624.2 52.9 L635.55 56.25 Q629.05 51.3 621.85 47.5 M585.1 60.8 L578.75 60.65 577.75 63.45 577.1 64.45 573.6 62.1 571.1 64.05 568.2 64.1 567.6 61.6 558.45 62.3 551.2 65.25 553.9 65.85 561.4 66.9 Q575.25 69.6 586.9 62.0 L585.1 60.8 M609.75 95.7 L607.7 93.05 610.8 91.85 607.35 89.3 609.35 88.05 607.0 84.8 602.55 88.85 604.8 88.95 605.5 89.3 602.5 91.5 604.2 91.15 Q605.3 90.85 605.9 91.85 L603.15 94.65 601.4 96.3 Q603.7 96.85 605.35 98.2 L606.4 99.6 609.6 99.5 Q607.7 97.9 607.7 97.4 607.7 96.2 610.7 96.4 L609.75 95.7 M613.45 96.25 L612.75 96.6 613.25 97.0 Q613.25 97.6 609.55 97.85 L611.7 99.45 619.7 99.3 618.1 97.0 620.7 96.05 619.55 93.7 620.7 92.95 621.45 92.3 619.35 89.7 615.7 92.3 617.9 93.5 613.45 96.25 M621.2 97.45 L619.9 97.5 621.1 99.3 626.65 99.2 626.3 98.25 625.25 94.85 624.7 95.65 Q623.45 97.4 621.2 97.45 M354.75 64.45 L351.4 67.95 352.2 69.6 355.95 69.35 356.9 70.55 358.3 70.6 358.85 70.2 Q360.05 69.05 359.1 67.5 L355.9 64.0 354.75 64.45 M349.3 70.95 L347.9 72.0 350.0 72.55 350.55 75.8 355.45 73.85 Q356.25 74.05 356.65 74.85 L357.35 76.65 360.05 74.45 363.1 75.25 361.3 73.45 359.5 71.6 357.05 71.8 Q355.65 71.45 354.85 70.95 L353.7 71.35 Q351.5 71.65 350.6 69.8 L349.3 70.95 M347.0 77.7 L343.85 80.2 343.85 81.2 Q347.5 83.75 351.7 81.6 353.9 83.35 356.15 83.95 L364.7 83.15 365.6 80.8 364.85 80.15 361.55 76.35 359.85 76.25 358.05 78.4 Q355.5 78.2 354.55 75.45 352.15 77.6 349.2 77.3 L349.1 73.8 347.0 77.7 M186.5 77.75 L203.1 83.6 Q247.95 100.2 295.5 104.85 L297.6 102.45 Q296.5 101.8 296.7 100.45 297.1 98.1 299.4 97.25 298.6 97.0 299.6 95.65 301.05 93.9 302.8 92.9 L302.6 92.25 Q303.35 90.55 304.65 89.15 306.2 87.65 308.2 87.65 L310.1 89.55 310.7 89.65 312.35 91.75 312.2 92.45 312.75 93.05 313.9 93.85 Q315.0 94.55 315.55 95.5 L313.15 96.6 315.15 100.5 314.35 102.1 Q313.3 103.25 313.6 104.0 L315.35 106.55 318.65 102.9 Q317.3 101.45 318.35 99.9 319.3 98.6 320.75 97.4 L318.9 97.45 318.9 97.25 320.15 95.7 Q321.95 93.35 324.35 91.45 324.05 90.05 324.9 89.15 L325.85 87.45 Q326.65 84.6 329.0 83.9 329.65 84.35 329.9 84.9 330.8 86.25 332.25 87.55 333.5 88.65 334.45 90.1 L334.2 91.75 337.85 94.15 338.85 93.5 341.95 90.15 337.45 89.75 337.55 89.35 Q337.85 88.75 338.35 88.5 L343.55 83.5 342.8 82.6 342.05 80.95 Q343.0 77.75 346.0 76.0 L346.3 75.8 Q344.8 74.75 341.45 74.6 L332.1 72.95 Q287.95 63.65 242.75 63.7 L222.05 65.1 Q198.55 67.6 175.15 73.65 L186.5 77.75 M326.5 88.75 L325.35 90.75 326.2 91.3 Q329.9 92.85 333.0 90.5 L331.5 89.15 328.5 85.55 326.5 88.75 M325.15 95.05 L325.5 97.85 329.2 95.25 329.2 95.15 329.25 95.25 Q329.9 95.5 330.7 97.85 L331.5 96.1 Q331.85 95.15 333.0 95.15 333.45 95.15 334.3 96.2 L335.2 96.3 Q335.65 95.5 336.8 94.75 L335.2 93.85 333.2 92.7 Q328.9 94.7 324.9 92.55 L322.85 94.45 320.85 96.05 324.45 94.9 325.15 95.05 M343.85 85.55 L340.55 88.5 343.65 88.05 Q345.2 87.85 346.9 88.5 L347.55 92.15 352.35 90.3 Q353.35 90.85 354.15 91.5 L356.1 93.75 359.25 90.95 364.6 92.95 364.5 90.7 Q365.85 89.7 367.6 89.7 L369.7 89.85 367.6 87.25 365.6 84.7 Q363.25 84.75 360.35 85.55 355.65 86.95 351.55 83.7 L345.2 84.1 343.85 85.55 M341.0 94.15 L335.85 99.0 340.45 99.8 Q344.9 101.3 349.35 102.0 351.6 102.6 353.5 101.7 358.85 99.3 364.3 100.4 371.1 101.7 373.6 95.85 L372.0 95.15 Q369.85 94.55 368.65 92.5 L368.25 91.7 366.6 91.85 366.05 94.5 Q363.0 95.5 359.25 93.1 L355.9 96.3 Q353.9 95.6 353.5 93.65 353.15 92.45 352.1 92.15 L346.7 94.25 Q345.0 92.5 345.35 89.7 L343.8 89.9 341.0 94.15 M335.15 100.7 L334.5 100.05 334.6 97.6 333.2 96.7 331.5 99.25 329.5 99.05 329.0 97.2 326.7 99.3 325.05 99.25 324.15 96.5 322.5 96.9 320.35 99.9 319.15 101.0 321.3 102.5 324.85 101.5 327.2 103.1 Q329.85 104.85 332.7 103.85 L335.15 100.7 M317.5 106.85 L314.7 110.0 326.7 109.85 328.25 108.35 330.85 105.55 325.55 104.4 324.65 103.2 322.65 103.85 320.05 103.65 317.5 106.85 M313.3 99.5 L312.0 97.1 310.95 99.3 310.3 99.45 Q308.8 99.2 307.95 97.9 307.6 98.8 306.95 99.05 304.0 100.2 303.45 97.2 L302.2 97.5 298.2 99.7 297.65 100.6 Q298.95 101.85 301.05 101.7 304.15 101.6 306.25 102.45 310.75 103.8 313.9 101.1 L313.8 100.25 313.3 99.5 M302.2 94.85 L300.45 96.2 301.75 95.85 Q304.6 95.1 305.25 97.9 L307.8 96.5 310.1 97.65 310.6 96.2 313.95 95.15 312.4 94.55 311.15 93.3 304.0 94.15 Q303.25 94.25 302.2 94.85 M304.8 91.3 L303.85 92.25 304.35 92.7 310.5 92.25 Q311.4 92.35 310.9 91.15 L307.5 88.95 304.8 91.3 M198.7 96.1 L199.95 97.4 203.95 102.05 203.9 102.65 201.3 103.65 205.75 108.55 207.75 106.2 203.8 106.05 203.75 105.65 Q204.5 103.0 207.3 102.5 L203.95 102.0 206.2 99.6 206.75 98.65 206.55 98.5 Q205.3 96.3 202.95 95.65 L201.75 96.4 Q200.75 94.05 198.3 94.05 L196.6 94.45 195.95 95.35 194.85 94.45 191.6 94.15 Q191.05 95.9 189.25 96.4 185.3 94.95 182.4 98.3 L182.0 96.65 Q178.7 95.45 175.7 97.05 L175.1 96.6 175.1 95.85 173.35 94.5 Q172.05 95.65 170.25 95.5 L169.7 93.45 Q167.0 92.65 165.55 95.05 L161.9 93.15 Q159.8 94.1 159.25 96.4 L157.65 95.5 153.85 100.05 151.6 98.9 149.5 100.4 Q149.9 96.2 146.0 96.4 L144.85 96.7 144.3 94.15 140.5 94.05 138.35 90.7 135.75 91.05 135.85 91.65 135.5 92.15 Q132.6 89.7 129.2 91.45 L128.9 92.9 Q124.6 91.15 121.95 94.75 L121.4 93.85 Q118.6 93.3 116.45 95.05 L115.6 92.7 113.9 92.5 112.8 93.05 111.45 92.65 Q111.9 91.15 110.7 90.55 L109.9 90.25 108.1 91.05 106.1 89.15 102.95 90.1 102.65 91.7 101.55 91.65 101.3 89.9 Q99.45 89.7 98.1 91.05 L97.1 92.35 95.4 90.85 92.55 92.25 90.75 89.85 87.1 91.35 86.75 90.1 Q83.25 89.25 80.85 91.7 L79.55 90.85 Q78.2 91.25 77.6 92.3 L77.25 93.65 Q74.85 91.9 73.05 93.7 L72.05 95.05 71.25 94.45 Q70.4 94.25 69.25 94.75 68.15 95.15 67.7 95.5 L67.5 97.2 65.55 96.05 62.95 96.4 62.5 97.4 64.15 99.45 192.6 107.95 194.6 105.2 190.65 104.85 190.6 104.25 Q194.6 101.0 197.3 96.7 L198.7 96.1 M247.9 109.8 L249.35 109.4 Q249.3 108.4 248.3 107.35 245.75 104.75 241.6 106.35 L241.0 105.75 Q238.8 102.65 235.15 104.75 L233.45 102.05 230.0 102.65 230.95 103.25 Q232.55 104.3 232.05 105.0 L228.2 106.2 230.95 109.45 247.9 109.8 M226.65 106.45 L226.55 105.45 230.15 104.2 225.65 101.4 226.65 100.25 229.0 99.7 Q226.6 97.1 224.4 96.0 L219.5 100.05 222.0 100.2 222.25 101.3 219.45 103.85 Q221.0 103.7 222.65 104.95 L221.85 106.35 219.85 108.8 220.45 109.2 229.2 109.4 226.65 106.45 M218.2 103.05 L220.0 101.5 216.7 101.4 216.8 100.7 218.0 99.4 215.3 99.8 216.2 100.85 214.75 102.2 215.3 102.7 216.9 104.05 218.2 103.05 M213.45 101.3 L214.1 100.7 210.75 96.3 206.5 101.2 208.05 101.1 Q209.55 100.4 210.15 101.5 209.05 103.9 206.45 104.85 L207.25 104.85 Q208.9 104.45 209.5 105.85 L207.15 108.65 217.65 108.95 213.7 106.0 213.3 105.75 Q213.7 104.85 214.95 104.2 L212.3 102.05 Q212.45 101.8 213.45 101.3 M218.5 107.85 L220.5 105.65 Q218.6 106.05 216.65 104.95 L215.45 105.4 218.5 107.85 M195.55 103.65 L196.95 103.5 197.15 104.2 196.35 105.4 194.4 108.05 204.4 108.55 201.4 105.55 199.3 103.25 Q199.3 102.7 200.15 102.45 L201.95 102.05 198.1 97.65 192.75 103.85 195.55 103.65 M313.7 106.6 L311.6 104.05 298.75 103.25 296.4 105.85 292.05 110.05 Q301.85 110.35 312.6 109.6 L314.5 107.45 313.7 106.6 M59.1 95.5 L57.7 93.55 62.55 92.65 60.65 90.35 Q59.1 88.65 59.75 87.3 L62.9 86.65 59.75 80.7 52.7 85.35 55.7 86.55 50.4 91.55 Q52.15 91.5 53.8 92.35 L54.7 92.85 51.95 95.5 48.4 98.4 61.85 98.9 59.1 95.5 M46.35 92.55 L46.2 91.85 48.95 89.9 47.0 88.7 49.05 86.75 47.95 86.25 Q45.25 85.1 43.65 82.95 L39.45 87.5 43.75 87.7 37.8 93.05 42.05 92.85 42.2 93.55 39.25 97.7 45.75 98.2 51.9 93.65 46.35 92.55 M50.4 88.95 L53.2 87.3 50.75 86.9 48.8 88.15 Q49.75 88.35 50.4 88.95" fill="#000000" fill-rule="evenodd" stroke="none"/>
    <path d="M384.5 12.85 L499.5 12.85 499.5 21.55 385.7 21.55 384.95 21.7 Q372.85 25.05 362.3 18.35 352.4 19.1 342.85 16.35 338.85 15.3 334.7 14.75 L330.5 14.55 Q326.8 18.35 321.7 18.45 310.1 18.65 299.55 12.7 298.45 12.0 297.2 12.0 287.7 11.8 279.75 7.35 272.3 3.25 263.6 3.35 L254.05 2.75 Q236.4 0.25 219.05 -5.0 217.65 -5.25 216.3 -6.3 204.15 -15.45 191.6 -23.1 185.4 -26.85 178.5 -28.45 164.5 -31.85 151.15 -26.65 146.2 -24.7 141.3 -21.7 134.35 -17.35 126.15 -13.8 123.9 -12.7 121.75 -11.4 103.35 0.8 81.35 0.35 L80.65 -0.35 Q68.7 -2.35 57.4 2.55 52.75 4.35 47.95 5.55 37.9 8.35 27.1 7.2 3.85 6.2 -17.4 15.7 L-45.0 27.1 -45.0 19.75 -43.85 19.05 Q-31.75 11.7 -17.7 4.75 -6.7 -0.45 5.35 -2.15 L26.1 -1.55 33.4 -0.95 Q39.4 -1.55 44.8 -4.25 62.05 -13.35 81.2 -8.95 L86.55 -9.1 Q99.25 -12.75 109.7 -21.75 112.65 -24.25 116.15 -26.2 L119.0 -27.85 Q120.45 -28.8 121.55 -30.05 133.15 -42.7 149.8 -48.8 165.5 -54.55 181.85 -51.35 187.85 -50.1 192.4 -45.55 L203.3 -34.8 Q213.05 -25.1 224.95 -18.7 226.6 -17.85 227.2 -16.1 227.8 -14.4 227.95 -12.3 228.05 -10.9 229.4 -10.9 L229.8 -11.75 Q247.9 -3.2 267.6 -1.6 280.15 -0.25 291.6 3.25 297.4 5.0 302.8 7.9 309.9 11.75 313.4 13.85 331.05 8.95 349.1 13.65 358.75 16.3 369.1 16.5 L372.85 16.35 Q378.85 15.75 384.5 12.85 M871.95 57.65 L871.95 73.4 Q867.5 71.95 862.8 74.55 861.1 75.45 860.3 77.35 L859.9 78.1 Q856.4 76.6 852.15 76.15 847.9 76.0 844.65 78.5 840.55 75.25 836.45 78.3 835.75 78.75 835.1 79.3 832.15 76.0 828.15 77.7 824.7 79.1 821.75 81.15 819.85 79.75 817.45 79.55 813.85 79.0 810.25 79.5 808.45 73.55 802.05 72.65 L798.35 72.95 Q797.35 65.9 790.0 65.7 784.35 65.6 780.95 70.15 779.55 71.95 779.2 74.15 L778.45 74.15 Q777.65 72.15 775.25 72.2 771.65 71.65 769.9 74.75 763.25 71.2 757.1 74.6 L754.0 76.75 Q750.7 74.75 747.0 73.8 746.0 73.75 745.0 74.2 742.6 75.55 740.8 78.0 738.25 76.65 734.8 76.95 730.5 77.5 728.9 81.4 L724.55 77.9 Q726.65 71.65 733.4 72.05 735.5 72.2 737.65 73.45 L738.2 73.55 Q737.2 68.75 741.75 67.05 744.25 66.25 746.6 66.6 749.9 67.0 752.75 68.95 L753.3 68.65 Q753.95 64.25 757.1 62.05 758.3 61.1 759.9 60.6 764.35 59.1 769.0 60.4 772.3 61.45 775.1 61.4 774.1 59.25 774.25 56.65 774.3 55.7 774.8 54.85 777.65 49.7 783.35 50.7 L785.95 50.95 Q787.1 51.1 788.1 51.9 794.35 44.4 804.2 46.75 808.6 47.6 811.7 51.05 814.6 53.95 813.6 57.85 L813.25 59.8 824.15 59.05 Q829.3 59.1 831.7 63.6 832.3 64.65 832.55 65.85 832.85 67.05 833.5 68.25 L834.3 68.0 Q835.45 67.1 835.55 66.0 843.45 61.7 849.6 67.85 L849.7 67.85 850.6 65.2 Q851.35 63.05 853.4 61.85 L853.45 61.65 Q852.65 61.4 855.05 61.3 860.5 61.25 865.55 63.1 867.8 58.3 871.95 57.65 M871.95 102.65 L871.95 105.0 Q857.65 105.25 843.3 105.65 L786.2 108.25 757.1 110.4 730.35 112.75 Q702.6 115.4 675.15 118.75 661.65 120.2 649.7 126.15 644.15 128.85 644.9 134.45 643.95 138.7 647.75 141.6 L648.15 142.0 Q633.55 147.85 617.9 150.75 608.7 152.4 599.4 154.8 591.0 156.8 584.1 162.15 578.75 166.15 579.45 172.4 579.3 177.6 581.3 182.65 L585.5 193.5 Q588.4 201.3 589.7 209.0 L590.05 210.2 Q605.5 216.55 621.5 221.2 626.9 222.75 632.25 225.1 644.95 230.9 658.8 233.65 676.0 237.3 692.5 243.1 693.5 243.5 694.0 244.4 697.5 250.5 691.45 254.65 686.3 258.2 679.9 259.55 668.6 262.0 657.0 263.3 654.35 263.8 651.95 264.75 L635.0 271.3 Q626.2 274.7 616.65 274.95 596.15 276.45 576.3 272.15 547.8 265.7 518.7 268.75 509.15 269.6 500.9 272.65 498.55 273.5 496.3 274.5 L494.55 275.3 Q488.8 277.75 482.85 278.85 471.55 281.0 460.1 281.25 L446.75 280.8 Q430.35 280.1 413.95 277.75 L404.25 275.9 Q391.05 272.85 377.6 273.3 372.2 273.85 368.0 274.85 358.15 277.05 348.15 274.9 334.45 271.85 321.55 267.4 305.0 262.0 287.9 264.9 274.55 267.3 261.6 264.1 L250.9 261.7 241.3 259.4 Q210.25 251.75 177.85 253.45 L165.2 255.0 121.0 260.15 120.25 259.65 119.45 258.0 Q114.85 262.5 109.25 265.35 103.65 268.15 97.3 268.95 87.5 269.3 77.65 267.1 L63.05 264.4 Q11.95 255.2 -39.0 245.2 L-39.0 218.5 -41.0 218.5 -41.0 131.55 -45.0 131.55 -45.0 99.55 -33.4 99.9 21.1 103.3 75.3 107.05 135.15 111.15 191.0 114.9 248.45 116.75 Q272.75 117.15 300.45 117.0 325.7 116.95 357.7 116.5 L392.25 115.4 499.5 115.4 499.5 108.65 499.5 105.35 541.05 105.4 575.3 104.95 Q602.35 104.1 629.25 103.9 655.75 103.8 682.55 103.05 685.65 103.0 686.7 103.65 L686.65 103.85 Q686.55 105.4 687.75 106.25 688.55 106.75 689.95 106.85 L693.8 106.95 696.0 106.65 698.1 105.95 698.8 105.65 698.9 102.85 Q704.25 102.6 709.6 102.6 L733.3 102.8 757.1 103.1 788.8 103.0 Q817.15 102.6 845.4 102.6 L871.95 102.65 M-45.0 77.15 L-45.0 70.05 Q-20.7 64.1 3.8 58.9 31.6 52.85 60.3 50.5 89.6 49.0 117.95 56.3 133.5 60.4 147.4 65.45 178.15 76.75 204.2 86.0 228.75 94.7 253.05 100.3 273.4 105.2 294.0 106.45 L290.6 110.05 270.05 110.0 230.2 99.1 Q228.05 96.3 225.05 94.55 L224.65 94.3 221.65 96.7 Q194.05 89.45 167.7 80.1 140.9 70.8 113.25 65.0 85.8 59.3 57.5 60.5 29.7 62.1 2.45 67.1 -21.0 71.25 -45.0 77.15 M-45.0 68.35 L-45.0 61.55 -21.2 57.9 19.3 50.45 Q35.5 48.0 55.5 43.95 76.8 40.35 109.45 38.05 L112.45 37.8 Q125.1 37.8 151.6 45.4 L169.3 51.3 Q189.95 56.85 209.95 56.85 L252.6 55.1 Q288.3 55.1 307.2 61.85 315.15 64.7 326.9 70.65 300.2 65.0 272.35 63.2 245.85 61.3 219.45 64.2 196.2 66.8 173.9 73.2 144.0 61.3 112.8 53.35 93.7 48.6 73.7 48.5 61.55 48.5 41.6 50.75 21.1 52.95 -5.45 58.85 -26.45 63.4 -45.0 68.35 M-45.0 -12.85 L-45.0 -55.55 Q-39.9 -49.5 -40.0 -41.2 L-39.7 -40.4 -29.8 -42.0 -26.2 -41.75 Q-22.1 -40.85 -19.6 -36.85 -16.85 -32.3 -17.65 -27.1 L-16.45 -26.4 Q-13.35 -29.9 -9.1 -28.65 -4.3 -27.3 -1.95 -23.1 L-1.2 -24.65 Q1.85 -25.25 4.6 -23.55 7.45 -21.85 8.6 -19.05 L9.45 -16.7 10.75 -16.65 Q13.9 -18.85 17.55 -17.95 21.5 -17.25 25.15 -15.95 26.9 -18.5 29.75 -18.7 33.0 -18.7 35.6 -17.65 L35.8 -18.65 34.1 -21.85 Q35.9 -26.3 40.7 -26.7 49.05 -28.05 56.3 -23.9 60.05 -21.7 61.45 -17.55 68.15 -22.9 76.7 -21.3 85.65 -19.95 92.55 -14.75 L92.9 -12.95 Q82.4 -9.2 71.5 -11.6 67.05 -12.5 62.3 -11.8 52.0 -10.6 42.95 -5.8 40.1 -4.45 36.85 -3.75 30.5 -2.0 23.7 -3.15 10.65 -5.4 -2.4 -3.35 -12.95 -6.55 -22.85 -1.85 L-23.95 -1.35 Q-25.55 -4.6 -29.2 -5.45 -32.55 -6.4 -36.0 -5.35 -38.15 -11.5 -45.0 -12.85 M784.2 96.2 L783.55 95.6 Q786.3 93.65 789.6 95.1 L791.9 95.7 792.7 97.2 795.3 96.0 796.25 97.05 803.35 95.15 804.1 95.35 804.5 95.85 807.45 93.85 808.05 94.05 808.65 94.9 811.0 94.75 810.9 95.85 Q813.35 94.9 814.4 96.65 L800.7 97.1 796.15 97.85 784.2 96.2 M625.65 218.65 L628.4 220.05 630.6 221.45 629.75 221.05 Q625.7 219.25 623.65 217.95 L625.65 218.65 M727.75 97.85 L726.1 97.8 Q726.45 96.9 727.35 96.5 L728.9 96.25 729.9 97.2 731.3 95.45 732.4 95.15 734.85 96.4 735.25 95.7 Q737.9 94.5 739.6 96.8 L739.95 97.25 727.75 97.85 M740.55 96.65 Q740.95 95.25 742.75 95.65 L747.6 94.5 750.4 94.85 750.4 93.85 Q753.7 92.05 755.75 93.65 L755.1 94.45 740.45 97.25 740.55 96.65 M499.5 73.2 L499.5 88.5 516.6 88.5 516.6 90.15 Q519.2 85.15 524.85 85.3 L525.55 85.4 Q526.45 85.8 526.6 86.85 526.75 88.1 526.4 89.5 L531.55 89.05 531.7 90.15 531.0 93.7 531.35 94.5 Q532.35 94.85 533.35 94.25 534.75 93.3 536.15 94.05 L537.55 98.0 Q540.1 94.85 543.9 94.3 L545.25 94.85 Q546.85 91.35 550.7 90.95 553.1 91.15 554.0 93.35 L558.6 91.95 561.25 94.15 561.95 96.8 Q563.6 96.1 565.4 95.7 567.4 95.6 568.75 96.85 L574.65 94.7 575.1 92.95 Q576.15 91.75 577.7 91.85 579.15 91.65 580.15 91.85 L579.85 92.75 580.3 93.85 Q583.65 91.65 587.3 93.5 L587.7 93.7 587.85 94.1 587.7 95.15 587.3 96.25 587.5 96.85 588.25 97.05 589.8 96.25 590.0 96.2 Q591.2 95.65 592.55 96.2 L592.95 96.45 592.4 98.0 593.35 98.2 599.6 97.9 604.7 99.25 603.7 99.65 596.15 98.2 592.95 99.8 590.5 99.85 590.25 99.45 589.8 98.2 Q588.3 98.25 587.4 98.85 L586.3 99.5 Q585.25 99.5 585.4 96.8 585.45 93.95 583.4 93.95 581.95 95.5 581.3 95.5 580.3 95.5 580.05 94.45 579.85 93.3 578.55 93.3 576.95 93.3 576.95 94.35 576.95 94.95 577.3 95.6 577.3 96.8 576.25 97.05 L575.55 97.1 572.95 97.2 Q571.8 99.2 569.75 99.2 568.6 99.2 568.2 98.6 567.9 98.0 565.5 98.0 L561.05 98.85 Q560.15 98.85 559.15 96.45 558.15 93.95 556.35 93.95 554.3 95.5 553.25 95.5 552.05 95.5 551.65 94.5 551.3 93.5 550.45 93.5 547.05 93.5 546.8 95.35 546.6 97.2 545.25 97.2 544.7 96.5 543.9 96.5 542.15 96.5 540.15 98.5 L538.15 100.45 538.05 100.5 537.55 100.45 Q536.75 100.25 536.5 99.45 L536.2 98.05 Q534.95 96.5 534.9 95.85 L531.35 96.85 Q530.1 96.85 530.1 93.75 530.15 90.7 528.6 90.7 526.55 92.05 525.65 92.05 524.15 92.05 524.2 90.25 524.25 88.35 522.6 88.35 521.75 88.35 519.25 90.35 L516.5 92.3 499.5 92.5 499.5 88.5 Q480.7 81.1 461.4 79.6 L460.1 79.55 Q453.45 79.0 446.75 79.35 L444.65 79.4 390.1 82.95 Q379.15 83.2 367.05 82.8 L367.25 79.95 364.05 76.8 Q377.15 77.55 389.75 74.35 390.7 74.0 390.75 73.2 L400.1 73.2 415.55 73.2 499.5 73.2 M713.5 77.75 L707.0 80.15 706.85 77.3 701.1 76.55 Q706.6 74.45 712.1 73.15 L714.3 73.25 Q719.0 75.0 722.75 78.6 L722.05 78.55 Q718.0 76.45 713.6 77.6 L713.5 77.75 M754.1 125.5 Q745.0 128.65 735.25 126.65 L733.8 126.3 Q738.1 124.65 742.8 123.35 749.0 121.75 754.1 125.5 M621.85 47.5 Q629.05 51.3 635.55 56.25 L624.2 52.9 Q621.6 54.3 620.7 57.15 L620.6 57.65 Q618.65 54.85 615.35 53.25 L609.9 57.25 Q609.5 56.1 609.35 53.45 L609.15 52.35 604.4 53.15 Q609.1 50.1 614.15 47.4 618.05 45.4 621.85 47.5 M582.5 59.05 L577.7 59.3 576.75 62.45 573.4 60.0 569.4 62.8 568.15 59.9 561.2 61.05 565.8 58.3 Q569.6 54.9 574.3 55.65 575.95 55.65 577.65 56.3 580.15 57.3 582.5 59.05 M359.1 67.5 L357.5 67.85 357.05 66.9 353.1 66.6 354.75 64.45 355.9 64.0 359.1 67.5 M364.85 80.15 L364.6 80.75 363.65 81.2 360.35 80.1 357.95 80.3 Q351.7 78.35 345.5 80.2 L347.0 77.7 349.1 73.8 349.2 77.3 Q352.15 77.6 354.55 75.45 355.5 78.2 358.05 78.4 L359.85 76.25 361.55 76.35 364.85 80.15 M186.5 77.75 L175.15 73.65 Q198.55 67.6 222.05 65.1 L242.75 63.7 Q287.95 63.65 332.1 72.95 L341.45 74.6 Q344.8 74.75 346.3 75.8 L346.0 76.0 Q343.0 77.75 342.05 80.95 312.75 77.1 284.9 72.05 257.3 67.0 228.75 69.95 207.85 72.4 186.25 77.6 L186.5 77.75 M331.5 89.15 Q330.85 89.65 329.7 89.85 329.7 89.05 326.65 89.05 L326.5 88.75 328.5 85.55 331.5 89.15 M372.0 95.15 Q368.6 99.0 363.45 97.4 L357.55 97.6 Q353.85 99.05 349.4 98.5 L348.6 98.0 348.3 96.9 Q344.7 95.15 340.65 96.05 L341.0 94.15 343.8 89.9 345.35 89.7 Q345.0 92.5 346.7 94.25 L352.1 92.15 Q353.15 92.45 353.5 93.65 353.9 95.6 355.9 96.3 L359.25 93.1 Q363.0 95.5 366.05 94.5 L366.6 91.85 368.25 91.7 368.65 92.5 Q369.85 94.55 372.0 95.15 M320.35 99.9 L322.5 96.9 324.15 96.5 325.05 99.25 326.7 99.3 329.0 97.2 329.5 99.05 331.5 99.25 333.2 96.7 334.6 97.6 334.5 100.05 335.15 100.7 Q329.5 103.1 324.25 100.05 323.75 99.8 323.25 100.05 L320.35 99.9 M623.25 253.0 L617.3 249.7 Q621.1 242.25 629.2 238.45 632.0 237.05 635.05 236.45 L641.55 234.35 644.1 233.3 638.35 232.1 629.95 231.8 Q626.6 231.35 619.75 232.95 614.75 234.95 576.25 223.35 547.3 214.65 499.5 198.25 L268.15 198.25 256.0 199.85 Q247.45 201.95 240.0 206.6 259.6 202.75 279.0 203.65 303.2 204.45 323.95 216.45 L317.9 218.2 311.9 220.25 Q298.65 225.35 287.25 233.75 L287.3 234.75 287.75 235.1 Q308.7 226.8 331.2 225.7 359.85 224.8 386.3 236.65 L390.1 238.45 377.0 239.15 Q358.25 241.5 341.75 250.9 386.95 235.55 429.25 261.5 437.4 257.4 446.75 255.45 453.4 254.05 460.1 253.55 480.05 251.95 499.55 258.45 L501.35 259.0 508.15 261.3 Q523.2 252.0 540.65 249.3 555.2 247.4 570.0 247.9 599.15 249.6 627.4 256.6 L628.2 255.8 626.4 254.4 625.05 253.6 623.25 253.0 M298.2 99.7 L302.2 97.5 303.45 97.2 Q304.0 100.2 306.95 99.05 307.6 98.8 307.95 97.9 308.8 99.2 310.3 99.45 L310.95 99.3 312.0 97.1 313.3 99.5 Q311.8 101.1 309.9 101.1 312.3 100.7 301.6 100.3 299.0 100.3 298.2 99.7 M304.8 91.3 L307.5 88.95 310.9 91.15 304.8 91.3 M198.7 96.1 L194.4 96.5 193.55 97.85 193.15 97.2 190.0 97.45 190.15 99.05 188.15 97.65 185.85 98.3 185.6 99.7 184.25 99.5 Q182.65 99.9 181.25 100.85 L178.55 98.05 172.75 98.2 171.7 96.85 169.2 97.5 168.2 95.85 164.35 97.0 163.95 96.25 161.3 97.4 160.9 98.65 Q158.0 98.45 156.05 100.8 L155.05 100.4 Q152.8 100.0 150.85 101.5 L149.5 100.4 151.6 98.9 153.85 100.05 157.65 95.5 159.25 96.4 Q159.8 94.1 161.9 93.15 L165.55 95.05 Q167.0 92.65 169.7 93.45 L170.25 95.5 Q172.05 95.65 173.35 94.5 L175.1 95.85 175.1 96.6 175.7 97.05 Q178.7 95.45 182.0 96.65 L182.4 98.3 Q185.3 94.95 189.25 96.4 191.05 95.9 191.6 94.15 L194.85 94.45 195.95 95.35 196.6 94.45 198.3 94.05 Q200.75 94.05 201.75 96.4 L202.95 95.65 Q205.3 96.3 206.55 98.5 L206.75 98.65 206.2 99.6 204.35 98.4 201.3 98.85 199.95 97.4 198.7 96.1 M149.5 100.4 Q146.5 98.85 144.3 96.7 L142.7 94.95 138.85 95.85 138.3 94.1 136.95 93.3 129.4 93.75 Q127.4 93.95 125.4 94.7 123.6 95.3 123.05 97.05 L120.95 96.2 117.15 96.7 116.45 96.3 115.2 96.25 114.45 96.4 112.25 93.75 111.3 93.7 110.65 94.15 109.3 93.95 108.1 92.5 105.9 92.3 106.0 92.05 105.9 91.85 104.75 91.35 Q102.65 92.9 100.1 92.9 L98.15 93.3 97.3 94.05 94.55 92.85 91.8 93.45 90.8 93.55 89.6 92.5 85.45 92.45 85.15 91.9 84.55 91.65 Q81.55 93.3 77.95 93.15 L76.7 94.75 74.05 94.3 68.05 97.05 67.35 97.7 62.5 97.4 62.95 96.4 65.55 96.05 67.5 97.2 67.7 95.5 Q68.15 95.15 69.25 94.75 70.4 94.25 71.25 94.45 L72.05 95.05 73.05 93.7 Q74.85 91.9 77.25 93.65 L77.6 92.3 Q78.2 91.25 79.55 90.85 L80.85 91.7 Q83.25 89.25 86.75 90.1 L87.1 91.35 90.75 89.85 92.55 92.25 95.4 90.85 97.1 92.35 98.1 91.05 Q99.45 89.7 101.3 89.9 L101.55 91.65 102.65 91.7 102.95 90.1 106.1 89.15 108.1 91.05 109.9 90.25 110.7 90.55 Q111.9 91.15 111.45 92.65 L112.8 93.05 113.9 92.5 115.6 92.7 116.45 95.05 Q118.6 93.3 121.4 93.85 L121.95 94.75 Q124.6 91.15 128.9 92.9 L129.2 91.45 Q132.6 89.7 135.5 92.15 L135.85 91.65 135.75 91.05 138.35 90.7 140.5 94.05 144.3 94.15 144.85 96.7 146.0 96.4 Q149.9 96.2 149.5 100.4 M247.9 109.8 Q245.15 107.2 241.3 107.85 L238.8 105.75 232.05 105.0 Q232.55 104.3 230.95 103.25 L230.0 102.65 233.45 102.05 235.15 104.75 Q238.8 102.65 241.0 105.75 L241.6 106.35 Q245.75 104.75 248.3 107.35 249.3 108.4 249.35 109.4 L247.9 109.8 M215.3 102.7 L214.75 102.2 216.2 100.85 215.3 99.8 218.0 99.4 216.8 100.7 216.7 101.4 220.0 101.5 218.2 103.05 Q216.9 102.45 215.3 102.7" fill="#ffffff" fill-rule="evenodd" stroke="none"/>
    <path d="M871.95 73.4 L871.95 90.75 Q867.0 91.15 862.15 89.85 859.3 89.25 856.8 87.65 852.95 85.0 848.7 84.75 847.05 85.2 845.45 85.9 842.4 87.3 838.85 88.1 835.65 88.55 832.55 87.35 L829.1 85.95 Q824.3 87.85 819.4 89.25 818.45 89.3 817.35 88.75 811.4 85.95 805.3 85.8 L798.9 86.25 789.0 88.15 Q786.55 88.15 784.35 86.75 779.45 83.35 775.0 79.5 771.65 76.45 767.7 77.9 762.5 79.8 757.1 81.3 L744.45 84.1 Q740.55 84.6 736.65 83.15 L730.65 82.9 728.9 81.4 Q730.5 77.5 734.8 76.95 738.25 76.65 740.8 78.0 742.6 75.55 745.0 74.2 746.0 73.75 747.0 73.8 750.7 74.75 754.0 76.75 L757.1 74.6 Q763.25 71.2 769.9 74.75 771.65 71.65 775.25 72.2 777.65 72.15 778.45 74.15 L779.2 74.15 Q779.55 71.95 780.95 70.15 784.35 65.6 790.0 65.7 797.35 65.9 798.35 72.95 L802.05 72.65 Q808.45 73.55 810.25 79.5 813.85 79.0 817.45 79.55 819.85 79.75 821.75 81.15 824.7 79.1 828.15 77.7 832.15 76.0 835.1 79.3 835.75 78.75 836.45 78.3 840.55 75.25 844.65 78.5 847.9 76.0 852.15 76.15 856.4 76.6 859.9 78.1 L860.3 77.35 Q861.1 75.45 862.8 74.55 867.5 71.95 871.95 73.4 M-45.0 18.15 L-45.0 -12.85 Q-38.15 -11.5 -36.0 -5.35 -32.55 -6.4 -29.2 -5.45 -25.55 -4.6 -23.95 -1.35 L-22.85 -1.85 Q-12.95 -6.55 -2.4 -3.35 -18.3 1.8 -32.9 10.3 -37.8 13.35 -40.2 15.05 L-45.0 18.15" fill="#c5d0d4" fill-rule="evenodd" stroke="none"/>
    <path d="M-45.0 36.2 L-45.0 27.1 -17.4 15.7 Q3.85 6.2 27.1 7.2 37.9 8.35 47.95 5.55 52.75 4.35 57.4 2.55 68.7 -2.35 80.65 -0.35 L81.35 0.35 Q103.35 0.8 121.75 -11.4 123.9 -12.7 126.15 -13.8 134.35 -17.35 141.3 -21.7 146.2 -24.7 151.15 -26.65 164.5 -31.85 178.5 -28.45 185.4 -26.85 191.6 -23.1 204.15 -15.45 216.3 -6.3 217.65 -5.25 219.05 -5.0 236.4 0.25 254.05 2.75 L263.6 3.35 Q272.3 3.25 279.75 7.35 287.7 11.8 297.2 12.0 298.45 12.0 299.55 12.7 310.1 18.65 321.7 18.45 326.8 18.35 330.5 14.55 L334.7 14.75 Q338.85 15.3 342.85 16.35 352.4 19.1 362.3 18.35 355.35 21.75 347.8 20.3 L338.8 17.95 334.25 16.55 Q327.8 22.5 318.7 21.65 311.5 21.25 305.15 18.15 298.0 23.3 290.05 19.7 285.65 17.75 281.7 15.3 L275.1 11.15 Q254.65 18.5 235.5 8.15 232.6 16.75 214.45 15.55 196.2 14.35 178.5 2.25 L177.65 2.45 Q176.5 9.8 169.9 12.85 164.2 15.45 158.75 13.05 157.6 12.5 156.65 11.1 L152.05 4.0 Q144.1 9.4 134.95 7.4 133.55 7.0 132.55 6.35 129.55 4.15 128.5 0.85 L130.6 -3.55 Q129.1 -4.25 127.7 -3.55 108.2 6.7 86.9 13.95 81.0 15.95 77.05 11.6 76.65 11.15 76.5 10.3 76.1 7.55 78.0 5.5 L77.75 4.7 Q60.85 14.65 42.55 21.05 34.05 24.0 25.15 23.8 24.05 23.8 23.25 22.6 L22.3 20.75 23.95 16.25 23.1 15.55 Q15.8 22.5 5.85 24.0 1.4 24.45 -1.4 21.05 -11.95 27.0 -23.3 29.65 -26.55 30.25 -29.05 28.45 L-29.15 25.7 Q-38.0 33.0 -45.0 36.2 M722.05 78.55 Q719.15 77.8 717.9 80.75 L717.55 81.3 713.5 77.75 713.6 77.6 Q718.0 76.45 722.05 78.55" fill="#d8dde4" fill-rule="evenodd" stroke="none"/>
    <path d="M871.95 96.05 L871.95 97.65 853.85 97.4 841.05 97.3 819.2 97.25 Q817.85 95.5 815.25 95.7 L814.75 94.7 Q811.4 94.45 807.9 92.55 L797.1 95.35 796.55 94.75 795.5 94.5 793.3 95.15 Q790.8 92.75 787.0 93.15 784.2 92.95 782.6 94.85 L781.45 93.85 778.15 94.7 776.3 93.15 Q773.7 96.25 771.7 92.75 L771.1 92.5 770.05 93.7 767.15 93.75 765.65 90.7 763.1 93.85 Q760.95 92.05 760.5 88.3 L759.5 87.5 Q763.5 86.25 767.65 85.15 773.05 84.15 777.65 86.95 L782.15 89.35 Q784.35 90.5 786.8 91.5 L791.0 91.9 Q793.5 91.85 796.1 90.95 799.95 89.55 804.05 89.3 811.0 90.15 817.55 93.05 820.35 94.3 823.2 93.65 824.35 93.55 825.1 92.85 827.95 89.95 831.4 91.55 L835.15 93.25 Q840.65 95.5 846.7 92.7 850.0 91.05 853.4 91.55 855.65 92.15 857.8 93.15 864.55 96.5 871.95 96.05 M759.05 88.15 L758.9 88.3 758.5 88.95 757.1 89.45 Q749.9 91.65 743.25 91.65 L742.95 91.65 740.95 90.45 Q749.2 90.75 757.1 88.35 L759.45 87.55 759.05 88.15" fill="#abaeba" fill-rule="evenodd" stroke="none"/>
    <path d="M871.95 92.15 L871.95 96.05 Q864.55 96.5 857.8 93.15 855.65 92.15 853.4 91.55 850.0 91.05 846.7 92.7 840.65 95.5 835.15 93.25 L831.4 91.55 Q827.95 89.95 825.1 92.85 824.35 93.55 823.2 93.65 820.35 94.3 817.55 93.05 811.0 90.15 804.05 89.3 799.95 89.55 796.1 90.95 793.5 91.85 791.0 91.9 L786.8 91.5 Q784.35 90.5 782.15 89.35 L777.65 86.95 Q773.05 84.15 767.65 85.15 763.5 86.25 759.5 87.5 L759.05 88.15 759.45 87.55 757.1 88.35 Q749.2 90.75 740.95 90.45 L732.05 84.1 Q735.25 83.9 738.05 84.75 745.8 86.95 753.6 84.3 L757.1 83.15 769.2 79.4 Q770.25 79.0 771.3 79.7 776.8 82.5 781.25 86.85 785.05 90.45 790.35 89.9 796.05 89.05 801.55 87.25 806.1 85.7 810.45 87.9 815.05 90.45 820.05 91.3 L820.95 91.1 829.4 87.7 Q834.7 90.95 840.55 89.5 843.1 88.95 845.45 87.75 850.05 85.2 854.2 88.15 861.35 93.35 869.65 92.35 L871.95 92.15 M-45.0 46.75 L-45.0 40.45 Q-8.65 29.6 12.8 25.0 L21.3 23.25 Q24.75 26.5 29.55 25.9 43.15 24.1 55.55 17.55 L76.9 15.15 Q83.45 16.95 90.0 14.85 L92.8 13.9 127.7 12.75 Q141.9 12.75 156.15 13.35 160.0 15.5 166.55 15.5 169.55 15.5 172.05 14.15 245.45 18.75 318.55 38.75 349.2 47.15 378.15 57.95 388.35 61.8 415.55 73.2 L400.1 73.2 Q387.5 68.15 378.15 64.65 349.2 53.85 318.55 45.4 223.6 19.45 127.7 19.45 70.0 19.45 12.8 31.65 -10.7 36.7 -45.0 46.75 M758.5 88.95 L756.4 92.45 Q752.3 90.75 749.3 93.5 L746.25 93.3 742.95 91.65 743.25 91.65 Q749.9 91.65 757.1 89.45 L758.5 88.95 M585.1 60.8 L586.9 62.0 Q575.25 69.6 561.4 66.9 L553.9 65.85 551.2 65.25 558.45 62.3 567.6 61.6 568.2 64.1 571.1 64.05 573.6 62.1 577.1 64.45 577.75 63.45 578.75 60.65 585.1 60.8" fill="#c9ccd8" fill-rule="evenodd" stroke="none"/>
    <path d="M814.4 96.65 L816.25 97.3 786.5 98.2 784.2 96.2 796.15 97.85 800.7 97.1 814.4 96.65 M739.95 97.25 L740.25 97.5 740.55 96.65 740.45 97.25 755.1 94.45 755.75 93.65 Q754.6 95.35 752.9 96.5 L752.9 96.8 756.15 97.2 755.55 98.1 727.75 97.85 739.95 97.25 M603.7 99.65 L592.95 99.8 596.15 98.2 603.7 99.65 M590.5 99.85 L538.15 100.45 540.15 98.5 Q542.15 96.5 543.9 96.5 544.7 96.5 545.25 97.2 546.6 97.2 546.8 95.35 547.05 93.5 550.45 93.5 551.3 93.5 551.65 94.5 552.05 95.5 553.25 95.5 554.3 95.5 556.35 93.95 558.15 93.95 559.15 96.45 560.15 98.85 561.05 98.85 L565.5 98.0 Q567.9 98.0 568.2 98.6 568.6 99.2 569.75 99.2 571.8 99.2 572.95 97.2 L575.55 97.1 576.25 97.05 Q577.3 96.8 577.3 95.6 576.95 94.95 576.95 94.35 576.95 93.3 578.55 93.3 579.85 93.3 580.05 94.45 580.3 95.5 581.3 95.5 581.95 95.5 583.4 93.95 585.45 93.95 585.4 96.8 585.25 99.5 586.3 99.5 L587.4 98.85 Q588.3 98.25 589.8 98.2 L590.25 99.45 590.5 99.85 M537.55 100.45 L517.45 100.7 517.45 102.05 499.5 102.05 499.5 92.5 516.5 92.3 519.25 90.35 Q521.75 88.35 522.6 88.35 524.25 88.35 524.2 90.25 524.15 92.05 525.65 92.05 526.55 92.05 528.6 90.7 530.15 90.7 530.1 93.75 530.1 96.85 531.35 96.85 L534.9 95.85 Q534.95 96.5 536.2 98.05 L536.5 99.45 Q536.75 100.25 537.55 100.45 M149.5 100.4 L150.85 101.5 Q152.8 100.0 155.05 100.4 L156.05 100.8 Q158.0 98.45 160.9 98.65 L161.3 97.4 163.95 96.25 164.35 97.0 168.2 95.85 169.2 97.5 171.7 96.85 172.75 98.2 178.55 98.05 181.25 100.85 Q182.65 99.9 184.25 99.5 L185.6 99.7 185.85 98.3 188.15 97.65 190.15 99.05 190.0 97.45 193.15 97.2 193.55 97.85 194.4 96.5 198.7 96.1 197.3 96.7 Q194.6 101.0 190.6 104.25 L190.65 104.85 194.6 105.2 192.6 107.95 64.15 99.45 62.5 97.4 67.35 97.7 68.05 97.05 74.05 94.3 76.7 94.75 77.95 93.15 Q81.55 93.3 84.55 91.65 L85.15 91.9 85.45 92.45 89.6 92.5 90.8 93.55 91.8 93.45 94.55 92.85 97.3 94.05 98.15 93.3 100.1 92.9 Q102.65 92.9 104.75 91.35 L105.9 91.85 106.0 92.05 105.9 92.3 108.1 92.5 109.3 93.95 110.65 94.15 111.3 93.7 112.25 93.75 114.45 96.4 115.2 96.25 116.45 96.3 117.15 96.7 120.95 96.2 123.05 97.05 Q123.6 95.3 125.4 94.7 127.4 93.95 129.4 93.75 L136.95 93.3 138.3 94.1 138.85 95.85 142.7 94.95 144.3 96.7 Q146.5 98.85 149.5 100.4 M199.95 97.4 L201.3 98.85 204.35 98.4 206.2 99.6 203.95 102.0 207.3 102.5 Q204.5 103.0 203.75 105.65 L203.8 106.05 207.75 106.2 205.75 108.55 201.3 103.65 203.9 102.65 203.95 102.05 199.95 97.4 M232.05 105.0 L238.8 105.75 241.3 107.85 Q245.15 107.2 247.9 109.8 L230.95 109.45 228.2 106.2 232.05 105.0 M218.2 103.05 L216.9 104.05 215.3 102.7 Q216.9 102.45 218.2 103.05 M218.5 107.85 L215.45 105.4 216.65 104.95 Q218.6 106.05 220.5 105.65 L218.5 107.85" fill="#74977c" fill-rule="evenodd" stroke="none"/>
    <path d="M871.95 99.45 L871.95 102.65 845.4 102.6 Q817.15 102.6 788.8 103.0 L757.1 103.1 733.3 102.8 709.6 102.6 Q704.25 102.6 698.9 102.85 L698.8 105.65 698.1 105.95 696.0 106.65 693.8 106.95 689.95 106.85 Q688.55 106.75 687.75 106.25 686.55 105.4 686.65 103.85 L686.7 103.65 Q685.65 103.0 682.55 103.05 655.75 103.8 629.25 103.9 602.35 104.1 575.3 104.95 L541.05 105.4 499.5 105.35 499.5 102.05 517.45 102.05 575.3 101.6 611.25 100.9 Q640.15 100.3 669.0 100.2 L684.65 100.2 686.7 100.3 Q686.45 102.3 688.45 103.0 L690.95 103.65 696.0 103.3 697.6 103.0 698.5 102.5 698.9 99.5 Q722.9 99.05 746.8 99.6 L757.1 99.8 Q782.05 100.2 807.0 99.7 832.55 98.5 858.05 99.1 L871.95 99.45 M871.95 105.0 L871.95 108.15 Q852.45 108.4 832.85 109.2 L775.9 112.25 757.1 113.8 720.35 117.0 Q692.3 119.4 665.05 124.3 662.05 124.75 659.1 125.65 650.3 127.65 644.9 134.45 644.15 128.85 649.7 126.15 661.65 120.2 675.15 118.75 702.6 115.4 730.35 112.75 L757.1 110.4 786.2 108.25 843.3 105.65 Q857.65 105.25 871.95 105.0 M-39.0 314.5 L-39.0 245.2 Q11.95 255.2 63.05 264.4 L77.65 267.1 Q87.5 269.3 97.3 268.95 103.65 268.15 109.25 265.35 114.85 262.5 119.45 258.0 L120.25 259.65 121.0 260.15 165.2 255.0 177.85 253.45 Q210.25 251.75 241.3 259.4 L250.9 261.7 261.6 264.1 Q274.55 267.3 287.9 264.9 305.0 262.0 321.55 267.4 334.45 271.85 348.15 274.9 358.15 277.05 368.0 274.85 372.2 273.85 377.6 273.3 391.05 272.85 404.25 275.9 L413.95 277.75 Q430.35 280.1 446.75 280.8 L460.1 281.25 Q471.55 281.0 482.85 278.85 488.8 277.75 494.55 275.3 L496.3 274.5 Q498.55 273.5 500.9 272.65 509.15 269.6 518.7 268.75 547.8 265.7 576.3 272.15 596.15 276.45 616.65 274.95 626.2 274.7 635.0 271.3 L651.95 264.75 Q654.35 263.8 657.0 263.3 668.6 262.0 679.9 259.55 686.3 258.2 691.45 254.65 697.5 250.5 694.0 244.4 693.5 243.5 692.5 243.1 676.0 237.3 658.8 233.65 644.95 230.9 632.25 225.1 626.9 222.75 621.5 221.2 605.5 216.55 590.05 210.2 L589.7 209.0 Q590.05 209.85 591.3 209.65 609.4 211.3 625.65 218.65 L623.65 217.95 Q625.7 219.25 629.75 221.05 L630.6 221.45 628.4 220.05 Q638.35 225.95 649.65 228.1 668.15 231.55 685.85 237.1 693.55 239.7 699.3 245.0 699.9 245.5 700.45 246.85 699.85 246.25 699.3 248.0 698.25 251.75 696.05 254.65 689.25 263.9 677.75 265.2 657.2 267.6 637.6 274.65 632.8 276.25 627.85 277.15 605.6 281.85 582.95 278.35 L571.6 276.75 Q551.85 273.15 531.75 273.85 L517.25 274.85 Q508.45 275.7 500.2 278.75 L497.95 279.65 496.3 280.2 Q478.65 286.9 460.1 287.3 L446.75 286.85 Q422.6 285.8 398.35 281.25 385.15 278.75 371.95 281.8 353.95 286.2 336.55 279.9 327.8 276.65 321.65 274.55 303.45 268.4 284.7 273.05 272.55 276.1 262.15 269.15 L262.15 268.35 Q261.0 267.35 259.4 267.5 L256.05 267.15 Q231.75 265.55 207.65 260.75 179.6 255.25 150.9 259.4 145.85 260.25 140.05 261.9 131.2 264.1 122.45 262.95 L121.6 260.35 120.6 260.25 Q120.4 263.55 117.95 265.55 113.0 269.55 107.05 271.25 90.0 276.1 72.65 277.95 45.75 281.7 20.2 290.4 14.8 292.05 9.0 294.55 -15.1 305.1 -39.0 314.5 M-45.0 99.55 L-45.0 94.9 -40.1 95.05 15.4 98.25 73.65 102.25 128.4 105.95 183.4 109.8 240.55 111.95 Q266.05 112.4 295.2 112.4 323.75 112.55 352.2 112.0 L392.25 110.75 392.25 108.65 499.5 108.65 499.5 115.4 392.25 115.4 357.7 116.5 Q325.7 116.95 300.45 117.0 272.75 117.15 248.45 116.75 L191.0 114.9 135.15 111.15 75.3 107.05 21.1 103.3 -33.4 99.9 -45.0 99.55 M648.15 142.0 L649.55 143.65 Q646.3 147.45 640.6 148.65 L634.8 149.85 598.95 158.5 Q595.0 159.5 591.2 161.05 582.75 164.3 579.45 172.4 578.75 166.15 584.1 162.15 591.0 156.8 599.4 154.8 608.7 152.4 617.9 150.75 633.55 147.85 648.15 142.0 M377.0 239.15 L370.25 242.1 385.35 243.65 Q407.8 244.85 427.3 255.95 434.45 253.45 441.7 251.3 L446.75 250.0 Q453.4 248.3 460.1 247.5 481.25 245.0 502.3 250.7 L506.85 252.35 Q529.5 241.9 554.3 240.45 574.9 239.7 594.6 246.1 609.2 250.8 624.1 254.65 L623.25 253.0 625.05 253.6 626.4 254.4 628.2 255.8 627.4 256.6 Q599.15 249.6 570.0 247.9 555.2 247.4 540.65 249.3 523.2 252.0 508.15 261.3 L501.35 259.0 499.55 258.45 Q480.05 251.95 460.1 253.55 453.4 254.05 446.75 255.45 437.4 257.4 429.25 261.5 386.95 235.55 341.75 250.9 358.25 241.5 377.0 239.15 M617.3 249.7 L616.65 249.3 615.9 248.8 610.8 246.1 Q619.75 234.3 634.55 232.1 L629.95 231.8 638.35 232.1 644.1 233.3 641.55 234.35 635.05 236.45 Q632.0 237.05 629.2 238.45 621.1 242.25 617.3 249.7 M256.0 199.85 L273.1 199.95 Q299.95 200.3 326.05 206.2 331.0 207.2 331.85 211.85 331.9 212.4 331.6 212.65 325.45 217.25 317.9 218.2 L323.95 216.45 Q303.2 204.45 279.0 203.65 259.6 202.75 240.0 206.6 247.45 201.95 256.0 199.85 M311.9 220.25 L313.3 220.35 312.0 221.6 312.5 222.0 Q332.1 217.4 352.5 218.6 366.1 219.25 380.45 221.15 397.1 222.65 410.8 231.7 L386.3 236.65 Q359.85 224.8 331.2 225.7 308.7 226.8 287.75 235.1 L287.3 234.75 287.25 233.75 Q298.65 225.35 311.9 220.25" fill="#e1e5e8" fill-rule="evenodd" stroke="none"/>
    <path d="M871.95 116.3 L871.95 121.6 864.4 121.75 809.9 124.15 757.1 127.55 756.75 127.65 Q756.4 124.5 753.6 123.1 L752.75 122.55 757.1 122.3 808.45 118.95 864.4 116.4 871.95 116.3 M-39.0 357.95 L-39.0 337.2 Q-25.35 333.25 -12.15 327.15 9.55 316.8 33.3 309.35 38.45 307.75 42.85 306.8 63.95 302.6 83.0 299.5 98.1 297.15 113.5 292.55 119.05 290.8 122.0 285.85 127.9 286.6 133.15 285.9 L143.65 283.7 Q166.6 278.95 189.6 281.05 L198.6 282.3 Q214.35 284.0 230.8 288.2 245.75 291.95 260.7 290.85 264.4 294.8 269.75 295.95 278.8 297.8 287.85 295.55 305.4 291.45 321.9 297.75 332.45 301.9 342.55 304.5 357.85 308.5 373.65 304.95 L381.95 303.35 401.1 305.6 Q423.6 308.25 446.75 309.65 L460.1 310.5 Q470.55 310.5 480.9 308.55 490.15 306.8 499.0 303.55 L502.15 302.3 Q512.05 298.2 522.65 298.2 530.7 298.2 538.7 298.55 559.75 299.2 580.75 301.95 L589.2 303.1 Q618.45 306.7 645.6 295.45 653.7 292.25 662.4 291.4 671.0 290.45 679.2 288.75 687.3 286.85 694.2 282.3 701.6 277.65 703.85 269.35 L704.15 280.8 Q704.2 282.1 703.45 283.4 L701.7 286.2 Q693.8 297.35 680.6 299.75 672.8 301.4 665.05 304.0 L626.7 317.0 Q608.1 322.9 588.5 321.45 L580.55 320.3 Q558.8 317.25 536.9 315.3 525.85 314.35 515.3 316.7 513.45 317.05 511.9 318.0 507.9 320.5 503.7 322.3 L500.65 322.9 Q480.4 325.8 460.1 325.55 L446.75 325.05 441.05 324.65 Q416.6 322.8 393.35 315.25 383.95 320.45 373.35 320.7 349.75 322.65 328.1 313.1 319.15 309.05 308.9 309.35 L287.1 311.3 Q275.9 311.25 266.05 306.4 264.05 305.4 261.85 305.0 219.9 294.55 176.75 296.2 L147.85 297.2 136.65 296.6 Q126.95 303.8 115.15 305.3 90.5 307.5 65.75 313.45 41.4 319.2 18.55 329.35 8.25 333.95 -1.3 339.95 -4.3 342.0 -8.45 343.9 -22.25 349.75 -36.55 353.85 -37.6 356.0 -39.0 357.95 M651.25 149.75 L651.25 155.0 Q651.25 158.55 640.2 161.55 L616.05 166.75 Q599.65 170.25 591.8 174.0 585.3 177.0 582.7 180.75 L581.55 177.3 Q585.25 171.4 591.85 168.75 608.55 162.25 626.4 159.3 635.45 157.7 644.35 155.2 649.25 154.0 651.25 149.75 M650.75 142.2 L647.85 138.85 Q648.9 137.9 650.65 137.1 662.6 131.55 675.8 130.15 704.85 126.5 733.85 124.1 730.9 126.05 730.85 129.3 L731.0 129.7 Q703.35 131.9 675.8 135.5 662.8 136.85 650.75 142.2" fill="#d4eaef" fill-rule="evenodd" stroke="none"/>
    <path d="M871.95 113.65 L871.95 116.3 864.4 116.4 808.45 118.95 757.1 122.3 752.75 122.55 Q749.8 121.0 746.4 121.0 L734.25 123.75 733.85 124.1 Q704.85 126.5 675.8 130.15 662.6 131.55 650.65 137.1 648.9 137.9 647.85 138.85 L646.75 137.5 Q650.5 133.6 655.65 131.85 667.65 128.25 680.1 126.85 L733.0 121.5 757.1 119.6 787.9 117.55 843.4 114.7 871.95 113.65 M-39.0 337.2 L-39.0 327.45 Q-19.05 321.4 -0.2 312.55 24.7 300.75 51.6 295.4 69.5 291.95 89.7 289.25 104.9 287.2 118.35 279.9 120.6 278.65 122.0 276.25 133.05 277.55 143.7 274.55 148.9 273.1 154.35 272.15 187.5 268.9 220.05 275.75 L250.35 281.8 Q255.8 282.5 260.7 281.25 267.15 287.8 276.3 287.25 L299.8 284.3 Q306.8 283.85 314.1 285.8 325.3 288.75 335.6 292.65 348.3 297.4 361.7 296.65 L376.25 294.95 Q391.35 294.2 405.9 296.4 426.3 299.4 446.75 300.15 L460.1 300.6 Q471.25 300.4 482.35 298.4 488.15 297.45 493.6 295.6 L499.5 293.25 502.1 292.45 Q503.9 291.75 505.9 291.35 526.4 286.85 547.45 289.2 L550.65 289.6 Q577.75 293.15 604.9 294.05 614.65 294.6 624.05 292.4 634.05 289.95 643.9 286.25 655.9 281.9 669.0 280.9 682.4 279.45 694.0 272.45 701.8 267.75 703.95 259.45 L703.85 269.35 Q701.6 277.65 694.2 282.3 687.3 286.85 679.2 288.75 671.0 290.45 662.4 291.4 653.7 292.25 645.6 295.45 618.45 306.7 589.2 303.1 L580.75 301.95 Q559.75 299.2 538.7 298.55 530.7 298.2 522.65 298.2 512.05 298.2 502.15 302.3 L499.0 303.55 Q490.15 306.8 480.9 308.55 470.55 310.5 460.1 310.5 L446.75 309.65 Q423.6 308.25 401.1 305.6 L381.95 303.35 373.65 304.95 Q357.85 308.5 342.55 304.5 332.45 301.9 321.9 297.75 305.4 291.45 287.85 295.55 278.8 297.8 269.75 295.95 264.4 294.8 260.7 290.85 245.75 291.95 230.8 288.2 214.35 284.0 198.6 282.3 L189.6 281.05 Q166.6 278.95 143.65 283.7 L133.15 285.9 Q127.9 286.6 122.0 285.85 119.05 290.8 113.5 292.55 98.1 297.15 83.0 299.5 63.95 302.6 42.85 306.8 38.45 307.75 33.3 309.35 9.55 316.8 -12.15 327.15 -25.35 333.25 -39.0 337.2 M581.1 175.9 Q585.1 167.85 593.85 164.9 613.65 158.5 633.85 155.0 642.95 153.8 650.15 148.8 651.1 148.15 651.25 147.05 L651.25 149.75 Q649.25 154.0 644.35 155.2 635.45 157.7 626.4 159.3 608.55 162.25 591.85 168.75 585.25 171.4 581.55 177.3 L581.1 175.9" fill="#bddce2" fill-rule="evenodd" stroke="none"/>
    <path d="M871.95 110.35 L871.95 113.65 843.4 114.7 787.9 117.55 757.1 119.6 733.0 121.5 680.1 126.85 Q667.65 128.25 655.65 131.85 650.5 133.6 646.75 137.5 645.5 133.85 649.15 131.85 659.7 126.15 671.65 124.75 698.3 120.95 725.45 118.95 L757.1 116.35 780.95 114.6 838.1 111.55 871.95 110.35 M-39.0 327.45 L-39.0 321.2 Q-22.45 316.4 -6.9 309.1 14.0 299.2 35.7 292.55 41.85 290.8 48.45 289.65 79.95 285.3 111.4 277.3 118.2 275.5 122.0 269.8 L126.4 270.25 138.1 268.3 154.35 265.7 Q178.35 262.95 201.95 266.6 213.65 268.15 224.5 270.9 242.55 275.7 260.7 274.85 269.6 282.9 281.75 280.3 292.25 278.1 303.85 277.95 317.05 279.1 329.1 284.4 345.2 291.15 362.05 290.65 L371.45 288.85 Q377.6 287.2 384.1 287.45 L403.6 289.85 Q425.1 292.4 446.75 293.6 L460.1 294.4 Q473.0 294.45 485.65 291.55 491.35 290.05 496.8 288.0 L500.75 286.4 Q509.7 282.45 519.45 282.1 529.9 281.8 540.25 282.1 558.25 282.7 576.3 285.2 L585.0 286.45 Q604.7 288.95 624.0 285.4 633.25 283.6 642.0 280.25 655.45 275.15 670.15 274.05 L675.35 273.05 Q681.5 271.95 687.35 269.6 698.85 265.2 703.6 254.25 L703.95 259.45 Q701.8 267.75 694.0 272.45 682.4 279.45 669.0 280.9 655.9 281.9 643.9 286.25 634.05 289.95 624.05 292.4 614.65 294.6 604.9 294.05 577.75 293.15 550.65 289.6 L547.45 289.2 Q526.4 286.85 505.9 291.35 503.9 291.75 502.1 292.45 L499.5 293.25 493.6 295.6 Q488.15 297.45 482.35 298.4 471.25 300.4 460.1 300.6 L446.75 300.15 Q426.3 299.4 405.9 296.4 391.35 294.2 376.25 294.95 L361.7 296.65 Q348.3 297.4 335.6 292.65 325.3 288.75 314.1 285.8 306.8 283.85 299.8 284.3 L276.3 287.25 Q267.15 287.8 260.7 281.25 255.8 282.5 250.35 281.8 L220.05 275.75 Q187.5 268.9 154.35 272.15 148.9 273.1 143.7 274.55 133.05 277.55 122.0 276.25 120.6 278.65 118.35 279.9 104.9 287.2 89.7 289.25 69.5 291.95 51.6 295.4 24.7 300.75 -0.2 312.55 -19.05 321.4 -39.0 327.45 M651.25 143.75 L651.25 147.05 Q651.1 148.15 650.15 148.8 642.95 153.8 633.85 155.0 613.65 158.5 593.85 164.9 585.1 167.85 581.1 175.9 580.45 170.25 585.1 166.75 592.55 161.3 601.8 158.95 620.05 154.5 638.5 150.7 643.2 149.75 647.6 147.8 650.65 146.65 651.25 143.75 M731.4 130.05 Q743.85 132.8 755.8 129.15 L756.3 128.9 Q756.9 130.1 756.6 131.35 756.4 132.6 755.2 132.8 746.25 135.25 737.05 134.25 733.6 134.4 730.85 132.85 L731.4 130.05" fill="#91bfc9" fill-rule="evenodd" stroke="none"/>
    <path d="M871.95 121.6 L873.95 468.5 Q361.7 515.75 -39.0 468.65 L-39.0 357.95 Q-37.6 356.0 -36.55 353.85 -22.25 349.75 -8.45 343.9 -4.3 342.0 -1.3 339.95 8.25 333.95 18.55 329.35 41.4 319.2 65.75 313.45 90.5 307.5 115.15 305.3 126.95 303.8 136.65 296.6 L147.85 297.2 176.75 296.2 Q219.9 294.55 261.85 305.0 264.05 305.4 266.05 306.4 275.9 311.25 287.1 311.3 L308.9 309.35 Q319.15 309.05 328.1 313.1 349.75 322.65 373.35 320.7 383.95 320.45 393.35 315.25 416.6 322.8 441.05 324.65 L446.75 325.05 460.1 325.55 Q480.4 325.8 500.65 322.9 L503.7 322.3 Q507.9 320.5 511.9 318.0 513.45 317.05 515.3 316.7 525.85 314.35 536.9 315.3 558.8 317.25 580.55 320.3 L588.5 321.45 Q608.1 322.9 626.7 317.0 L665.05 304.0 Q672.8 301.4 680.6 299.75 693.8 297.35 701.7 286.2 L703.45 283.4 Q704.2 282.1 704.15 280.8 L703.85 269.35 703.95 259.45 703.6 254.25 Q705.35 243.05 694.8 237.95 684.1 232.9 672.4 230.1 L648.75 225.3 Q638.4 223.0 629.0 217.75 621.05 213.3 612.25 211.0 602.0 208.2 591.65 207.2 L582.7 180.75 Q585.3 177.0 591.8 174.0 599.65 170.25 616.05 166.75 L640.2 161.55 Q651.25 158.55 651.25 155.0 L651.25 149.75 651.25 147.05 651.25 143.75 650.75 142.2 Q662.8 136.85 675.8 135.5 703.35 131.9 731.0 129.7 L731.4 130.05 730.85 132.85 Q733.6 134.4 737.05 134.25 746.25 135.25 755.2 132.8 756.4 132.6 756.6 131.35 756.9 130.1 756.3 128.9 L756.75 127.65 757.1 127.55 809.9 124.15 864.4 121.75 871.95 121.6" fill="#ecf9fd" fill-rule="evenodd" stroke="none"/>
    <path d="M708.75 81.2 L713.0 79.5 Q714.95 81.7 717.35 82.8 L718.35 83.1 720.7 80.2 724.95 80.55 Q733.7 88.45 744.05 94.3 L740.55 94.85 Q738.05 93.05 734.9 94.25 L733.9 94.5 731.9 93.85 Q729.85 95.3 727.45 94.9 L726.45 95.05 724.9 97.8 718.3 97.7 714.2 94.85 717.6 93.85 Q717.95 92.65 716.8 91.95 L715.1 90.85 717.0 90.5 716.9 89.95 712.55 84.6 707.45 90.65 707.25 91.25 708.85 91.65 Q708.45 92.05 707.75 92.3 705.85 92.75 705.95 94.45 L709.75 94.65 706.85 97.85 697.9 98.0 Q694.25 94.5 689.95 95.05 L688.05 98.1 628.8 99.2 625.7 92.35 622.1 95.85 620.85 94.5 623.25 93.5 619.7 87.85 Q615.9 89.5 614.05 92.55 L615.35 93.5 611.85 95.7 609.8 93.75 Q610.1 92.95 611.85 92.5 L613.25 91.85 609.15 89.5 611.45 89.05 Q610.3 85.8 607.35 83.2 L607.15 83.0 599.8 88.95 602.8 90.05 600.35 91.95 603.0 92.85 599.4 95.9 594.45 95.85 Q593.35 94.7 591.3 94.5 L589.65 94.85 Q588.3 91.1 584.0 91.15 L582.05 91.5 Q579.85 89.35 576.25 90.85 574.85 91.35 573.55 92.55 571.6 94.1 569.0 94.95 566.8 93.95 564.25 94.35 L562.95 94.5 Q561.05 88.95 555.85 91.15 L555.25 91.35 Q551.0 87.95 546.6 91.1 544.7 92.5 542.65 92.95 540.15 93.25 538.35 95.05 537.35 91.5 533.7 92.3 534.35 87.05 529.15 87.45 L528.05 87.45 Q527.55 84.7 524.45 84.1 521.75 83.4 519.25 84.95 517.25 86.25 516.6 88.5 L499.5 88.5 499.5 73.2 499.5 71.55 502.5 72.65 Q529.55 83.35 558.45 85.35 L565.35 86.0 Q577.35 87.85 588.85 84.9 L596.0 82.8 Q607.5 79.3 616.55 71.65 623.25 66.1 631.45 65.0 639.75 64.25 647.1 68.05 662.3 75.65 677.95 82.75 687.35 87.05 697.7 86.35 L699.6 85.7 Q703.4 83.55 708.75 81.2" fill="#c5c9d0" fill-rule="evenodd" stroke="none"/>
    <path d="M758.15 96.5 L757.9 96.25 757.1 96.05 755.75 95.85 759.15 90.35 Q759.85 93.05 761.65 95.35 L762.75 96.2 765.45 93.35 765.95 94.75 Q767.3 95.9 769.1 95.45 770.3 95.3 771.2 94.35 772.0 96.7 774.2 96.1 775.1 95.8 776.1 94.95 777.15 96.1 778.55 96.2 L781.35 95.5 784.25 98.2 757.1 98.1 758.15 96.5 M613.45 96.25 L617.9 93.5 615.7 92.3 619.35 89.7 621.45 92.3 620.7 92.95 619.55 93.7 620.7 96.05 618.1 97.0 613.45 96.25 M226.65 100.25 L225.65 101.4 230.15 104.2 226.55 105.45 226.65 106.45 221.85 106.35 222.65 104.95 Q221.0 103.7 219.45 103.85 L222.25 101.3 222.0 100.2 224.3 98.5 226.65 100.25 M213.45 101.3 Q212.45 101.8 212.3 102.05 L214.95 104.2 Q213.7 104.85 213.3 105.75 L213.7 106.0 209.5 105.85 Q208.9 104.45 207.25 104.85 L206.45 104.85 Q209.05 103.9 210.15 101.5 209.55 100.4 208.05 101.1 L210.95 98.85 213.45 101.3 M195.55 103.65 L198.6 101.2 200.15 102.45 Q199.3 102.7 199.3 103.25 L201.4 105.55 196.35 105.4 197.15 104.2 196.95 103.5 195.55 103.65" fill="#4b8945" fill-rule="evenodd" stroke="none"/>
    <path d="M499.5 55.75 L515.9 55.75 Q541.75 68.05 570.4 69.25 577.45 69.35 583.45 65.7 590.5 61.65 597.75 58.25 602.5 55.95 607.7 54.55 L607.9 59.1 Q610.1 59.6 611.85 58.5 L615.35 55.3 620.6 60.1 Q622.0 60.1 622.45 58.8 L624.0 55.5 624.3 54.95 Q627.5 55.05 631.15 56.25 633.65 57.15 636.0 58.45 L666.25 76.4 Q674.8 81.55 685.05 80.15 691.55 79.7 697.9 77.7 L705.75 78.6 705.4 81.4 708.75 81.2 Q703.4 83.55 699.6 85.7 L697.7 86.35 Q687.35 87.05 677.95 82.75 662.3 75.65 647.1 68.05 639.75 64.25 631.45 65.0 623.25 66.1 616.55 71.65 607.5 79.3 596.0 82.8 L588.85 84.9 Q577.35 87.85 565.35 86.0 L558.45 85.35 Q529.55 83.35 502.5 72.65 L499.5 71.55 499.5 55.75 M-45.0 61.55 L-45.0 46.75 Q-10.7 36.7 12.8 31.65 70.0 19.45 127.7 19.45 223.6 19.45 318.55 45.4 349.2 53.85 378.15 64.65 387.5 68.15 400.1 73.2 L390.75 73.2 Q378.2 75.05 365.9 75.15 L364.9 75.15 360.75 70.15 361.25 68.55 Q359.85 65.2 357.35 62.7 356.45 61.9 355.3 62.4 351.2 64.2 350.3 68.6 L344.9 73.0 346.8 73.85 335.95 72.65 326.9 70.65 Q315.15 64.7 307.2 61.85 288.3 55.1 252.6 55.1 L209.95 56.85 Q189.95 56.85 169.3 51.3 L151.6 45.4 Q125.1 37.8 112.45 37.8 L109.45 38.05 Q76.8 40.35 55.5 43.95 35.5 48.0 19.3 50.45 L-21.2 57.9 -45.0 61.55 M499.5 105.35 L499.5 108.65 392.25 108.65 371.85 109.05 371.85 104.65 371.85 101.1 Q375.05 99.65 375.25 96.05 L375.35 95.45 370.6 92.35 370.4 91.7 371.95 91.3 372.4 90.35 367.05 82.8 Q379.15 83.2 390.1 82.95 L444.65 79.4 446.75 79.35 Q453.45 79.0 460.1 79.55 L461.4 79.6 Q480.7 81.1 499.5 88.5 L499.5 92.5 499.5 102.05 499.5 105.35 M342.05 80.95 L342.8 82.6 343.55 83.5 338.35 88.5 Q337.85 88.75 337.55 89.35 L337.45 89.75 341.95 90.15 338.85 93.5 337.85 94.15 334.2 91.75 334.45 90.1 Q333.5 88.65 332.25 87.55 330.8 86.25 329.9 84.9 329.65 84.35 329.0 83.9 326.65 84.6 325.85 87.45 L324.9 89.15 Q324.05 90.05 324.35 91.45 321.95 93.35 320.15 95.7 L318.9 97.25 318.9 97.45 320.75 97.4 Q319.3 98.6 318.35 99.9 317.3 101.45 318.65 102.9 L315.35 106.55 313.6 104.0 Q313.3 103.25 314.35 102.1 L315.15 100.5 313.15 96.6 315.55 95.5 Q315.0 94.55 313.9 93.85 L312.75 93.05 312.2 92.45 312.35 91.75 310.7 89.65 310.1 89.55 308.2 87.65 Q306.2 87.65 304.65 89.15 303.35 90.55 302.6 92.25 L302.8 92.9 Q301.05 93.9 299.6 95.65 298.6 97.0 299.4 97.25 297.1 98.1 296.7 100.45 296.5 101.8 297.6 102.45 L295.5 104.85 Q247.95 100.2 203.1 83.6 L186.5 77.75 186.25 77.6 Q207.85 72.4 228.75 69.95 257.3 67.0 284.9 72.05 312.75 77.1 342.05 80.95" fill="#e3e7ee" fill-rule="evenodd" stroke="none"/>
    <path d="M689.3 101.65 L688.55 101.05 Q689.05 99.1 690.45 97.2 L690.95 96.5 694.7 98.45 689.3 101.65" fill="#878684" fill-rule="evenodd" stroke="none"/>
    <path d="M714.55 89.5 L713.35 90.25 Q713.15 91.55 714.6 92.3 L715.55 93.05 712.3 94.5 715.4 97.8 708.55 97.85 Q711.25 96.1 711.6 93.5 L708.35 93.5 Q710.65 92.55 711.75 90.45 711.45 89.85 710.95 90.05 L709.35 90.15 Q711.45 89.05 712.3 86.9 713.1 86.75 714.0 88.65 L714.55 89.5 M603.15 94.65 L605.9 91.85 Q605.3 90.85 604.2 91.15 L602.5 91.5 605.5 89.3 604.8 88.95 602.55 88.85 607.0 84.8 609.35 88.05 607.35 89.3 610.8 91.85 607.7 93.05 609.75 95.7 603.15 94.65 M621.2 97.45 Q623.45 97.4 624.7 95.65 L625.25 94.85 626.3 98.25 621.2 97.45 M42.2 93.55 L42.05 92.85 37.8 93.05 43.75 87.7 39.45 87.5 43.65 82.95 Q45.25 85.1 47.95 86.25 L49.05 86.75 47.0 88.7 48.95 89.9 46.2 91.85 46.35 92.55 42.2 93.55" fill="#60745b" fill-rule="evenodd" stroke="none"/>
    <path d="M694.7 98.45 L697.2 100.05 697.3 101.05 689.85 102.0 689.3 101.65 694.7 98.45" fill="#505050" fill-rule="evenodd" stroke="none"/>
    <path d="M-39.0 319.1 L-39.0 314.5 Q-15.1 305.1 9.0 294.55 14.8 292.05 20.2 290.4 45.75 281.7 72.65 277.95 90.0 276.1 107.05 271.25 113.0 269.55 117.95 265.55 120.4 263.55 120.6 260.25 L121.6 260.35 122.45 262.95 Q131.2 264.1 140.05 261.9 145.85 260.25 150.9 259.4 179.6 255.25 207.65 260.75 231.75 265.55 256.05 267.15 L259.4 267.5 Q261.0 267.35 262.15 268.35 L262.15 269.15 Q272.55 276.1 284.7 273.05 303.45 268.4 321.65 274.55 327.8 276.65 336.55 279.9 353.95 286.2 371.95 281.8 385.15 278.75 398.35 281.25 422.6 285.8 446.75 286.85 L460.1 287.3 Q478.65 286.9 496.3 280.2 L497.95 279.65 500.2 278.75 Q508.45 275.7 517.25 274.85 L531.75 273.85 Q551.85 273.15 571.6 276.75 L582.95 278.35 Q605.6 281.85 627.85 277.15 632.8 276.25 637.6 274.65 657.2 267.6 677.75 265.2 689.25 263.9 696.05 254.65 698.25 251.75 699.3 248.0 699.85 246.25 700.45 246.85 703.45 253.8 697.65 259.55 691.45 265.55 683.3 267.95 672.6 271.1 661.45 272.45 652.25 273.3 643.7 276.85 632.75 281.3 621.25 283.45 614.95 284.85 608.5 284.8 579.5 284.3 550.8 280.3 L537.35 279.3 514.85 280.4 Q506.1 281.25 498.3 284.65 L497.6 284.9 Q488.15 289.15 478.2 290.85 L464.45 291.75 460.1 291.65 446.75 291.45 Q419.95 290.15 393.25 286.2 L383.0 284.7 Q376.0 284.65 369.5 286.6 366.05 287.7 362.5 288.0 345.1 288.85 328.5 281.7 306.6 272.1 283.65 277.75 279.6 278.85 275.2 278.45 268.05 277.95 262.15 273.85 L262.15 273.05 Q260.85 271.9 259.25 272.55 233.0 270.85 206.9 265.55 180.45 260.2 153.6 263.6 141.7 265.4 131.3 267.5 L122.45 267.75 121.6 265.0 120.6 264.95 Q119.55 271.7 112.6 273.95 L105.65 276.05 Q94.3 279.3 83.05 281.4 60.7 285.25 37.65 290.0 26.85 292.2 16.15 296.6 L-37.4 318.45 -39.0 319.1 M733.8 126.3 L735.25 126.65 Q745.0 128.65 754.1 125.5 L754.8 127.25 754.3 128.25 Q753.95 128.3 753.7 128.45 742.95 130.25 732.45 128.45 L733.8 126.3 M359.1 67.5 Q360.05 69.05 358.85 70.2 L358.3 70.6 356.9 70.55 355.95 69.35 352.2 69.6 351.4 67.95 354.75 64.45 353.1 66.6 357.05 66.9 357.5 67.85 359.1 67.5 M364.85 80.15 L365.6 80.8 364.7 83.15 356.15 83.95 Q353.9 83.35 351.7 81.6 347.5 83.75 343.85 81.2 L343.85 80.2 347.0 77.7 345.5 80.2 Q351.7 78.35 357.95 80.3 L360.35 80.1 363.65 81.2 364.6 80.75 364.85 80.15 M326.5 88.75 L326.65 89.05 Q329.7 89.05 329.7 89.85 330.85 89.65 331.5 89.15 L333.0 90.5 Q329.9 92.85 326.2 91.3 L325.35 90.75 326.5 88.75 M341.0 94.15 L340.65 96.05 Q344.7 95.15 348.3 96.9 L348.6 98.0 349.4 98.5 Q353.85 99.05 357.55 97.6 L363.45 97.4 Q368.6 99.0 372.0 95.15 L373.6 95.85 Q371.1 101.7 364.3 100.4 358.85 99.3 353.5 101.7 351.6 102.6 349.35 102.0 344.9 101.3 340.45 99.8 L335.85 99.0 341.0 94.15 M335.15 100.7 L332.7 103.85 Q329.85 104.85 327.2 103.1 L324.85 101.5 321.3 102.5 319.15 101.0 320.35 99.9 323.25 100.05 Q323.75 99.8 324.25 100.05 329.5 103.1 335.15 100.7 M623.25 253.0 L624.1 254.65 Q609.2 250.8 594.6 246.1 574.9 239.7 554.3 240.45 529.5 241.9 506.85 252.35 L502.3 250.7 Q481.25 245.0 460.1 247.5 453.4 248.3 446.75 250.0 L441.7 251.3 Q434.45 253.45 427.3 255.95 407.8 244.85 385.35 243.65 L370.25 242.1 377.0 239.15 390.1 238.45 386.3 236.65 410.8 231.7 Q397.1 222.65 380.45 221.15 366.1 219.25 352.5 218.6 332.1 217.4 312.5 222.0 L312.0 221.6 313.3 220.35 311.9 220.25 317.9 218.2 Q325.45 217.25 331.6 212.65 331.9 212.4 331.85 211.85 331.0 207.2 326.05 206.2 299.95 200.3 273.1 199.95 L256.0 199.85 268.15 198.25 499.5 198.25 Q547.3 214.65 576.25 223.35 614.75 234.95 619.75 232.95 626.6 231.35 629.95 231.8 L634.55 232.1 Q619.75 234.3 610.8 246.1 L615.9 248.8 616.65 249.3 617.3 249.7 623.25 253.0 M313.3 99.5 L313.8 100.25 313.9 101.1 Q310.75 103.8 306.25 102.45 304.15 101.6 301.05 101.7 298.95 101.85 297.65 100.6 L298.2 99.7 Q299.0 100.3 301.6 100.3 312.3 100.7 309.9 101.1 311.8 101.1 313.3 99.5 M310.9 91.15 Q311.4 92.35 310.5 92.25 L304.35 92.7 303.85 92.25 304.8 91.3 310.9 91.15" fill="#bbc2c8" fill-rule="evenodd" stroke="none"/>
    <path d="M609.75 95.7 L610.7 96.4 Q607.7 96.2 607.7 97.4 607.7 97.9 609.6 99.5 L606.4 99.6 605.35 98.2 Q603.7 96.85 601.4 96.3 L603.15 94.65 609.75 95.7 M626.3 98.25 L626.65 99.2 621.1 99.3 619.9 97.5 621.2 97.45 626.3 98.25 M59.1 95.5 L61.85 98.9 48.4 98.4 51.95 95.5 59.1 95.5" fill="#52634e" fill-rule="evenodd" stroke="none"/>
    <path d="M618.1 97.0 L619.7 99.3 611.7 99.45 609.55 97.85 Q613.25 97.6 613.25 97.0 L612.75 96.6 613.45 96.25 618.1 97.0 M221.85 106.35 L226.65 106.45 229.2 109.4 220.45 109.2 219.85 108.8 221.85 106.35 M213.7 106.0 L217.65 108.95 207.15 108.65 209.5 105.85 213.7 106.0 M196.35 105.4 L201.4 105.55 204.4 108.55 194.4 108.05 196.35 105.4" fill="#073d01" fill-rule="evenodd" stroke="none"/>
    <path d="M499.5 21.55 L499.5 55.75 499.5 71.55 499.5 73.2 415.55 73.2 Q388.35 61.8 378.15 57.95 349.2 47.15 318.55 38.75 245.45 18.75 172.05 14.15 177.1 11.3 178.7 5.35 185.2 8.7 192.35 11.5 200.15 14.55 208.95 16.55 218.05 18.65 225.65 17.05 233.2 15.3 235.7 10.7 L248.5 14.25 Q262.45 18.15 275.35 12.95 L288.05 21.5 290.3 22.5 Q298.55 25.05 305.45 20.15 L310.1 21.3 319.3 23.2 Q328.3 24.6 334.9 18.3 L345.35 21.25 Q354.35 23.65 362.55 20.05 366.6 22.4 371.4 23.7 379.2 26.25 385.7 21.55 L499.5 21.55 M-45.0 40.45 L-45.0 37.75 -43.25 36.85 Q-35.8 32.75 -30.6 28.2 -29.2 32.65 -24.25 31.35 -12.55 28.65 -1.9 23.0 3.6 27.45 10.4 24.65 16.2 22.45 21.1 18.55 L21.3 23.25 12.8 25.0 Q-8.65 29.6 -45.0 40.45 M156.15 13.35 Q141.9 12.75 127.7 12.75 L92.8 13.9 128.0 -1.8 Q125.0 5.9 133.15 8.6 143.0 11.9 151.35 5.9 L151.65 7.3 Q152.8 11.0 156.15 13.35 M76.9 15.15 L55.55 17.55 74.4 8.0 74.3 8.35 Q73.25 12.95 76.9 15.15" fill="#afb1c2" fill-rule="evenodd" stroke="none"/>
    <path d="M371.85 101.1 L371.85 104.65 Q368.5 105.6 365.2 104.65 L361.25 104.95 Q356.05 106.8 350.6 107.25 344.75 107.85 340.35 103.9 L335.45 103.85 338.0 101.2 342.6 101.25 Q348.2 106.0 355.3 102.8 359.15 101.05 362.9 102.1 367.65 103.3 371.85 101.1 M361.3 73.45 Q358.5 74.65 356.05 72.85 352.6 73.75 349.7 71.95 L349.3 70.95 350.6 69.8 Q351.5 71.65 353.7 71.35 L354.85 70.95 Q355.65 71.45 357.05 71.8 L359.5 71.6 361.3 73.45 M343.85 85.55 L345.2 84.1 351.55 83.7 Q355.65 86.95 360.35 85.55 363.25 84.75 365.6 84.7 L367.6 87.25 361.85 86.85 Q360.9 87.85 359.55 88.25 355.25 89.05 351.8 85.95 L343.85 85.55" fill="#386834" fill-rule="evenodd" stroke="none"/>
    <path d="M371.85 104.65 L371.85 109.05 329.3 109.85 335.45 103.85 340.35 103.9 Q344.75 107.85 350.6 107.25 356.05 106.8 361.25 104.95 L365.2 104.65 Q368.5 105.6 371.85 104.65 M349.3 70.95 L349.7 71.95 Q352.6 73.75 356.05 72.85 358.5 74.65 361.3 73.45 L363.1 75.25 360.05 74.45 357.35 76.65 356.65 74.85 Q356.25 74.05 355.45 73.85 L350.55 75.8 350.0 72.55 347.9 72.0 349.3 70.95 M367.6 87.25 L369.7 89.85 367.6 89.7 Q365.85 89.7 364.5 90.7 L364.6 92.95 359.25 90.95 356.1 93.75 354.15 91.5 Q353.35 90.85 352.35 90.3 L347.55 92.15 346.9 88.5 Q345.2 87.85 343.65 88.05 L340.55 88.5 343.85 85.55 351.8 85.95 Q355.25 89.05 359.55 88.25 360.9 87.85 361.85 86.85 L367.6 87.25" fill="#568652" fill-rule="evenodd" stroke="none"/>
    <path d="M325.15 95.05 L324.45 94.9 322.85 94.45 324.9 92.55 Q328.9 94.7 333.2 92.7 L335.2 93.85 Q332.7 95.05 329.25 95.25 L329.2 95.15 329.2 95.25 325.15 95.05 M317.5 106.85 L320.05 103.65 322.65 103.85 324.65 103.2 325.55 104.4 330.85 105.55 328.25 108.35 322.85 106.35 317.5 106.85" fill="#4a6a48" fill-rule="evenodd" stroke="none"/>
    <path d="M329.2 95.25 L325.5 97.85 325.15 95.05 329.2 95.25 M324.45 94.9 L320.85 96.05 322.85 94.45 324.45 94.9 M335.2 93.85 L336.8 94.75 Q335.65 95.5 335.2 96.3 L334.3 96.2 Q333.45 95.15 333.0 95.15 331.85 95.15 331.5 96.1 L330.7 97.85 Q329.9 95.5 329.25 95.25 332.7 95.05 335.2 93.85 M328.25 108.35 L326.7 109.85 314.7 110.0 317.5 106.85 322.85 106.35 328.25 108.35" fill="#699365" fill-rule="evenodd" stroke="none"/>
    <path d="M312.4 94.55 L313.95 95.15 310.6 96.2 310.1 97.65 307.8 96.5 305.25 97.9 Q304.6 95.1 301.75 95.85 L300.45 96.2 302.2 94.85 312.4 94.55 M296.4 105.85 Q300.95 105.25 305.0 106.85 309.2 108.55 313.7 106.6 L314.5 107.45 312.6 109.6 Q301.85 110.35 292.05 110.05 L296.4 105.85" fill="#889b87" fill-rule="evenodd" stroke="none"/>
    <path d="M302.2 94.85 Q303.25 94.25 304.0 94.15 L311.15 93.3 312.4 94.55 302.2 94.85 M296.4 105.85 L298.75 103.25 311.6 104.05 313.7 106.6 Q309.2 108.55 305.0 106.85 300.95 105.25 296.4 105.85" fill="#5e705c" fill-rule="evenodd" stroke="none"/>
    <path d="M-45.0 92.7 L-45.0 77.15 Q-21.0 71.25 2.45 67.1 29.7 62.1 57.5 60.5 85.8 59.3 113.25 65.0 140.9 70.8 167.7 80.1 194.05 89.45 221.65 96.7 L219.05 98.8 214.5 98.9 210.9 95.1 206.95 97.2 Q206.2 96.3 204.9 95.45 202.1 93.9 198.4 92.5 195.05 94.15 191.65 93.05 L189.45 94.45 Q185.8 92.95 183.25 95.9 179.8 94.05 175.75 94.85 L168.2 91.85 165.6 92.95 160.9 91.9 154.75 96.6 153.6 97.9 150.25 97.85 Q149.8 96.25 148.1 95.65 L145.7 94.3 Q145.6 93.1 144.6 92.55 143.1 91.7 141.05 91.85 139.45 90.05 137.15 89.65 L134.15 89.75 Q130.9 89.35 128.4 91.15 L123.8 91.35 121.8 93.15 117.25 92.95 116.2 91.85 Q114.75 90.75 112.8 91.65 L112.1 90.65 Q110.65 88.9 108.05 89.15 L106.9 88.1 106.05 87.9 Q105.65 87.95 105.25 88.25 104.05 89.05 102.65 89.15 L101.3 88.7 Q98.9 88.75 96.55 90.1 L95.2 89.5 93.4 90.3 90.2 88.5 87.9 89.35 Q84.35 87.25 80.8 90.15 80.05 89.65 78.95 89.7 77.25 89.95 76.25 91.5 72.45 91.65 69.4 93.25 65.55 95.35 61.5 96.25 L59.7 94.3 65.05 93.15 61.05 88.3 64.5 87.5 Q64.7 86.0 63.9 85.15 L63.1 83.7 Q62.3 80.6 60.05 78.8 L49.85 85.3 43.45 81.15 37.45 87.9 37.7 88.65 41.0 88.85 Q38.05 90.55 35.65 93.55 L35.7 94.15 40.25 94.05 37.5 97.4 -45.0 92.7 M230.2 99.1 L270.05 110.0 250.55 109.25 Q250.35 108.25 249.95 107.6 247.15 102.9 241.9 104.8 L240.9 103.65 Q238.35 101.7 235.15 103.2 L234.2 101.3 Q231.55 100.45 228.95 101.85 L228.0 101.2 230.6 100.6 230.85 99.9 230.2 99.1" fill="#d3e3ef" fill-rule="evenodd" stroke="none"/>
    <path d="M226.65 100.25 L224.3 98.5 222.0 100.2 219.5 100.05 224.4 96.0 Q226.6 97.1 229.0 99.7 L226.65 100.25 M208.05 101.1 L206.5 101.2 210.75 96.3 214.1 100.7 213.45 101.3 210.95 98.85 208.05 101.1 M200.15 102.45 L198.6 101.2 195.55 103.65 192.75 103.85 198.1 97.65 201.95 102.05 200.15 102.45" fill="#77b173" fill-rule="evenodd" stroke="none"/>
    <path d="M51.95 95.5 L54.7 92.85 53.8 92.35 Q52.15 91.5 50.4 91.55 L55.7 86.55 52.7 85.35 59.75 80.7 62.9 86.65 59.75 87.3 Q59.1 88.65 60.65 90.35 L62.55 92.65 57.7 93.55 59.1 95.5 51.95 95.5" fill="#95ab94" fill-rule="evenodd" stroke="none"/>
    <path d="M46.35 92.55 L51.9 93.65 45.75 98.2 39.25 97.7 42.2 93.55 46.35 92.55" fill="#1d2f17" fill-rule="evenodd" stroke="none"/>
  </g>
  <defs>
    <linearGradient gradientTransform="matrix(0.0, -0.0684, 0.4492, 0.0, 412.45, 48.5)" gradientUnits="userSpaceOnUse" id="gradient0" spreadMethod="pad" x1="-819.2" x2="819.2">
      <stop offset="0.0" stop-color="#81cdfa"/>
      <stop offset="0.5254901960784314" stop-color="#0280cd"/>
      <stop offset="1.0" stop-color="#0052af"/>
    </linearGradient>
  </defs>
</svg>
