<?xml version="1.0" encoding="UTF-8" standalone="no"?>
<svg xmlns:xlink="http://www.w3.org/1999/xlink" height="34.1px" width="78.3px" xmlns="http://www.w3.org/2000/svg">
  <g transform="matrix(1.0, 0.0, 0.0, 1.0, 40.25, 17.1)">
    <path d="M17.2 -14.95 L15.95 -13.95 18.05 -13.5 Q22.25 -13.5 23.25 -15.15 L23.1 -15.25 Q22.95 -14.7 22.3 -14.7 21.3 -14.7 21.3 -15.45 L21.35 -15.8 19.35 -15.8 Q18.5 -15.8 17.2 -14.95 M16.2 -15.75 Q18.2 -17.1 21.4 -17.1 23.0 -17.1 23.8 -16.6 L27.3 -17.1 Q32.8 -17.1 34.2 -16.2 L37.15 -15.75 Q38.25 -15.7 38.0 -14.0 35.75 -6.95 33.4 -6.9 32.85 -5.45 31.55 -3.65 29.75 -1.2 27.05 1.0 23.8 8.4 20.7 8.4 19.9 8.4 18.45 7.2 L17.65 6.45 Q6.15 11.25 -10.8 11.25 L-19.05 11.3 -19.55 11.05 Q-21.8 12.45 -25.4 14.25 -30.9 17.0 -31.8 17.0 -32.85 17.0 -32.55 16.05 -32.55 15.4 -30.15 11.45 L-27.75 7.15 Q-27.75 6.7 -34.0 5.2 -40.25 3.7 -40.25 2.5 -40.25 0.8 -32.55 0.65 L-22.5 0.45 Q-21.6 0.25 -16.85 -2.1 L-9.95 -4.9 -6.9 -6.05 -9.15 -6.15 -9.6 -6.05 Q-10.55 -6.05 -10.35 -6.65 -10.35 -7.65 -1.35 -9.95 6.25 -11.9 9.2 -12.15 L10.15 -12.65 Q13.75 -14.5 14.95 -14.65 L16.2 -15.75 M16.0 -12.35 L15.15 -12.8 14.95 -12.95 Q13.85 -12.3 11.65 -11.5 L11.3 -11.4 12.45 -10.65 11.55 -10.25 Q10.85 -10.25 10.4 -10.75 L10.25 -11.05 6.75 -9.9 6.15 -10.4 6.7 -10.85 -6.0 -7.15 -4.7 -6.9 -3.5 -7.25 -2.85 -7.2 -2.7 -7.05 -2.7 -6.95 -3.45 -6.3 -3.0 -6.2 -2.6 -5.85 Q-3.4 -5.3 -3.95 -5.3 -4.6 -5.3 -4.75 -5.6 L-4.8 -5.65 -7.2 -4.5 -10.05 -3.25 Q-11.65 -2.55 -12.75 -2.15 L-12.2 -1.85 -12.15 -1.7 -12.2 -1.5 -12.8 -1.35 -13.65 -1.85 -13.8 -1.8 Q-16.6 -1.0 -18.45 0.85 L-20.05 1.45 -20.35 1.5 -27.2 2.25 -29.9 2.3 -31.55 2.3 Q-36.8 2.3 -37.5 2.85 L-37.5 2.9 -35.2 3.35 -34.8 3.45 -34.75 3.45 -29.7 4.6 Q-25.95 5.55 -25.95 7.0 -25.95 8.15 -30.65 15.3 L-30.65 15.35 -24.8 11.75 Q-20.9 9.35 -17.25 9.35 L-18.15 10.1 -15.25 10.0 -15.15 10.0 -11.6 9.8 0.15 9.0 Q4.25 8.75 9.75 7.35 17.8 5.35 24.25 1.1 29.2 -2.2 32.0 -6.5 L33.45 -9.15 33.7 -8.95 33.75 -8.95 Q35.35 -11.0 36.15 -12.45 36.8 -13.7 36.8 -14.5 L36.6 -14.5 33.95 -14.7 Q29.45 -14.7 26.45 -13.0 23.95 -11.05 22.85 -10.7 L22.7 -11.0 Q22.7 -11.9 26.25 -14.2 27.9 -15.25 29.3 -15.75 L28.35 -15.9 24.6 -15.5 24.6 -15.2 Q24.6 -12.05 18.1 -12.05 L16.0 -12.35 M-10.55 -1.05 L-10.7 -1.65 Q-10.7 -2.95 -9.6 -2.7 -9.2 -2.9 -9.2 -2.55 L-9.9 -1.8 -9.9 -1.65 -9.6 -1.5 -9.0 -1.4 -7.1 -1.7 -6.3 -1.65 Q-6.15 -1.75 -6.15 -1.35 -6.9 -0.5 -8.9 -0.5 -10.15 -0.5 -10.55 -1.05 M-6.6 -2.9 Q-6.8 -3.15 -6.6 -3.5 -6.6 -4.0 -5.75 -4.5 L-5.45 -4.5 -5.3 -4.25 -6.05 -3.45 -5.8 -3.25 -4.65 -3.05 -3.6 -2.9 Q-3.75 -2.55 -4.95 -2.55 -6.3 -2.55 -6.6 -2.9 M-3.3 -4.35 L-3.45 -4.7 Q-3.45 -5.4 -2.45 -5.75 L-2.1 -5.7 -2.0 -5.55 -2.7 -5.1 -2.75 -4.85 -2.35 -4.75 -1.05 -4.35 -1.05 -4.25 -2.3 -4.05 Q-3.1 -4.05 -3.3 -4.35 M3.3 -6.85 L3.3 -7.2 3.3 -7.25 Q3.3 -8.95 4.5 -8.45 L4.05 -7.35 4.65 -7.25 4.7 -7.15 5.1 -7.3 6.45 -7.7 8.6 -8.2 8.55 -8.55 Q8.55 -9.05 9.1 -9.45 9.75 -9.9 10.4 -9.75 10.65 -9.95 10.65 -9.6 L9.45 -8.7 9.4 -8.6 10.5 -8.25 10.65 -8.25 10.85 -8.25 11.05 -8.25 12.4 -8.2 14.25 -8.1 Q14.55 -8.0 14.4 -7.5 L13.95 -7.05 12.5 -7.35 Q7.85 -7.35 5.65 -6.5 4.3 -5.65 3.95 -5.55 L7.25 -3.75 Q9.75 -6.45 16.0 -6.45 L18.0 -6.15 17.75 -5.85 17.45 -5.65 17.0 -5.5 15.9 -5.25 15.75 -5.2 11.7 -4.4 7.4 -2.1 Q1.95 -5.3 1.95 -5.6 1.95 -6.0 3.45 -6.65 L3.3 -6.85 M5.75 -9.7 L6.2 -9.75 6.35 -9.75 5.45 -9.15 7.35 -9.05 7.7 -8.85 Q7.3 -8.45 6.0 -8.45 4.65 -8.45 4.85 -9.0 L4.85 -9.1 5.1 -9.45 5.05 -9.45 5.75 -9.7 M33.55 -11.6 L34.1 -11.15 33.3 -10.6 32.75 -10.4 31.05 -10.1 29.65 -10.05 28.55 -10.05 26.2 -9.05 25.35 -8.7 25.05 -8.7 24.95 -8.9 Q24.95 -9.85 27.55 -10.75 30.2 -11.7 33.0 -11.7 L33.55 -11.6 M25.25 2.35 L24.15 3.05 Q21.65 4.65 18.8 5.95 L20.6 6.95 Q22.3 6.95 24.6 3.35 L25.25 2.35 M-3.45 -6.4 L-3.6 -6.3 -3.45 -6.3 -3.6 -6.3 -3.45 -6.4 M-0.15 -8.55 L0.2 -8.3 Q0.0 -7.7 -0.75 -7.5 L-0.95 -7.35 2.4 -7.35 Q1.15 -6.65 -0.95 -6.65 L-1.7 -6.75 -1.65 -6.95 Q-1.5 -7.65 -0.15 -8.55 M-6.0 -7.2 L-6.15 -7.2 -6.0 -7.15 -6.05 -7.2 -6.0 -7.15 -6.15 -7.2 -6.0 -7.2 M-21.65 4.5 L-26.1 3.9 -22.35 3.8 Q-18.5 3.8 -18.5 4.6 -18.5 5.05 -20.65 6.95 -22.95 9.0 -23.85 9.0 -24.7 9.0 -24.6 8.3 -24.6 7.35 -22.75 6.2 L-23.7 6.2 -24.45 5.85 Q-24.3 5.5 -22.4 4.75 L-21.65 4.5" fill="#000000" fill-rule="evenodd" stroke="none"/>
    <path d="M17.2 -14.95 Q18.5 -15.8 19.35 -15.8 L21.35 -15.8 21.3 -15.45 Q21.3 -14.7 22.3 -14.7 22.95 -14.7 23.1 -15.25 L23.25 -15.15 Q22.25 -13.5 18.05 -13.5 L15.95 -13.95 17.2 -14.95" fill="#ffffff" fill-rule="evenodd" stroke="none"/>
    <path d="M36.15 -12.45 Q35.35 -11.0 33.75 -8.95 L33.7 -8.95 33.45 -9.15 32.0 -6.5 Q29.2 -2.2 24.25 1.1 17.8 5.35 9.75 7.35 4.25 8.75 0.15 9.0 L-11.6 9.8 -15.15 10.0 -15.25 10.0 Q-13.85 8.85 -10.7 7.55 L-9.95 7.55 -2.55 7.25 Q8.45 7.25 23.55 -0.2 25.95 -1.1 29.7 -5.85 L31.2 -7.85 31.35 -8.85 26.2 -9.05 28.55 -10.05 29.65 -10.05 31.05 -10.1 32.75 -10.4 33.3 -10.6 34.1 -11.15 33.55 -11.6 33.65 -11.65 Q35.25 -12.4 36.15 -12.45" fill="#666666" fill-rule="evenodd" stroke="none"/>
    <path d="M-4.75 -5.6 Q-7.95 -4.2 -9.95 -2.9 L-10.05 -3.25 -7.2 -4.5 -4.8 -5.65 -4.75 -5.6 M-34.8 3.45 L-21.65 2.55 -19.85 2.35 Q-17.8 2.2 -14.0 -0.05 L-10.55 -1.05 Q-10.15 -0.5 -8.9 -0.5 -6.9 -0.5 -6.15 -1.35 -6.15 -1.75 -6.3 -1.65 L-7.1 -1.7 -9.0 -1.4 -9.6 -1.5 -6.6 -2.9 Q-6.3 -2.55 -4.95 -2.55 -3.75 -2.55 -3.6 -2.9 L-4.65 -3.05 -5.8 -3.25 -3.3 -4.35 Q-3.1 -4.05 -2.3 -4.05 L-1.05 -4.25 -1.05 -4.35 -2.35 -4.75 3.3 -6.85 3.45 -6.65 Q1.95 -6.0 1.95 -5.6 1.95 -5.3 7.4 -2.1 L11.7 -4.4 15.75 -5.2 15.9 -5.25 17.0 -5.5 17.45 -5.65 17.75 -5.85 18.0 -6.15 16.0 -6.45 Q9.75 -6.45 7.25 -3.75 L3.95 -5.55 Q4.3 -5.65 5.65 -6.5 7.85 -7.35 12.5 -7.35 L13.95 -7.05 14.4 -7.5 Q14.55 -8.0 14.25 -8.1 L12.4 -8.2 12.6 -8.9 Q12.6 -9.5 12.25 -9.7 L14.45 -11.35 15.05 -11.15 Q15.8 -11.15 16.0 -12.35 L18.1 -12.05 Q24.6 -12.05 24.6 -15.2 L24.6 -15.5 28.35 -15.9 29.3 -15.75 Q27.9 -15.25 26.25 -14.2 22.7 -11.9 22.7 -11.0 L22.85 -10.7 Q23.95 -11.05 26.45 -13.0 29.45 -14.7 33.95 -14.7 L36.6 -14.5 36.8 -14.5 Q36.8 -13.7 36.15 -12.45 35.25 -12.4 33.65 -11.65 L33.55 -11.6 33.0 -11.7 Q30.2 -11.7 27.55 -10.75 24.95 -9.85 24.95 -8.9 L25.05 -8.7 25.35 -8.7 26.2 -9.05 31.35 -8.85 31.2 -7.85 29.7 -5.85 Q25.95 -1.1 23.55 -0.2 8.45 7.25 -2.55 7.25 L-9.95 7.55 -10.7 7.55 Q-13.85 8.85 -15.25 10.0 L-18.15 10.1 -17.25 9.35 Q-20.9 9.35 -24.8 11.75 L-30.65 15.35 -30.65 15.3 Q-25.95 8.15 -25.95 7.0 -25.95 5.55 -29.7 4.6 L-34.75 3.45 -34.8 3.45 M4.65 -7.25 L6.45 -7.7 5.1 -7.3 4.7 -7.15 4.65 -7.25 M25.25 2.35 L24.6 3.35 Q22.3 6.95 20.6 6.95 L18.8 5.95 Q21.65 4.65 24.15 3.05 L25.25 2.35 M-21.65 4.5 L-22.4 4.75 Q-24.3 5.5 -24.45 5.85 L-23.7 6.2 -22.75 6.2 Q-24.6 7.35 -24.6 8.3 -24.7 9.0 -23.85 9.0 -22.95 9.0 -20.65 6.95 -18.5 5.05 -18.5 4.6 -18.5 3.8 -22.35 3.8 L-26.1 3.9 -21.65 4.5" fill="#999999" fill-rule="evenodd" stroke="none"/>
    <path d="M-4.75 -5.6 Q-4.6 -5.3 -3.95 -5.3 -3.4 -5.3 -2.6 -5.85 L-3.0 -6.2 -3.45 -6.3 -2.7 -6.95 -2.7 -7.05 -2.85 -7.2 -3.5 -7.25 -4.7 -6.9 -6.0 -7.15 6.7 -10.85 6.15 -10.4 6.75 -9.9 10.25 -11.05 10.4 -10.75 Q10.85 -10.25 11.55 -10.25 L12.45 -10.65 11.3 -11.4 11.65 -11.5 Q13.85 -12.3 14.95 -12.95 L15.15 -12.8 16.0 -12.35 Q15.8 -11.15 15.05 -11.15 L14.45 -11.35 12.25 -9.7 Q12.6 -9.5 12.6 -8.9 L12.4 -8.2 11.05 -8.25 10.85 -8.25 10.65 -8.25 10.5 -8.25 9.4 -8.6 9.45 -8.7 10.65 -9.6 Q10.65 -9.95 10.4 -9.75 9.75 -9.9 9.1 -9.45 8.55 -9.05 8.55 -8.55 L8.6 -8.2 6.45 -7.7 4.65 -7.25 4.05 -7.35 4.5 -8.45 Q3.3 -8.95 3.3 -7.25 L3.3 -7.2 3.3 -6.85 -2.35 -4.75 -2.75 -4.85 -2.7 -5.1 -2.0 -5.55 -2.1 -5.7 -2.45 -5.75 Q-3.45 -5.4 -3.45 -4.7 L-3.3 -4.35 -5.8 -3.25 -6.05 -3.45 -5.3 -4.25 -5.45 -4.5 -5.75 -4.5 Q-6.6 -4.0 -6.6 -3.5 -6.8 -3.15 -6.6 -2.9 L-9.6 -1.5 -9.9 -1.65 -9.9 -1.8 -9.2 -2.55 Q-9.2 -2.9 -9.6 -2.7 -10.7 -2.95 -10.7 -1.65 L-10.55 -1.05 -14.0 -0.05 Q-17.8 2.2 -19.85 2.35 L-21.65 2.55 -34.8 3.45 -35.2 3.35 -37.5 2.9 -37.5 2.85 Q-36.8 2.3 -31.55 2.3 L-29.9 2.3 -27.2 2.25 -20.35 1.5 -20.05 1.45 -18.45 0.85 Q-16.6 -1.0 -13.8 -1.8 L-13.65 -1.85 -12.8 -1.35 -12.2 -1.5 -12.15 -1.7 -12.2 -1.85 -12.75 -2.15 Q-11.65 -2.55 -10.05 -3.25 L-9.95 -2.9 Q-7.95 -4.2 -4.75 -5.6 M5.75 -9.7 L5.05 -9.45 5.1 -9.45 4.85 -9.1 4.85 -9.0 Q4.65 -8.45 6.0 -8.45 7.3 -8.45 7.7 -8.85 L7.35 -9.05 5.45 -9.15 6.35 -9.75 6.2 -9.75 5.75 -9.7 M-0.15 -8.55 Q-1.5 -7.65 -1.65 -6.95 L-1.7 -6.75 -0.95 -6.65 Q1.15 -6.65 2.4 -7.35 L-0.95 -7.35 -0.75 -7.5 Q0.0 -7.7 0.2 -8.3 L-0.15 -8.55" fill="#cccccc" fill-rule="evenodd" stroke="none"/>
  </g>
</svg>
