<?xml version="1.0" encoding="UTF-8" standalone="no"?>
<svg xmlns:xlink="http://www.w3.org/1999/xlink" height="56.8px" width="33.7px" xmlns="http://www.w3.org/2000/svg">
  <g transform="matrix(1.0, 0.0, 0.0, 1.0, 16.9, 28.45)">
    <path d="M1.25 -25.45 L5.0 -26.4 4.25 -26.25 7.2 -26.35 Q8.05 -26.55 8.4 -26.0 9.05 -24.9 9.95 -24.15 L9.95 -24.0 6.85 -14.35 6.6 -14.8 6.5 -14.7 6.5 -13.9 6.55 -13.65 6.55 -13.6 6.65 -8.4 6.6 -8.45 6.35 -8.4 6.1 -8.25 5.95 -8.1 5.95 -7.95 6.0 -7.9 Q8.9 2.05 6.4 11.6 4.9 20.2 -1.95 25.75 -2.75 23.55 -3.85 21.4 L-4.05 20.95 Q-5.05 13.8 -10.15 8.25 -14.95 -1.25 -6.05 -8.45 L-6.1 -8.45 -6.05 -8.5 -5.0 -8.75 -5.05 -8.85 -6.7 -9.05 -7.0 -8.95 Q-9.45 -8.5 -10.15 -10.65 -5.75 -11.95 -1.55 -11.95 -3.2 -16.4 -7.0 -17.75 -8.4 -19.9 1.25 -25.45 M12.65 -13.4 Q11.35 -9.9 9.35 -7.9 L8.4 -11.2 9.2 -12.2 Q11.0 -12.35 12.65 -13.4 M5.6 -23.25 L7.3 -23.5 7.4 -23.6 7.3 -23.65 4.9 -23.8 Q4.6 -23.65 4.85 -23.15 L5.3 -22.8 6.7 -22.85 6.6 -22.95 5.6 -23.2 5.6 -23.25 M1.65 -19.4 L1.55 -19.4 0.2 -18.8 0.1 -18.6 0.05 -18.2 0.1 -18.1 Q1.5 -18.3 1.65 -19.4 M5.9 -21.65 L5.8 -21.7 2.95 -22.0 1.75 -21.8 Q1.35 -21.8 1.4 -21.45 1.3 -21.15 1.55 -21.05 2.8 -20.3 4.2 -20.85 L4.15 -20.95 2.75 -21.2 5.9 -21.65 M5.7 -18.9 L5.6 -18.95 4.1 -19.25 4.0 -19.15 3.75 -19.0 Q3.35 -18.75 3.4 -18.35 L3.4 -18.2 Q3.45 -17.65 4.15 -17.8 L5.0 -18.1 4.25 -18.45 4.25 -18.55 5.55 -18.8 5.7 -18.9 M4.85 -16.4 L5.6 -16.25 6.9 -16.4 6.8 -16.5 4.1 -16.85 3.9 -16.6 Q3.9 -16.3 4.25 -16.25 L5.25 -16.0 4.8 -16.25 4.85 -16.4 M3.8 -13.85 Q1.45 -14.7 1.1 -14.9 L1.6 -15.35 1.15 -15.4 0.5 -15.2 -0.05 -15.4 -0.15 -15.25 -0.2 -14.8 0.2 -14.7 -0.45 -14.85 0.45 -14.3 3.8 -13.85 M-3.8 3.4 L-3.8 4.15 Q1.0 6.8 5.05 3.6 L5.15 3.15 Q5.25 2.3 4.8 1.65 4.85 -0.35 3.9 -1.9 3.0 -3.85 -0.25 -3.4 L-0.65 -3.35 Q-1.0 -3.35 -1.2 -3.05 L-1.3 -2.75 Q-2.8 -1.75 -3.1 -0.05 L-3.15 0.1 Q-3.85 1.6 -3.95 3.35 L-3.8 3.4 M-2.9 -21.15 Q-3.15 -20.9 -3.0 -20.55 -1.8 -19.95 -0.55 -20.25 L-0.65 -20.35 -2.2 -20.85 -2.2 -20.9 Q-1.0 -21.1 -0.75 -21.65 L-2.5 -21.55 -2.9 -21.15" fill="#ffcc33" fill-rule="evenodd" stroke="none"/>
    <path d="M5.0 -26.4 L1.25 -25.45 -0.35 -24.9 Q-4.65 -22.35 -8.25 -18.75 L-10.25 -17.4 Q-9.4 -16.7 -8.3 -16.45 L-7.8 -16.25 -7.95 -16.15 Q-9.4 -16.25 -10.7 -16.8 L-11.05 -17.0 -15.55 -17.4 -15.65 -17.4 -15.55 -17.25 -13.9 -15.1 -12.25 -14.35 -12.2 -14.4 -11.95 -14.45 -11.8 -14.15 -8.85 -13.25 Q-7.5 -12.95 -6.5 -12.15 L-6.4 -11.95 Q-9.35 -11.7 -11.85 -12.8 -12.1 -12.15 -12.7 -11.4 -14.25 -9.4 -14.8 -6.95 L-14.75 -6.5 -14.75 -6.2 -14.95 -4.65 -14.2 -5.75 Q-11.55 -7.35 -8.65 -8.4 L-7.0 -8.95 -6.7 -9.05 -5.05 -8.85 -5.0 -8.75 -6.05 -8.5 -6.1 -8.45 Q-9.4 -7.55 -12.2 -5.4 -12.75 -5.0 -13.35 -4.75 -14.3 -3.15 -14.9 -1.4 -15.8 1.2 -14.75 3.75 L-14.75 4.05 -14.8 4.2 Q-13.4 9.3 -9.85 13.2 L-6.7 16.8 Q-8.05 13.1 -10.05 9.7 L-10.3 8.75 Q-11.0 8.25 -11.05 7.55 L-10.85 7.5 -10.15 8.25 Q-5.05 13.8 -4.05 20.95 L-3.85 21.4 Q-2.75 23.55 -1.95 25.75 L-1.8 26.25 Q5.95 20.05 8.5 10.15 9.65 5.7 9.5 0.95 9.4 -1.45 8.6 -3.6 L8.45 -3.7 8.35 -4.2 Q7.5 -6.15 6.0 -7.9 L5.95 -7.95 5.95 -8.1 6.1 -8.25 6.35 -8.4 6.6 -8.45 6.65 -8.4 7.95 -7.4 7.2 -11.1 7.05 -11.6 7.0 -12.8 6.55 -13.6 6.55 -13.65 6.5 -13.9 6.5 -14.7 6.6 -14.8 6.85 -14.35 7.85 -12.6 10.15 -24.0 10.15 -24.1 10.35 -25.3 10.35 -25.35 10.7 -24.05 14.15 -23.45 Q10.15 -27.9 4.45 -27.4 L2.9 -26.7 4.3 -26.95 Q5.25 -27.25 5.65 -26.65 L5.75 -26.5 5.0 -26.4 M9.95 -24.0 L9.95 -24.15 10.25 -25.05 Q9.95 -24.15 10.15 -24.1 L10.1 -24.05 9.95 -24.0 M6.55 -13.6 L6.85 -14.35 6.55 -13.6 M2.75 -27.65 L4.9 -28.45 Q13.05 -28.55 16.8 -21.65 L16.8 -21.5 Q15.15 -20.85 13.05 -21.9 L11.2 -22.6 10.85 -22.65 Q11.05 -20.55 10.55 -18.2 L9.75 -14.35 13.8 -16.15 14.9 -16.2 15.15 -16.05 Q14.45 -9.8 9.9 -4.85 10.95 -2.9 11.05 -0.35 11.35 10.6 5.9 20.05 3.2 24.8 -1.1 28.25 L-2.3 28.35 -2.9 28.15 -3.0 28.0 -3.0 27.85 -3.05 27.55 -3.05 27.25 -4.55 23.95 -4.95 23.55 -5.05 22.9 Q-8.45 16.3 -13.6 10.55 -15.45 8.4 -16.3 5.65 -17.6 1.35 -16.05 -2.5 -16.75 -6.15 -15.25 -9.75 L-15.0 -10.65 -13.1 -13.4 Q-14.6 -14.3 -15.95 -15.7 -17.5 -17.4 -16.4 -18.65 -13.55 -18.9 -10.95 -17.95 L-10.55 -18.6 -10.1 -18.85 Q-4.75 -25.2 3.25 -27.8 L2.75 -27.65 M9.35 -7.9 L9.5 -6.6 Q12.05 -9.8 13.25 -13.8 L12.65 -13.4 Q11.0 -12.35 9.2 -12.2 L8.4 -11.2 9.35 -7.9 M5.6 -23.2 L6.6 -22.95 6.7 -22.85 5.3 -22.8 4.85 -23.15 Q4.6 -23.65 4.9 -23.8 L7.3 -23.65 7.4 -23.6 7.3 -23.5 5.6 -23.25 5.5 -23.25 5.6 -23.2 M5.7 -18.9 L5.55 -18.8 4.25 -18.55 4.25 -18.45 5.0 -18.1 4.15 -17.8 Q3.45 -17.65 3.4 -18.2 L3.4 -18.35 Q3.35 -18.75 3.75 -19.0 L4.0 -19.15 4.1 -19.25 5.6 -18.95 5.7 -18.9 M5.9 -21.65 L2.75 -21.2 4.15 -20.95 4.2 -20.85 Q2.8 -20.3 1.55 -21.05 1.3 -21.15 1.4 -21.45 1.35 -21.8 1.75 -21.8 L2.95 -22.0 5.8 -21.7 5.9 -21.65 M1.65 -19.4 Q1.5 -18.3 0.1 -18.1 L0.05 -18.2 0.1 -18.6 0.2 -18.8 1.55 -19.4 1.65 -19.4 M4.8 -16.25 L5.25 -16.0 4.25 -16.25 Q3.9 -16.3 3.9 -16.6 L4.1 -16.85 6.8 -16.5 6.9 -16.4 5.6 -16.25 4.85 -16.4 4.35 -16.4 4.8 -16.25 M3.8 -13.85 L1.65 -14.4 1.45 -14.4 3.8 -13.85 0.45 -14.3 -0.45 -14.85 0.2 -14.7 -0.2 -14.8 -0.15 -15.25 -0.05 -15.4 0.5 -15.2 1.15 -15.4 1.6 -15.35 1.1 -14.9 Q1.45 -14.7 3.8 -13.85 M0.35 -1.85 Q0.8 -1.85 1.15 -1.5 L1.45 -0.75 1.15 0.05 0.35 0.35 Q-0.1 0.35 -0.4 0.05 -0.75 -0.3 -0.75 -0.75 -0.75 -1.2 -0.4 -1.5 -0.1 -1.85 0.35 -1.85 M2.65 -1.35 Q1.85 -2.1 0.75 -2.1 -0.35 -2.1 -1.1 -1.35 -1.9 -0.6 -1.9 0.5 -1.9 1.6 -1.1 2.35 -0.35 3.1 0.75 3.1 1.85 3.1 2.65 2.35 3.4 1.6 3.4 0.5 3.4 -0.6 2.65 -1.35 M4.05 1.65 Q3.25 4.2 -0.45 3.8 -2.0 3.6 -2.7 2.7 L-2.95 2.2 -3.8 3.35 -3.8 3.4 -3.95 3.35 Q-3.85 1.6 -3.15 0.1 L-3.1 -0.05 Q-2.8 -1.75 -1.3 -2.75 L-1.2 -3.05 Q-1.0 -3.35 -0.65 -3.35 L-0.25 -3.4 Q3.0 -3.85 3.9 -1.9 4.85 -0.35 4.8 1.65 L4.8 1.7 4.75 1.8 Q4.4 2.0 4.1 1.65 L4.1 1.45 4.05 1.65 M-2.9 -21.15 L-2.5 -21.55 -0.75 -21.65 Q-1.0 -21.1 -2.2 -20.9 L-2.2 -20.85 -0.65 -20.35 -0.55 -20.25 Q-1.8 -19.95 -3.0 -20.55 -3.15 -20.9 -2.9 -21.15 M-7.95 -14.15 Q-9.1 -14.1 -10.35 -14.65 L-10.4 -14.75 -10.15 -14.85 -9.55 -14.95 Q-10.55 -15.35 -11.4 -16.2 L-11.25 -16.2 -7.4 -14.7 -7.3 -14.6 -8.4 -14.6 -7.95 -14.25 -7.95 -14.15" fill="#000000" fill-rule="evenodd" stroke="none"/>
    <path d="M9.95 -24.15 Q9.05 -24.9 8.4 -26.0 8.05 -26.55 7.2 -26.35 L4.25 -26.25 5.0 -26.4 5.75 -26.5 5.65 -26.65 Q5.25 -27.25 4.3 -26.95 L2.9 -26.7 4.45 -27.4 Q10.15 -27.9 14.15 -23.45 L10.7 -24.05 10.35 -25.35 10.25 -25.05 9.95 -24.15 M10.15 -24.1 L10.15 -24.0 10.1 -24.05 10.15 -24.1" fill="#ffdd44" fill-rule="evenodd" stroke="none"/>
    <path d="M-1.95 25.75 Q4.9 20.2 6.4 11.6 8.9 2.05 6.0 -7.9 7.5 -6.15 8.35 -4.2 L8.45 -3.7 8.6 -3.6 Q9.4 -1.45 9.5 0.95 9.65 5.7 8.5 10.15 5.95 20.05 -1.8 26.25 L-1.95 25.75 M6.65 -8.4 L6.55 -13.6 7.0 -12.8 7.05 -11.6 7.2 -11.1 7.95 -7.4 6.65 -8.4 M6.85 -14.35 L9.95 -24.0 10.1 -24.05 10.15 -24.0 7.85 -12.6 6.85 -14.35 M12.65 -13.4 L13.25 -13.8 Q12.05 -9.8 9.5 -6.6 L9.35 -7.9 Q11.35 -9.9 12.65 -13.4" fill="#ffda6d" fill-rule="evenodd" stroke="none"/>
    <path d="M2.65 -1.35 Q3.4 -0.6 3.4 0.5 3.4 1.6 2.65 2.35 1.85 3.1 0.75 3.1 -0.35 3.1 -1.1 2.35 -1.9 1.6 -1.9 0.5 -1.9 -0.6 -1.1 -1.35 -0.35 -2.1 0.75 -2.1 1.85 -2.1 2.65 -1.35 M0.35 -1.85 Q-0.1 -1.85 -0.4 -1.5 -0.75 -1.2 -0.75 -0.75 -0.75 -0.3 -0.4 0.05 -0.1 0.35 0.35 0.35 L1.15 0.05 1.45 -0.75 1.15 -1.5 Q0.8 -1.85 0.35 -1.85" fill="#ffffff" fill-rule="evenodd" stroke="none"/>
    <path d="M4.05 1.65 L4.1 1.65 Q4.4 2.0 4.75 1.8 L4.8 1.7 4.8 1.65 Q5.25 2.3 5.15 3.15 L5.05 3.6 Q1.0 6.8 -3.8 4.15 L-3.8 3.4 -3.8 3.35 -2.95 2.2 -2.7 2.7 Q-2.0 3.6 -0.45 3.8 3.25 4.2 4.05 1.65" fill="#ff9933" fill-rule="evenodd" stroke="none"/>
    <path d="M1.25 -25.45 Q-8.4 -19.9 -7.0 -17.75 -3.2 -16.4 -1.55 -11.95 -5.75 -11.95 -10.15 -10.65 -9.45 -8.5 -7.0 -8.95 L-8.65 -8.4 Q-11.55 -7.35 -14.2 -5.75 L-14.95 -4.65 -14.75 -6.2 -14.75 -6.5 -14.8 -6.95 Q-14.25 -9.4 -12.7 -11.4 -12.1 -12.15 -11.85 -12.8 -9.35 -11.7 -6.4 -11.95 L-6.5 -12.15 Q-7.5 -12.95 -8.85 -13.25 L-11.8 -14.15 -11.95 -14.45 -12.2 -14.4 -12.25 -14.35 -13.9 -15.1 -15.55 -17.25 -15.55 -17.4 -11.05 -17.0 -10.7 -16.8 Q-9.4 -16.25 -7.95 -16.15 L-7.8 -16.25 -8.3 -16.45 Q-9.4 -16.7 -10.25 -17.4 L-8.25 -18.75 Q-4.65 -22.35 -0.35 -24.9 L1.25 -25.45 M-6.1 -8.45 L-6.05 -8.45 Q-14.95 -1.25 -10.15 8.25 L-10.85 7.5 -11.05 7.55 Q-11.0 8.25 -10.3 8.75 L-10.05 9.7 Q-8.05 13.1 -6.7 16.8 L-9.85 13.2 Q-13.4 9.3 -14.8 4.2 L-14.75 4.05 -14.75 3.75 Q-15.8 1.2 -14.9 -1.4 -14.3 -3.15 -13.35 -4.75 -12.75 -5.0 -12.2 -5.4 -9.4 -7.55 -6.1 -8.45 M-7.95 -14.15 L-7.95 -14.25 -8.4 -14.6 -7.3 -14.6 -7.4 -14.7 -11.25 -16.2 -11.4 -16.2 Q-10.55 -15.35 -9.55 -14.95 L-10.15 -14.85 -10.4 -14.75 -10.35 -14.65 Q-9.1 -14.1 -7.95 -14.15" fill="#ecb20a" fill-rule="evenodd" stroke="none"/>
    <path d="M6.55 -13.65 L6.5 -13.9 M9.95 -24.0 L9.95 -24.15 M6.85 -14.35 L6.55 -13.6" fill="none" stroke="#000000" stroke-linecap="round" stroke-linejoin="miter-clip" stroke-miterlimit="3.0" stroke-width="0.1"/>
  </g>
</svg>
