<?xml version="1.0" encoding="UTF-8" standalone="no"?>
<svg xmlns:xlink="http://www.w3.org/1999/xlink" height="54.0px" width="33.45px" xmlns="http://www.w3.org/2000/svg">
  <g transform="matrix(1.0, 0.0, 0.0, 1.0, 16.5, 27.45)">
    <path d="M13.1 -25.9 Q16.95 -24.2 16.95 -23.0 16.95 -22.5 16.1 -22.5 L10.25 -23.05 Q9.55 -19.75 9.5 -16.35 L11.25 -17.4 11.85 -18.55 Q12.25 -19.35 12.9 -19.35 14.2 -19.35 14.9 -15.0 15.3 -12.9 15.3 -10.8 15.3 -8.25 14.1 -5.4 12.75 -2.25 10.6 -1.3 10.95 0.35 10.95 2.45 10.95 7.65 9.05 12.3 5.55 21.0 3.25 21.7 L3.3 23.35 Q3.3 24.9 2.85 25.4 1.85 26.55 -1.75 26.55 -7.4 26.55 -7.4 24.55 L-6.9 23.55 -6.75 23.4 Q-8.5 22.5 -10.85 19.35 -13.45 15.85 -14.25 13.8 L-16.25 8.3 -16.5 3.75 Q-16.5 -1.8 -14.2 -5.4 L-14.25 -5.9 Q-14.0 -8.3 -13.45 -9.05 L-14.75 -9.4 Q-16.25 -9.9 -16.25 -10.1 L-15.5 -11.95 Q-14.75 -13.5 -14.4 -13.5 L-12.35 -13.05 -12.3 -13.05 Q-12.35 -14.4 -7.55 -19.05 -2.75 -23.75 2.1 -25.25 L-0.5 -26.25 Q-0.5 -27.4 6.9 -27.45 9.25 -27.55 13.1 -25.9 M9.8 -24.3 L9.9 -24.75 Q10.35 -24.35 10.35 -23.75 L14.45 -23.9 Q10.55 -26.25 3.6 -26.25 L2.0 -26.15 3.35 -25.75 3.65 -25.8 4.25 -25.8 4.35 -25.35 4.2 -25.15 Q3.45 -24.55 -0.25 -22.45 -4.9 -19.85 -7.35 -16.9 -9.85 -14.0 -11.2 -12.8 L-11.15 -12.75 -8.4 -11.75 -9.65 -11.4 Q-11.45 -11.4 -13.8 -12.45 -14.45 -12.45 -14.9 -10.65 L-9.35 -9.7 -9.2 -9.8 Q-9.0 -10.0 -9.0 -9.65 L-9.0 -9.6 -12.0 -5.3 Q-15.0 -0.9 -15.0 3.65 -15.0 8.9 -12.35 14.0 L-12.3 14.1 -8.75 19.35 -5.5 22.85 -5.25 21.1 Q-5.25 19.2 -5.65 17.25 L-6.2 15.2 -6.4 14.5 Q-7.15 12.5 -8.25 10.5 L-8.15 10.5 Q-6.15 12.35 -5.15 14.85 -4.05 17.55 -4.05 21.05 L-4.05 21.65 Q-4.1 22.65 -4.3 23.2 -4.55 23.75 -4.95 23.75 L-5.4 23.6 -5.55 23.7 -6.1 23.65 -6.1 23.6 -6.15 23.85 Q-4.65 24.9 -2.85 24.9 0.55 24.9 1.35 24.3 L1.55 23.6 1.5 21.8 Q1.25 18.65 0.05 15.95 -1.25 12.9 -4.95 7.85 L-4.4 7.85 Q-1.6 7.85 1.8 15.45 2.6 17.45 3.0 19.55 L5.9 14.45 Q9.65 7.5 9.65 0.6 L9.05 -4.0 9.15 -4.55 9.3 -4.55 9.5 -4.25 10.25 -2.5 11.8 -4.75 Q13.95 -7.9 13.95 -10.8 L13.9 -12.05 12.8 -17.45 Q10.9 -15.4 9.4 -15.2 9.3 -15.0 9.0 -14.9 8.3 -15.4 8.3 -16.1 8.3 -18.2 8.85 -20.75 L8.45 -21.3 7.55 -21.45 7.35 -21.45 Q7.1 -21.85 7.75 -22.05 L8.7 -22.2 9.1 -21.95 9.8 -24.3 M7.3 -20.75 Q7.7 -20.55 7.95 -19.8 L7.95 -19.7 7.7 -19.65 7.2 -20.3 7.15 -20.3 5.5 -20.25 5.4 -20.25 7.3 -20.75 M6.65 -18.75 L7.1 -18.9 Q8.2 -18.9 8.1 -17.7 L8.0 -17.4 Q8.1 -17.15 7.7 -17.15 L7.05 -17.9 6.2 -17.3 5.4 -17.4 Q5.0 -17.8 5.6 -18.2 L6.65 -18.75 M6.05 -16.8 Q6.6 -16.6 6.35 -15.95 L6.3 -15.2 Q6.45 -15.05 6.05 -15.05 L5.55 -15.15 5.3 -15.95 3.95 -15.85 2.45 -15.1 2.4 -15.7 Q3.85 -17.15 6.05 -16.8 M7.5 -0.35 L7.75 -0.15 Q8.55 0.55 8.55 1.8 8.55 3.55 7.4 4.3 L6.8 4.8 Q5.45 5.85 4.0 5.85 1.35 5.85 0.35 4.95 L-0.6 3.45 -0.5 3.3 Q1.05 5.0 3.15 5.0 L4.65 4.8 Q0.6 4.7 0.6 2.25 0.6 0.75 1.4 -0.05 L2.2 -0.5 7.5 -0.35 M-2.6 -9.3 L-6.75 -9.25 -7.35 -8.85 -7.6 -9.0 -7.95 -9.35 -7.5 -9.8 -6.95 -10.0 -5.9 -10.15 -2.4 -10.2 1.4 -9.75 2.05 -9.6 3.15 -8.9 3.8 -8.3 -2.6 -9.3 M-2.25 -10.65 L-5.55 -10.55 -4.5 -10.95 -2.2 -10.85 -0.85 -10.7 -2.25 -10.65 M2.5 -20.05 L1.5 -20.75 1.5 -20.95 Q1.5 -21.3 2.25 -21.3 2.9 -21.3 3.15 -20.95 L3.2 -20.1 2.5 -20.05 M3.65 -21.65 Q3.75 -22.25 4.35 -22.5 L6.1 -22.4 6.2 -21.7 6.1 -21.6 5.7 -22.0 4.1 -21.45 3.65 -21.65 M7.9 -23.2 L6.3 -23.4 7.15 -23.8 7.8 -23.25 7.9 -23.2 M4.9 -19.85 L5.2 -19.65 5.25 -19.6 5.4 -19.3 Q5.6 -18.55 5.0 -18.9 L4.2 -19.4 4.05 -19.5 Q3.55 -19.4 3.2 -19.1 2.4 -18.5 2.05 -18.7 L2.05 -18.95 Q3.05 -20.45 4.9 -19.85 M5.5 3.4 Q7.55 3.05 7.4 1.8 7.4 1.25 6.65 0.6 5.8 -0.15 4.5 -0.15 1.35 -0.15 1.65 2.15 1.65 3.4 3.85 3.45 L3.65 2.8 Q3.65 1.85 4.95 1.85 5.9 1.85 5.9 2.55 L5.5 3.4 M-10.9 -8.8 L-10.85 -8.85 -10.95 -8.85 -10.9 -8.8" fill="#000000" fill-rule="evenodd" stroke="none"/>
    <path d="M9.8 -24.3 Q9.4 -25.25 7.2 -25.35 L4.2 -25.15 4.35 -25.35 4.25 -25.8 3.65 -25.8 3.35 -25.75 2.0 -26.15 3.6 -26.25 Q10.55 -26.25 14.45 -23.9 L10.35 -23.75 Q10.35 -24.35 9.9 -24.75 L9.8 -24.3 M-12.35 14.0 Q-9.95 16.35 -8.15 16.35 -7.3 16.35 -6.75 15.1 L-6.45 14.5 -6.2 15.2 -5.65 17.25 Q-5.25 19.2 -5.25 21.1 L-5.5 22.85 -8.75 19.35 -12.3 14.1 -12.35 14.0 M-5.15 14.85 L-5.35 14.3 -5.15 14.6 -5.15 14.85 M-4.05 21.65 Q-3.35 22.4 -2.1 22.4 0.05 22.4 1.5 21.8 L1.55 23.6 1.35 24.3 Q0.55 24.9 -2.85 24.9 -4.65 24.9 -6.15 23.85 L-6.1 23.6 -6.1 23.65 -5.55 23.7 -5.4 23.6 -4.95 23.75 Q-4.55 23.75 -4.3 23.2 -4.1 22.65 -4.05 21.65 M9.5 -4.25 Q12.1 -6.5 12.9 -8.75 L13.9 -12.05 13.95 -10.8 Q13.95 -7.9 11.8 -4.75 L10.25 -2.5 9.5 -4.25" fill="#666666" fill-rule="evenodd" stroke="none"/>
    <path d="M4.2 -25.15 L7.2 -25.35 Q9.4 -25.25 9.8 -24.3 L9.1 -21.95 8.7 -22.2 7.75 -22.05 7.9 -23.2 8.05 -24.4 7.65 -24.55 Q5.8 -24.2 4.35 -22.5 3.75 -22.25 3.65 -21.65 L3.15 -20.95 Q2.9 -21.3 2.25 -21.3 1.5 -21.3 1.5 -20.95 L1.5 -20.75 2.5 -20.05 -2.2 -10.85 -4.5 -10.95 -5.55 -10.55 -2.25 -10.65 -2.4 -10.2 -5.9 -10.15 -6.95 -10.0 -7.5 -9.8 -7.95 -9.35 -7.6 -9.0 -7.35 -8.85 -6.75 -9.25 -2.6 -9.3 Q-3.0 -5.95 -1.35 -3.0 L-1.65 -2.55 -4.35 -1.3 -6.8 0.4 -0.5 -0.25 1.4 -0.05 Q0.6 0.75 0.6 2.25 0.6 4.7 4.65 4.8 L3.15 5.0 Q1.05 5.0 -0.5 3.3 L-0.6 3.45 0.35 4.95 Q1.35 5.85 4.0 5.85 5.45 5.85 6.8 4.8 L7.4 4.3 Q8.55 3.55 8.55 1.8 8.55 0.55 7.75 -0.15 L7.5 -0.35 7.65 -0.35 4.55 -2.9 Q5.55 -4.9 5.8 -7.15 L6.05 -15.05 Q6.45 -15.05 6.3 -15.2 L6.35 -15.95 Q6.6 -16.6 6.05 -16.8 L6.2 -17.3 7.05 -17.9 7.7 -17.15 Q8.1 -17.15 8.0 -17.4 L8.1 -17.7 Q8.2 -18.9 7.1 -18.9 L6.65 -18.75 7.15 -20.3 7.2 -20.3 7.7 -19.65 7.95 -19.7 7.95 -19.8 Q7.7 -20.55 7.3 -20.75 L7.55 -21.45 8.45 -21.3 8.85 -20.75 Q8.3 -18.2 8.3 -16.1 8.3 -15.4 9.0 -14.9 9.3 -15.0 9.4 -15.2 10.9 -15.4 12.8 -17.45 L13.9 -12.05 12.9 -8.75 Q12.1 -6.5 9.5 -4.25 L9.3 -4.55 9.15 -4.55 9.05 -4.0 9.65 0.6 Q9.65 7.5 5.9 14.45 L3.0 19.55 Q2.6 17.45 1.8 15.45 -1.6 7.85 -4.4 7.85 L-4.95 7.85 Q-1.25 12.9 0.05 15.95 1.25 18.65 1.5 21.8 0.05 22.4 -2.1 22.4 -3.35 22.4 -4.05 21.65 L-4.05 21.05 Q-4.05 17.55 -5.15 14.85 -6.15 12.35 -8.15 10.5 L-8.25 10.5 Q-7.15 12.5 -6.4 14.5 L-6.2 15.2 -6.45 14.5 -6.75 15.1 Q-7.3 16.35 -8.15 16.35 -9.95 16.35 -12.35 14.0 -15.0 8.9 -15.0 3.65 -15.0 -0.9 -12.0 -5.3 L-9.0 -9.6 -9.0 -9.65 Q-9.0 -10.0 -9.2 -9.8 L-9.35 -9.7 -14.9 -10.65 Q-14.45 -12.45 -13.8 -12.45 -11.45 -11.4 -9.65 -11.4 L-8.4 -11.75 -11.15 -12.75 -11.2 -12.8 Q-9.85 -14.0 -7.35 -16.9 -4.9 -19.85 -0.25 -22.45 3.45 -24.55 4.2 -25.15 M-5.15 14.85 L-5.15 14.6 -5.35 14.3 -5.15 14.85" fill="#999999" fill-rule="evenodd" stroke="none"/>
    <path d="M7.55 -21.45 L7.3 -20.75 5.4 -20.25 5.5 -20.35 5.6 -21.6 5.1 -20.7 4.9 -19.85 Q3.05 -20.45 2.05 -18.95 L2.05 -18.7 Q2.4 -18.5 3.2 -19.1 3.55 -19.4 4.05 -19.5 L4.2 -19.4 3.15 -17.75 3.8 -17.15 Q4.7 -17.7 5.0 -18.9 5.6 -18.55 5.4 -19.3 L5.25 -19.6 5.5 -20.25 7.15 -20.3 6.65 -18.75 5.6 -18.2 Q5.0 -17.8 5.4 -17.4 L6.2 -17.3 6.05 -16.8 Q3.85 -17.15 2.4 -15.7 L2.45 -15.1 3.95 -15.85 5.3 -15.95 5.55 -15.15 6.05 -15.05 5.8 -7.15 Q5.55 -4.9 4.55 -2.9 L7.65 -0.35 7.5 -0.35 2.2 -0.5 1.4 -0.05 -0.5 -0.25 -6.8 0.4 -4.35 -1.3 -1.65 -2.55 -1.35 -3.0 Q-3.0 -5.95 -2.6 -9.3 L3.8 -8.3 3.15 -8.9 2.05 -9.6 3.15 -13.85 Q2.25 -13.95 1.8 -12.95 1.15 -11.5 0.75 -9.9 L1.4 -9.75 -2.4 -10.2 -2.25 -10.65 -0.85 -10.7 -2.2 -10.85 2.5 -20.05 3.2 -20.1 3.15 -20.95 3.65 -21.65 4.1 -21.45 5.7 -22.0 6.1 -21.6 6.2 -21.7 6.1 -22.4 4.35 -22.5 Q5.8 -24.2 7.65 -24.55 L8.05 -24.4 7.9 -23.2 7.75 -22.05 Q7.1 -21.85 7.35 -21.45 L7.55 -21.45 M7.9 -23.2 L7.8 -23.25 7.15 -23.8 6.3 -23.4 7.9 -23.2" fill="#cccccc" fill-rule="evenodd" stroke="none"/>
    <path d="M5.4 -20.25 L5.5 -20.25 5.25 -19.6 5.2 -19.65 4.9 -19.85 5.1 -20.7 5.6 -21.6 5.5 -20.35 5.4 -20.25 M5.0 -18.9 Q4.7 -17.7 3.8 -17.15 L3.15 -17.75 4.2 -19.4 5.0 -18.9 M1.4 -9.75 L0.75 -9.9 Q1.15 -11.5 1.8 -12.95 2.25 -13.95 3.15 -13.85 L2.05 -9.6 1.4 -9.75 M5.5 3.4 L5.9 2.55 Q5.9 1.85 4.95 1.85 3.65 1.85 3.65 2.8 L3.85 3.45 Q1.65 3.4 1.65 2.15 1.35 -0.15 4.5 -0.15 5.8 -0.15 6.65 0.6 7.4 1.25 7.4 1.8 7.55 3.05 5.5 3.4" fill="#ffffff" fill-rule="evenodd" stroke="none"/>
  </g>
</svg>
