<?xml version="1.0" encoding="UTF-8" standalone="no"?>
<svg xmlns:xlink="http://www.w3.org/1999/xlink" height="35.1px" width="95.45px" xmlns="http://www.w3.org/2000/svg">
  <g transform="matrix(1.0, 0.0, 0.0, 1.0, 47.75, 17.55)">
    <path d="M-0.2 -9.7 L2.25 -7.8 1.7 -7.45 Q0.7 -7.1 1.1 -6.45 L1.85 -6.5 Q2.85 -6.75 2.85 -7.5 L2.75 -7.75 Q1.75 -9.1 -0.1 -9.65 L-0.2 -9.7 21.6 -11.05 22.75 -11.1 25.0 -10.75 26.2 -10.4 25.8 -9.55 25.8 -9.45 Q15.05 -2.95 0.1 3.85 -8.1 7.7 -21.65 9.95 L-26.2 9.75 Q-36.3 10.5 -45.35 14.95 -42.2 1.95 -31.65 -3.05 -32.35 -1.85 -32.5 -0.3 L-32.25 -0.85 -32.2 -0.4 Q-29.0 2.85 -24.45 1.2 L-24.1 1.2 Q-23.7 1.15 -23.5 0.45 L-22.75 -2.05 Q-22.2 -4.65 -24.5 -6.15 L-25.15 -6.15 Q-16.1 -8.4 -6.65 -9.3 L-0.2 -9.7 M8.5 -9.1 L8.45 -9.2 7.15 -9.5 6.6 -8.95 6.65 -8.65 Q6.8 -8.25 6.25 -7.75 L6.15 -7.45 6.55 -7.4 Q8.3 -7.7 8.5 -9.1 M4.4 -4.55 L4.25 -4.5 Q5.4 -4.4 6.55 -3.7 6.3 -3.0 5.6 -2.45 L5.3 -2.1 Q6.0 -1.95 6.7 -2.5 7.3 -2.95 7.1 -3.7 L7.05 -3.85 Q6.0 -4.9 4.4 -4.55 M27.95 -3.35 L26.5 -3.45 27.95 -3.4 27.95 -3.35 M-8.8 -4.1 Q-8.25 -4.0 -7.75 -4.55 -7.25 -5.1 -7.45 -5.7 L-7.5 -5.9 Q-9.2 -7.4 -11.6 -7.4 -12.05 -7.3 -11.7 -7.25 L-9.7 -6.4 -9.75 -6.35 -10.65 -6.6 -10.75 -6.55 Q-10.3 -6.15 -9.55 -5.95 L-9.2 -5.5 -8.95 -5.25 -9.25 -4.9 Q-9.55 -4.55 -9.2 -4.25 L-8.85 -4.1 -8.8 -4.1 M-26.0 -7.45 L-24.65 -8.3 Q-20.4 -10.9 -15.4 -11.45 L-15.6 -9.8 -26.0 -7.45 M-4.1 -6.5 L-4.2 -6.45 Q-3.5 -5.85 -2.5 -5.5 L-2.4 -5.35 -2.15 -4.2 -2.15 -4.1 Q-3.7 -3.85 -3.55 -2.8 -2.45 -2.45 -1.6 -3.25 -1.3 -3.7 -1.4 -4.2 -1.55 -5.1 -2.05 -5.85 L-2.55 -5.95 Q-3.4 -6.1 -4.1 -6.5 M-10.4 -3.25 L-10.6 -3.75 -10.85 -3.95 -12.7 -4.65 -12.8 -4.65 Q-10.9 -4.0 -11.35 -2.6 L-11.15 -2.3 Q-10.35 -1.9 -10.3 -2.6 L-10.3 -2.8 -10.4 -3.25 M-18.35 -6.7 L-18.5 -6.6 -17.35 -5.75 -17.4 -5.55 -18.0 -4.85 -18.0 -4.6 -17.2 -4.65 -17.0 -5.15 -16.9 -6.05 -17.1 -6.25 -18.35 -6.7 M-3.15 -0.6 L-3.35 -0.55 Q-3.8 1.2 -2.35 1.0 L-2.35 0.8 -3.15 -0.6" fill="#ffcc33" fill-rule="evenodd" stroke="none"/>
    <path d="M8.5 -9.1 Q8.3 -7.7 6.55 -7.4 L6.15 -7.45 6.25 -7.75 Q6.8 -8.25 6.65 -8.65 L6.6 -8.95 7.15 -9.5 8.45 -9.2 8.5 -9.1 M-0.2 -9.7 L-0.1 -9.65 Q1.75 -9.1 2.75 -7.75 L2.85 -7.5 Q2.85 -6.75 1.85 -6.5 L1.1 -6.45 Q0.7 -7.1 1.7 -7.45 L2.25 -7.8 -0.2 -9.7 -0.3 -9.75 -0.2 -9.7 M-25.15 -6.15 L-24.5 -6.15 Q-22.2 -4.65 -22.75 -2.05 L-23.5 0.45 Q-23.7 1.15 -24.1 1.2 L-24.45 1.2 -24.35 -0.7 Q-26.05 0.2 -28.1 -0.25 L-29.5 -0.45 -30.2 -1.15 -30.3 -3.45 -32.25 -0.85 -32.5 -0.3 Q-32.35 -1.85 -31.65 -3.05 L-30.7 -4.35 -28.55 -5.9 Q-39.75 -1.95 -45.1 8.7 L-45.1 8.75 Q-46.0 11.3 -46.4 14.05 L-46.5 15.55 -45.35 14.95 Q-36.3 10.5 -26.2 9.75 L-21.65 9.95 -21.1 9.95 Q-27.6 12.2 -34.35 12.95 -37.05 13.25 -39.6 14.0 -26.0 17.35 -11.75 12.95 L-8.25 11.75 Q-5.15 9.5 -4.65 6.45 L-4.1 7.15 -5.2 10.05 -3.95 9.65 -3.95 9.45 -3.85 8.7 -3.65 8.0 -3.5 7.95 Q-2.9 8.85 -2.75 9.8 -2.25 12.25 0.35 12.75 5.45 12.75 10.4 10.8 6.1 8.15 1.55 6.2 L-1.35 5.1 -0.9 4.35 1.55 4.85 Q3.65 5.55 5.8 6.4 L6.2 6.6 5.8 6.35 11.7 2.25 Q16.85 -1.35 21.4 -5.7 22.65 -7.0 24.6 -7.0 L24.65 -7.0 22.15 -3.85 26.5 -3.45 27.95 -3.35 45.4 -2.8 46.4 -3.2 43.2 -5.75 38.75 -5.15 Q35.0 -5.15 31.5 -6.4 L41.15 -6.9 38.45 -8.05 37.1 -7.85 35.7 -7.85 33.05 -8.4 36.7 -8.7 35.75 -9.6 35.85 -10.55 34.0 -10.6 33.1 -10.8 32.2 -11.15 36.45 -11.8 37.7 -12.8 34.65 -12.5 31.65 -11.8 33.4 -13.05 37.2 -14.55 39.25 -14.85 39.4 -15.35 38.55 -16.1 Q32.45 -15.1 26.9 -13.05 L23.15 -11.55 23.9 -11.35 22.75 -11.1 21.6 -11.05 0.5 -10.5 Q-8.35 -10.35 -16.95 -8.6 L-27.45 -6.15 -25.15 -6.15 M4.4 -4.55 Q6.0 -4.9 7.05 -3.85 L7.1 -3.7 Q7.3 -2.95 6.7 -2.5 6.0 -1.95 5.3 -2.1 L5.6 -2.45 Q6.3 -3.0 6.55 -3.7 5.4 -4.4 4.25 -4.5 L4.4 -4.55 M21.1 -2.8 Q18.4 -0.05 15.4 2.25 L7.8 7.55 11.95 9.95 12.15 11.15 11.6 11.9 Q3.95 15.55 -3.25 11.9 L-11.75 14.45 Q-24.0 18.35 -37.0 16.0 -39.25 15.55 -41.05 14.6 L-47.7 17.55 Q-48.25 7.7 -41.0 0.8 -36.7 -3.3 -31.25 -5.85 L-28.9 -6.75 Q-22.6 -12.8 -13.55 -13.15 L-14.35 -10.05 Q1.75 -12.35 18.15 -12.65 23.15 -13.0 27.95 -14.65 33.2 -16.55 38.8 -17.55 L40.6 -16.0 40.65 -14.4 Q37.6 -12.4 37.15 -10.05 43.05 -7.85 47.7 -3.7 L47.65 -2.55 Q39.45 1.95 30.1 -0.8 L21.1 -2.8 M0.75 8.95 Q-1.15 8.6 -2.8 7.25 L-2.7 6.65 -1.5 6.6 1.1 8.85 0.75 8.95 M2.9 7.65 Q0.4 8.05 -1.4 5.95 L-1.45 5.75 0.45 5.9 Q1.95 6.7 2.9 7.65 M-26.95 -4.75 L-29.45 -4.05 -29.1 -1.85 Q-26.45 -1.15 -23.95 -2.2 L-24.4 -4.6 -24.6 -3.6 -25.05 -3.15 Q-25.6 -2.75 -26.3 -2.8 L-26.8 -2.8 -26.9 -4.45 -26.95 -4.75 M-26.0 -7.45 L-15.6 -9.8 -15.4 -11.45 Q-20.4 -10.9 -24.65 -8.3 L-26.0 -7.45 M-9.7 -6.4 L-11.7 -7.25 Q-12.05 -7.3 -11.6 -7.4 -9.2 -7.4 -7.5 -5.9 L-7.45 -5.7 Q-7.25 -5.1 -7.75 -4.55 -8.25 -4.0 -8.8 -4.1 L-8.55 -4.4 -8.85 -4.1 -9.2 -4.25 Q-9.55 -4.55 -9.25 -4.9 L-8.95 -5.25 -9.2 -5.5 -9.55 -5.95 Q-10.3 -6.15 -10.75 -6.55 L-10.65 -6.6 -9.75 -6.35 -9.35 -6.2 -9.7 -6.4 M-18.35 -6.7 L-17.1 -6.25 -16.9 -6.05 -17.0 -5.15 -17.2 -4.65 -18.0 -4.6 -18.0 -4.85 -17.4 -5.55 -17.35 -5.75 -18.5 -6.6 -18.35 -6.7 M-10.4 -3.25 L-10.3 -2.8 -10.3 -2.6 Q-10.35 -1.9 -11.15 -2.3 L-11.35 -2.6 Q-10.9 -4.0 -12.8 -4.65 L-12.7 -4.65 -10.85 -3.95 -10.6 -3.75 -10.4 -3.25 M-4.1 -6.5 Q-3.4 -6.1 -2.55 -5.95 L-2.05 -5.85 Q-1.55 -5.1 -1.4 -4.2 -1.3 -3.7 -1.6 -3.25 -2.45 -2.45 -3.55 -2.8 -3.7 -3.85 -2.15 -4.1 L-2.15 -4.2 -2.4 -5.35 -2.5 -5.5 Q-3.5 -5.85 -4.2 -6.45 L-4.1 -6.5 M-3.15 -0.6 L-2.35 0.8 -2.35 1.0 Q-3.8 1.2 -3.35 -0.55 L-3.15 -0.6" fill="#000000" fill-rule="evenodd" stroke="none"/>
    <path d="M25.8 -9.45 L25.8 -9.55 26.2 -10.4 25.0 -10.75 22.75 -11.1 23.9 -11.35 23.15 -11.55 26.9 -13.05 Q32.45 -15.1 38.55 -16.1 L39.4 -15.35 39.25 -14.85 37.2 -14.55 33.4 -13.05 31.65 -11.8 34.65 -12.5 37.7 -12.8 36.45 -11.8 32.2 -11.15 33.1 -10.8 34.0 -10.6 35.85 -10.55 35.75 -9.6 36.7 -8.7 33.05 -8.4 Q29.5 -8.2 25.8 -9.45" fill="#ffdd44" fill-rule="evenodd" stroke="none"/>
    <path d="M-21.65 9.95 Q-8.1 7.7 0.1 3.85 15.05 -2.95 25.8 -9.45 L25.75 -9.3 25.75 -9.1 25.65 -8.85 25.3 -8.4 25.15 -8.15 25.0 -7.45 24.6 -7.05 24.6 -7.0 Q22.65 -7.0 21.4 -5.7 16.85 -1.35 11.7 2.25 L5.8 6.35 5.8 6.4 Q3.65 5.55 1.55 4.85 L-0.9 4.35 -1.35 5.1 1.55 6.2 Q6.1 8.15 10.4 10.8 5.45 12.75 0.35 12.75 -2.25 12.25 -2.75 9.8 -2.9 8.85 -3.5 7.95 L-3.65 8.0 -3.85 8.7 -3.95 9.45 -3.95 9.65 -5.2 10.05 -4.1 7.15 -4.65 6.45 Q-5.15 9.5 -8.25 11.75 L-11.75 12.95 Q-26.0 17.35 -39.6 14.0 -37.05 13.25 -34.35 12.95 -27.6 12.2 -21.1 9.95 L-21.65 9.95 M0.75 8.95 L1.1 8.85 -1.5 6.6 -2.7 6.65 -2.8 7.25 Q-1.15 8.6 0.75 8.95 M2.9 7.65 Q1.95 6.7 0.45 5.9 L-1.45 5.75 -1.4 5.95 Q0.4 8.05 2.9 7.65" fill="#ecb20a" fill-rule="evenodd" stroke="none"/>
    <path d="M33.05 -8.4 L35.7 -7.85 37.1 -7.85 38.45 -8.05 41.15 -6.9 31.5 -6.4 Q35.0 -5.15 38.75 -5.15 L43.2 -5.75 46.4 -3.2 45.4 -2.8 27.95 -3.35 27.95 -3.4 26.5 -3.45 22.15 -3.85 24.65 -7.0 24.6 -7.05 25.0 -7.45 25.15 -8.15 25.3 -8.4 25.65 -8.85 25.75 -9.1 25.75 -9.3 25.8 -9.45 Q29.5 -8.2 33.05 -8.4" fill="#e0c23b" fill-rule="evenodd" stroke="none"/>
    <path d="M-0.2 -9.7 L-6.65 -9.3 Q-16.1 -8.4 -25.15 -6.15 L-27.45 -6.15 -16.95 -8.6 Q-8.35 -10.35 0.5 -10.5 L21.6 -11.05 -0.2 -9.7 -0.3 -9.75 -0.2 -9.7 M-31.65 -3.05 Q-42.2 1.95 -45.35 14.95 L-46.5 15.55 -46.4 14.05 Q-46.0 11.3 -45.1 8.75 L-45.1 8.7 Q-39.75 -1.95 -28.55 -5.9 L-30.7 -4.35 -31.65 -3.05" fill="#ffda6d" fill-rule="evenodd" stroke="none"/>
    <path d="M-24.45 1.2 Q-29.0 2.85 -32.2 -0.4 L-32.25 -0.85 -30.3 -3.45 -30.2 -1.15 -29.5 -0.45 -28.1 -0.25 Q-26.05 0.2 -24.35 -0.7 L-24.45 1.2" fill="#ff9933" fill-rule="evenodd" stroke="none"/>
    <path d="M-26.95 -4.75 L-26.9 -4.45 -26.8 -2.8 -26.3 -2.8 Q-25.6 -2.75 -25.05 -3.15 L-24.6 -3.6 -24.4 -4.6 -23.95 -2.2 Q-26.45 -1.15 -29.1 -1.85 L-29.45 -4.05 -26.95 -4.75" fill="#ffffff" fill-rule="evenodd" stroke="none"/>
  </g>
</svg>
