<?xml version="1.0" encoding="UTF-8" standalone="no"?>
<svg xmlns:xlink="http://www.w3.org/1999/xlink" height="37.05px" width="96.75px" xmlns="http://www.w3.org/2000/svg">
  <g transform="matrix(1.0, 0.0, 0.0, 1.0, 48.75, 17.85)">
    <path d="M0.3 -11.95 Q0.15 -12.55 0.15 -13.4 L0.15 -13.7 Q-6.35 -12.45 -10.2 -10.95 L-14.95 -9.3 -8.75 -9.95 -8.35 -9.9 -7.25 -9.9 -7.1 -9.75 Q-7.65 -9.2 -11.4 -8.45 L-22.2 -5.95 -22.45 -5.85 -22.7 -5.8 -22.05 -5.25 -21.75 -4.05 Q-21.75 -2.6 -23.15 -1.45 -24.15 -0.65 -25.6 -0.25 L-28.15 0.0 Q-31.5 0.0 -31.55 -2.55 L-31.5 -2.95 -34.5 -1.05 Q-36.65 0.4 -38.65 2.25 -40.7 4.05 -42.95 6.8 L-33.6 6.15 Q-26.2 6.15 -22.65 7.8 L-25.75 7.85 -30.15 7.35 Q-43.9 7.35 -46.55 9.45 -47.1 9.85 -47.25 10.55 L-47.25 11.4 Q-47.25 14.25 -44.8 14.65 L-44.3 14.75 -43.15 15.0 -43.1 15.05 -41.0 14.7 Q-41.0 14.15 -40.5 14.15 L-39.65 14.6 -39.45 14.6 -39.0 14.9 Q-33.35 17.7 -28.4 17.7 -14.45 17.7 -8.7 14.85 L-8.05 14.5 -6.75 13.6 -9.6 13.1 -9.75 13.05 -9.6 12.75 Q-9.4 12.55 -8.9 12.45 L-6.95 12.3 Q-3.15 12.3 3.0 16.05 L6.05 13.5 6.15 13.5 6.1 13.45 Q4.85 12.65 1.75 12.15 L-6.2 11.1 -6.3 10.7 Q-6.3 10.45 -5.7 10.3 L-4.8 10.2 2.15 10.05 4.65 9.25 13.35 4.1 25.1 -4.75 26.4 -5.4 26.4 -5.25 25.35 -4.0 45.9 -2.7 43.8 -3.35 Q33.75 -6.5 33.75 -8.6 33.75 -9.95 37.6 -12.25 42.05 -14.9 42.9 -16.2 29.65 -11.8 24.65 -10.65 L22.1 -10.25 21.85 -10.25 19.35 -9.9 8.45 -10.5 -2.6 -10.0 -2.35 -10.1 -2.95 -10.0 -3.0 -9.95 -3.45 -10.05 -3.5 -10.25 -3.2 -10.65 Q-1.45 -10.75 -0.45 -11.35 L0.45 -11.45 0.3 -11.95 M-22.85 -0.3 L-20.7 -2.4 -20.6 -2.65 -20.1 -4.25 -20.0 -4.5 -19.8 -4.5 Q-19.6 -4.5 -19.5 -3.95 L-19.5 -3.45 -19.75 -2.25 -20.15 -1.5 Q-21.0 0.05 -22.35 0.05 L-22.8 0.0 -22.85 -0.3 M-12.45 -4.4 L-12.3 -4.5 -12.9 -5.25 -15.35 -5.45 -15.95 -5.6 -14.55 -5.9 Q-11.8 -5.9 -11.55 -4.6 L-11.55 -4.35 Q-11.55 -3.9 -12.6 -3.15 -13.75 -2.4 -14.55 -2.4 -14.75 -2.4 -15.05 -2.55 -15.05 -3.1 -12.45 -4.4 M-11.2 -4.65 Q-11.05 -5.1 -9.5 -5.1 L-9.05 -5.05 Q-7.8 -4.9 -7.8 -3.75 L-8.7 -2.9 Q-9.55 -2.25 -9.9 -2.25 L-10.35 -2.4 -10.35 -2.55 -8.45 -4.1 -11.15 -4.2 -11.25 -4.55 -11.2 -4.65 M-2.65 -6.0 L-2.85 -6.0 -3.0 -6.3 -2.9 -6.5 -2.15 -6.6 -0.35 -6.3 Q0.15 -6.05 0.15 -5.6 0.15 -5.1 -0.55 -4.5 -1.3 -3.9 -2.25 -3.9 L-2.85 -3.9 -2.9 -4.1 Q-2.9 -4.95 -0.45 -5.55 L-0.55 -5.9 -2.65 -6.0 M5.9 -7.1 L3.3 -7.65 3.15 -7.8 3.15 -8.1 3.7 -8.15 Q6.1 -8.15 6.45 -7.15 L6.5 -6.8 Q6.5 -5.4 4.5 -5.4 4.0 -5.4 3.9 -5.7 L6.0 -7.05 5.9 -7.1 M10.8 -7.6 L10.65 -7.85 Q10.65 -8.25 11.2 -8.25 12.25 -8.25 12.6 -7.8 L12.75 -7.35 Q12.75 -6.25 10.35 -6.15 L10.25 -6.35 Q10.25 -6.8 12.15 -7.35 L10.8 -7.5 10.8 -7.6 M9.2 -8.7 L9.3 -8.55 Q9.3 -7.5 7.7 -7.5 L7.2 -7.55 7.05 -7.85 Q7.05 -8.2 8.4 -8.55 L7.6 -8.75 Q6.85 -9.05 6.8 -9.65 L7.2 -9.75 8.6 -9.2 9.2 -8.7 M2.65 -8.7 Q2.35 -7.7 0.0 -7.7 L-0.3 -7.8 0.6 -8.65 1.95 -9.15 -0.05 -9.6 -0.15 -9.8 0.45 -10.05 Q2.7 -10.05 2.7 -9.05 L2.65 -8.7 M-6.2 -8.3 Q-4.95 -8.2 -3.35 -7.25 -3.35 -6.85 -4.4 -6.2 -5.55 -5.55 -6.45 -5.55 -6.5 -5.55 -6.75 -5.7 -6.6 -6.25 -4.4 -6.95 -6.9 -7.55 -6.9 -7.8 L-6.7 -8.25 -6.45 -8.3 -6.4 -8.3 -6.2 -8.3 M1.7 -14.75 L1.65 -11.5 8.4 -11.7 20.8 -11.1 Q22.65 -11.1 32.4 -14.45 42.15 -17.85 43.6 -17.85 44.75 -17.85 44.7 -17.15 44.7 -15.45 41.05 -12.85 L34.95 -9.0 Q36.05 -8.05 42.45 -5.75 48.0 -3.75 48.0 -2.6 48.0 -1.2 44.55 -1.2 L24.5 -3.2 Q10.5 9.0 3.7 11.05 L4.65 11.35 Q8.0 12.5 8.0 13.3 8.0 13.7 3.2 17.6 L-2.25 14.7 Q-2.95 14.4 -4.55 14.05 L-10.35 17.0 Q-15.8 19.2 -25.65 19.2 -32.65 19.2 -37.15 17.55 -39.2 16.85 -40.15 16.1 L-42.6 16.2 -46.05 15.95 -47.8 15.2 Q-49.65 12.25 -47.8 8.75 -46.8 7.75 -44.5 7.15 -44.05 5.45 -40.4 1.95 -36.75 -1.6 -30.75 -4.4 L-30.4 -4.75 Q-28.75 -6.3 -25.35 -6.3 L-24.25 -6.25 Q-22.65 -7.25 -19.4 -8.2 -18.2 -9.6 -11.1 -12.25 -2.5 -15.45 1.05 -15.45 1.7 -15.45 1.7 -14.75 M2.75 -4.35 Q2.3 -4.9 1.2 -5.1 L1.65 -5.25 Q3.3 -5.25 3.3 -4.35 L1.55 -3.15 1.25 -3.5 Q1.25 -4.1 2.75 -4.35 M24.65 -8.7 Q24.65 -9.85 34.4 -12.15 L34.65 -12.05 34.7 -12.0 Q32.5 -10.9 29.0 -9.55 31.35 -9.45 31.35 -9.0 31.35 -8.6 30.05 -8.45 L30.6 -8.5 32.45 -7.5 Q32.45 -6.9 31.9 -6.9 L33.45 -6.3 33.5 -6.15 Q33.5 -5.7 32.25 -5.7 31.1 -5.7 27.9 -6.9 24.65 -8.15 24.65 -8.7 M-28.55 -3.35 L-28.75 -2.55 Q-29.1 -1.8 -29.7 -1.8 L-30.2 -1.9 Q-29.7 -1.2 -28.1 -1.2 -25.4 -1.2 -23.9 -2.35 -22.85 -3.2 -22.85 -4.05 -22.85 -5.65 -26.45 -5.1 L-29.1 -4.2 Q-28.55 -4.1 -28.55 -3.35 M-11.55 -8.0 L-10.4 -7.9 Q-9.45 -7.7 -9.45 -7.05 -9.45 -6.45 -11.25 -5.7 L-11.55 -6.15 -10.05 -6.95 Q-10.3 -7.4 -11.1 -7.3 -11.85 -7.15 -12.15 -7.65 L-12.15 -7.7 Q-12.1 -8.0 -11.55 -8.0 M-5.45 -4.35 Q-3.8 -4.35 -3.8 -3.2 -3.8 -1.85 -5.95 -1.85 L-6.15 -1.95 -6.3 -2.1 -5.8 -2.6 Q-4.95 -2.75 -4.4 -3.15 -5.6 -3.45 -6.05 -3.9 L-5.45 -4.35 M-22.75 12.15 L-24.45 12.25 -26.85 12.0 Q-35.8 12.0 -39.2 13.05 L-42.5 14.15 -42.8 14.15 -43.3 14.05 -43.65 13.55 Q-43.65 12.65 -40.05 11.7 -35.6 10.55 -28.4 10.55 -25.0 10.55 -22.1 11.85 L-22.15 11.9 -22.75 12.15" fill="#000000" fill-rule="evenodd" stroke="none"/>
    <path d="M-25.6 -0.25 Q-24.15 -0.65 -23.15 -1.45 -21.75 -2.6 -21.75 -4.05 L-22.05 -5.25 -22.7 -5.8 -22.45 -5.85 -22.2 -5.95 -11.4 -8.45 Q-7.65 -9.2 -7.1 -9.75 L-7.25 -9.9 -8.35 -9.9 -8.75 -9.95 -14.95 -9.3 -10.2 -10.95 Q-6.35 -12.45 0.15 -13.7 L0.15 -13.4 Q0.15 -12.55 0.3 -11.95 L-0.45 -11.35 Q-1.45 -10.75 -3.2 -10.65 L-3.5 -10.25 -3.45 -10.05 -3.0 -9.95 -2.95 -10.0 -2.35 -10.1 -2.6 -10.0 Q-4.85 -9.3 -5.45 -8.85 L-6.4 -8.3 -6.45 -8.3 -6.7 -8.25 -6.9 -7.8 Q-6.9 -7.55 -4.4 -6.95 -6.6 -6.25 -6.75 -5.7 -6.5 -5.55 -6.45 -5.55 -5.55 -5.55 -4.4 -6.2 -3.35 -6.85 -3.35 -7.25 -4.95 -8.2 -6.2 -8.3 L0.6 -8.65 -0.3 -7.8 0.0 -7.7 Q2.35 -7.7 2.65 -8.7 L7.6 -8.75 8.4 -8.55 Q7.05 -8.2 7.05 -7.85 L7.2 -7.55 7.7 -7.5 Q9.3 -7.5 9.3 -8.55 L9.2 -8.7 14.25 -8.25 17.6 -8.3 12.6 -7.8 Q12.25 -8.25 11.2 -8.25 10.65 -8.25 10.65 -7.85 L10.8 -7.6 6.45 -7.15 Q6.1 -8.15 3.7 -8.15 L3.15 -8.1 3.15 -7.8 3.3 -7.65 5.9 -7.1 -0.35 -6.3 -2.15 -6.6 -2.9 -6.5 -3.0 -6.3 -2.85 -6.0 -2.65 -6.0 -2.85 -5.95 -9.05 -5.05 -9.5 -5.1 Q-11.05 -5.1 -11.2 -4.65 L-11.55 -4.6 Q-11.8 -5.9 -14.55 -5.9 L-15.95 -5.6 -15.35 -5.45 -12.9 -5.25 -12.3 -4.5 -12.45 -4.4 -16.55 -3.45 -19.75 -2.25 -19.5 -3.45 -19.5 -3.95 Q-19.6 -4.5 -19.8 -4.5 L-20.0 -4.5 -20.1 -4.25 -20.6 -2.65 -20.7 -2.4 -22.85 -0.3 -24.65 0.0 -25.6 -0.25 M-20.6 -4.85 L-20.5 -4.75 -20.3 -4.9 -20.6 -4.85 M-11.55 -8.0 Q-12.1 -8.0 -12.15 -7.7 L-12.15 -7.65 Q-11.85 -7.15 -11.1 -7.3 -10.3 -7.4 -10.05 -6.95 L-11.55 -6.15 -11.25 -5.7 Q-9.45 -6.45 -9.45 -7.05 -9.45 -7.7 -10.4 -7.9 L-11.55 -8.0" fill="#cccccc" fill-rule="evenodd" stroke="none"/>
    <path d="M-25.6 -0.25 L-24.65 0.0 -22.85 -0.3 -22.8 0.0 -22.35 0.05 Q-21.0 0.05 -20.15 -1.5 L-19.75 -2.25 -16.55 -3.45 -12.45 -4.4 Q-15.05 -3.1 -15.05 -2.55 -14.75 -2.4 -14.55 -2.4 -13.75 -2.4 -12.6 -3.15 -11.55 -3.9 -11.55 -4.35 L-11.55 -4.6 -11.2 -4.65 -11.25 -4.55 -11.15 -4.2 -8.45 -4.1 -10.35 -2.55 -10.35 -2.4 -9.9 -2.25 Q-9.55 -2.25 -8.7 -2.9 L-7.8 -3.75 Q-7.8 -4.9 -9.05 -5.05 L-2.85 -5.95 -2.65 -6.0 -0.55 -5.9 -0.45 -5.55 Q-2.9 -4.95 -2.9 -4.1 L-2.85 -3.9 -2.25 -3.9 Q-1.3 -3.9 -0.55 -4.5 0.15 -5.1 0.15 -5.6 0.15 -6.05 -0.35 -6.3 L5.9 -7.1 6.0 -7.05 3.9 -5.7 Q4.0 -5.4 4.5 -5.4 6.5 -5.4 6.5 -6.8 L6.45 -7.15 10.8 -7.6 10.8 -7.5 12.15 -7.35 Q10.25 -6.8 10.25 -6.35 L10.35 -6.15 Q12.75 -6.25 12.75 -7.35 L12.6 -7.8 17.6 -8.3 14.25 -8.25 9.2 -8.7 8.6 -9.2 7.2 -9.75 6.8 -9.65 Q6.85 -9.05 7.6 -8.75 L2.65 -8.7 2.7 -9.05 Q2.7 -10.05 0.45 -10.05 L-0.15 -9.8 -0.05 -9.6 1.95 -9.15 0.6 -8.65 -6.2 -8.3 -6.4 -8.3 -5.45 -8.85 Q-4.85 -9.3 -2.6 -10.0 L8.45 -10.5 19.35 -9.9 21.85 -10.25 22.1 -10.25 24.65 -10.65 Q29.65 -11.8 42.9 -16.2 42.05 -14.9 37.6 -12.25 33.75 -9.95 33.75 -8.6 33.75 -6.5 43.8 -3.35 L26.95 -5.9 27.0 -6.05 26.8 -6.25 Q26.4 -6.45 26.05 -6.25 L22.75 -4.4 17.25 -0.1 Q15.45 1.2 9.25 4.2 3.0 7.15 -2.6 8.35 -8.25 9.55 -7.1 9.9 L-5.7 10.3 Q-6.3 10.45 -6.3 10.7 L-6.2 11.1 1.75 12.15 Q4.85 12.65 6.1 13.45 L6.05 13.5 3.0 16.05 Q-3.15 12.3 -6.95 12.3 L-8.9 12.45 Q-9.4 12.55 -9.6 12.75 L-9.8 12.75 Q-10.7 12.75 -17.0 14.9 -20.1 15.95 -22.85 16.45 L-24.7 16.4 Q-35.65 15.9 -22.75 12.15 L-22.15 11.9 -22.1 11.85 Q-25.0 10.55 -28.4 10.55 -35.6 10.55 -40.05 11.7 -43.65 12.65 -43.65 13.55 L-43.3 14.05 -43.6 13.85 Q-44.15 14.25 -44.3 14.75 L-44.8 14.65 Q-47.25 14.25 -47.25 11.4 L-47.25 10.55 Q-47.1 9.85 -46.55 9.45 -43.9 7.35 -30.15 7.35 L-25.75 7.85 -22.65 7.8 Q-26.2 6.15 -33.6 6.15 L-42.95 6.8 Q-40.7 4.05 -38.65 2.25 -36.65 0.4 -34.5 -1.05 L-31.5 -2.95 -31.55 -2.55 Q-31.5 0.0 -28.15 0.0 L-25.6 -0.25 M-0.45 -11.35 L0.3 -11.95 0.45 -11.45 -0.45 -11.35 M2.75 -4.35 Q1.25 -4.1 1.25 -3.5 L1.55 -3.15 3.3 -4.35 Q3.3 -5.25 1.65 -5.25 L1.2 -5.1 Q2.3 -4.9 2.75 -4.35 M24.65 -8.7 Q24.65 -8.15 27.9 -6.9 31.1 -5.7 32.25 -5.7 33.5 -5.7 33.5 -6.15 L33.45 -6.3 31.9 -6.9 Q32.45 -6.9 32.45 -7.5 L30.6 -8.5 30.05 -8.45 Q31.35 -8.6 31.35 -9.0 31.35 -9.45 29.0 -9.55 32.5 -10.9 34.7 -12.0 L34.65 -12.05 34.4 -12.15 Q24.65 -9.85 24.65 -8.7 M-20.6 -4.85 L-20.3 -4.9 -20.5 -4.75 -20.6 -4.85 M-5.45 -4.35 L-6.05 -3.9 Q-5.6 -3.45 -4.4 -3.15 -4.95 -2.75 -5.8 -2.6 L-6.3 -2.1 -6.15 -1.95 -5.95 -1.85 Q-3.8 -1.85 -3.8 -3.2 -3.8 -4.35 -5.45 -4.35" fill="#999999" fill-rule="evenodd" stroke="none"/>
    <path d="M-5.7 10.3 L-7.1 9.9 Q-8.25 9.55 -2.6 8.35 3.0 7.15 9.25 4.2 15.45 1.2 17.25 -0.1 L22.75 -4.4 26.05 -6.25 Q26.4 -6.45 26.8 -6.25 L27.0 -6.05 26.95 -5.9 43.8 -3.35 45.9 -2.7 25.35 -4.0 26.4 -5.25 26.4 -5.4 25.1 -4.75 13.35 4.1 4.65 9.25 2.15 10.05 -4.8 10.2 -5.7 10.3 M-9.6 12.75 L-9.75 13.05 -9.6 13.1 -6.75 13.6 -8.05 14.5 -8.7 14.85 Q-14.45 17.7 -28.4 17.7 -33.35 17.7 -39.0 14.9 L-39.45 14.6 -39.65 14.6 -40.5 14.15 Q-41.0 14.15 -41.0 14.7 L-43.1 15.05 -43.15 15.0 -44.3 14.75 Q-44.15 14.25 -43.6 13.85 L-43.3 14.05 -42.8 14.15 -42.5 14.15 -39.2 13.05 Q-35.8 12.0 -26.85 12.0 L-24.45 12.25 -22.75 12.15 Q-35.65 15.9 -24.7 16.4 L-22.85 16.45 Q-20.1 15.95 -17.0 14.9 -10.7 12.75 -9.8 12.75 L-9.6 12.75" fill="#666666" fill-rule="evenodd" stroke="none"/>
    <path d="M-28.55 -3.35 Q-28.55 -4.1 -29.1 -4.2 L-26.45 -5.1 Q-22.85 -5.65 -22.85 -4.05 -22.85 -3.2 -23.9 -2.35 -25.4 -1.2 -28.1 -1.2 -29.7 -1.2 -30.2 -1.9 L-29.7 -1.8 Q-29.1 -1.8 -28.75 -2.55 L-28.55 -3.35" fill="#ffffff" fill-rule="evenodd" stroke="none"/>
  </g>
</svg>
