<?xml version="1.0" encoding="UTF-8" standalone="no"?>
<svg xmlns:xlink="http://www.w3.org/1999/xlink" height="80.55px" width="156.9px" xmlns="http://www.w3.org/2000/svg">
  <g transform="matrix(1.0, 0.0, 0.0, 1.0, 78.8, 40.25)">
    <path d="M-35.4 -40.25 L-34.05 -40.25 Q-29.5 -33.75 -23.05 -29.1 L-21.25 -27.9 Q-22.85 -26.7 -24.95 -27.2 -28.4 -27.85 -31.25 -30.0 L-29.5 -26.85 -29.1 -25.5 -29.25 -25.5 -30.75 -25.5 -31.85 -25.95 -31.45 -24.35 -29.35 -22.5 -28.5 -21.1 Q-27.85 -19.4 -28.15 -17.55 L-27.85 -17.0 -24.95 -15.75 Q-21.95 -8.7 -15.25 -5.25 L-13.1 -5.1 Q-6.3 -4.3 -0.75 -8.0 L-1.5 -10.25 -2.8 -9.5 -3.1 -9.65 -3.55 -10.25 -3.7 -10.6 -3.8 -11.1 -3.95 -12.4 Q-5.4 -11.1 -6.9 -9.9 -7.8 -9.15 -8.95 -9.3 L-9.65 -9.6 -8.6 -12.9 -11.6 -13.65 Q-12.45 -13.85 -13.2 -14.3 L-13.75 -14.75 Q-6.4 -16.65 -0.95 -21.6 L0.6 -23.05 Q4.5 -17.9 10.35 -15.3 12.9 -14.1 14.6 -12.4 L7.1 -13.1 5.15 -13.6 5.5 -11.1 5.45 -10.35 5.2 -9.6 4.5 -9.6 4.8 -8.4 7.75 -8.0 Q9.7 -7.65 11.3 -6.5 26.4 -4.95 40.85 -0.25 47.1 -2.3 53.8 -2.2 54.95 -2.2 56.0 -2.65 58.3 -3.75 60.5 -5.0 L71.0 -10.7 71.15 -10.05 Q66.7 -8.0 66.4 -7.65 L65.0 -5.9 61.15 -3.4 Q58.0 -0.7 50.4 -0.5 L43.05 0.2 42.35 0.45 Q42.7 0.95 43.25 1.15 45.5 2.35 48.1 2.95 L61.65 5.25 Q68.0 4.65 74.3 5.55 L74.55 7.0 Q67.85 6.3 61.3 6.8 L56.45 6.9 Q54.55 6.65 52.8 5.7 51.35 4.85 49.75 4.35 44.6 4.5 40.8 1.45 L34.0 -0.95 Q26.45 -3.8 18.45 -4.6 10.6 -4.65 3.4 -7.5 L3.05 -10.8 1.15 -12.75 -0.45 -11.4 0.3 -7.4 0.05 -7.2 Q-3.55 -4.65 -7.9 -3.35 -12.1 -1.6 -16.15 -3.85 -22.8 -7.55 -25.75 -14.5 L-29.5 -16.65 Q-28.9 -18.45 -29.65 -20.25 L-30.8 -22.25 -32.95 -24.45 -32.8 -26.6 -34.6 -27.8 -35.45 -23.9 Q-34.2 -23.8 -33.3 -23.1 L-32.55 -22.4 -32.3 -21.95 -32.15 -21.55 Q-31.9 -20.2 -32.55 -18.85 L-47.95 -22.7 -47.55 -26.9 -49.35 -30.0 -51.4 -26.5 -50.65 -21.7 Q-45.35 -18.45 -39.15 -16.95 L-35.2 -15.9 Q-27.7 -12.75 -24.35 -5.45 -21.95 -0.1 -16.1 1.0 -11.6 1.95 -7.1 1.05 L2.55 -0.55 8.95 -0.3 Q22.1 0.55 34.0 6.1 L43.4 10.4 Q51.7 13.9 59.05 18.9 61.4 20.55 62.8 23.0 67.5 31.5 74.4 38.15 L73.95 40.3 Q70.4 37.95 67.9 34.55 66.65 32.8 65.95 30.9 64.25 26.5 61.35 23.15 59.3 20.7 56.25 19.1 46.95 14.45 37.8 9.4 30.75 5.6 23.5 2.8 11.35 -1.8 -0.9 1.35 -7.7 3.0 -14.7 3.4 -19.35 3.65 -22.25 -0.3 -25.3 -4.4 -27.9 -8.8 L-29.05 -10.0 -32.2 -12.25 -33.15 -13.4 Q-34.1 -15.3 -36.35 -15.5 L-41.65 -16.4 -48.0 -18.1 Q-51.75 -18.7 -52.0 -22.35 -52.15 -24.1 -52.8 -24.7 L-53.45 -24.75 Q-54.95 -27.0 -54.85 -30.4 L-57.05 -28.3 Q-59.65 -25.65 -62.95 -25.25 L-62.4 -26.85 Q-61.3 -29.2 -61.35 -31.75 -65.8 -28.25 -71.2 -27.75 L-71.25 -28.45 -69.0 -32.25 Q-71.0 -32.25 -73.85 -31.15 -76.35 -30.05 -78.8 -30.6 L-78.7 -31.15 -78.4 -31.45 Q-73.05 -35.45 -68.3 -40.25 L-66.4 -40.25 -73.25 -34.05 -75.5 -32.4 Q-70.9 -32.65 -67.0 -34.9 L-66.25 -34.2 Q-66.25 -33.8 -67.65 -31.65 L-69.1 -29.5 -59.95 -33.55 -59.8 -33.45 Q-59.5 -31.5 -60.3 -29.65 L-61.0 -27.4 -54.05 -32.5 -53.05 -27.4 Q-53.05 -26.75 -52.8 -27.05 L-49.1 -32.4 -46.35 -27.35 Q-46.2 -30.1 -44.6 -32.15 -42.15 -28.8 -38.45 -27.25 -40.0 -29.85 -40.1 -32.85 L-39.35 -33.4 Q-35.55 -29.65 -30.75 -27.25 -33.65 -29.55 -34.25 -33.45 L-33.7 -33.6 Q-30.05 -29.35 -24.5 -28.75 -31.35 -33.2 -35.4 -40.25 M-7.65 -12.1 L-8.1 -11.0 -3.75 -13.8 -3.05 -13.85 -2.6 -10.85 0.9 -14.35 Q2.4 -13.8 3.25 -12.45 3.85 -11.5 4.55 -10.95 3.85 -12.8 4.25 -14.9 L11.3 -13.4 Q5.55 -16.45 0.65 -20.75 -4.45 -16.75 -10.7 -14.65 L-8.3 -14.1 -7.1 -13.6 -7.65 -12.1 M-45.0 -27.6 L-45.15 -25.6 -46.2 -25.45 -47.05 -26.2 Q-47.6 -24.6 -46.75 -23.4 -39.65 -22.55 -33.25 -20.15 L-33.4 -20.85 Q-34.3 -22.7 -36.55 -23.3 L-36.7 -23.7 -35.75 -28.45 -37.75 -29.75 Q-36.75 -27.8 -36.9 -25.5 L-37.55 -25.55 Q-41.55 -26.7 -44.5 -30.0 L-45.0 -27.6" fill="#000000" fill-rule="evenodd" stroke="none"/>
    <path d="M-35.4 -40.25 Q-31.35 -33.2 -24.5 -28.75 -30.05 -29.35 -33.7 -33.6 L-34.25 -33.45 Q-33.65 -29.55 -30.75 -27.25 -35.55 -29.65 -39.35 -33.4 L-40.1 -32.85 Q-40.0 -29.85 -38.45 -27.25 -42.15 -28.8 -44.6 -32.15 -46.2 -30.1 -46.35 -27.35 L-49.1 -32.4 -52.8 -27.05 Q-53.05 -26.75 -53.05 -27.4 -50.55 -30.55 -49.95 -36.0 L-49.5 -40.25 -35.4 -40.25 M-54.05 -32.5 L-61.0 -27.4 -60.3 -29.65 Q-56.2 -32.65 -53.5 -36.85 L-53.35 -36.0 Q-53.05 -34.15 -54.05 -32.5 M-59.95 -33.55 L-69.1 -29.5 -67.65 -31.65 -58.55 -37.3 -59.95 -33.55 M-66.25 -34.2 L-67.0 -34.9 Q-70.9 -32.65 -75.5 -32.4 L-73.25 -34.05 -67.75 -36.15 -64.45 -36.95 -66.25 -34.2 M0.65 -20.75 Q5.55 -16.45 11.3 -13.4 L4.25 -14.9 Q3.85 -12.8 4.55 -10.95 3.85 -11.5 3.25 -12.45 2.4 -13.8 0.9 -14.35 L-2.6 -10.85 -3.05 -13.85 -3.75 -13.8 -8.1 -11.0 -7.65 -12.1 Q-4.8 -14.3 -2.45 -16.9 L0.65 -20.75" fill="#2b5516" fill-rule="evenodd" stroke="none"/>
    <path d="M-7.9 -3.35 Q-3.55 -4.65 0.05 -7.2 L0.3 -7.4 -0.45 -11.4 1.15 -12.75 3.05 -10.8 3.4 -7.5 Q10.6 -4.65 18.45 -4.6 26.45 -3.8 34.0 -0.95 L40.8 1.45 Q42.7 5.05 47.05 5.4 L50.0 6.15 Q54.55 7.3 58.5 9.25 L61.4 9.9 Q65.1 9.9 68.6 10.95 L76.15 12.9 77.3 17.1 Q70.5 19.1 64.7 15.2 57.2 10.1 48.35 8.25 45.75 7.7 43.35 6.6 L39.4 4.55 Q31.0 0.5 22.0 -2.4 L17.3 -3.3 6.05 -4.15 3.75 -4.3 -7.9 -3.35" fill="#7c6a5e" fill-rule="evenodd" stroke="none"/>
    <path d="M74.4 38.15 Q67.5 31.5 62.8 23.0 61.4 20.55 59.05 18.9 51.7 13.9 43.4 10.4 L34.0 6.1 Q22.1 0.55 8.95 -0.3 L2.55 -0.55 -7.1 1.05 Q-11.6 1.95 -16.1 1.0 -21.95 -0.1 -24.35 -5.45 -27.7 -12.75 -35.2 -15.9 L-39.15 -16.95 Q-45.35 -18.45 -50.65 -21.7 L-51.4 -26.5 -49.35 -30.0 -47.55 -26.9 -47.95 -22.7 -32.55 -18.85 Q-31.9 -20.2 -32.15 -21.55 L-32.3 -21.95 -32.55 -22.4 -33.3 -23.1 Q-34.2 -23.8 -35.45 -23.9 L-34.6 -27.8 -32.8 -26.6 -32.95 -24.45 -30.8 -22.25 -29.65 -20.25 Q-28.9 -18.45 -29.5 -16.65 L-25.75 -14.5 Q-22.8 -7.55 -16.15 -3.85 -12.1 -1.6 -7.9 -3.35 L3.75 -4.3 6.05 -4.15 17.3 -3.3 22.0 -2.4 Q31.0 0.5 39.4 4.55 L43.35 6.6 Q45.75 7.7 48.35 8.25 57.2 10.1 64.7 15.2 70.5 19.1 77.3 17.1 L78.1 20.1 74.4 38.15 M40.8 1.45 Q44.6 4.5 49.75 4.35 51.35 4.85 52.8 5.7 54.55 6.65 56.45 6.9 L61.3 6.8 Q67.85 6.3 74.55 7.0 L76.15 12.9 68.6 10.95 Q65.1 9.9 61.4 9.9 L58.5 9.25 Q54.55 7.3 50.0 6.15 L47.05 5.4 Q42.7 5.05 40.8 1.45" fill="#68564a" fill-rule="evenodd" stroke="none"/>
    <path d="M43.05 0.2 L50.4 -0.5 Q58.0 -0.7 61.15 -3.4 L65.0 -5.9 66.4 -7.65 Q66.7 -8.0 71.15 -10.05 L72.65 -2.7 Q72.9 -1.15 71.9 0.05 L71.7 0.35 Q65.2 2.75 58.1 2.55 L56.9 1.35 43.05 0.2" fill="#f1f1f1" fill-rule="evenodd" stroke="none"/>
    <path d="M-53.05 -27.4 L-54.05 -32.5 Q-53.05 -34.15 -53.35 -36.0 L-53.5 -36.85 Q-56.2 -32.65 -60.3 -29.65 -59.5 -31.5 -59.8 -33.45 L-59.95 -33.55 -58.55 -37.3 -67.65 -31.65 Q-66.25 -33.8 -66.25 -34.2 L-64.45 -36.95 -67.75 -36.15 -62.75 -40.25 -49.5 -40.25 -49.95 -36.0 Q-50.55 -30.55 -53.05 -27.4 M-7.65 -12.1 L-7.1 -13.6 -8.3 -14.1 -2.45 -16.9 Q-4.8 -14.3 -7.65 -12.1" fill="#527c3d" fill-rule="evenodd" stroke="none"/>
    <path d="M-73.25 -34.05 L-66.4 -40.25 -62.75 -40.25 -67.75 -36.15 -73.25 -34.05 M-8.3 -14.1 L-10.7 -14.65 Q-4.45 -16.75 0.65 -20.75 L-2.45 -16.9 -8.3 -14.1" fill="#6b9556" fill-rule="evenodd" stroke="none"/>
    <path d="M74.3 5.55 Q68.0 4.65 61.65 5.25 L48.1 2.95 Q45.5 2.35 43.25 1.15 42.7 0.95 42.35 0.45 L43.05 0.2 56.9 1.35 58.1 2.55 Q65.2 2.75 71.7 0.35 L71.9 0.05 Q72.9 -1.15 72.65 -2.7 L74.3 5.55" fill="#acb3b9" fill-rule="evenodd" stroke="none"/>
  </g>
</svg>
