<?xml version="1.0" encoding="UTF-8" standalone="no"?>
<svg xmlns:xlink="http://www.w3.org/1999/xlink" height="39.4px" width="34.35px" xmlns="http://www.w3.org/2000/svg">
  <g transform="matrix(1.0, 0.0, 0.0, 1.0, 17.15, 19.7)">
    <path d="M2.8 -13.65 Q2.35 -13.8 2.25 -13.35 2.05 -12.15 2.8 -11.2 3.6 -10.45 4.7 -10.8 5.35 -11.0 5.6 -11.55 L5.35 -12.9 Q4.8 -13.2 4.8 -12.1 4.0 -11.15 3.15 -12.0 L3.05 -12.25 2.8 -13.65 M-7.85 -12.75 Q-6.55 -15.65 0.45 -16.2 5.3 -16.9 8.85 -13.45 8.6 -9.4 7.6 -5.6 6.25 -0.45 6.6 4.8 L5.5 7.0 2.65 7.9 Q-3.0 4.2 -4.8 -1.3 -5.7 -4.85 -7.65 -8.1 L-7.5 -9.3 Q-7.35 -11.1 -7.85 -12.75 M-1.4 -4.0 L-1.35 -3.85 Q1.35 -2.15 1.6 -4.45 0.15 -3.9 -1.4 -4.0 M-2.85 -8.35 L-2.55 -8.6 Q-1.5 -9.4 -1.95 -10.0 L-2.1 -9.95 -3.5 -9.25 -5.5 -9.35 Q-4.45 -8.2 -2.85 -8.35 M1.75 -11.65 Q2.05 -12.4 1.15 -12.1 L1.0 -11.85 Q0.1 -11.1 -0.85 -12.2 L-1.1 -12.15 Q-0.95 -11.1 0.15 -10.45 1.35 -10.35 1.6 -11.35 L1.75 -11.65 M5.6 -6.9 L5.55 -6.9 Q4.35 -5.95 2.7 -6.1 1.95 -7.05 1.05 -6.65 L1.15 -6.4 Q1.95 -5.2 3.25 -5.0 4.7 -5.25 5.6 -6.1 L5.55 -6.35 5.6 -6.9" fill="#ffcc33" fill-rule="evenodd" stroke="none"/>
    <path d="M2.8 -13.65 L3.05 -12.25 3.15 -12.0 Q4.0 -11.15 4.8 -12.1 4.8 -13.2 5.35 -12.9 L5.6 -11.55 Q5.35 -11.0 4.7 -10.8 3.6 -10.45 2.8 -11.2 2.05 -12.15 2.25 -13.35 2.35 -13.8 2.8 -13.65 M10.05 -17.25 Q14.0 -14.55 17.15 -11.0 L15.2 -9.8 10.0 -11.4 Q10.5 -6.75 8.95 -2.6 7.75 0.7 8.05 4.25 L7.2 3.7 8.05 4.3 Q12.05 7.1 15.65 10.25 16.25 10.75 16.65 11.5 17.4 12.95 17.15 14.65 L16.7 16.45 2.05 15.35 Q-1.25 19.4 -6.4 19.7 -8.6 19.65 -10.55 18.7 L-10.65 15.7 Q-7.1 11.45 -5.4 6.15 L-5.25 5.65 -5.45 6.1 Q-5.6 1.7 -7.5 -2.5 -8.55 -4.8 -9.0 -7.3 L-9.35 -9.95 -17.15 -10.9 Q-10.85 -15.65 -5.7 -18.3 -3.85 -19.15 -1.8 -19.4 L3.7 -19.7 Q7.2 -19.2 10.05 -17.25 M8.85 -13.45 L8.9 -15.25 9.9 -12.4 12.2 -12.8 9.05 -15.45 Q6.7 -17.1 4.05 -18.25 -3.2 -18.4 -9.4 -14.55 L-15.0 -11.55 -11.85 -12.1 -9.2 -11.6 -8.5 -14.1 -7.85 -12.75 Q-7.35 -11.1 -7.5 -9.3 L-7.65 -8.1 Q-5.7 -4.85 -4.8 -1.3 -4.0 2.05 -4.1 5.65 L-4.25 7.1 Q-4.65 9.7 -6.1 12.05 L-7.8 14.65 Q-8.7 16.05 -8.85 17.7 L-6.15 17.75 -4.0 16.85 -4.65 17.1 -2.0 11.5 Q-1.9 11.3 -1.55 11.35 -1.85 13.95 -2.95 16.35 L-0.85 15.35 Q-0.6 13.4 0.2 11.15 0.3 10.9 0.6 11.0 1.1 13.0 0.3 14.9 2.15 14.25 4.25 14.2 L4.65 14.2 Q3.85 13.05 3.25 11.2 L3.45 11.15 Q4.15 12.85 5.35 14.2 L9.7 14.2 Q8.3 12.8 7.2 10.9 L7.45 10.9 7.5 10.9 12.0 14.2 15.5 14.25 Q13.55 11.2 10.6 8.9 L7.3 6.1 5.45 7.1 5.5 7.0 6.6 4.8 Q6.25 -0.45 7.6 -5.6 8.6 -9.4 8.85 -13.45 M5.6 -6.9 L5.55 -6.35 5.6 -6.1 Q4.7 -5.25 3.25 -5.0 1.95 -5.2 1.15 -6.4 L1.05 -6.65 Q1.95 -7.05 2.7 -6.1 4.35 -5.95 5.55 -6.9 L5.6 -6.9 M1.75 -11.65 L1.6 -11.35 Q1.35 -10.35 0.15 -10.45 -0.95 -11.1 -1.1 -12.15 L-0.85 -12.2 Q0.1 -11.1 1.0 -11.85 L1.15 -12.1 Q2.05 -12.4 1.75 -11.65 M-2.85 -8.35 Q-4.45 -8.2 -5.5 -9.35 L-3.5 -9.25 -2.1 -9.95 -1.95 -10.0 Q-1.5 -9.4 -2.55 -8.6 L-2.85 -8.35 M-1.4 -4.0 Q0.15 -3.9 1.6 -4.45 1.35 -2.15 -1.35 -3.85 L-1.4 -4.0" fill="#000000" fill-rule="evenodd" stroke="none"/>
    <path d="M5.5 7.0 L5.45 7.1 7.3 6.1 10.6 8.9 Q13.55 11.2 15.5 14.25 L12.0 14.2 7.5 10.9 7.45 10.9 2.65 7.9 5.5 7.0" fill="#ffdd44" fill-rule="evenodd" stroke="none"/>
    <path d="M-4.25 7.1 L-4.1 5.65 Q-4.0 2.05 -4.8 -1.3 -3.0 4.2 2.65 7.9 -0.65 8.45 -4.2 7.1 L-4.25 7.1" fill="#ecb20a" fill-rule="evenodd" stroke="none"/>
    <path d="M7.45 10.9 L7.2 10.9 Q8.3 12.8 9.7 14.2 L5.35 14.2 Q4.15 12.85 3.45 11.15 L3.25 11.2 Q3.85 13.05 4.65 14.2 L4.25 14.2 Q2.15 14.25 0.3 14.9 1.1 13.0 0.6 11.0 0.3 10.9 0.2 11.15 -0.6 13.4 -0.85 15.35 L-2.95 16.35 Q-1.85 13.95 -1.55 11.35 -1.9 11.3 -2.0 11.5 L-4.65 17.1 -4.0 16.85 -6.15 17.75 -8.85 17.7 Q-8.7 16.05 -7.8 14.65 L-6.1 12.05 Q-4.65 9.7 -4.25 7.1 L-4.2 7.1 Q-0.65 8.45 2.65 7.9 L7.45 10.9" fill="#d9bc3a" fill-rule="evenodd" stroke="none"/>
    <path d="M-7.85 -12.75 L-8.5 -14.1 -9.2 -11.6 -11.85 -12.1 -15.0 -11.55 -9.4 -14.55 Q-3.2 -18.4 4.05 -18.25 6.7 -17.1 9.05 -15.45 L12.2 -12.8 9.9 -12.4 8.9 -15.25 8.85 -13.45 Q5.3 -16.9 0.45 -16.2 -6.55 -15.65 -7.85 -12.75" fill="#ffda6d" fill-rule="evenodd" stroke="none"/>
  </g>
</svg>
