<?xml version="1.0" encoding="UTF-8" standalone="no"?>
<svg xmlns:xlink="http://www.w3.org/1999/xlink" height="41.8px" width="34.9px" xmlns="http://www.w3.org/2000/svg">
  <g transform="matrix(1.0, 0.0, 0.0, 1.0, 17.3, 20.1)">
    <path d="M14.8 18.0 L14.25 16.95 Q12.15 12.85 9.5 8.85 L9.3 9.9 Q7.9 10.0 7.55 8.55 7.0 6.45 7.2 4.4 L8.05 -6.45 8.25 -14.35 Q8.25 -15.05 8.75 -15.1 L9.05 -14.9 9.25 -14.6 9.75 -13.4 9.25 -13.15 11.0 -13.6 13.7 -13.1 12.25 -14.35 9.25 -16.4 Q7.65 -17.45 5.85 -18.0 L5.7 -18.05 3.35 -18.55 3.05 -18.6 Q-0.4 -18.95 -3.6 -17.75 L-6.3 -16.5 -8.25 -15.4 -10.15 -14.15 -12.9 -12.35 -13.0 -12.3 -12.8 -12.25 -9.35 -11.9 -8.4 -14.0 -8.4 -10.9 -8.6 -10.75 -8.4 -10.85 -7.95 -7.15 Q-7.35 -3.45 -6.05 -0.05 -5.0 2.8 -4.2 5.8 L-4.0 7.0 Q-3.8 9.15 -4.8 11.05 -6.65 14.4 -8.8 17.7 L-8.7 17.85 -8.4 17.7 -7.7 17.35 -4.65 16.0 -4.2 15.8 -4.05 15.75 1.0 14.25 4.7 14.4 8.5 15.6 Q11.95 16.85 15.2 18.8 L14.8 18.0 15.2 18.8 Q11.95 16.85 8.5 15.6 L4.7 14.4 1.0 14.25 -4.05 15.75 -4.2 15.8 -4.65 16.0 -7.7 17.35 -8.4 17.7 -3.65 13.15 -3.7 12.95 Q-3.7 12.6 -1.9 10.8 L-1.6 10.45 1.05 8.15 1.1 8.2 Q1.45 7.2 1.85 6.95 L1.9 6.85 Q2.05 6.65 2.35 6.6 L2.45 6.6 Q2.75 6.6 3.1 7.3 5.05 8.65 9.5 14.15 L9.4 14.45 9.05 14.7 Q8.75 14.7 7.45 13.65 L6.1 12.55 4.05 10.75 4.3 12.05 4.25 12.35 3.95 12.55 2.3 9.85 2.3 9.9 Q1.7 12.6 0.8 12.6 0.25 12.6 0.15 12.15 L0.1 11.6 0.35 10.55 Q-1.45 13.7 -2.8 13.7 L-2.95 13.7 Q-3.5 13.65 -3.65 13.15 -3.5 13.65 -2.95 13.7 L-2.8 13.7 Q-1.45 13.7 0.35 10.55 L0.1 11.6 0.15 12.15 Q0.25 12.6 0.8 12.6 1.7 12.6 2.3 9.9 L2.3 9.85 2.4 9.45 2.3 9.9 2.4 9.45 2.3 9.85 3.95 12.55 4.25 12.35 4.3 12.05 4.05 10.75 6.1 12.55 7.45 13.65 Q8.75 14.7 9.05 14.7 L9.4 14.45 9.45 14.35 12.65 16.85 14.8 18.0 M2.7 -20.05 Q6.3 -19.6 9.5 -18.0 14.1 -15.7 17.25 -11.8 17.9 -11.05 17.35 -10.25 L16.55 -10.05 15.4 -10.3 Q12.9 -11.65 9.95 -11.8 L9.95 -7.35 8.95 5.4 Q10.65 5.9 11.7 7.6 L15.05 14.05 17.55 20.65 17.55 21.35 16.5 21.6 13.7 20.6 Q9.45 18.5 5.15 16.75 L2.15 16.15 0.5 16.45 Q-5.7 18.05 -11.05 21.7 L-11.9 21.45 Q-12.3 21.0 -12.1 20.5 L-10.85 17.8 -5.85 8.05 -5.75 7.4 Q-6.4 4.05 -7.7 0.9 -10.0 -4.45 -9.6 -10.3 L-17.3 -10.7 -17.0 -11.3 -15.9 -12.35 -14.85 -13.0 -7.1 -17.95 Q-2.45 -20.5 2.7 -20.05 M4.15 -7.6 Q3.55 -7.65 2.4 -8.5 L2.15 -8.65 2.9 -8.25 2.5 -9.05 2.6 -9.5 2.9 -9.8 3.0 -9.6 3.6 -8.75 4.35 -8.1 4.35 -8.15 4.45 -8.1 5.5 -9.1 Q6.4 -10.6 6.65 -10.7 L7.0 -10.35 4.65 -8.0 4.75 -7.95 4.75 -7.8 4.15 -7.6 M-0.3 -7.3 Q-1.2 -7.55 -1.2 -8.9 L-1.2 -8.95 Q-1.2 -9.55 -0.7 -9.75 L0.2 -8.1 Q0.7 -8.05 1.55 -8.85 L1.65 -8.45 Q1.65 -8.1 1.05 -7.7 L0.0 -7.3 -0.15 -7.3 -0.3 -7.3 M-1.95 -10.85 L-2.45 -10.3 Q-3.05 -9.8 -3.6 -9.8 -5.05 -9.8 -5.2 -11.15 L-4.75 -11.8 -4.65 -11.8 Q-4.35 -10.9 -3.8 -10.9 L-2.6 -11.3 -2.1 -11.5 Q-1.85 -11.7 -1.85 -11.2 L-1.85 -11.05 -1.9 -10.9 -1.95 -10.85 M-0.35 -12.45 L-0.35 -12.5 Q-0.35 -13.4 0.0 -13.7 -0.25 -11.5 1.05 -11.5 L2.1 -11.9 2.2 -11.7 Q2.2 -10.9 0.7 -10.9 L0.45 -10.9 0.35 -10.9 -0.4 -11.8 -0.35 -12.15 -0.35 -12.4 -0.35 -12.45 M4.0 10.7 L4.05 10.75 4.0 10.7 3.6 10.3 4.0 10.7 4.05 10.7 4.0 10.7 M-3.65 -16.65 L-4.25 -15.8 -4.25 -15.65 Q-4.2 -14.35 -2.85 -14.35 L-2.4 -14.55 -1.3 -15.0 -1.0 -14.95 Q-0.8 -15.2 -0.8 -14.7 L-1.4 -13.9 -1.75 -13.6 -2.25 -13.4 -2.6 -13.35 Q-4.95 -13.35 -4.95 -14.9 L-4.9 -15.55 -4.85 -15.9 Q-4.6 -16.95 -3.65 -16.65" fill="#000000" fill-rule="evenodd" stroke="none"/>
    <path d="M5.85 -18.0 Q7.65 -17.45 9.25 -16.4 L12.25 -14.35 13.7 -13.1 11.0 -13.6 9.25 -13.15 9.75 -13.4 9.25 -14.6 9.05 -14.9 8.75 -15.1 Q8.25 -15.05 8.25 -14.35 L8.05 -6.45 7.2 4.4 Q7.0 6.45 7.55 8.55 7.9 10.0 9.3 9.9 L9.5 8.85 Q12.15 12.85 14.25 16.95 L14.8 18.0 12.65 16.85 9.45 14.35 9.4 14.45 9.5 14.15 Q5.05 8.65 3.1 7.3 2.75 6.6 2.45 6.6 L2.35 6.6 Q2.05 6.65 1.9 6.85 L1.85 6.95 Q1.45 7.2 1.1 8.2 L1.05 8.15 -1.6 10.45 -1.9 10.8 Q-3.7 12.6 -3.7 12.95 L-3.65 13.15 -8.4 17.7 -8.7 17.85 -8.8 17.7 Q-6.65 14.4 -4.8 11.05 -3.8 9.15 -4.0 7.0 L-4.2 5.8 Q-5.0 2.8 -6.05 -0.05 -7.35 -3.45 -7.95 -7.15 L-8.4 -10.85 -8.4 -10.9 -8.4 -14.0 -9.35 -11.9 -12.8 -12.25 -12.9 -12.35 -10.15 -14.15 -8.25 -15.4 -6.3 -16.5 -3.6 -17.75 Q-0.4 -18.95 3.05 -18.6 L3.35 -18.55 5.7 -18.05 5.85 -18.0 5.8 -16.35 5.2 -15.75 3.1 -14.9 3.05 -14.9 2.9 -14.9 Q2.1 -14.9 1.8 -15.55 L1.45 -16.5 Q1.0 -16.25 1.0 -15.7 1.0 -14.2 2.65 -14.2 L3.0 -14.2 Q4.0 -14.3 4.95 -14.85 L5.7 -15.45 6.0 -16.15 Q6.0 -16.65 5.8 -16.4 L5.8 -16.35 5.8 -16.4 Q6.0 -16.65 6.0 -16.15 L5.7 -15.45 4.95 -14.85 Q4.0 -14.3 3.0 -14.2 L2.65 -14.2 Q1.0 -14.2 1.0 -15.7 1.0 -16.25 1.45 -16.5 L1.8 -15.55 Q2.1 -14.9 2.9 -14.9 L3.05 -14.9 3.1 -14.9 5.2 -15.75 5.8 -16.35 5.85 -18.0 M4.15 -7.6 L4.75 -7.8 4.75 -7.95 4.65 -8.0 7.0 -10.35 6.65 -10.7 Q6.4 -10.6 5.5 -9.1 L4.45 -8.1 4.35 -8.15 4.35 -8.1 3.6 -8.75 3.0 -9.6 2.9 -9.8 2.6 -9.5 2.5 -9.05 2.9 -8.25 2.15 -8.65 2.4 -8.5 Q3.55 -7.65 4.15 -7.6 3.25 -5.65 1.95 -5.65 0.75 -5.65 -0.3 -7.3 0.75 -5.65 1.95 -5.65 3.25 -5.65 4.15 -7.6 M-1.2 -8.95 L-1.2 -8.9 Q-1.2 -7.55 -0.3 -7.3 L-0.15 -7.3 0.0 -7.3 1.05 -7.7 Q1.65 -8.1 1.65 -8.45 L1.55 -8.85 Q0.7 -8.05 0.2 -8.1 L-0.7 -9.75 Q-1.2 -9.55 -1.2 -8.95 L-2.0 -10.75 -1.95 -10.85 -2.0 -10.75 -1.2 -8.95 M-2.6 -11.3 L-3.8 -10.9 Q-4.35 -10.9 -4.65 -11.8 L-4.75 -11.8 -5.2 -11.15 Q-5.05 -9.8 -3.6 -9.8 -3.05 -9.8 -2.45 -10.3 L-1.95 -10.85 -1.9 -10.9 -1.85 -11.05 -1.85 -11.2 Q-1.85 -11.7 -2.1 -11.5 L-2.6 -11.3 -5.55 -13.3 Q-7.6 -14.6 -8.25 -15.4 -7.6 -14.6 -5.55 -13.3 L-2.6 -11.3 M-0.35 -12.4 L-0.4 -12.45 -0.35 -12.45 -0.35 -12.4 M5.7 -15.45 Q5.3 -10.6 4.35 -8.15 5.3 -10.6 5.7 -15.45" fill="#999999" fill-rule="evenodd" stroke="none"/>
    <path d="M-0.35 -12.4 L-0.35 -12.15 -0.4 -11.8 0.35 -10.9 0.45 -10.9 0.7 -10.9 Q2.2 -10.9 2.2 -11.7 L2.1 -11.9 1.05 -11.5 Q-0.25 -11.5 0.0 -13.7 -0.35 -13.4 -0.35 -12.5 L-0.35 -12.45 -0.4 -12.45 -0.35 -12.4 M-3.65 -16.65 Q-4.6 -16.95 -4.85 -15.9 L-4.9 -15.55 -4.95 -14.9 Q-4.95 -13.35 -2.6 -13.35 L-2.25 -13.4 -1.75 -13.6 -1.4 -13.9 -0.8 -14.7 Q-0.8 -15.2 -1.0 -14.95 L-1.3 -15.0 -2.4 -14.55 -2.85 -14.35 Q-4.2 -14.35 -4.25 -15.65 L-4.25 -15.8 -3.65 -16.65" fill="#cccccc" fill-rule="evenodd" stroke="none"/>
  </g>
</svg>
