<?xml version="1.0" encoding="UTF-8" standalone="no"?>
<svg xmlns:xlink="http://www.w3.org/1999/xlink" height="83.8px" width="123.05px" xmlns="http://www.w3.org/2000/svg">
  <g transform="matrix(1.0, 0.0, 0.0, 1.0, 61.55, 41.9)">
    <path d="M58.05 26.95 L57.5 27.7 Q49.7 38.05 37.15 39.9 14.15 43.1 1.5 41.15 -7.9 39.7 -17.1 37.4 -22.75 36.05 -27.95 34.1 -31.85 35.75 -35.5 37.85 -37.25 38.9 -39.3 39.45 -47.4 41.6 -53.85 37.65 -55.25 36.8 -56.05 35.3 -58.1 26.9 -50.25 23.65 L-49.7 23.5 -48.7 23.65 Q-45.6 22.8 -42.8 21.4 L-45.05 21.25 Q-53.5 22.8 -59.25 15.65 -63.6 10.25 -59.8 4.15 -56.45 -1.3 -50.25 -2.5 L-47.25 -2.4 -45.8 -4.4 Q-40.2 -11.75 -35.0 -19.3 L-32.15 -22.95 Q-21.55 -35.2 -6.4 -39.7 L-1.5 -40.85 8.45 -41.9 28.6 -39.85 39.95 -37.85 28.6 -37.8 25.4 -38.1 Q20.55 -38.6 15.75 -39.65 L8.15 -40.0 -0.65 -38.8 Q-6.95 -37.3 -12.8 -34.35 -19.95 -30.8 -25.7 -25.25 -30.6 -20.55 -34.0 -14.7 -38.5 -6.9 -45.6 0.3 L-47.7 2.3 -50.15 4.55 -52.15 6.3 -52.05 6.15 -51.35 4.35 Q-50.55 2.45 -49.55 1.0 L-49.55 0.95 -49.65 0.95 -51.6 1.35 -51.85 1.35 Q-53.55 1.55 -54.85 2.8 -58.45 6.2 -58.55 11.1 L-58.5 11.25 -57.0 13.7 Q-53.55 18.45 -47.3 18.4 L-45.15 17.85 -42.4 18.0 Q-34.7 18.7 -28.15 23.1 L-27.95 23.25 -27.85 23.5 -27.8 23.9 -27.75 24.1 -27.65 24.3 -27.1 25.0 -27.1 25.2 Q-28.85 24.45 -30.7 23.85 L-30.8 24.0 Q-36.2 25.2 -40.7 28.45 -45.7 32.05 -50.05 29.2 L-48.5 28.65 -44.55 26.75 -44.35 26.85 Q-40.15 24.85 -36.2 22.35 L-39.85 21.7 Q-40.4 25.05 -45.55 25.65 L-46.4 25.7 -47.75 26.15 -49.95 26.7 -50.15 26.7 -50.7 26.9 Q-56.2 32.4 -49.95 36.05 L-48.85 36.4 Q-36.6 37.4 -26.5 30.95 -24.1 29.45 -21.15 29.5 -19.45 29.5 -19.5 28.35 -24.65 20.45 -28.8 15.7 L-26.7 17.0 -24.5 18.35 Q-18.8 22.1 -17.65 28.35 L-17.65 28.4 -17.6 28.55 -17.5 29.4 -18.5 30.9 Q-22.05 31.8 -25.45 33.1 -11.35 34.95 2.9 37.5 20.5 40.7 37.85 36.35 48.95 33.6 57.45 26.55 58.1 26.6 58.05 26.95 M41.9 -7.15 L42.1 -8.0 42.35 -8.2 42.45 -7.75 42.65 -6.8 Q44.85 4.35 41.95 16.15 40.95 20.35 38.05 23.1 L37.65 23.45 Q36.85 24.1 36.25 23.25 L35.7 22.15 Q34.9 20.05 36.45 17.65 37.35 16.3 37.75 14.65 40.4 4.1 42.0 -6.45 L41.9 -7.15 M32.45 -15.85 L32.6 -16.15 32.9 -16.5 32.95 -16.6 33.1 -16.65 Q35.9 -6.55 34.3 4.15 33.1 12.1 30.15 19.65 28.7 23.35 25.6 24.75 L25.0 24.85 24.4 24.2 Q23.15 21.2 25.25 18.05 L26.3 16.4 Q27.95 13.4 28.9 10.0 L29.5 7.2 Q30.5 3.65 30.8 -0.1 L31.35 -4.0 31.85 -6.9 31.95 -7.8 31.95 -8.0 32.15 -14.9 32.15 -15.0 32.45 -15.85 M20.8 -7.05 L20.9 -6.45 Q21.7 -1.6 18.75 3.1 L18.7 3.2 18.1 3.65 17.55 4.2 16.85 5.15 Q16.9 4.2 17.85 3.15 L17.8 2.8 17.75 2.6 Q20.15 -1.9 20.65 -6.95 L20.8 -7.05 M45.7 17.45 L46.2 16.1 Q49.7 9.0 50.75 1.95 L51.35 2.85 51.4 2.9 51.55 3.05 52.0 7.1 52.1 7.5 Q51.2 14.85 47.7 20.85 47.4 21.4 46.8 20.85 L46.35 20.4 Q45.3 19.1 45.7 17.45" fill="#000000" fill-rule="evenodd" stroke="none"/>
    <path d="M-57.0 13.7 L-58.5 11.25 -58.55 11.1 Q-58.45 6.2 -54.85 2.8 -53.55 1.55 -51.85 1.35 L-51.6 1.35 -49.65 0.95 -51.5 3.95 -51.25 4.05 -51.35 4.35 -52.05 6.15 -52.15 6.3 -50.15 4.55 Q-46.9 6.15 -44.15 8.6 L-44.05 8.8 Q-43.35 9.05 -42.65 9.4 -55.35 6.05 -57.0 13.7 M-45.6 0.3 Q-38.5 -6.9 -34.0 -14.7 -30.6 -20.55 -25.7 -25.25 -19.95 -30.8 -12.8 -34.35 -6.95 -37.3 -0.65 -38.8 L8.15 -40.0 Q4.2 -37.65 -0.6 -36.2 -4.45 -35.05 -7.65 -32.5 -22.8 -20.3 -34.25 -4.9 L-35.8 -3.25 Q-40.8 1.45 -45.6 0.3" fill="#aaaaaa" fill-rule="evenodd" stroke="none"/>
    <path d="M39.95 -37.85 L52.0 -33.7 Q56.55 -33.0 59.25 -21.5 L58.95 -22.75 59.15 -21.65 47.45 -29.95 48.8 -25.9 Q49.35 -16.5 42.45 -7.75 L42.35 -8.2 42.1 -8.0 41.9 -7.15 Q40.7 -13.35 36.1 -16.8 L35.8 -17.75 Q35.6 -17.9 35.35 -18.0 L34.5 -18.3 33.85 -18.15 33.8 -18.1 33.4 -17.95 32.75 -17.25 32.6 -16.95 32.45 -15.85 32.15 -15.0 32.15 -14.9 Q28.9 1.05 19.1 12.9 9.25 24.75 -8.5 23.95 -16.85 23.65 -33.5 11.1 L-33.95 10.75 Q-40.7 5.55 -47.7 2.3 L-45.6 0.3 Q-40.8 1.45 -35.8 -3.25 L-34.25 -4.9 Q-22.8 -20.3 -7.65 -32.5 -4.45 -35.05 -0.6 -36.2 4.2 -37.65 8.15 -40.0 L15.75 -39.65 Q20.55 -38.6 25.4 -38.1 L28.6 -37.8 39.95 -37.85 M23.45 -18.85 L23.45 -18.8 23.5 -18.85 23.45 -18.85 M20.8 -7.05 L20.65 -6.95 Q20.15 -1.9 17.75 2.6 L17.8 2.8 17.85 3.15 Q16.9 4.2 16.85 5.15 L17.55 4.2 18.1 3.65 18.7 3.2 18.75 3.1 Q21.7 -1.6 20.9 -6.45 L20.95 -7.0 20.8 -7.05" fill="#858585" fill-rule="evenodd" stroke="none"/>
    <path d="M32.45 -15.85 L32.6 -16.95 32.75 -17.25 33.4 -17.95 33.8 -18.1 33.85 -18.15 34.5 -18.3 35.35 -18.0 Q35.6 -17.9 35.8 -17.75 L36.1 -16.8 37.45 -11.2 Q38.7 -3.9 37.55 3.9 36.7 9.5 34.9 15.15 33.65 19.05 31.35 22.1 L31.3 22.1 30.5 23.15 27.65 25.85 Q26.15 26.15 25.0 25.05 L25.0 24.85 25.6 24.75 Q28.7 23.35 30.15 19.65 33.1 12.1 34.3 4.15 35.9 -6.55 33.1 -16.65 L32.95 -16.6 32.9 -16.5 32.6 -16.15 32.45 -15.85 M29.5 7.2 L28.9 10.0 Q27.95 13.4 26.3 16.4 L29.5 7.2 M42.65 -6.8 L42.85 -7.05 43.2 -7.2 44.2 -7.5 45.05 -7.2 45.6 -6.9 Q50.4 9.1 40.85 22.15 L40.4 22.7 Q39.9 23.35 38.9 23.3 L38.05 23.1 Q40.95 20.35 41.95 16.15 44.85 4.35 42.65 -6.8 M53.5 1.45 Q54.55 1.5 55.1 2.35 L55.3 2.65 Q56.25 11.05 52.65 17.2 L52.45 17.45 Q50.65 20.35 47.8 22.75 47.5 23.0 47.1 22.6 46.0 21.5 45.65 20.3 45.25 18.95 45.7 17.45 45.3 19.1 46.35 20.4 L46.8 20.85 Q47.4 21.4 47.7 20.85 51.2 14.85 52.1 7.5 L52.0 7.1 51.55 3.05 51.4 2.9 51.7 2.35 Q52.35 1.5 53.45 1.5 L53.5 1.45" fill="#5f5f5f" fill-rule="evenodd" stroke="none"/>
    <path d="M23.45 -18.85 L23.5 -18.85 23.45 -18.8 23.45 -18.85" fill="#c63f3d" fill-rule="evenodd" stroke="none"/>
    <path d="M59.15 -21.65 L60.3 -14.4 61.15 -3.6 Q62.55 25.3 58.05 26.95 58.1 26.6 57.45 26.55 48.95 33.6 37.85 36.35 20.5 40.7 2.9 37.5 -11.35 34.95 -25.45 33.1 -22.05 31.8 -18.5 30.9 L-17.5 29.4 -17.6 28.55 -17.65 28.4 -17.65 28.35 Q-18.8 22.1 -24.5 18.35 L-26.7 17.0 Q-30.05 13.8 -33.5 11.1 -16.85 23.65 -8.5 23.95 9.25 24.75 19.1 12.9 28.9 1.05 32.15 -14.9 L31.95 -8.0 31.95 -7.8 31.35 -4.0 30.8 -0.1 Q30.5 3.65 29.5 7.2 L26.3 16.4 25.25 18.05 Q23.15 21.2 24.4 24.2 L25.0 24.85 25.0 25.05 Q26.15 26.15 27.65 25.85 L30.5 23.15 31.3 22.1 31.35 22.1 Q33.65 19.05 34.9 15.15 36.7 9.5 37.55 3.9 38.7 -3.9 37.45 -11.2 L36.1 -16.8 Q40.7 -13.35 41.9 -7.15 L42.0 -6.45 Q40.4 4.1 37.75 14.65 37.35 16.3 36.45 17.65 34.9 20.05 35.7 22.15 L36.25 23.25 Q36.85 24.1 37.65 23.45 L38.05 23.1 38.9 23.3 Q39.9 23.35 40.4 22.7 L40.85 22.15 Q50.4 9.1 45.6 -6.9 L45.05 -7.2 44.2 -7.5 43.2 -7.2 42.85 -7.05 42.65 -6.8 42.45 -7.75 Q49.35 -16.5 48.8 -25.9 L47.45 -29.95 59.15 -21.65 M-47.75 26.15 L-46.4 25.7 -45.55 25.65 Q-40.4 25.05 -39.85 21.7 L-36.2 22.35 Q-40.15 24.85 -44.35 26.85 L-44.55 26.75 -48.5 28.65 -48.45 27.75 Q-48.3 26.8 -47.75 26.15 M52.65 17.2 Q56.25 11.05 55.3 2.65 L55.1 2.35 Q54.55 1.5 53.5 1.45 L53.45 1.45 53.45 1.5 Q52.35 1.5 51.7 2.35 L51.4 2.9 51.35 2.85 50.75 1.95 Q49.7 9.0 46.2 16.1 L45.7 17.45 Q45.25 18.95 45.65 20.3 46.0 21.5 47.1 22.6 47.5 23.0 47.8 22.75 50.65 20.35 52.45 17.45 L52.75 17.25 52.65 17.2" fill="#696969" fill-rule="evenodd" stroke="none"/>
    <path d="M31.95 -7.8 L31.85 -6.9 31.35 -4.0 31.95 -7.8 M53.45 1.5 L53.45 1.45 53.5 1.45 53.45 1.5" fill="#802b32" fill-rule="evenodd" stroke="none"/>
    <path d="M-26.7 17.0 L-28.8 15.7 Q-24.65 20.45 -19.5 28.35 -19.45 29.5 -21.15 29.5 -24.1 29.45 -26.5 30.95 -36.6 37.4 -48.85 36.4 L-49.95 36.05 Q-56.2 32.4 -50.7 26.9 L-50.15 26.7 -49.95 26.7 -47.75 26.15 Q-48.3 26.8 -48.45 27.75 L-48.5 28.65 -50.05 29.2 Q-45.7 32.05 -40.7 28.45 -36.2 25.2 -30.8 24.0 L-30.7 23.85 Q-28.85 24.45 -27.1 25.2 L-27.1 25.0 -27.65 24.3 -27.75 24.1 -27.8 23.9 -27.85 23.5 -27.95 23.25 -28.15 23.1 Q-34.7 18.7 -42.4 18.0 L-45.15 17.85 -47.3 18.4 Q-53.55 18.45 -57.0 13.7 -55.35 6.05 -42.65 9.4 -43.35 9.05 -44.05 8.8 L-44.15 8.6 Q-46.9 6.15 -50.15 4.55 L-47.7 2.3 Q-40.7 5.55 -33.95 10.75 L-33.5 11.1 Q-30.05 13.8 -26.7 17.0" fill="#7b7b7b" fill-rule="evenodd" stroke="none"/>
    <path d="M-49.65 0.95 L-49.55 0.95 -49.55 1.0 Q-50.55 2.45 -51.35 4.35 L-51.25 4.05 -51.5 3.95 -49.65 0.95" fill="#d67154" fill-rule="evenodd" stroke="none"/>
  </g>
</svg>
