<?xml version="1.0" encoding="UTF-8" standalone="no"?>
<svg xmlns:xlink="http://www.w3.org/1999/xlink" height="33.3px" width="73.1px" xmlns="http://www.w3.org/2000/svg">
  <g transform="matrix(1.0, 0.0, 0.0, 1.0, 34.7, 16.65)">
    <path d="M17.15 -14.95 L22.6 -12.8 Q27.85 -10.5 27.95 -7.35 28.15 -6.25 27.7 -4.9 L27.2 -4.35 Q24.65 -3.1 21.85 -2.55 L21.15 -1.95 24.85 -1.15 25.4 -0.5 25.55 0.15 Q24.1 3.85 22.05 6.7 15.25 16.25 1.85 16.65 L-5.8 16.05 Q-12.0 14.85 -16.4 10.0 -20.1 5.85 -24.5 5.15 L-34.1 4.1 -34.25 3.5 Q-36.15 -4.8 -30.15 -8.6 L-28.45 -9.6 -25.6 -10.8 -21.35 -12.0 -12.75 -12.95 -6.65 -14.3 -6.2 -14.3 -6.25 -14.4 -3.75 -14.85 -4.25 -14.8 9.55 -16.5 Q13.55 -16.2 17.15 -14.95 M2.8 -13.35 L-26.55 -7.45 -26.75 -7.45 Q-28.95 -7.1 -31.25 -4.65 -33.55 -2.25 -32.65 1.95 L-29.25 2.1 -26.25 1.6 -28.4 -0.3 -28.2 -0.35 Q-25.6 0.75 -23.15 2.0 -22.4 2.2 -21.6 2.55 -13.65 5.85 -7.3 11.95 -6.7 12.5 -5.8 12.65 1.95 13.9 8.5 11.7 5.2 10.0 3.25 6.85 L3.65 6.35 4.1 6.1 Q8.5 8.5 13.35 9.55 L17.15 6.95 19.5 4.75 Q21.1 3.0 22.25 0.9 L18.55 -0.45 16.75 -1.45 Q16.35 -1.7 16.25 -2.05 15.45 -2.4 14.8 -2.85 18.35 -4.7 22.55 -5.55 L25.35 -6.0 25.05 -7.5 22.8 -9.25 Q20.75 -9.5 18.55 -10.55 L16.3 -11.5 Q12.2 -13.1 8.0 -13.4 5.4 -13.6 2.8 -13.35" fill="#000000" fill-rule="evenodd" stroke="none"/>
    <path d="M38.35 -16.65 L38.4 -16.65 38.4 -16.55 38.35 -16.65" fill="#c63f3d" fill-rule="evenodd" stroke="none"/>
    <path d="M2.8 -13.35 Q5.4 -13.6 8.0 -13.4 12.2 -13.1 16.3 -11.5 L18.55 -10.55 Q20.75 -9.5 22.8 -9.25 L25.05 -7.5 25.35 -6.0 22.55 -5.55 Q18.35 -4.7 14.8 -2.85 15.45 -2.4 16.25 -2.05 16.35 -1.7 16.75 -1.45 L18.55 -0.45 22.25 0.9 Q21.1 3.0 19.5 4.75 L17.15 6.95 13.35 9.55 Q8.5 8.5 4.1 6.1 L3.65 6.35 3.25 6.85 Q5.2 10.0 8.5 11.7 1.95 13.9 -5.8 12.65 -6.7 12.5 -7.3 11.95 -13.65 5.85 -21.6 2.55 -22.4 2.2 -23.15 2.0 -25.6 0.75 -28.2 -0.35 L-28.4 -0.3 -26.25 1.6 -29.25 2.1 -32.65 1.95 Q-33.55 -2.25 -31.25 -4.65 -28.95 -7.1 -26.75 -7.45 L-26.55 -7.45 2.8 -13.35" fill="#aaaaaa" fill-rule="evenodd" stroke="none"/>
  </g>
</svg>
