<?xml version="1.0" encoding="UTF-8" standalone="no"?>
<svg xmlns:xlink="http://www.w3.org/1999/xlink" height="40.2px" width="28.2px" xmlns="http://www.w3.org/2000/svg">
  <g transform="matrix(1.0, 0.0, 0.0, 1.0, 35.1, 21.15)">
    <path d="M-30.55 -8.05 L-28.95 -9.15 -19.7 -9.85 -18.45 -11.6 Q-17.25 -13.35 -16.5 -15.3 -15.05 -19.2 -11.4 -21.15 L-8.9 -20.4 Q-7.7 -19.95 -6.9 -18.85 -7.55 -15.0 -9.35 -11.6 L-11.15 -8.5 -7.65 -9.35 Q-7.4 -5.8 -8.2 -2.65 L-9.2 2.25 Q-10.05 8.4 -12.5 14.15 -13.55 16.6 -15.25 18.8 L-17.35 19.05 Q-21.55 17.25 -21.4 12.65 -21.35 11.7 -22.1 11.1 L-28.15 6.55 -34.1 2.75 Q-35.05 2.1 -35.1 1.05 -35.25 -1.95 -33.7 -4.45 -32.5 -6.5 -30.55 -8.05 M-30.95 -4.45 Q-32.35 -2.6 -33.0 0.8 L-28.15 3.05 Q-25.3 4.45 -22.85 6.65 L-21.65 7.95 -21.45 5.05 -21.0 4.6 -20.25 5.4 Q-20.35 11.3 -16.9 15.95 -14.3 13.1 -13.5 9.15 L-13.15 7.05 -16.85 5.8 -17.35 4.7 -16.8 4.35 -12.85 4.7 Q-10.75 -0.7 -10.0 -6.55 L-14.2 -5.25 -13.9 -7.15 -9.45 -18.7 Q-12.4 -18.05 -13.35 -15.15 -14.1 -12.85 -15.15 -10.65 -16.0 -8.85 -17.75 -7.9 -18.65 -7.4 -20.3 -7.0 -22.0 -6.65 -25.45 -7.05 -28.85 -7.45 -30.95 -4.45" fill="#000000" fill-rule="evenodd" stroke="none"/>
    <path d="M-30.95 -4.45 Q-28.85 -7.45 -25.45 -7.05 -22.0 -6.65 -20.3 -7.0 -18.65 -7.4 -17.75 -7.9 -16.0 -8.85 -15.15 -10.65 -14.1 -12.85 -13.35 -15.15 -12.4 -18.05 -9.45 -18.7 L-13.9 -7.15 -14.2 -5.25 -10.0 -6.55 Q-10.75 -0.7 -12.85 4.7 L-16.8 4.35 -17.35 4.7 -16.85 5.8 -13.15 7.05 -13.5 9.15 Q-14.3 13.1 -16.9 15.95 -20.35 11.3 -20.25 5.4 L-21.0 4.6 -21.45 5.05 -21.65 7.95 -22.85 6.65 Q-25.3 4.45 -28.15 3.05 L-33.0 0.8 Q-32.35 -2.6 -30.95 -4.45" fill="#aaaaaa" fill-rule="evenodd" stroke="none"/>
  </g>
</svg>
