<?xml version="1.0" encoding="UTF-8" standalone="no"?>
<svg xmlns:xlink="http://www.w3.org/1999/xlink" height="97.2px" width="119.3px" xmlns="http://www.w3.org/2000/svg">
  <g transform="matrix(1.0, 0.0, 0.0, 1.0, 0.0, 0.0)">
    <path d="M118.2 75.0 Q119.4 74.9 119.3 76.1 L119.3 76.3 Q108.25 88.1 92.3 91.85 75.95 95.65 59.25 92.95 L50.4 91.55 31.7 87.5 18.75 95.4 Q11.6 99.5 6.5 94.15 4.25 91.8 5.3 88.5 6.3 85.2 8.75 84.05 12.1 80.4 17.25 78.5 L19.5 77.5 20.55 76.95 Q22.95 67.1 20.75 57.15 L20.8 56.15 20.65 55.95 Q19.55 55.35 18.35 54.9 L9.4 52.4 5.4 50.65 Q2.85 49.25 1.2 46.65 L0.5 45.25 Q-0.4 43.0 0.35 40.65 1.25 37.75 3.3 35.85 L4.85 34.8 Q6.6 33.9 8.5 33.5 10.85 33.15 12.95 34.2 L22.4 22.4 Q26.05 17.9 35.8 11.3 45.55 4.7 52.45 2.25 59.35 -0.25 68.35 0.0 77.35 0.2 91.75 6.9 96.0 8.9 100.25 10.15 94.5 10.6 88.8 8.2 78.25 3.7 67.45 2.85 L67.35 2.9 Q58.1 2.9 44.95 10.1 31.75 17.25 25.3 24.15 18.9 30.95 14.6 37.8 L14.5 37.9 13.55 38.95 12.6 39.75 Q11.5 40.85 9.25 41.4 L7.55 41.75 7.05 41.8 11.8 36.3 9.05 36.85 Q7.1 37.35 5.45 38.4 3.65 39.65 2.95 41.9 L3.85 45.05 4.2 45.85 Q5.0 47.4 6.6 48.3 L9.5 49.45 Q14.0 50.3 18.35 51.85 20.45 52.65 22.3 53.7 32.35 59.3 35.05 70.3 35.25 71.1 35.1 72.0 L35.6 76.3 35.4 76.35 35.15 76.15 34.55 74.95 33.9 74.15 33.8 73.55 32.15 74.65 Q31.1 75.3 30.4 76.35 25.35 83.8 17.25 86.75 15.55 87.4 14.5 86.4 L14.85 86.25 Q20.9 83.2 25.4 77.9 L28.45 73.6 Q30.05 71.0 32.6 69.75 29.7 62.2 23.15 57.45 25.95 66.2 23.85 74.85 L24.75 74.2 Q25.3 76.05 23.7 77.6 L22.6 78.45 22.55 78.5 21.5 79.2 Q16.55 82.25 11.8 85.5 L8.6 87.7 Q7.4 90.3 9.5 93.3 9.85 93.8 10.5 93.9 18.3 94.9 24.2 89.6 31.05 83.45 40.0 81.4 L43.45 79.7 Q43.05 74.95 41.45 70.5 L41.4 70.2 41.7 70.45 Q44.0 72.6 45.1 75.6 46.0 78.0 45.95 80.4 45.8 82.45 43.6 83.25 41.4 84.05 40.0 84.8 L37.55 85.45 50.4 87.8 68.0 90.0 Q81.5 91.3 94.5 87.4 107.6 83.5 118.2 75.0 M94.9 32.75 L95.5 34.8 Q98.1 44.65 95.2 55.3 94.15 59.25 92.4 62.95 91.6 67.25 89.05 70.2 L86.15 72.7 Q85.75 73.0 85.4 72.5 83.7 69.85 86.15 66.95 87.4 65.45 88.15 63.65 93.7 50.65 93.95 36.55 L94.0 35.65 Q94.2 33.9 94.9 32.75 M82.7 35.4 Q82.2 39.5 79.7 42.95 L79.6 43.1 77.5 43.75 Q77.3 42.85 78.35 42.35 80.6 38.1 81.95 33.95 L82.0 33.9 Q82.5 34.35 82.65 35.2 L82.7 35.4 M98.75 70.55 L98.45 71.0 Q97.55 72.4 96.3 71.25 94.15 69.4 96.15 66.9 99.45 62.7 100.7 57.4 102.55 49.45 103.7 41.55 L103.85 41.55 104.1 42.9 Q106.35 57.55 98.75 70.55 M108.1 70.75 L107.6 71.5 Q107.25 72.0 106.75 71.5 104.7 69.55 106.35 66.8 111.05 58.95 111.5 50.15 L111.95 49.85 112.25 49.75 Q113.1 50.55 113.4 51.7 L113.55 53.2 113.55 53.35 Q112.75 62.85 108.1 70.75 M77.85 18.35 Q80.2 24.95 78.9 31.9 76.85 42.9 66.4 47.15 62.15 48.9 57.4 48.2 44.9 46.3 44.7 34.25 44.65 22.45 52.65 13.2 56.35 8.9 62.05 8.6 74.1 7.75 77.85 18.35 M66.85 11.4 L62.3 11.1 Q52.2 12.75 49.55 22.95 48.6 26.55 48.1 30.25 L47.55 32.75 Q47.25 41.1 54.9 43.9 65.15 47.65 71.5 40.25 L72.5 38.95 Q78.45 30.7 76.05 20.45 74.65 14.45 68.95 11.85 L66.85 11.4 M57.8 22.5 Q58.85 23.2 59.45 24.2 61.7 26.65 60.0 31.15 58.75 34.45 56.7 32.75 L56.0 32.05 Q54.9 30.7 55.0 28.8 L55.05 26.75 Q55.2 25.3 55.75 24.35 56.4 23.05 57.8 22.5" fill="#000000" fill-rule="evenodd" stroke="none"/>
    <path d="M67.35 2.9 L67.45 2.85 Q78.25 3.7 88.8 8.2 94.5 10.6 100.25 10.15 106.55 13.3 110.7 21.6 111.95 32.0 103.7 41.55 102.65 37.05 97.8 35.65 L97.3 33.2 97.05 33.05 96.6 32.9 96.0 33.05 95.65 33.5 94.9 32.75 Q94.2 33.9 94.0 35.65 88.2 52.2 68.15 64.6 55.6 70.35 41.7 70.45 L38.25 62.8 Q34.7 54.8 28.3 46.9 24.35 42.05 14.85 38.0 23.2 39.75 29.9 33.15 35.8 27.3 41.2 20.8 46.25 14.75 52.7 10.15 59.45 5.4 67.35 2.9 M82.7 35.4 L82.65 35.2 Q82.5 34.35 82.0 33.9 L81.95 33.95 Q80.6 38.1 78.35 42.35 77.3 42.85 77.5 43.75 L79.6 43.1 79.7 42.95 Q82.2 39.5 82.7 35.4 M77.85 18.35 Q74.1 7.75 62.05 8.6 56.35 8.9 52.65 13.2 44.65 22.45 44.7 34.25 44.9 46.3 57.4 48.2 62.15 48.9 66.4 47.15 76.85 42.9 78.9 31.9 80.2 24.95 77.85 18.35" fill="#b64838" fill-rule="evenodd" stroke="none"/>
    <path d="M95.65 33.5 L95.55 33.6 95.5 34.8 94.9 32.75 95.65 33.5" fill="#d67154" fill-rule="evenodd" stroke="none"/>
    <path d="M95.5 34.8 L95.55 33.6 95.65 33.5 97.8 35.65 Q99.15 43.95 97.95 52.55 96.7 61.35 91.95 68.75 90.75 70.55 89.05 70.2 91.6 67.25 92.4 62.95 94.15 59.25 95.2 55.3 98.1 44.65 95.5 34.8 M104.1 42.9 L104.1 42.25 Q104.4 41.85 104.95 41.85 L104.95 41.8 105.4 41.95 105.6 42.1 Q109.3 55.45 103.15 67.5 101.6 70.5 98.75 70.55 106.35 57.55 104.1 42.9 M113.4 51.7 Q113.7 51.3 114.2 51.3 L114.2 51.25 114.6 51.4 114.8 51.55 Q115.35 54.4 114.7 57.5 L114.6 57.95 Q113.55 64.85 109.35 69.9 108.75 70.7 108.1 70.75 112.75 62.85 113.55 53.35 L113.55 53.2 113.4 51.7" fill="#7f1a18" fill-rule="evenodd" stroke="none"/>
    <path d="M118.2 75.0 Q107.6 83.5 94.5 87.4 81.5 91.3 68.0 90.0 L50.4 87.8 37.55 85.45 40.0 84.8 Q41.4 84.05 43.6 83.25 45.8 82.45 45.95 80.4 46.0 78.0 45.1 75.6 44.0 72.6 41.7 70.45 55.6 70.35 68.15 64.6 88.2 52.2 94.0 35.65 L93.95 36.55 Q93.7 50.65 88.15 63.65 87.4 65.45 86.15 66.95 83.7 69.85 85.4 72.5 85.75 73.0 86.15 72.7 L89.05 70.2 Q90.75 70.55 91.95 68.75 96.7 61.35 97.95 52.55 99.15 43.95 97.8 35.65 102.65 37.05 103.7 41.55 111.95 32.0 110.7 21.6 118.8 38.1 118.2 75.0 M98.75 70.55 Q101.6 70.5 103.15 67.5 109.3 55.45 105.6 42.1 L105.4 41.95 104.95 41.8 104.95 41.85 Q104.4 41.85 104.1 42.25 L104.1 42.9 103.85 41.55 103.7 41.55 Q102.55 49.45 100.7 57.4 99.45 62.7 96.15 66.9 94.15 69.4 96.3 71.25 97.55 72.4 98.45 71.0 L98.75 70.55 M108.1 70.75 Q108.75 70.7 109.35 69.9 113.55 64.85 114.6 57.95 L114.7 57.5 Q115.35 54.4 114.8 51.55 L114.6 51.4 114.2 51.25 114.2 51.3 Q113.7 51.3 113.4 51.7 113.1 50.55 112.25 49.75 L111.95 49.85 111.5 50.15 Q111.05 58.95 106.35 66.8 104.7 69.55 106.75 71.5 107.25 72.0 107.6 71.5 L108.1 70.75" fill="#912c25" fill-rule="evenodd" stroke="none"/>
    <path d="M97.8 35.65 L95.65 33.5 96.0 33.05 96.6 32.9 97.05 33.05 97.3 33.2 97.8 35.65" fill="#c63f3d" fill-rule="evenodd" stroke="none"/>
    <path d="M71.5 40.25 Q77.45 28.15 72.05 15.9 71.45 14.5 70.0 13.85 67.95 12.9 66.85 11.4 L68.95 11.85 Q74.65 14.45 76.05 20.45 78.45 30.7 72.5 38.95 L71.5 40.25" fill="#ecbdb7" fill-rule="evenodd" stroke="none"/>
    <path d="M66.85 11.4 Q67.95 12.9 70.0 13.85 71.45 14.5 72.05 15.9 77.45 28.15 71.5 40.25 65.15 47.65 54.9 43.9 47.25 41.1 47.55 32.75 L48.1 30.25 Q48.6 26.55 49.55 22.95 52.2 12.75 62.3 11.1 L66.85 11.4 M57.8 22.5 Q56.4 23.05 55.75 24.35 55.2 25.3 55.05 26.75 L55.0 28.8 Q54.9 30.7 56.0 32.05 L56.7 32.75 Q58.75 34.45 60.0 31.15 61.7 26.65 59.45 24.2 58.85 23.2 57.8 22.5" fill="#ffffff" fill-rule="evenodd" stroke="none"/>
    <path d="M4.2 45.85 L3.85 45.05 2.95 41.9 Q3.65 39.65 5.45 38.4 7.1 37.35 9.05 36.85 L11.8 36.3 7.05 41.8 7.55 41.75 9.25 41.4 9.75 41.3 13.05 43.25 13.2 43.55 13.3 43.9 13.2 44.25 13.05 44.6 7.25 44.0 Q5.75 45.6 4.2 45.85 M14.6 37.8 Q18.9 30.95 25.3 24.15 31.75 17.25 44.95 10.1 58.1 2.9 67.35 2.9 59.45 5.4 52.7 10.15 46.25 14.75 41.2 20.8 35.8 27.3 29.9 33.15 23.2 39.75 14.85 38.0 L14.6 37.8" fill="#cd6354" fill-rule="evenodd" stroke="none"/>
    <path d="M41.7 70.45 L41.4 70.2 41.45 70.5 Q43.05 74.95 43.45 79.7 L40.0 81.4 Q31.05 83.45 24.2 89.6 18.3 94.9 10.5 93.9 9.85 93.8 9.5 93.3 7.4 90.3 8.6 87.7 L11.8 85.5 14.25 85.9 14.85 86.25 14.5 86.4 Q15.55 87.4 17.25 86.75 25.35 83.8 30.4 76.35 31.1 75.3 32.15 74.65 L33.8 73.55 33.9 74.15 34.55 74.95 35.15 76.15 35.4 76.35 35.6 76.3 35.1 72.0 Q35.25 71.1 35.05 70.3 32.35 59.3 22.3 53.7 20.45 52.65 18.35 51.85 14.0 50.3 9.5 49.45 L6.6 48.3 Q5.0 47.4 4.2 45.85 5.75 45.6 7.25 44.0 L13.05 44.6 13.2 44.25 13.3 43.9 13.2 43.55 13.05 43.25 9.75 41.3 9.25 41.4 Q11.5 40.85 12.6 39.75 L13.55 38.95 14.5 37.9 14.85 38.0 Q24.35 42.05 28.3 46.9 34.7 54.8 38.25 62.8 L41.7 70.45" fill="#a84233" fill-rule="evenodd" stroke="none"/>
    <path d="M14.5 37.9 L14.6 37.8 14.85 38.0 14.5 37.9" fill="#df9380" fill-rule="evenodd" stroke="none"/>
    <path d="M11.8 85.5 Q16.55 82.25 21.5 79.2 L22.55 78.5 22.6 78.45 23.7 77.6 Q25.3 76.05 24.75 74.2 L23.85 74.85 Q25.95 66.2 23.15 57.45 29.7 62.2 32.6 69.75 30.05 71.0 28.45 73.6 L25.4 77.9 Q20.9 83.2 14.85 86.25 L14.25 85.9 11.8 85.5" fill="#802b32" fill-rule="evenodd" stroke="none"/>
  </g>
</svg>
