<?xml version="1.0" encoding="UTF-8" standalone="no"?>
<svg xmlns:xlink="http://www.w3.org/1999/xlink" height="264.0px" width="494.4px" xmlns="http://www.w3.org/2000/svg">
  <g transform="matrix(1.0, 0.0, 0.0, 1.0, 247.2, 132.0)">
    <path d="M100.4 -98.75 Q98.7 -103.05 96.35 -107.35 95.1 -109.65 92.4 -110.25 L92.05 -110.0 Q92.65 -103.5 90.3 -97.85 L89.25 -99.45 88.85 -101.45 87.75 -108.25 Q85.95 -120.35 82.2 -132.0 L133.15 -132.0 152.15 -122.75 191.95 -102.1 161.3 -109.8 133.65 -123.5 169.25 -100.4 143.35 -110.1 123.15 -124.75 149.9 -99.1 123.65 -113.4 123.05 -113.25 112.15 -125.0 128.8 -97.2 111.2 -112.45 110.75 -111.9 101.9 -127.0 110.85 -100.5 110.8 -99.6 101.9 -111.75 101.3 -111.6 92.9 -127.25 100.4 -98.75 M83.45 -110.05 L82.45 -111.35 76.75 -97.5 76.6 -97.9 73.8 -126.5 74.15 -126.75 83.45 -110.05 M70.7 -111.15 L69.85 -111.35 65.65 -95.4 64.9 -97.0 66.4 -123.4 67.05 -123.35 70.7 -111.15 M58.25 -111.65 L50.3 -100.35 50.65 -103.85 60.9 -119.6 61.4 -118.95 58.25 -111.65 M51.1 -111.65 L50.25 -112.5 37.55 -100.65 38.15 -101.95 54.65 -121.1 55.15 -120.6 51.1 -111.65 M40.65 -108.9 L40.5 -110.55 25.0 -100.8 29.8 -105.1 51.4 -124.5 51.9 -124.0 40.65 -108.9 M33.05 -114.65 L10.15 -99.5 11.75 -103.1 39.9 -126.35 40.4 -125.7 40.1 -125.25 33.05 -114.65 M17.05 -112.8 L17.2 -115.1 -8.6 -101.0 -7.9 -102.05 -5.55 -103.5 28.6 -124.7 28.9 -124.35 28.6 -124.05 17.05 -112.8 M4.7 -117.65 L4.0 -118.0 -20.1 -106.5 -18.7 -108.95 16.7 -125.7 17.4 -125.2 4.7 -117.65 M-11.8 -119.5 L-34.65 -109.7 -30.2 -113.55 -20.55 -117.45 1.75 -126.4 2.15 -126.0 -11.8 -119.5 M-25.2 -117.25 L-21.45 -120.25 -21.5 -120.9 -47.3 -116.75 -35.35 -119.8 -6.55 -127.05 -6.1 -126.6 -25.2 -117.25 M-27.9 -125.5 L-28.0 -126.15 -55.6 -124.35 -49.75 -126.75 -43.85 -127.35 -13.95 -130.4 -15.9 -129.7 -27.9 -125.5 M-143.6 -132.0 L-127.25 -121.5 -138.7 -123.85 -139.5 -123.25 -132.2 -118.25 -146.5 -123.0 -147.35 -122.65 -142.35 -116.75 -153.85 -121.75 -154.05 -120.85 -151.1 -116.15 -162.85 -122.0 -163.25 -121.85 -161.45 -114.5 -169.9 -123.2 -170.5 -123.1 -170.6 -113.55 -177.85 -122.15 -178.45 -122.15 -179.1 -121.5 -178.85 -113.25 -183.55 -122.5 -184.15 -122.25 -185.85 -113.5 -188.6 -120.55 -189.0 -120.75 -191.95 -112.6 -194.85 -119.25 -198.7 -112.5 -200.1 -118.4 -208.45 -111.1 -204.4 -120.1 -215.95 -112.35 -212.45 -118.1 -213.1 -119.0 -222.45 -112.5 -217.5 -119.15 -217.95 -120.1 -232.35 -111.25 -229.7 -114.25 -228.1 -115.25 -211.4 -125.35 -213.1 -121.25 -205.35 -125.4 -204.75 -124.6 -206.7 -120.75 -198.0 -125.5 -197.75 -121.25 -192.75 -125.65 -192.3 -125.5 -192.0 -121.4 -187.0 -126.65 -183.95 -124.35 -181.75 -127.9 -176.2 -124.65 -175.7 -129.25 -175.0 -129.35 -164.85 -124.5 -164.8 -128.8 -155.85 -126.6 -157.2 -130.25 -147.1 -128.6 -150.15 -132.0 -143.6 -132.0 M242.1 -118.75 L242.55 -118.5 222.9 -120.85 212.65 -126.0 242.1 -118.75 M237.7 -112.35 L238.15 -112.1 213.75 -115.2 213.6 -114.85 190.65 -122.5 237.7 -112.35 M224.1 -108.45 L226.15 -107.35 199.25 -112.5 198.9 -111.8 174.4 -121.5 224.1 -108.45 M210.65 -104.15 L212.0 -103.25 180.65 -111.45 159.65 -121.75 210.65 -104.15 M176.0 -64.45 L179.65 -65.5 177.65 -63.0 178.15 -63.25 182.4 -65.75 183.15 -63.75 184.65 -66.25 187.65 -63.25 186.9 -66.75 191.0 -65.55 194.4 -63.35 192.8 -63.85 188.7 -64.0 188.3 -61.15 185.25 -63.6 182.8 -60.85 182.05 -63.35 181.15 -63.65 176.5 -61.0 176.45 -62.9 175.75 -63.15 171.4 -62.25 176.0 -64.45" fill="#2b5516" fill-rule="evenodd" stroke="none"/>
    <path d="M89.25 -99.45 L90.3 -97.85 Q92.65 -103.5 92.05 -110.0 L92.4 -110.25 Q95.1 -109.65 96.35 -107.35 98.7 -103.05 100.4 -98.75 L100.75 -97.85 101.3 -111.6 101.9 -111.75 110.8 -99.6 110.85 -100.5 110.4 -110.4 Q110.35 -111.3 110.75 -111.9 L111.2 -112.45 128.8 -97.2 130.05 -96.25 Q125.25 -104.35 123.05 -113.25 L123.65 -113.4 149.9 -99.1 150.55 -98.75 141.9 -109.45 142.5 -110.4 143.35 -110.1 169.25 -100.4 170.3 -100.0 159.45 -109.25 159.7 -110.2 161.3 -109.8 191.95 -102.1 192.8 -101.9 180.65 -111.45 212.0 -103.25 210.65 -104.15 198.9 -111.8 199.25 -112.5 226.15 -107.35 224.1 -108.45 213.4 -114.35 213.6 -114.85 213.75 -115.2 238.15 -112.1 237.7 -112.35 222.75 -120.2 222.9 -120.85 242.55 -118.5 242.1 -118.75 221.15 -132.0 224.6 -132.0 Q235.2 -124.15 247.2 -118.3 L247.2 -117.5 246.9 -117.1 242.35 -116.75 231.3 -117.5 Q236.7 -114.2 242.05 -110.95 L221.55 -111.75 232.3 -105.65 232.0 -104.8 205.8 -109.1 217.8 -101.7 215.7 -100.35 187.55 -108.0 199.9 -99.4 199.45 -97.55 164.3 -107.4 176.05 -97.55 176.05 -95.75 146.0 -107.05 154.8 -96.25 154.55 -95.55 138.1 -103.7 Q135.65 -81.65 135.8 -59.5 135.9 -37.55 134.6 -15.7 141.35 -18.2 146.9 -22.65 148.75 -24.15 149.8 -26.05 152.8 -31.85 154.75 -38.25 155.45 -40.65 157.25 -42.2 159.2 -43.9 160.0 -46.2 160.65 -48.05 162.15 -49.45 163.25 -50.45 164.55 -51.05 168.45 -53.0 172.7 -54.0 178.8 -55.6 181.1 -61.45 L180.9 -62.25 176.2 -59.15 175.3 -59.25 175.25 -61.5 172.7 -61.25 166.75 -61.45 170.8 -63.65 Q178.85 -67.95 184.65 -74.85 186.3 -74.0 187.6 -72.3 191.9 -66.55 198.35 -62.9 L198.05 -62.1 197.4 -61.65 189.7 -62.6 189.2 -59.0 186.5 -61.2 186.9 -55.5 188.2 -55.25 Q192.55 -54.8 195.95 -57.5 197.15 -58.45 198.6 -58.7 L200.2 -59.0 223.6 -61.75 Q225.8 -62.55 230.45 -66.45 235.1 -70.35 241.25 -72.55 L224.65 -54.1 Q219.5 -55.0 214.45 -53.9 212.9 -53.45 211.85 -52.3 211.1 -51.4 209.85 -51.15 L198.3 -51.85 Q197.1 -49.65 194.9 -48.4 193.85 -47.85 192.75 -47.75 L171.15 -42.95 Q166.8 -37.9 164.25 -31.75 162.2 -26.8 161.85 -23.1 161.7 -21.65 160.95 -19.1 154.85 -13.1 150.7 -6.2 L144.05 4.6 140.3 10.15 136.4 14.3 Q136.9 23.45 138.3 32.5 139.65 41.4 142.1 50.1 147.6 69.5 154.35 88.35 161.5 108.35 167.7 128.55 L165.7 128.55 153.45 93.1 152.4 89.9 Q148.9 77.7 144.45 66.0 140.5 55.6 138.3 44.7 135.25 29.25 134.35 13.45 133.15 -8.25 133.4 -29.85 L133.6 -49.75 Q133.75 -71.5 135.05 -93.25 L136.3 -104.6 133.5 -106.0 125.85 -109.8 132.2 -95.4 132.8 -94.05 132.05 -93.35 131.65 -93.0 125.85 -96.65 111.9 -109.85 Q112.55 -103.1 111.65 -96.5 L109.2 -99.1 Q105.65 -103.0 103.05 -107.6 L102.9 -107.9 102.9 -106.1 Q102.85 -99.75 102.35 -96.85 L101.25 -94.5 Q96.7 -99.85 93.75 -106.25 93.8 -99.65 91.2 -93.8 L82.5 -108.5 77.85 -94.1 77.15 -94.0 Q73.05 -100.25 70.75 -107.3 L66.35 -92.3 65.75 -92.0 57.8 -109.75 Q54.6 -103.35 49.75 -97.85 48.45 -99.2 48.8 -101.4 L49.35 -107.05 49.65 -110.0 Q46.15 -105.55 45.5 -100.0 48.85 -96.0 53.65 -93.6 54.15 -92.75 54.15 -91.45 L53.9 -89.3 53.8 -89.1 Q50.3 -85.9 45.55 -86.8 L40.75 -87.05 Q33.6 -85.85 26.65 -83.9 17.4 -81.3 9.8 -87.2 -7.05 -82.85 -22.85 -90.3 L-31.5 -94.4 -34.7 -95.35 -50.0 -94.35 -50.25 -94.4 -50.8 -94.5 Q-53.95 -95.3 -57.1 -96.75 L-63.7 -99.25 Q-71.0 -101.55 -78.15 -99.5 L-80.0 -98.95 Q-84.95 -97.1 -89.75 -97.5 -93.4 -97.85 -96.9 -99.45 -102.65 -95.0 -109.4 -94.0 -113.05 -93.45 -117.0 -93.9 -126.05 -95.15 -131.1 -102.7 -134.1 -101.85 -136.95 -103.3 -138.6 -104.1 -139.8 -105.55 L-145.6 -107.1 -145.65 -107.1 -146.9 -107.45 -150.35 -108.25 Q-157.65 -109.85 -163.5 -110.35 L-165.2 -110.65 Q-165.8 -112.25 -165.2 -114.1 L-165.0 -115.45 -166.15 -116.65 -167.25 -114.1 -166.25 -110.4 -192.15 -109.95 -192.5 -110.25 -198.4 -109.65 -199.25 -108.85 -199.95 -109.0 -199.95 -109.45 -201.35 -109.45 -205.05 -111.5 -207.7 -109.45 -206.95 -108.5 -205.9 -108.45 -194.1 -108.2 -184.5 -107.7 -161.7 -105.7 -161.15 -105.05 -158.1 -104.75 -157.5 -104.3 Q-170.55 -104.9 -183.5 -104.25 L-207.6 -101.9 -183.05 -103.1 -169.85 -103.05 Q-159.65 -102.55 -149.95 -99.85 L-145.15 -98.35 Q-140.25 -96.65 -135.5 -94.4 -123.45 -88.65 -110.25 -88.45 L-106.85 -88.5 -97.35 -88.6 -89.6 -88.5 -79.15 -88.25 -50.75 -86.95 -43.45 -85.8 Q-38.4 -84.6 -33.85 -82.3 -27.95 -79.35 -22.25 -76.2 -14.45 -71.75 -5.85 -69.1 4.65 -65.8 15.7 -63.75 L39.9 -58.6 39.3 -57.35 37.35 -57.85 Q39.9 -54.5 44.1 -54.4 48.4 -54.2 52.15 -55.65 L49.95 -53.75 49.65 -53.65 Q47.35 -52.3 44.6 -52.75 L41.35 -53.2 41.3 -53.2 40.35 -53.6 39.95 -51.65 39.9 -51.45 Q39.35 -44.0 44.5 -38.5 46.1 -36.8 48.4 -36.35 L50.25 -36.0 47.4 -35.35 Q45.95 -35.7 44.55 -36.55 43.05 -37.45 41.9 -38.75 41.85 -31.75 45.25 -26.15 46.75 -23.7 49.4 -24.0 57.85 -25.3 61.15 -33.5 L61.4 -33.15 Q59.7 -26.0 52.8 -22.85 48.65 -20.9 45.0 -23.85 L39.05 7.4 Q35.8 22.0 31.6 36.4 L28.3 47.05 Q15.6 84.1 -7.5 115.9 L-6.1 116.25 Q2.25 119.4 6.95 126.7 L35.35 125.75 37.65 125.85 49.85 126.9 49.85 128.55 16.95 127.55 Q1.85 127.8 -12.6 132.0 L-13.05 131.25 Q-8.0 128.6 -2.5 128.0 L1.3 127.45 5.3 126.9 Q2.6 122.55 -1.85 119.9 -4.2 118.45 -6.9 118.05 L-21.55 116.35 Q-39.9 113.95 -57.25 117.25 L-51.5 114.65 -51.35 111.75 -51.15 111.05 Q-50.2 109.0 -47.85 108.6 L-47.5 108.45 -47.3 108.35 Q-47.5 107.1 -46.85 105.8 L-46.1 104.9 Q-43.3 102.7 -39.95 103.95 L-39.3 104.2 -39.15 104.25 Q-36.6 101.2 -32.75 100.4 L-31.1 100.25 -30.7 100.3 -29.85 100.9 -29.65 99.65 Q-28.8 95.3 -24.45 93.85 L-23.4 93.6 -22.35 93.35 Q-22.65 91.8 -22.3 90.45 -20.95 85.3 -15.45 84.35 L-14.3 84.15 -13.1 84.1 Q-13.85 80.4 -11.6 77.35 -9.4 74.35 -5.75 75.7 L-5.25 76.0 -5.15 75.85 Q-5.35 72.4 -2.6 70.25 L-1.85 69.7 -1.5 69.55 2.65 69.85 3.05 70.35 Q4.85 67.85 7.9 67.35 13.35 67.05 14.25 72.25 L14.55 73.75 14.55 73.9 15.6 73.7 Q29.8 43.05 37.1 10.25 41.0 -7.3 43.9 -25.0 40.4 -31.0 40.75 -38.1 L40.85 -39.2 41.0 -40.15 Q38.3 -45.25 38.65 -51.05 L38.9 -53.15 39.15 -54.25 Q37.35 -55.5 36.5 -57.5 L36.4 -57.85 36.4 -58.1 2.05 -65.05 Q-10.45 -67.8 -21.65 -73.85 -27.15 -76.9 -32.2 -80.1 -39.9 -85.1 -48.9 -85.35 L-81.55 -86.5 -89.65 -86.6 -94.1 -86.6 Q-102.3 -86.6 -110.45 -87.0 L-118.2 -87.45 Q-123.75 -88.2 -128.95 -90.75 -136.75 -94.55 -145.1 -96.85 L-150.55 -98.2 -150.7 -98.25 Q-166.5 -101.65 -182.5 -101.9 L-190.5 -101.85 Q-195.3 -97.0 -201.05 -93.25 L-201.45 -93.0 -201.75 -93.0 -202.25 -93.1 -202.35 -93.8 -197.8 -100.7 Q-202.9 -95.5 -209.05 -91.6 L-209.5 -91.4 -209.75 -91.25 -210.1 -91.5 -210.25 -91.8 Q-209.3 -95.75 -206.55 -98.6 L-206.25 -98.9 -205.9 -99.4 Q-210.2 -94.7 -216.05 -92.0 L-216.5 -91.85 -217.0 -91.85 -217.1 -92.6 -212.65 -98.3 Q-218.45 -94.4 -225.0 -92.7 L-225.75 -92.6 -226.6 -92.65 Q-225.45 -95.8 -222.05 -97.1 -221.45 -97.25 -220.9 -97.55 L-219.05 -98.7 Q-224.15 -97.3 -229.5 -97.05 L-233.0 -97.1 -233.3 -97.4 -232.65 -98.25 Q-227.05 -101.7 -220.45 -102.15 L-218.75 -102.3 -217.35 -102.5 -225.7 -106.0 -225.3 -106.45 -215.55 -105.4 -212.95 -104.85 -210.75 -104.35 -215.7 -107.05 -215.5 -107.6 Q-208.5 -107.1 -201.9 -104.8 L-200.5 -104.3 -200.1 -104.35 Q-203.55 -106.4 -207.35 -107.05 L-207.75 -107.05 -207.95 -107.15 -209.5 -108.9 -210.45 -109.0 -210.5 -109.7 -210.1 -110.5 -212.55 -112.85 Q-214.15 -111.0 -216.25 -109.95 -216.95 -109.55 -217.7 -109.3 L-217.9 -109.15 -218.35 -110.05 -216.1 -115.25 Q-219.95 -111.4 -225.05 -109.55 L-225.35 -109.5 -225.65 -109.65 Q-225.5 -112.05 -223.45 -114.05 L-222.5 -115.0 -221.45 -116.25 Q-227.35 -111.1 -234.85 -108.85 -235.3 -108.65 -235.75 -108.6 L-235.8 -108.75 -235.85 -109.2 Q-232.7 -112.35 -230.45 -116.1 L-230.1 -116.8 -230.1 -116.85 Q-237.9 -112.55 -246.55 -110.8 L-247.0 -110.85 -247.15 -111.05 -247.2 -111.6 -224.9 -131.9 -223.45 -132.0 -223.2 -131.95 -242.25 -113.5 -234.8 -116.4 Q-231.5 -117.85 -227.1 -120.0 L-226.35 -119.9 -226.1 -119.0 -229.7 -114.25 -232.35 -111.25 -217.95 -120.1 -217.5 -119.15 -222.45 -112.5 -213.1 -119.0 -212.45 -118.1 -215.95 -112.35 -204.4 -120.1 -208.45 -111.1 -200.1 -118.4 -198.7 -112.5 -194.85 -119.25 -191.95 -112.6 -189.0 -120.75 -188.6 -120.55 -185.85 -113.5 -184.15 -122.25 -183.55 -122.5 -178.85 -113.25 -179.1 -121.5 -178.45 -122.15 -177.85 -122.15 -170.6 -113.55 -170.5 -123.1 -169.9 -123.2 -161.45 -114.5 -163.25 -121.85 -162.85 -122.0 -151.1 -116.15 -154.05 -120.85 -153.85 -121.75 -142.35 -116.75 -147.35 -122.65 -146.5 -123.0 -132.2 -118.25 -139.5 -123.25 -138.7 -123.85 -127.25 -121.5 -143.6 -132.0 -141.4 -132.0 Q-134.8 -128.5 -128.55 -124.4 L-128.05 -124.05 -125.7 -122.45 -122.1 -119.9 -122.1 -119.0 -135.45 -122.0 Q-131.0 -120.15 -127.95 -116.5 L-129.1 -115.85 Q-136.4 -118.6 -143.95 -120.4 L-137.1 -113.45 -137.25 -112.6 -137.3 -112.6 Q-138.7 -112.9 -139.85 -113.6 -144.95 -116.45 -150.75 -119.0 L-147.35 -113.0 -147.75 -112.35 -161.35 -119.4 -160.85 -118.05 -159.15 -112.9 Q-158.8 -111.9 -159.4 -111.3 L-159.55 -111.2 -160.7 -111.65 Q-162.35 -112.55 -163.85 -114.3 L-164.35 -111.4 -146.05 -108.75 -145.7 -108.7 -142.6 -108.1 Q-138.7 -112.05 -133.05 -112.4 -130.8 -112.7 -128.8 -111.75 -122.3 -108.55 -115.2 -110.2 -110.6 -111.2 -106.1 -112.65 L-103.25 -113.6 Q-97.4 -115.7 -91.7 -114.95 -88.6 -114.55 -85.55 -113.3 -83.8 -112.6 -81.95 -112.3 L-78.75 -112.1 Q-77.05 -112.3 -75.5 -112.9 -67.65 -115.65 -59.35 -116.6 -56.75 -116.6 -54.35 -117.3 -43.6 -120.5 -33.0 -124.4 -44.75 -122.75 -56.75 -122.5 -58.2 -122.45 -59.35 -123.45 L-56.8 -124.7 Q-53.0 -126.65 -49.3 -128.8 -43.25 -132.1 -36.75 -132.0 L-49.75 -126.75 -55.6 -124.35 -28.0 -126.15 -27.9 -125.5 -29.6 -124.2 -47.3 -116.75 -21.5 -120.9 -21.45 -120.25 -25.2 -117.25 -30.2 -113.55 -34.65 -109.7 -11.8 -119.5 -12.7 -116.1 -13.95 -115.35 -18.7 -108.95 -20.1 -106.5 4.0 -118.0 4.7 -117.65 -7.9 -102.05 -8.6 -101.0 17.2 -115.1 17.05 -112.8 12.75 -104.95 11.75 -103.1 10.15 -99.5 33.05 -114.65 33.6 -114.1 31.9 -111.55 24.3 -100.5 24.75 -100.65 25.0 -100.8 40.5 -110.55 40.65 -108.9 38.15 -101.95 37.55 -100.65 50.25 -112.5 51.1 -111.65 50.65 -103.85 50.3 -100.35 58.25 -111.65 Q59.0 -111.0 60.95 -106.5 L64.9 -97.0 65.65 -95.4 69.85 -111.35 70.7 -111.15 76.6 -97.9 76.75 -97.5 82.45 -111.35 83.45 -110.05 89.25 -99.45 M11.5 -110.45 L13.8 -110.0 15.0 -112.5 11.5 -110.45 M47.4 -95.35 L41.4 -101.95 35.6 -97.4 35.15 -98.3 37.75 -105.1 36.25 -105.9 Q29.85 -100.05 21.55 -98.0 L21.4 -98.55 27.95 -108.2 26.0 -108.3 9.15 -97.05 8.0 -97.15 Q9.5 -103.45 13.2 -108.9 L9.8 -109.5 Q-0.3 -102.75 -11.7 -98.5 L-11.85 -99.1 -1.6 -112.05 -3.5 -112.35 Q-12.85 -107.2 -23.0 -103.9 -22.85 -104.95 -22.35 -105.75 -20.2 -109.5 -17.45 -112.9 L-20.35 -112.55 Q-23.2 -112.3 -25.7 -111.05 -32.3 -107.7 -39.5 -106.65 L-39.6 -107.2 -34.6 -111.85 -41.55 -112.65 -48.5 -114.0 -51.75 -114.5 Q-63.2 -116.0 -74.15 -111.6 -77.75 -110.25 -81.3 -110.85 L-82.55 -111.1 -87.55 -112.35 -91.2 -112.95 -93.4 -113.1 Q-99.6 -113.2 -105.45 -111.25 L-106.2 -111.0 Q-113.35 -108.6 -120.9 -108.1 -125.7 -108.1 -129.25 -110.8 L-130.95 -111.15 -134.8 -110.75 Q-138.75 -110.05 -141.95 -107.6 L-139.85 -106.75 -137.85 -105.6 Q-134.6 -103.15 -130.55 -104.4 L-128.75 -102.65 Q-127.25 -100.5 -125.15 -99.05 -117.75 -94.1 -109.1 -96.0 L-107.85 -96.35 Q-101.8 -98.1 -96.45 -101.25 -93.25 -99.45 -89.85 -99.25 -86.7 -99.1 -83.3 -100.35 L-78.6 -101.7 -66.45 -101.35 Q-61.05 -100.1 -55.9 -97.85 -49.95 -95.3 -43.5 -96.4 L-35.1 -97.0 Q-30.8 -96.65 -27.55 -94.3 -18.75 -87.85 -7.9 -87.55 L-0.65 -87.55 Q5.9 -87.15 11.4 -90.15 L12.05 -89.0 11.3 -88.0 Q14.35 -85.15 18.7 -85.1 24.55 -84.65 30.1 -86.85 39.1 -90.65 48.75 -88.5 51.2 -88.0 52.25 -90.15 L52.3 -91.25 Q50.9 -94.25 47.4 -95.35 M37.55 -106.85 L38.2 -106.55 38.4 -107.4 37.55 -106.85 M27.6 -109.45 L28.85 -109.4 30.5 -111.6 27.6 -109.45 M44.1 -101.65 L45.1 -105.5 42.6 -103.05 44.1 -101.65 M54.75 -71.6 L54.9 -71.05 Q55.25 -69.75 54.4 -68.55 53.9 -67.3 52.65 -66.85 L52.15 -67.45 54.75 -71.6 M57.5 -59.25 L56.95 -59.35 56.95 -59.55 57.75 -61.25 Q58.3 -60.2 57.5 -59.25 M55.4 -58.35 L55.65 -58.0 54.65 -55.45 53.45 -55.45 Q53.65 -57.5 55.4 -58.35 M67.25 -58.3 Q69.15 -64.25 69.3 -66.75 L69.75 -66.75 70.15 -64.75 Q70.15 -61.3 66.75 -53.15 65.0 -47.1 60.65 -42.8 59.95 -42.15 59.1 -42.2 64.95 -49.35 67.25 -58.3 M60.7 -48.3 Q60.7 -47.25 59.95 -46.5 59.15 -45.75 58.05 -45.75 L57.75 -46.25 56.25 -44.35 53.25 -42.1 53.2 -42.75 53.55 -44.35 52.6 -42.6 Q51.4 -40.3 49.4 -40.5 L51.5 -42.35 54.15 -46.25 54.55 -46.1 53.8 -43.0 Q55.95 -44.6 57.5 -46.75 L58.8 -48.25 58.55 -46.75 58.75 -47.0 Q59.8 -48.25 60.7 -48.3 M44.2 43.65 L44.65 43.45 40.0 49.9 40.6 50.45 43.8 51.75 43.4 52.3 40.3 55.05 Q38.8 56.4 38.85 58.2 L40.3 59.75 40.15 59.9 38.0 61.7 Q35.85 62.8 35.65 64.9 L37.05 66.65 Q32.95 68.6 31.55 72.65 L33.55 75.0 33.3 75.65 Q32.75 76.75 31.75 77.4 28.8 79.1 29.8 82.05 L27.9 85.1 Q22.25 93.9 17.55 103.3 L16.75 104.5 Q19.55 94.65 25.8 86.25 26.8 84.85 27.25 83.15 28.4 78.35 31.8 75.25 L30.25 73.95 Q30.7 69.15 34.9 66.5 34.05 64.1 35.55 61.95 36.5 60.55 38.05 59.75 L38.05 57.95 Q38.45 54.65 40.8 52.25 L39.5 51.2 Q39.1 50.85 39.15 50.5 40.0 46.2 44.2 43.65 M113.75 -38.05 L115.05 -45.1 112.9 -47.1 115.15 -50.6 113.75 -51.85 Q111.6 -53.6 112.5 -55.85 113.7 -59.1 115.2 -62.15 L112.5 -63.65 114.85 -70.2 115.55 -69.75 113.15 -64.6 116.35 -62.2 116.35 -61.95 Q116.05 -59.8 115.0 -58.1 L112.95 -54.4 115.3 -52.05 Q116.0 -51.4 116.1 -50.2 116.2 -48.25 114.4 -47.35 L116.55 -45.05 115.55 -42.9 115.65 -41.5 115.6 -40.5 115.4 -39.55 115.1 -38.6 116.5 -33.5 115.9 12.0 114.55 16.9 Q116.1 20.6 115.5 24.95 115.1 27.75 115.35 30.65 116.25 42.55 115.75 54.4 L115.35 55.1 Q113.4 37.9 114.1 20.65 114.15 18.85 112.95 17.35 115.45 1.8 114.8 -14.1 114.9 -23.8 114.5 -33.5 114.4 -35.65 113.75 -38.05 M116.05 57.45 L116.65 56.65 116.2 58.6 113.9 63.0 113.15 62.6 116.05 57.45 M181.45 -57.75 Q179.8 -54.25 176.15 -53.1 170.2 -51.25 164.6 -49.05 163.35 -48.65 163.05 -47.4 162.4 -44.3 159.85 -42.35 157.15 -40.3 156.15 -37.15 154.15 -30.95 151.75 -25.15 151.05 -23.4 149.45 -22.1 142.7 -16.6 134.55 -13.7 L135.25 -0.35 135.85 9.0 136.1 11.55 137.55 10.15 Q142.85 4.05 146.5 -3.05 150.45 -10.7 156.2 -17.0 L159.2 -20.15 Q159.85 -21.1 159.95 -22.3 161.2 -36.6 172.35 -45.7 179.3 -47.3 186.15 -48.1 192.95 -48.95 195.55 -51.85 198.1 -54.8 210.05 -53.05 214.35 -56.65 219.95 -55.9 L224.2 -55.7 236.5 -69.05 237.4 -69.9 236.65 -69.45 Q233.45 -68.05 230.25 -64.55 227.5 -61.65 223.6 -60.55 L223.0 -60.4 201.0 -57.8 200.2 -57.65 Q197.7 -57.05 195.55 -55.45 190.85 -52.05 185.45 -54.2 L185.1 -61.45 184.4 -60.6 Q183.5 -59.35 181.95 -59.1 L181.45 -57.75 M185.9 -71.55 L184.8 -72.75 Q181.2 -67.45 176.0 -64.45 L171.4 -62.25 175.75 -63.15 176.45 -62.9 176.5 -61.0 181.15 -63.65 182.05 -63.35 182.8 -60.85 185.25 -63.6 188.3 -61.15 188.7 -64.0 192.8 -63.85 194.4 -63.35 191.0 -65.55 Q187.5 -68.65 185.9 -71.55 M82.4 63.95 L84.5 50.2 Q85.0 47.25 86.1 45.05 84.95 65.0 81.3 84.85 L79.4 95.4 77.6 99.7 82.4 63.95 M88.5 77.15 L88.85 78.35 88.85 80.25 88.05 87.1 86.6 87.55 Q87.85 77.95 88.5 77.15 M85.9 69.35 L86.65 69.3 Q86.45 78.85 84.55 88.25 L83.0 88.8 85.9 69.35 M12.75 79.4 L14.6 75.75 13.7 76.1 12.3 70.85 Q11.95 69.9 10.9 69.6 5.5 68.0 3.4 73.25 2.35 71.4 0.2 71.15 -0.95 71.1 -1.65 71.7 -4.5 74.2 -3.35 78.2 L-8.7 76.9 Q-11.15 78.15 -11.55 81.0 -11.95 84.1 -9.45 86.15 L-9.85 87.05 -10.65 87.2 Q-12.5 85.7 -15.0 85.65 -17.85 85.95 -19.45 88.3 -22.55 92.75 -17.6 95.35 L-18.1 96.05 Q-19.4 96.45 -20.6 95.75 -23.2 94.5 -25.4 96.05 -29.4 98.85 -26.6 102.65 L-26.95 103.7 Q-30.8 100.85 -34.95 102.75 -38.0 104.15 -38.15 107.45 L-39.1 107.7 -41.1 105.0 -42.3 105.05 Q-44.45 105.3 -45.55 107.05 L-45.0 110.25 -46.65 110.4 Q-51.15 110.7 -50.05 114.7 L-47.0 114.25 -35.5 113.65 -9.1 115.7 1.8 99.05 Q6.45 91.5 10.5 83.75 L12.75 79.4 M76.9 92.0 L77.55 92.8 77.35 94.75 75.3 104.95 73.7 105.75 Q74.15 98.6 76.9 92.0 M-209.35 -115.65 L-208.0 -114.8 -206.5 -118.25 -209.35 -115.65 M-204.2 -112.4 L-203.55 -111.85 Q-202.1 -110.5 -199.95 -110.75 L-200.85 -116.1 -204.2 -112.4 M-209.4 -111.9 L-208.4 -114.0 -209.95 -115.1 -211.3 -113.95 -209.4 -111.9 M-219.3 -100.2 Q-217.9 -100.5 -215.6 -101.45 -223.45 -100.9 -231.0 -98.25 -224.95 -98.75 -219.3 -100.2 M-213.15 -102.35 L-210.25 -102.8 -220.95 -105.15 -213.15 -102.35 M-207.15 -103.4 L-202.5 -104.05 -212.2 -106.0 -207.15 -103.4 M-209.45 -100.45 L-214.35 -94.35 -206.45 -100.7 -209.45 -100.45 M-213.05 -100.25 Q-218.8 -98.85 -223.1 -94.65 -216.9 -96.3 -211.5 -100.3 L-213.05 -100.25 M-190.85 -111.5 L-186.55 -111.5 -188.95 -117.5 -190.85 -111.5 M-193.0 -111.5 L-193.1 -112.0 Q-193.45 -114.85 -195.2 -116.5 -196.6 -113.05 -197.55 -111.15 L-193.0 -111.5 M-183.45 -118.35 L-184.9 -111.5 -179.65 -111.45 -181.6 -114.25 -183.45 -118.35 M-198.65 -104.5 L-195.4 -104.8 -202.85 -106.65 -198.65 -104.5 M-191.8 -106.2 L-184.0 -105.7 Q-181.65 -105.65 -179.25 -105.75 L-196.9 -106.8 Q-194.4 -105.95 -191.8 -106.2 M-196.0 -101.55 Q-197.05 -99.6 -199.95 -95.75 L-200.0 -95.6 Q-197.25 -97.3 -192.1 -101.75 L-196.0 -101.55 M-174.2 -115.75 L-177.55 -119.45 -177.6 -118.6 Q-177.75 -115.0 -177.2 -111.4 L-171.35 -111.3 -174.2 -115.75 M-167.2 -117.95 L-169.6 -120.65 -169.15 -111.25 -167.9 -111.55 -168.75 -114.65 -167.2 -117.95 M-199.0 -101.35 L-203.6 -100.95 Q-206.5 -97.55 -208.35 -93.75 L-207.1 -94.55 Q-202.6 -97.4 -199.0 -101.35 M-46.6 -115.25 L-41.3 -113.85 Q-37.15 -112.75 -32.8 -113.35 L-26.45 -118.65 -46.6 -115.25 M-16.35 -114.35 L-14.45 -116.75 -20.35 -114.1 -16.35 -114.35 M-1.7 -113.3 L-0.7 -113.1 0.4 -114.5 -1.7 -113.3" fill="#000000" fill-rule="evenodd" stroke="none"/>
    <path d="M221.15 -132.0 L242.1 -118.75 212.65 -126.0 222.9 -120.85 222.75 -120.2 237.7 -112.35 190.65 -122.5 213.6 -114.85 213.4 -114.35 224.1 -108.45 174.4 -121.5 198.9 -111.8 210.65 -104.15 159.65 -121.75 180.65 -111.45 192.8 -101.9 191.95 -102.1 152.15 -122.75 133.15 -132.0 221.15 -132.0 M161.3 -109.8 L159.7 -110.2 159.45 -109.25 170.3 -100.0 169.25 -100.4 133.65 -123.5 161.3 -109.8 M143.35 -110.1 L142.5 -110.4 141.9 -109.45 150.55 -98.75 149.9 -99.1 123.15 -124.75 143.35 -110.1 M123.05 -113.25 Q125.25 -104.35 130.05 -96.25 L128.8 -97.2 112.15 -125.0 123.05 -113.25 M110.75 -111.9 Q110.35 -111.3 110.4 -110.4 L110.85 -100.5 101.9 -127.0 110.75 -111.9 M101.3 -111.6 L100.75 -97.85 100.4 -98.75 92.9 -127.25 101.3 -111.6" fill="#0d3700" fill-rule="evenodd" stroke="none"/>
    <path d="M25.0 -100.8 L24.75 -100.65 31.9 -111.55 33.6 -114.1 33.05 -114.65 40.1 -125.25 41.15 -124.85 29.8 -105.1 25.0 -100.8 M12.75 -104.95 L17.05 -112.8 28.6 -124.05 28.9 -122.9 12.75 -104.95 M-7.9 -102.05 L4.7 -117.65 17.4 -125.2 16.7 -125.7 18.0 -125.15 -5.55 -103.5 -7.9 -102.05 M-12.7 -116.1 L-11.8 -119.5 2.15 -126.0 1.75 -126.4 3.4 -125.75 -12.7 -116.1 M-30.2 -113.55 L-25.2 -117.25 -6.1 -126.6 -6.55 -127.05 -5.7 -127.0 -5.25 -126.0 -20.55 -117.45 -30.2 -113.55 M-47.3 -116.75 L-29.6 -124.2 -27.9 -125.5 -15.9 -129.7 -14.7 -130.1 -14.0 -129.5 -35.35 -119.8 -47.3 -116.75 M-49.75 -126.75 L-36.75 -132.0 -30.15 -132.0 -43.85 -127.35 -49.75 -126.75 M-229.7 -114.25 L-226.1 -119.0 -226.35 -119.9 -220.85 -125.25 -220.1 -124.5 -228.1 -115.25 -229.7 -114.25 M-234.8 -116.4 L-242.25 -113.5 -223.2 -131.95 -223.2 -132.0 -217.0 -132.0 -234.8 -116.4 M185.9 -71.55 Q182.2 -66.7 178.95 -63.95 L178.15 -63.25 177.65 -63.0 179.65 -65.5 176.0 -64.45 Q181.2 -67.45 184.8 -72.75 L185.9 -71.55" fill="#6b9556" fill-rule="evenodd" stroke="none"/>
    <path d="M89.25 -99.45 L83.45 -110.05 74.15 -126.75 73.8 -126.5 76.6 -97.9 70.7 -111.15 67.05 -123.35 66.4 -123.4 64.9 -97.0 60.95 -106.5 Q59.0 -111.0 58.25 -111.65 L61.4 -118.95 60.9 -119.6 50.65 -103.85 51.1 -111.65 55.15 -120.6 54.65 -121.1 38.15 -101.95 40.65 -108.9 51.9 -124.0 51.4 -124.5 29.8 -105.1 41.15 -124.85 40.1 -125.25 40.4 -125.7 39.9 -126.35 11.75 -103.1 12.75 -104.95 28.9 -122.9 28.6 -124.05 28.9 -124.35 28.6 -124.7 -5.55 -103.5 18.0 -125.15 16.7 -125.7 -18.7 -108.95 -13.95 -115.35 -12.7 -116.1 3.4 -125.75 1.75 -126.4 -20.55 -117.45 -5.25 -126.0 -5.7 -127.0 -6.55 -127.05 -35.35 -119.8 -14.0 -129.5 -14.7 -130.1 -15.9 -129.7 -13.95 -130.4 -43.85 -127.35 -30.15 -132.0 82.2 -132.0 Q85.95 -120.35 87.75 -108.25 L88.85 -101.45 89.25 -99.45 M24.75 -100.65 L24.3 -100.5 31.9 -111.55 24.75 -100.65 M-226.35 -119.9 L-227.1 -120.0 Q-231.5 -117.85 -234.8 -116.4 L-217.0 -132.0 -150.15 -132.0 -147.1 -128.6 -157.2 -130.25 -155.85 -126.6 -164.8 -128.8 -164.85 -124.5 -175.0 -129.35 -175.7 -129.25 -176.2 -124.65 -181.75 -127.9 -183.95 -124.35 -187.0 -126.65 -192.0 -121.4 -192.3 -125.5 -192.75 -125.65 -197.75 -121.25 -198.0 -125.5 -206.7 -120.75 -204.75 -124.6 -205.35 -125.4 -213.1 -121.25 -211.4 -125.35 -228.1 -115.25 -220.1 -124.5 -220.85 -125.25 -226.35 -119.9 M-223.2 -131.95 L-223.45 -132.0 -223.2 -132.0 -223.2 -131.95 M178.15 -63.25 L178.95 -63.95 Q182.2 -66.7 185.9 -71.55 187.5 -68.65 191.0 -65.55 L186.9 -66.75 187.65 -63.25 184.65 -66.25 183.15 -63.75 182.4 -65.75 178.15 -63.25 M-219.3 -100.2 Q-224.95 -98.75 -231.0 -98.25 -223.45 -100.9 -215.6 -101.45 -217.9 -100.5 -219.3 -100.2 M-213.05 -100.25 L-211.5 -100.3 Q-216.9 -96.3 -223.1 -94.65 -218.8 -98.85 -213.05 -100.25 M-209.45 -100.45 L-206.45 -100.7 -214.35 -94.35 -209.45 -100.45 M-207.15 -103.4 L-212.2 -106.0 -202.5 -104.05 -207.15 -103.4 M-213.15 -102.35 L-220.95 -105.15 -210.25 -102.8 -213.15 -102.35 M-198.65 -104.5 L-202.85 -106.65 -195.4 -104.8 -198.65 -104.5 M-196.0 -101.55 L-192.1 -101.75 Q-197.25 -97.3 -200.0 -95.6 L-199.95 -95.75 Q-197.05 -99.6 -196.0 -101.55 M-199.0 -101.35 Q-202.6 -97.4 -207.1 -94.55 L-208.35 -93.75 Q-206.5 -97.55 -203.6 -100.95 L-199.0 -101.35" fill="#527c3d" fill-rule="evenodd" stroke="none"/>
    <path d="M-134.8 -110.75 L-130.95 -111.15 -129.25 -110.8 Q-125.7 -108.1 -120.9 -108.1 -113.35 -108.6 -106.2 -111.0 L-105.45 -111.25 Q-99.6 -113.2 -93.4 -113.1 L-91.2 -112.95 -87.55 -112.35 -82.55 -111.1 -81.3 -110.85 Q-77.75 -110.25 -74.15 -111.6 -63.2 -116.0 -51.75 -114.5 L-48.5 -114.0 -41.55 -112.65 -34.6 -111.85 -39.6 -107.2 -39.5 -106.65 Q-32.3 -107.7 -25.7 -111.05 -23.2 -112.3 -20.35 -112.55 L-17.45 -112.9 Q-20.2 -109.5 -22.35 -105.75 -22.85 -104.95 -23.0 -103.9 -12.85 -107.2 -3.5 -112.35 L-1.6 -112.05 -11.85 -99.1 -11.7 -98.5 Q-0.3 -102.75 9.8 -109.5 L13.2 -108.9 Q9.5 -103.45 8.0 -97.15 L9.15 -97.05 26.0 -108.3 27.95 -108.2 21.4 -98.55 21.55 -98.0 Q29.85 -100.05 36.25 -105.9 L37.75 -105.1 35.15 -98.3 35.6 -97.4 41.4 -101.95 47.4 -95.35 44.0 -95.55 Q41.4 -96.3 39.4 -94.85 38.0 -93.8 36.15 -93.75 27.45 -93.55 19.2 -96.5 16.95 -97.3 14.6 -97.15 L9.2 -96.0 Q0.15 -93.4 -8.75 -96.4 -11.75 -97.45 -14.6 -98.85 -25.15 -103.85 -36.75 -102.9 -42.3 -102.5 -47.5 -103.95 L-54.5 -105.9 Q-66.65 -109.3 -79.1 -106.35 L-79.7 -106.2 -82.8 -105.85 -90.4 -106.45 -95.8 -106.8 -98.45 -106.55 Q-103.0 -104.65 -107.75 -103.85 L-119.75 -103.5 Q-120.8 -103.8 -121.55 -104.5 -124.9 -107.45 -129.25 -108.25 -132.35 -109.0 -134.8 -110.75" fill="#ffffff" fill-rule="evenodd" stroke="none"/>
    <path d="M-134.8 -110.75 Q-132.35 -109.0 -129.25 -108.25 -124.9 -107.45 -121.55 -104.5 -120.8 -103.8 -119.75 -103.5 L-107.75 -103.85 Q-103.0 -104.65 -98.45 -106.55 L-95.8 -106.8 -90.4 -106.45 -82.8 -105.85 -79.7 -106.2 -79.1 -106.35 Q-66.65 -109.3 -54.5 -105.9 L-47.5 -103.95 Q-42.3 -102.5 -36.75 -102.9 -25.15 -103.85 -14.6 -98.85 -11.75 -97.45 -8.75 -96.4 0.15 -93.4 9.2 -96.0 L14.6 -97.15 Q16.95 -97.3 19.2 -96.5 27.45 -93.55 36.15 -93.75 38.0 -93.8 39.4 -94.85 41.4 -96.3 44.0 -95.55 L47.4 -95.35 Q50.9 -94.25 52.3 -91.25 L52.25 -90.15 Q51.2 -88.0 48.75 -88.5 39.1 -90.65 30.1 -86.85 24.55 -84.65 18.7 -85.1 14.35 -85.15 11.3 -88.0 L12.05 -89.0 11.4 -90.15 Q5.9 -87.15 -0.65 -87.55 L-7.9 -87.55 Q-18.75 -87.85 -27.55 -94.3 -30.8 -96.65 -35.1 -97.0 L-43.5 -96.4 Q-49.95 -95.3 -55.9 -97.85 -61.05 -100.1 -66.45 -101.35 L-78.6 -101.7 -83.3 -100.35 Q-86.7 -99.1 -89.85 -99.25 -93.25 -99.45 -96.45 -101.25 -101.8 -98.1 -107.85 -96.35 L-109.1 -96.0 Q-117.75 -94.1 -125.15 -99.05 -127.25 -100.5 -128.75 -102.65 L-130.55 -104.4 Q-134.6 -103.15 -137.85 -105.6 L-139.85 -106.75 -141.95 -107.6 Q-138.75 -110.05 -134.8 -110.75" fill="#bbc2c8" fill-rule="evenodd" stroke="none"/>
    <path d="M39.05 7.4 L45.0 -23.85 Q48.65 -20.9 52.8 -22.85 59.7 -26.0 61.4 -33.15 L61.15 -33.5 Q57.85 -25.3 49.4 -24.0 46.75 -23.7 45.25 -26.15 41.85 -31.75 41.9 -38.75 43.05 -37.45 44.55 -36.55 45.95 -35.7 47.4 -35.35 46.8 -30.7 50.55 -28.7 51.55 -28.15 52.75 -28.0 58.45 -28.45 61.15 -33.5 L65.25 -40.4 65.8 -41.55 Q67.6 -47.15 70.3 -52.45 L71.3 -52.5 Q71.55 -49.25 70.6 -46.2 L66.15 -31.0 Q63.1 -20.4 54.75 -13.2 L52.15 -6.75 Q50.5 -3.1 47.2 -1.0 42.0 2.25 39.05 7.4 M48.4 -36.35 Q46.1 -36.8 44.5 -38.5 39.35 -44.0 39.9 -51.45 L39.95 -51.65 40.35 -53.6 41.3 -53.2 41.35 -53.2 44.6 -52.75 Q41.45 -50.35 43.4 -46.95 46.1 -42.25 51.5 -42.35 L49.4 -40.5 Q51.4 -40.3 52.6 -42.6 L53.2 -42.75 53.25 -42.1 56.25 -44.35 58.05 -45.75 Q59.15 -45.75 59.95 -46.5 60.7 -47.25 60.7 -48.3 L67.25 -58.3 Q64.95 -49.35 59.1 -42.2 59.95 -42.15 60.65 -42.8 65.0 -47.1 66.75 -53.15 64.9 -46.05 60.75 -40.2 58.9 -37.65 55.9 -36.9 52.0 -35.95 48.4 -36.35 M49.95 -53.75 L52.15 -55.65 Q48.4 -54.2 44.1 -54.4 39.9 -54.5 37.35 -57.85 L39.3 -57.35 39.9 -58.6 15.7 -63.75 Q4.65 -65.8 -5.85 -69.1 -14.45 -71.75 -22.25 -76.2 -27.95 -79.35 -33.85 -82.3 -38.4 -84.6 -43.45 -85.8 L-50.75 -86.95 -79.15 -88.25 -89.6 -88.5 -97.35 -88.6 -106.85 -88.5 -110.25 -88.45 Q-123.45 -88.65 -135.5 -94.4 -140.25 -96.65 -145.15 -98.35 L-149.95 -99.85 Q-159.65 -102.55 -169.85 -103.05 L-183.05 -103.1 -207.6 -101.9 -183.5 -104.25 Q-170.55 -104.9 -157.5 -104.3 L-158.1 -104.75 -161.15 -105.05 -161.7 -105.7 Q-155.05 -105.0 -148.65 -103.25 L-145.4 -102.25 Q-141.4 -101.0 -137.55 -99.3 L-131.75 -96.4 Q-127.5 -94.05 -123.0 -93.15 -128.75 -94.95 -132.1 -99.95 L-135.25 -100.05 Q-137.65 -100.1 -139.35 -101.5 -140.9 -102.9 -141.3 -105.1 L-145.6 -107.1 -139.8 -105.55 Q-138.6 -104.1 -136.95 -103.3 -134.1 -101.85 -131.1 -102.7 -126.05 -95.15 -117.0 -93.9 -113.05 -93.45 -109.4 -94.0 -102.65 -95.0 -96.9 -99.45 -93.4 -97.85 -89.75 -97.5 -84.95 -97.1 -80.0 -98.95 L-78.15 -99.5 Q-71.0 -101.55 -63.7 -99.25 L-57.1 -96.75 Q-53.95 -95.3 -50.8 -94.5 L-51.3 -94.5 -50.25 -94.4 -50.0 -94.35 -34.7 -95.35 -31.5 -94.4 -22.85 -90.3 Q-7.05 -82.85 9.8 -87.2 17.4 -81.3 26.65 -83.9 33.6 -85.85 40.75 -87.05 L45.55 -86.8 Q50.3 -85.9 53.8 -89.1 L53.9 -89.3 53.95 -89.55 Q54.8 -86.3 51.8 -84.4 48.4 -82.25 44.45 -83.4 L39.75 -84.05 Q35.7 -83.5 31.95 -82.1 24.85 -79.55 17.3 -80.1 12.1 -80.6 7.8 -83.4 -4.6 -81.35 -16.95 -84.1 -19.75 -84.6 -22.3 -85.95 -25.7 -87.8 -28.9 -89.75 -30.45 -90.7 -32.8 -90.8 -42.35 -89.85 -51.9 -91.2 -53.85 -91.4 -55.7 -92.1 L-66.5 -95.85 Q-70.3 -97.25 -74.2 -96.4 L-77.6 -95.6 -84.95 -94.35 Q-87.35 -94.25 -89.65 -94.4 -93.6 -94.7 -97.4 -95.7 -101.2 -92.1 -106.6 -91.4 L-89.6 -91.4 -77.95 -91.2 -39.1 -89.65 -38.25 -89.1 Q-32.75 -85.95 -26.6 -83.55 -23.4 -82.2 -20.15 -81.0 -10.25 -77.5 -0.35 -74.1 9.75 -70.8 20.5 -69.5 28.95 -68.8 37.0 -66.25 42.65 -64.45 47.4 -61.4 44.85 -59.15 41.5 -58.85 49.45 -56.05 56.95 -59.55 L56.95 -59.35 57.5 -59.25 57.5 -58.9 Q57.5 -54.55 49.95 -53.75 M-205.9 -108.45 L-206.95 -108.5 -207.7 -109.45 -205.05 -111.5 -201.35 -109.45 -200.95 -109.4 -205.9 -108.45 M-166.25 -110.4 L-167.25 -114.1 -166.15 -116.65 -165.0 -115.45 -165.2 -114.1 Q-165.8 -112.25 -165.2 -110.65 L-163.5 -110.35 -166.25 -110.4 M53.65 -93.6 Q48.85 -96.0 45.5 -100.0 46.15 -105.55 49.65 -110.0 L49.35 -107.05 48.8 -101.4 Q48.45 -99.2 49.75 -97.85 54.6 -103.35 57.8 -109.75 L65.75 -92.0 66.35 -92.3 70.75 -107.3 Q73.05 -100.25 77.15 -94.0 L77.85 -94.1 82.5 -108.5 91.2 -93.8 Q93.8 -99.65 93.75 -106.25 96.7 -99.85 101.25 -94.5 L102.35 -96.85 Q102.55 -91.25 103.75 -84.2 99.3 -88.35 95.0 -93.1 93.45 -87.65 89.95 -83.2 L88.85 -83.75 85.85 -87.65 Q82.7 -92.1 82.45 -93.45 L82.4 -93.45 80.6 -88.6 Q79.05 -84.65 78.4 -84.85 77.85 -84.3 74.7 -87.9 L71.05 -91.9 69.0 -87.6 Q67.4 -84.6 66.2 -84.6 65.0 -84.6 61.6 -89.05 58.3 -93.4 56.45 -97.15 55.95 -96.1 53.65 -93.6 M102.9 -106.1 L102.9 -107.9 103.05 -107.6 102.9 -106.1 M55.4 -58.35 Q53.65 -57.5 53.45 -55.45 L54.65 -55.45 55.65 -58.0 55.4 -58.35" fill="#72624b" fill-rule="evenodd" stroke="none"/>
    <path d="M49.85 128.55 L49.85 126.9 37.65 125.85 36.4 118.35 40.1 113.85 Q42.25 111.15 43.95 108.15 44.8 106.6 45.3 104.8 47.9 94.95 42.8 86.35 47.45 80.95 51.65 75.0 55.1 70.0 55.0 63.95 54.95 62.45 55.25 61.1 57.1 52.1 62.5 44.4 L57.3 39.6 62.4 34.95 60.25 32.6 64.35 29.7 65.1 20.7 Q65.4 16.1 65.0 11.5 64.05 0.3 64.95 -10.9 65.05 -11.85 64.4 -12.4 63.1 -10.95 62.0 -8.0 59.35 -0.9 57.65 6.45 55.9 13.9 50.9 19.45 48.85 21.65 49.75 24.5 L50.7 26.8 45.65 34.25 48.2 38.25 44.2 43.65 Q40.0 46.2 39.15 50.5 39.1 50.85 39.5 51.2 L40.8 52.25 Q38.45 54.65 38.05 57.95 L38.05 59.75 Q36.5 60.55 35.55 61.95 34.05 64.1 34.9 66.5 30.7 69.15 30.25 73.95 L31.8 75.25 Q28.4 78.35 27.25 83.15 26.8 84.85 25.8 86.25 19.55 94.65 16.75 104.5 L17.55 103.3 6.95 126.7 Q2.25 119.4 -6.1 116.25 L-7.5 115.9 Q15.6 84.1 28.3 47.05 L31.6 36.4 Q35.8 22.0 39.05 7.4 42.0 2.25 47.2 -1.0 50.5 -3.1 52.15 -6.75 L54.75 -13.2 Q63.1 -20.4 66.15 -31.0 L70.6 -46.2 Q71.55 -49.25 71.3 -52.5 L70.3 -52.45 Q67.6 -47.15 65.8 -41.55 L65.25 -40.4 61.15 -33.5 Q58.45 -28.45 52.75 -28.0 51.55 -28.15 50.55 -28.7 46.8 -30.7 47.4 -35.35 L50.25 -36.0 48.4 -36.35 Q52.0 -35.95 55.9 -36.9 58.9 -37.65 60.75 -40.2 64.9 -46.05 66.75 -53.15 70.15 -61.3 70.15 -64.75 L69.75 -66.75 69.3 -66.75 Q69.15 -64.25 67.25 -58.3 L60.7 -48.3 Q59.8 -48.25 58.75 -47.0 L58.55 -46.75 58.8 -48.25 57.5 -46.75 Q55.95 -44.6 53.8 -43.0 L54.55 -46.1 54.15 -46.25 51.5 -42.35 Q46.1 -42.25 43.4 -46.95 41.45 -50.35 44.6 -52.75 47.35 -52.3 49.65 -53.65 L49.95 -53.75 Q57.5 -54.55 57.5 -58.9 L57.5 -59.25 Q58.3 -60.2 57.75 -61.25 L56.95 -59.55 Q49.45 -56.05 41.5 -58.85 44.85 -59.15 47.4 -61.4 42.65 -64.45 37.0 -66.25 28.95 -68.8 20.5 -69.5 9.75 -70.8 -0.35 -74.1 -10.25 -77.5 -20.15 -81.0 -23.4 -82.2 -26.6 -83.55 -32.75 -85.95 -38.25 -89.1 L-39.1 -89.65 -77.95 -91.2 -89.6 -91.4 -106.6 -91.4 Q-101.2 -92.1 -97.4 -95.7 -93.6 -94.7 -89.65 -94.4 -87.35 -94.25 -84.95 -94.35 L-77.6 -95.6 -74.2 -96.4 Q-70.3 -97.25 -66.5 -95.85 L-55.7 -92.1 Q-53.85 -91.4 -51.9 -91.2 -42.35 -89.85 -32.8 -90.8 -30.45 -90.7 -28.9 -89.75 -25.7 -87.8 -22.3 -85.95 -19.75 -84.6 -16.95 -84.1 -4.6 -81.35 7.8 -83.4 12.1 -80.6 17.3 -80.1 24.85 -79.55 31.95 -82.1 35.7 -83.5 39.75 -84.05 L44.45 -83.4 Q48.4 -82.25 51.8 -84.4 54.8 -86.3 53.95 -89.55 L53.9 -89.3 54.15 -91.45 Q54.15 -92.75 53.65 -93.6 55.95 -96.1 56.45 -97.15 58.3 -93.4 61.6 -89.05 65.0 -84.6 66.2 -84.6 67.4 -84.6 69.0 -87.6 L71.05 -91.9 74.7 -87.9 Q77.85 -84.3 78.4 -84.85 79.05 -84.65 80.6 -88.6 L82.4 -93.45 82.45 -93.45 Q82.7 -92.1 85.85 -87.65 L88.85 -83.75 89.95 -83.2 Q93.45 -87.65 95.0 -93.1 99.3 -88.35 103.75 -84.2 103.95 -81.75 103.3 -79.55 99.6 -67.55 95.4 -55.5 95.05 -54.55 95.25 -53.6 L97.2 -42.7 Q97.7 -39.75 96.6 -36.7 93.45 -28.25 89.8 -20.25 L91.0 -20.5 98.3 -22.75 Q95.55 -10.8 94.8 1.2 94.05 12.7 88.85 23.0 86.5 27.2 83.3 29.25 84.65 29.35 86.75 31.4 85.65 33.05 84.85 36.2 83.55 41.5 82.2 43.75 80.4 46.7 78.7 50.8 77.7 53.2 75.85 55.25 74.65 56.6 74.65 58.35 74.65 58.95 76.15 60.0 77.65 61.05 77.65 61.85 L74.7 68.8 72.15 72.85 Q70.65 74.9 70.65 76.35 70.65 76.95 71.4 78.0 72.15 79.05 72.15 79.75 72.15 81.4 69.95 83.5 67.05 86.2 66.45 87.25 65.45 89.0 62.05 90.55 59.45 91.75 59.45 94.65 59.45 96.15 61.45 98.85 61.45 99.8 58.7 102.5 55.95 105.25 55.95 109.0 L55.45 119.25 Q55.45 121.8 56.2 124.1 56.25 125.6 54.6 128.55 L49.85 128.55 M54.75 -71.6 L52.15 -67.45 52.65 -66.85 Q53.9 -67.3 54.4 -68.55 55.25 -69.75 54.9 -71.05 L54.75 -71.6" fill="url(#gradient0)" fill-rule="evenodd" stroke="none"/>
    <path d="M-161.7 -105.7 L-184.5 -107.7 -194.1 -108.2 -205.9 -108.45 -200.95 -109.4 -201.35 -109.45 -199.95 -109.45 -199.95 -109.0 -199.25 -108.85 -198.4 -109.65 -192.5 -110.25 -192.15 -109.95 -166.25 -110.4 -163.5 -110.35 Q-157.65 -109.85 -150.35 -108.25 L-146.9 -107.45 -145.65 -107.1 -145.6 -107.1 -141.3 -105.1 Q-140.9 -102.9 -139.35 -101.5 -137.65 -100.1 -135.25 -100.05 L-132.1 -99.95 Q-128.75 -94.95 -123.0 -93.15 -127.5 -94.05 -131.75 -96.4 L-137.55 -99.3 Q-141.4 -101.0 -145.4 -102.25 L-148.65 -103.25 Q-155.05 -105.0 -161.7 -105.7 M-50.8 -94.5 L-50.25 -94.4 -51.3 -94.5 -50.8 -94.5 M52.6 -42.6 L53.55 -44.35 53.2 -42.75 52.6 -42.6 M56.25 -44.35 L57.75 -46.25 58.05 -45.75 56.25 -44.35 M87.9 32.55 L88.85 33.6 Q92.8 38.05 94.55 43.45 L94.65 44.6 Q92.05 58.15 93.4 71.7 95.55 93.1 95.65 114.35 L95.7 128.55 74.95 128.55 79.4 95.4 81.3 84.85 Q84.95 65.0 86.1 45.05 L87.9 32.55 M85.9 69.35 L83.0 88.8 84.55 88.25 Q86.45 78.85 86.65 69.3 L85.9 69.35 M88.5 77.15 Q87.85 77.95 86.6 87.55 L88.05 87.1 88.85 80.25 88.85 78.35 88.5 77.15 M-209.4 -111.9 L-211.3 -113.95 -209.95 -115.1 -208.4 -114.0 -209.4 -111.9" fill="#9a887c" fill-rule="evenodd" stroke="none"/>
    <path d="M35.35 125.75 L6.95 126.7 17.55 103.3 Q22.25 93.9 27.9 85.1 L29.8 82.05 Q28.8 79.1 31.75 77.4 32.75 76.75 33.3 75.65 L33.55 75.0 31.55 72.65 Q32.95 68.6 37.05 66.65 L35.65 64.9 Q35.85 62.8 38.0 61.7 L40.15 59.9 40.3 59.75 38.85 58.2 Q38.8 56.4 40.3 55.05 L43.4 52.3 43.8 51.75 40.6 50.45 40.0 49.9 44.65 43.45 44.2 43.65 48.2 38.25 45.65 34.25 50.7 26.8 49.75 24.5 Q48.85 21.65 50.9 19.45 55.9 13.9 57.65 6.45 59.35 -0.9 62.0 -8.0 63.1 -10.95 64.4 -12.4 62.65 -8.25 62.6 -3.2 62.5 11.1 63.55 25.4 63.65 26.9 62.75 27.9 60.35 30.6 57.65 32.9 L59.3 34.75 57.65 36.45 Q56.65 37.6 56.0 38.9 54.8 41.25 57.45 42.9 L59.8 44.5 52.0 59.5 Q53.2 61.7 53.1 64.2 53.0 67.9 51.05 70.9 45.85 78.7 40.25 86.2 L43.7 93.1 Q44.8 95.15 44.35 97.55 43.75 101.1 43.45 104.7 43.3 106.2 42.2 107.55 37.8 112.6 33.75 118.1 L35.35 125.75" fill="url(#gradient1)" fill-rule="evenodd" stroke="none"/>
    <path d="M-47.0 114.25 L-50.05 114.7 Q-51.15 110.7 -46.65 110.4 L-45.0 110.25 -45.55 107.05 Q-44.45 105.3 -42.3 105.05 L-41.1 105.0 -39.1 107.7 -38.15 107.45 Q-38.0 104.15 -34.95 102.75 -30.8 100.85 -26.95 103.7 L-26.6 102.65 Q-29.4 98.85 -25.4 96.05 -23.2 94.5 -20.6 95.75 -19.4 96.45 -18.1 96.05 L-17.6 95.35 Q-22.55 92.75 -19.45 88.3 -17.85 85.95 -15.0 85.65 -12.5 85.7 -10.65 87.2 L-9.85 87.05 -9.45 86.15 Q-11.95 84.1 -11.55 81.0 -11.15 78.15 -8.7 76.9 L-3.35 78.2 Q-4.5 74.2 -1.65 71.7 -0.95 71.1 0.2 71.15 2.35 71.4 3.4 73.25 5.5 68.0 10.9 69.6 11.95 69.9 12.3 70.85 L13.7 76.1 14.6 75.75 12.75 79.4 Q11.0 79.25 9.7 80.55 L9.35 80.9 8.9 81.0 Q6.35 76.85 3.0 80.5 L1.95 78.25 1.55 78.1 Q-1.75 78.25 -2.65 81.15 L-2.8 82.0 -2.15 83.1 -7.5 83.5 Q-8.5 86.5 -6.85 89.15 -13.05 87.8 -17.35 92.4 -16.25 94.75 -13.95 96.0 -20.4 96.5 -25.1 100.85 L-22.85 104.0 -28.1 106.5 Q-34.4 103.75 -37.1 109.95 L-39.45 108.85 -42.65 109.2 -43.35 109.9 -42.6 111.4 -46.75 112.2 -47.0 114.25" fill="#addab3" fill-rule="evenodd" stroke="none"/>
    <path d="M12.75 79.4 L10.5 83.75 Q6.45 91.5 1.8 99.05 -3.3 100.55 -6.5 105.1 -9.45 100.75 -13.7 103.9 L-15.4 103.4 Q-20.7 102.2 -21.6 107.9 -25.0 106.75 -27.75 109.15 L-27.95 110.75 -30.25 111.0 Q-33.5 111.15 -35.5 113.65 L-47.0 114.25 -46.75 112.2 -42.6 111.4 -43.35 109.9 -42.65 109.2 -39.45 108.85 -37.1 109.95 Q-34.4 103.75 -28.1 106.5 L-22.85 104.0 -25.1 100.85 Q-20.4 96.5 -13.95 96.0 -16.25 94.75 -17.35 92.4 -13.05 87.8 -6.85 89.15 -8.5 86.5 -7.5 83.5 L-2.15 83.1 -2.8 82.0 -2.65 81.15 Q-1.75 78.25 1.55 78.1 L1.95 78.25 3.0 80.5 Q6.35 76.85 8.9 81.0 L9.35 80.9 9.7 80.55 Q11.0 79.25 12.75 79.4" fill="#74a36f" fill-rule="evenodd" stroke="none"/>
    <path d="M37.65 125.85 L35.35 125.75 33.75 118.1 Q37.8 112.6 42.2 107.55 43.3 106.2 43.45 104.7 43.75 101.1 44.35 97.55 44.8 95.15 43.7 93.1 L40.25 86.2 Q45.85 78.7 51.05 70.9 53.0 67.9 53.1 64.2 53.2 61.7 52.0 59.5 L59.8 44.5 57.45 42.9 Q54.8 41.25 56.0 38.9 56.65 37.6 57.65 36.45 L59.3 34.75 57.65 32.9 Q60.35 30.6 62.75 27.9 63.65 26.9 63.55 25.4 62.5 11.1 62.6 -3.2 62.65 -8.25 64.4 -12.4 65.05 -11.85 64.95 -10.9 64.05 0.3 65.0 11.5 65.4 16.1 65.1 20.7 L64.35 29.7 60.25 32.6 62.4 34.95 57.3 39.6 62.5 44.4 Q57.1 52.1 55.25 61.1 54.95 62.45 55.0 63.95 55.1 70.0 51.65 75.0 47.45 80.95 42.8 86.35 47.9 94.95 45.3 104.8 44.8 106.6 43.95 108.15 42.25 111.15 40.1 113.85 L36.4 118.35 37.65 125.85" fill="url(#gradient2)" fill-rule="evenodd" stroke="none"/>
    <path d="M1.8 99.05 L-9.1 115.7 -35.5 113.65 Q-33.5 111.15 -30.25 111.0 L-27.95 110.75 -27.75 109.15 Q-25.0 106.75 -21.6 107.9 -20.7 102.2 -15.4 103.4 L-13.7 103.9 Q-9.45 100.75 -6.5 105.1 -3.3 100.55 1.8 99.05" fill="#3b6c2a" fill-rule="evenodd" stroke="none"/>
    <path d="M181.45 -57.75 L181.95 -59.1 Q183.5 -59.35 184.4 -60.6 L185.1 -61.45 185.45 -54.2 183.05 -54.3 183.85 -57.95 182.75 -57.35 181.45 -57.75 M230.25 -64.55 Q233.45 -68.05 236.65 -69.45 L237.0 -69.65 236.5 -69.05 224.2 -55.7 219.95 -55.9 Q214.35 -56.65 210.05 -53.05 198.1 -54.8 195.55 -51.85 192.95 -48.95 186.15 -48.1 179.3 -47.3 172.35 -45.7 167.15 -45.1 164.15 -40.5 161.9 -37.2 160.4 -33.25 158.2 -27.25 156.65 -21.15 156.4 -20.2 155.65 -19.4 L148.05 -12.1 Q146.25 -10.4 145.65 -8.0 143.6 -0.2 139.0 6.5 137.85 8.2 135.85 9.0 L135.25 -0.35 Q143.4 -6.1 148.1 -14.85 148.85 -16.25 150.0 -17.3 L154.75 -21.4 Q158.4 -36.6 169.75 -47.65 171.0 -48.85 172.5 -49.25 177.3 -50.9 182.65 -50.8 191.0 -51.7 199.0 -54.4 L203.1 -55.1 Q205.8 -55.2 208.55 -54.15 213.95 -58.05 220.55 -57.3 L223.5 -56.95 230.25 -64.55" fill="#635145" fill-rule="evenodd" stroke="none"/>
    <path d="M125.85 -96.65 L131.65 -93.0 132.05 -93.35 131.25 -85.65 125.85 -96.65 M103.75 -84.2 L104.6 -84.35 Q106.05 -88.5 106.05 -93.25 110.2 -90.35 112.7 -85.6 113.2 -84.65 114.3 -84.25 115.2 -84.1 116.1 -84.5 L116.8 -96.0 131.2 -84.6 Q131.2 -62.9 130.65 -41.25 130.15 -22.05 130.35 -2.8 130.5 8.8 132.3 20.4 125.15 -1.0 123.9 -23.5 L123.65 -23.0 Q122.15 -16.15 122.55 -9.25 123.3 3.4 121.5 15.95 L121.55 16.9 Q123.05 23.5 125.15 29.75 122.15 33.8 121.4 38.85 121.3 39.5 121.7 40.1 L124.45 44.2 Q125.65 46.05 124.25 47.9 122.05 50.85 121.95 54.15 121.85 56.8 124.4 57.5 125.05 61.25 125.15 65.05 L125.1 71.9 120.8 65.0 117.65 69.3 116.2 58.6 116.65 56.65 116.05 57.45 115.75 54.4 Q116.25 42.55 115.35 30.65 115.1 27.75 115.5 24.95 116.1 20.6 114.55 16.9 L115.9 12.0 116.5 -33.5 115.1 -38.6 115.4 -39.55 115.6 -40.5 115.65 -41.5 115.55 -42.9 116.55 -45.05 114.4 -47.35 Q116.2 -48.25 116.1 -50.2 116.0 -51.4 115.3 -52.05 L112.95 -54.4 115.0 -58.1 Q116.05 -59.8 116.35 -61.95 L116.35 -62.2 113.15 -64.6 115.55 -69.75 114.85 -70.2 112.5 -63.65 115.2 -62.15 Q113.7 -59.1 112.5 -55.85 111.6 -53.6 113.75 -51.85 L115.15 -50.6 112.9 -47.1 115.05 -45.1 113.75 -38.05 Q112.65 -17.85 110.0 1.9 109.85 3.15 109.2 4.25 104.7 11.8 106.7 20.4 107.2 22.55 106.8 24.8 L104.0 40.7 Q103.5 43.55 104.5 46.15 106.35 50.7 105.35 55.55 103.25 65.5 102.65 75.55 L101.9 82.95 100.65 89.45 Q95.65 109.2 102.0 128.55 L95.7 128.55 95.65 114.35 Q95.55 93.1 93.4 71.7 92.05 58.15 94.65 44.6 L94.55 43.45 Q92.8 38.05 88.85 33.6 L87.9 32.55 87.9 30.15 86.75 31.4 Q84.65 29.35 83.3 29.25 86.5 27.2 88.85 23.0 94.05 12.7 94.8 1.2 95.55 -10.8 98.3 -22.75 L91.0 -20.5 89.8 -20.25 Q93.45 -28.25 96.6 -36.7 97.7 -39.75 97.2 -42.7 L95.25 -53.6 Q95.05 -54.55 95.4 -55.5 99.6 -67.55 103.3 -79.55 103.95 -81.75 103.75 -84.2 M135.25 -0.35 L134.55 -13.7 Q142.7 -16.6 149.45 -22.1 151.05 -23.4 151.75 -25.15 154.15 -30.95 156.15 -37.15 157.15 -40.3 159.85 -42.35 162.4 -44.3 163.05 -47.4 163.35 -48.65 164.6 -49.05 170.2 -51.25 176.15 -53.1 179.8 -54.25 181.45 -57.75 L182.75 -57.35 183.85 -57.95 183.05 -54.3 185.45 -54.2 Q190.85 -52.05 195.55 -55.45 197.7 -57.05 200.2 -57.65 L201.0 -57.8 223.0 -60.4 223.6 -60.55 Q227.5 -61.65 230.25 -64.55 L223.5 -56.95 220.55 -57.3 Q213.95 -58.05 208.55 -54.15 205.8 -55.2 203.1 -55.1 L199.0 -54.4 Q191.0 -51.7 182.65 -50.8 177.3 -50.9 172.5 -49.25 171.0 -48.85 169.75 -47.65 158.4 -36.6 154.75 -21.4 L150.0 -17.3 Q148.85 -16.25 148.1 -14.85 143.4 -6.1 135.25 -0.35 M236.65 -69.45 L237.4 -69.9 236.5 -69.05 237.0 -69.65 236.65 -69.45 M148.3 86.5 L145.9 82.65 Q144.45 80.2 143.35 77.65 141.7 74.05 138.25 72.15 L139.05 63.1 135.05 62.15 137.05 56.7 133.45 52.7 Q135.45 50.55 134.65 47.8 133.05 42.25 130.05 37.25 L133.1 32.15 Q134.25 45.55 138.8 57.95 144.0 72.2 148.3 86.5" fill="#7c6a5e" fill-rule="evenodd" stroke="none"/>
    <path d="M132.05 -93.35 L132.8 -94.05 132.2 -95.4 132.3 -95.35 135.05 -93.25 Q133.75 -71.5 133.6 -49.75 L133.4 -29.85 Q133.15 -8.25 134.35 13.45 135.25 29.25 138.3 44.7 140.5 55.6 144.45 66.0 148.9 77.7 152.4 89.9 L148.3 86.5 Q144.0 72.2 138.8 57.95 134.25 45.55 133.1 32.15 L135.55 29.1 132.3 20.4 Q130.5 8.8 130.35 -2.8 130.15 -22.05 130.65 -41.25 131.2 -62.9 131.2 -84.6 L132.1 -83.9 131.25 -85.65 132.05 -93.35 M132.3 -95.35 L132.3 -95.2 132.3 -95.35" fill="#9a887c" fill-rule="evenodd" stroke="none"/>
    <path d="M132.2 -95.4 L125.85 -109.8 133.5 -106.0 132.3 -95.35 132.2 -95.4" fill="#54442d" fill-rule="evenodd" stroke="none"/>
    <path d="M133.5 -106.0 L136.3 -104.6 135.05 -93.25 132.3 -95.35 133.5 -106.0" fill="#72624b" fill-rule="evenodd" stroke="none"/>
    <path d="M102.35 -96.85 Q102.85 -99.75 102.9 -106.1 L103.05 -107.6 Q105.65 -103.0 109.2 -99.1 L111.65 -96.5 Q112.55 -103.1 111.9 -109.85 L125.85 -96.65 131.25 -85.65 132.1 -83.9 131.2 -84.6 116.8 -96.0 116.1 -84.5 Q115.2 -84.1 114.3 -84.25 113.2 -84.65 112.7 -85.6 110.2 -90.35 106.05 -93.25 106.05 -88.5 104.6 -84.35 L103.75 -84.2 Q102.55 -91.25 102.35 -96.85" fill="#54442d" fill-rule="evenodd" stroke="none"/>
    <path d="M172.35 -45.7 Q161.2 -36.6 159.95 -22.3 159.85 -21.1 159.2 -20.15 L156.2 -17.0 Q150.45 -10.7 146.5 -3.05 142.85 4.05 137.55 10.15 L136.1 11.55 135.85 9.0 Q137.85 8.2 139.0 6.5 143.6 -0.2 145.65 -8.0 146.25 -10.4 148.05 -12.1 L155.65 -19.4 Q156.4 -20.2 156.65 -21.15 158.2 -27.25 160.4 -33.25 161.9 -37.2 164.15 -40.5 167.15 -45.1 172.35 -45.7" fill="#816f63" fill-rule="evenodd" stroke="none"/>
    <path d="M102.0 128.55 Q95.65 109.2 100.65 89.45 L101.9 82.95 102.65 75.55 Q103.25 65.5 105.35 55.55 106.35 50.7 104.5 46.15 103.5 43.55 104.0 40.7 L106.8 24.8 Q107.2 22.55 106.7 20.4 104.7 11.8 109.2 4.25 109.85 3.15 110.0 1.9 112.65 -17.85 113.75 -38.05 114.4 -35.65 114.5 -33.5 114.9 -23.8 114.8 -14.1 112.15 -8.05 113.45 -1.7 L113.8 -0.1 Q111.4 5.9 109.65 12.35 109.35 13.4 109.75 14.55 L110.9 16.95 Q113.3 21.0 111.3 25.25 107.85 32.7 108.6 40.5 108.7 41.5 109.35 42.4 111.7 45.5 111.15 49.6 109.65 61.2 107.8 72.65 109.75 74.25 111.75 72.3 112.35 71.7 113.3 71.5 114.6 71.6 115.3 72.4 118.9 76.65 120.85 82.0 121.1 82.6 120.9 83.35 L119.6 88.1 Q118.4 92.4 117.55 96.9 L114.4 113.2 Q114.0 115.4 114.4 117.7 115.4 123.4 117.35 128.55 L102.0 128.55" fill="#5e4c40" fill-rule="evenodd" stroke="none"/>
    <path d="M123.65 -23.0 L123.9 -23.5 Q125.15 -1.0 132.3 20.4 L132.85 28.45 Q127.3 12.65 124.35 -3.7 122.65 -13.1 123.65 -23.0 M132.9 29.25 L133.1 32.15 130.05 37.25 Q133.05 42.25 134.65 47.8 135.45 50.55 133.45 52.7 L137.05 56.7 135.05 62.15 139.05 63.1 138.25 72.15 Q141.7 74.05 143.35 77.65 144.45 80.2 145.9 82.65 L148.3 86.5 149.65 90.65 Q144.85 87.95 143.4 82.5 141.75 76.55 136.65 73.3 L137.4 64.25 Q133.9 64.9 134.05 61.5 134.2 59.05 134.9 56.65 130.6 54.4 132.05 50.0 L132.6 48.4 Q129.35 42.0 129.9 35.2 130.0 34.15 130.55 33.2 L132.9 29.25" fill="#6d5a4e" fill-rule="evenodd" stroke="none"/>
    <path d="M86.75 31.4 L87.9 30.15 87.9 32.55 86.75 31.4 M125.1 71.9 L125.15 65.05 Q125.05 61.25 124.4 57.5 121.85 56.8 121.95 54.15 122.05 50.85 124.25 47.9 125.65 46.05 124.45 44.2 L121.7 40.1 Q121.3 39.5 121.4 38.85 122.15 33.8 125.15 29.75 123.05 23.5 121.55 16.9 L121.5 15.95 Q123.3 3.4 122.55 -9.25 122.15 -16.15 123.65 -23.0 122.65 -13.1 124.35 -3.7 127.3 12.65 132.85 28.45 L132.9 29.25 130.55 33.2 Q130.0 34.15 129.9 35.2 129.35 42.0 132.6 48.4 L132.05 50.0 Q130.6 54.4 134.9 56.65 134.2 59.05 134.05 61.5 133.9 64.9 137.4 64.25 L136.65 73.3 Q141.75 76.55 143.4 82.5 144.85 87.95 149.65 90.65 L162.7 128.55 154.1 128.55 Q144.7 119.9 133.95 113.05 128.8 104.45 130.85 95.0 131.6 91.65 130.35 88.65 L128.6 84.8 Q127.9 83.35 127.95 81.85 128.1 76.35 125.1 71.9" fill="#5e4c40" fill-rule="evenodd" stroke="none"/>
    <path d="M115.75 54.4 L116.05 57.45 113.15 62.6 113.9 63.0 116.2 58.6 117.65 69.3 120.8 65.0 125.1 71.9 Q128.1 76.35 127.95 81.85 127.9 83.35 128.6 84.8 L130.35 88.65 Q131.6 91.65 130.85 95.0 128.8 104.45 133.95 113.05 144.7 119.9 154.1 128.55 L117.35 128.55 Q115.4 123.4 114.4 117.7 114.0 115.4 114.4 113.2 L117.55 96.9 Q118.4 92.4 119.6 88.1 L120.9 83.35 Q121.1 82.6 120.85 82.0 118.9 76.65 115.3 72.4 114.6 71.6 113.3 71.5 112.35 71.7 111.75 72.3 109.75 74.25 107.8 72.65 109.65 61.2 111.15 49.6 111.7 45.5 109.35 42.4 108.7 41.5 108.6 40.5 107.85 32.7 111.3 25.25 113.3 21.0 110.9 16.95 L109.75 14.55 Q109.35 13.4 109.65 12.35 111.4 5.9 113.8 -0.1 L113.45 -1.7 Q112.15 -8.05 114.8 -14.1 115.45 1.8 112.95 17.35 114.15 18.85 114.1 20.65 113.4 37.9 115.35 55.1 L115.75 54.4" fill="#402e22" fill-rule="evenodd" stroke="none"/>
    <path d="M86.75 31.4 L87.9 32.55 86.1 45.05 Q85.0 47.25 84.5 50.2 L82.4 63.95 79.15 72.75 Q76.9 80.1 74.15 83.55 65.65 94.2 65.65 94.6 65.65 96.05 67.65 96.65 69.65 97.3 69.65 98.4 L67.3 103.2 Q64.9 107.75 64.9 110.25 L65.2 119.5 64.5 128.55 54.6 128.55 Q56.25 125.6 56.2 124.1 55.45 121.8 55.45 119.25 L55.95 109.0 Q55.95 105.25 58.7 102.5 61.45 99.8 61.45 98.85 59.45 96.15 59.45 94.65 59.45 91.75 62.05 90.55 65.45 89.0 66.45 87.25 67.05 86.2 69.95 83.5 72.15 81.4 72.15 79.75 72.15 79.05 71.4 78.0 70.65 76.95 70.65 76.35 70.65 74.9 72.15 72.85 L74.7 68.8 77.65 61.85 Q77.65 61.05 76.15 60.0 74.65 58.95 74.65 58.35 74.65 56.6 75.85 55.25 77.7 53.2 78.7 50.8 80.4 46.7 82.2 43.75 83.55 41.5 84.85 36.2 85.65 33.05 86.75 31.4" fill="#65594e" fill-rule="evenodd" stroke="none"/>
    <path d="M152.4 89.9 L153.45 93.1 149.65 90.65 148.3 86.5 152.4 89.9 M133.1 32.15 L132.9 29.25 132.85 28.45 132.3 20.4 135.55 29.1 133.1 32.15" fill="#8b786c" fill-rule="evenodd" stroke="none"/>
    <path d="M153.45 93.1 L165.7 128.55 162.7 128.55 149.65 90.65 153.45 93.1" fill="#7c6a5e" fill-rule="evenodd" stroke="none"/>
    <path d="M64.5 128.55 L65.2 119.5 64.9 110.25 Q64.9 107.75 67.3 103.2 L69.65 98.4 Q69.65 97.3 67.65 96.65 65.65 96.05 65.65 94.6 65.65 94.2 74.15 83.55 76.9 80.1 79.15 72.75 L82.4 63.95 77.6 99.7 79.4 95.4 74.95 128.55 64.5 128.55 M76.9 92.0 Q74.15 98.6 73.7 105.75 L75.3 104.95 77.35 94.75 77.55 92.8 76.9 92.0" fill="#423f3e" fill-rule="evenodd" stroke="none"/>
  </g>
  <defs>
    <linearGradient gradientTransform="matrix(-0.0412, 0.2166, -0.1291, -0.0246, -33.25, 113.75)" gradientUnits="userSpaceOnUse" id="gradient0" spreadMethod="pad" x1="-819.2" x2="819.2">
      <stop offset="0.0" stop-color="#9a887c"/>
      <stop offset="1.0" stop-color="#72624b"/>
    </linearGradient>
    <linearGradient gradientTransform="matrix(-0.0193, 0.1211, -0.017, -0.0027, 24.0, 143.5)" gradientUnits="userSpaceOnUse" id="gradient1" spreadMethod="pad" x1="-819.2" x2="819.2">
      <stop offset="0.0" stop-color="#7a6552"/>
      <stop offset="1.0" stop-color="#473c30"/>
    </linearGradient>
    <linearGradient gradientTransform="matrix(0.0, 0.0827, -0.0193, 0.0, 49.6, 57.75)" gradientUnits="userSpaceOnUse" id="gradient2" spreadMethod="pad" x1="-819.2" x2="819.2">
      <stop offset="0.0" stop-color="#877364"/>
      <stop offset="1.0" stop-color="#756453"/>
    </linearGradient>
  </defs>
</svg>
