<?xml version="1.0" encoding="UTF-8" standalone="no"?>
<svg xmlns:xlink="http://www.w3.org/1999/xlink" height="51.55px" width="73.9px" xmlns="http://www.w3.org/2000/svg">
  <g transform="matrix(1.0, 0.0, 0.0, 1.0, 37.55, 3.55)">
    <path d="M25.3 -3.1 Q23.7 6.6 31.55 18.25 39.35 29.9 34.5 39.05 31.7 44.35 27.75 42.65 27.0 42.4 27.05 41.5 27.15 39.55 29.1 38.8 32.85 35.3 32.85 30.15 32.9 22.45 28.05 16.0 24.95 11.9 23.65 6.95 22.7 3.3 22.6 -0.55 23.05 -3.55 25.3 -3.1 M13.2 -2.95 L13.35 -2.85 Q13.7 -0.75 13.45 1.35 L13.35 1.7 13.4 2.8 Q14.7 13.8 18.15 24.7 L18.65 27.3 Q19.5 37.65 13.5 46.3 L12.1 47.5 Q9.2 49.05 9.6 45.95 9.8 44.2 10.85 42.65 19.2 30.2 13.5 16.05 12.6 13.8 12.1 11.45 11.35 7.7 11.6 4.15 L11.25 3.5 Q11.55 0.6 12.3 -2.15 L12.4 -2.55 12.2 -3.2 12.3 -3.2 13.2 -2.95 M-26.15 -2.05 L-26.0 -2.25 Q-20.8 5.1 -21.85 14.0 -22.15 16.5 -23.25 18.9 -24.0 20.55 -25.4 21.55 L-29.4 24.85 Q-32.05 27.2 -33.55 30.4 -34.65 32.85 -34.15 35.2 L-33.05 38.4 Q-32.7 39.25 -33.1 39.95 -34.15 40.65 -35.5 40.25 -36.4 40.1 -36.7 39.1 -37.3 37.0 -37.5 34.85 -37.65 32.9 -37.2 31.05 -36.15 26.75 -32.7 23.85 L-27.3 19.1 -25.9 17.65 Q-24.45 16.0 -24.05 14.15 -23.8 13.15 -23.9 12.15 -24.25 8.0 -25.0 3.9 L-26.15 -2.05 M-2.0 -3.3 L-1.75 -3.15 Q-0.5 1.6 -1.25 6.5 L-1.25 6.9 Q-3.7 20.5 -3.0 34.4 -2.65 41.0 -1.95 47.25 -1.85 48.0 -2.75 47.95 -5.7 47.8 -5.9 44.65 L-6.2 41.9 Q-7.2 34.8 -6.55 27.7 -5.3 13.85 -3.15 0.1 L-2.85 -2.95 Q-2.8 -3.4 -2.35 -3.45 L-2.0 -3.3 M-16.65 -3.45 L-16.45 -3.55 Q-11.3 9.4 -14.6 23.7 -17.05 34.15 -14.0 44.35 -16.35 47.5 -17.55 43.75 -19.75 37.05 -18.85 30.0 -17.7 21.2 -16.1 12.6 -15.2 7.75 -16.35 3.05 -16.75 1.4 -16.6 -0.3 -17.45 -2.0 -16.65 -3.45" fill="#000000" fill-rule="evenodd" stroke="none"/>
  </g>
</svg>
