<?xml version="1.0" encoding="UTF-8" standalone="no"?>
<svg xmlns:xlink="http://www.w3.org/1999/xlink" height="60.25px" width="52.3px" xmlns="http://www.w3.org/2000/svg">
  <g transform="matrix(1.0, 0.0, 0.0, 1.0, 25.35, 1.6)">
    <path d="M-19.1 14.1 Q-18.3 18.15 -18.0 22.25 -17.8 25.05 -17.75 27.85 L-17.85 33.4 -18.3 38.85 -19.1 44.3 -19.75 46.9 -21.45 51.75 Q-22.05 53.3 -23.0 54.4 -23.85 54.45 -24.6 53.65 -25.7 52.5 -25.15 51.15 L-23.75 47.9 Q-22.55 45.25 -22.05 42.55 L-21.15 37.05 -20.6 31.6 -20.4 26.1 -20.6 20.5 -21.3 13.75 Q-21.85 9.8 -22.55 5.95 L-23.35 1.45 -23.0 1.1 Q-20.4 7.35 -19.1 14.1 M-12.2 11.0 Q-12.55 7.45 -13.15 4.0 -13.6 1.65 -12.75 -0.65 -11.75 3.25 -11.1 7.35 L-10.7 10.0 -10.3 12.75 -9.7 18.25 -9.1 25.1 -8.75 30.7 -8.6 36.3 Q-8.5 40.5 -8.55 44.7 -8.6 47.7 -9.15 50.45 -9.55 52.25 -10.85 53.55 L-11.55 53.3 Q-12.15 53.15 -12.6 52.8 -13.75 51.75 -13.25 50.4 L-12.65 48.4 Q-12.2 45.6 -11.9 42.8 L-11.6 38.7 -11.4 34.5 -11.4 27.6 -11.55 22.05 -11.75 16.55 -12.2 11.0 M2.45 58.25 L1.7 58.5 0.15 58.65 Q-1.1 57.9 -1.15 56.35 L-1.25 50.35 -1.45 44.3 -1.65 38.3 -1.9 32.2 -2.0 27.7 -2.05 23.15 -2.0 14.5 -2.0 14.05 -1.7 6.65 Q-1.5 2.45 -0.65 -1.3 L-0.2 -1.6 0.4 -1.2 2.45 58.25 M11.8 -0.95 L12.05 -1.2 12.5 7.1 12.65 12.6 12.65 18.15 12.6 23.75 12.6 29.35 12.8 34.9 13.15 40.4 13.4 43.1 13.8 47.65 14.15 52.1 14.1 52.65 Q12.6 53.3 11.35 52.15 10.65 51.45 10.5 50.6 L10.1 47.05 9.8 41.45 9.65 35.9 9.65 30.3 9.7 24.7 9.85 19.1 10.15 12.0 10.5 7.65 11.05 3.35 Q11.35 1.2 11.8 -0.95 M21.35 -0.75 L21.85 -1.45 21.9 -0.25 21.7 1.25 21.65 1.8 21.3 4.4 Q21.1 5.7 21.05 7.05 L21.0 12.55 21.2 17.95 21.5 23.35 22.0 28.7 Q22.45 32.85 23.2 37.0 23.95 41.0 25.1 45.0 L26.95 52.2 25.85 53.3 24.0 53.35 Q23.25 52.85 22.95 51.8 21.85 48.25 21.15 44.6 L19.85 37.2 19.2 32.15 18.8 26.7 18.6 21.2 18.55 15.7 18.8 10.1 Q19.05 7.3 19.65 4.55 20.3 1.8 21.35 -0.75" fill="#000000" fill-rule="evenodd" stroke="none"/>
  </g>
</svg>
