<?xml version="1.0" encoding="UTF-8" standalone="no"?>
<svg xmlns:xlink="http://www.w3.org/1999/xlink" height="51.25px" width="59.75px" xmlns="http://www.w3.org/2000/svg">
  <g transform="matrix(1.0, 0.0, 0.0, 1.0, 29.2, 3.8)">
    <path d="M26.1 -3.1 L26.3 -2.95 Q28.15 3.85 29.45 10.8 31.5 21.2 29.65 31.55 28.5 37.85 24.95 42.95 L23.75 43.05 Q21.55 41.4 23.15 38.65 24.05 37.1 24.6 35.35 28.4 23.3 27.6 10.6 26.9 5.95 25.45 1.3 L25.3 0.95 Q25.2 -1.35 25.65 -3.2 L25.8 -3.25 26.1 -3.1 M12.45 -3.7 L12.65 -3.8 Q15.75 0.55 16.9 6.15 19.75 19.8 19.3 34.05 19.15 38.25 17.7 42.1 16.7 46.65 12.35 46.5 11.55 46.45 11.6 45.65 11.75 43.55 13.3 41.85 14.6 40.4 14.85 38.5 16.6 24.45 14.85 10.55 L12.9 -1.6 Q11.6 -2.65 12.45 -3.7 M0.25 47.35 Q-0.55 47.2 -0.9 46.45 -6.55 33.1 -4.85 18.3 L-3.7 7.75 -3.45 7.35 -3.3 7.2 Q-3.15 1.55 -2.25 -3.65 L-2.1 -3.75 -1.8 -3.6 -1.6 -3.45 Q-0.65 0.0 -1.15 3.65 L-1.15 4.05 Q-2.9 17.8 -1.2 31.75 -0.4 38.3 2.35 43.55 3.05 42.95 2.4 43.9 4.4 48.05 0.25 47.35 M-25.75 -1.8 L-25.3 -1.5 -25.15 -1.3 Q-26.55 8.9 -26.15 19.25 -25.85 27.35 -22.2 34.6 -20.65 37.7 -19.75 40.9 -19.5 41.8 -20.4 41.95 -23.45 42.5 -24.8 39.3 -26.65 34.95 -28.1 30.4 -29.4 26.25 -29.15 21.85 -28.8 10.8 -26.8 -0.2 -26.6 -1.35 -25.75 -1.8 M-15.8 -2.7 L-15.3 -2.4 -15.2 -2.25 Q-16.7 11.9 -13.3 25.3 L-10.15 36.05 Q-7.7 39.75 -7.25 43.75 -7.2 44.65 -8.1 44.55 -10.9 44.4 -12.05 41.35 -14.5 34.7 -15.9 27.7 -18.25 15.6 -17.5 2.9 -17.35 -0.15 -15.95 -2.6 L-15.8 -2.7" fill="#000000" fill-rule="evenodd" stroke="none"/>
  </g>
</svg>
