<?xml version="1.0" encoding="UTF-8" standalone="no"?>
<svg xmlns:xlink="http://www.w3.org/1999/xlink" height="142.3px" width="74.25px" xmlns="http://www.w3.org/2000/svg">
  <g transform="matrix(1.0, 0.0, 0.0, 1.0, 37.1, 71.1)">
    <path d="M-9.4 2.5 L-8.2 3.15 -7.85 2.85 -9.4 2.5 M19.0 -70.8 Q22.9 -71.95 23.8 -68.4 25.9 -67.75 27.8 -66.65 32.2 -64.15 31.75 -59.65 36.05 -47.45 37.15 -34.4 37.4 -31.4 35.1 -29.95 L34.65 -27.2 Q34.0 -23.65 32.55 -19.95 31.75 -17.95 29.75 -17.7 L29.05 -16.4 27.3 -13.8 Q26.25 -12.4 24.5 -12.15 L24.15 -11.85 25.4 -9.45 Q27.55 -4.25 25.0 0.65 27.6 11.6 28.25 22.55 29.1 23.5 29.3 24.6 31.35 36.45 32.9 48.55 L33.8 49.4 Q35.8 52.1 34.1 54.85 29.45 62.5 20.9 65.7 4.85 71.8 -12.55 71.15 -18.45 71.0 -22.8 67.1 -23.95 66.1 -24.1 64.8 -25.5 50.9 -28.7 37.15 -29.6 36.2 -29.8 35.2 -30.2 32.8 -29.9 30.3 L-34.5 4.7 -37.1 0.75 Q-36.75 -2.2 -35.3 -4.6 -34.25 -6.45 -32.7 -7.75 -26.3 -13.25 -18.05 -15.6 -18.85 -20.65 -17.15 -25.45 -16.05 -28.5 -13.4 -30.45 -8.3 -34.4 -2.9 -31.05 -3.75 -48.45 4.75 -63.7 7.05 -67.75 10.9 -69.9 L13.1 -69.0 15.05 -69.65 19.0 -70.8" fill="#ffffff" fill-rule="evenodd" stroke="none"/>
  </g>
</svg>
