<?xml version="1.0" encoding="UTF-8" standalone="no"?>
<svg xmlns:xlink="http://www.w3.org/1999/xlink" height="161.9px" width="261.4px" xmlns="http://www.w3.org/2000/svg">
  <g transform="matrix(1.0, 0.0, 0.0, 1.0, 477.25, 62.85)">
    <path d="M-227.3 63.4 L-215.85 68.5 -249.2 64.1 -295.45 50.75 Q-332.1 39.95 -363.65 58.45 -372.65 63.7 -381.2 69.55 L-405.25 86.05 Q-413.15 91.35 -421.7 95.8 -425.25 97.7 -429.05 98.8 -432.6 99.7 -435.7 97.6 L-435.7 94.15 Q-435.55 91.2 -434.8 88.3 -433.15 82.15 -429.65 76.8 -426.75 72.3 -424.25 67.6 L-420.5 60.2 Q-413.9 45.85 -413.0 30.35 L-412.1 29.25 -411.0 28.2 Q-398.4 28.2 -386.45 25.8 L-398.7 22.45 -409.55 18.9 Q-416.1 16.55 -422.55 4.9 -434.3 -11.65 -449.7 -24.8 L-452.1 -26.8 Q-462.5 -35.3 -471.9 -45.35 L-475.6 -51.8 Q-477.6 -55.05 -477.15 -58.95 -475.9 -61.05 -473.55 -61.7 L-469.5 -62.25 Q-468.7 -62.25 -470.25 -62.85 -456.5 -58.5 -455.6 -57.95 L-438.25 -49.9 -421.1 -41.1 Q-400.55 -30.15 -380.8 -17.5 -369.75 -10.45 -357.35 -6.7 -337.55 -0.7 -317.45 -6.5 -302.05 -10.95 -287.0 -16.45 -275.0 -20.75 -263.5 -25.7 L-257.75 -28.25 Q-249.45 -32.0 -241.4 -36.15 L-240.2 -37.15 -239.8 -38.0 -237.15 -38.0 -237.4 -37.15 -238.5 -34.4 Q-247.95 -29.15 -257.75 -24.6 L-263.5 -22.0 Q-275.05 -16.95 -287.0 -12.9 L-314.6 -2.6 Q-318.4 -1.2 -322.5 -0.3 -340.65 3.65 -357.6 -1.95 L-358.1 -2.15 -361.7 -3.5 Q-371.15 -7.3 -380.15 -12.05 L-386.45 -15.55 Q-393.45 -19.55 -399.5 -24.75 -415.25 -34.35 -428.3 -41.1 L-455.6 -53.25 -469.0 -57.75 Q-471.3 -58.45 -473.2 -57.4 -473.05 -56.1 -472.55 -54.9 L-470.65 -51.0 -461.35 -41.85 -460.0 -40.55 -449.7 -30.7 -432.2 -14.6 Q-429.55 -12.2 -427.25 -9.35 -421.7 -2.5 -417.4 4.9 L-415.2 8.15 Q-410.1 14.8 -402.25 18.0 -397.1 20.05 -390.95 20.65 -388.15 20.95 -386.0 22.15 -384.0 23.25 -382.6 25.2 L-382.9 26.5 -383.1 26.85 -383.75 27.2 Q-395.85 31.1 -409.3 30.75 -409.65 30.75 -410.0 31.2 -409.7 35.6 -410.4 39.75 -411.25 44.6 -413.3 49.05 -414.75 55.8 -417.8 62.25 L-432.45 91.65 -433.0 94.35 Q-430.35 95.7 -427.55 94.35 L-422.5 91.9 Q-412.4 85.85 -402.6 79.0 L-370.75 56.85 Q-357.6 50.6 -344.35 44.5 L-342.65 44.1 -331.55 42.65 Q-320.0 41.1 -308.5 42.75 -297.75 44.35 -287.55 47.65 L-227.3 63.4" fill="#000000" fill-rule="evenodd" stroke="none"/>
    <path d="M-461.35 -41.85 L-470.65 -51.0 -472.55 -54.9 Q-473.05 -56.1 -473.2 -57.4 -471.3 -58.45 -469.0 -57.75 L-455.6 -53.25 -428.3 -41.1 Q-415.25 -34.35 -399.5 -24.75 -393.45 -19.55 -386.45 -15.55 L-380.15 -12.05 -426.2 -32.8 Q-440.6 -40.95 -449.7 -45.65 -461.25 -51.7 -464.15 -52.35 -470.8 -51.7 -461.35 -41.85" fill="#b6b6b6" fill-rule="evenodd" stroke="none"/>
    <path d="M-227.3 63.4 L-287.55 47.65 -284.45 46.0 Q-285.45 44.15 -287.8 43.15 -290.95 42.0 -294.2 41.15 -305.35 38.4 -316.85 37.15 L-328.4 36.65 -336.2 37.1 -338.35 37.6 Q-355.5 42.8 -371.0 51.7 -380.35 57.1 -388.85 63.75 L-406.1 77.65 -422.5 91.9 -427.55 94.35 Q-430.35 95.7 -433.0 94.35 L-432.45 91.65 -417.8 62.25 Q-414.75 55.8 -413.3 49.05 -411.25 44.6 -410.4 39.75 -409.7 35.6 -410.0 31.2 -409.65 30.75 -409.3 30.75 -395.85 31.1 -383.75 27.2 L-383.1 26.85 -382.9 26.5 -382.6 25.2 Q-384.0 23.25 -386.0 22.15 L-386.05 22.1 Q-398.4 11.2 -415.2 8.15 L-417.4 4.9 Q-421.7 -2.5 -427.25 -9.35 -429.55 -12.2 -432.2 -14.6 L-449.7 -30.7 -460.0 -40.55 -461.35 -41.85 Q-470.8 -51.7 -464.15 -52.35 -461.25 -51.7 -449.7 -45.65 -440.6 -40.95 -426.2 -32.8 L-380.15 -12.05 Q-371.15 -7.3 -361.7 -3.5 L-358.1 -2.15 -357.6 -1.95 Q-340.65 3.65 -322.5 -0.3 -318.4 -1.2 -314.6 -2.6 L-287.0 -12.9 Q-275.05 -16.95 -263.5 -22.0 L-257.75 -24.6 Q-247.95 -29.15 -238.5 -34.4 L-237.4 -37.15 -237.15 -38.0 -235.95 -38.0 -227.3 63.4" fill="#999999" fill-rule="evenodd" stroke="none"/>
    <path d="M-287.55 47.65 Q-297.75 44.35 -308.5 42.75 -320.0 41.1 -331.55 42.65 L-342.65 44.1 -344.35 44.5 Q-357.6 50.6 -370.75 56.85 L-402.6 79.0 Q-412.4 85.85 -422.5 91.9 L-406.1 77.65 -388.85 63.75 Q-380.35 57.1 -371.0 51.7 -355.5 42.8 -338.35 37.6 L-336.2 37.1 -328.4 36.65 -316.85 37.15 Q-305.35 38.4 -294.2 41.15 -290.95 42.0 -287.8 43.15 -285.45 44.15 -284.45 46.0 L-287.55 47.65 M-386.0 22.15 Q-388.15 20.95 -390.95 20.65 -397.1 20.05 -402.25 18.0 -410.1 14.8 -415.2 8.15 -398.4 11.2 -386.05 22.1 L-386.0 22.15" fill="#666666" fill-rule="evenodd" stroke="none"/>
  </g>
</svg>
