<?xml version="1.0" encoding="UTF-8" standalone="no"?>
<svg xmlns:xlink="http://www.w3.org/1999/xlink" height="160.55px" width="375.45px" xmlns="http://www.w3.org/2000/svg">
  <g transform="matrix(1.0, 0.0, 0.0, 1.0, 356.15, 76.85)">
    <path d="M-191.75 -53.25 L-185.85 -57.1 Q-190.45 -56.85 -195.1 -57.0 L-207.9 -58.25 -230.95 -61.85 -250.85 -64.15 -274.75 -65.8 -273.35 -64.6 -272.05 -63.55 Q-270.05 -62.1 -267.8 -60.9 -263.3 -58.55 -258.2 -58.15 L-252.75 -58.3 -248.7 -58.9 -248.55 -58.0 -247.85 -57.05 Q-247.35 -56.25 -247.7 -55.5 L-248.45 -54.05 Q-248.75 -53.55 -249.2 -53.2 L-250.05 -52.55 -250.35 -52.35 -250.65 -50.9 -252.1 -49.6 -253.85 -47.5 -255.2 -46.3 -252.85 -41.3 Q-251.65 -38.55 -251.05 -35.5 L-250.75 -33.55 Q-250.45 -31.25 -250.55 -28.95 L-250.95 -25.3 -251.15 -24.7 -252.0 -24.15 -252.65 -24.15 -253.4 -24.7 -253.55 -25.0 -253.65 -25.45 Q-254.65 -35.8 -256.85 -46.05 L-258.2 -46.55 -257.4 -48.65 -257.55 -49.95 -257.4 -50.1 -256.9 -49.8 -253.2 -55.2 -258.35 -54.9 -264.9 -55.8 -269.5 -57.3 Q-274.45 -59.35 -278.05 -62.85 L-278.25 -69.35 Q-272.6 -70.15 -267.0 -69.45 L-179.6 -60.2 -173.8 -62.6 -173.1 -63.2 -156.4 -68.7 -139.5 -73.2 -116.5 -76.85 -67.25 -75.95 -64.5 -75.6 Q-61.95 -75.1 -59.65 -73.85 L-57.45 -72.65 -58.05 -68.9 -47.95 -69.0 -48.4 -69.1 -41.1 -69.1 -14.25 -66.6 0.0 -62.95 14.45 -57.0 Q20.45 -54.25 19.0 -45.9 17.5 -37.6 16.8 -35.2 L14.9 -31.7 10.8 -26.55 -1.35 -17.15 Q-3.45 -15.65 -5.65 -14.25 L-14.4 -8.85 Q-16.6 -7.55 -18.85 -6.4 -21.05 -5.15 -23.35 -4.05 L-37.15 2.05 -46.6 5.45 Q-56.2 8.4 -66.2 10.25 L-67.15 10.95 Q-68.6 11.8 -70.05 13.1 -73.85 16.6 -76.3 21.35 L-80.0 28.5 -80.4 29.15 -80.85 29.7 -81.95 30.3 -83.3 30.35 -84.05 30.15 -84.9 29.75 -87.1 27.5 -91.25 20.85 Q-92.55 18.2 -93.2 15.2 L-98.15 20.4 -102.1 26.15 Q-105.7 32.5 -106.75 39.55 L-107.6 39.9 -109.35 39.9 -110.25 39.6 -111.9 38.35 -112.7 37.5 -116.7 31.15 -118.7 25.65 -119.5 19.9 Q-119.65 16.1 -119.05 12.45 L-133.6 26.3 -138.0 31.5 -138.9 32.9 -140.75 37.3 -141.35 39.35 Q-141.75 41.65 -142.95 43.5 L-143.8 43.4 -144.9 43.0 -147.05 41.8 -147.45 41.4 -149.6 38.45 -152.25 33.85 -154.7 27.4 Q-155.75 23.1 -155.8 18.95 L-155.9 15.55 -157.5 16.65 -162.15 22.45 -165.85 28.7 -166.6 31.2 Q-167.9 36.1 -168.85 41.25 L-164.3 38.95 Q-162.9 38.3 -161.25 38.35 -160.15 38.6 -159.1 39.1 -158.4 39.4 -158.05 40.0 -157.85 40.35 -157.95 40.85 L-158.1 41.25 -158.5 41.75 -159.85 44.25 -160.6 46.15 -161.6 50.0 -161.8 54.0 -161.15 58.5 -158.85 64.55 -157.3 65.8 -157.3 65.65 -157.2 65.35 -156.95 65.0 -156.85 64.75 -156.65 64.5 -153.55 59.05 Q-150.65 54.85 -145.95 52.35 L-145.5 52.5 -145.0 58.0 -143.1 66.35 -140.55 65.25 -136.35 62.6 -134.3 62.95 -133.85 64.2 -133.65 65.5 Q-133.5 67.6 -133.65 69.65 L-131.5 73.55 -129.8 74.45 -128.75 77.25 -128.65 78.3 -128.75 79.0 -129.05 79.7 -129.45 80.1 -129.9 80.4 Q-131.65 81.55 -133.8 81.05 -137.1 82.9 -140.75 83.3 L-148.6 83.7 -169.15 82.85 -189.0 79.5 -203.5 75.35 -221.1 68.15 -223.45 67.45 Q-225.3 66.95 -226.4 65.6 -232.55 58.2 -231.55 47.9 L-231.0 48.7 -230.1 50.45 Q-227.15 56.5 -223.45 62.15 L-221.1 64.25 -219.6 65.15 Q-214.9 67.75 -209.75 69.5 -204.8 71.3 -199.65 72.7 L-189.4 75.1 -168.55 78.15 -147.3 78.1 -141.9 77.55 -136.55 76.95 -165.3 71.0 -205.9 59.65 -214.4 58.15 -219.1 57.85 -219.45 57.5 -218.95 55.1 -216.4 54.05 -215.65 49.9 -214.45 46.1 Q-212.7 42.05 -210.6 38.15 L-208.8 34.4 Q-208.1 32.7 -206.85 31.35 L-201.2 25.3 -195.3 20.0 Q-192.3 17.5 -189.05 15.35 -185.85 13.3 -182.4 11.6 -178.95 9.9 -175.3 8.6 L-172.6 7.75 -174.5 10.25 -172.2 7.65 -172.0 7.6 -171.85 7.55 -167.8 6.45 -159.9 4.85 -151.6 4.25 -151.1 4.0 -151.0 4.25 -147.25 4.3 -93.8 9.0 -86.95 9.25 -80.75 8.85 Q-63.15 6.2 -46.4 0.2 -30.5 -5.45 -16.05 -14.15 L-6.5 -20.25 6.25 -29.85 6.25 -29.9 9.95 -34.25 10.55 -35.15 10.55 -35.2 Q12.8 -38.85 13.8 -43.05 L13.9 -43.4 13.95 -43.65 14.2 -44.85 14.45 -46.4 Q15.9 -52.45 10.6 -54.1 L1.0 -57.6 -15.65 -62.05 -24.15 -63.9 -41.45 -65.7 -59.2 -65.65 -59.5 -65.6 -59.2 -65.45 -59.0 -64.35 Q-58.95 -63.9 -59.05 -63.45 -59.4 -61.2 -60.1 -59.05 -60.95 -56.6 -62.8 -54.75 -64.4 -53.15 -66.35 -52.0 -68.05 -51.1 -70.0 -50.4 L-70.15 -50.5 Q-66.65 -54.65 -63.55 -59.2 -69.75 -54.2 -76.7 -50.4 -80.95 -48.1 -85.6 -46.4 L-88.5 -46.55 -89.95 -48.95 -87.25 -49.4 -85.5 -49.95 -89.2 -51.15 Q-90.95 -51.75 -92.5 -53.5 -94.1 -55.3 -92.8 -58.85 L-100.5 -56.1 -104.1 -54.55 -109.3 -51.85 -111.95 -50.25 -112.35 -50.05 -119.55 -43.9 -119.65 -44.15 -119.3 -45.55 -118.05 -47.8 Q-116.35 -50.25 -113.95 -52.4 L-110.65 -54.75 -107.6 -56.35 Q-98.5 -61.05 -88.4 -63.65 -78.1 -66.25 -67.5 -67.15 -65.95 -67.35 -64.55 -67.9 L-64.05 -68.05 Q-62.35 -68.65 -60.95 -69.65 L-62.25 -70.75 Q-63.7 -71.9 -65.6 -72.25 L-82.65 -73.7 Q-90.0 -74.0 -97.45 -73.85 -115.65 -73.4 -133.4 -70.2 -154.6 -66.15 -174.55 -58.1 L-189.6 -50.65 Q-193.8 -48.45 -198.05 -46.35 -199.95 -45.35 -201.8 -44.45 L-203.1 -43.85 -205.5 -42.75 -210.9 -40.45 -215.15 -38.9 -198.65 -48.5 -197.65 -49.45 -191.75 -53.25 M-73.45 -57.0 L-73.85 -57.5 -74.35 -58.7 -74.2 -60.25 -73.3 -61.75 -77.5 -61.5 Q-83.7 -61.0 -89.75 -59.65 -90.85 -59.8 -91.25 -56.95 -91.65 -54.1 -87.35 -52.45 -83.1 -50.9 -79.6 -53.05 L-73.35 -56.85 -73.25 -56.95 -73.45 -57.0 M-79.1 15.05 L-78.3 13.6 -76.7 11.9 -89.6 12.95 -88.95 15.85 Q-87.55 19.75 -85.55 23.2 L-83.35 27.15 -82.35 23.85 -81.4 20.65 Q-80.55 17.75 -79.1 15.05 M-99.85 16.0 L-99.0 14.8 -97.05 13.15 -114.8 12.05 -114.75 14.15 Q-115.55 19.05 -115.15 23.9 -114.8 28.4 -112.55 32.4 L-110.75 35.4 -108.85 32.05 -106.65 27.15 -105.4 24.4 Q-103.65 21.15 -101.5 18.2 L-99.85 16.0 M-126.0 12.85 L-125.5 12.35 -122.45 10.35 -150.0 8.3 -150.8 12.8 Q-152.2 17.1 -152.25 21.6 -152.3 25.95 -150.5 29.95 -148.55 34.3 -145.5 37.8 L-144.2 39.3 -141.95 33.9 Q-139.5 28.5 -136.1 23.65 -133.85 20.4 -131.05 17.6 L-126.0 12.85 M-158.95 12.2 L-157.7 10.3 -156.55 9.1 Q-163.1 9.35 -169.45 11.2 -172.65 12.15 -175.7 13.4 L-181.9 16.3 -181.35 19.9 Q-180.35 24.85 -178.75 29.45 L-171.6 42.8 -170.2 35.0 -168.8 29.35 -167.55 26.05 Q-165.85 22.5 -163.75 19.3 L-158.95 12.2 M-136.25 70.45 L-136.5 66.6 -140.5 69.5 -139.9 70.5 -139.55 71.05 -136.15 71.8 -136.25 70.45 M-146.0 67.9 Q-148.35 64.05 -147.9 59.4 L-147.5 56.75 Q-151.4 61.4 -153.85 67.05 L-154.2 67.95 -144.85 69.9 -146.0 67.9 M-185.9 18.05 L-193.3 23.6 Q-196.95 26.65 -199.95 30.2 -202.9 33.75 -205.05 37.75 L-208.55 43.95 -208.25 43.55 -203.95 38.95 Q-200.7 35.6 -196.9 33.0 -193.05 30.4 -188.85 28.65 L-185.35 29.45 -187.4 47.3 Q-187.5 50.25 -186.65 53.2 -185.8 56.1 -184.4 58.5 L-179.95 52.35 Q-178.1 49.8 -175.85 47.35 L-173.25 44.55 -174.45 43.35 -179.05 37.5 -181.8 33.0 -183.85 28.25 Q-185.6 23.4 -185.9 18.05 M-190.45 37.7 L-190.15 35.45 -189.5 31.75 -200.2 39.55 -203.35 42.35 Q-205.25 44.1 -206.7 46.4 -208.1 48.7 -208.5 51.45 L-208.7 53.7 -209.4 54.8 -187.95 59.9 -188.8 57.9 Q-189.65 55.65 -190.1 53.3 L-190.7 48.9 Q-190.95 45.65 -190.8 42.4 L-190.45 37.7 M-163.55 44.5 L-162.8 41.1 Q-165.05 43.15 -167.7 44.8 -171.0 46.9 -173.55 49.65 -177.2 53.65 -179.85 58.55 L-181.15 61.15 -181.65 61.65 -162.4 66.1 -163.15 64.65 -164.3 61.05 Q-164.85 58.9 -165.0 56.75 -165.3 52.35 -164.35 47.85 L-163.55 44.5 M-209.2 21.65 Q-215.15 35.2 -219.65 48.95 L-219.95 49.0 Q-217.5 34.55 -209.5 21.75 L-209.2 21.65 M-224.25 41.5 Q-221.35 30.25 -214.95 21.65 L-223.5 43.7 -223.75 44.2 Q-224.5 44.05 -224.3 41.95 L-224.25 41.5 M-209.35 34.6 L-209.3 34.75 -209.4 34.65 -209.35 34.6" fill="#000000" fill-rule="evenodd" stroke="none"/>
    <path d="M-191.75 -53.25 L-197.65 -49.45 -198.65 -48.5 -215.15 -38.9 -210.9 -40.45 -205.5 -42.75 -203.1 -43.85 -201.8 -44.45 Q-167.95 -59.75 -128.9 -68.8 -82.35 -73.4 -64.05 -68.05 L-64.55 -67.9 Q-65.95 -67.35 -67.5 -67.15 -78.1 -66.25 -88.4 -63.65 -98.5 -61.05 -107.6 -56.35 L-110.65 -54.75 -113.95 -52.4 Q-116.35 -50.25 -118.05 -47.8 L-119.3 -45.55 -119.65 -44.15 -119.55 -43.9 -112.35 -50.05 -111.95 -50.25 -109.3 -51.85 -104.1 -54.55 Q-101.15 -47.8 -88.5 -46.55 L-85.6 -46.4 Q-80.95 -48.1 -76.7 -50.4 -69.75 -54.2 -63.55 -59.2 -66.65 -54.65 -70.15 -50.5 L-70.0 -50.4 Q-68.05 -51.1 -66.35 -52.0 -64.4 -53.15 -62.8 -54.75 -60.95 -56.6 -60.1 -59.05 -59.4 -61.2 -59.05 -63.45 -58.95 -63.9 -59.0 -64.35 L-31.7 -61.2 Q-8.95 -58.05 11.4 -50.0 14.75 -47.5 13.95 -43.65 L13.9 -43.4 13.8 -43.05 Q12.8 -38.85 10.55 -35.2 L10.55 -35.15 -37.7 -8.8 Q-56.1 0.9 -84.5 2.0 L-150.5 0.55 Q-166.1 0.2 -172.6 7.75 L-175.3 8.6 Q-178.95 9.9 -182.4 11.6 -185.85 13.3 -189.05 15.35 -192.3 17.5 -195.3 20.0 L-201.2 25.3 -206.85 31.35 Q-208.1 32.7 -208.8 34.4 L-210.6 38.15 Q-212.7 42.05 -214.45 46.1 L-215.65 49.9 -216.4 54.05 -218.95 55.1 -219.45 57.5 -219.1 57.85 -214.4 58.15 -205.9 59.65 -165.3 71.0 -136.55 76.95 -141.9 77.55 Q-181.25 76.85 -214.9 64.8 -225.8 56.75 -231.0 48.7 L-231.55 47.9 -250.95 -25.3 -250.55 -28.95 Q-250.45 -31.25 -250.75 -33.55 L-251.05 -35.5 -251.7 -44.8 -250.05 -52.55 -249.2 -53.2 Q-248.75 -53.55 -248.45 -54.05 L-247.7 -55.5 Q-247.35 -56.25 -247.85 -57.05 L-248.55 -58.0 -248.7 -58.9 -252.75 -58.3 -258.2 -58.15 Q-263.3 -58.55 -267.8 -60.9 -270.05 -62.1 -272.05 -63.55 L-273.35 -64.6 -191.75 -53.25 M-172.0 7.6 L-172.2 7.65 Q-169.15 4.15 -172.0 7.6 M-209.35 34.6 L-209.4 34.65 -209.3 34.75 -209.35 34.6 M-224.25 41.5 L-224.3 41.95 Q-224.5 44.05 -223.75 44.2 L-223.5 43.7 -214.95 21.65 Q-221.35 30.25 -224.25 41.5 M-209.2 21.65 L-209.5 21.75 Q-217.5 34.55 -219.95 49.0 L-219.65 48.95 Q-215.15 35.2 -209.2 21.65" fill="#999999" fill-rule="evenodd" stroke="none"/>
    <path d="M-73.35 -56.85 L-79.6 -53.05 Q-83.1 -50.9 -87.35 -52.45 -91.65 -54.1 -91.25 -56.95 -90.85 -59.8 -89.75 -59.65 -83.7 -61.0 -77.5 -61.5 L-73.3 -61.75 -74.2 -60.25 -74.35 -58.7 -73.85 -57.5 -73.45 -57.0 -73.35 -56.85 M-79.1 15.05 Q-80.55 17.75 -81.4 20.65 L-82.35 23.85 -84.1 16.0 -79.1 15.05 M-99.85 16.0 L-101.5 18.2 Q-103.65 21.15 -105.4 24.4 L-106.65 27.15 -108.85 32.05 Q-112.9 23.3 -109.7 16.0 L-99.85 16.0 M-126.0 12.85 L-131.05 17.6 Q-133.85 20.4 -136.1 23.65 -139.5 28.5 -141.95 33.9 -149.5 24.5 -144.5 13.6 L-126.0 12.85 M-158.95 12.2 L-163.75 19.3 Q-165.85 22.5 -167.55 26.05 L-168.8 29.35 -170.2 35.0 Q-177.35 26.3 -175.3 17.6 L-158.95 12.2 M-139.9 70.5 L-140.5 69.5 -136.5 66.6 -136.25 70.45 Q-137.8 70.05 -139.9 70.5 M-147.5 56.75 L-147.9 59.4 Q-148.35 64.05 -146.0 67.9 L-150.9 66.4 -147.5 56.75 M-190.45 37.7 L-190.8 42.4 Q-190.95 45.65 -190.7 48.9 L-190.1 53.3 -204.1 50.8 Q-194.9 37.15 -190.45 37.7 M-163.55 44.5 L-164.35 47.85 Q-165.3 52.35 -165.0 56.75 -164.85 58.9 -164.3 61.05 L-176.1 59.2 Q-171.6 48.35 -163.55 44.5" fill="#ffffff" fill-rule="evenodd" stroke="none"/>
    <path d="M-273.35 -64.6 L-274.75 -65.8 -250.85 -64.15 -230.95 -61.85 -207.9 -58.25 -195.1 -57.0 Q-190.45 -56.85 -185.85 -57.1 L-191.75 -53.25 -273.35 -64.6 M-201.8 -44.45 Q-199.95 -45.35 -198.05 -46.35 -193.8 -48.45 -189.6 -50.65 L-174.55 -58.1 Q-154.6 -66.15 -133.4 -70.2 -115.65 -73.4 -97.45 -73.85 -90.0 -74.0 -82.65 -73.7 L-65.6 -72.25 Q-63.7 -71.9 -62.25 -70.75 L-60.95 -69.65 Q-62.35 -68.65 -64.05 -68.05 -82.35 -73.4 -128.9 -68.8 -167.95 -59.75 -201.8 -44.45 M-59.0 -64.35 L-59.2 -65.45 -59.2 -65.65 -41.45 -65.7 -24.15 -63.9 -15.65 -62.05 1.0 -57.6 10.6 -54.1 Q15.9 -52.45 14.45 -46.4 L14.2 -44.85 13.95 -43.65 Q14.75 -47.5 11.4 -50.0 -8.95 -58.05 -31.7 -61.2 L-59.0 -64.35" fill="#b6b6b6" fill-rule="evenodd" stroke="none"/>
    <path d="M10.55 -35.15 L9.95 -34.25 6.25 -29.9 6.25 -29.85 -6.5 -20.25 -16.05 -14.15 Q-30.5 -5.45 -46.4 0.2 -63.15 6.2 -80.75 8.85 L-86.95 9.25 -93.8 9.0 -147.25 4.3 -151.0 4.25 -151.1 4.0 -151.6 4.25 -159.9 4.85 -167.8 6.45 -171.85 7.55 -172.0 7.6 Q-169.15 4.15 -172.2 7.65 L-174.5 10.25 -172.6 7.75 Q-166.1 0.2 -150.5 0.55 L-84.5 2.0 Q-56.1 0.9 -37.7 -8.8 L10.55 -35.15 M-141.9 77.55 L-147.3 78.1 -168.55 78.15 -189.4 75.1 -199.65 72.7 Q-204.8 71.3 -209.75 69.5 -214.9 67.75 -219.6 65.15 L-221.1 64.25 -223.45 62.15 Q-227.15 56.5 -230.1 50.45 L-231.0 48.7 Q-225.8 56.75 -214.9 64.8 -181.25 76.85 -141.9 77.55 M-251.05 -35.5 Q-251.65 -38.55 -252.85 -41.3 L-255.2 -46.3 -253.85 -47.5 -252.1 -49.6 -250.65 -50.9 -250.35 -52.35 -250.05 -52.55 -251.7 -44.8 -251.05 -35.5" fill="#666666" fill-rule="evenodd" stroke="none"/>
    <path d="M-82.35 23.85 L-83.35 27.15 -85.55 23.2 Q-87.55 19.75 -88.95 15.85 L-89.6 12.95 -76.7 11.9 -78.3 13.6 -79.1 15.05 -84.1 16.0 -82.35 23.85 M-108.85 32.05 L-110.75 35.4 -112.55 32.4 Q-114.8 28.4 -115.15 23.9 -115.55 19.05 -114.75 14.15 L-114.8 12.05 -97.05 13.15 -99.0 14.8 -99.85 16.0 -109.7 16.0 Q-112.9 23.3 -108.85 32.05 M-141.95 33.9 L-144.2 39.3 -145.5 37.8 Q-148.55 34.3 -150.5 29.95 -152.3 25.95 -152.25 21.6 -152.2 17.1 -150.8 12.8 L-150.0 8.3 -122.45 10.35 -125.5 12.35 -126.0 12.85 -144.5 13.6 Q-149.5 24.5 -141.95 33.9 M-170.2 35.0 L-171.6 42.8 -178.75 29.45 Q-180.35 24.85 -181.35 19.9 L-181.9 16.3 -175.7 13.4 Q-172.65 12.15 -169.45 11.2 -163.1 9.35 -156.55 9.1 L-157.7 10.3 -158.95 12.2 -175.3 17.6 Q-177.35 26.3 -170.2 35.0 M-139.9 70.5 Q-137.8 70.05 -136.25 70.45 L-136.15 71.8 -139.55 71.05 -139.9 70.5 M-147.5 56.75 L-150.9 66.4 -146.0 67.9 -144.85 69.9 -154.2 67.95 -153.85 67.05 Q-151.4 61.4 -147.5 56.75 M-190.1 53.3 Q-189.65 55.65 -188.8 57.9 L-187.95 59.9 -209.4 54.8 -208.7 53.7 -208.5 51.45 Q-208.1 48.7 -206.7 46.4 -205.25 44.1 -203.35 42.35 L-200.2 39.55 -189.5 31.75 -190.15 35.45 -190.45 37.7 Q-194.9 37.15 -204.1 50.8 L-190.1 53.3 M-164.3 61.05 L-163.15 64.65 -162.4 66.1 -181.65 61.65 -181.15 61.15 -179.85 58.55 Q-177.2 53.65 -173.55 49.65 -171.0 46.9 -167.7 44.8 -165.05 43.15 -162.8 41.1 L-163.55 44.5 Q-171.6 48.35 -176.1 59.2 L-164.3 61.05" fill="#d0d0d0" fill-rule="evenodd" stroke="none"/>
    <path d="M-100.5 -56.1 L-92.8 -58.85 Q-94.1 -55.3 -92.5 -53.5 -90.95 -51.75 -89.2 -51.15 L-85.5 -49.95 -87.25 -49.4 Q-97.6 -50.5 -100.5 -56.1" fill="#646464" fill-rule="evenodd" stroke="none"/>
    <path d="M-104.1 -54.55 L-100.5 -56.1 Q-97.6 -50.5 -87.25 -49.4 L-89.95 -48.95 -88.5 -46.55 Q-101.15 -47.8 -104.1 -54.55" fill="#7b7b7b" fill-rule="evenodd" stroke="none"/>
    <path d="M-230.2 59.85 L-278.95 68.0" fill="none" stroke="#000000" stroke-linecap="round" stroke-linejoin="round" stroke-width="0.5"/>
    <path d="M-340.4 60.05 L-345.35 61.45 Q-349.15 62.65 -351.95 65.3 -342.8 68.6 -332.35 69.7 -303.15 72.65 -273.85 70.35 L-272.35 70.2 Q-251.25 68.4 -231.5 60.65 -231.3 60.6 -229.45 61.85 L-227.3 63.4 -230.95 66.95 Q-234.1 68.25 -237.7 69.1 -248.1 71.5 -258.55 73.3 L-273.85 75.4 -286.15 76.1 Q-319.45 77.0 -351.65 71.05 -355.95 70.25 -356.15 66.45 -356.45 60.55 -350.2 58.5 -330.85 52.2 -310.15 48.1 -289.5 44.0 -290.55 46.15 -302.75 51.95 -316.35 54.7 L-318.9 55.05 Q-329.75 57.05 -340.4 60.05" fill="#000000" fill-rule="evenodd" stroke="none"/>
    <path d="M-230.2 59.85 L-259.2 64.6 Q-281.95 69.55 -309.3 67.7 L-337.75 65.6 Q-350.6 64.85 -340.4 60.05 -329.75 57.05 -318.9 55.05 L-316.35 54.7 Q-302.75 51.95 -290.55 46.15 L-230.95 57.9 -230.2 59.85" fill="#999999" fill-rule="evenodd" stroke="none"/>
    <path d="M-230.2 59.85 L-229.45 61.85 Q-231.3 60.6 -231.5 60.65 -251.25 68.4 -272.35 70.2 L-273.85 70.35 Q-303.15 72.65 -332.35 69.7 -342.8 68.6 -351.95 65.3 -349.15 62.65 -345.35 61.45 L-340.4 60.05 Q-350.6 64.85 -337.75 65.6 L-309.3 67.7 Q-281.95 69.55 -259.2 64.6 L-230.2 59.85" fill="#666666" fill-rule="evenodd" stroke="none"/>
  </g>
</svg>
