<?xml version="1.0" encoding="UTF-8" standalone="no"?>
<svg xmlns:xlink="http://www.w3.org/1999/xlink" height="47.25px" width="104.65px" xmlns="http://www.w3.org/2000/svg">
  <g transform="matrix(1.0, 0.0, 0.0, 1.0, 52.35, 23.6)">
    <path d="M-35.9 23.65 L-35.45 22.5 Q-33.95 17.65 -34.35 12.3 -34.5 7.8 -37.25 4.4 L-38.85 2.25 -30.1 -3.1 Q-34.9 -9.4 -42.1 -13.4 -46.3 -15.7 -48.9 -19.75 L-46.65 -20.3 Q-22.05 -9.95 3.8 1.3 L13.75 6.15 46.6 21.55 47.55 21.95 Q49.95 23.3 52.3 22.85 L52.3 23.65 -35.9 23.65" fill="#999999" fill-rule="evenodd" stroke="none"/>
    <path d="M-35.9 23.65 L-38.5 23.65 -38.5 22.8 -38.25 22.5 -37.55 20.75 -37.15 19.85 -37.25 15.6 Q-37.15 13.85 -37.55 12.3 L-43.25 2.4 -42.8 -0.15 -33.7 -4.0 Q-39.05 -7.6 -44.7 -10.55 -54.55 -15.75 -51.75 -23.6 -17.5 -14.9 13.75 3.0 L27.95 9.0 Q40.55 14.2 52.0 19.85 L52.3 19.75 52.3 22.85 Q49.95 23.3 47.55 21.95 L46.6 21.55 13.75 6.15 3.8 1.3 Q-22.05 -9.95 -46.65 -20.3 L-48.9 -19.75 Q-46.3 -15.7 -42.1 -13.4 -34.9 -9.4 -30.1 -3.1 L-38.85 2.25 -37.25 4.4 Q-34.5 7.8 -34.35 12.3 -33.95 17.65 -35.45 22.5 L-35.9 23.65" fill="#000000" fill-rule="evenodd" stroke="none"/>
  </g>
</svg>
