<?xml version="1.0" encoding="UTF-8" standalone="no"?>
<svg xmlns:xlink="http://www.w3.org/1999/xlink" height="79.7px" width="188.55px" xmlns="http://www.w3.org/2000/svg">
  <g transform="matrix(1.0, 0.0, 0.0, 1.0, 94.25, 39.85)">
    <path d="M69.05 -14.0 Q64.5 -15.75 60.1 -17.75 49.6 -22.95 39.65 -29.1 L37.1 -30.7 34.5 -31.85 Q15.35 -39.65 -5.1 -36.6 -13.05 -35.2 -20.6 -32.15 L-24.5 -30.85 -28.45 -29.5 -30.15 -28.9 Q-33.35 -27.85 -36.0 -25.75 L-36.7 -25.05 -33.5 -25.15 -33.95 -21.95 -30.9 -17.25 Q-27.9 -18.5 -25.05 -19.9 -23.55 -20.6 -22.65 -19.7 -22.65 -17.9 -23.35 -16.05 -24.4 -13.4 -25.55 -11.0 -18.4 -13.05 -10.7 -13.1 -9.35 -13.1 -9.05 -12.15 L-9.4 -11.8 Q-11.3 -10.35 -13.65 -9.35 -20.55 -6.55 -27.75 -4.3 -28.45 -4.15 -28.9 -4.7 -30.7 -6.9 -32.2 -9.4 L-37.85 -6.4 -38.1 -6.55 -38.85 -7.15 Q-39.8 -8.45 -39.95 -10.15 L-47.45 -9.5 -55.25 -5.1 -58.9 -3.5 -67.4 -0.15 -69.3 0.95 -71.35 10.1 -64.2 6.1 -66.95 12.35 -58.6 7.2 -57.8 7.5 -60.8 13.1 -51.25 10.45 -53.3 17.7 -46.8 14.95 -44.1 14.2 -43.15 14.3 -44.05 18.5 -33.75 18.0 -33.3 19.85 -8.7 16.75 -8.55 17.35 Q-15.25 21.15 -22.45 23.8 -34.55 28.15 -47.25 30.85 L-47.65 30.7 -46.05 24.7 -55.35 27.5 -61.2 22.85 -78.95 27.5 -79.65 26.85 -78.35 22.6 -80.7 22.85 -82.45 29.75 -77.0 30.35 Q-65.8 32.25 -55.15 36.65 L-52.2 37.95 Q-44.0 34.25 -35.0 32.25 L-29.15 31.25 -21.1 30.3 Q-6.7 29.2 7.4 32.95 L10.95 33.95 Q8.55 34.55 5.75 34.05 -10.75 30.55 -27.6 32.65 -40.35 34.5 -51.95 39.85 -67.85 31.9 -85.45 31.7 L-94.25 32.3 Q-91.55 30.85 -88.2 30.3 L-84.4 29.8 Q-83.3 24.75 -80.7 20.6 L-79.2 19.0 Q-76.25 16.85 -74.8 13.75 -71.6 6.9 -70.8 -0.65 -60.75 -3.85 -51.7 -9.4 -43.05 -14.8 -40.25 -24.5 L-39.4 -25.75 Q-38.5 -27.5 -28.45 -31.15 -15.55 -36.2 -1.95 -39.0 7.75 -40.9 17.55 -38.65 27.55 -36.55 37.1 -32.8 47.1 -26.5 57.5 -21.05 L60.1 -19.7 63.6 -18.3 70.3 -15.55 Q73.45 -14.25 75.0 -11.1 79.05 -2.85 81.2 6.05 83.15 14.3 88.85 20.55 90.0 21.85 90.45 23.75 L91.05 26.15 93.8 25.75 94.3 26.25 Q91.4 27.3 88.7 28.9 85.9 30.45 83.9 33.3 86.8 34.3 89.15 35.95 L89.85 36.55 89.75 37.55 89.05 37.7 Q64.95 25.9 38.3 28.0 25.15 29.25 12.75 33.35 22.5 28.7 33.25 27.0 L41.45 26.05 Q62.55 25.8 82.4 32.75 L82.9 31.8 83.35 31.3 Q85.85 28.45 89.3 26.7 L88.6 24.75 88.1 22.85 85.7 21.95 82.55 23.55 72.1 16.75 Q69.9 17.95 67.4 17.3 L66.55 16.9 63.15 14.95 55.65 16.1 Q46.9 11.0 36.8 10.85 L28.65 10.7 Q32.8 6.45 38.95 6.3 L47.95 5.9 52.85 6.0 Q56.75 3.25 59.35 -0.55 62.3 0.8 64.6 3.35 L64.95 3.7 65.3 3.95 69.3 2.45 Q73.55 5.15 77.0 9.0 L79.5 7.3 76.55 -2.55 76.2 -3.85 Q75.0 -10.3 69.5 -13.75 L69.05 -14.0 M17.3 -25.9 Q17.75 -25.9 18.4 -25.4 L18.45 -25.1 18.4 -24.65 17.55 -24.5 Q16.95 -24.5 16.3 -25.0 L16.3 -25.75 17.3 -25.9 M12.3 -19.65 L12.05 -20.4 13.3 -20.65 13.45 -20.05 13.4 -19.75 Q13.15 -19.5 12.9 -19.5 L12.3 -19.65 M85.1 25.8 L84.75 25.55 Q84.5 24.65 85.55 24.25 L86.25 24.7 86.25 25.8 85.1 25.8 M46.55 -16.15 L45.95 -16.3 45.7 -16.8 Q45.7 -17.4 46.4 -17.4 L47.3 -16.75 46.55 -16.15 M42.55 -22.4 L43.15 -22.5 Q44.8 -22.5 44.55 -21.45 L44.55 -20.8 43.65 -20.65 Q42.8 -20.65 42.55 -21.15 L42.45 -21.65 42.55 -22.4 M54.9 -15.9 Q54.7 -15.85 54.7 -16.5 L56.15 -17.4 Q57.3 -17.4 57.3 -16.4 L56.8 -15.9 54.9 -15.9 M72.55 -3.9 Q71.8 -3.9 71.55 -4.25 71.7 -5.0 73.05 -5.4 73.55 -5.25 73.55 -4.65 73.55 -3.9 72.55 -3.9 M-54.2 -1.25 Q-54.2 -1.8 -53.7 -2.15 L-53.1 -2.4 Q-52.25 -2.4 -52.2 -1.6 -52.2 -0.65 -53.35 -0.65 L-54.05 -0.8 -54.2 -1.25 M-18.45 -29.4 L-17.45 -29.4 -17.2 -28.65 Q-17.2 -28.0 -18.6 -27.65 L-19.05 -27.8 -19.2 -28.25 Q-19.2 -28.95 -18.45 -29.4 M-5.2 -32.2 L-3.6 -33.4 Q-2.75 -33.4 -2.7 -32.6 -2.7 -32.05 -3.95 -31.65 L-5.05 -31.65 -5.2 -32.2 M-33.0 -13.55 L-32.8 -13.9 -33.0 -14.25 -33.45 -14.4 -33.9 -14.25 -34.1 -13.9 -33.9 -13.55 -33.45 -13.4 Q-33.2 -13.4 -33.0 -13.55 M-39.25 -13.7 L-39.75 -13.9 -40.25 -13.7 -40.45 -13.2 -40.25 -12.7 -39.75 -12.5 Q-39.45 -12.5 -39.25 -12.7 L-39.05 -13.2 -39.25 -13.7 M-36.1 -17.65 L-36.35 -18.3 Q-36.65 -18.6 -37.05 -18.6 L-37.7 -18.3 -38.0 -17.65 -37.7 -16.95 Q-37.45 -16.7 -37.05 -16.7 -36.65 -16.7 -36.35 -16.95 -36.1 -17.25 -36.1 -17.65 M-15.2 -17.9 L-15.05 -17.3 Q-15.05 -16.25 -16.35 -16.25 -17.45 -16.25 -17.45 -17.0 -17.45 -18.05 -16.7 -18.05 L-15.2 -17.9 M-2.35 11.75 L-3.05 11.6 -3.2 11.15 Q-3.2 10.4 -1.95 10.1 L-1.3 11.0 Q-1.5 11.75 -2.35 11.75 M-12.6 12.75 Q-12.95 12.5 -12.95 11.9 -12.95 11.0 -11.6 11.0 -10.8 11.6 -10.8 11.7 -10.8 12.2 -11.05 12.5 L-11.35 12.75 -12.6 12.75 M-58.2 3.45 Q-58.25 4.1 -58.55 4.45 L-59.2 4.7 Q-59.6 4.6 -59.8 4.15 L-60.0 3.2 Q-59.2 2.7 -58.3 2.95 L-58.2 3.45 M-9.6 26.2 L-10.2 26.35 Q-11.45 26.35 -11.2 24.85 -10.95 24.6 -10.7 24.6 -9.7 24.6 -9.45 25.65 L-9.6 26.2 M-48.2 0.2 L-47.95 0.75 Q-47.95 1.85 -49.2 1.85 -50.2 1.85 -50.2 0.9 -50.2 -0.3 -48.95 0.1 L-48.2 0.2 M-51.95 7.5 L-52.7 7.35 -52.75 6.95 -52.55 6.3 -51.95 5.85 Q-51.15 5.85 -50.8 6.85 L-50.95 7.0 Q-51.6 7.5 -51.95 7.5 M-66.2 19.6 L-66.5 20.2 -66.2 20.85 -65.6 21.1 -64.95 20.85 -64.7 20.2 Q-64.7 19.85 -64.95 19.6 -65.25 19.3 -65.6 19.3 -65.95 19.3 -66.2 19.6 M-69.65 16.85 L-69.45 17.3 -69.0 17.5 -68.55 17.3 -68.35 16.85 -68.55 16.4 -69.0 16.2 -69.45 16.4 -69.65 16.85 M-72.4 20.0 Q-72.7 19.7 -73.1 19.7 -73.5 19.7 -73.75 20.0 L-74.05 20.65 -73.75 21.35 -73.1 21.6 -72.4 21.35 -72.15 20.65 Q-72.15 20.25 -72.4 20.0 M-59.6 16.15 Q-59.8 16.0 -60.1 16.0 L-60.6 16.15 -60.8 16.55 -60.6 16.95 -60.1 17.1 -59.6 16.95 -59.4 16.55 -59.6 16.15 M-63.45 27.7 Q-62.8 28.0 -62.45 28.25 L-62.95 29.1 -63.7 29.85 -64.2 29.3 -64.05 27.85 -63.45 27.7 M75.45 3.5 L75.55 3.1 76.15 3.0 77.05 3.85 76.55 4.35 Q75.8 4.25 75.55 3.85 75.45 4.15 75.45 3.5 M78.05 13.35 L76.9 12.1 Q75.5 13.0 77.4 13.85 L78.05 13.35 M75.05 28.1 Q74.9 28.85 74.3 28.85 73.9 28.85 72.8 28.2 73.3 27.35 73.65 27.35 74.0 27.35 75.05 28.1 M37.55 17.35 L37.65 16.95 38.15 16.85 Q38.65 16.85 39.3 17.75 L38.55 18.35 Q37.55 18.35 37.55 17.35" fill="#000000" fill-rule="evenodd" stroke="none"/>
    <path d="M-20.6 -32.15 Q-13.05 -35.2 -5.1 -36.6 15.35 -39.65 34.5 -31.85 L37.1 -30.7 39.65 -29.1 Q49.6 -22.95 60.1 -17.75 64.5 -15.75 69.05 -14.0 L60.7 -16.8 60.1 -17.0 57.9 -17.65 51.65 -19.15 Q48.6 -19.75 47.3 -21.25 45.5 -23.4 44.9 -23.75 36.35 -28.6 31.3 -30.45 22.3 -33.75 7.65 -36.05 -5.95 -35.65 -18.55 -30.9 -20.25 -30.25 -22.15 -30.05 L-20.6 -32.15" fill="#a6a7a9" fill-rule="evenodd" stroke="none"/>
    <path d="M69.05 -14.0 L69.5 -13.75 66.95 -13.55 66.7 -13.4 68.45 -9.45 59.4 -13.2 60.35 -8.5 49.15 -13.05 Q47.85 -9.05 44.75 -6.75 44.35 -6.4 43.8 -6.75 L32.15 -14.8 Q29.4 -13.1 25.95 -12.6 L24.85 -13.3 Q19.1 -17.8 13.8 -22.8 L8.4 -21.15 4.8 -22.4 Q0.45 -19.35 -4.15 -22.65 -6.45 -24.35 -8.55 -26.6 L-14.6 -23.95 -14.9 -26.25 -21.6 -25.4 -21.6 -26.8 -23.85 -27.9 -22.15 -30.05 Q-20.25 -30.25 -18.55 -30.9 -5.95 -35.65 7.65 -36.05 22.3 -33.75 31.3 -30.45 36.35 -28.6 44.9 -23.75 45.5 -23.4 47.3 -21.25 48.6 -19.75 51.65 -19.15 L57.9 -17.65 60.1 -17.0 60.7 -16.8 69.05 -14.0 M17.3 -25.9 L16.3 -25.75 16.3 -25.0 Q16.95 -24.5 17.55 -24.5 L18.4 -24.65 18.45 -25.1 18.4 -25.4 Q17.75 -25.9 17.3 -25.9 M35.9 -3.15 Q36.8 -3.15 37.05 -2.55 L37.3 -1.65 Q37.0 -1.15 36.55 -1.15 35.15 -1.15 35.15 -2.8 35.4 -3.15 35.9 -3.15 M54.9 -15.9 L56.8 -15.9 57.3 -16.4 Q57.3 -17.4 56.15 -17.4 L54.7 -16.5 Q54.7 -15.85 54.9 -15.9 M42.55 -22.4 L42.45 -21.65 42.55 -21.15 Q42.8 -20.65 43.65 -20.65 L44.55 -20.8 44.55 -21.45 Q44.8 -22.5 43.15 -22.5 L42.55 -22.4 M46.55 -16.15 L47.3 -16.75 46.4 -17.4 Q45.7 -17.4 45.7 -16.8 L45.95 -16.3 46.55 -16.15 M-5.2 -32.2 L-5.05 -31.65 -3.95 -31.65 Q-2.7 -32.05 -2.7 -32.6 -2.75 -33.4 -3.6 -33.4 L-5.2 -32.2 M-18.45 -29.4 Q-19.2 -28.95 -19.2 -28.25 L-19.05 -27.8 -18.6 -27.65 Q-17.2 -28.0 -17.2 -28.65 L-17.45 -29.4 -18.45 -29.4 M-3.1 -0.25 L-3.05 0.3 Q-3.05 1.25 -3.95 1.25 L-4.7 1.1 -4.85 0.6 Q-4.85 -0.4 -3.7 -0.4 L-3.1 -0.25 M-6.3 5.7 L-6.2 6.35 Q-6.2 7.1 -7.35 7.1 L-7.95 7.0 -8.05 6.4 -7.95 5.7 -7.1 5.6 -6.3 5.7 M-0.85 7.0 L-1.05 6.25 Q-1.05 5.5 0.05 5.5 L0.95 5.6 1.05 6.15 Q1.05 7.1 -0.35 7.1 L-0.85 7.0 M-17.2 8.85 L-18.2 8.2 Q-17.85 7.75 -16.95 7.6 L-16.7 8.35 -17.2 8.85 M66.8 1.25 L66.8 0.3 68.3 -0.05 69.3 0.75 66.8 1.25 M78.05 13.35 L77.4 13.85 Q75.5 13.0 76.9 12.1 L78.05 13.35 M29.65 0.7 L29.7 0.0 30.05 -0.05 Q30.65 0.0 30.9 0.35 L30.3 0.95 29.65 0.7" fill="#878684" fill-rule="evenodd" stroke="none"/>
    <path d="M69.5 -13.75 Q75.0 -10.3 76.2 -3.85 L76.55 -2.55 73.35 -0.15 67.05 -4.15 Q65.9 -3.8 65.5 -2.65 65.2 -1.85 64.55 -1.8 60.1 -6.3 54.15 -8.15 50.35 -5.25 47.5 -1.2 46.6 0.05 45.1 0.45 L32.15 -9.65 25.6 -7.3 Q21.9 -9.2 18.95 -12.35 15.25 -16.25 10.4 -17.9 4.45 -16.35 -2.1 -15.55 L-2.55 -15.55 Q-6.35 -19.1 -11.25 -20.45 -12.4 -20.75 -13.65 -20.45 -15.85 -19.8 -18.1 -19.9 -19.35 -20.2 -19.65 -21.4 L-19.9 -22.35 Q-21.45 -23.5 -23.45 -23.0 L-26.85 -22.4 -25.9 -25.25 Q-27.85 -26.65 -30.2 -26.4 L-24.5 -30.85 -20.6 -32.15 -22.15 -30.05 -23.85 -27.9 -21.6 -26.8 -21.6 -25.4 -14.9 -26.25 -14.6 -23.95 -8.55 -26.6 Q-6.45 -24.35 -4.15 -22.65 0.45 -19.35 4.8 -22.4 L8.4 -21.15 13.8 -22.8 Q19.1 -17.8 24.85 -13.3 L25.95 -12.6 Q29.4 -13.1 32.15 -14.8 L43.8 -6.75 Q44.35 -6.4 44.75 -6.75 47.85 -9.05 49.15 -13.05 L60.35 -8.5 59.4 -13.2 68.45 -9.45 66.7 -13.4 66.95 -13.55 69.5 -13.75 M12.3 -19.65 L12.9 -19.5 Q13.15 -19.5 13.4 -19.75 L13.45 -20.05 13.3 -20.65 12.05 -20.4 12.3 -19.65 M72.55 -3.9 Q73.55 -3.9 73.55 -4.65 73.55 -5.25 73.05 -5.4 71.7 -5.0 71.55 -4.25 71.8 -3.9 72.55 -3.9" fill="#505050" fill-rule="evenodd" stroke="none"/>
    <path d="M76.55 -2.55 L79.5 7.3 77.0 9.0 Q73.55 5.15 69.3 2.45 L65.3 3.95 64.95 3.7 64.6 3.35 Q62.3 0.8 59.35 -0.55 56.75 3.25 52.85 6.0 L47.95 5.9 38.95 6.3 Q32.8 6.45 28.65 10.7 L36.8 10.85 Q46.9 11.0 55.65 16.1 L63.15 14.95 66.55 16.9 67.4 17.3 Q69.9 17.95 72.1 16.75 L82.55 23.55 85.7 21.95 88.1 22.85 88.6 24.75 86.25 24.7 85.55 24.25 Q84.5 24.65 84.75 25.55 L85.1 25.8 Q83.55 27.2 82.65 27.2 L71.05 19.35 63.95 20.1 Q64.1 17.25 62.8 17.25 L50.4 18.7 Q49.05 18.7 48.2 17.75 47.35 16.45 46.55 15.75 45.7 15.0 22.65 10.9 22.65 10.3 25.8 7.25 L29.55 3.35 29.65 3.0 Q26.95 2.35 22.4 -1.8 19.1 -4.8 17.4 -6.9 L9.75 -0.85 -2.2 -4.55 Q-4.25 -4.55 -7.95 -2.95 -11.3 -1.4 -11.6 -1.4 L-23.35 -2.4 Q-30.3 0.6 -31.85 0.6 -32.45 0.6 -33.95 -0.95 -35.4 -2.5 -36.35 -2.5 L-43.85 -1.65 Q-43.85 -3.95 -43.1 -6.4 L-55.25 -5.1 -47.45 -9.5 -39.95 -10.15 Q-39.8 -8.45 -38.85 -7.15 L-38.1 -6.55 -37.85 -6.4 -32.2 -9.4 Q-30.7 -6.9 -28.9 -4.7 -28.45 -4.15 -27.75 -4.3 -20.55 -6.55 -13.65 -9.35 -11.3 -10.35 -9.4 -11.8 L-9.05 -12.15 Q-9.35 -13.1 -10.7 -13.1 -18.4 -13.05 -25.55 -11.0 -24.4 -13.4 -23.35 -16.05 -22.65 -17.9 -22.65 -19.7 -23.55 -20.6 -25.05 -19.9 -27.9 -18.5 -30.9 -17.25 L-33.95 -21.95 -33.5 -25.15 -36.7 -25.05 -36.0 -25.75 Q-33.35 -27.85 -30.15 -28.9 L-28.45 -29.5 -24.5 -30.85 -30.2 -26.4 Q-27.85 -26.65 -25.9 -25.25 L-26.85 -22.4 -23.45 -23.0 Q-21.45 -23.5 -19.9 -22.35 L-19.65 -21.4 Q-19.35 -20.2 -18.1 -19.9 -15.85 -19.8 -13.65 -20.45 -12.4 -20.75 -11.25 -20.45 -6.35 -19.1 -2.55 -15.55 L-2.1 -15.55 Q4.45 -16.35 10.4 -17.9 15.25 -16.25 18.95 -12.35 21.9 -9.2 25.6 -7.3 L32.15 -9.65 45.1 0.45 Q46.6 0.05 47.5 -1.2 50.35 -5.25 54.15 -8.15 60.1 -6.3 64.55 -1.8 65.2 -1.85 65.5 -2.65 65.9 -3.8 67.05 -4.15 L73.35 -0.15 76.55 -2.55 M-21.1 30.3 L-29.15 31.25 -35.0 32.25 -35.2 29.5 Q-40.7 32.25 -46.6 33.1 -48.05 33.15 -49.05 32.2 L-49.1 30.5 -56.85 31.4 -58.25 31.25 Q-60.85 29.85 -60.6 26.9 L-77.0 30.35 -82.45 29.75 -80.7 22.85 -78.35 22.6 -79.65 26.85 -78.95 27.5 -61.2 22.85 -55.35 27.5 -46.05 24.7 -47.65 30.7 -47.25 30.85 Q-34.55 28.15 -22.45 23.8 -15.25 21.15 -8.55 17.35 L-8.7 16.75 -33.3 19.85 -33.75 18.0 -44.05 18.5 -43.15 14.3 -44.1 14.2 -46.8 14.95 -53.3 17.7 -51.25 10.45 -60.8 13.1 -57.8 7.5 -58.6 7.2 -66.95 12.35 -64.2 6.1 -71.35 10.1 -69.3 0.95 -67.4 -0.15 Q-66.7 1.65 -67.2 4.35 L-65.55 4.35 Q-62.7 4.3 -60.0 3.2 L-59.8 4.15 Q-59.6 4.6 -59.2 4.7 L-58.55 4.45 Q-58.25 4.1 -58.2 3.45 -56.45 3.9 -55.35 5.35 -54.45 6.4 -49.85 5.45 -45.95 4.7 -45.8 7.2 L-45.8 9.15 Q-45.8 9.85 -45.15 10.1 L-35.6 10.35 Q-34.3 10.35 -34.3 12.75 L-26.35 12.5 -26.25 13.7 Q-26.0 14.75 -25.15 14.75 L-12.6 12.75 -11.35 12.75 -11.05 12.5 -4.3 11.45 Q1.45 14.35 6.8 17.55 10.0 19.4 13.65 18.6 17.55 17.85 21.1 19.55 24.0 20.85 26.1 23.15 L22.05 22.9 Q11.1 21.1 0.95 25.6 L-5.45 22.65 -13.95 24.35 -21.1 30.3 M35.9 -3.15 Q35.4 -3.15 35.15 -2.8 35.15 -1.15 36.55 -1.15 37.0 -1.15 37.3 -1.65 L37.05 -2.55 Q36.8 -3.15 35.9 -3.15 M-15.2 -17.9 L-16.7 -18.05 Q-17.45 -18.05 -17.45 -17.0 -17.45 -16.25 -16.35 -16.25 -15.05 -16.25 -15.05 -17.3 L-15.2 -17.9 M-51.95 7.5 Q-51.6 7.5 -50.95 7.0 L-50.8 6.85 Q-51.15 5.85 -51.95 5.85 L-52.55 6.3 -52.75 6.95 -52.7 7.35 -51.95 7.5 M75.45 3.5 Q75.45 4.15 75.55 3.85 75.8 4.25 76.55 4.35 L77.05 3.85 76.15 3.0 75.55 3.1 75.45 3.5 M66.8 1.25 L69.3 0.75 68.3 -0.05 66.8 0.3 66.8 1.25 M29.65 0.7 L30.3 0.95 30.9 0.35 Q30.65 0.0 30.05 -0.05 L29.7 0.0 29.65 0.7" fill="#383838" fill-rule="evenodd" stroke="none"/>
    <path d="M88.6 24.75 L89.3 26.7 Q85.85 28.45 83.35 31.3 L82.9 31.8 72.3 23.75 70.55 24.4 Q67.65 25.8 64.3 25.95 L59.9 21.1 46.0 24.15 Q45.05 23.55 44.5 22.65 L43.85 21.45 43.4 20.5 32.65 20.95 Q31.0 21.05 31.3 19.35 L31.8 16.1 20.5 14.15 Q18.4 14.0 16.9 12.75 L18.8 8.5 Q17.3 7.55 14.6 7.3 13.85 7.15 13.5 6.75 L13.4 6.05 Q13.4 5.4 13.55 4.75 L13.75 4.2 14.05 3.75 Q5.45 6.4 -2.8 3.25 -5.45 2.2 -8.25 2.85 -11.8 3.75 -15.2 5.2 L-16.4 5.5 Q-18.3 5.25 -19.9 4.05 L-22.7 1.95 -31.1 5.95 -35.9 2.1 -46.95 1.65 -47.15 -2.0 -59.85 -3.1 -58.9 -3.5 -55.25 -5.1 -43.1 -6.4 Q-43.85 -3.95 -43.85 -1.65 L-36.35 -2.5 Q-35.4 -2.5 -33.95 -0.95 -32.45 0.6 -31.85 0.6 -30.3 0.6 -23.35 -2.4 L-11.6 -1.4 Q-11.3 -1.4 -7.95 -2.95 -4.25 -4.55 -2.2 -4.55 L9.75 -0.85 17.4 -6.9 Q19.1 -4.8 22.4 -1.8 26.95 2.35 29.65 3.0 L29.55 3.35 25.8 7.25 Q22.65 10.3 22.65 10.9 45.7 15.0 46.55 15.75 47.35 16.45 48.2 17.75 49.05 18.7 50.4 18.7 L62.8 17.25 Q64.1 17.25 63.95 20.1 L71.05 19.35 82.65 27.2 Q83.55 27.2 85.1 25.8 L86.25 25.8 86.25 24.7 88.6 24.75 M41.45 26.05 L33.25 27.0 Q22.5 28.7 12.75 33.35 L10.95 33.95 7.4 32.95 Q-6.7 29.2 -21.1 30.3 L-13.95 24.35 -5.45 22.65 0.95 25.6 Q11.1 21.1 22.05 22.9 L26.1 23.15 Q29.85 23.45 41.45 26.05 M-35.0 32.25 Q-44.0 34.25 -52.2 37.95 L-55.15 36.65 Q-65.8 32.25 -77.0 30.35 L-60.6 26.9 Q-60.85 29.85 -58.25 31.25 L-56.85 31.4 -49.1 30.5 -49.05 32.2 Q-48.05 33.15 -46.6 33.1 -40.7 32.25 -35.2 29.5 L-35.0 32.25 M-3.1 -0.25 L-3.7 -0.4 Q-4.85 -0.4 -4.85 0.6 L-4.7 1.1 -3.95 1.25 Q-3.05 1.25 -3.05 0.3 L-3.1 -0.25 M-9.6 26.2 L-9.45 25.65 Q-9.7 24.6 -10.7 24.6 -10.95 24.6 -11.2 24.85 -11.45 26.35 -10.2 26.35 L-9.6 26.2 M-63.45 27.7 L-64.05 27.85 -64.2 29.3 -63.7 29.85 -62.95 29.1 -62.45 28.25 Q-62.8 28.0 -63.45 27.7 M37.55 17.35 Q37.55 18.35 38.55 18.35 L39.3 17.75 Q38.65 16.85 38.15 16.85 L37.65 16.95 37.55 17.35" fill="#494645" fill-rule="evenodd" stroke="none"/>
    <path d="M82.9 31.8 L82.4 32.75 Q62.55 25.8 41.45 26.05 29.85 23.45 26.1 23.15 24.0 20.85 21.1 19.55 17.55 17.85 13.65 18.6 10.0 19.4 6.8 17.55 1.45 14.35 -4.3 11.45 L-11.05 12.5 Q-10.8 12.2 -10.8 11.7 -10.8 11.6 -11.6 11.0 -12.95 11.0 -12.95 11.9 -12.95 12.5 -12.6 12.75 L-25.15 14.75 Q-26.0 14.75 -26.25 13.7 L-26.35 12.5 -34.3 12.75 Q-34.3 10.35 -35.6 10.35 L-45.15 10.1 Q-45.8 9.85 -45.8 9.15 L-45.8 7.2 Q-45.95 4.7 -49.85 5.45 -54.45 6.4 -55.35 5.35 -56.45 3.9 -58.2 3.45 L-58.3 2.95 Q-59.2 2.7 -60.0 3.2 -62.7 4.3 -65.55 4.35 L-67.2 4.35 Q-66.7 1.65 -67.4 -0.15 L-58.9 -3.5 -59.85 -3.1 -47.15 -2.0 -46.95 1.65 -35.9 2.1 -31.1 5.95 -22.7 1.95 -19.9 4.05 Q-18.3 5.25 -16.4 5.5 L-15.2 5.2 Q-11.8 3.75 -8.25 2.85 -5.45 2.2 -2.8 3.25 5.45 6.4 14.05 3.75 L13.75 4.2 13.55 4.75 Q13.4 5.4 13.4 6.05 L13.5 6.75 Q13.85 7.15 14.6 7.3 17.3 7.55 18.8 8.5 L16.9 12.75 Q18.4 14.0 20.5 14.15 L31.8 16.1 31.3 19.35 Q31.0 21.05 32.65 20.95 L43.4 20.5 43.85 21.45 44.5 22.65 Q45.05 23.55 46.0 24.15 L59.9 21.1 64.3 25.95 Q67.65 25.8 70.55 24.4 L72.3 23.75 82.9 31.8 M-54.2 -1.25 L-54.05 -0.8 -53.35 -0.65 Q-52.2 -0.65 -52.2 -1.6 -52.25 -2.4 -53.1 -2.4 L-53.7 -2.15 Q-54.2 -1.8 -54.2 -1.25 M-36.1 -17.65 Q-36.1 -17.25 -36.35 -16.95 -36.65 -16.7 -37.05 -16.7 -37.45 -16.7 -37.7 -16.95 L-38.0 -17.65 -37.7 -18.3 -37.05 -18.6 Q-36.65 -18.6 -36.35 -18.3 L-36.1 -17.65 M-39.25 -13.7 L-39.05 -13.2 -39.25 -12.7 Q-39.45 -12.5 -39.75 -12.5 L-40.25 -12.7 -40.45 -13.2 -40.25 -13.7 -39.75 -13.9 -39.25 -13.7 M-33.0 -13.55 Q-33.2 -13.4 -33.45 -13.4 L-33.9 -13.55 -34.1 -13.9 -33.9 -14.25 -33.45 -14.4 -33.0 -14.25 -32.8 -13.9 -33.0 -13.55 M-0.85 7.0 L-0.35 7.1 Q1.05 7.1 1.05 6.15 L0.95 5.6 0.05 5.5 Q-1.05 5.5 -1.05 6.25 L-0.85 7.0 M-6.3 5.7 L-7.1 5.6 -7.95 5.7 -8.05 6.4 -7.95 7.0 -7.35 7.1 Q-6.2 7.1 -6.2 6.35 L-6.3 5.7 M-2.35 11.75 Q-1.5 11.75 -1.3 11.0 L-1.95 10.1 Q-3.2 10.4 -3.2 11.15 L-3.05 11.6 -2.35 11.75 M-17.2 8.85 L-16.7 8.35 -16.95 7.6 Q-17.85 7.75 -18.2 8.2 L-17.2 8.85 M-48.2 0.2 L-48.95 0.1 Q-50.2 -0.3 -50.2 0.9 -50.2 1.85 -49.2 1.85 -47.95 1.85 -47.95 0.75 L-48.2 0.2 M-59.6 16.15 L-59.4 16.55 -59.6 16.95 -60.1 17.1 -60.6 16.95 -60.8 16.55 -60.6 16.15 -60.1 16.0 Q-59.8 16.0 -59.6 16.15 M-72.4 20.0 Q-72.15 20.25 -72.15 20.65 L-72.4 21.35 -73.1 21.6 -73.75 21.35 -74.05 20.65 -73.75 20.0 Q-73.5 19.7 -73.1 19.7 -72.7 19.7 -72.4 20.0 M-69.65 16.85 L-69.45 16.4 -69.0 16.2 -68.55 16.4 -68.35 16.85 -68.55 17.3 -69.0 17.5 -69.45 17.3 -69.65 16.85 M-66.2 19.6 Q-65.95 19.3 -65.6 19.3 -65.25 19.3 -64.95 19.6 -64.7 19.85 -64.7 20.2 L-64.95 20.85 -65.6 21.1 -66.2 20.85 -66.5 20.2 -66.2 19.6 M75.05 28.1 Q74.0 27.35 73.65 27.35 73.3 27.35 72.8 28.2 73.9 28.85 74.3 28.85 74.9 28.85 75.05 28.1" fill="#5a5552" fill-rule="evenodd" stroke="none"/>
  </g>
</svg>
