<?xml version="1.0" encoding="UTF-8" standalone="no"?>
<svg xmlns:xlink="http://www.w3.org/1999/xlink" height="38.75px" width="37.65px" xmlns="http://www.w3.org/2000/svg">
  <g transform="matrix(1.0, 0.0, 0.0, 1.0, 19.25, 30.9)">
    <path d="M11.2 -25.05 L11.85 -25.2 Q14.0 -23.7 12.9 -21.15 L10.6 -20.9 10.15 -21.7 Q9.05 -24.05 11.2 -25.05 M-11.4 -25.05 Q-9.05 -24.05 -10.25 -21.7 L-10.75 -20.9 -13.25 -21.15 Q-14.5 -23.7 -12.1 -25.2 L-11.4 -25.05" fill="#000000" fill-rule="evenodd" stroke="none"/>
    <path d="M17.05 -25.65 Q17.35 -25.3 17.6 -26.0 17.95 -18.35 13.5 -16.4 L13.1 -16.45 6.2 -17.8 5.5 -18.7 Q3.85 -20.9 4.85 -23.45 5.6 -25.85 7.3 -27.45 11.8 -28.75 13.7 -28.1 15.65 -27.4 17.05 -25.65 M11.2 -25.05 Q9.05 -24.05 10.15 -21.7 L10.6 -20.9 12.9 -21.15 Q14.0 -23.7 11.85 -25.2 L11.2 -25.05 M-11.4 -25.05 L-12.1 -25.2 Q-14.5 -23.7 -13.25 -21.15 L-10.75 -20.9 -10.25 -21.7 Q-9.05 -24.05 -11.4 -25.05 M-18.45 -24.25 Q-17.45 -25.6 -16.05 -26.75 L-14.5 -27.55 Q-11.65 -28.75 -7.35 -27.6 -5.35 -26.0 -4.5 -23.45 -3.4 -20.9 -5.2 -18.7 L-6.1 -17.65 -9.05 -17.25 -15.1 -17.0 Q-18.55 -19.05 -18.5 -24.2 L-18.45 -24.2 -18.45 -24.25" fill="#ffffff" fill-rule="evenodd" stroke="none"/>
    <path d="M17.55 -26.0 L17.05 -25.65 Q15.65 -27.4 13.7 -28.1 11.8 -28.75 7.3 -27.45 11.8 -31.05 14.4 -29.85 17.0 -28.65 17.35 -27.2 L17.55 -26.05 17.55 -26.0 M13.05 -16.25 L10.1 -15.65 9.85 -15.65 Q9.45 -15.65 9.85 -15.55 6.2 -4.95 6.0 5.55 L7.5 5.7 7.45 5.85 7.4 6.2 7.3 6.4 Q5.65 7.7 3.45 6.65 3.9 0.55 5.0 -5.4 6.05 -10.85 7.7 -15.95 L6.2 -17.8 13.1 -16.45 13.05 -16.25 M-7.35 -27.6 Q-11.65 -28.75 -14.5 -27.55 L-16.05 -26.75 Q-17.45 -25.6 -18.45 -24.25 -17.6 -26.6 -15.8 -28.4 -14.85 -29.5 -13.5 -29.9 -11.5 -30.35 -9.75 -29.2 L-7.4 -27.7 -7.4 -27.65 -7.35 -27.6 M-15.1 -17.0 L-9.05 -17.25 -6.1 -17.65 -7.55 -15.95 Q-5.8 -10.85 -4.65 -5.4 -3.5 0.3 -3.0 6.15 L-3.0 6.2 -2.95 6.65 -3.65 6.7 -3.65 6.65 -3.7 6.7 -6.5 6.95 -7.25 6.5 -7.3 6.1 Q-7.35 5.85 -7.05 5.75 L-5.7 5.55 Q-5.95 4.4 -6.0 1.4 -6.25 -5.35 -9.95 -15.65 L-10.35 -15.65 -10.7 -15.7 -10.8 -15.7 -12.65 -15.95 -12.8 -16.05 -15.1 -16.95 -15.1 -17.0" fill="#cc3333" fill-rule="evenodd" stroke="none"/>
    <path d="M17.55 -26.0 L17.6 -26.0 Q17.35 -25.3 17.05 -25.65 L17.55 -26.0 M13.5 -16.4 L13.05 -16.25 13.1 -16.45 13.5 -16.4 M-2.95 6.2 L-3.0 6.2 -3.0 6.15 -2.95 6.2" fill="#99cc66" fill-rule="evenodd" stroke="none"/>
    <path d="M-7.4 -27.65 L-7.4 -27.7 -7.2 -27.55 -7.4 -27.65" fill="#009900" fill-rule="evenodd" stroke="none"/>
    <path d="M-3.0 6.15 L-2.95 6.15 -2.95 6.2 -3.0 6.15 M-3.65 6.7 L-4.35 7.1 -3.7 6.7 -3.65 6.65 -3.65 6.7 M-15.1 -16.95 L-15.15 -17.0 -15.1 -17.0 -15.1 -16.95" fill="#99ff99" fill-rule="evenodd" stroke="none"/>
    <path d="M17.6 -26.0 Q17.95 -18.35 13.5 -16.4 L13.05 -16.25 10.1 -15.65 9.85 -15.65 Q9.45 -15.65 9.85 -15.55 6.2 -4.95 6.0 5.55 L7.5 5.7 7.45 5.85 7.4 6.2 7.3 6.4 Q5.65 7.7 3.45 6.65 3.9 0.55 5.0 -5.4 6.05 -10.85 7.7 -15.95 L6.2 -17.8 5.5 -18.7 Q3.85 -20.9 4.85 -23.45 5.6 -25.85 7.3 -27.45 11.8 -31.05 14.4 -29.85 17.0 -28.65 17.35 -27.2 L17.55 -26.05 M-7.35 -27.6 L-7.4 -27.65 -7.2 -27.55 -7.4 -27.7 -9.75 -29.2 Q-11.5 -30.35 -13.5 -29.9 -14.85 -29.5 -15.8 -28.4 -17.6 -26.6 -18.45 -24.25 L-18.45 -24.2 -18.5 -24.2 Q-18.55 -19.05 -15.1 -17.0 M-6.1 -17.65 L-5.2 -18.7 Q-3.4 -20.9 -4.5 -23.45 -5.35 -26.0 -7.35 -27.6 M-6.1 -17.65 L-7.55 -15.95 Q-5.8 -10.85 -4.65 -5.4 -3.5 0.3 -3.0 6.15 M-3.7 6.7 L-6.5 6.95 -7.25 6.5 -7.3 6.1 Q-7.35 5.85 -7.05 5.75 L-5.7 5.55 Q-5.95 4.4 -6.0 1.4 -6.25 -5.35 -9.95 -15.65 L-10.35 -15.65 -10.7 -15.7 -10.8 -15.7 -12.65 -15.95 -12.8 -16.05 -15.1 -16.95" fill="none" stroke="#000000" stroke-linecap="round" stroke-linejoin="round" stroke-width="1.5"/>
  </g>
</svg>
