<?xml version="1.0" encoding="UTF-8" standalone="no"?>
<svg xmlns:xlink="http://www.w3.org/1999/xlink" height="44.5px" width="25.35px" xmlns="http://www.w3.org/2000/svg">
  <g transform="matrix(1.0, 0.0, 0.0, 1.0, 7.95, 26.1)">
    <path d="M10.5 -15.85 L15.8 -10.75 Q17.9 -8.8 14.85 -6.55 L-2.25 -19.1 -2.75 -19.2 -1.95 -10.3 Q-1.4 -3.8 -1.75 2.95 -1.95 7.35 -2.6 11.7 L-3.75 17.65 Q-7.1 15.95 -7.15 12.1 L-7.05 -8.9 -7.2 -16.5 Q-6.7 -21.9 -5.0 -25.1 L-3.65 -25.35 0.75 -22.95 Q7.35 -19.0 10.5 -15.85" fill="#cc3333" fill-rule="evenodd" stroke="none"/>
    <path d="M10.5 -15.85 Q7.35 -19.0 0.75 -22.95 L-3.65 -25.35 -5.0 -25.1 Q-6.7 -21.9 -7.2 -16.5 L-7.05 -8.9 -7.15 12.1 Q-7.1 15.95 -3.75 17.65 L-2.6 11.7 Q-1.95 7.35 -1.75 2.95 -1.4 -3.8 -1.95 -10.3 L-2.75 -19.2 -2.25 -19.1 14.85 -6.55 Q17.9 -8.8 15.8 -10.75 L10.5 -15.85 Z" fill="none" stroke="#000000" stroke-linecap="round" stroke-linejoin="round" stroke-width="1.5"/>
  </g>
</svg>
