<?xml version="1.0" encoding="UTF-8" standalone="no"?>
<svg xmlns:xlink="http://www.w3.org/1999/xlink" height="36.7px" width="61.05px" xmlns="http://www.w3.org/2000/svg">
  <g transform="matrix(1.0, 0.0, 0.0, 1.0, 44.7, 18.15)">
    <path d="M-43.9 15.35 L-43.9 15.25 -43.8 15.2 -43.9 15.35" fill="#336600" fill-rule="evenodd" stroke="none"/>
    <path d="M15.6 -9.4 L15.25 -7.7 Q3.45 -8.3 -8.15 -13.55 -19.15 -6.45 -25.05 -0.55 L-34.5 8.75 Q-38.0 12.15 -40.5 15.1 L-42.95 17.8 -43.95 17.5 -38.4 8.9 Q-27.4 -8.75 -6.95 -17.4 4.95 -15.3 15.6 -10.1 L15.6 -9.4" fill="#cc3333" fill-rule="evenodd" stroke="none"/>
    <path d="M15.6 -9.4 L15.25 -7.7 Q3.45 -8.3 -8.15 -13.55 -19.15 -6.45 -25.05 -0.55 L-34.5 8.75 Q-38.0 12.15 -40.5 15.1 L-42.95 17.8 -43.95 17.5 -38.4 8.9 Q-27.4 -8.75 -6.95 -17.4 4.95 -15.3 15.6 -10.1 L15.6 -9.4 Z" fill="none" stroke="#000000" stroke-linecap="round" stroke-linejoin="round" stroke-width="1.5"/>
  </g>
</svg>
