<?xml version="1.0" encoding="UTF-8" standalone="no"?>
<svg xmlns:xlink="http://www.w3.org/1999/xlink" height="41.55px" width="47.65px" xmlns="http://www.w3.org/2000/svg">
  <g transform="matrix(1.0, 0.0, 0.0, 1.0, 30.1, 19.1)">
    <path d="M14.25 -6.8 Q9.45 -9.0 3.8 -10.6 -1.5 -12.05 -5.35 -16.3 L-5.6 -15.85 -6.95 -13.1 Q-13.9 2.55 -23.3 16.65 L-23.75 16.75 -28.25 21.7 -29.25 21.7 Q-29.7 18.25 -28.25 15.15 -25.95 10.1 -18.25 -3.8 -10.65 -17.65 -5.6 -18.35 L-5.55 -18.35 Q1.45 -17.25 16.5 -10.95 L16.8 -10.05 14.25 -6.8" fill="#cc3333" fill-rule="evenodd" stroke="none"/>
    <path d="M14.25 -6.8 L16.8 -10.05 16.5 -10.95 Q1.45 -17.25 -5.55 -18.35 L-5.6 -18.35 Q-10.65 -17.65 -18.25 -3.8 -25.95 10.1 -28.25 15.15 -29.7 18.25 -29.25 21.7 L-28.25 21.7 -23.75 16.75 -23.3 16.65 Q-13.9 2.55 -6.95 -13.1 L-5.6 -15.85 -5.35 -16.3 Q-1.5 -12.05 3.8 -10.6 9.45 -9.0 14.25 -6.8 Z" fill="none" stroke="#000000" stroke-linecap="round" stroke-linejoin="round" stroke-width="1.5"/>
  </g>
</svg>
