<?xml version="1.0" encoding="UTF-8" standalone="no"?>
<svg xmlns:xlink="http://www.w3.org/1999/xlink" height="34.4px" width="61.65px" xmlns="http://www.w3.org/2000/svg">
  <g transform="matrix(1.0, 0.0, 0.0, 1.0, 45.05, 21.15)">
    <path d="M15.2 -7.7 L14.75 -7.4 Q3.7 -10.0 -7.25 -16.45 -28.4 -3.15 -43.8 12.5 L-44.3 12.45 -40.0 4.45 Q-26.55 -12.15 -15.9 -16.15 -6.4 -19.8 -7.35 -20.4 6.4 -16.4 15.85 -10.45 L15.2 -7.7" fill="#cc3333" fill-rule="evenodd" stroke="none"/>
    <path d="M15.2 -7.7 L14.75 -7.4 Q3.7 -10.0 -7.25 -16.45 -28.4 -3.15 -43.8 12.5 L-44.3 12.45 -40.0 4.45 Q-26.55 -12.15 -15.9 -16.15 -6.4 -19.8 -7.35 -20.4 6.4 -16.4 15.85 -10.45 L15.2 -7.7 Z" fill="none" stroke="#000000" stroke-linecap="round" stroke-linejoin="round" stroke-width="1.5"/>
  </g>
</svg>
