<?xml version="1.0" encoding="UTF-8" standalone="no"?>
<svg xmlns:xlink="http://www.w3.org/1999/xlink" height="45.0px" width="28.75px" xmlns="http://www.w3.org/2000/svg">
  <g transform="matrix(1.0, 0.0, 0.0, 1.0, 11.1, 24.8)">
    <path d="M15.15 -6.85 Q4.45 -11.55 -4.3 -20.35 -3.7 -11.4 -4.5 -1.4 -5.35 8.6 -6.8 19.45 L-8.15 19.2 -8.4 19.05 -8.95 18.5 Q-11.0 17.4 -10.05 2.1 -9.15 -13.2 -7.8 -18.2 -6.5 -23.2 -5.05 -24.05 7.25 -20.2 15.9 -10.55 L16.9 -9.2 15.55 -7.7 15.15 -6.85" fill="#cc3333" fill-rule="evenodd" stroke="none"/>
    <path d="M15.15 -6.85 Q4.45 -11.55 -4.3 -20.35 -3.7 -11.4 -4.5 -1.4 -5.35 8.6 -6.8 19.45 L-8.15 19.2 -8.4 19.05 -8.95 18.5 Q-11.0 17.4 -10.05 2.1 -9.15 -13.2 -7.8 -18.2 -6.5 -23.2 -5.05 -24.05 7.25 -20.2 15.9 -10.55 L16.9 -9.2 15.55 -7.7 15.15 -6.85 Z" fill="none" stroke="#000000" stroke-linecap="round" stroke-linejoin="round" stroke-width="1.5"/>
  </g>
</svg>
