<?xml version="1.0" encoding="UTF-8" standalone="no"?>
<svg xmlns:xlink="http://www.w3.org/1999/xlink" height="43.85px" width="35.45px" xmlns="http://www.w3.org/2000/svg">
  <g transform="matrix(1.0, 0.0, 0.0, 1.0, 17.7, 21.9)">
    <path d="M15.9 -11.3 L17.0 -10.2 16.3 -9.3 Q15.25 -8.4 14.95 -7.65 14.65 -6.9 11.75 -8.05 8.85 -9.2 7.65 -9.7 L5.35 -11.05 -3.7 -17.9 Q-4.4 -18.45 -5.25 -18.75 -4.6 -15.2 -5.55 -11.6 L-6.85 -5.5 Q-8.85 6.5 -12.6 17.9 -13.3 19.95 -14.5 21.2 L-15.35 21.2 Q-17.45 18.7 -16.8 15.7 L-16.2 13.15 Q-14.2 5.45 -12.85 -2.3 L-12.4 -4.95 -10.85 -13.0 -10.85 -13.45 Q-10.15 -16.15 -8.25 -18.3 L-5.7 -20.35 -5.05 -21.15 Q1.2 -20.85 6.25 -17.15 9.5 -14.75 13.35 -13.0 14.7 -12.35 15.9 -11.3" fill="#cc3333" fill-rule="evenodd" stroke="none"/>
    <path d="M15.9 -11.3 L17.0 -10.2 16.3 -9.3 Q15.25 -8.4 14.95 -7.65 14.65 -6.9 11.75 -8.05 8.85 -9.2 7.65 -9.7 L5.35 -11.05 -3.7 -17.9 Q-4.4 -18.45 -5.25 -18.75 -4.6 -15.2 -5.55 -11.6 L-6.85 -5.5 Q-8.85 6.5 -12.6 17.9 -13.3 19.95 -14.5 21.2 L-15.35 21.2 Q-17.45 18.7 -16.8 15.7 L-16.2 13.15 Q-14.2 5.45 -12.85 -2.3 L-12.4 -4.95 -10.85 -13.0 -10.85 -13.45 Q-10.15 -16.15 -8.25 -18.3 L-5.7 -20.35 -5.05 -21.15 Q1.2 -20.85 6.25 -17.15 9.5 -14.75 13.35 -13.0 14.7 -12.35 15.9 -11.3 Z" fill="none" stroke="#000000" stroke-linecap="round" stroke-linejoin="round" stroke-width="1.5"/>
  </g>
</svg>
