<?xml version="1.0" encoding="UTF-8" standalone="no"?>
<svg xmlns:xlink="http://www.w3.org/1999/xlink" height="12.6px" width="34.55px" xmlns="http://www.w3.org/2000/svg">
  <g transform="matrix(1.0, 0.0, 0.0, 1.0, -201.4, -25.6)">
    <path d="M211.2 26.75 Q213.4 28.35 213.75 30.3 L201.8 29.6 201.65 29.1 Q202.8 27.3 204.05 26.6 205.25 25.9 205.8 26.1 L207.05 26.25 208.5 26.15 211.2 26.75 M207.65 38.2 L205.3 37.7 201.9 35.85 201.4 34.8 211.2 35.9 Q211.4 36.2 210.2 37.25 208.95 38.25 207.65 38.2 M234.65 36.35 Q233.85 37.65 232.75 37.9 L230.7 38.05 227.4 37.15 235.95 34.95 Q235.35 35.15 234.65 36.35 M231.55 25.6 Q233.7 26.65 234.4 28.6 L223.7 31.45 Q223.85 28.6 225.2 27.45 226.55 26.3 227.0 26.4 L228.0 26.25 229.2 25.75 231.55 25.6" fill="#cc3333" fill-rule="evenodd" stroke="none"/>
  </g>
</svg>
