<?xml version="1.0" encoding="UTF-8" standalone="no"?>
<svg xmlns:xlink="http://www.w3.org/1999/xlink" height="12.55px" width="35.15px" xmlns="http://www.w3.org/2000/svg">
  <g transform="matrix(1.0, 0.0, 0.0, 1.0, -200.7, -25.65)">
    <path d="M205.2 38.1 Q204.0 37.95 203.3 37.05 199.6 34.3 201.15 29.95 202.35 26.5 205.9 25.75 210.25 25.2 212.65 28.25 214.75 30.85 213.25 33.8 210.7 38.75 205.2 38.1 M235.8 32.6 Q236.0 34.0 235.6 35.3 235.05 37.25 233.2 37.75 L230.0 38.1 Q228.5 37.9 227.2 37.1 225.65 36.25 224.55 34.6 223.6 33.25 223.7 31.5 223.75 29.8 224.75 28.15 225.7 26.55 227.55 26.05 L231.4 26.2 Q233.1 26.6 234.2 27.9 235.35 29.25 235.6 31.1 L235.8 32.6" fill="#cc3333" fill-rule="evenodd" stroke="none"/>
  </g>
</svg>
