<?xml version="1.0" encoding="UTF-8" standalone="no"?>
<svg xmlns:xlink="http://www.w3.org/1999/xlink" height="40.95px" width="37.85px" xmlns="http://www.w3.org/2000/svg">
  <g transform="matrix(1.0, 0.0, 0.0, 1.0, 8.85, 32.2)">
    <path d="M5.25 -25.1 L5.55 -24.95 Q6.8 -21.2 2.85 -21.65 2.65 -21.7 2.5 -21.9 2.05 -24.55 4.75 -25.25 L5.25 -25.1 M22.75 -17.85 L22.85 -18.45 24.6 -20.25 25.15 -20.35 25.7 -20.25 Q27.55 -16.55 23.45 -16.9 22.7 -17.0 22.75 -17.85" fill="#000000" fill-rule="evenodd" stroke="none"/>
    <path d="M21.05 -12.05 L18.65 -13.2 Q16.3 -14.25 15.2 -16.4 L16.15 -19.7 Q16.7 -21.65 17.75 -23.35 L18.2 -23.55 Q22.45 -25.45 27.3 -24.4 28.25 -23.2 28.25 -21.65 L27.95 -18.9 Q26.8 -13.45 21.65 -12.1 L21.05 -12.05 M1.5 -16.75 Q-0.8 -17.55 -3.0 -18.55 -4.45 -19.1 -5.75 -19.85 -5.55 -30.1 5.45 -29.7 10.15 -24.3 4.65 -19.15 L1.5 -16.75 M5.25 -25.1 L4.75 -25.25 Q2.05 -24.55 2.5 -21.9 2.65 -21.7 2.85 -21.65 6.8 -21.2 5.55 -24.95 L5.25 -25.1 M22.75 -17.85 Q22.7 -17.0 23.45 -16.9 27.55 -16.55 25.7 -20.25 L25.15 -20.35 24.6 -20.25 22.85 -18.45 22.75 -17.85" fill="#ffffff" fill-rule="evenodd" stroke="none"/>
    <path d="M21.05 -12.05 Q18.8 -11.9 16.85 -12.7 8.85 -4.9 5.6 5.7 L7.0 6.45 Q6.9 7.45 3.65 8.0 1.15 7.35 2.2 6.05 L3.6 5.5 Q4.5 0.6 7.05 -4.2 9.95 -9.65 14.85 -13.8 13.45 -16.25 13.45 -19.0 13.45 -20.6 14.45 -21.9 L16.2 -23.85 Q18.3 -25.9 21.1 -26.45 L23.5 -26.3 Q24.7 -26.15 25.8 -25.5 L27.3 -24.4 Q22.45 -25.45 18.2 -23.55 L17.75 -23.35 Q16.7 -21.65 16.15 -19.7 L15.2 -16.4 Q16.3 -14.25 18.65 -13.2 L21.05 -12.05 M1.5 -16.75 L-0.6 -16.35 -1.0 -14.05 -2.4 -7.15 Q-3.9 -0.5 -3.95 6.05 L-3.05 6.05 Q-6.7 9.25 -8.1 6.7 L-6.4 6.0 -5.25 -2.85 -3.7 -12.05 -3.5 -13.7 Q-3.4 -15.15 -2.9 -16.25 L-5.25 -16.6 Q-6.4 -17.05 -6.75 -18.0 -7.7 -20.65 -7.2 -23.3 -6.55 -26.8 -4.2 -29.25 -1.35 -32.15 2.35 -31.25 L4.45 -30.4 5.45 -29.7 Q-5.55 -30.1 -5.75 -19.85 -4.45 -19.1 -3.0 -18.55 -0.8 -17.55 1.5 -16.75" fill="#ff3333" fill-rule="evenodd" stroke="none"/>
    <path d="M27.3 -24.4 L25.8 -25.5 Q24.7 -26.15 23.5 -26.3 L21.1 -26.45 Q18.3 -25.9 16.2 -23.85 L14.45 -21.9 Q13.45 -20.6 13.45 -19.0 13.45 -16.25 14.85 -13.8 9.95 -9.65 7.05 -4.2 4.5 0.6 3.6 5.5 L2.2 6.05 Q1.15 7.35 3.65 8.0 6.9 7.45 7.0 6.45 L5.6 5.7 Q8.85 -4.9 16.85 -12.7 18.8 -11.9 21.05 -12.05 L21.65 -12.1 Q26.8 -13.45 27.95 -18.9 L28.25 -21.65 Q28.25 -23.2 27.3 -24.4 M5.45 -29.7 L4.45 -30.4 2.35 -31.25 Q-1.35 -32.15 -4.2 -29.25 -6.55 -26.8 -7.2 -23.3 -7.7 -20.65 -6.75 -18.0 -6.4 -17.05 -5.25 -16.6 L-2.9 -16.25 Q-3.4 -15.15 -3.5 -13.7 L-3.7 -12.05 -5.25 -2.85 -6.4 6.0 -8.1 6.7 Q-6.7 9.25 -3.05 6.05 L-3.95 6.05 Q-3.9 -0.5 -2.4 -7.15 L-1.0 -14.05 -0.6 -16.35 1.5 -16.75 4.65 -19.15 Q10.15 -24.3 5.45 -29.7" fill="none" stroke="#000000" stroke-linecap="round" stroke-linejoin="round" stroke-width="1.5"/>
    <path d="M5.25 -25.1 L5.55 -24.95 Q6.8 -21.2 2.85 -21.65 2.65 -21.7 2.5 -21.9 2.05 -24.55 4.75 -25.25 L5.25 -25.1" fill="none" stroke="#000000" stroke-linecap="round" stroke-linejoin="round" stroke-width="1.0"/>
  </g>
</svg>
