<?xml version="1.0" encoding="UTF-8" standalone="no"?>
<svg xmlns:xlink="http://www.w3.org/1999/xlink" height="24.6px" width="27.35px" xmlns="http://www.w3.org/2000/svg">
  <g transform="matrix(1.0, 0.0, 0.0, 1.0, -24.25, 0.75)">
    <path d="M47.05 13.6 L46.55 13.45 Q46.15 13.7 45.9 14.1 L45.2 15.2 45.05 15.4 44.45 15.5 Q43.75 15.6 43.15 15.15 L42.95 14.9 42.3 14.05 42.1 13.8 Q41.45 14.0 41.25 14.95 L40.65 16.45 40.3 16.85 40.15 16.95 38.8 16.85 38.45 16.4 37.95 15.55 37.7 15.1 37.55 15.0 36.4 15.25 36.05 16.35 35.5 17.45 34.9 18.05 34.75 18.15 Q33.85 18.4 33.15 17.85 L33.0 17.6 32.7 16.75 32.55 16.05 32.55 15.95 31.5 16.2 31.2 16.7 30.3 17.7 30.2 17.75 30.0 17.9 Q28.75 18.05 28.0 16.95 L27.1 16.05 26.8 16.0 Q26.45 16.05 26.2 16.3 L25.95 16.4 Q23.1 9.85 28.7 4.55 32.95 0.55 38.8 0.0 50.2 0.85 50.85 11.65 50.9 12.8 50.2 13.65 L47.45 13.7 47.05 13.6" fill="#cc3333" fill-rule="evenodd" stroke="none"/>
    <path d="M47.05 13.6 Q47.2 15.5 45.9 17.95 43.05 23.5 36.4 23.05 31.95 21.15 30.3 17.7 L31.2 16.7 31.5 16.2 32.55 15.95 32.55 16.05 32.7 16.75 33.0 17.6 33.15 17.85 Q33.85 18.4 34.75 18.15 L34.9 18.05 35.5 17.45 36.05 16.35 36.4 15.25 37.55 15.0 37.7 15.1 37.95 15.55 38.45 16.4 38.8 16.85 40.15 16.95 40.3 16.85 40.65 16.45 41.25 14.95 Q41.45 14.0 42.1 13.8 L42.3 14.05 42.95 14.9 43.15 15.15 Q43.75 15.6 44.45 15.5 L45.05 15.4 45.2 15.2 45.9 14.1 Q46.15 13.7 46.55 13.45 L47.05 13.6" fill="#ff3333" fill-rule="evenodd" stroke="none"/>
    <path d="M30.3 17.7 Q31.95 21.15 36.4 23.05 43.05 23.5 45.9 17.95 47.2 15.5 47.05 13.6 L46.55 13.45 Q46.15 13.7 45.9 14.1 L45.2 15.2 45.05 15.4 44.45 15.5 Q43.75 15.6 43.15 15.15 L42.95 14.9 42.3 14.05 42.1 13.8 Q41.45 14.0 41.25 14.95 L40.65 16.45 40.3 16.85 40.15 16.95 38.8 16.85 38.45 16.4 37.95 15.55 37.7 15.1 37.55 15.0 36.4 15.25 36.05 16.35 35.5 17.45 34.9 18.05 34.75 18.15 Q33.85 18.4 33.15 17.85 L33.0 17.6 32.7 16.75 32.55 16.05 32.55 15.95 31.5 16.2 31.2 16.7 30.3 17.7 30.2 17.75 30.0 17.9 Q28.75 18.05 28.0 16.95 L27.1 16.05 26.8 16.0 Q26.45 16.05 26.2 16.3 L25.95 16.4 Q23.1 9.85 28.7 4.55 32.95 0.55 38.8 0.0 50.2 0.85 50.85 11.65 50.9 12.8 50.2 13.65 L47.45 13.7 47.05 13.6" fill="none" stroke="#000000" stroke-linecap="round" stroke-linejoin="round" stroke-width="1.5"/>
  </g>
</svg>
