<?xml version="1.0" encoding="UTF-8" standalone="no"?>
<svg xmlns:xlink="http://www.w3.org/1999/xlink" height="9.2px" width="30.75px" xmlns="http://www.w3.org/2000/svg">
  <g transform="matrix(1.0, 0.0, 0.0, 1.0, -29.0, -5.05)">
    <path d="M58.85 13.5 L34.85 12.65 Q31.1 12.65 29.75 9.7 30.8 4.25 37.15 6.45 40.05 7.5 43.25 8.1 L59.0 9.2 Q56.95 9.85 57.65 10.15 L58.0 10.45 58.35 11.2 58.3 12.6 58.15 12.75 57.85 13.15 Q57.65 13.35 58.85 13.5" fill="#ff3333" fill-rule="evenodd" stroke="none"/>
    <path d="M58.85 13.5 L34.85 12.65 Q31.1 12.65 29.75 9.7 30.8 4.25 37.15 6.45 40.05 7.5 43.25 8.1 L59.0 9.2" fill="none" stroke="#000000" stroke-linecap="round" stroke-linejoin="round" stroke-width="1.5"/>
  </g>
</svg>
