<?xml version="1.0" encoding="UTF-8" standalone="no"?>
<svg xmlns:xlink="http://www.w3.org/1999/xlink" height="40.8px" width="38.6px" xmlns="http://www.w3.org/2000/svg">
  <g transform="matrix(1.0, 0.0, 0.0, 1.0, -59.1, 9.25)">
    <path d="M60.45 14.1 L60.2 13.35 59.85 12.4 Q59.6 3.4 66.3 -2.35 73.65 -8.7 83.4 -8.5 86.25 -8.5 88.85 -7.4 93.05 -5.45 96.85 -2.75 L96.95 -2.4 95.6 -0.8 93.65 -1.0 93.4 0.9 92.4 1.9 88.5 2.05 87.55 4.35 86.85 5.65 82.5 5.2 82.6 7.65 82.15 8.1 76.75 8.25 75.55 10.35 71.2 10.9 71.0 11.35 71.2 11.95 70.05 13.25 67.35 13.3 66.65 13.95 69.05 16.4 71.55 16.0 73.1 20.85 75.15 19.9 76.95 21.7 76.65 22.5 76.95 23.05 77.2 23.5 77.95 24.25 79.85 24.15 80.65 24.4 81.5 24.75 81.7 26.1 82.15 26.6 Q83.9 26.6 85.6 27.4 L87.2 28.2 87.95 28.05 88.65 28.8 87.75 29.6 Q83.15 30.85 78.4 30.55 L78.1 30.8 Q72.4 30.05 68.1 26.5 64.45 23.3 59.85 13.5 L60.45 14.1 63.95 13.85 66.75 13.85 63.95 13.85 60.45 14.1 M66.6 13.9 L66.65 13.95 66.6 13.9" fill="#cc3333" fill-rule="evenodd" stroke="none"/>
    <path d="M60.45 14.1 L60.2 13.35 59.85 12.4 Q59.6 3.4 66.3 -2.35 73.65 -8.7 83.4 -8.5 86.25 -8.5 88.85 -7.4 93.05 -5.45 96.85 -2.75 L96.95 -2.4 95.6 -0.8 93.65 -1.0 93.4 0.9 92.4 1.9 88.5 2.05 87.55 4.35 86.85 5.65 82.5 5.2 82.6 7.65 82.15 8.1 76.75 8.25 75.55 10.35 71.2 10.9 71.0 11.35 71.2 11.95 70.05 13.25 67.35 13.3 66.65 13.95 69.05 16.4 71.55 16.0 73.1 20.85 75.15 19.9 76.95 21.7 76.65 22.5 76.95 23.05 77.2 23.5 77.95 24.25 79.85 24.15 80.65 24.4 81.5 24.75 81.7 26.1 82.15 26.6 Q83.9 26.6 85.6 27.4 L87.2 28.2 87.95 28.05 88.65 28.8 87.75 29.6 Q83.15 30.85 78.4 30.55 L78.1 30.8 Q72.4 30.05 68.1 26.5 64.45 23.3 59.85 13.5 L60.45 14.1 Z" fill="none" stroke="#000000" stroke-linecap="round" stroke-linejoin="round" stroke-width="1.5"/>
  </g>
</svg>
