<?xml version="1.0" encoding="UTF-8" standalone="no"?>
<svg xmlns:xlink="http://www.w3.org/1999/xlink" height="304.25px" width="191.05px" xmlns="http://www.w3.org/2000/svg">
  <g transform="matrix(1.0, 0.0, 0.0, 1.0, 49.0, 193.35)">
    <path d="M94.45 -193.35 L95.25 -193.35 Q96.05 -189.3 99.85 -187.0 111.1 -180.15 118.45 -169.25 119.85 -167.2 121.85 -165.8 128.8 -161.05 133.45 -154.2 136.15 -150.1 136.7 -145.3 137.3 -139.8 135.7 -134.45 133.6 -127.35 132.3 -120.05 131.9 -117.85 132.45 -115.75 133.45 -112.2 133.9 -108.45 134.4 -104.65 132.15 -101.5 129.0 -100.35 126.75 -103.0 125.7 -104.25 125.2 -105.85 123.9 -103.25 124.7 -100.3 126.45 -93.5 122.2 -88.45 121.5 -87.6 120.35 -87.2 115.75 -85.95 114.75 -90.4 114.45 -91.75 114.6 -93.2 L115.25 -99.9 Q115.35 -101.3 114.2 -101.95 113.05 -100.55 111.15 -100.15 110.35 -100.3 109.55 -100.75 108.2 -101.5 107.7 -103.25 L108.7 -106.4 101.05 -106.35 78.8 -123.1 78.85 -114.65 Q80.3 -112.75 79.8 -110.3 84.65 -107.9 88.05 -103.5 L90.4 -100.0 Q96.45 -88.25 90.85 -76.4 89.35 -73.3 86.85 -70.7 81.15 -64.65 72.65 -64.25 84.65 -62.15 90.35 -51.3 95.55 -41.45 91.9 -30.9 88.05 -19.8 76.9 -16.3 83.55 -14.15 88.0 -8.75 89.8 -6.55 91.0 -4.05 91.3 -4.25 92.3 -0.65 93.5 3.2 93.5 7.65 L93.5 7.85 93.35 10.4 Q93.0 14.15 91.65 17.65 L89.8 21.6 Q78.65 37.85 59.8 31.25 52.75 35.45 44.95 37.0 L42.3 38.2 Q41.0 39.3 41.0 41.3 40.95 44.5 41.25 47.75 41.5 50.0 43.7 50.75 L44.15 50.95 44.3 52.9 44.3 53.25 43.45 52.9 45.45 80.5 46.85 80.75 46.65 82.45 36.15 81.2 Q20.8 80.6 6.3 87.35 -4.15 92.2 -13.1 99.2 -17.7 102.85 -22.65 105.7 L-31.45 110.9 -31.45 108.95 -31.4 108.9 Q-24.4 105.45 -18.0 100.9 L-31.45 104.1 -49.0 108.7 -49.0 106.4 -31.45 101.8 Q-20.15 100.05 -10.4 93.95 0.5 87.15 12.7 83.0 24.25 79.1 36.15 79.5 L43.85 80.2 42.85 66.9 41.85 53.3 41.7 51.75 40.4 50.05 36.15 50.6 11.9 53.65 Q-9.9 56.75 -31.5 60.5 L-49.0 63.35 -49.0 61.7 -31.5 58.8 Q2.35 52.9 36.15 48.75 L39.45 48.35 Q39.15 44.45 39.85 40.7 40.7 36.2 45.25 35.3 L48.6 34.2 56.2 31.7 Q48.4 27.8 44.9 19.75 43.25 15.9 42.8 12.05 L36.15 12.15 Q4.8 12.75 -26.65 15.3 L-31.55 15.6 -49.0 17.3 -49.0 15.3 -31.55 13.55 -11.45 12.25 42.65 10.35 42.65 8.9 Q42.7 0.65 47.0 -6.4 49.3 -10.05 52.6 -12.7 L59.05 -16.6 Q52.1 -19.05 47.65 -25.1 45.4 -28.2 44.05 -31.8 L-49.0 -36.6 -49.0 -38.9 -31.6 -38.35 41.35 -33.75 43.5 -33.6 Q41.95 -40.25 43.4 -46.8 44.65 -52.0 48.05 -56.1 L48.25 -56.35 51.65 -59.7 Q54.95 -62.4 59.05 -63.6 L62.2 -63.85 Q56.65 -64.75 52.2 -68.35 46.4 -73.0 44.0 -80.0 L7.2 -88.4 Q-16.35 -93.5 -39.95 -97.85 L-49.0 -99.7 -49.0 -101.35 -39.85 -99.6 1.05 -91.4 Q21.45 -87.05 41.8 -82.1 L43.5 -81.7 Q42.7 -84.65 42.65 -87.9 L43.1 -93.35 44.15 -97.2 31.85 -101.1 Q12.05 -107.15 -8.15 -112.35 -28.55 -117.5 -49.0 -121.75 L-49.0 -123.5 -13.3 -115.25 Q16.0 -108.1 44.85 -98.8 L46.9 -102.35 22.15 -110.3 Q7.2 -115.05 -7.9 -119.15 -28.35 -124.75 -49.0 -129.5 L-49.0 -131.45 -42.75 -130.2 Q-22.85 -125.2 -3.1 -119.5 22.55 -112.0 47.85 -103.6 L52.6 -108.1 53.0 -108.35 Q57.35 -111.3 62.65 -111.75 L68.05 -112.55 Q73.25 -112.9 78.05 -111.1 L78.05 -112.5 78.05 -112.95 Q69.95 -114.65 62.25 -118.0 56.85 -120.45 51.3 -122.4 33.2 -128.75 14.8 -133.7 -5.05 -139.15 -24.8 -145.25 L-49.0 -152.6 -49.0 -154.5 -11.9 -143.15 -9.55 -173.05 -8.25 -188.5 -13.55 -193.35 -11.05 -193.35 -5.4 -188.5 Q6.15 -178.75 18.35 -169.85 L51.3 -145.6 102.15 -107.95 111.05 -108.15 118.95 -108.2 108.8 -115.9 Q91.6 -128.75 73.85 -141.0 56.85 -152.7 40.6 -165.2 24.45 -177.65 11.5 -193.35 L13.4 -193.35 Q17.1 -188.85 21.25 -184.7 36.25 -169.95 53.25 -157.85 69.45 -146.25 85.75 -134.8 103.0 -122.75 119.6 -110.0 L119.6 -112.8 119.55 -117.45 119.45 -123.3 119.45 -125.5 119.45 -130.75 Q108.7 -132.75 101.55 -141.15 94.8 -149.1 85.45 -153.35 77.75 -156.85 69.7 -159.3 59.25 -162.3 51.95 -170.45 43.1 -180.25 41.65 -193.35 L42.85 -193.35 Q44.85 -180.15 54.05 -170.45 57.5 -166.9 61.85 -164.45 63.55 -163.55 65.4 -162.95 76.9 -159.05 88.0 -154.2 93.5 -151.9 97.55 -147.55 102.35 -142.4 107.9 -138.15 117.25 -131.05 129.15 -131.95 L129.3 -131.55 Q125.55 -129.9 121.6 -130.5 L121.7 -106.35 110.35 -106.4 109.2 -103.15 110.3 -101.85 Q111.2 -101.75 111.95 -102.45 113.65 -103.9 115.35 -103.05 116.5 -102.55 116.55 -101.45 L116.65 -90.05 Q116.65 -88.95 117.75 -88.7 120.5 -87.95 122.1 -90.1 124.45 -95.45 122.95 -101.3 L122.75 -102.45 122.7 -103.6 Q122.7 -107.35 125.05 -107.35 126.85 -107.35 127.6 -104.9 128.35 -102.5 129.65 -102.5 131.25 -102.5 131.9 -104.2 132.8 -108.9 131.0 -113.55 130.25 -115.45 130.35 -117.35 130.55 -124.35 132.85 -130.8 135.2 -137.45 134.95 -144.4 133.45 -156.5 122.7 -162.6 121.5 -163.2 120.7 -164.15 L111.75 -174.6 Q105.55 -181.5 97.9 -186.8 94.65 -189.1 94.45 -193.35 M87.2 -101.8 L84.65 -104.7 83.55 -105.75 Q80.75 -108.2 77.2 -109.55 69.9 -112.05 62.75 -109.15 50.9 -104.25 49.4 -91.1 48.7 -81.65 54.45 -74.35 59.85 -67.5 68.35 -66.15 75.35 -65.25 81.45 -68.9 88.95 -73.5 90.95 -82.05 93.5 -92.8 87.2 -101.8 M29.1 -148.7 L30.0 -159.15 7.8 -175.6 -6.7 -187.2 -7.8 -171.95 -10.1 -142.65 27.05 -132.3 29.1 -148.7 M30.7 -147.7 L28.75 -131.75 52.7 -124.25 53.25 -132.35 53.7 -141.65 31.65 -157.95 30.7 -147.7 M55.75 -140.15 L55.05 -131.05 54.4 -123.7 Q61.3 -121.25 67.85 -118.2 71.95 -116.25 76.4 -115.4 L77.05 -115.25 77.05 -124.4 55.75 -140.15 55.65 -140.2 55.6 -139.95 55.65 -140.2 55.75 -140.15 M47.7 -91.2 Q48.6 -100.7 55.7 -107.1 L57.65 -108.85 Q46.4 -103.5 44.45 -91.15 44.0 -87.5 44.7 -83.85 L45.0 -82.45 Q48.7 -69.65 61.4 -66.05 L64.05 -65.4 Q52.25 -70.15 48.5 -82.25 L48.3 -83.15 Q47.35 -87.15 47.7 -91.2 M47.65 -39.25 Q47.75 -42.3 48.3 -45.3 50.45 -56.6 60.4 -62.15 55.6 -61.0 51.85 -57.55 44.1 -50.4 44.3 -39.7 44.4 -36.75 45.1 -34.05 45.7 -32.15 46.6 -30.3 51.05 -20.95 60.9 -17.95 L59.05 -19.05 Q50.95 -24.55 48.4 -34.05 L47.65 -39.25 M84.0 -57.25 Q80.85 -60.0 77.0 -61.5 73.1 -63.05 68.95 -62.5 66.8 -62.6 64.8 -61.85 60.25 -60.25 56.75 -56.8 53.2 -53.4 51.4 -48.95 49.7 -44.9 49.3 -40.6 L49.5 -38.35 Q51.05 -24.7 63.4 -19.2 64.6 -18.7 65.85 -18.35 71.05 -16.5 76.2 -18.0 L77.95 -18.25 Q80.5 -18.8 82.6 -20.5 88.35 -25.1 90.4 -31.95 93.75 -43.2 87.8 -53.0 86.3 -55.5 84.25 -57.05 L84.0 -57.25 M84.15 -10.2 Q80.8 -13.4 76.25 -14.55 L73.6 -15.0 71.95 -15.1 Q68.35 -15.2 65.15 -13.95 L63.2 -12.95 Q54.05 -7.75 50.55 2.05 L49.4 10.4 49.4 10.45 49.55 12.15 Q50.85 24.05 60.85 30.25 L63.75 30.95 69.15 31.9 Q74.7 31.9 78.5 29.9 L78.55 29.9 82.75 27.5 84.75 25.7 Q86.25 24.3 88.25 21.15 91.0 16.65 91.65 11.9 L91.85 10.45 Q92.95 -1.7 84.15 -10.2 M47.65 8.7 L48.35 3.95 Q51.15 -9.65 63.7 -15.7 59.55 -14.95 56.05 -12.65 44.55 -5.05 44.3 8.65 L44.3 8.75 44.4 10.4 Q44.7 15.15 46.65 19.65 49.7 25.8 55.6 29.25 L57.4 30.15 Q51.95 26.05 49.45 19.65 L49.0 18.35 Q47.7 14.45 47.65 10.4 L47.65 8.7 M-42.2 -58.25 L-42.25 -57.85 -44.3 -58.1 -44.25 -58.25 -42.2 -58.25" fill="#000000" fill-rule="evenodd" stroke="none"/>
    <path d="M94.45 -193.35 Q94.65 -189.1 97.9 -186.8 105.55 -181.5 111.75 -174.6 L120.7 -164.15 Q121.5 -163.2 122.7 -162.6 133.45 -156.5 134.95 -144.4 L133.85 -142.2 Q133.0 -140.75 131.4 -140.15 L123.1 -139.8 Q117.35 -140.75 112.55 -143.9 106.4 -148.05 105.75 -155.3 105.55 -157.85 104.5 -160.05 102.2 -164.9 97.25 -166.8 90.85 -169.25 84.25 -170.6 74.6 -172.6 66.4 -177.9 58.0 -183.35 57.5 -193.35 L94.45 -193.35 M130.35 -117.35 Q130.25 -115.45 131.0 -113.55 132.8 -108.9 131.9 -104.2 129.3 -104.75 129.15 -107.45 128.8 -112.6 130.35 -117.35 M122.75 -102.45 L122.95 -101.3 Q124.45 -95.45 122.1 -90.1 119.85 -90.2 119.4 -92.45 119.25 -93.05 119.5 -93.5 121.95 -97.7 122.75 -102.45" fill="#ffffff" fill-rule="evenodd" stroke="none"/>
    <path d="M134.95 -144.4 Q135.2 -137.45 132.85 -130.8 130.55 -124.35 130.35 -117.35 128.8 -112.6 129.15 -107.45 129.3 -104.75 131.9 -104.2 131.25 -102.5 129.65 -102.5 128.35 -102.5 127.6 -104.9 126.85 -107.35 125.05 -107.35 122.7 -107.35 122.7 -103.6 L122.75 -102.45 Q121.95 -97.7 119.5 -93.5 119.25 -93.05 119.4 -92.45 119.85 -90.2 122.1 -90.1 120.5 -87.95 117.75 -88.7 116.65 -88.95 116.65 -90.05 L116.55 -101.45 Q116.5 -102.55 115.35 -103.05 113.65 -103.9 111.95 -102.45 111.2 -101.75 110.3 -101.85 L109.2 -103.15 110.35 -106.4 121.7 -106.35 121.6 -130.5 Q125.55 -129.9 129.3 -131.55 L129.15 -131.95 Q117.25 -131.05 107.9 -138.15 102.35 -142.4 97.55 -147.55 93.5 -151.9 88.0 -154.2 76.9 -159.05 65.4 -162.95 63.55 -163.55 61.85 -164.45 57.5 -166.9 54.05 -170.45 44.85 -180.15 42.85 -193.35 L57.5 -193.35 Q58.0 -183.35 66.4 -177.9 74.6 -172.6 84.25 -170.6 90.85 -169.25 97.25 -166.8 102.2 -164.9 104.5 -160.05 105.55 -157.85 105.75 -155.3 106.4 -148.05 112.55 -143.9 117.35 -140.75 123.1 -139.8 L131.4 -140.15 Q133.0 -140.75 133.85 -142.2 L134.95 -144.4" fill="#bbc2c8" fill-rule="evenodd" stroke="none"/>
    <path d="M41.65 -193.35 Q43.1 -180.25 51.95 -170.45 59.25 -162.3 69.7 -159.3 77.75 -156.85 85.45 -153.35 94.8 -149.1 101.55 -141.15 108.7 -132.75 119.45 -130.75 L119.45 -125.5 Q110.8 -125.7 104.4 -131.65 100.15 -135.7 96.95 -140.55 90.05 -150.85 78.15 -155.05 71.9 -157.35 65.55 -159.05 53.7 -162.35 45.95 -172.25 38.5 -181.9 39.45 -193.35 L41.65 -193.35 M56.35 -159.75 L56.3 -159.75 53.6 -161.55 57.5 -159.5 56.35 -159.75" fill="#75644a" fill-rule="evenodd" stroke="none"/>
    <path d="M119.45 -125.5 L119.45 -123.3 Q105.55 -123.25 98.6 -133.7 91.6 -144.2 82.85 -149.35 74.05 -154.55 62.95 -156.9 L56.35 -159.75 57.5 -159.5 53.6 -161.55 50.9 -163.75 43.05 -172.7 41.8 -174.4 Q35.9 -183.0 37.15 -193.35 L39.45 -193.35 Q38.5 -181.9 45.95 -172.25 53.7 -162.35 65.55 -159.05 71.9 -157.35 78.15 -155.05 90.05 -150.85 96.95 -140.55 100.15 -135.7 104.4 -131.65 110.8 -125.7 119.45 -125.5 M111.05 -108.15 L102.15 -107.95 51.3 -145.6 18.35 -169.85 Q6.15 -178.75 -5.4 -188.5 L-11.05 -193.35 -1.3 -193.35 12.6 -181.5 Q29.5 -167.3 36.7 -161.95 66.95 -139.2 81.1 -129.35 L111.05 -108.15" fill="#917f65" fill-rule="evenodd" stroke="none"/>
    <path d="M90.4 -100.0 L88.05 -103.5 Q90.6 -101.05 90.45 -100.1 L90.4 -100.0" fill="#660066" fill-rule="evenodd" stroke="none"/>
    <path d="M77.2 -109.55 Q80.75 -108.2 83.55 -105.75 L84.65 -104.7 Q77.75 -109.5 69.15 -107.2 L66.0 -106.45 Q58.7 -103.4 56.3 -95.8 53.65 -87.4 58.9 -80.0 60.55 -77.75 62.95 -76.5 70.1 -72.65 77.85 -75.55 79.05 -76.05 80.05 -76.9 84.9 -81.0 84.7 -87.35 84.55 -91.25 82.35 -94.5 78.35 -100.45 70.95 -99.8 65.4 -99.55 63.5 -94.55 61.75 -89.95 64.4 -85.9 67.25 -81.65 72.3 -82.15 74.85 -82.3 76.15 -84.4 78.9 -88.9 74.65 -92.15 73.25 -93.2 71.75 -92.5 67.85 -90.65 70.2 -87.0 L72.8 -87.6 72.3 -89.1 73.3 -89.2 73.65 -87.05 Q72.55 -85.9 70.95 -86.0 68.85 -86.15 68.4 -88.0 67.3 -92.65 71.65 -93.95 73.0 -94.4 74.3 -93.7 78.25 -91.45 78.4 -86.9 78.45 -85.95 78.05 -85.15 75.35 -79.5 68.9 -81.2 64.5 -82.3 62.5 -86.8 60.55 -91.2 62.45 -95.65 64.8 -101.15 71.05 -101.4 75.7 -101.85 79.65 -99.4 83.3 -97.2 84.95 -93.15 87.55 -86.7 85.05 -80.25 84.25 -78.2 82.55 -76.7 78.95 -73.4 74.1 -72.8 66.35 -71.4 60.3 -76.4 58.8 -77.65 57.75 -79.2 51.2 -89.2 56.6 -100.25 63.1 -110.0 75.25 -109.65 L77.2 -109.55 M76.2 -18.0 Q71.05 -16.5 65.85 -18.35 64.6 -18.7 63.4 -19.2 71.25 -16.55 78.2 -20.8 86.3 -25.7 88.3 -34.95 89.45 -40.5 87.4 -45.5 85.4 -50.35 80.85 -53.2 L78.35 -54.4 Q73.15 -56.15 67.9 -54.5 57.55 -51.45 55.6 -41.25 55.05 -38.2 56.35 -35.55 59.8 -28.45 67.45 -26.3 73.0 -24.7 77.9 -27.65 82.0 -30.0 83.05 -34.5 84.25 -39.75 82.0 -44.55 80.25 -48.2 76.3 -49.0 68.05 -50.65 64.05 -43.5 61.95 -39.8 64.05 -36.15 64.65 -35.2 65.6 -34.65 70.1 -32.15 75.2 -32.55 L77.0 -34.6 Q78.3 -35.9 78.85 -37.65 79.8 -40.95 76.65 -42.6 71.25 -45.45 68.2 -40.2 L68.55 -39.55 Q69.25 -38.6 70.25 -38.2 72.6 -37.6 73.95 -39.25 L72.65 -41.15 73.55 -40.75 Q74.5 -40.05 74.8 -38.8 73.85 -36.95 71.6 -36.95 67.2 -36.9 67.05 -41.0 68.1 -43.2 70.0 -44.45 71.55 -45.55 73.35 -45.05 76.4 -44.25 78.8 -42.35 81.55 -40.15 80.0 -36.45 78.4 -32.65 74.25 -31.8 69.7 -30.65 65.5 -32.4 63.4 -33.4 62.45 -35.45 60.35 -39.9 62.75 -44.25 65.75 -49.6 71.8 -50.25 78.85 -50.9 82.85 -45.0 L83.9 -42.8 Q86.2 -35.75 82.1 -29.6 79.4 -25.7 74.7 -24.8 66.05 -22.95 59.35 -28.8 53.9 -33.55 54.4 -40.85 54.95 -48.8 61.45 -53.15 68.85 -58.2 77.45 -55.95 82.5 -54.55 85.8 -50.55 92.0 -42.95 89.35 -33.1 86.45 -22.3 76.2 -18.0 M49.4 10.45 L49.4 10.4 50.55 2.05 Q50.3 4.8 50.35 6.75 L50.6 10.45 50.85 12.8 Q51.85 16.85 54.0 20.2 58.3 26.95 66.0 28.5 L66.6 28.6 72.05 28.45 73.3 28.25 73.35 28.25 74.4 27.95 Q79.3 26.6 83.7 22.65 86.15 19.6 87.2 15.85 88.05 13.1 88.1 10.45 88.4 3.7 84.25 -2.4 81.5 -6.4 76.9 -7.7 71.1 -9.15 65.75 -6.8 63.4 -5.7 61.6 -3.4 57.05 2.6 57.6 10.45 L57.75 11.95 Q58.4 17.3 62.75 20.8 67.3 24.35 73.0 22.95 77.55 21.9 79.8 17.9 81.8 14.35 82.1 10.45 82.25 8.0 81.75 5.6 81.3 3.4 80.3 1.5 78.65 -1.65 75.05 -2.05 70.45 -2.65 67.2 0.6 63.05 4.75 62.75 10.45 L62.75 12.75 Q65.75 14.7 69.3 15.45 71.2 15.75 73.1 14.9 76.25 13.4 76.9 10.45 77.15 9.25 77.05 7.85 77.0 6.6 75.95 5.5 74.1 3.5 71.55 4.2 67.5 5.1 67.55 9.2 L67.9 9.5 72.65 8.95 71.2 7.75 70.7 7.85 70.85 6.8 73.2 7.5 73.5 9.35 71.95 10.45 Q70.45 11.1 68.75 10.45 L67.85 10.0 Q65.05 8.25 66.9 5.45 69.1 2.05 73.25 2.6 77.55 3.1 78.25 7.3 78.5 8.95 78.25 10.45 77.8 13.1 75.7 15.1 74.7 16.15 73.25 16.35 68.4 17.55 63.65 15.15 62.4 14.55 61.85 13.1 61.45 11.85 61.35 10.45 61.25 8.5 62.0 6.7 63.15 3.75 65.0 0.75 66.1 -1.1 68.05 -2.25 72.6 -4.95 77.7 -3.05 80.05 -2.2 81.85 -0.35 83.65 1.5 84.0 4.1 84.45 7.4 84.1 10.45 83.7 13.8 82.5 16.8 80.45 22.0 75.45 23.8 68.95 26.3 62.7 23.05 60.75 22.05 59.6 20.25 56.65 15.6 56.15 10.45 55.85 7.7 56.2 5.0 57.55 -5.5 67.65 -8.85 77.7 -12.05 84.5 -4.6 88.8 0.2 89.6 6.65 L89.8 10.45 Q89.65 16.55 86.1 21.85 L84.1 24.0 Q82.5 25.55 80.7 26.7 L78.4 27.9 Q75.45 29.3 73.7 29.65 L73.35 29.75 69.45 30.15 Q65.6 30.15 63.6 29.3 52.45 24.75 49.75 12.1 L49.45 10.5 49.4 10.45" fill="#593e0f" fill-rule="evenodd" stroke="none"/>
    <path d="M84.65 -104.7 L87.2 -101.8 Q78.3 -105.9 68.55 -106.3 L66.0 -106.45 69.15 -107.2 Q77.75 -109.5 84.65 -104.7 M49.4 -91.1 Q50.9 -104.25 62.75 -109.15 69.9 -112.05 77.2 -109.55 L75.25 -109.65 Q63.1 -110.0 56.6 -100.25 L49.4 -91.1 M73.6 -15.0 L76.25 -14.55 Q80.8 -13.4 84.15 -10.2 69.9 -13.3 61.65 -7.7 54.1 -2.7 51.4 9.5 L50.85 12.8 50.6 10.45 50.35 6.75 Q50.3 4.8 50.55 2.05 54.05 -7.75 63.2 -12.95 L65.15 -13.95 73.6 -15.0" fill="#fedbb3" fill-rule="evenodd" stroke="none"/>
    <path d="M119.55 -117.45 L119.6 -112.8 Q96.75 -131.5 56.3 -159.75 L56.35 -159.75 62.95 -156.9 98.4 -131.25 Q108.7 -123.75 119.55 -117.45 M43.05 -172.7 L50.9 -163.75 15.25 -193.35 18.05 -193.35 43.05 -172.7" fill="#c5b597" fill-rule="evenodd" stroke="none"/>
    <path d="M119.45 -123.3 L119.55 -117.45 Q108.7 -123.75 98.4 -131.25 L62.95 -156.9 Q74.05 -154.55 82.85 -149.35 91.6 -144.2 98.6 -133.7 105.55 -123.25 119.45 -123.3 M11.5 -193.35 Q24.45 -177.65 40.6 -165.2 56.85 -152.7 73.85 -141.0 91.6 -128.75 108.8 -115.9 L118.95 -108.2 111.05 -108.15 81.1 -129.35 Q66.95 -139.2 36.7 -161.95 29.5 -167.3 12.6 -181.5 L-1.3 -193.35 11.5 -193.35 M43.05 -172.7 L18.05 -193.35 37.15 -193.35 Q35.9 -183.0 41.8 -174.4 L43.05 -172.7" fill="#ae9a80" fill-rule="evenodd" stroke="none"/>
    <path d="M119.6 -112.8 L119.6 -110.0 Q103.0 -122.75 85.75 -134.8 69.45 -146.25 53.25 -157.85 36.25 -169.95 21.25 -184.7 17.1 -188.85 13.4 -193.35 L15.25 -193.35 50.9 -163.75 53.6 -161.55 56.3 -159.75 Q96.75 -131.5 119.6 -112.8" fill="#ddd0ae" fill-rule="evenodd" stroke="none"/>
    <path d="M-49.0 17.3 L-31.55 15.6 -26.65 15.3 Q4.8 12.75 36.15 12.15 L42.8 12.05 Q43.25 15.9 44.9 19.75 48.4 27.8 56.2 31.7 L48.6 34.2 46.35 31.2 Q42.2 24.75 41.75 17.1 L36.15 17.25 Q16.2 17.75 -49.0 23.7 L-49.0 17.3 M-7.8 -171.95 L-6.7 -187.2 7.8 -175.6 30.0 -159.15 29.1 -148.7 -7.8 -171.95" fill="#93723d" fill-rule="evenodd" stroke="none"/>
    <path d="M41.85 53.3 L42.85 66.9 36.15 67.6 9.6 71.0 Q-10.85 74.15 -30.8 78.55 L-31.45 78.7 -49.0 83.2 -49.0 67.65 Q-6.6 59.7 3.5 58.35 L36.15 54.05 41.85 53.3 M53.25 -132.35 L52.7 -124.25 28.75 -131.75 30.7 -147.7 53.25 -132.35" fill="#c29f77" fill-rule="evenodd" stroke="none"/>
    <path d="M-49.0 -152.6 L-24.8 -145.25 Q-5.05 -139.15 14.8 -133.7 33.2 -128.75 51.3 -122.4 56.85 -120.45 62.25 -118.0 69.95 -114.65 78.05 -112.95 L78.05 -112.5 Q57.0 -117.6 35.95 -123.05 16.55 -128.0 -2.45 -134.45 -22.0 -141.1 -41.7 -147.2 L-49.0 -149.45 -49.0 -152.6 M68.05 -112.55 L62.65 -111.75 Q52.1 -113.75 42.3 -117.55 38.5 -118.9 34.55 -119.6 23.75 -121.85 13.75 -126.8 L14.95 -127.6 Q18.8 -125.7 22.85 -124.55 L38.25 -120.2 Q53.0 -115.35 68.05 -112.55 M-49.0 -144.4 L-44.55 -142.55 -49.0 -143.95 -49.0 -144.4" fill="#b18757" fill-rule="evenodd" stroke="none"/>
    <path d="M78.05 -112.5 L78.05 -111.1 Q73.25 -112.9 68.05 -112.55 53.0 -115.35 38.25 -120.2 L22.85 -124.55 Q18.8 -125.7 14.95 -127.6 L13.75 -126.8 Q23.75 -121.85 34.55 -119.6 38.5 -118.9 42.3 -117.55 52.1 -113.75 62.65 -111.75 57.35 -111.3 53.0 -108.35 L52.6 -108.1 Q40.35 -110.4 28.7 -115.15 25.1 -116.65 21.45 -117.3 0.15 -121.55 -20.9 -127.1 -34.85 -130.75 -49.0 -133.75 L-49.0 -143.95 -44.55 -142.55 -49.0 -144.4 -49.0 -149.45 -41.7 -147.2 Q-22.0 -141.1 -2.45 -134.45 16.55 -128.0 35.95 -123.05 57.0 -117.6 78.05 -112.5 M-31.45 104.1 L-18.0 100.9 Q-24.4 105.45 -31.4 108.9 L-31.45 108.95 -31.45 104.1" fill="#936939" fill-rule="evenodd" stroke="none"/>
    <path d="M52.6 -108.1 L47.85 -103.6 Q22.55 -112.0 -3.1 -119.5 -22.85 -125.2 -42.75 -130.2 L-49.0 -131.45 -49.0 -133.75 Q-34.85 -130.75 -20.9 -127.1 0.15 -121.55 21.45 -117.3 25.1 -116.65 28.7 -115.15 40.35 -110.4 52.6 -108.1" fill="#754b1b" fill-rule="evenodd" stroke="none"/>
    <path d="M-9.55 -173.05 L-11.9 -143.15 -49.0 -154.5 -49.0 -193.35 -37.3 -193.35 Q-34.1 -189.15 -16.75 -177.7 L-9.55 -173.05 M52.6 -12.7 Q49.3 -10.05 47.0 -6.4 L21.7 -7.35 -4.8 -7.35 -49.0 -5.35 -49.0 -30.25 43.2 -25.55 44.6 -22.5 Q47.5 -16.65 52.6 -12.7 M76.4 -115.4 Q71.95 -116.25 67.85 -118.2 61.3 -121.25 54.4 -123.7 L55.05 -131.05 76.4 -115.4" fill="#be9e78" fill-rule="evenodd" stroke="none"/>
    <path d="M-13.55 -193.35 L-8.25 -188.5 -9.55 -173.05 -16.75 -177.7 Q-34.1 -189.15 -37.3 -193.35 L-13.55 -193.35 M-49.0 -36.6 L44.05 -31.8 Q45.4 -28.2 47.65 -25.1 52.1 -19.05 59.05 -16.6 L52.6 -12.7 Q47.5 -16.65 44.6 -22.5 L43.2 -25.55 -49.0 -30.25 -49.0 -36.6 M55.05 -131.05 L55.75 -140.15 77.05 -124.4 77.05 -115.25 76.4 -115.4 55.05 -131.05" fill="#a0805a" fill-rule="evenodd" stroke="none"/>
    <path d="M-49.0 63.35 L-31.5 60.5 Q-9.9 56.75 11.9 53.65 L36.15 50.6 40.4 50.05 41.7 51.75 41.85 53.3 36.15 54.05 3.5 58.35 Q-6.6 59.7 -49.0 67.65 L-49.0 63.35 M30.7 -147.7 L31.65 -157.95 53.7 -141.65 53.25 -132.35 30.7 -147.7" fill="#a48159" fill-rule="evenodd" stroke="none"/>
    <path d="M44.45 -91.15 Q46.4 -103.5 57.65 -108.85 L55.7 -107.1 Q48.6 -100.7 47.7 -91.2 L44.45 -91.15 M44.3 -39.7 Q44.1 -50.4 51.85 -57.55 55.6 -61.0 60.4 -62.15 50.45 -56.6 48.3 -45.3 47.75 -42.3 47.65 -39.25 L47.65 -39.8 44.3 -39.7 M44.3 8.65 Q44.55 -5.05 56.05 -12.65 59.55 -14.95 63.7 -15.7 51.15 -9.65 48.35 3.95 L47.65 8.7 44.3 8.65" fill="#9c8245" fill-rule="evenodd" stroke="none"/>
    <path d="M87.2 -101.8 Q93.5 -92.8 90.95 -82.05 88.95 -73.5 81.45 -68.9 75.35 -65.25 68.35 -66.15 59.85 -67.5 54.45 -74.35 48.7 -81.65 49.4 -91.1 L56.6 -100.25 Q51.2 -89.2 57.75 -79.2 58.8 -77.65 60.3 -76.4 66.35 -71.4 74.1 -72.8 78.95 -73.4 82.55 -76.7 84.25 -78.2 85.05 -80.25 87.55 -86.7 84.95 -93.15 83.3 -97.2 79.65 -99.4 75.7 -101.85 71.05 -101.4 64.8 -101.15 62.45 -95.65 60.55 -91.2 62.5 -86.8 64.5 -82.3 68.9 -81.2 75.35 -79.5 78.05 -85.15 78.45 -85.95 78.4 -86.9 78.25 -91.45 74.3 -93.7 73.0 -94.4 71.65 -93.95 67.3 -92.65 68.4 -88.0 68.85 -86.15 70.95 -86.0 72.55 -85.9 73.65 -87.05 L73.3 -89.2 72.3 -89.1 72.8 -87.6 70.2 -87.0 Q67.85 -90.65 71.75 -92.5 73.25 -93.2 74.65 -92.15 78.9 -88.9 76.15 -84.4 74.85 -82.3 72.3 -82.15 67.25 -81.65 64.4 -85.9 61.75 -89.95 63.5 -94.55 65.4 -99.55 70.95 -99.8 78.35 -100.45 82.35 -94.5 84.55 -91.25 84.7 -87.35 84.9 -81.0 80.05 -76.9 79.05 -76.05 77.85 -75.55 70.1 -72.65 62.95 -76.5 60.55 -77.75 58.9 -80.0 53.65 -87.4 56.3 -95.8 58.7 -103.4 66.0 -106.45 L68.55 -106.3 Q78.3 -105.9 87.2 -101.8 M49.3 -40.6 L49.95 -40.65 Q51.75 -42.7 52.8 -45.2 54.75 -49.75 58.45 -53.25 61.9 -56.55 66.3 -58.2 70.8 -59.9 75.7 -59.55 80.15 -59.45 84.0 -57.25 L84.25 -57.05 Q86.3 -55.5 87.8 -53.0 93.75 -43.2 90.4 -31.95 88.35 -25.1 82.6 -20.5 80.5 -18.8 77.95 -18.25 L76.2 -18.0 Q86.45 -22.3 89.35 -33.1 92.0 -42.95 85.8 -50.55 82.5 -54.55 77.45 -55.95 68.85 -58.2 61.45 -53.15 54.95 -48.8 54.4 -40.85 53.9 -33.55 59.35 -28.8 66.05 -22.95 74.7 -24.8 79.4 -25.7 82.1 -29.6 86.2 -35.75 83.9 -42.8 L82.85 -45.0 Q78.85 -50.9 71.8 -50.25 65.75 -49.6 62.75 -44.25 60.35 -39.9 62.45 -35.45 63.4 -33.4 65.5 -32.4 69.7 -30.65 74.25 -31.8 78.4 -32.65 80.0 -36.45 81.55 -40.15 78.8 -42.35 76.4 -44.25 73.35 -45.05 71.55 -45.55 70.0 -44.45 68.1 -43.2 67.05 -41.0 67.2 -36.9 71.6 -36.95 73.85 -36.95 74.8 -38.8 74.5 -40.05 73.55 -40.75 L72.65 -41.15 73.95 -39.25 Q72.6 -37.6 70.25 -38.2 69.25 -38.6 68.55 -39.55 L68.2 -40.2 Q71.25 -45.45 76.65 -42.6 79.8 -40.95 78.85 -37.65 78.3 -35.9 77.0 -34.6 L75.2 -32.55 Q70.1 -32.15 65.6 -34.65 64.65 -35.2 64.05 -36.15 61.95 -39.8 64.05 -43.5 68.05 -50.65 76.3 -49.0 80.25 -48.2 82.0 -44.55 84.25 -39.75 83.05 -34.5 82.0 -30.0 77.9 -27.65 73.0 -24.7 67.45 -26.3 59.8 -28.45 56.35 -35.55 55.05 -38.2 55.6 -41.25 57.55 -51.45 67.9 -54.5 73.15 -56.15 78.35 -54.4 L80.85 -53.2 Q85.4 -50.35 87.4 -45.5 89.45 -40.5 88.3 -34.95 86.3 -25.7 78.2 -20.8 71.25 -16.55 63.4 -19.2 51.05 -24.7 49.5 -38.35 L49.3 -40.6 M84.15 -10.2 Q92.95 -1.7 91.85 10.45 L91.65 11.9 Q91.0 16.65 88.25 21.15 86.25 24.3 84.75 25.7 L82.75 27.5 78.55 29.9 78.5 29.9 77.2 30.0 73.35 29.75 73.7 29.65 Q75.45 29.3 78.4 27.9 L80.7 26.7 Q82.5 25.55 84.1 24.0 L86.1 21.85 Q89.65 16.55 89.8 10.45 L89.6 6.65 Q88.8 0.2 84.5 -4.6 77.7 -12.05 67.65 -8.85 57.55 -5.5 56.2 5.0 55.85 7.7 56.15 10.45 56.65 15.6 59.6 20.25 60.75 22.05 62.7 23.05 68.95 26.3 75.45 23.8 80.45 22.0 82.5 16.8 83.7 13.8 84.1 10.45 84.45 7.4 84.0 4.1 83.65 1.5 81.85 -0.35 80.05 -2.2 77.7 -3.05 72.6 -4.95 68.05 -2.25 66.1 -1.1 65.0 0.75 63.15 3.75 62.0 6.7 61.25 8.5 61.35 10.45 61.45 11.85 61.85 13.1 62.4 14.55 63.65 15.15 68.4 17.55 73.25 16.35 74.7 16.15 75.7 15.1 77.8 13.1 78.25 10.45 78.5 8.95 78.25 7.3 77.55 3.1 73.25 2.6 69.1 2.05 66.9 5.45 65.05 8.25 67.85 10.0 L68.75 10.45 Q70.45 11.1 71.95 10.45 L73.5 9.35 73.2 7.5 70.85 6.8 70.7 7.85 71.2 7.75 72.65 8.95 67.9 9.5 67.55 9.2 Q67.5 5.1 71.55 4.2 74.1 3.5 75.95 5.5 77.0 6.6 77.05 7.85 77.15 9.25 76.9 10.45 76.25 13.4 73.1 14.9 71.2 15.75 69.3 15.45 65.75 14.7 62.75 12.75 L62.75 10.45 Q63.05 4.75 67.2 0.6 70.45 -2.65 75.05 -2.05 78.65 -1.65 80.3 1.5 81.3 3.4 81.75 5.6 82.25 8.0 82.1 10.45 81.8 14.35 79.8 17.9 77.55 21.9 73.0 22.95 67.3 24.35 62.75 20.8 58.4 17.3 57.75 11.95 L57.6 10.45 Q57.05 2.6 61.6 -3.4 63.4 -5.7 65.75 -6.8 71.1 -9.15 76.9 -7.7 81.5 -6.4 84.25 -2.4 88.4 3.7 88.1 10.45 88.05 13.1 87.2 15.85 86.15 19.6 83.7 22.65 79.3 26.6 74.4 27.95 L73.35 28.25 73.3 28.25 72.05 28.45 66.6 28.6 66.0 28.5 Q58.3 26.95 54.0 20.2 51.85 16.85 50.85 12.8 L51.4 9.5 Q54.1 -2.7 61.65 -7.7 69.9 -13.3 84.15 -10.2 M65.15 -13.95 Q68.35 -15.2 71.95 -15.1 L73.6 -15.0 65.15 -13.95" fill="#e0bd95" fill-rule="evenodd" stroke="none"/>
    <path d="M48.6 34.2 L45.25 35.3 36.15 36.0 Q0.4 38.7 -31.5 42.95 L-49.0 45.45 -49.0 23.7 Q16.2 17.75 36.15 17.25 L41.75 17.1 Q42.2 24.75 46.35 31.2 L48.6 34.2 M29.1 -148.7 L27.05 -132.3 -10.1 -142.65 -7.8 -171.95 29.1 -148.7 M-32.85 42.85 L-31.5 42.95 -32.85 42.85" fill="#b1905b" fill-rule="evenodd" stroke="none"/>
    <path d="M-49.0 -129.5 Q-28.35 -124.75 -7.9 -119.15 7.2 -115.05 22.15 -110.3 L46.9 -102.35 44.85 -98.8 Q16.0 -108.1 -13.3 -115.25 L-49.0 -123.5 -49.0 -129.5" fill="#572d00" fill-rule="evenodd" stroke="none"/>
    <path d="M-49.0 -121.75 Q-28.55 -117.5 -8.15 -112.35 12.05 -107.15 31.85 -101.1 L44.15 -97.2 43.1 -93.35 7.2 -103.7 Q-10.35 -108.65 -26.3 -112.85 L-42.6 -117.05 -49.0 -118.65 -49.0 -121.75 M42.65 -87.9 Q42.7 -84.65 43.5 -81.7 L41.8 -82.1 Q42.0 -85.5 42.65 -87.9" fill="#91714b" fill-rule="evenodd" stroke="none"/>
    <path d="M43.1 -93.35 L42.65 -87.9 Q42.0 -85.5 41.8 -82.1 21.45 -87.05 1.05 -91.4 L-39.85 -99.6 Q-39.15 -103.5 -40.65 -106.9 L-41.25 -107.4 -49.0 -109.6 -49.0 -118.65 -42.6 -117.05 -26.3 -112.85 Q-10.35 -108.65 7.2 -103.7 L43.1 -93.35 M47.0 -6.4 Q42.7 0.65 42.65 8.9 L42.65 10.35 -11.45 12.25 -31.55 13.55 -49.0 15.3 -49.0 -5.35 -4.8 -7.35 21.7 -7.35 47.0 -6.4" fill="#af8f69" fill-rule="evenodd" stroke="none"/>
    <path d="M47.7 -91.2 Q47.35 -87.15 48.3 -83.15 L48.5 -82.25 45.0 -82.45 44.7 -83.85 Q44.0 -87.5 44.45 -91.15 L47.7 -91.2 M47.65 -39.25 L48.4 -34.05 45.1 -34.05 Q44.4 -36.75 44.3 -39.7 L47.65 -39.8 47.65 -39.25 M47.65 8.7 L47.65 10.4 Q47.7 14.45 49.0 18.35 L49.45 19.65 46.65 19.65 Q44.7 15.15 44.4 10.4 L44.3 8.75 44.3 8.65 47.65 8.7" fill="#835d31" fill-rule="evenodd" stroke="none"/>
    <path d="M51.65 -59.7 L48.25 -56.35 7.2 -60.25 -35.0 -62.55 -41.6 -62.95 -49.0 -63.85 -49.0 -94.65 -40.05 -93.1 -36.65 -92.5 Q2.8 -86.75 41.7 -78.45 L41.8 -76.65 Q42.4 -65.7 51.65 -59.7" fill="#b89460" fill-rule="evenodd" stroke="none"/>
    <path d="M-39.95 -97.85 Q-16.35 -93.5 7.2 -88.4 L44.0 -80.0 Q46.4 -73.0 52.2 -68.35 56.65 -64.75 62.2 -63.85 L59.05 -63.6 Q54.95 -62.4 51.65 -59.7 42.4 -65.7 41.8 -76.65 L41.7 -78.45 Q2.8 -86.75 -36.65 -92.5 L-40.05 -93.1 -49.0 -94.65 -49.0 -95.0 -40.05 -93.1 -39.95 -97.85" fill="#9a7642" fill-rule="evenodd" stroke="none"/>
    <path d="M48.5 -82.25 Q52.25 -70.15 64.05 -65.4 L61.4 -66.05 Q48.7 -69.65 45.0 -82.45 L48.5 -82.25 M48.4 -34.05 Q50.95 -24.55 59.05 -19.05 L60.9 -17.95 Q51.05 -20.95 46.6 -30.3 45.7 -32.15 45.1 -34.05 L48.4 -34.05 M49.45 19.65 Q51.95 26.05 57.4 30.15 L55.6 29.25 Q49.7 25.8 46.65 19.65 L49.45 19.65" fill="#624921" fill-rule="evenodd" stroke="none"/>
    <path d="M48.25 -56.35 L48.05 -56.1 Q44.65 -52.0 43.4 -46.8 L42.5 -44.9 Q40.65 -39.55 41.35 -33.75 L-31.6 -38.35 -49.0 -38.9 -49.0 -44.35 -30.5 -44.7 -30.35 -44.95 Q-28.75 -49.9 -29.8 -55.5 L-30.55 -55.85 -42.25 -57.85 -42.2 -58.25 -41.6 -62.95 -49.0 -63.35 -49.0 -63.85 -41.6 -62.95 -35.0 -62.55 7.2 -60.25 48.25 -56.35" fill="#a98551" fill-rule="evenodd" stroke="none"/>
    <path d="M49.3 -40.6 Q49.7 -44.9 51.4 -48.95 53.2 -53.4 56.75 -56.8 60.25 -60.25 64.8 -61.85 66.8 -62.6 68.95 -62.5 73.1 -63.05 77.0 -61.5 80.85 -60.0 84.0 -57.25 80.15 -59.45 75.7 -59.55 70.8 -59.9 66.3 -58.2 61.9 -56.55 58.45 -53.25 54.75 -49.75 52.8 -45.2 51.75 -42.7 49.95 -40.65 L49.3 -40.6" fill="#fedbb3" fill-rule="evenodd" stroke="none"/>
    <path d="M43.4 -46.8 Q41.95 -40.25 43.5 -33.6 L41.35 -33.75 Q40.65 -39.55 42.5 -44.9 L43.4 -46.8" fill="#8b6733" fill-rule="evenodd" stroke="none"/>
    <path d="M142.05 35.65 L141.95 35.65 142.0 35.6 142.05 35.65" fill="#dfffff" fill-rule="evenodd" stroke="none"/>
    <path d="M90.5 77.2 L92.05 77.85 90.2 77.3 90.5 77.2 M90.6 75.75 Q90.1 75.55 89.6 75.3 L91.1 75.55 90.6 75.75" fill="#f8dd90" fill-rule="evenodd" stroke="none"/>
    <path d="M78.5 29.9 Q74.7 31.9 69.15 31.9 L63.75 30.95 60.85 30.25 Q50.85 24.05 49.55 12.15 L49.4 10.45 49.45 10.5 49.75 12.1 Q52.45 24.75 63.6 29.3 65.6 30.15 69.45 30.15 L73.35 29.75 77.2 30.0 78.5 29.9 M49.4 10.5 L49.45 10.5 49.4 10.5" fill="#b39869" fill-rule="evenodd" stroke="none"/>
    <path d="M45.25 35.3 Q40.7 36.2 39.85 40.7 39.15 44.45 39.45 48.35 L36.15 48.75 Q2.35 52.9 -31.5 58.8 L-49.0 61.7 -49.0 45.45 -31.5 42.95 Q0.4 38.7 36.15 36.0 L45.25 35.3" fill="#a2814c" fill-rule="evenodd" stroke="none"/>
    <path d="M42.85 66.9 L43.85 80.2 36.15 79.5 Q24.25 79.1 12.7 83.0 0.5 87.15 -10.4 93.95 -20.15 100.05 -31.45 101.8 L-49.0 106.4 -49.0 83.2 -31.45 78.7 -30.8 78.55 Q-10.85 74.15 9.6 71.0 L36.15 67.6 42.85 66.9" fill="#b39068" fill-rule="evenodd" stroke="none"/>
    <path d="M-42.25 -57.85 L-30.55 -55.85 -29.8 -55.5 Q-28.75 -49.9 -30.35 -44.95 L-30.5 -44.7 -49.0 -44.35 -49.0 -63.35 -41.6 -62.95 -42.2 -58.25 -44.25 -58.25 -44.3 -58.1 -42.25 -57.85" fill="#a98551" fill-rule="evenodd" stroke="none"/>
    <path d="M-39.85 -99.6 L-49.0 -101.35 -49.0 -109.6 -41.25 -107.4 -40.65 -106.9 Q-39.15 -103.5 -39.85 -99.6" fill="#af8f69" fill-rule="evenodd" stroke="none"/>
    <path d="M-49.0 -99.7 L-39.95 -97.85 -40.05 -93.1 -49.0 -95.0 -49.0 -99.7" fill="#9a7642" fill-rule="evenodd" stroke="none"/>
  </g>
</svg>
