<?xml version="1.0" encoding="UTF-8" standalone="no"?>
<svg xmlns:xlink="http://www.w3.org/1999/xlink" height="23.95px" width="98.4px" xmlns="http://www.w3.org/2000/svg">
  <g transform="matrix(1.0, 0.0, 0.0, 1.0, -29.5, 2.0)">
    <path d="M90.3 13.6 Q88.3 13.05 86.2 13.05 L72.7 12.85 68.1 13.35 Q66.65 15.05 64.55 14.9 62.45 14.85 60.6 13.7 L58.9 13.35 59.15 13.45 35.2 11.75 Q31.5 11.6 30.25 8.6 31.5 3.2 37.7 5.6 40.6 6.75 43.75 7.5 49.7 8.8 58.0 9.1 L59.35 8.7 60.8 8.25 Q63.75 7.05 65.4 8.2 67.05 9.35 72.9 9.15 L83.4 8.9 90.35 8.65 90.5 8.6 90.3 13.6" fill="#ff3333" fill-rule="evenodd" stroke="none"/>
    <path d="M90.3 13.6 Q88.3 13.05 86.2 13.05 L72.7 12.85 68.1 13.35 Q66.65 15.05 64.55 14.9 62.45 14.85 60.6 13.7 L58.9 13.35 59.15 13.45 35.2 11.75 Q31.5 11.6 30.25 8.6 31.5 3.2 37.7 5.6 40.6 6.75 43.75 7.5 49.7 8.8 58.0 9.1 L59.35 8.7 60.8 8.25 Q63.75 7.05 65.4 8.2 67.05 9.35 72.9 9.15 L83.4 8.9 90.35 8.65 90.5 8.6" fill="none" stroke="#000000" stroke-linecap="round" stroke-linejoin="round" stroke-width="1.5"/>
    <path d="M88.1 14.75 L86.65 14.4 86.35 14.3 86.25 14.05 86.2 14.05 Q85.2 11.75 86.05 9.3 88.25 2.7 94.7 0.0 95.9 -0.5 97.15 -0.6 L103.6 -1.25 Q110.4 -1.5 116.6 1.35 120.1 3.0 122.6 6.05 125.4 9.4 127.15 13.4 126.75 14.9 125.2 14.1 L122.65 13.0 121.15 12.45 120.55 13.25 Q119.8 14.5 118.65 14.7 L118.25 14.7 Q117.85 14.7 117.75 14.3 117.4 13.95 116.95 13.75 L113.95 12.05 112.15 14.1 Q110.9 15.3 109.45 13.75 L108.2 12.8 107.65 12.6 Q107.15 12.95 106.85 13.45 105.9 14.9 104.55 14.85 104.15 14.8 104.1 14.4 L103.65 14.05 103.0 13.6 101.95 13.0 Q101.2 14.15 100.2 14.3 L97.8 14.55 96.95 14.15 95.3 12.6 Q93.15 14.7 89.95 14.8 L88.5 14.75 88.35 14.75 88.1 14.75" fill="#cc3333" fill-rule="evenodd" stroke="none"/>
    <path d="M122.65 13.0 L122.1 13.65 120.1 15.7 Q117.5 18.3 114.0 19.35 107.65 21.3 101.1 21.2 94.0 21.1 89.15 16.15 L88.1 14.75 88.35 14.75 88.5 14.75 89.95 14.8 Q93.15 14.7 95.3 12.6 L96.95 14.15 97.8 14.55 100.2 14.3 Q101.2 14.15 101.95 13.0 L103.0 13.6 103.65 14.05 104.1 14.4 Q104.15 14.8 104.55 14.85 105.9 14.9 106.85 13.45 107.15 12.95 107.65 12.6 L108.2 12.8 109.45 13.75 Q110.9 15.3 112.15 14.1 L113.95 12.05 116.95 13.75 Q117.4 13.95 117.75 14.3 117.85 14.7 118.25 14.7 L118.65 14.7 Q119.8 14.5 120.55 13.25 L121.15 12.45 122.65 13.0" fill="#ff3333" fill-rule="evenodd" stroke="none"/>
    <path d="M88.1 14.75 L86.65 14.4 86.35 14.3 86.25 14.05 86.2 14.05 Q85.2 11.75 86.05 9.3 88.25 2.7 94.7 0.0 95.9 -0.5 97.15 -0.6 L103.6 -1.25 Q110.4 -1.5 116.6 1.35 120.1 3.0 122.6 6.05 125.4 9.4 127.15 13.4 126.75 14.9 125.2 14.1 L122.65 13.0 122.1 13.65 120.1 15.7 Q117.5 18.3 114.0 19.35 107.65 21.3 101.1 21.2 94.0 21.1 89.15 16.15 L88.1 14.75 88.35 14.75 88.5 14.75 89.95 14.8 Q93.15 14.7 95.3 12.6 L96.95 14.15 97.8 14.55 100.2 14.3 Q101.2 14.15 101.95 13.0 L103.0 13.6 103.65 14.05 104.1 14.4 Q104.15 14.8 104.55 14.85 105.9 14.9 106.85 13.45 107.15 12.95 107.65 12.6 L108.2 12.8 109.45 13.75 Q110.9 15.3 112.15 14.1 L113.95 12.05 116.95 13.75 Q117.4 13.95 117.75 14.3 117.85 14.7 118.25 14.7 L118.65 14.7 Q119.8 14.5 120.55 13.25 L121.15 12.45 122.65 13.0" fill="none" stroke="#000000" stroke-linecap="round" stroke-linejoin="round" stroke-width="1.5"/>
  </g>
</svg>
