<?xml version="1.0" encoding="UTF-8" standalone="no"?>
<svg xmlns:xlink="http://www.w3.org/1999/xlink" height="129.75px" width="119.95px" xmlns="http://www.w3.org/2000/svg">
  <g transform="matrix(1.0, 0.0, 0.0, 1.0, 56.05, 67.65)">
    <path d="M49.8 -56.55 L49.9 -56.0 49.9 -55.3 Q53.35 -47.45 55.8 -39.55 58.45 -39.3 59.6 -38.25 60.45 -37.45 60.5 -36.25 L60.7 -36.25 63.05 -22.3 63.05 -21.75 Q63.05 -19.15 60.65 -16.75 L61.0 -13.3 Q61.95 -2.75 60.8 7.8 L62.8 9.35 63.4 10.55 63.8 11.75 63.8 11.85 63.9 11.85 63.9 14.4 59.3 28.75 59.25 28.95 Q58.45 30.75 56.45 32.5 L54.7 38.05 Q52.55 44.3 49.85 50.55 L49.85 50.75 49.2 52.25 Q47.7 54.65 42.6 56.65 L36.45 58.6 30.95 59.85 Q19.25 62.1 4.0 62.1 -15.0 62.1 -28.45 58.6 -32.15 57.65 -34.8 56.55 -38.15 55.25 -39.9 53.75 L-41.45 51.9 -41.85 50.75 -41.9 50.55 -41.85 50.55 -42.75 48.4 Q-45.3 42.55 -47.15 36.7 L-48.5 32.3 Q-50.65 30.4 -51.3 28.35 L-56.05 11.85 -56.05 11.75 Q-55.6 10.75 -54.55 9.7 -53.75 8.85 -52.8 8.4 -54.0 -2.65 -53.0 -13.6 L-52.7 -16.85 Q-55.05 -19.15 -55.05 -21.75 L-55.0 -22.3 -52.6 -36.25 -52.35 -36.25 Q-52.05 -37.3 -51.0 -38.25 L-50.0 -39.0 Q-48.9 -39.7 -47.65 -40.1 -45.3 -47.7 -41.9 -55.3 L-41.95 -55.7 -41.85 -56.35 -41.8 -56.55 Q-40.75 -61.0 -28.45 -64.15 -15.0 -67.65 4.0 -67.65 23.0 -67.65 36.45 -64.15 48.75 -60.95 49.8 -56.55 M44.25 -51.6 Q47.05 -53.2 47.55 -54.95 L47.65 -55.7 47.65 -55.8 Q47.55 -58.55 42.35 -60.75 39.45 -62.05 34.85 -63.1 L28.2 -64.45 17.65 -65.7 12.2 -66.05 12.1 -66.05 -2.55 -66.05 -8.3 -65.55 -11.55 -65.25 -18.45 -64.7 -26.9 -63.1 -32.35 -61.5 -34.95 -60.5 Q-39.7 -58.35 -39.65 -55.7 -39.7 -54.25 -38.25 -53.0 L-37.75 -52.55 -36.5 -51.65 -36.4 -51.6 Q-34.8 -50.75 -32.5 -49.95 L-28.05 -48.6 -26.9 -48.3 -25.9 -48.1 Q-21.2 -47.05 -15.85 -46.35 L-13.8 -46.15 -6.2 -45.55 -5.6 -45.5 1.8 -45.25 3.3 -45.25 4.0 -45.25 14.45 -45.55 19.2 -45.9 19.85 -45.95 28.65 -47.05 33.35 -48.0 40.4 -49.9 41.55 -50.3 43.55 -51.25 44.25 -51.6 M39.1 -60.1 Q44.25 -58.15 44.25 -55.75 44.25 -54.7 43.35 -53.75 L41.4 -52.35 41.3 -52.35 40.9 -52.1 Q38.35 -50.85 33.9 -49.75 L32.45 -49.45 30.15 -49.0 28.15 -48.65 19.6 -47.55 19.05 -47.5 13.15 -47.1 3.95 -46.85 -4.25 -47.05 -22.7 -49.05 -24.55 -49.45 -25.95 -49.75 -27.65 -50.2 -31.5 -51.45 -35.15 -53.45 -35.4 -53.75 -35.55 -53.9 -36.3 -55.2 -36.4 -55.75 Q-36.4 -57.25 -34.35 -58.6 L-33.05 -59.35 -31.8 -59.9 -30.9 -60.25 -28.85 -60.9 -27.05 -61.4 -24.55 -62.0 -14.95 -63.55 -1.25 -64.5 10.75 -64.45 24.6 -63.35 32.45 -62.0 34.05 -61.6 39.1 -60.1 M38.35 -56.35 L40.55 -55.55 41.4 -55.1 41.5 -55.7 41.5 -55.75 40.8 -57.2 38.35 -58.7 34.0 -60.1 30.5 -60.9 24.6 -61.8 10.6 -62.9 -1.35 -62.9 -14.95 -62.05 -22.55 -60.9 -24.1 -60.55 -25.75 -60.2 -28.5 -59.4 -31.3 -58.25 Q-33.6 -57.1 -33.55 -55.7 L-33.45 -55.15 -31.3 -56.1 Q-28.65 -57.15 -24.55 -58.0 L-24.45 -58.0 -14.95 -59.55 -1.35 -60.5 10.6 -60.5 10.75 -60.5 24.6 -59.35 32.45 -58.0 32.7 -57.95 38.35 -56.35 M46.35 -51.1 L44.4 -50.0 44.4 -49.95 43.15 -49.4 42.6 -49.15 38.8 -47.85 37.85 -47.6 35.65 -47.0 31.65 -46.05 29.7 -45.65 29.7 -45.7 28.6 -45.5 21.0 -44.45 20.0 -44.4 15.45 -44.05 8.8 -43.75 -6.15 -43.95 -11.2 -44.3 -15.45 -44.75 -15.5 -44.75 -21.45 -45.65 -23.55 -46.05 -27.75 -47.0 -29.75 -47.5 -29.95 -47.6 -31.6 -48.05 -34.8 -49.2 -37.1 -50.25 -38.45 -51.1 -39.9 -52.15 -40.45 -52.6 -40.75 -53.4 Q-43.45 -47.05 -45.45 -40.6 L-46.95 -35.25 Q-46.75 -33.8 -45.25 -32.45 L-45.1 -32.35 -43.75 -31.4 -41.75 -30.3 -41.75 -30.35 -39.5 -29.4 -38.25 -28.95 -38.15 -28.95 -35.65 -28.15 -32.3 -27.25 -32.05 -27.25 -31.05 -27.0 -26.7 -26.1 -24.45 -25.75 -18.85 -24.95 -17.15 -24.75 -13.45 -24.4 -7.85 -24.05 -2.8 -23.85 -0.75 -23.75 5.5 -23.7 17.25 -24.1 27.5 -25.05 29.55 -25.3 34.5 -26.05 34.65 -26.1 39.65 -27.15 43.85 -28.2 45.75 -28.8 47.95 -29.55 50.5 -30.65 50.5 -30.7 51.65 -31.3 Q54.7 -33.2 55.0 -35.35 L54.2 -38.25 54.15 -38.3 53.75 -39.7 Q51.7 -46.35 48.95 -53.0 L48.75 -52.8 46.35 -51.1 M-27.7 -51.8 L-19.55 -50.0 -13.2 -49.2 -2.95 -48.55 2.0 -48.45 3.85 -48.45 4.0 -48.45 7.4 -48.45 26.55 -49.85 30.7 -50.6 30.95 -50.65 33.35 -51.15 Q38.2 -52.35 40.2 -53.7 L38.85 -54.5 37.75 -54.95 36.25 -55.45 26.15 -57.6 24.6 -57.85 4.0 -59.0 3.9 -59.0 -14.95 -58.05 -27.15 -55.8 Q-30.65 -54.85 -32.25 -53.7 -31.05 -52.85 -28.65 -52.05 L-27.7 -51.8 M1.45 -22.1 L-7.95 -22.45 -16.1 -23.05 -16.65 -23.1 -30.95 -25.4 -31.25 -25.5 -33.45 -26.05 Q-37.75 -27.15 -40.85 -28.4 L-43.6 -29.6 -45.45 -30.65 -45.65 -30.75 Q-46.9 -31.65 -47.65 -32.5 -48.95 -33.95 -49.05 -35.5 L-49.0 -36.25 -48.8 -36.25 -48.2 -38.35 -48.45 -38.25 -48.65 -38.1 -50.6 -36.3 -50.7 -35.95 -50.7 -35.75 Q-50.7 -34.25 -49.7 -32.8 L-48.05 -30.95 -45.7 -29.35 -43.85 -28.35 -41.75 -27.45 Q-38.75 -26.2 -34.65 -25.05 L-31.4 -24.25 -31.15 -24.2 Q-24.3 -22.55 -16.35 -21.65 L-16.3 -21.65 -8.05 -21.0 4.0 -20.65 17.45 -21.1 21.35 -21.4 22.2 -21.45 33.25 -22.95 42.7 -25.05 47.3 -26.5 49.7 -27.4 54.5 -29.8 56.05 -31.0 57.7 -32.75 Q58.7 -34.2 58.75 -35.75 L58.7 -36.25 58.95 -36.25 58.45 -36.85 57.6 -37.65 56.25 -38.15 56.8 -36.25 57.05 -36.25 57.05 -35.3 Q56.85 -33.85 55.7 -32.55 54.45 -31.1 51.95 -29.8 L48.65 -28.3 47.1 -27.7 41.5 -26.05 33.1 -24.3 22.2 -22.85 21.25 -22.8 17.3 -22.5 4.0 -22.1 1.45 -22.1 M18.15 -5.2 L-2.5 -4.8 -2.75 -4.85 -2.75 -4.8 -8.7 -5.1 -19.0 -6.05 Q-26.2 -6.9 -32.5 -8.4 L-32.7 -8.45 -32.75 -8.45 -44.1 -11.8 -47.8 -13.5 -48.45 -13.85 -50.6 -15.15 -50.65 -15.15 -50.85 -12.8 Q-51.65 -2.55 -50.8 7.8 L-50.45 11.05 -50.45 11.85 -50.25 12.45 Q-50.2 14.3 -47.95 16.0 L-47.55 16.25 -45.2 17.55 -41.9 18.85 -40.2 19.4 -39.5 19.6 -36.6 20.35 -32.6 21.25 -30.45 21.65 -28.35 22.05 -25.9 22.45 -24.0 22.7 -14.65 23.7 -11.35 23.9 -11.1 23.95 -8.65 24.05 -1.65 24.3 -0.8 24.35 5.35 24.4 7.15 24.35 8.8 24.35 18.1 24.0 19.3 23.9 21.4 23.8 23.0 23.65 23.2 23.65 24.95 23.5 26.9 23.25 26.9 23.3 28.15 23.15 28.15 23.1 33.1 22.55 34.45 22.35 34.95 22.25 36.9 21.95 41.55 21.05 46.55 19.85 46.75 19.75 47.6 19.55 47.75 19.5 49.9 18.85 54.1 17.1 Q58.15 14.9 58.25 12.45 L58.4 11.85 58.4 11.55 58.85 7.45 Q59.65 -2.5 58.95 -12.25 L58.7 -15.15 58.5 -15.05 Q56.75 -13.9 54.3 -12.8 L53.3 -12.35 53.3 -12.3 53.25 -12.3 53.15 -12.25 53.15 -12.3 52.55 -12.0 41.7 -8.65 37.65 -7.75 37.35 -7.65 34.2 -7.05 18.15 -5.2 M38.3 -22.15 L33.4 -21.1 22.25 -19.55 21.45 -19.45 17.5 -19.15 4.0 -18.7 -8.15 -19.05 Q-20.95 -19.9 -31.35 -22.45 L-31.6 -22.5 -36.0 -23.7 Q-40.25 -24.95 -43.35 -26.3 L-45.65 -27.45 -45.75 -27.5 -48.35 -29.1 -48.45 -29.15 -50.25 -30.65 -51.4 -32.0 -53.0 -22.3 -53.0 -21.8 Q-53.0 -20.55 -52.35 -19.4 -51.7 -18.25 -50.45 -17.15 L-48.85 -16.0 -47.65 -15.25 -43.7 -13.45 Q-40.55 -12.2 -36.3 -11.1 L-32.6 -10.2 -32.4 -10.15 Q-24.8 -8.45 -15.85 -7.6 L-13.6 -7.4 -8.65 -7.05 4.0 -6.65 18.05 -7.1 Q26.65 -7.65 34.1 -8.95 L38.35 -9.75 38.45 -9.75 39.55 -10.0 49.15 -12.55 54.15 -14.55 56.65 -15.85 58.45 -17.15 59.05 -17.7 59.05 -17.65 60.35 -19.35 Q61.0 -20.55 61.0 -21.8 L61.0 -22.3 59.45 -31.95 58.25 -30.6 57.75 -30.15 56.5 -29.15 56.3 -29.05 52.5 -26.85 48.55 -25.2 38.55 -22.2 38.3 -22.15 M62.15 13.0 L62.2 11.65 Q62.2 10.55 60.65 9.45 L60.35 12.95 Q60.05 14.9 57.65 16.7 56.2 17.8 53.9 18.8 L51.5 19.8 50.9 20.0 47.4 21.1 43.85 22.05 34.4 23.9 18.05 25.6 4.0 26.0 -0.15 26.0 -1.35 25.95 -8.6 25.7 -21.05 24.6 -35.9 22.05 Q-40.4 20.95 -43.7 19.7 L-47.35 18.15 -49.65 16.7 Q-52.15 14.9 -52.4 12.85 L-52.4 11.9 -52.6 9.95 -53.45 10.55 -54.15 11.95 -54.2 12.35 -53.85 13.95 -53.75 14.25 -52.0 16.55 -49.8 18.25 -44.65 20.65 -44.55 20.7 -37.15 23.05 -29.9 24.6 -28.05 24.95 Q-19.1 26.5 -8.55 27.15 L18.0 27.0 34.35 25.25 45.15 23.05 47.2 22.5 50.75 21.35 52.6 20.7 Q53.2 20.5 53.75 20.25 L57.4 18.5 60.0 16.6 61.55 14.7 61.85 14.05 62.15 13.0 M58.25 19.9 L57.0 20.6 46.85 24.35 46.75 24.4 46.6 24.4 38.05 26.45 38.0 26.45 34.3 27.15 17.9 28.95 -8.45 29.05 Q-19.25 28.45 -28.4 26.75 L-31.05 26.25 -31.5 26.15 -32.25 26.0 -45.0 22.35 -45.0 22.3 -46.3 21.85 -46.3 21.8 -46.4 21.8 -49.0 20.6 -52.2 18.65 -48.6 29.8 -45.65 32.4 -45.05 32.75 -43.05 33.85 -43.0 33.9 -40.9 34.85 -39.85 35.3 -35.65 36.7 -33.95 37.2 -31.0 37.95 -29.5 38.3 -27.8 38.7 Q-18.75 40.55 -7.85 41.25 L4.05 41.65 17.25 41.2 17.9 41.15 19.15 41.05 33.45 39.2 36.45 38.6 45.3 36.2 51.6 33.65 54.3 32.0 54.5 31.85 Q56.85 30.1 57.5 28.15 L60.45 18.55 59.65 19.05 59.55 19.1 58.25 19.9 M46.75 52.25 L47.05 51.9 47.55 50.75 Q50.1 44.9 52.1 39.05 L53.55 34.45 51.15 35.7 49.15 36.55 39.35 39.7 38.65 39.9 38.65 39.85 37.65 40.15 20.2 42.9 20.2 42.85 17.65 43.1 17.55 43.1 17.05 43.15 -1.2 43.5 -7.7 43.25 -13.8 42.7 -27.25 40.65 -27.9 40.5 -30.75 39.85 -31.0 39.8 -31.2 39.7 -32.2 39.45 -42.5 35.95 -44.6 34.9 -45.6 34.35 -44.6 37.45 -42.6 43.2 -41.6 45.8 -41.2 46.8 -41.2 46.9 -40.15 49.5 -40.1 49.6 -39.35 51.45 -39.05 51.9 Q-38.25 53.1 -36.4 54.15 L-31.65 56.15 -27.8 57.25 -26.9 57.5 Q-21.35 58.8 -14.8 59.55 L-13.75 59.65 -13.4 59.7 -12.95 59.75 -12.35 59.8 -6.25 60.25 -1.55 60.4 -1.55 60.45 0.25 60.45 8.1 60.45 15.55 60.2 19.7 59.85 20.5 59.8 28.3 58.8 31.35 58.25 31.2 58.25 33.65 57.75 35.8 57.25 38.2 56.6 40.2 55.95 40.4 55.9 40.45 55.9 44.25 54.2 44.35 54.15 46.2 52.85 46.75 52.25 46.35 53.55 46.75 52.25 M-39.7 53.15 L-42.6 43.2 -39.7 53.15" fill="#000000" fill-rule="evenodd" stroke="none"/>
    <path d="M42.35 -60.75 Q47.55 -58.55 47.65 -55.8 L47.65 -55.7 47.55 -54.95 Q47.05 -53.2 44.25 -51.6 L41.3 -52.35 41.4 -52.35 43.35 -53.75 Q44.25 -54.7 44.25 -55.75 44.25 -58.15 39.1 -60.1 L42.35 -60.75 M-18.45 -64.7 L-11.55 -65.25 -8.3 -65.55 -2.55 -66.05 -1.25 -64.5 -14.95 -63.55 -18.45 -64.7 M38.35 -58.7 L40.8 -57.2 41.5 -55.75 41.5 -55.7 41.4 -55.1 40.55 -55.55 38.35 -56.35 38.35 -58.7" fill="#b3773c" fill-rule="evenodd" stroke="none"/>
    <path d="M-1.35 -60.5 L-14.95 -59.55 -14.95 -62.05 -1.35 -62.9 -1.35 -60.5 M-31.3 -56.1 L-33.45 -55.15 -33.55 -55.7 Q-33.6 -57.1 -31.3 -58.25 L-31.3 -56.1 M43.15 -49.4 L44.4 -49.95 44.4 -50.0 46.35 -51.1 46.4 -51.0 Q48.5 -44.65 50.1 -38.25 L51.65 -31.3 50.5 -30.7 50.5 -30.65 47.95 -29.55 47.85 -30.2 Q46.9 -35.6 45.45 -41.3 L43.15 -49.4 M45.75 -28.8 L43.85 -28.2 42.8 -38.55 Q42.8 -39.4 43.6 -39.4 44.6 -39.4 45.75 -28.8 M39.65 -27.15 L34.65 -26.1 34.5 -26.05 34.4 -28.5 31.65 -46.05 35.65 -47.0 37.5 -38.95 37.5 -38.9 39.65 -27.15 M37.85 -47.6 L38.8 -47.85 39.8 -44.3 Q40.9 -39.5 41.7 -32.2 L41.2 -31.8 Q39.9 -34.7 39.5 -40.85 L37.85 -47.6 M-27.15 -55.8 L-14.95 -58.05 3.9 -59.0 4.0 -59.0 24.6 -57.85 26.15 -57.6 36.25 -55.45 37.75 -54.95 38.85 -54.5 40.2 -53.7 Q38.2 -52.35 33.35 -51.15 L30.95 -50.65 30.7 -50.6 26.55 -49.85 7.4 -48.45 4.0 -48.45 3.85 -48.45 2.0 -48.45 -2.95 -48.55 -13.2 -49.2 -19.55 -50.0 -27.7 -51.8 -27.85 -52.2 -28.05 -53.55 Q-28.05 -54.35 -27.15 -55.8 M3.9 -59.0 L-27.85 -52.2 3.9 -59.0 M33.5 -54.0 L32.95 -53.9 33.3 -53.95 33.5 -54.0 37.75 -54.95 33.5 -54.0 M7.4 -48.45 L32.95 -53.9 7.4 -48.45 M34.3 -5.4 L34.2 -7.05 37.35 -7.65 37.65 -7.75 41.7 -8.65 52.55 -12.0 53.15 -12.3 53.15 -12.25 53.25 -12.3 53.3 -12.3 53.3 -12.35 54.3 -12.8 54.8 -5.4 Q55.05 1.3 54.75 8.05 L54.1 17.1 49.9 18.85 50.35 -4.5 47.55 -3.9 48.25 11.35 47.75 19.5 47.6 19.55 46.75 19.75 46.55 19.85 46.65 17.85 Q46.85 14.45 46.65 9.8 L46.0 -3.55 42.0 -2.7 42.0 -1.85 Q42.4 9.55 41.55 21.05 L36.9 21.95 36.75 11.2 35.8 22.1 34.95 22.25 34.45 22.35 34.5 6.1 34.4 -0.5 34.3 -5.4 M41.75 -7.65 L42.0 -2.7 41.75 -7.65 M41.75 -7.9 L41.7 -8.65 41.75 -7.9 M17.65 43.1 L20.2 42.85 20.2 42.9 37.65 40.15 38.65 39.85 38.65 39.9 39.35 39.7 49.15 36.55 51.15 35.7 53.55 34.45 52.1 39.05 Q50.1 44.9 47.55 50.75 L47.05 51.9 46.75 52.25 46.2 52.85 44.35 54.15 Q45.8 47.75 46.55 42.55 L42.7 43.8 40.2 55.95 38.2 56.6 38.6 55.1 40.35 46.85 40.6 44.45 38.4 45.1 35.8 57.25 33.65 57.75 33.85 56.1 34.1 54.1 34.9 46.05 34.85 46.05 32.85 46.35 32.25 50.5 32.9 44.25 Q25.9 45.75 18.85 46.35 L16.85 46.5 Q8.95 47.05 1.15 46.6 L-1.15 46.45 -1.35 46.4 -7.5 45.8 -7.7 43.25 -1.2 43.5 17.05 43.15 17.05 43.2 17.25 43.15 17.55 43.15 17.65 43.1 M51.15 35.7 L49.8 41.6 46.75 52.25 49.8 41.6 51.15 35.7 M-47.8 -13.5 L-44.1 -11.8 -32.75 -8.45 -32.7 -8.45 -32.8 -7.1 -33.45 -7.25 Q-38.9 -8.75 -44.75 -10.7 L-47.9 -11.8 -47.8 -13.5 M17.05 43.2 L16.85 46.5 17.05 43.2 M39.35 39.7 L38.4 45.1 39.35 39.7 M18.25 54.7 L20.55 54.3 20.65 58.4 20.5 59.8 19.7 59.85 18.9 59.9 Q18.4 58.7 18.35 57.95 L18.3 57.75 18.25 54.7 M29.3 52.5 L32.1 51.75 31.2 58.25 31.35 58.25 28.3 58.8 29.3 52.5 M16.05 54.95 L15.55 60.2 8.1 60.45 8.0 55.6 16.05 54.95 M0.1 55.6 L0.25 60.45 -1.55 60.45 -1.55 60.4 -1.75 55.5 0.1 55.6 M-30.75 39.85 L-30.5 41.55 -44.0 37.65 -44.6 37.45 -45.6 34.35 -44.6 34.9 -42.5 35.95 -32.2 39.45 -31.2 39.7 -31.0 39.8 -30.75 39.85 M-40.15 49.5 L-34.75 51.2 -30.6 52.25 -28.65 52.7 -27.8 57.25 -31.65 56.15 -36.4 54.15 Q-38.25 53.1 -39.05 51.9 L-39.35 51.45 -40.1 49.6 -40.15 49.5 M-44.6 34.9 L-44.0 37.65 -44.6 34.9 M-13.2 -49.2 L26.15 -57.6 -13.2 -49.2" fill="#84572f" fill-rule="evenodd" stroke="none"/>
    <path d="M41.3 -52.35 L44.25 -51.6 43.55 -51.25 41.55 -50.3 40.4 -49.9 33.35 -48.0 30.15 -49.0 32.45 -49.45 33.9 -49.75 Q38.35 -50.85 40.9 -52.1 L41.3 -52.35 M-25.9 -48.1 L-26.9 -48.3 -28.05 -48.6 -32.5 -49.95 Q-34.8 -50.75 -36.4 -51.6 L-36.5 -51.65 -37.75 -52.55 -38.25 -53.0 -35.15 -53.45 -31.5 -51.45 -27.65 -50.2 -25.95 -49.75 -24.55 -49.45 -22.7 -49.05 -25.9 -48.1 M12.1 -66.05 L12.2 -66.05 17.65 -65.7 28.2 -64.45 24.6 -63.35 10.75 -64.45 12.1 -66.05 M-35.65 -28.15 L-38.15 -28.95 -37.2 -33.4 Q-37.2 -34.2 -37.4 -33.75 -38.65 -32.5 -39.5 -29.4 L-41.75 -30.35 -40.65 -37.65 -37.95 -47.85 -37.95 -48.05 -38.5 -48.45 Q-40.15 -46.5 -41.3 -42.85 -42.3 -38.6 -42.85 -36.85 L-43.75 -31.4 -45.1 -32.35 -43.8 -38.25 Q-42.15 -45.2 -39.9 -52.15 L-38.45 -51.1 -37.1 -50.25 -34.8 -49.2 -31.6 -48.05 Q-33.8 -42.45 -35.65 -28.15 M-36.6 20.35 L-39.5 19.6 -40.15 -5.25 -37.05 -4.3 -37.2 5.2 -36.6 20.35 M-40.2 19.4 L-41.9 18.85 -45.2 17.55 -47.55 16.25 Q-48.8 3.65 -48.1 -8.9 L-45.65 -7.6 -45.7 -7.35 Q-45.7 -6.8 -45.1 -6.55 L-44.5 -6.85 -44.45 -7.05 -41.6 -5.85 -41.65 -2.9 Q-41.65 5.0 -40.2 19.4 M-43.7 38.95 L-37.55 42.1 -37.5 42.85 -37.0 42.8 -36.9 42.45 -35.05 43.25 -35.0 43.6 -35.0 47.15 Q-35.0 48.35 -34.55 48.65 L-34.25 48.9 -34.2 49.25 -41.6 45.8 -42.6 43.2 -43.7 38.95" fill="#c79460" fill-rule="evenodd" stroke="none"/>
    <path d="M46.35 -51.1 L48.75 -52.8 48.95 -53.0 Q51.7 -46.35 53.75 -39.7 L54.15 -38.3 54.2 -38.25 55.0 -35.35 Q54.7 -33.2 51.65 -31.3 L50.1 -38.25 Q48.5 -44.65 46.4 -51.0 L46.35 -51.1 M-8.7 -5.1 L-8.8 -2.75 -12.15 -3.05 -16.3 -3.6 Q-23.95 -4.75 -32.55 -7.0 L-32.8 -7.1 -32.7 -8.45 -32.5 -8.4 Q-26.2 -6.9 -19.0 -6.05 L-8.7 -5.1 M54.3 -12.8 Q56.75 -13.9 58.5 -15.05 L58.7 -15.15 58.95 -12.25 Q59.65 -2.5 58.85 7.45 L58.4 11.55 58.4 11.85 58.25 12.45 Q58.15 14.9 54.1 17.1 L54.75 8.05 Q55.05 1.3 54.8 -5.4 L54.3 -12.8 M-7.7 43.25 L-7.5 45.8 Q-17.2 44.65 -26.7 42.45 L-28.4 42.05 -30.5 41.55 -30.75 39.85 -27.9 40.5 -27.25 40.65 -13.8 42.7 -7.7 43.25 M-6.7 55.3 L-6.25 60.25 -12.35 59.8 -12.8 54.9 -6.7 55.3 M-15.6 54.65 L-13.7 54.85 -12.95 58.45 -12.95 59.75 -13.4 59.7 -13.75 59.65 -14.8 59.55 -15.0 57.2 -15.35 55.35 -15.6 54.65 M-25.25 53.3 L-23.5 53.65 -22.05 58.45 -23.3 58.25 -23.75 56.7 -25.25 53.3" fill="#845328" fill-rule="evenodd" stroke="none"/>
    <path d="M24.6 -59.35 L10.75 -60.5 10.6 -60.5 10.6 -62.9 24.6 -61.8 24.6 -59.35 M29.55 -25.3 L27.5 -25.05 24.85 -32.6 Q24.85 -33.4 25.55 -33.25 28.25 -29.4 29.55 -25.3 M17.25 -24.1 L5.5 -23.7 6.9 -29.15 6.95 -29.9 6.7 -32.25 6.8 -33.0 7.5 -33.1 7.6 -33.1 Q9.0 -32.85 9.8 -24.75 L8.8 -43.75 15.45 -44.05 17.25 -24.1 M-0.75 -23.75 L-2.8 -23.85 -2.75 -30.2 Q-2.35 -38.3 -0.6 -40.75 0.05 -40.45 0.05 -40.1 L-0.75 -23.75 M-31.05 -27.0 L-32.05 -27.25 -32.3 -27.25 -35.65 -28.15 Q-33.8 -42.45 -31.6 -48.05 L-29.95 -47.6 -29.75 -47.5 -27.75 -47.0 -31.05 -27.0 M-38.15 -28.95 L-38.25 -28.95 -39.5 -29.4 Q-38.65 -32.5 -37.4 -33.75 -37.2 -34.2 -37.2 -33.4 L-38.15 -28.95 M-41.75 -30.35 L-41.75 -30.3 -43.75 -31.4 -42.85 -36.85 Q-42.3 -38.6 -41.3 -42.85 -40.15 -46.5 -38.5 -48.45 L-37.95 -48.05 -37.95 -47.85 -40.65 -37.65 -41.75 -30.35 M20.0 -44.4 L21.0 -44.45 21.55 -37.7 Q21.55 -37.25 21.2 -37.05 L21.0 -37.0 Q20.25 -38.25 20.0 -44.4 M28.6 -45.5 L29.7 -45.7 29.7 -45.65 31.05 -36.7 30.9 -34.4 30.65 -34.2 29.95 -34.15 29.1 -40.7 29.05 -41.0 28.6 -45.5 M-8.8 -2.75 L-2.15 -2.5 18.2 -3.3 34.3 -5.4 34.4 -0.5 28.55 0.0 26.65 6.3 21.55 23.05 21.4 23.8 19.3 23.9 Q20.3 17.7 22.1 12.65 L26.45 0.15 18.25 0.45 Q18.45 12.2 18.1 24.0 L8.8 24.35 8.9 0.6 3.2 0.55 Q3.75 3.25 5.05 7.6 7.3 15.1 7.3 17.45 L7.15 24.35 5.35 24.4 5.4 20.95 Q5.4 14.55 3.1 7.6 1.8 3.85 1.25 0.45 L-1.0 0.4 -1.3 11.6 -0.8 24.35 -1.65 24.3 -1.9 19.05 Q-2.75 10.9 -2.75 6.75 L-2.75 0.3 -8.55 -0.1 -8.85 -0.1 -8.8 -2.75 M34.5 6.1 L34.45 22.35 33.1 22.55 34.5 6.1 M24.95 23.5 L23.2 23.65 23.0 23.65 Q23.9 17.65 25.25 17.65 27.5 17.65 28.15 23.1 L28.15 23.15 26.9 23.3 26.9 23.25 Q26.55 20.95 25.7 19.3 L24.95 23.5 M-32.6 21.25 L-36.6 20.35 -37.2 5.2 -37.05 -4.3 -40.15 -5.25 -39.5 19.6 -40.2 19.4 Q-41.65 5.0 -41.65 -2.9 L-41.6 -5.85 -44.45 -7.05 -44.5 -6.85 -45.1 -6.55 Q-45.7 -6.8 -45.7 -7.35 L-45.65 -7.6 -48.1 -8.9 -47.9 -11.8 -44.75 -10.7 Q-38.9 -8.75 -33.45 -7.25 L-32.8 -7.1 -32.95 -3.2 -33.1 5.65 -32.6 21.25 M-7.5 45.8 L-1.35 46.4 -1.15 46.45 1.15 46.6 Q8.95 47.05 16.85 46.5 L16.7 47.8 16.85 46.5 18.85 46.35 Q25.9 45.75 32.9 44.25 L32.25 50.5 32.1 51.75 29.3 52.5 30.1 46.85 27.2 47.2 Q26.5 49.65 25.55 49.65 23.4 49.65 22.4 47.45 L20.3 47.6 20.55 54.3 18.25 54.7 18.15 47.7 16.7 47.8 16.05 54.95 8.0 55.6 8.15 48.35 -0.1 48.15 0.1 55.6 -1.75 55.5 -2.0 48.1 -7.35 47.7 -7.5 45.8 M18.25 0.45 L18.2 -3.3 18.25 0.45 M-41.6 45.8 L-34.2 49.25 -34.25 48.9 -34.55 48.65 Q-35.0 48.35 -35.0 47.15 L-35.0 43.6 -35.05 43.25 -36.9 42.45 -37.0 42.8 -37.5 42.85 -37.55 42.1 -43.7 38.95 -44.0 37.65 -30.5 41.55 -30.2 43.75 -30.2 43.8 -29.05 50.6 -29.05 50.75 -28.7 52.55 -28.65 52.7 -30.6 52.25 -34.75 51.2 -40.15 49.5 -41.2 46.9 -41.2 46.8 -41.6 45.8" fill="#b3804c" fill-rule="evenodd" stroke="none"/>
    <path d="M10.6 -60.5 L-1.35 -60.5 -1.35 -62.9 10.6 -62.9 10.6 -60.5 M47.95 -29.55 L45.75 -28.8 Q44.6 -39.4 43.6 -39.4 42.8 -39.4 42.8 -38.55 L43.85 -28.2 39.65 -27.15 37.5 -38.9 37.5 -38.95 35.65 -47.0 37.85 -47.6 39.5 -40.85 Q39.9 -34.7 41.2 -31.8 L41.7 -32.2 Q40.9 -39.5 39.8 -44.3 L38.8 -47.85 42.6 -49.15 43.15 -49.4 45.45 -41.3 Q46.9 -35.6 47.85 -30.2 L47.95 -29.55 M34.95 22.25 L35.8 22.1 36.75 11.2 36.9 21.95 34.95 22.25 M41.55 21.05 Q42.4 9.55 42.0 -1.85 L42.0 -2.7 46.0 -3.55 46.65 9.8 Q46.85 14.45 46.65 17.85 L46.55 19.85 41.55 21.05 M49.9 18.85 L47.75 19.5 48.25 11.35 47.55 -3.9 50.35 -4.5 49.9 18.85 M40.2 55.95 L42.7 43.8 46.55 42.55 Q45.8 47.75 44.35 54.15 L44.25 54.2 40.45 55.9 40.4 55.9 40.2 55.95 M32.25 50.5 L32.85 46.35 34.85 46.05 34.9 46.05 34.1 54.1 33.85 56.1 33.65 57.75 31.2 58.25 32.1 51.75 32.25 50.5 M35.8 57.25 L38.4 45.1 40.6 44.45 40.35 46.85 38.6 55.1 38.2 56.6 35.8 57.25 M29.3 52.5 L28.3 58.8 20.5 59.8 20.65 58.4 20.55 54.3 29.3 52.5 M16.05 54.95 L18.25 54.7 18.3 57.75 18.35 57.95 Q18.4 58.7 18.9 59.9 L19.7 59.85 15.55 60.2 16.05 54.95 M8.0 55.6 L8.1 60.45 0.25 60.45 0.1 55.6 8.0 55.6 M-1.75 55.5 L-1.55 60.4 -6.25 60.25 -6.7 55.3 -1.75 55.5" fill="#92643b" fill-rule="evenodd" stroke="none"/>
    <path d="M-5.6 -45.5 L-6.2 -45.55 -13.8 -46.15 -15.85 -46.35 Q-21.2 -47.05 -25.9 -48.1 L-22.7 -49.05 -4.25 -47.05 -5.6 -45.5 M-2.55 -66.05 L12.1 -66.05 10.75 -64.45 -1.25 -64.5 -2.55 -66.05 M-13.45 -24.4 L-17.15 -24.75 -16.25 -32.55 Q-15.1 -41.5 -15.1 -43.2 -15.1 -44.25 -15.45 -44.75 L-11.2 -44.3 Q-12.4 -39.7 -13.15 -29.15 L-13.45 -24.4 M-18.85 -24.95 L-24.45 -25.75 -21.45 -45.65 -15.5 -44.75 Q-16.25 -43.25 -17.35 -36.3 L-18.5 -28.25 -18.85 -24.95 M-26.7 -26.1 L-31.05 -27.0 -27.75 -47.0 -23.55 -46.05 -25.1 -37.55 -26.7 -26.1 M-14.65 23.7 L-24.0 22.7 -24.1 16.7 Q-24.15 12.5 -23.3 9.6 L-20.0 2.85 -19.85 2.5 -18.45 -0.5 -14.45 -0.1 -14.65 23.7 M-25.9 22.45 L-28.35 22.05 -27.6 18.2 Q-25.5 7.85 -25.5 3.05 L-26.05 -1.7 -20.2 -0.7 -23.7 5.6 Q-25.55 9.45 -25.85 12.15 L-25.9 14.0 Q-25.65 16.85 -25.9 22.45 M-30.45 21.65 L-32.6 21.25 -33.1 5.65 -32.95 -3.2 -27.9 -2.1 Q-27.5 3.05 -27.6 5.5 -27.7 9.55 -28.65 13.75 L-30.45 21.65 M-17.6 18.65 Q-17.3 17.7 -17.3 16.9 L-17.6 13.45 Q-18.05 10.05 -18.95 10.05 -20.75 10.05 -20.3 14.3 -20.7 19.0 -18.5 19.0 L-17.6 18.65 M-28.65 52.7 L-28.7 52.55 -29.05 50.75 -29.05 50.6 -30.2 43.8 -30.2 43.75 -28.7 44.15 -28.25 45.4 -25.4 53.0 -25.25 53.3 -28.65 52.7 M-23.5 53.65 L-26.6 44.65 -21.6 45.8 Q-21.2 47.1 -19.35 49.05 -16.8 51.7 -15.6 54.65 L-23.5 53.65 M-13.7 54.85 L-13.75 54.65 -15.05 52.1 -16.0 50.55 -19.95 46.4 -20.0 46.2 -13.4 47.2 -12.8 54.9 -13.7 54.85" fill="#c78f55" fill-rule="evenodd" stroke="none"/>
    <path d="M42.35 -60.75 L39.1 -60.1 34.05 -61.6 32.45 -62.0 24.6 -63.35 28.2 -64.45 34.85 -63.1 Q39.45 -62.05 42.35 -60.75 M33.35 -48.0 L28.65 -47.05 19.85 -45.95 19.2 -45.9 14.45 -45.55 4.0 -45.25 3.3 -45.25 1.8 -45.25 -5.6 -45.5 -4.25 -47.05 3.95 -46.85 13.15 -47.1 19.05 -47.5 19.6 -47.55 28.15 -48.65 30.15 -49.0 33.35 -48.0 M-38.25 -53.0 Q-39.7 -54.25 -39.65 -55.7 -39.7 -58.35 -34.95 -60.5 L-31.8 -59.9 -33.05 -59.35 -34.35 -58.6 Q-36.4 -57.25 -36.4 -55.75 L-36.3 -55.2 -35.55 -53.9 -35.4 -53.75 -35.15 -53.45 -38.25 -53.0 M38.35 -56.35 L32.7 -57.95 32.45 -58.0 24.6 -59.35 24.6 -61.8 30.5 -60.9 34.0 -60.1 38.35 -58.7 38.35 -56.35 M34.5 -26.05 L29.55 -25.3 Q28.25 -29.4 25.55 -33.25 24.85 -33.4 24.85 -32.6 L27.5 -25.05 17.25 -24.1 15.45 -44.05 20.0 -44.4 Q20.25 -38.25 21.0 -37.0 L21.2 -37.05 Q21.55 -37.25 21.55 -37.7 L21.0 -44.45 28.6 -45.5 29.05 -41.0 29.1 -40.7 29.95 -34.15 30.65 -34.2 30.9 -34.4 31.05 -36.7 29.7 -45.65 31.65 -46.05 34.4 -28.5 34.5 -26.05 M5.5 -23.7 L-0.75 -23.75 0.05 -40.1 Q0.05 -40.45 -0.6 -40.75 -2.35 -38.3 -2.75 -30.2 L-2.8 -23.85 -7.85 -24.05 -6.15 -43.95 8.8 -43.75 9.8 -24.75 Q9.0 -32.85 7.6 -33.1 L7.5 -33.1 6.8 -33.0 6.7 -32.25 6.95 -29.9 6.9 -29.15 5.5 -23.7 M-45.1 -32.35 L-45.25 -32.45 Q-46.75 -33.8 -46.95 -35.25 L-45.45 -40.6 Q-43.45 -47.05 -40.75 -53.4 L-40.45 -52.6 -39.9 -52.15 Q-42.15 -45.2 -43.8 -38.25 L-45.1 -32.35 M14.45 -45.55 L13.15 -47.1 14.45 -45.55 M34.4 -0.5 L34.5 6.1 33.1 22.55 28.15 23.1 Q27.5 17.65 25.25 17.65 23.9 17.65 23.0 23.65 L21.4 23.8 21.55 23.05 26.65 6.3 28.55 0.0 34.4 -0.5 M19.3 23.9 L18.1 24.0 Q18.45 12.2 18.25 0.45 L26.45 0.15 22.1 12.65 Q20.3 17.7 19.3 23.9 M8.8 24.35 L7.15 24.35 7.3 17.45 Q7.3 15.1 5.05 7.6 3.75 3.25 3.2 0.55 L8.9 0.6 8.8 24.35 M5.35 24.4 L-0.8 24.35 -1.3 11.6 -1.0 0.4 1.25 0.45 Q1.8 3.85 3.1 7.6 5.4 14.55 5.4 20.95 L5.35 24.4 M-1.65 24.3 L-8.65 24.05 -8.65 23.4 -8.65 22.7 -8.85 -0.1 -8.55 -0.1 -2.75 0.3 -2.75 6.75 Q-2.75 10.9 -1.9 19.05 L-1.65 24.3 M-47.55 16.25 L-47.95 16.0 Q-50.2 14.3 -50.25 12.45 L-50.45 11.85 -50.45 11.05 -50.8 7.8 Q-51.65 -2.55 -50.85 -12.8 L-47.9 -11.8 -48.1 -8.9 Q-48.8 3.65 -47.55 16.25 M24.95 23.5 L25.7 19.3 Q26.55 20.95 26.9 23.25 L24.95 23.5 M17.05 43.2 L17.05 43.15 17.55 43.1 17.65 43.1 17.55 43.15 17.25 43.15 17.05 43.2 M16.7 47.8 L18.15 47.7 18.25 54.7 16.05 54.95 16.7 47.8 M20.55 54.3 L20.3 47.6 22.4 47.45 Q23.4 49.65 25.55 49.65 26.5 49.65 27.2 47.2 L30.1 46.85 29.3 52.5 20.55 54.3 M8.0 55.6 L0.1 55.6 -0.1 48.15 8.15 48.35 8.0 55.6 M-7.35 47.7 L-2.0 48.1 -1.75 55.5 -6.7 55.3 -7.35 47.7 M-43.7 38.95 L-42.6 43.2 -44.6 37.45 -44.0 37.65 -43.7 38.95" fill="#ca9460" fill-rule="evenodd" stroke="none"/>
    <path d="M-28.65 -52.05 Q-31.05 -52.85 -32.25 -53.7 -30.65 -54.85 -27.15 -55.8 -28.05 -54.35 -28.05 -53.55 L-27.85 -52.2 -28.65 -52.05 M32.95 -53.9 L33.5 -54.0 33.3 -53.95 32.95 -53.9" fill="#cc9966" fill-rule="evenodd" stroke="none"/>
    <path d="M-45.65 -27.45 L-43.35 -26.3 Q-40.25 -24.95 -36.0 -23.7 L-31.6 -22.5 -31.35 -22.45 Q-20.95 -19.9 -8.15 -19.05 L4.0 -18.7 17.5 -19.15 21.45 -19.45 22.25 -19.55 33.4 -21.1 38.3 -22.15 39.55 -10.0 38.45 -9.75 38.35 -9.75 34.1 -8.95 Q26.65 -7.65 18.05 -7.1 L4.0 -6.65 -8.65 -7.05 -13.6 -7.4 -15.85 -7.6 Q-24.8 -8.45 -32.4 -10.15 L-32.6 -10.2 -36.3 -11.1 Q-40.55 -12.2 -43.7 -13.45 L-47.65 -15.25 -48.85 -16.0 -45.65 -27.45 M57.75 -30.15 L58.25 -30.6 59.45 -31.95 61.0 -22.3 61.0 -21.8 Q61.0 -20.55 60.35 -19.35 L59.05 -17.65 59.05 -17.7 57.75 -30.15 M58.25 19.9 L59.55 19.1 59.65 19.05 60.45 18.55 57.5 28.15 Q56.85 30.1 54.5 31.85 L54.95 30.35 58.25 19.9 M36.45 38.6 L33.45 39.2 19.15 41.05 17.9 41.15 17.25 41.2 4.05 41.65 -7.85 41.25 Q-18.75 40.55 -27.8 38.7 L-29.5 38.3 -31.0 37.95 -33.95 37.2 -35.65 36.7 -39.85 35.3 -40.9 34.85 -43.0 33.9 -42.7 34.0 -45.0 22.35 -32.25 26.0 -31.5 26.15 -31.05 26.25 -28.4 26.75 Q-19.25 28.45 -8.45 29.05 L17.9 28.95 34.3 27.15 38.0 26.45 36.45 38.6" fill="#6f6f6f" fill-rule="evenodd" stroke="none"/>
    <path d="M18.15 -5.2 L18.2 -3.3 18.15 -5.2 34.2 -7.05 34.3 -5.4 18.2 -3.3 -2.15 -2.5 -8.8 -2.75 -8.7 -5.1 -2.75 -4.8 -2.75 -4.85 -2.5 -4.8 18.15 -5.2 M-50.85 -12.8 L-50.65 -15.15 -50.6 -15.15 -48.45 -13.85 -47.8 -13.5 -47.9 -11.8 -50.85 -12.8" fill="#95643b" fill-rule="evenodd" stroke="none"/>
    <path d="M1.45 -22.1 L4.0 -22.1 17.3 -22.5 21.25 -22.8 22.2 -22.85 33.1 -24.3 41.5 -26.05 47.1 -27.7 48.65 -28.3 51.95 -29.8 Q54.45 -31.1 55.7 -32.55 56.85 -33.85 57.05 -35.3 L57.05 -36.25 56.8 -36.25 56.25 -38.15 57.6 -37.65 58.45 -36.85 58.95 -36.25 58.7 -36.25 58.75 -35.75 Q58.7 -34.2 57.7 -32.75 L56.05 -31.0 54.5 -29.8 49.7 -27.4 47.3 -26.5 42.7 -25.05 33.25 -22.95 22.2 -21.45 21.35 -21.4 17.45 -21.1 4.0 -20.65 -8.05 -21.0 -16.3 -21.65 -16.35 -21.65 Q-24.3 -22.55 -31.15 -24.2 L-31.4 -24.25 -34.65 -25.05 Q-38.75 -26.2 -41.75 -27.45 L-43.85 -28.35 -45.7 -29.35 -48.05 -30.95 -49.7 -32.8 Q-50.7 -34.25 -50.7 -35.75 L-50.7 -35.95 -50.6 -36.3 -48.65 -38.1 -48.45 -38.25 -48.2 -38.35 -48.8 -36.25 -49.0 -36.25 -49.05 -35.5 Q-48.95 -33.95 -47.65 -32.5 -46.9 -31.65 -45.65 -30.75 L-45.45 -30.65 -43.6 -29.6 -40.85 -28.4 Q-37.75 -27.15 -33.45 -26.05 L-31.25 -25.5 -30.95 -25.4 -16.65 -23.1 -16.1 -23.05 -7.95 -22.45 1.45 -22.1 M62.15 13.0 L61.85 14.05 61.55 14.7 60.0 16.6 57.4 18.5 53.75 20.25 Q53.2 20.5 52.6 20.7 L50.75 21.35 47.2 22.5 45.15 23.05 34.35 25.25 18.0 27.0 -8.55 27.15 Q-19.1 26.5 -28.05 24.95 L-29.9 24.6 -37.15 23.05 -44.55 20.7 -44.65 20.65 -49.8 18.25 -52.0 16.55 -53.75 14.25 -53.85 13.95 -54.2 12.35 -54.15 11.95 -53.45 10.55 -52.6 9.95 -52.4 11.9 -52.4 12.85 Q-52.15 14.9 -49.65 16.7 L-47.35 18.15 -43.7 19.7 Q-40.4 20.95 -35.9 22.05 L-21.05 24.6 -8.6 25.7 -1.35 25.95 -0.15 26.0 4.0 26.0 18.05 25.6 34.4 23.9 43.85 22.05 47.4 21.1 50.9 20.0 51.5 19.8 53.9 18.8 Q56.2 17.8 57.65 16.7 60.05 14.9 60.35 12.95 L60.65 9.45 Q62.2 10.55 62.2 11.65 L62.15 13.0" fill="#979797" fill-rule="evenodd" stroke="none"/>
    <path d="M-45.65 -27.45 L-48.85 -16.0 -50.45 -17.15 Q-51.7 -18.25 -52.35 -19.4 -53.0 -20.55 -53.0 -21.8 L-53.0 -22.3 -51.4 -32.0 -50.25 -30.65 -48.45 -29.15 -48.35 -29.1 -45.75 -27.5 -45.65 -27.45 M39.55 -10.0 L38.3 -22.15 38.55 -22.2 48.55 -25.2 Q49.55 -20.45 49.55 -16.75 L49.15 -12.55 39.55 -10.0 M45.3 36.2 L36.45 38.6 38.0 26.45 38.05 26.45 46.6 24.4 46.75 24.4 46.55 29.65 45.3 36.2 M-43.0 33.9 L-43.05 33.85 -45.05 32.75 -45.65 32.4 -48.6 29.8 -52.2 18.65 -49.0 20.6 -46.4 21.8 -46.3 21.8 -46.3 21.85 -45.0 22.3 -45.0 22.35 -42.7 34.0 -43.0 33.9" fill="#474747" fill-rule="evenodd" stroke="none"/>
    <path d="M48.55 -25.2 L52.5 -26.85 56.3 -29.05 56.5 -29.15 57.75 -30.15 59.05 -17.7 58.45 -17.15 56.65 -15.85 54.15 -14.55 49.15 -12.55 49.55 -16.75 Q49.55 -20.45 48.55 -25.2 M46.75 24.4 L46.85 24.35 57.0 20.6 58.25 19.9 54.95 30.35 54.5 31.85 54.3 32.0 51.6 33.65 45.3 36.2 46.55 29.65 46.75 24.4" fill="#333333" fill-rule="evenodd" stroke="none"/>
    <path d="M-34.95 -60.5 L-32.35 -61.5 -26.9 -63.1 -18.45 -64.7 -14.95 -63.55 -24.55 -62.0 -27.05 -61.4 -28.85 -60.9 -30.9 -60.25 -31.8 -59.9 -34.95 -60.5 M-14.95 -59.55 L-24.45 -58.0 -24.55 -58.0 Q-28.65 -57.15 -31.3 -56.1 L-31.3 -58.25 -28.5 -59.4 -25.75 -60.2 -24.1 -60.55 -22.55 -60.9 -14.95 -62.05 -14.95 -59.55" fill="#85651d" fill-rule="evenodd" stroke="none"/>
    <path d="M-27.7 -51.8 L-28.65 -52.05 -27.85 -52.2 -27.7 -51.8" fill="#dca976" fill-rule="evenodd" stroke="none"/>
    <path d="M-7.85 -24.05 L-13.45 -24.4 -13.15 -29.15 Q-12.4 -39.7 -11.2 -44.3 L-6.15 -43.95 -7.85 -24.05 M-17.15 -24.75 L-18.85 -24.95 -18.5 -28.25 -17.35 -36.3 Q-16.25 -43.25 -15.5 -44.75 L-15.45 -44.75 Q-15.1 -44.25 -15.1 -43.2 -15.1 -41.5 -16.25 -32.55 L-17.15 -24.75 M-24.45 -25.75 L-26.7 -26.1 -25.1 -37.55 -23.55 -46.05 -21.45 -45.65 -24.45 -25.75 M-8.65 24.05 L-11.1 23.95 -11.35 23.9 -14.65 23.7 -14.45 -0.1 -18.45 -0.5 -19.85 2.5 -20.0 2.85 -23.3 9.6 Q-24.15 12.5 -24.1 16.7 L-24.0 22.7 -25.9 22.45 Q-25.65 16.85 -25.9 14.0 L-25.85 12.15 Q-25.55 9.45 -23.7 5.6 L-20.2 -0.7 -26.05 -1.7 -25.5 3.05 Q-25.5 7.85 -27.6 18.2 L-28.35 22.05 -30.45 21.65 -28.65 13.75 Q-27.7 9.55 -27.6 5.5 -27.5 3.05 -27.9 -2.1 L-32.95 -3.2 -32.8 -7.1 -32.55 -7.0 Q-23.95 -4.75 -16.3 -3.6 L-12.15 -3.05 -8.8 -2.75 -8.85 -0.1 -8.65 22.7 -8.65 23.4 -8.65 24.05 M-17.6 18.65 L-18.5 19.0 Q-20.7 19.0 -20.3 14.3 -20.75 10.05 -18.95 10.05 -18.05 10.05 -17.6 13.45 L-17.3 16.9 Q-17.3 17.7 -17.6 18.65 M-30.5 41.55 L-28.4 42.05 -26.7 42.45 Q-17.2 44.65 -7.5 45.8 L-7.35 47.7 -6.7 55.3 -12.8 54.9 -13.4 47.2 -20.0 46.2 -19.95 46.4 -16.0 50.55 -15.05 52.1 -13.75 54.65 -13.7 54.85 -15.6 54.65 Q-16.8 51.7 -19.35 49.05 -21.2 47.1 -21.6 45.8 L-26.6 44.65 -23.5 53.65 -25.25 53.3 -25.4 53.0 -28.25 45.4 -28.7 44.15 -30.2 43.75 -30.5 41.55" fill="#b37b41" fill-rule="evenodd" stroke="none"/>
    <path d="M-13.7 54.85 L-12.8 54.9 -12.35 59.8 -12.95 59.75 -12.95 58.45 -13.7 54.85 M-15.6 54.65 L-15.35 55.35 -15.0 57.2 -14.8 59.55 Q-21.35 58.8 -26.9 57.5 L-27.8 57.25 -28.65 52.7 -25.25 53.3 -23.75 56.7 -23.3 58.25 -22.05 58.45 -23.5 53.65 -15.6 54.65" fill="#926135" fill-rule="evenodd" stroke="none"/>
    <path d="M42.35 -60.75 L39.1 -60.1 M41.3 -52.35 L44.25 -51.6 M12.1 -66.05 L12.2 -66.05 M38.35 -58.7 L38.35 -56.35 M46.35 -51.1 L46.4 -51.0 Q48.5 -44.65 50.1 -38.25 L51.65 -31.3 M10.6 -62.9 L10.6 -60.5 M-27.85 -52.2 L3.9 -59.0 M10.75 -64.45 L12.1 -66.05 M24.6 -63.35 L28.2 -64.45 M24.6 -59.35 L24.6 -61.8 M32.95 -53.9 L33.5 -54.0 37.75 -54.95 M32.95 -53.9 L7.4 -48.45 M37.5 -38.95 L35.65 -47.0 M13.15 -47.1 L14.45 -45.55 M33.35 -48.0 L30.15 -49.0 M39.65 -27.15 L37.5 -38.9 M-4.25 -47.05 L-5.6 -45.5 M18.2 -3.3 L18.15 -5.2 M-8.7 -5.1 L-8.8 -2.75 -8.85 -0.1 -8.65 22.7 M41.55 21.05 Q42.4 9.55 42.0 -1.85 L42.0 -2.7 41.75 -7.65 M15.45 -44.05 L17.25 -24.1 M41.7 -8.65 L41.75 -7.9 M54.3 -12.8 L54.8 -5.4 Q55.05 1.3 54.75 8.05 L54.1 17.1 M46.75 52.25 L46.35 53.55 M46.75 52.25 L49.8 41.6 51.15 35.7 M18.25 0.45 Q18.45 12.2 18.1 24.0 M17.05 43.15 L17.05 43.2 16.85 46.5 16.7 47.8 16.05 54.95 15.55 60.2 M-7.7 43.25 L-7.5 45.8 -7.35 47.7 -6.7 55.3 -6.25 60.25 M35.8 57.25 L38.4 45.1 39.35 39.7 M18.2 -3.3 L18.25 0.45 M-34.95 -60.5 L-31.8 -59.9 M-14.95 -63.55 L-18.45 -64.7 M-31.3 -56.1 L-31.3 -58.25 M-35.15 -53.45 L-38.25 -53.0 M-28.65 -52.05 L-27.85 -52.2 M-2.55 -66.05 L-1.25 -64.5 M-1.35 -60.5 L-1.35 -62.9 M-14.95 -62.05 L-14.95 -59.55 M-39.9 -52.15 Q-42.15 -45.2 -43.8 -38.25 L-45.1 -32.35 M-47.9 -11.8 L-48.1 -8.9 Q-48.8 3.65 -47.55 16.25 M-47.8 -13.5 L-47.9 -11.8 M-25.9 -48.1 L-22.7 -49.05 M-27.75 -47.0 L-31.05 -27.0 M-32.8 -7.1 L-32.7 -8.45 M-32.95 -3.2 L-32.8 -7.1 M-6.15 -43.95 L-7.85 -24.05 M-8.65 24.05 L-8.65 23.4 M-32.6 21.25 L-33.1 5.65 -32.95 -3.2 M-30.75 39.85 L-30.5 41.55 -30.2 43.75 -30.2 43.8 -29.05 50.6 M-43.7 38.95 L-42.6 43.2 -39.7 53.15 M-28.65 52.7 L-28.7 52.55 -29.05 50.75 M-44.0 37.65 L-43.7 38.95 M-44.0 37.65 L-44.6 34.9 M-28.65 52.7 L-27.8 57.25 M26.15 -57.6 L-13.2 -49.2" fill="none" stroke="#000000" stroke-linecap="round" stroke-linejoin="round" stroke-width="1.0"/>
  </g>
</svg>
