<?xml version="1.0" encoding="UTF-8" standalone="no"?>
<svg xmlns:xlink="http://www.w3.org/1999/xlink" height="176.95px" width="962.25px" xmlns="http://www.w3.org/2000/svg">
  <g transform="matrix(1.0, 0.0, 0.0, 1.0, 480.05, 88.7)">
    <path d="M-471.35 -33.85 L-455.7 51.2 477.95 42.9" fill="none" stroke="#000000" stroke-linecap="round" stroke-linejoin="round" stroke-width="7.0"/>
    <path d="M475.1 -54.6 L477.95 42.9 Q18.4 64.65 -441.2 51.05 -466.75 28.05 -470.3 -2.2 -471.3 -10.5 -470.65 -19.3 -471.5 -44.05 -474.6 -69.6 -2.35 -77.6 475.1 -54.6 M-470.65 -19.3 L-470.3 -2.2 -470.65 -19.3" fill="#fee598" fill-rule="evenodd" stroke="none"/>
    <path d="M-474.6 -69.6 L-476.15 -81.25 Q3.05 -93.25 474.7 -68.7 L475.1 -54.6 Q-2.35 -77.6 -474.6 -69.6" fill="#fef0ca" fill-rule="evenodd" stroke="none"/>
    <path d="M477.95 42.9 L478.7 68.55 Q1.1 95.3 -476.55 77.9 -470.25 38.95 -470.3 -2.2 -466.75 28.05 -441.2 51.05 18.4 64.65 477.95 42.9" fill="#e2cc87" fill-rule="evenodd" stroke="none"/>
    <path d="M-474.6 -69.6 L-476.15 -81.25 Q3.05 -93.25 474.7 -68.7 L475.1 -54.6 477.95 42.9 478.7 68.55 Q1.1 95.3 -476.55 77.9 -470.25 38.95 -470.3 -2.2 -471.3 -10.5 -470.65 -19.3 -471.5 -44.05 -474.6 -69.6 M-470.3 -2.2 L-470.65 -19.3" fill="none" stroke="#000000" stroke-linecap="round" stroke-linejoin="round" stroke-width="7.0"/>
  </g>
</svg>
