<?xml version="1.0" encoding="UTF-8" standalone="no"?>
<svg xmlns:xlink="http://www.w3.org/1999/xlink" height="147.25px" width="203.5px" xmlns="http://www.w3.org/2000/svg">
  <g transform="matrix(1.0, 0.0, 0.0, 1.0, 101.75, 73.6)">
    <path d="M58.05 -67.15 L60.25 -69.0 Q46.1 -69.4 32.6 -65.5 26.6 -63.9 21.0 -61.35 17.55 -59.75 14.45 -57.8 10.7 -55.5 7.45 -52.5 L6.55 -51.7 Q5.85 -51.0 4.6 -50.6 L4.3 -50.95 4.15 -51.85 4.4 -52.8 Q0.85 -55.9 -3.35 -58.55 -7.55 -61.2 -12.25 -62.95 -18.25 -65.1 -24.5 -66.6 L-41.7 -70.3 -55.85 -69.85 -52.95 -68.95 -50.35 -67.85 Q-47.75 -66.7 -45.5 -64.9 -36.9 -58.2 -31.45 -41.85 L-31.5 -41.85 -35.1 -42.95 Q-40.45 -44.45 -44.35 -44.75 -52.15 -44.8 -59.6 -43.2 -67.25 -41.65 -74.45 -38.35 -88.75 -31.95 -96.6 -18.55 L-96.45 -18.55 Q-84.7 -21.5 -72.65 -21.3 L-64.6 -21.85 Q-61.1 -22.1 -57.7 -23.15 L-57.65 -23.2 -64.55 -17.6 -41.05 -12.35 -31.6 -11.45 -32.85 -8.7 Q-46.05 -9.65 -58.55 -12.75 -63.1 -13.9 -67.6 -15.4 L-69.4 -16.0 -71.85 -13.45 Q-75.1 -10.0 -77.9 -6.2 -80.3 -3.0 -82.35 0.45 L-85.25 5.65 -82.7 7.15 Q-72.2 12.95 -60.35 15.55 -47.8 18.55 -35.0 19.2 L-34.55 22.45 -55.75 19.25 -60.3 19.7 -62.05 21.35 Q-67.0 27.35 -70.7 34.2 L-73.05 39.35 -74.45 44.1 Q-63.65 33.45 -48.75 31.1 L-48.4 31.4 -48.45 32.35 -53.95 34.85 -59.3 37.3 Q-58.3 45.8 -53.4 53.0 -50.8 56.75 -47.15 59.35 -39.6 64.8 -30.4 66.7 -19.5 69.05 -8.6 69.35 3.8 69.65 15.95 67.55 L19.3 67.0 Q27.7 65.4 35.5 61.7 38.4 60.4 41.05 58.45 43.65 56.55 45.95 54.3 49.0 51.2 51.35 47.6 59.35 35.15 64.45 21.15 L62.15 21.35 61.85 20.1 62.1 19.9 62.1 19.85 62.3 19.75 63.85 19.15 65.8 18.7 Q77.1 16.4 87.85 21.35 L87.95 17.8 Q87.8 6.5 82.65 -3.3 L81.8 -3.1 Q82.5 -7.6 94.7 -7.95 L98.0 -7.95 96.15 -13.15 93.65 -17.9 Q91.9 -20.8 89.3 -23.4 86.75 -26.1 83.65 -28.0 82.05 -29.05 80.55 -30.2 78.65 -31.65 76.45 -32.2 L72.2 -32.6 74.65 -34.65 Q82.75 -41.25 89.9 -43.25 L89.95 -43.3 Q70.8 -51.35 50.0 -50.4 L47.55 -47.55 Q46.05 -45.75 44.6 -45.55 L44.8 -48.4 Q49.25 -59.4 58.05 -67.15 M92.1 18.8 L87.95 17.8 92.1 18.8 91.8 22.8 Q91.6 24.5 90.7 25.95 L89.25 27.4 81.35 23.4 78.95 22.6 78.55 22.75 66.45 21.1 Q65.45 28.95 62.0 35.95 60.15 39.7 58.9 43.65 57.8 47.2 55.0 49.8 L48.8 56.75 Q43.3 62.55 36.25 66.05 29.6 69.3 22.4 70.65 4.3 74.55 -14.15 73.4 -30.1 72.85 -44.7 66.25 -48.95 64.3 -52.3 60.85 -54.35 58.7 -56.0 56.1 -57.8 53.3 -58.95 50.35 L-61.05 44.2 Q-61.85 41.4 -61.55 38.6 L-67.85 43.3 Q-71.0 45.7 -73.7 48.55 L-77.5 52.8 -78.05 52.8 -78.9 51.85 Q-78.2 45.8 -76.2 39.8 -74.25 33.95 -71.0 28.6 -68.4 24.35 -65.3 20.6 L-68.25 21.35 Q-72.7 22.65 -76.85 24.45 -82.5 26.9 -87.65 30.3 -89.4 31.4 -91.3 32.0 -92.4 32.45 -93.3 31.6 -91.8 21.35 -88.35 11.5 L-86.8 7.35 -88.95 5.6 -85.55 -0.4 Q-80.4 -9.0 -76.2 -13.05 L-70.25 -18.3 Q-79.6 -17.9 -88.65 -16.15 -93.6 -15.1 -98.15 -13.15 L-100.6 -13.05 Q-101.45 -13.35 -101.75 -14.2 L-101.6 -15.05 Q-96.5 -26.7 -86.25 -34.45 -80.9 -38.45 -74.8 -40.9 -66.85 -44.25 -58.35 -46.5 -53.5 -47.8 -48.45 -48.2 L-42.35 -48.05 -36.7 -46.7 -39.25 -50.85 Q-41.1 -54.6 -43.65 -57.75 -45.6 -60.2 -48.05 -62.2 -50.0 -63.85 -52.25 -65.0 L-58.95 -67.95 Q-62.4 -69.4 -64.85 -71.45 L-64.1 -72.6 -54.45 -73.6 Q-41.75 -73.45 -29.6 -70.95 L-17.45 -68.05 Q-11.95 -66.55 -6.6 -63.75 -3.15 -61.9 -0.35 -59.4 2.35 -57.0 4.5 -53.8 L4.65 -55.15 Q4.7 -59.55 3.65 -63.95 L1.2 -72.4 Q2.6 -71.15 3.7 -69.25 5.15 -66.85 5.95 -64.15 6.7 -61.65 6.55 -59.0 L9.05 -62.75 Q11.0 -65.6 13.6 -67.65 16.45 -69.85 19.4 -71.45 L19.75 -70.85 19.75 -70.4 19.5 -70.0 18.9 -69.7 Q17.25 -68.65 15.3 -66.75 12.8 -64.4 11.0 -61.5 9.1 -58.5 7.7 -55.45 12.9 -60.15 18.95 -63.7 25.05 -67.25 31.9 -69.05 L39.0 -70.85 Q46.1 -72.55 53.3 -72.6 L66.05 -71.85 67.35 -70.3 65.45 -68.3 Q62.5 -65.1 58.95 -62.55 57.05 -61.25 55.95 -59.4 L51.2 -51.9 Q56.15 -53.4 61.25 -53.35 L71.55 -52.45 Q76.85 -51.6 81.85 -50.0 85.85 -48.6 89.5 -46.65 93.25 -44.55 96.75 -41.9 L95.8 -40.15 Q92.9 -39.8 90.3 -38.75 84.7 -36.55 79.35 -33.7 L81.85 -32.55 Q87.6 -29.65 92.1 -25.45 94.65 -23.0 96.5 -19.95 99.05 -15.75 100.35 -11.25 101.45 -7.55 101.75 -3.65 L101.7 -2.75 90.5 -4.2 84.85 -3.5 Q88.95 2.0 90.9 8.6 91.9 12.1 92.05 15.5 L92.1 18.8 M25.95 -33.25 Q38.45 -34.9 47.25 -26.1 55.65 -17.65 57.6 -5.8 59.45 5.4 57.15 16.5 54.45 29.6 41.2 33.2 30.05 36.25 19.2 31.5 L13.5 29.15 Q4.6 33.5 -5.3 34.4 -14.35 35.05 -22.15 30.95 -28.15 27.85 -30.75 21.7 -33.0 16.35 -32.65 10.6 -31.1 -13.8 -10.9 -26.8 -7.4 -29.1 -3.4 -30.7 3.0 -33.15 9.45 -31.25 12.55 -30.25 14.45 -27.6 16.4 -30.0 18.9 -31.35 22.2 -33.25 25.95 -33.25 M15.25 -25.75 L14.0 -23.6 Q10.6 -27.75 4.7 -28.35 -1.3 -28.95 -6.55 -25.85 -29.7 -12.3 -29.35 14.7 -29.25 23.25 -22.05 26.95 -14.9 30.7 -6.7 30.15 3.3 29.95 12.45 26.25 15.85 24.75 17.9 21.65 L17.7 24.7 17.05 26.4 Q28.4 31.1 39.8 28.2 50.85 25.6 53.95 14.7 55.5 9.2 54.9 3.45 54.0 -5.6 50.5 -14.0 47.9 -20.2 43.1 -24.8 33.05 -33.1 20.4 -28.0 L15.25 -25.75 M62.1 19.9 L62.3 19.75 62.1 19.9 M37.9 5.05 Q40.65 11.15 38.1 17.75 L37.5 18.7 Q28.85 20.45 30.9 11.45 31.75 7.55 34.85 4.95 L35.5 4.7 36.1 4.55 37.35 4.8 37.9 5.05 M33.45 9.2 L33.8 9.35 Q36.6 9.4 34.4 7.6 L34.0 7.75 Q33.05 8.2 33.45 9.2 M7.7 13.75 Q7.2 16.2 5.55 18.2 3.05 21.2 -0.6 18.6 -4.65 9.95 3.95 4.85 9.05 7.15 7.7 13.75 M2.15 10.0 Q4.45 9.1 2.25 7.9 L2.25 7.95 Q0.4 8.4 1.5 10.05 L2.15 10.0 M-87.5 20.35 L-88.65 24.75 Q-77.2 18.65 -64.8 17.5 L-70.2 16.0 Q-77.4 13.55 -83.75 9.55 -85.95 14.8 -87.5 20.35" fill="#000000" fill-rule="evenodd" stroke="none"/>
    <path d="M15.25 -25.75 L20.4 -28.0 Q33.05 -33.1 43.1 -24.8 47.9 -20.2 50.5 -14.0 54.0 -5.6 54.9 3.45 55.5 9.2 53.95 14.7 50.85 25.6 39.8 28.2 28.4 31.1 17.05 26.4 L17.7 24.7 17.9 21.65 Q15.85 24.75 12.45 26.25 3.3 29.95 -6.7 30.15 -14.9 30.7 -22.05 26.95 -29.25 23.25 -29.35 14.7 -29.7 -12.3 -6.55 -25.85 -1.3 -28.95 4.7 -28.35 10.6 -27.75 14.0 -23.6 L15.25 -25.75 M37.9 5.05 L37.35 4.8 36.1 4.55 35.5 4.7 34.85 4.95 Q31.75 7.55 30.9 11.45 28.85 20.45 37.5 18.7 L38.1 17.75 Q40.65 11.15 37.9 5.05 M33.45 9.2 Q33.05 8.2 34.0 7.75 L34.4 7.6 Q36.6 9.4 33.8 9.35 L33.45 9.2 M7.7 13.75 Q9.05 7.15 3.95 4.85 -4.65 9.95 -0.6 18.6 3.05 21.2 5.55 18.2 7.2 16.2 7.7 13.75 M2.15 10.0 L1.5 10.05 Q0.4 8.4 2.25 7.95 L2.25 7.9 Q4.45 9.1 2.15 10.0" fill="#ffffff" fill-rule="evenodd" stroke="none"/>
    <path d="M-33.15 -4.55 Q-34.45 -1.6 -34.7 0.05 L-35.25 6.35 Q-60.4 4.0 -77.9 -6.2 -75.1 -10.0 -71.85 -13.45 -53.9 -5.6 -33.15 -4.55" fill="#00cc00" fill-rule="evenodd" stroke="none"/>
    <path d="M58.05 -67.15 Q49.25 -59.4 44.8 -48.4 L44.6 -45.55 Q46.05 -45.75 47.55 -47.55 68.75 -50.0 89.9 -43.25 82.75 -41.25 74.65 -34.65 L72.2 -32.6 76.45 -32.2 Q87.4 -21.9 94.7 -7.95 82.5 -7.6 81.8 -3.1 L82.65 -3.3 Q87.8 6.5 87.95 17.8 L75.0 14.65 63.85 19.15 62.3 19.75 62.1 19.85 62.1 19.9 61.85 20.1 62.15 21.35 64.45 21.15 Q59.35 35.15 51.35 47.6 49.0 51.2 45.95 54.3 43.65 56.55 41.05 58.45 38.4 60.4 35.5 61.7 27.7 65.4 19.3 67.0 -18.5 67.45 -42.65 52.5 -50.9 44.55 -53.95 34.85 L-48.45 32.35 -48.4 31.4 -48.75 31.1 Q-56.05 28.05 -63.4 32.25 L-73.05 39.35 -70.7 34.2 Q-67.0 27.35 -62.05 21.35 L-60.3 19.7 -55.75 19.25 -34.55 22.45 -35.0 19.2 -35.25 13.1 -35.25 6.35 -34.7 0.05 Q-34.45 -1.6 -33.15 -4.55 -33.5 -7.25 -32.85 -8.7 L-31.6 -11.45 -41.05 -12.35 -64.55 -17.6 -57.65 -23.2 -57.7 -23.15 -92.7 -23.2 Q-75.85 -41.1 -35.1 -42.95 L-31.5 -41.85 -31.45 -41.85 Q-36.9 -58.2 -45.5 -64.9 -47.75 -66.7 -50.35 -67.85 L-52.95 -68.95 Q-23.55 -65.85 4.15 -51.85 L4.3 -50.95 4.6 -50.6 Q5.85 -51.0 6.55 -51.7 L7.45 -52.5 Q32.75 -66.75 58.05 -67.15 M25.95 -33.25 Q22.2 -33.25 18.9 -31.35 16.4 -30.0 14.45 -27.6 12.55 -30.25 9.45 -31.25 3.0 -33.15 -3.4 -30.7 -7.4 -29.1 -10.9 -26.8 -31.1 -13.8 -32.65 10.6 -33.0 16.35 -30.75 21.7 -28.15 27.85 -22.15 30.95 -14.35 35.05 -5.3 34.4 4.6 33.5 13.5 29.15 L19.2 31.5 Q30.05 36.25 41.2 33.2 54.45 29.6 57.15 16.5 59.45 5.4 57.6 -5.8 55.65 -17.65 47.25 -26.1 38.45 -34.9 25.95 -33.25 M-87.5 20.35 Q-85.95 14.8 -83.75 9.55 -77.4 13.55 -70.2 16.0 L-87.5 20.35" fill="#ffccff" fill-rule="evenodd" stroke="none"/>
    <path d="M7.45 -52.5 Q10.7 -55.5 14.45 -57.8 17.55 -59.75 21.0 -61.35 26.6 -63.9 32.6 -65.5 46.1 -69.4 60.25 -69.0 L58.05 -67.15 Q32.75 -66.75 7.45 -52.5 M47.55 -47.55 L50.0 -50.4 Q70.8 -51.35 89.95 -43.3 L89.9 -43.25 Q68.75 -50.0 47.55 -47.55 M76.45 -32.2 Q78.65 -31.65 80.55 -30.2 82.05 -29.05 83.65 -28.0 86.75 -26.1 89.3 -23.4 91.9 -20.8 93.65 -17.9 L96.15 -13.15 98.0 -7.95 94.7 -7.95 Q87.4 -21.9 76.45 -32.2 M-52.95 -68.95 L-55.85 -69.85 -41.7 -70.3 -24.5 -66.6 Q-18.25 -65.1 -12.25 -62.95 -7.55 -61.2 -3.35 -58.55 0.85 -55.9 4.4 -52.8 L4.15 -51.85 Q-23.55 -65.85 -52.95 -68.95 M-35.1 -42.95 Q-75.85 -41.1 -92.7 -23.2 L-96.45 -18.55 -96.6 -18.55 Q-88.75 -31.95 -74.45 -38.35 -67.25 -41.65 -59.6 -43.2 -52.15 -44.8 -44.35 -44.75 -40.45 -44.45 -35.1 -42.95" fill="#ffe5ff" fill-rule="evenodd" stroke="none"/>
    <path d="M-92.7 -23.2 L-57.7 -23.15 Q-61.1 -22.1 -64.6 -21.85 L-72.65 -21.3 Q-84.7 -21.5 -96.45 -18.55 L-92.7 -23.2 M-73.05 39.35 L-63.4 32.25 Q-56.05 28.05 -48.75 31.1 -63.65 33.45 -74.45 44.1 L-73.05 39.35 M-53.95 34.85 Q-50.9 44.55 -42.65 52.5 -18.5 67.45 19.3 67.0 L15.95 67.55 Q3.8 69.65 -8.6 69.35 -19.5 69.05 -30.4 66.7 -39.6 64.8 -47.15 59.35 -50.8 56.75 -53.4 53.0 -58.3 45.8 -59.3 37.3 L-53.95 34.85 M63.85 19.15 L75.0 14.65 87.95 17.8 87.85 21.35 Q77.1 16.4 65.8 18.7 L63.85 19.15 M-70.2 16.0 L-64.8 17.5 Q-77.2 18.65 -88.65 24.75 L-87.5 20.35 -70.2 16.0" fill="#e7b9e7" fill-rule="evenodd" stroke="none"/>
    <path d="M-32.85 -8.7 Q-33.5 -7.25 -33.15 -4.55 -53.9 -5.6 -71.85 -13.45 L-69.4 -16.0 -67.6 -15.4 Q-63.1 -13.9 -58.55 -12.75 -46.05 -9.65 -32.85 -8.7" fill="#00ec00" fill-rule="evenodd" stroke="none"/>
    <path d="M-35.25 6.35 L-35.25 13.1 Q-63.65 12.55 -82.35 0.45 -80.3 -3.0 -77.9 -6.2 -60.4 4.0 -35.25 6.35" fill="#00b800" fill-rule="evenodd" stroke="none"/>
    <path d="M-35.25 13.1 L-35.0 19.2 Q-47.8 18.55 -60.35 15.55 -72.2 12.95 -82.7 7.15 L-85.25 5.65 -82.35 0.45 Q-63.65 12.55 -35.25 13.1" fill="#00ad00" fill-rule="evenodd" stroke="none"/>
    <path d="M87.95 17.8 L92.1 18.8 M62.3 19.75 L63.85 19.15 75.0 14.65 87.95 17.8 M62.3 19.75 L62.1 19.9" fill="none" stroke="#000000" stroke-linecap="round" stroke-linejoin="round" stroke-width="0.5"/>
  </g>
</svg>
