<?xml version="1.0" encoding="UTF-8" standalone="no"?>
<svg xmlns:xlink="http://www.w3.org/1999/xlink" height="161.7px" width="123.5px" xmlns="http://www.w3.org/2000/svg">
  <g transform="matrix(1.0, 0.0, 0.0, 1.0, 61.75, 80.8)">
    <path d="M61.45 -78.05 L61.75 -74.55 61.25 -72.55 Q59.2 -66.8 53.45 -64.0 L53.0 -53.1 Q53.25 -45.2 53.85 -37.1 L55.1 -13.8 Q55.55 -2.05 55.25 9.55 L54.35 28.95 52.3 50.15 50.4 58.45 48.8 62.35 44.1 69.75 Q40.65 74.1 36.0 77.1 34.05 78.35 31.9 79.2 L27.35 80.45 Q16.7 81.5 6.2 80.1 L0.0 78.9 Q-1.75 78.5 -3.3 77.7 -7.25 75.6 -10.7 72.95 L-12.95 73.6 Q-16.1 74.15 -18.6 72.0 L-20.35 74.3 -21.8 74.05 -22.15 73.55 Q-17.8 65.9 -18.8 57.15 L-16.85 61.0 -17.2 59.9 -13.45 56.6 Q-12.15 55.6 -10.6 55.1 -8.1 54.15 -5.4 54.05 L0.65 53.6 2.65 54.0 Q5.15 54.85 6.7 56.8 L5.7 58.25 5.2 58.15 5.8 60.15 12.6 61.85 28.5 63.75 31.35 62.85 Q32.7 62.45 33.5 61.35 36.3 57.25 36.8 52.35 L35.25 53.1 29.0 54.85 14.4 52.3 4.8 49.9 -3.5 48.6 Q-5.25 48.25 -6.95 48.55 -11.0 49.3 -14.95 50.35 L-33.2 56.0 -37.95 56.65 -44.85 56.25 -48.5 55.15 Q-50.3 54.5 -51.7 53.25 -54.75 50.4 -57.1 47.0 -58.5 44.9 -59.35 42.55 L-61.3 34.8 Q-62.0 28.9 -61.65 23.05 L-60.8 16.9 Q-59.45 10.05 -56.55 3.65 -54.25 -1.35 -49.6 -4.3 L-49.1 -4.25 -33.95 -7.4 Q-21.85 -9.45 -9.6 -9.4 L11.35 -10.1 Q16.65 -10.0 21.7 -8.45 31.15 -5.55 37.45 1.9 36.95 -4.3 36.7 -10.7 36.35 -19.05 36.25 -27.55 36.1 -46.55 37.4 -65.6 L31.05 -71.4 30.95 -75.35 Q31.0 -76.2 31.4 -76.95 32.4 -78.6 34.1 -79.25 39.35 -78.95 44.6 -79.4 L50.6 -80.5 Q53.8 -81.1 57.0 -80.45 59.6 -79.8 61.45 -78.05 M-11.05 69.55 Q-9.5 70.3 -7.95 71.2 L-3.25 73.65 Q0.6 75.55 4.8 76.3 L20.6 76.85 Q25.15 76.5 29.45 75.1 L33.5 73.7 Q35.4 72.8 37.15 71.7 L39.2 69.9 41.9 66.25 43.7 63.1 48.1 51.65 50.0 42.0 50.45 36.95 51.4 -23.1 50.05 -53.8 Q49.7 -60.4 50.2 -67.05 L50.65 -66.05 58.7 -74.0 58.75 -76.5 54.75 -77.0 Q53.0 -75.1 50.5 -74.7 L47.2 -74.5 37.85 -76.25 35.8 -76.15 Q34.05 -75.8 33.6 -74.4 L33.6 -72.3 36.05 -70.55 36.8 -70.65 38.4 -69.1 Q39.75 -67.65 39.8 -65.65 L40.85 -20.35 40.65 -12.0 39.4 4.7 40.8 7.75 40.45 7.4 40.75 7.8 41.85 9.35 Q44.0 12.5 44.9 16.3 L46.6 31.25 Q46.75 34.4 46.0 37.25 L44.5 42.75 Q42.95 46.95 39.6 50.2 L40.3 53.55 Q40.5 55.2 40.35 56.95 39.95 61.55 36.25 64.35 L35.35 65.0 Q31.5 67.65 26.75 67.65 20.65 68.15 14.9 66.75 9.8 65.5 5.25 62.55 L2.95 60.7 Q2.35 60.2 2.1 59.5 1.75 58.45 2.75 57.55 L-0.55 56.8 Q-5.4 56.4 -9.85 58.3 -13.4 59.75 -16.5 62.5 L-17.4 69.75 -13.6 70.6 -15.0 69.2 -14.0 68.45 -11.05 69.55 M-38.8 5.2 Q-31.55 2.9 -24.1 1.6 L-12.65 0.15 7.65 -1.6 15.3 -1.4 28.35 1.3 35.05 3.9 Q33.75 1.55 31.75 -0.2 L27.35 -3.25 Q25.8 -4.25 24.1 -4.8 L7.4 -7.55 -1.2 -7.55 -25.75 -5.7 -48.5 -3.15 -48.8 -2.85 -54.05 3.9 Q-55.35 5.9 -56.25 8.1 L-57.7 13.0 -59.1 21.75 -59.0 30.45 -58.0 36.9 -56.75 40.75 -53.0 47.95 -55.55 39.1 -52.85 44.95 -51.65 47.55 -50.9 48.7 Q-49.2 51.0 -46.35 51.8 L-43.8 52.4 -35.1 53.2 -29.9 52.4 Q-26.4 51.6 -22.95 50.45 L-15.1 47.85 Q-11.6 46.7 -8.0 45.95 L0.8 45.35 6.0 46.3 Q9.55 47.25 13.0 48.55 17.2 50.2 21.7 50.8 L31.8 50.35 Q36.65 49.65 39.45 45.5 42.2 41.45 43.2 36.7 L43.65 33.55 Q43.8 30.7 43.55 27.95 43.25 24.05 42.45 20.2 41.55 16.1 39.3 12.65 36.45 8.45 32.1 6.05 30.5 5.2 28.8 4.75 L22.15 3.6 8.55 2.75 -5.05 2.95 -11.9 3.45 -32.5 6.3 -39.85 6.05 -41.3 6.0 -38.8 5.2 M18.65 12.7 L6.65 11.85 Q-2.7 11.3 -9.3 11.45 L-29.2 13.6 -40.1 14.1 Q-42.25 15.95 -43.7 18.35 -47.8 25.0 -47.95 32.9 L-47.55 38.1 Q-46.95 41.85 -43.8 44.1 L-43.65 44.2 -43.6 44.25 -41.7 44.75 -41.3 44.95 -41.1 45.1 Q-28.25 44.95 -17.9 37.45 -7.85 30.15 4.7 33.85 12.4 36.15 19.55 39.9 25.5 43.05 32.2 42.05 37.55 38.4 36.95 31.6 36.55 27.1 34.65 23.1 29.95 13.3 18.65 12.7 M32.35 45.7 Q19.05 45.8 7.75 38.8 3.35 36.05 -2.1 35.9 -11.8 35.6 -19.45 41.65 -30.35 50.25 -43.8 46.9 L-45.05 46.2 Q-50.75 42.65 -51.15 35.8 -51.4 33.85 -51.25 31.8 -50.65 23.5 -46.55 16.35 -44.35 12.5 -40.2 11.8 L-28.55 10.25 -2.7 9.05 16.2 9.7 Q26.1 10.0 33.7 16.25 41.25 22.45 40.5 34.35 40.3 37.5 38.7 40.2 36.55 43.9 32.35 45.7" fill="#000000" fill-rule="evenodd" stroke="none"/>
    <path d="M33.6 -74.4 Q34.05 -75.8 35.8 -76.15 L37.85 -76.25 47.2 -74.5 50.5 -74.7 Q53.0 -75.1 54.75 -77.0 L58.75 -76.5 58.7 -74.0 50.65 -66.05 50.2 -67.05 Q49.7 -60.4 50.05 -53.8 L51.4 -23.1 50.45 36.95 50.0 42.0 48.1 51.65 43.7 63.1 41.9 66.25 39.2 69.9 37.15 71.7 Q35.4 72.8 33.5 73.7 L29.45 75.1 Q25.15 76.5 20.6 76.85 L4.8 76.3 Q0.6 75.55 -3.25 73.65 L-7.95 71.2 Q-9.5 70.3 -11.05 69.55 L-11.2 69.05 -12.05 67.8 -11.85 65.9 -11.75 65.6 Q-9.0 63.4 -5.65 62.3 -1.9 66.25 4.05 68.0 16.4 71.6 26.75 67.65 31.5 67.65 35.35 65.0 L36.25 64.35 Q42.2 62.45 43.5 54.55 44.45 48.55 44.5 42.75 L46.0 37.25 Q46.75 34.4 46.6 31.25 L44.9 16.3 Q45.5 -1.1 45.15 -18.75 44.9 -31.45 46.1 -44.05 47.6 -60.05 40.6 -73.35 L40.15 -73.55 36.8 -74.3 33.6 -74.4 M-39.85 6.05 L-32.5 6.3 -11.9 3.45 -5.05 2.95 8.55 2.75 22.15 3.6 28.8 4.75 Q30.5 5.2 32.1 6.05 36.45 8.45 39.3 12.65 41.55 16.1 42.45 20.2 43.25 24.05 43.55 27.95 43.8 30.7 43.65 33.55 L43.2 36.7 Q42.2 41.45 39.45 45.5 36.65 49.65 31.8 50.35 L21.7 50.8 Q17.2 50.2 13.0 48.55 9.55 47.25 6.0 46.3 L0.8 45.35 -8.0 45.95 Q-11.6 46.7 -15.1 47.85 L-22.95 50.45 Q-26.4 51.6 -29.9 52.4 L-35.1 53.2 -43.8 52.4 -46.35 51.8 Q-49.2 51.0 -50.9 48.7 L-51.65 47.55 -52.85 44.95 Q-56.0 30.25 -51.55 15.55 -46.65 7.85 -39.85 6.05 M32.35 45.7 Q36.55 43.9 38.7 40.2 40.3 37.5 40.5 34.35 41.25 22.45 33.7 16.25 26.1 10.0 16.2 9.7 L-2.7 9.05 -28.55 10.25 -40.2 11.8 Q-44.35 12.5 -46.55 16.35 -50.65 23.5 -51.25 31.8 -51.4 33.85 -51.15 35.8 -50.75 42.65 -45.05 46.2 L-43.8 46.9 Q-30.35 50.25 -19.45 41.65 -11.8 35.6 -2.1 35.9 3.35 36.05 7.75 38.8 19.05 45.8 32.35 45.7" fill="#33ff00" fill-rule="evenodd" stroke="none"/>
    <path d="M-11.05 69.55 L-14.0 68.45 -15.0 69.2 -13.6 70.6 -17.4 69.75 -16.5 62.5 Q-13.4 59.75 -9.85 58.3 -5.4 56.4 -0.55 56.8 L2.75 57.55 Q1.75 58.45 2.1 59.5 2.35 60.2 2.95 60.7 L5.25 62.55 Q9.8 65.5 14.9 66.75 20.65 68.15 26.75 67.65 16.4 71.6 4.05 68.0 -1.9 66.25 -5.65 62.3 -9.0 63.4 -11.75 65.6 L-11.85 65.9 -12.05 67.8 -11.2 69.05 -11.05 69.55 M36.25 64.35 Q39.95 61.55 40.35 56.95 40.5 55.2 40.3 53.55 L39.6 50.2 Q42.95 46.95 44.5 42.75 44.45 48.55 43.5 54.55 42.2 62.45 36.25 64.35 M44.9 16.3 Q44.0 12.5 41.85 9.35 L40.75 7.8 40.8 7.75 39.4 4.7 40.65 -12.0 40.85 -20.35 39.8 -65.65 Q39.75 -67.65 38.4 -69.1 L36.8 -70.65 36.05 -70.55 33.6 -72.3 33.6 -74.4 36.8 -74.3 40.15 -73.55 40.6 -73.35 Q47.6 -60.05 46.1 -44.05 44.9 -31.45 45.15 -18.75 45.5 -1.1 44.9 16.3 M-48.8 -2.85 L-48.5 -3.15 -25.75 -5.7 -1.2 -7.55 7.4 -7.55 24.1 -4.8 Q25.8 -4.25 27.35 -3.25 L31.75 -0.2 Q33.75 1.55 35.05 3.9 L28.35 1.3 15.3 -1.4 7.65 -1.6 -12.65 0.15 -24.1 1.6 Q-31.55 2.9 -38.8 5.2 -44.4 3.65 -48.6 -2.1 L-48.8 -2.85" fill="#00cc00" fill-rule="evenodd" stroke="none"/>
    <path d="M18.65 12.7 Q29.95 13.3 34.65 23.1 36.55 27.1 36.95 31.6 37.55 38.4 32.2 42.05 25.5 43.05 19.55 39.9 12.4 36.15 4.7 33.85 -7.85 30.15 -17.9 37.45 -28.25 44.95 -41.1 45.1 L-41.3 44.95 -41.7 44.75 -43.6 44.25 -43.65 44.2 -43.8 44.1 Q-46.95 41.85 -47.55 38.1 L-47.95 32.9 Q-47.8 25.0 -43.7 18.35 -42.25 15.95 -40.1 14.1 L-29.2 13.6 -9.3 11.45 Q-2.7 11.3 6.65 11.85 L18.65 12.7" fill="#00ccff" fill-opacity="0.14901961" fill-rule="evenodd" stroke="none"/>
    <path d="M-38.8 5.2 L-41.3 6.0 -39.85 6.05 Q-46.65 7.85 -51.55 15.55 -56.0 30.25 -52.85 44.95 L-55.55 39.1 -53.0 47.95 -56.75 40.75 -58.0 36.9 -59.0 30.45 -59.1 21.75 -57.7 13.0 -56.25 8.1 Q-55.35 5.9 -54.05 3.9 L-48.8 -2.85 -48.6 -2.1 Q-44.4 3.65 -38.8 5.2" fill="#2de500" fill-rule="evenodd" stroke="none"/>
  </g>
</svg>
