<?xml version="1.0" encoding="UTF-8" standalone="no"?>
<svg xmlns:xlink="http://www.w3.org/1999/xlink" height="41.4px" width="41.4px" xmlns="http://www.w3.org/2000/svg">
  <g transform="matrix(1.0, 0.0, 0.0, 1.0, 20.7, 20.7)">
    <path d="M-6.75 -6.8 Q-11.5 -4.8 -15.5 -1.65 L-15.9 -2.35 Q-16.2 -3.5 -13.15 -8.8 -10.1 -14.1 -3.55 -15.0 -7.05 -10.9 -6.75 -6.8" fill="#ccffff" fill-rule="evenodd" stroke="none"/>
    <path d="M-0.05 -19.7 Q8.15 -19.7 13.9 -13.95 19.7 -8.15 19.7 0.0 19.7 8.2 13.9 13.95 8.15 19.7 -0.05 19.7 -8.2 19.7 -13.95 13.95 -19.7 8.2 -19.7 0.0 -19.7 -8.15 -13.95 -13.95 -8.2 -19.7 -0.05 -19.7 M-6.75 -6.8 Q-7.05 -10.9 -3.55 -15.0 -10.1 -14.1 -13.15 -8.8 -16.2 -3.5 -15.9 -2.35 L-15.5 -1.65 Q-11.5 -4.8 -6.75 -6.8" fill="#99ffff" fill-opacity="0.2" fill-rule="evenodd" stroke="none"/>
    <path d="M-0.05 -19.7 Q8.15 -19.7 13.9 -13.95 19.7 -8.15 19.7 0.0 19.7 8.2 13.9 13.95 8.15 19.7 -0.05 19.7 -8.2 19.7 -13.95 13.95 -19.7 8.2 -19.7 0.0 -19.7 -8.15 -13.95 -13.95 -8.2 -19.7 -0.05 -19.7 Z" fill="none" stroke="#99ffff" stroke-linecap="round" stroke-linejoin="round" stroke-width="2.0"/>
  </g>
</svg>
