<?xml version="1.0" encoding="UTF-8" standalone="no"?>
<svg xmlns:xlink="http://www.w3.org/1999/xlink" height="447.05px" width="587.6px" xmlns="http://www.w3.org/2000/svg">
  <g transform="matrix(1.0, 0.0, 0.0, 1.0, -34.45, -15.9)">
    <path d="M613.45 243.25 L612.85 242.0 612.3 245.05 Q611.1 242.35 609.2 239.85 L607.95 238.25 608.25 241.05 Q606.05 238.95 603.15 238.75 600.75 238.35 598.65 239.65 596.65 240.9 595.0 242.8 590.45 248.0 589.2 254.75 L589.6 255.2 592.8 252.3 591.25 257.55 591.95 260.25 Q593.25 264.2 592.4 269.9 L594.9 265.85 Q596.25 264.1 597.85 263.1 599.6 262.05 601.35 262.15 L603.45 262.65 Q604.6 263.2 605.15 264.15 605.75 265.15 605.6 266.3 605.3 268.8 602.65 269.55 601.3 269.95 600.6 270.3 L599.3 271.1 601.7 272.5 603.85 274.6 609.85 273.3 605.5 272.45 611.45 269.5 608.75 269.35 Q612.3 266.9 614.65 263.35 616.4 260.65 617.55 257.65 L617.75 257.15 615.25 259.15 615.9 257.0 Q617.45 252.05 615.7 247.3 L615.3 246.5 614.35 249.55 614.3 249.4 Q614.7 246.1 613.45 243.25 M565.75 315.8 L565.65 314.0 Q565.6 309.6 565.7 305.2 L565.7 298.55 565.2 294.8 565.8 289.2 Q566.0 285.15 565.75 281.15 L565.5 278.05 565.2 276.4 565.2 274.85 Q565.4 273.7 566.1 272.55 566.8 271.35 567.6 270.75 L568.5 270.2 572.15 268.65 571.85 262.9 Q571.75 261.55 572.05 260.35 573.2 256.5 576.4 254.2 577.95 253.2 579.65 253.8 580.55 254.15 580.8 255.1 L581.15 257.55 581.15 257.65 Q581.35 259.7 580.8 261.6 L580.15 263.95 Q581.1 262.65 582.6 262.65 583.85 262.7 584.4 264.1 L585.15 266.4 585.45 267.8 587.0 267.95 584.8 262.7 Q584.05 260.65 583.75 258.45 L583.7 257.65 583.85 256.05 Q584.05 255.3 584.55 254.7 585.35 253.8 585.95 253.7 L587.45 253.6 Q588.15 253.7 588.5 254.2 589.75 247.75 592.9 243.7 594.55 241.5 596.2 240.3 598.3 238.6 601.85 237.95 L604.9 238.4 Q605.45 238.5 606.3 238.95 L607.6 239.75 607.45 237.05 Q608.9 238.15 610.05 239.8 L612.15 243.5 612.65 241.0 Q613.55 241.75 613.9 242.9 L614.85 246.0 615.0 245.85 615.1 245.8 615.2 245.85 Q616.2 246.75 616.75 248.15 617.15 249.0 617.15 250.65 617.2 254.95 616.4 257.65 L618.35 256.5 618.1 258.25 617.5 259.75 615.65 263.2 Q614.25 265.55 612.15 267.3 L610.25 268.9 612.45 269.05 612.4 269.55 607.55 272.1 610.95 273.05 610.9 273.45 604.2 275.05 604.4 275.9 603.05 284.9 Q602.6 288.5 602.75 292.15 L603.0 297.15 Q603.15 299.2 601.85 299.55 L601.8 313.05 Q602.5 317.2 598.9 319.3 L596.7 320.45 589.4 322.25 Q584.5 322.95 579.55 322.05 L574.4 320.9 Q569.1 319.85 565.75 315.8 M591.4 254.4 L590.15 255.8 590.6 256.45 591.4 254.4 M590.25 257.65 L589.0 255.65 Q588.25 254.7 587.4 254.55 586.7 254.35 586.2 254.75 585.25 255.35 584.8 256.15 584.45 256.9 584.5 257.65 L584.5 257.8 586.25 264.1 Q588.15 264.45 589.95 263.55 589.35 264.6 588.05 264.8 L586.4 264.55 587.9 268.4 591.15 268.25 590.9 268.55 588.0 268.8 588.25 272.2 Q589.5 273.3 591.0 272.7 L590.25 273.3 588.2 272.6 587.6 276.05 589.15 276.95 589.85 276.6 Q593.1 268.2 590.9 259.4 L590.25 257.65 M596.25 271.95 L594.05 270.15 596.4 271.5 597.95 271.4 Q600.4 269.65 603.1 268.35 L604.0 267.65 Q605.6 265.65 603.95 263.7 602.25 262.5 600.2 262.9 597.6 263.4 595.9 265.55 593.8 268.2 592.75 271.7 L592.05 274.55 592.05 274.8 591.35 280.0 591.5 280.95 594.5 280.55 594.55 279.95 595.25 276.1 594.45 276.05 593.35 275.75 594.55 275.75 595.4 275.75 595.95 274.5 595.1 274.45 593.1 273.1 595.2 274.1 596.1 274.05 597.55 271.9 596.25 271.95 M598.45 272.05 L600.65 273.45 602.3 274.9 Q603.55 276.0 602.9 277.4 L603.65 275.9 Q603.15 274.45 602.05 273.5 L598.9 271.6 598.45 272.05 M577.65 264.45 L579.5 263.5 Q580.8 260.7 580.5 257.65 L580.15 255.2 Q579.7 254.3 578.95 254.3 576.6 254.7 575.05 256.5 571.95 260.35 572.65 265.35 L573.4 270.4 573.55 270.85 574.75 278.1 574.95 279.85 576.35 280.35 580.4 280.85 579.2 278.5 578.6 277.4 576.4 277.35 578.45 277.15 577.55 273.75 576.8 273.9 Q576.1 274.15 575.2 273.6 L574.85 273.3 576.8 273.35 577.45 273.1 577.65 269.25 576.85 269.0 573.75 269.4 576.8 268.6 576.9 268.6 577.6 268.85 577.7 268.9 579.2 264.4 577.4 265.05 Q575.65 265.15 574.35 263.95 L573.75 263.35 Q574.55 264.0 575.9 264.45 576.8 264.8 577.65 264.45 M568.5 271.05 L567.05 272.35 Q565.4 274.25 567.35 276.15 L566.55 274.45 567.55 275.9 Q567.05 274.65 567.9 273.5 L568.5 272.85 Q569.75 271.35 571.6 270.75 572.0 270.55 572.5 270.45 L572.3 269.5 Q570.6 269.9 569.1 270.75 L568.5 271.05 M578.25 268.55 L578.1 269.25 578.85 269.2 578.85 268.55 578.25 268.55 M578.25 274.05 L581.0 280.95 581.5 280.95 581.1 276.85 580.4 274.4 Q579.65 272.55 579.2 270.75 L578.95 269.65 578.15 269.8 578.05 272.2 578.05 272.7 578.2 273.7 578.25 274.05 M581.0 264.0 Q580.05 265.1 579.7 266.4 579.45 267.4 579.5 268.5 L579.9 270.75 581.9 276.9 582.45 277.05 583.95 276.85 584.45 273.85 583.55 273.7 581.85 273.0 584.5 273.5 584.85 270.15 584.5 270.45 Q583.8 271.0 582.95 270.9 582.3 270.75 581.7 270.4 L582.85 270.65 Q584.0 270.55 584.85 269.7 585.15 269.9 584.75 267.3 584.4 264.65 583.0 263.5 581.75 263.1 581.0 264.0 M587.35 269.5 L587.1 268.65 585.5 268.5 585.55 269.15 586.75 269.45 585.7 269.45 Q585.0 272.75 584.65 276.0 584.3 279.9 584.75 280.85 L585.5 279.55 Q588.05 274.85 587.35 269.5 M583.9 278.7 L583.9 277.2 582.45 277.45 582.0 277.25 582.05 279.75 581.95 280.95 584.4 281.15 584.15 280.4 Q583.9 279.65 583.9 278.7 M585.8 280.05 L585.05 281.15 587.8 281.2 588.25 280.55 590.15 276.95 Q589.9 277.2 589.55 277.25 L587.5 276.45 585.8 280.05 M586.85 284.35 L584.75 284.35 581.95 284.2 576.35 283.45 576.8 283.45 591.75 283.75 592.5 283.95 586.85 284.35 M600.05 283.55 Q601.85 281.55 602.85 278.4 L600.25 279.55 Q597.35 280.9 594.2 281.45 L585.0 282.1 578.5 281.4 574.0 280.25 Q571.0 279.3 568.5 277.65 L565.55 275.25 566.25 276.7 Q567.15 278.35 568.5 279.6 570.0 281.0 572.05 282.05 L571.3 281.9 568.5 280.25 566.3 278.0 566.7 283.45 566.35 291.75 566.0 294.1 Q565.75 295.45 566.75 296.4 569.4 299.0 572.95 300.35 L574.95 301.0 573.15 300.8 566.6 297.3 566.55 308.2 Q566.35 311.55 566.85 314.75 L567.45 315.9 568.7 317.15 Q570.75 318.8 573.4 319.65 L581.9 321.35 585.05 321.5 586.75 321.45 Q591.7 321.4 596.45 319.7 598.65 318.8 600.25 317.1 601.15 316.15 601.1 314.75 L600.85 299.5 596.35 301.15 591.35 301.9 589.5 301.7 596.55 300.55 601.25 298.6 602.15 298.05 602.05 284.75 602.45 280.4 Q601.85 282.5 600.05 283.55 M571.0 274.0 L571.8 273.75 Q570.2 275.65 570.25 278.05 L574.35 279.7 573.05 272.7 572.65 270.95 Q570.05 271.55 568.5 273.65 L568.4 273.8 Q568.15 274.2 568.15 274.75 568.2 275.7 568.5 276.5 L568.8 277.1 569.65 277.7 Q569.45 276.5 569.95 275.6 L571.0 274.0 M598.5 272.4 L598.3 272.25 598.25 272.3 596.9 274.4 Q595.7 276.55 595.3 278.95 L595.05 280.45 Q598.85 279.95 601.95 277.95 602.4 277.6 602.25 276.9 601.75 274.2 599.25 272.85 L598.5 272.4 M588.8 280.5 L588.15 281.3 591.15 281.05 590.9 280.15 591.25 275.85 588.8 280.5 M587.2 302.0 L589.75 302.4 587.15 302.2 586.4 302.0 587.2 302.0" fill="#000000" fill-rule="evenodd" stroke="none"/>
    <path d="M592.8 252.3 L589.6 255.2 589.2 254.75 Q590.45 248.0 595.0 242.8 596.65 240.9 598.65 239.65 600.75 238.35 603.15 238.75 606.05 238.95 608.25 241.05 L607.95 238.25 609.2 239.85 Q611.1 242.35 612.3 245.05 L612.85 242.0 613.45 243.25 Q614.15 245.75 613.0 248.25 L612.05 250.3 610.15 241.8 609.75 244.1 607.35 241.2 Q606.95 240.7 606.35 240.55 604.05 239.35 601.55 239.95 597.0 241.15 594.45 245.25 592.5 248.25 591.35 251.65 L594.05 249.25 592.8 252.3 M615.7 247.3 Q617.45 252.05 615.9 257.0 L615.25 259.15 617.75 257.15 617.55 257.65 Q616.4 260.65 614.65 263.35 612.3 266.9 608.75 269.35 L611.45 269.5 605.5 272.45 609.85 273.3 603.85 274.6 601.7 272.5 605.05 273.25 606.05 273.0 602.1 271.25 607.65 270.55 604.25 269.15 Q606.75 268.7 608.75 267.2 611.25 265.35 612.9 262.65 L614.65 259.6 611.7 261.7 Q613.05 259.75 614.0 257.65 615.7 253.6 615.85 249.05 L615.7 247.3 M594.9 265.85 L592.4 269.9 Q593.25 264.2 591.95 260.25 L591.25 257.55 Q592.7 256.15 594.2 255.25 595.0 254.75 595.95 254.85 595.25 256.2 594.85 257.65 593.7 261.6 594.9 265.85" fill="#d6cdc0" fill-rule="evenodd" stroke="none"/>
    <path d="M613.45 243.25 Q614.7 246.1 614.3 249.4 L614.35 249.55 615.3 246.5 615.7 247.3 615.85 249.05 Q615.7 253.6 614.0 257.65 613.05 259.75 611.7 261.7 L614.65 259.6 612.9 262.65 Q611.25 265.35 608.75 267.2 606.75 268.7 604.25 269.15 L607.65 270.55 602.1 271.25 606.05 273.0 605.05 273.25 601.7 272.5 599.3 271.1 600.6 270.3 Q601.3 269.95 602.65 269.55 605.3 268.8 605.6 266.3 605.75 265.15 605.15 264.15 604.6 263.2 603.45 262.65 L601.35 262.15 Q599.6 262.05 597.85 263.1 596.25 264.1 594.9 265.85 593.7 261.6 594.85 257.65 595.25 256.2 595.95 254.85 595.0 254.75 594.2 255.25 592.7 256.15 591.25 257.55 L592.8 252.3 594.05 249.25 591.35 251.65 Q592.5 248.25 594.45 245.25 597.0 241.15 601.55 239.95 604.05 239.35 606.35 240.55 606.95 240.7 607.35 241.2 L609.75 244.1 610.15 241.8 612.05 250.3 613.0 248.25 Q614.15 245.75 613.45 243.25" fill="#b5ac9f" fill-rule="evenodd" stroke="none"/>
    <path d="M590.25 257.65 L590.9 259.4 Q593.1 268.2 589.85 276.6 L589.15 276.95 587.6 276.05 588.2 272.6 590.25 273.3 591.0 272.7 Q589.5 273.3 588.25 272.2 L588.0 268.8 590.9 268.55 591.15 268.25 587.9 268.4 586.4 264.55 588.05 264.8 Q589.35 264.6 589.95 263.55 588.15 264.45 586.25 264.1 L584.5 257.8 584.5 257.65 Q584.45 256.9 584.8 256.15 585.25 255.35 586.2 254.75 586.7 254.35 587.4 254.55 588.25 254.7 589.0 255.65 L590.25 257.65 M596.4 271.5 L594.05 270.15 596.25 271.95 595.2 274.1 593.1 273.1 595.1 274.45 594.55 275.75 593.35 275.75 594.45 276.05 592.55 278.85 Q591.95 277.65 591.95 276.35 L592.05 274.8 592.05 274.55 592.75 271.7 Q594.55 266.8 599.1 264.55 L604.25 264.4 604.15 265.7 603.75 266.3 Q602.55 267.6 600.6 268.0 597.5 268.7 596.4 271.5 M577.65 264.45 Q576.8 264.8 575.9 264.45 574.55 264.0 573.75 263.35 L574.35 263.95 Q575.65 265.15 577.4 265.05 577.0 265.75 576.9 266.4 L576.75 267.85 576.8 268.6 573.75 269.4 576.85 269.0 576.8 273.35 574.85 273.3 575.2 273.6 Q576.1 274.15 576.8 273.9 L576.25 276.25 575.65 276.65 573.55 270.85 573.4 270.4 572.95 266.4 Q572.5 261.25 575.6 257.3 577.65 254.65 580.3 256.45 L580.25 257.65 Q580.0 259.45 578.8 261.95 L577.65 264.45 M582.45 277.05 Q581.6 273.9 581.2 270.75 L580.9 266.4 581.0 264.0 Q581.75 263.1 583.0 263.5 584.4 264.65 584.75 267.3 585.15 269.9 584.85 269.7 584.0 270.55 582.85 270.65 L581.7 270.4 Q582.3 270.75 582.95 270.9 583.8 271.0 584.5 270.45 L584.85 270.15 584.5 273.5 581.85 273.0 583.55 273.7 584.45 273.85 583.95 276.85 582.45 277.05 M582.45 277.45 L583.9 277.2 583.9 278.7 583.3 279.7 582.45 277.45 M587.5 276.45 L589.55 277.25 Q588.85 278.5 588.0 278.9 L587.35 278.95 587.5 276.45" fill="#ffcccc" fill-rule="evenodd" stroke="none"/>
    <path d="M604.25 264.4 L599.1 264.55 Q594.55 266.8 592.75 271.7 593.8 268.2 595.9 265.55 597.6 263.4 600.2 262.9 602.25 262.5 603.95 263.7 L604.25 264.4 M573.4 270.4 L572.65 265.35 Q571.95 260.35 575.05 256.5 576.6 254.7 578.95 254.3 579.7 254.3 580.15 255.2 L580.3 256.45 Q577.65 254.65 575.6 257.3 572.5 261.25 572.95 266.4 L573.4 270.4" fill="#ffe3e3" fill-rule="evenodd" stroke="none"/>
    <path d="M596.4 271.5 Q597.5 268.7 600.6 268.0 602.55 267.6 603.75 266.3 L604.15 265.7 604.25 264.4 603.95 263.7 Q605.6 265.65 604.0 267.65 L603.1 268.35 Q600.4 269.65 597.95 271.4 L596.4 271.5 M592.05 274.8 L591.95 276.35 Q591.95 277.65 592.55 278.85 L594.45 276.05 595.25 276.1 594.55 279.95 594.15 280.15 591.35 280.0 592.05 274.8 M594.55 275.75 L595.1 274.45 595.95 274.5 595.4 275.75 594.55 275.75 M595.2 274.1 L596.25 271.95 597.55 271.9 596.1 274.05 595.2 274.1 M580.15 255.2 L580.5 257.65 Q580.8 260.7 579.5 263.5 L577.65 264.45 578.8 261.95 Q580.0 259.45 580.25 257.65 L580.3 256.45 580.15 255.2 M577.4 265.05 L579.2 264.4 577.7 268.9 577.6 268.85 576.9 268.6 576.8 268.6 576.75 267.85 576.9 266.4 Q577.0 265.75 577.4 265.05 M576.85 269.0 L577.65 269.25 577.45 273.1 576.8 273.35 576.85 269.0 M576.8 273.9 L577.55 273.75 578.45 277.15 576.4 277.35 578.6 277.4 579.2 278.5 578.5 278.95 576.6 279.15 Q575.5 278.95 574.75 278.1 L573.55 270.85 575.65 276.65 576.25 276.25 576.8 273.9 M581.0 264.0 L580.9 266.4 581.2 270.75 Q581.6 273.9 582.45 277.05 L581.9 276.9 579.9 270.75 579.5 268.5 Q579.45 267.4 579.7 266.4 580.05 265.1 581.0 264.0 M582.45 277.45 L583.3 279.7 583.9 278.7 Q583.9 279.65 584.15 280.4 583.15 280.9 582.45 280.15 L582.05 279.75 582.0 277.25 582.45 277.45 M588.25 280.55 L585.8 280.05 587.5 276.45 587.35 278.95 588.0 278.9 Q588.85 278.5 589.55 277.25 589.9 277.2 590.15 276.95 L588.25 280.55" fill="#deabab" fill-rule="evenodd" stroke="none"/>
    <path d="M598.45 272.05 L598.9 271.6 602.05 273.5 Q603.15 274.45 603.65 275.9 L602.9 277.4 Q603.55 276.0 602.3 274.9 L600.65 273.45 598.45 272.05 M568.5 271.05 L569.1 270.75 Q570.6 269.9 572.3 269.5 L572.5 270.45 Q572.0 270.55 571.6 270.75 569.75 271.35 568.5 272.85 L567.9 273.5 Q567.05 274.65 567.55 275.9 L566.55 274.45 567.35 276.15 Q565.4 274.25 567.05 272.35 L568.5 271.05 M578.25 268.55 L578.85 268.55 578.85 269.2 578.1 269.25 578.25 268.55 M586.75 269.45 L585.55 269.15 585.5 268.5 587.1 268.65 587.35 269.5 586.75 269.45 M598.5 272.4 L598.25 272.3 598.3 272.25 598.5 272.4" fill="#333333" fill-rule="evenodd" stroke="none"/>
    <path d="M580.4 280.85 L576.35 280.35 576.15 280.1 580.4 280.85 M578.05 272.2 L578.15 269.8 578.95 269.65 579.2 270.75 Q579.65 272.55 580.4 274.4 L581.1 276.85 581.5 280.95 581.0 280.95 578.25 274.05 578.5 273.9 578.65 273.75 578.5 273.7 578.2 273.7 578.05 272.7 578.5 272.5 578.95 272.4 578.05 272.2 M586.75 269.45 L587.35 269.5 Q588.05 274.85 585.5 279.55 L584.75 280.85 Q584.3 279.9 584.65 276.0 585.0 272.75 585.7 269.45 L586.75 269.45 M571.0 274.0 L569.95 275.6 Q569.45 276.5 569.65 277.7 L568.8 277.1 568.5 276.5 Q568.2 275.7 568.15 274.75 568.15 274.2 568.4 273.8 L568.5 273.65 Q570.05 271.55 572.65 270.95 L573.05 272.7 571.0 274.0 M598.25 272.3 L598.5 272.4 599.25 272.85 599.65 273.3 600.3 274.35 Q600.5 276.7 596.25 278.55 L595.3 278.95 Q595.7 276.55 596.9 274.4 L598.25 272.3 M590.9 280.15 L588.8 280.5 591.25 275.85 590.9 280.15" fill="#232323" fill-rule="evenodd" stroke="none"/>
    <path d="M576.35 280.35 L574.95 279.85 576.15 280.1 576.35 280.35 M578.05 272.2 L578.95 272.4 578.5 272.5 578.05 272.7 578.05 272.2 M578.2 273.7 L578.5 273.7 578.65 273.75 578.5 273.9 578.25 274.05 578.2 273.7 M573.05 272.7 L574.35 279.7 570.25 278.05 Q570.2 275.65 571.8 273.75 L571.0 274.0 573.05 272.7 M595.3 278.95 L596.25 278.55 Q600.5 276.7 600.3 274.35 L599.65 273.3 599.25 272.85 Q601.75 274.2 602.25 276.9 602.4 277.6 601.95 277.95 598.85 279.95 595.05 280.45 L595.3 278.95 M588.8 280.5 L590.9 280.15 591.15 281.05 588.15 281.3 588.8 280.5" fill="#121212" fill-rule="evenodd" stroke="none"/>
    <path d="M579.2 278.5 L580.4 280.85 576.15 280.1 574.95 279.85 574.75 278.1 Q575.5 278.95 576.6 279.15 L578.5 278.95 579.2 278.5 M584.15 280.4 L584.4 281.15 581.95 280.95 582.05 279.75 582.45 280.15 Q583.15 280.9 584.15 280.4 M588.25 280.55 L587.8 281.2 585.05 281.15 585.8 280.05 588.25 280.55 M594.55 279.95 L594.5 280.55 591.5 280.95 591.35 280.0 594.15 280.15 594.55 279.95" fill="#bd8a8a" fill-rule="evenodd" stroke="none"/>
    <path d="M584.75 284.35 L586.85 284.35 587.0 287.85 584.7 288.1 584.75 284.35 M576.8 283.45 L576.35 283.45 581.95 284.2 581.85 288.4 573.25 287.8 573.25 282.4 576.8 283.45 M573.4 318.9 L573.35 316.55 575.15 317.0 581.9 317.6 581.85 320.5 Q577.35 320.05 573.4 318.9 M585.1 317.4 L586.95 317.15 587.0 320.55 586.35 320.75 585.15 320.75 585.1 317.4" fill="#919191" fill-rule="evenodd" stroke="none"/>
    <path d="M591.75 283.75 L576.8 283.45 573.25 282.4 572.05 282.05 Q570.0 281.0 568.5 279.6 567.15 278.35 566.25 276.7 L565.55 275.25 568.5 277.65 Q571.0 279.3 574.0 280.25 L578.5 281.4 585.0 282.1 594.2 281.45 Q597.35 280.9 600.25 279.55 L602.85 278.4 Q601.85 281.55 600.05 283.55 L591.75 283.75 M602.05 284.75 L602.15 298.05 601.25 298.6 601.85 297.3 Q600.7 296.45 600.75 295.05 600.95 290.0 601.3 285.0 L602.05 284.75 M596.55 300.55 L589.5 301.7 591.35 301.9 596.35 301.15 Q596.8 306.35 596.2 311.5 596.0 313.3 594.55 314.4 591.15 317.0 586.95 317.15 L587.15 302.2 589.75 302.4 587.2 302.0 587.0 287.85 595.75 286.35 595.65 298.25 596.55 299.7 596.55 300.55 M600.85 299.5 L601.1 314.75 Q601.15 316.15 600.25 317.1 598.65 318.8 596.45 319.7 591.7 321.4 586.75 321.45 L587.0 320.6 Q592.4 320.6 597.15 318.1 599.35 316.95 599.75 314.55 L600.85 299.5 M585.05 321.5 L581.9 321.35 581.85 320.5 585.15 320.75 586.35 320.75 585.15 320.9 585.05 321.5 M573.4 319.65 Q570.75 318.8 568.7 317.15 L567.45 315.9 568.3 316.55 Q570.55 318.4 573.4 318.9 L573.4 319.65 M566.85 314.75 Q566.35 311.55 566.55 308.2 L566.6 297.3 573.15 300.8 573.35 316.55 Q571.35 316.15 569.8 314.9 569.15 314.25 569.2 313.4 L569.25 310.95 568.95 308.15 567.6 303.1 567.85 308.35 Q567.9 309.25 567.55 310.2 566.75 312.4 566.85 314.75 M572.95 300.35 Q569.4 299.0 566.75 296.4 565.75 295.45 566.0 294.1 L566.35 291.75 566.7 283.45 Q569.05 286.25 572.2 287.4 L573.25 287.8 573.65 298.4 572.05 299.05 572.95 300.35 M581.85 288.4 L584.7 288.1 584.7 307.9 585.1 317.4 581.9 317.6 582.0 308.5 Q582.05 306.15 581.5 303.95 L580.9 301.6 Q581.65 300.15 581.65 298.55 L581.85 288.4" fill="#999999" fill-rule="evenodd" stroke="none"/>
    <path d="M586.85 284.35 L592.5 283.95 591.75 283.75 600.05 283.55 Q601.85 282.5 602.45 280.4 L602.05 284.75 601.3 285.0 Q600.95 290.0 600.75 295.05 600.7 296.45 601.85 297.3 L601.25 298.6 596.55 300.55 596.55 299.7 595.65 298.25 595.75 286.35 587.0 287.85 586.85 284.35 M581.95 284.2 L584.75 284.35 584.7 288.1 581.85 288.4 581.95 284.2 M596.35 301.15 L600.85 299.5 599.75 314.55 Q599.35 316.95 597.15 318.1 592.4 320.6 587.0 320.6 L586.35 320.75 587.0 320.55 586.95 317.15 Q591.15 317.0 594.55 314.4 596.0 313.3 596.2 311.5 596.8 306.35 596.35 301.15 M567.45 315.9 L566.85 314.75 Q566.75 312.4 567.55 310.2 567.9 309.25 567.85 308.35 L567.6 303.1 568.95 308.15 569.25 310.95 569.2 313.4 Q569.15 314.25 569.8 314.9 571.35 316.15 573.35 316.55 L573.4 318.9 Q570.55 318.4 568.3 316.55 L567.45 315.9 M566.7 283.45 L566.3 278.0 568.5 280.25 571.3 281.9 572.05 282.05 573.25 282.4 573.25 287.8 572.2 287.4 Q569.05 286.25 566.7 283.45 M581.9 317.6 L585.1 317.4 585.15 320.75 581.85 320.5 581.9 317.6" fill="#787878" fill-rule="evenodd" stroke="none"/>
    <path d="M584.7 288.1 L587.0 287.85 587.2 302.0 586.4 302.0 587.15 302.2 586.95 317.15 585.1 317.4 584.7 307.9 584.7 288.1" fill="#ababab" fill-rule="evenodd" stroke="none"/>
    <path d="M573.15 300.8 L574.95 301.0 572.95 300.35 572.05 299.05 573.65 298.4 573.25 287.8 581.85 288.4 581.65 298.55 Q581.65 300.15 580.9 301.6 L581.5 303.95 Q582.05 306.15 582.0 308.5 L581.9 317.6 575.15 317.0 573.35 316.55 573.15 300.8" fill="#bdbdbd" fill-rule="evenodd" stroke="none"/>
    <path d="M565.75 315.8 Q569.1 319.85 574.4 320.9 L579.55 322.05 Q584.5 322.95 589.4 322.25 L596.7 320.45 598.9 319.3 Q602.5 317.2 601.8 313.05 604.8 313.6 607.45 315.3 608.95 316.25 609.55 318.05 L612.35 318.35 Q615.55 319.15 618.75 320.2 L620.15 320.8 Q621.9 321.75 622.05 323.6 622.15 324.9 621.2 325.5 L618.45 326.85 Q614.4 328.5 609.75 328.7 L599.45 328.75 597.0 328.1 Q593.3 327.1 589.4 327.05 L582.2 326.4 575.1 324.95 568.2 322.7 566.05 321.45 Q564.0 320.05 564.1 317.8 L565.75 315.8" fill="url(#gradient0)" fill-rule="evenodd" stroke="none"/>
    <path d="M586.75 321.45 L585.05 321.5 585.15 320.9 586.35 320.75 587.0 320.6 586.75 321.45 M581.9 321.35 L573.4 319.65 573.4 318.9 Q577.35 320.05 581.85 320.5 L581.9 321.35" fill="#c7c7c7" fill-rule="evenodd" stroke="none"/>
    <path d="M177.55 253.75 Q176.6 249.3 172.3 247.85 154.05 241.25 135.05 236.65 129.0 235.1 122.8 234.5 L116.05 234.7 Q102.25 237.65 88.8 242.3 69.4 248.9 49.55 254.15 42.15 255.95 36.55 261.1 L36.35 264.95 Q35.55 261.45 37.8 258.9 39.0 257.55 40.8 256.8 45.95 254.5 51.35 252.75 71.55 246.35 91.95 240.4 105.5 236.4 119.2 233.35 L122.35 232.95 Q142.1 235.55 160.7 242.65 L175.35 248.05 Q177.4 248.75 177.5 250.85 L177.55 253.75 M91.1 279.25 Q114.55 270.75 138.6 262.8 154.75 257.45 170.4 251.3 170.3 253.8 165.7 255.4 L121.6 270.55 Q106.2 275.8 91.1 279.25 M77.65 277.3 Q57.4 272.4 40.2 260.75 62.25 270.75 85.15 278.9 L77.65 277.3" fill="#fcffff" fill-rule="evenodd" stroke="none"/>
    <path d="M177.55 253.75 L177.5 250.85 Q177.4 248.75 175.35 248.05 L160.7 242.65 Q142.1 235.55 122.35 232.95 L119.2 233.35 Q105.5 236.4 91.95 240.4 71.55 246.35 51.35 252.75 45.95 254.5 40.8 256.8 39.0 257.55 37.8 258.9 35.55 261.45 36.35 264.95 37.05 268.65 41.1 269.75 44.2 270.55 47.15 271.85 55.65 275.6 64.2 278.95 69.7 281.0 75.15 283.2 81.45 285.9 88.3 286.05 L88.55 279.75 88.9 286.05 Q107.5 281.7 125.4 274.7 150.05 265.15 175.2 257.2 177.65 256.4 177.55 253.75 M45.55 319.75 Q42.55 313.75 41.45 307.15 L39.7 290.25 Q38.55 280.25 37.85 270.0 32.95 265.9 35.15 259.55 36.3 256.2 39.6 255.1 72.15 244.0 105.3 235.2 L119.05 231.85 Q124.1 230.7 129.2 232.0 154.2 237.85 177.7 247.8 178.25 247.95 178.5 248.65 180.15 252.75 178.5 256.65 178.0 257.75 176.8 258.35 L174.95 259.05 Q172.6 275.5 171.4 291.95 170.95 298.2 169.55 304.0 167.5 311.05 160.95 314.25 144.6 322.35 127.3 328.4 117.65 331.95 108.15 335.85 99.05 339.45 89.25 340.35 77.4 340.5 66.9 334.8 L56.0 329.0 Q49.6 325.65 45.55 319.75 M121.0 256.55 L120.6 263.3 120.15 256.45 120.15 239.9 54.0 263.15 72.25 270.4 Q83.7 275.2 95.7 272.45 116.05 268.0 135.4 260.5 L159.35 252.25 121.05 240.05 121.0 256.55 M86.25 290.3 L86.3 287.8 77.8 285.45 Q58.3 278.7 39.3 270.55 L39.55 272.9 44.0 311.0 Q46.35 321.3 55.25 326.45 62.55 330.65 70.05 334.3 80.15 339.25 91.1 338.4 98.95 337.35 106.3 334.45 126.1 326.8 146.05 319.6 156.15 315.95 164.65 309.65 166.4 308.25 167.15 306.15 L167.9 303.95 172.8 261.85 173.1 259.75 Q158.95 263.35 145.5 268.6 126.0 276.4 106.1 283.2 96.8 286.45 87.3 287.8 L87.4 290.45 87.85 334.6 87.8 335.7 87.7 334.6 Q86.35 314.85 86.2 295.2 L86.25 290.3 M92.2 274.75 Q80.95 275.45 70.15 271.25 L59.1 266.7 Q51.2 263.45 43.65 259.6 81.35 246.15 119.95 235.65 140.65 240.4 160.9 247.15 L165.5 248.35 Q166.9 248.85 168.0 249.65 L168.0 250.65 142.5 259.8 Q122.35 267.1 101.7 272.9 L92.2 274.75 M161.2 251.4 L165.55 250.15 120.3 236.35 Q96.2 243.5 72.35 251.5 L47.15 259.5 53.25 262.8 120.1 238.55 161.2 251.4 M47.2 293.6 Q47.7 291.8 48.55 290.25 49.55 288.15 51.2 286.5 52.75 284.75 54.8 285.75 55.25 286.05 55.3 286.5 55.55 288.45 55.15 290.25 54.5 292.85 52.55 295.05 55.2 297.1 58.6 298.0 L60.7 298.2 Q62.6 298.15 63.6 296.9 64.45 295.8 64.75 293.55 64.95 292.3 65.5 291.65 66.05 291.0 67.15 290.65 L67.75 290.7 68.35 290.85 68.65 291.05 Q70.65 292.55 69.95 295.25 69.7 297.7 68.65 299.75 67.45 302.05 65.2 303.8 63.75 304.95 61.95 304.5 55.7 303.2 50.45 299.8 47.15 297.65 47.2 293.6 M53.9 286.55 L53.35 286.65 Q51.2 288.15 49.95 290.25 48.95 291.95 48.55 294.1 48.65 298.1 52.4 299.8 L59.1 302.6 Q60.8 303.35 62.7 303.35 64.4 303.15 65.5 301.9 68.25 298.95 68.65 294.95 L68.7 294.3 Q68.9 293.2 68.65 292.7 68.25 291.8 66.8 292.25 66.6 292.25 66.5 292.5 65.65 295.2 64.25 297.65 63.3 299.45 61.3 299.45 54.8 298.45 50.35 294.2 L51.4 294.6 Q52.85 292.6 53.75 290.25 L54.55 287.1 53.9 286.55" fill="#000000" fill-rule="evenodd" stroke="none"/>
    <path d="M36.35 264.95 L36.55 261.1 Q42.15 255.95 49.55 254.15 69.4 248.9 88.8 242.3 102.25 237.65 116.05 234.7 L122.8 234.5 Q129.0 235.1 135.05 236.65 154.05 241.25 172.3 247.85 176.6 249.3 177.55 253.75 177.65 256.4 175.2 257.2 150.05 265.15 125.4 274.7 107.5 281.7 88.9 286.05 L88.55 279.75 88.3 286.05 Q81.45 285.9 75.15 283.2 69.7 281.0 64.2 278.95 55.65 275.6 47.15 271.85 44.2 270.55 41.1 269.75 37.05 268.65 36.35 264.95 M92.2 274.75 L101.7 272.9 Q122.35 267.1 142.5 259.8 L168.0 250.65 168.0 249.65 Q166.9 248.85 165.5 248.35 L160.9 247.15 Q140.65 240.4 119.95 235.65 81.35 246.15 43.65 259.6 51.2 263.45 59.1 266.7 L70.15 271.25 Q80.95 275.45 92.2 274.75 M91.1 279.25 Q106.2 275.8 121.6 270.55 L165.7 255.4 Q170.3 253.8 170.4 251.3 154.75 257.45 138.6 262.8 114.55 270.75 91.1 279.25 M77.65 277.3 L85.15 278.9 Q62.25 270.75 40.2 260.75 57.4 272.4 77.65 277.3" fill="#dfffff" fill-rule="evenodd" stroke="none"/>
    <path d="M120.15 256.45 L120.6 263.3 121.0 256.55 135.4 260.5 Q116.05 268.0 95.7 272.45 83.7 275.2 72.25 270.4 92.5 263.6 113.15 258.0 116.6 256.95 120.15 256.45" fill="#b79d51" fill-rule="evenodd" stroke="none"/>
    <path d="M120.15 256.45 Q116.6 256.95 113.15 258.0 92.5 263.6 72.25 270.4 L54.0 263.15 120.15 239.9 120.15 256.45 M135.4 260.5 L121.0 256.55 121.05 240.05 159.35 252.25 135.4 260.5" fill="#c9af63" fill-rule="evenodd" stroke="none"/>
    <path d="M39.55 272.9 L39.3 270.55 Q58.3 278.7 77.8 285.45 L86.3 287.8 86.25 290.3 Q66.05 285.6 47.25 276.45 L39.55 272.9 M87.7 334.6 L87.8 335.7 87.85 334.6 Q93.8 335.15 99.3 333.4 109.0 330.35 118.6 326.7 137.15 319.7 155.75 312.15 162.65 309.4 167.9 303.95 L167.15 306.15 Q166.4 308.25 164.65 309.65 156.15 315.95 146.05 319.6 126.1 326.8 106.3 334.45 98.95 337.35 91.1 338.4 80.15 339.25 70.05 334.3 62.55 330.65 55.25 326.45 46.35 321.3 44.0 311.0 46.3 314.45 49.4 316.9 66.5 330.55 87.7 334.6 M87.4 290.45 L87.3 287.8 Q96.8 286.45 106.1 283.2 126.0 276.4 145.5 268.6 158.95 263.35 173.1 259.75 L172.8 261.85 133.9 276.15 Q114.25 283.35 94.2 289.6 90.85 290.6 87.4 290.45 M69.95 295.25 Q71.1 299.85 68.65 303.55 L67.55 304.95 Q65.65 307.0 62.75 306.5 55.4 305.6 49.05 301.1 44.8 298.15 47.2 293.6 47.15 297.65 50.45 299.8 55.7 303.2 61.95 304.5 63.75 304.95 65.2 303.8 67.45 302.05 68.65 299.75 69.7 297.7 69.95 295.25" fill="#dec578" fill-rule="evenodd" stroke="none"/>
    <path d="M86.25 290.3 L86.2 295.2 Q86.35 314.85 87.7 334.6 66.5 330.55 49.4 316.9 46.3 314.45 44.0 311.0 L39.55 272.9 47.25 276.45 Q66.05 285.6 86.25 290.3 M87.85 334.6 L87.4 290.45 Q90.85 290.6 94.2 289.6 114.25 283.35 133.9 276.15 L172.8 261.85 167.9 303.95 Q162.65 309.4 155.75 312.15 137.15 319.7 118.6 326.7 109.0 330.35 99.3 333.4 93.8 335.15 87.85 334.6 M110.3 287.45 Q100.0 288.85 89.25 293.15 89.15 308.85 89.95 315.35 92.7 305.45 98.7 297.7 104.05 290.75 110.3 287.45 M69.95 295.25 Q70.65 292.55 68.65 291.05 L68.35 290.85 67.75 290.7 67.15 290.65 Q66.05 291.0 65.5 291.65 64.95 292.3 64.75 293.55 64.45 295.8 63.6 296.9 62.6 298.15 60.7 298.2 L58.6 298.0 Q55.2 297.1 52.55 295.05 54.5 292.85 55.15 290.25 55.55 288.45 55.3 286.5 55.25 286.05 54.8 285.75 52.75 284.75 51.2 286.5 49.55 288.15 48.55 290.25 47.7 291.8 47.2 293.6 44.8 298.15 49.05 301.1 55.4 305.6 62.75 306.5 65.65 307.0 67.55 304.95 L68.65 303.55 Q71.1 299.85 69.95 295.25 M162.45 274.0 Q168.05 277.4 168.45 284.15 L169.85 265.9 Q160.4 268.25 151.8 272.7 157.55 270.85 162.45 274.0" fill="#f0d78a" fill-rule="evenodd" stroke="none"/>
    <path d="M110.3 287.45 Q104.05 290.75 98.7 297.7 92.7 305.45 89.95 315.35 89.15 308.85 89.25 293.15 100.0 288.85 110.3 287.45 M162.45 274.0 Q157.55 270.85 151.8 272.7 160.4 268.25 169.85 265.9 L168.45 284.15 Q168.05 277.4 162.45 274.0" fill="#ffe99c" fill-rule="evenodd" stroke="none"/>
    <path d="M161.2 251.4 L120.1 238.55 53.25 262.8 47.15 259.5 72.35 251.5 Q96.2 243.5 120.3 236.35 L165.55 250.15 161.2 251.4" fill="#9dbdbd" fill-rule="evenodd" stroke="none"/>
    <path d="M48.55 294.1 Q48.95 291.95 49.95 290.25 51.2 288.15 53.35 286.65 L53.9 286.55 53.8 287.25 52.85 290.25 Q51.85 292.35 50.35 294.2 54.8 298.45 61.3 299.45 63.3 299.45 64.25 297.65 65.65 295.2 66.5 292.5 66.6 292.25 66.8 292.25 68.25 291.8 68.65 292.7 68.9 293.2 68.7 294.3 L68.65 294.5 Q67.5 298.75 64.05 301.15 63.15 301.8 62.0 301.8 53.75 300.45 48.55 294.1" fill="#d89701" fill-rule="evenodd" stroke="none"/>
    <path d="M48.55 294.1 Q53.75 300.45 62.0 301.8 63.15 301.8 64.05 301.15 67.5 298.75 68.65 294.5 L68.7 294.3 68.65 294.95 Q68.25 298.95 65.5 301.9 64.4 303.15 62.7 303.35 60.8 303.35 59.1 302.6 L52.4 299.8 Q48.65 298.1 48.55 294.1 M50.35 294.2 Q51.85 292.35 52.85 290.25 L53.8 287.25 53.9 286.55 54.55 287.1 53.75 290.25 Q52.85 292.6 51.4 294.6 L50.35 294.2" fill="#b77600" fill-rule="evenodd" stroke="none"/>
    <path d="M45.55 319.75 Q49.6 325.65 56.0 329.0 L66.9 334.8 Q77.4 340.5 89.25 340.35 99.05 339.45 108.15 335.85 117.65 331.95 127.3 328.4 144.6 322.35 160.95 314.25 167.5 311.05 169.55 304.0 176.55 307.6 180.25 314.65 180.65 315.45 180.15 316.15 175.7 323.15 168.7 327.25 163.75 330.2 158.75 332.35 140.1 340.45 120.85 347.2 112.85 350.05 104.3 351.65 94.8 353.6 85.5 350.65 66.0 344.35 50.5 330.95 45.45 326.65 45.55 319.75" fill="#000000" fill-opacity="0.2" fill-rule="evenodd" stroke="none"/>
    <path d="M525.75 421.1 Q556.1 428.25 556.1 438.45 556.1 448.65 525.75 455.8 495.4 462.95 452.5 462.95 409.55 462.95 379.2 455.8 348.85 448.65 348.85 438.45 348.85 428.25 379.2 421.1 409.55 413.95 452.5 413.95 495.4 413.95 525.75 421.1" fill="#000000" fill-opacity="0.2" fill-rule="evenodd" stroke="none"/>
    <path d="M520.45 142.05 Q525.5 144.55 531.25 142.5 L533.35 142.3 531.5 143.45 533.9 145.55 535.8 148.1 Q537.1 150.45 537.45 153.35 537.55 154.15 537.15 154.75 534.45 158.9 529.8 156.1 L527.9 154.8 527.75 199.85 Q526.5 193.9 526.3 187.85 L523.2 191.3 Q523.05 198.25 521.2 204.75 519.45 210.6 516.3 216.05 512.1 223.4 507.15 230.25 L509.1 234.45 Q512.8 240.45 514.85 247.1 L515.65 249.6 Q529.4 236.1 541.85 221.1 544.3 218.15 546.15 215.0 553.2 203.0 551.45 188.55 L549.8 178.2 Q546.85 162.75 541.3 148.1 L538.65 141.75 Q536.85 138.35 533.9 136.35 532.3 135.25 530.4 134.6 L528.35 134.2 Q522.65 134.7 520.15 139.95 519.65 140.95 520.3 141.8 L520.45 142.05 M262.8 298.85 L263.1 299.3 258.95 301.4 Q255.4 306.0 251.35 310.1 249.8 311.65 247.95 312.55 242.65 315.45 237.25 313.35 235.25 314.2 233.85 312.35 L231.35 313.0 Q215.4 316.5 200.1 310.0 177.8 300.7 162.3 282.0 159.6 278.75 157.45 275.05 150.45 263.25 149.3 249.45 148.25 237.45 151.15 225.45 158.15 196.6 180.45 177.0 188.2 170.35 197.25 165.55 215.95 155.7 236.7 150.6 L279.7 140.0 Q296.25 135.65 311.25 127.85 325.05 120.7 333.55 107.55 335.9 103.95 337.1 99.9 339.75 91.45 338.9 82.5 337.75 70.1 331.4 59.3 326.15 50.25 318.55 42.95 309.1 34.0 299.25 25.3 L292.1 18.7 Q291.85 19.1 291.3 19.2 288.95 19.35 289.25 17.0 L289.35 16.35 289.8 15.95 Q292.75 15.85 295.6 16.0 311.0 16.6 325.5 22.6 346.2 31.0 366.35 40.45 391.95 52.4 416.65 65.95 L421.35 68.55 Q438.1 77.9 454.5 88.0 L469.5 97.45 499.9 118.75 Q505.05 118.75 508.65 122.7 L511.65 125.75 Q516.15 124.75 519.75 127.95 522.05 130.1 521.9 133.3 L523.1 134.15 Q529.05 130.75 534.55 134.7 L534.85 134.9 Q536.95 136.45 538.5 138.8 541.3 143.3 543.4 148.1 545.3 152.8 546.45 157.8 L547.95 163.2 Q551.4 174.45 552.8 186.1 L553.35 193.2 Q554.0 203.5 549.35 212.6 L548.1 215.0 Q545.05 220.35 540.95 225.2 534.1 233.25 526.9 240.7 L516.15 251.4 Q520.95 270.4 523.6 289.8 525.0 300.2 524.6 310.55 523.75 331.8 515.4 351.1 509.75 363.85 499.9 373.8 492.75 381.0 483.9 386.05 487.7 398.4 496.45 407.7 498.0 409.3 500.05 410.35 506.45 413.45 513.8 414.1 520.6 414.1 523.85 419.6 524.5 420.65 524.65 421.85 525.25 427.0 524.2 432.05 L522.65 438.15 Q521.5 442.1 518.2 444.25 511.8 448.6 504.15 449.7 L495.75 451.35 Q481.05 454.45 465.9 454.35 455.6 454.3 446.15 450.55 436.25 446.7 430.8 437.55 427.6 432.25 426.55 426.05 424.1 410.95 428.0 396.1 L424.45 394.85 Q410.9 401.35 396.55 397.3 385.7 394.25 379.25 385.25 373.6 377.45 373.15 367.85 362.3 358.95 357.75 345.85 351.3 327.45 353.65 308.55 354.1 304.75 354.95 300.95 359.0 282.6 371.1 268.25 379.25 258.75 389.65 251.75 393.65 249.05 396.4 245.55 L397.4 244.2 Q401.75 237.95 403.65 230.5 L404.15 228.1 Q391.55 227.95 383.55 218.2 379.4 213.1 378.55 206.35 377.2 195.45 384.35 187.05 387.45 183.4 391.5 180.8 L389.65 177.55 Q387.85 174.0 387.3 170.05 386.75 166.4 387.25 162.45 381.55 165.0 375.4 166.4 L371.0 166.2 Q363.2 163.3 362.45 154.9 362.0 149.65 366.4 146.9 367.85 145.95 369.55 145.6 L374.5 145.35 Q377.2 145.7 379.9 145.45 381.7 145.1 383.2 143.9 L383.45 143.7 Q384.4 138.75 383.45 133.4 380.55 135.1 377.15 135.0 376.15 135.0 375.4 134.45 374.15 133.65 373.45 132.4 372.4 130.3 371.85 127.9 375.5 128.15 378.6 126.25 L383.25 130.8 Q382.65 124.5 384.0 118.25 384.8 114.9 387.55 112.65 393.45 108.05 400.75 105.95 406.35 104.25 411.6 101.35 416.35 98.8 421.35 96.7 L422.3 96.3 Q430.95 92.8 439.8 95.3 L438.4 92.8 Q437.45 92.65 437.0 91.9 L436.7 91.35 424.75 91.85 416.65 90.45 Q397.95 86.3 383.15 73.4 377.55 68.5 374.45 61.9 372.9 58.4 372.15 54.75 L371.55 52.6 Q369.75 53.25 368.35 52.25 367.4 52.85 366.35 53.2 362.15 55.1 357.3 54.5 342.45 52.85 331.1 43.1 L313.9 29.0 Q309.15 25.2 304.0 22.05 300.0 19.6 295.6 18.2 L292.7 17.4 292.6 17.9 295.6 20.6 Q304.75 28.8 314.3 36.65 326.05 46.25 333.45 59.65 337.15 66.3 339.15 73.8 342.65 86.8 338.9 99.75 336.55 107.85 330.9 114.2 319.4 127.05 303.3 133.8 289.1 139.65 274.2 143.4 L256.75 147.55 Q239.75 151.15 223.05 156.3 206.3 161.65 191.45 171.05 175.0 181.4 164.7 197.75 152.5 217.35 150.85 240.35 150.4 246.5 151.35 252.3 154.65 274.55 171.4 289.7 186.45 303.45 205.65 310.0 218.45 314.4 231.35 311.2 L233.1 310.7 Q232.6 308.45 234.7 308.2 237.05 300.55 244.65 297.95 250.8 295.9 256.35 299.25 259.0 297.9 261.8 297.3 L258.35 299.1 259.2 300.65 262.8 298.85 M532.0 155.5 Q534.5 156.45 535.65 153.9 536.4 152.25 535.5 150.65 L533.95 148.1 533.9 148.05 Q532.2 145.85 529.8 144.05 524.25 146.3 519.35 142.75 518.6 142.1 518.65 141.05 518.9 137.2 521.9 135.0 L521.0 134.4 Q518.0 135.75 517.15 138.9 L518.55 144.45 522.0 147.65 Q526.05 151.95 531.0 155.0 L532.0 155.5 M495.45 122.25 L496.1 120.95 497.75 119.4 Q497.3 118.45 495.45 117.15 L483.1 108.3 Q468.95 98.7 454.5 89.8 448.9 86.3 443.2 82.95 432.35 76.55 421.35 70.4 L408.9 63.45 Q393.75 55.1 378.25 47.6 L348.4 33.7 Q333.15 26.85 317.4 21.2 L335.2 29.3 366.35 44.95 Q382.6 53.1 398.5 61.95 L430.05 79.8 Q442.45 87.05 454.5 94.8 L463.7 100.75 Q479.65 111.35 495.25 122.45 L495.35 122.55 495.45 122.25 M500.1 128.85 L504.35 132.5 Q506.0 129.3 509.0 127.25 L510.3 126.5 Q506.4 121.1 499.85 120.3 496.65 121.35 497.25 124.65 497.8 127.5 500.1 128.85 M496.2 130.85 L499.9 132.9 496.95 130.1 496.2 130.85 M502.9 135.7 L503.7 133.9 498.2 129.4 497.35 129.95 Q500.95 132.15 502.9 135.7 M494.45 130.35 Q485.35 126.45 475.95 123.6 472.8 129.25 467.1 132.4 L465.7 133.05 Q476.7 155.7 485.15 179.45 L487.55 186.2 Q493.1 170.8 496.65 154.8 489.5 149.2 487.7 140.15 486.65 134.4 491.25 131.2 492.6 130.3 494.45 130.35 M501.75 138.75 L502.3 137.2 Q499.3 132.95 493.95 131.95 491.45 131.55 490.1 133.55 488.15 136.55 489.0 140.15 490.8 148.2 497.0 153.4 L498.6 148.25 Q496.45 149.4 494.35 147.95 491.3 145.75 493.55 142.65 L495.45 140.4 Q498.0 142.05 499.55 144.6 L499.7 144.8 500.1 143.35 501.75 138.75 M495.7 142.1 Q493.95 143.5 494.25 145.95 494.3 146.45 494.65 146.6 497.05 148.35 498.7 146.2 L495.7 142.1 M497.25 128.3 Q494.8 125.4 491.95 123.15 473.6 109.4 454.5 96.85 L443.3 89.55 Q442.5 92.15 439.9 92.8 L441.45 96.0 Q442.75 96.7 443.9 97.45 448.85 100.75 452.15 105.85 L453.25 103.95 Q455.2 101.15 458.65 102.0 459.05 103.2 458.9 104.45 458.4 108.55 454.95 110.2 L458.0 115.75 Q460.1 113.95 462.45 112.45 464.75 111.1 467.35 110.35 472.1 108.95 474.65 113.25 477.05 117.45 476.05 122.2 486.15 125.3 495.95 129.35 L497.25 128.3 M436.05 222.1 L434.55 220.65 431.4 218.6 Q422.2 225.8 410.65 227.6 L405.95 228.1 Q404.7 236.45 399.75 243.65 L388.75 259.5 389.1 258.25 393.15 250.6 Q387.2 255.1 381.55 260.0 373.35 267.1 367.35 276.3 357.7 291.05 355.45 308.55 L355.15 311.2 Q353.25 331.5 361.55 350.2 L365.35 357.1 Q368.7 361.65 373.05 365.55 L373.35 361.15 Q376.75 342.2 388.65 327.15 397.15 316.35 408.3 308.55 412.45 305.65 416.95 303.15 418.25 302.4 419.6 301.8 430.8 296.5 443.15 298.7 451.05 300.2 457.7 304.5 460.85 296.15 465.65 288.6 469.75 282.1 468.3 274.6 L467.9 272.9 464.0 275.3 470.3 269.5 Q484.15 257.1 495.8 242.6 507.05 228.55 516.0 212.7 518.05 208.95 519.15 204.75 520.5 199.4 521.2 193.95 L521.9 186.1 Q522.15 179.3 521.4 172.45 519.3 152.65 514.8 133.25 L514.9 132.85 516.4 136.3 Q517.55 133.75 519.95 132.95 L520.4 132.85 Q519.75 127.8 514.55 127.7 L511.55 127.8 Q509.75 128.45 508.5 129.95 503.4 136.2 501.25 144.1 496.15 162.2 491.3 180.4 489.6 186.7 486.1 192.15 L488.35 191.35 Q460.5 212.45 428.95 227.45 L428.5 227.65 Q431.55 224.3 435.75 222.35 L436.1 222.15 436.05 222.1 M525.6 186.1 L526.1 184.35 526.3 182.3 526.4 153.55 519.0 146.5 Q523.4 166.05 523.3 186.1 L523.25 189.45 Q524.85 187.9 525.6 186.1 M421.35 90.1 Q428.9 91.05 436.65 90.15 L436.85 89.4 437.25 88.55 438.3 87.3 439.0 86.8 414.8 72.65 Q394.4 61.05 373.65 50.3 L372.4 52.1 Q373.95 56.55 375.9 60.8 380.65 71.2 390.3 77.55 395.55 81.1 401.15 83.8 408.7 87.6 416.65 89.25 L421.35 90.1 M445.85 101.3 Q443.15 98.75 440.05 97.45 434.85 95.25 428.75 96.55 L425.6 97.45 Q423.65 98.15 421.85 99.0 409.7 104.9 396.85 109.15 389.7 111.55 386.3 118.2 384.75 121.05 384.9 124.3 L385.6 142.1 Q385.75 147.95 381.35 151.7 L378.05 152.9 378.45 152.65 380.35 151.25 Q382.65 149.35 383.3 146.15 L383.55 144.75 Q380.35 147.15 376.2 146.75 L370.0 147.1 Q365.6 148.15 364.25 152.55 363.25 155.95 364.85 159.05 367.0 163.25 371.45 164.7 L376.6 164.6 Q374.8 164.4 373.05 163.7 371.25 162.9 370.35 161.45 L371.35 162.1 Q376.65 164.6 382.35 162.8 389.7 160.45 395.3 154.7 397.05 152.9 399.1 151.25 409.3 143.4 422.15 144.0 424.85 144.35 427.0 146.0 L425.15 145.6 420.45 145.2 Q418.1 145.0 416.7 145.85 423.15 148.7 430.2 150.75 L434.35 151.25 Q445.25 149.9 452.65 141.75 455.85 138.15 459.5 134.9 461.1 133.55 463.2 132.55 468.25 130.35 471.95 126.45 474.15 124.1 474.6 121.0 475.3 115.55 471.0 112.0 469.4 110.65 467.35 111.45 462.6 113.55 458.9 117.05 462.3 121.6 467.4 118.95 L466.8 119.55 Q463.55 122.2 459.65 119.9 458.65 119.2 458.05 118.2 452.85 109.0 445.85 101.3 M390.6 120.7 L388.3 119.8 Q408.85 121.4 426.8 111.25 432.2 108.15 436.45 103.7 L439.25 100.5 Q434.4 109.5 425.2 113.9 415.85 118.55 405.7 120.8 398.15 122.6 390.6 120.7 M439.45 87.95 Q438.35 88.85 438.0 90.45 L439.25 91.55 Q441.35 91.05 442.05 88.75 L440.1 87.5 439.45 87.95 M366.35 46.65 Q356.9 41.45 346.65 36.45 330.2 28.3 313.1 21.5 305.35 18.5 297.05 17.4 304.35 20.1 310.65 24.75 317.15 29.5 323.2 34.7 333.05 43.3 344.4 49.4 346.65 50.6 349.1 51.35 354.25 53.05 359.65 53.1 363.15 53.1 366.35 51.75 L367.85 51.1 Q367.9 49.45 368.65 48.85 L369.2 48.25 366.35 46.65 M372.4 49.8 L370.9 48.75 Q369.3 49.15 369.25 50.65 369.95 52.05 371.1 51.35 372.25 50.65 372.4 49.8 M394.8 114.8 L400.4 113.1 Q404.3 112.0 408.3 111.2 418.85 109.35 427.0 102.7 L429.25 101.1 Q426.0 106.55 420.1 108.85 407.9 113.55 394.8 114.8 M382.55 131.9 L380.8 130.4 378.6 127.7 Q377.75 128.65 376.0 128.85 L373.2 128.65 373.6 129.6 Q374.55 132.25 376.55 133.9 L377.25 134.4 382.65 132.05 382.55 131.9 M416.65 125.45 Q416.05 121.35 411.5 121.45 406.65 121.55 402.85 124.05 401.5 125.05 401.4 126.55 L401.85 127.05 Q406.6 128.5 411.65 128.45 415.2 128.45 416.65 125.45 M397.05 139.45 Q395.1 139.05 393.95 137.45 392.7 135.85 392.95 133.7 393.75 127.7 400.05 126.35 400.3 124.55 401.85 123.4 406.3 120.05 411.95 120.35 416.05 120.35 417.65 123.8 418.55 127.45 415.05 128.55 407.5 130.8 400.35 127.4 395.55 128.35 394.4 132.9 393.45 136.95 397.05 139.45 M403.3 152.95 Q405.2 150.25 407.8 148.15 L402.5 150.75 403.3 152.95 M427.15 178.35 L432.0 180.75 Q438.95 179.1 440.5 172.05 441.5 166.9 439.3 162.1 436.95 156.8 432.8 152.95 425.4 151.85 418.65 148.75 416.85 147.95 414.75 148.05 406.85 148.5 402.95 155.5 L401.25 151.5 390.6 160.45 390.75 166.35 Q390.95 168.25 391.45 170.05 L392.35 173.35 393.3 175.6 394.95 178.95 400.05 177.15 Q412.55 174.35 424.85 177.6 L427.15 178.35 M389.25 167.4 Q388.95 164.35 389.4 161.3 L388.3 161.9 Q388.25 165.2 388.5 167.9 388.55 170.45 389.65 173.9 390.2 175.65 391.35 177.55 L392.95 179.95 393.6 179.55 390.75 174.5 Q389.5 170.4 389.25 167.4 M440.5 197.75 Q439.85 188.55 432.15 183.35 423.75 177.65 413.3 177.45 404.6 177.25 396.6 180.3 385.2 184.75 381.2 196.05 378.85 202.45 380.55 209.1 L380.75 209.6 Q383.75 218.95 392.5 223.25 399.05 226.3 406.3 226.0 421.55 225.35 432.85 215.05 440.35 208.2 440.5 197.95 L440.5 197.75 M453.55 108.0 L454.15 108.95 Q458.0 107.0 457.7 102.55 L457.2 102.5 Q453.75 103.65 453.2 107.45 L453.55 108.0 M452.85 143.85 Q445.5 151.75 434.9 152.9 L439.05 157.9 Q444.3 165.55 441.85 174.35 441.1 177.2 438.75 179.15 436.7 181.05 433.9 181.95 442.65 188.6 442.25 199.8 447.6 207.35 455.65 211.45 L468.65 203.35 483.5 193.4 Q485.9 191.8 486.7 188.75 481.85 176.7 477.55 164.3 473.25 151.9 467.3 140.3 465.7 137.1 464.55 133.65 458.15 138.1 452.85 143.85 M429.25 199.0 L437.35 196.25 434.8 198.9 Q434.55 206.65 427.35 210.5 L425.7 211.4 Q423.15 213.0 420.45 213.3 426.95 210.2 431.35 204.6 433.15 202.2 433.6 199.4 L432.85 199.65 429.25 199.0 M432.25 217.85 Q434.65 218.8 436.35 220.55 L437.25 221.5 454.35 212.3 Q446.45 208.8 442.05 201.5 440.8 210.15 434.2 216.1 L432.25 217.85 M483.0 259.85 Q477.75 265.15 471.85 269.85 L468.75 272.3 Q471.65 281.35 466.5 289.6 461.85 297.0 458.9 305.25 470.9 313.6 478.6 326.0 485.95 336.6 486.3 349.4 486.4 352.15 485.45 354.65 483.4 360.25 478.4 363.6 467.35 371.1 454.75 375.9 457.4 378.85 461.0 380.65 473.35 386.75 486.25 381.65 487.7 381.15 489.0 380.3 501.65 372.15 509.2 359.2 519.55 341.85 521.9 321.55 524.3 300.45 520.3 279.5 L519.35 273.85 Q518.0 264.15 512.0 256.35 506.05 248.6 499.1 241.45 L497.2 243.9 Q490.7 252.25 483.0 259.85 M384.4 358.95 L383.25 361.05 Q388.0 347.8 398.6 338.3 405.05 332.5 412.15 327.45 423.8 319.35 437.2 315.45 L446.2 315.1 438.35 302.6 437.8 301.7 438.75 302.6 Q444.15 307.4 446.85 314.15 L447.3 315.3 Q462.35 321.2 472.0 334.3 478.1 342.55 482.4 351.75 475.7 340.7 467.5 330.8 458.6 320.1 445.35 316.8 L437.8 317.0 Q420.85 322.15 407.0 333.15 397.7 340.55 390.4 349.85 387.0 354.15 384.4 358.95 M381.2 384.8 Q382.3 386.25 383.55 387.5 393.3 396.95 406.9 396.9 415.5 396.9 423.7 393.15 432.3 389.15 439.7 383.2 448.75 375.8 459.75 371.65 470.3 367.55 479.25 360.5 482.0 358.3 483.65 355.05 485.55 349.15 483.85 343.0 479.45 327.3 468.05 315.5 461.55 308.1 452.7 303.9 439.85 297.7 426.15 301.5 422.8 302.45 419.6 303.85 415.1 305.8 411.0 308.55 L407.2 311.3 Q397.85 318.85 390.25 328.2 378.9 342.1 375.8 359.95 373.45 373.7 381.2 384.8 M439.55 364.0 L431.85 358.8 Q437.1 359.35 439.55 364.0 M437.75 368.1 Q431.55 362.2 423.2 360.5 L421.45 360.4 Q428.75 358.8 434.3 363.85 436.4 365.75 437.75 368.1 M454.2 376.75 L453.9 376.35 451.95 377.35 Q439.65 386.4 426.35 393.95 435.0 396.2 443.9 396.1 465.8 395.1 484.5 383.7 475.8 386.5 467.0 384.4 459.4 382.45 454.2 376.75 M499.6 240.75 Q508.7 249.05 515.5 259.45 L516.85 261.55 Q513.85 245.75 506.3 231.5 L499.6 240.75 M291.3 17.9 L290.35 17.1 Q290.1 17.5 290.55 18.05 291.1 18.25 291.3 17.9 M239.55 301.4 Q237.7 303.25 236.1 305.65 235.1 307.65 234.9 309.25 L235.05 311.15 234.6 308.65 Q233.8 308.75 233.7 309.4 233.35 312.85 236.7 313.05 L235.85 312.2 Q237.65 313.2 239.65 313.5 241.65 313.75 243.45 313.45 246.25 312.95 248.65 311.5 248.95 311.25 249.35 311.1 251.4 309.75 252.85 307.8 L257.85 301.7 Q257.7 301.85 257.5 301.95 256.6 301.85 256.15 301.25 255.85 300.5 256.0 299.7 L255.9 299.55 Q252.95 298.15 249.95 297.85 L249.8 297.85 Q247.05 297.4 244.55 298.35 241.65 299.6 239.55 301.4 M258.1 299.5 L258.05 299.15 Q256.6 299.35 256.55 300.35 256.65 301.1 257.25 301.35 258.1 301.45 258.75 300.85 L258.1 299.5 M519.25 417.05 Q513.35 415.2 507.2 414.65 503.1 413.95 499.65 411.9 491.0 406.55 486.8 397.25 L482.6 386.75 Q468.9 394.3 453.4 396.85 444.3 398.25 434.95 397.1 L436.25 408.8 Q438.5 418.4 444.9 426.05 L445.65 426.75 445.9 427.2 Q437.0 420.0 434.65 408.5 433.1 402.85 433.55 396.95 L429.25 396.35 427.7 407.25 Q425.3 423.7 433.45 438.1 434.55 440.05 436.1 441.75 441.6 447.9 449.45 450.15 447.3 446.65 446.3 442.8 444.5 435.9 447.4 429.5 446.8 436.15 448.3 442.6 449.3 446.85 451.5 450.75 472.45 455.1 493.45 450.15 503.25 448.5 512.85 445.55 517.25 444.3 519.6 440.65 521.45 437.7 522.15 434.4 L523.4 425.5 Q523.85 420.5 520.1 417.55 L519.25 417.05 M518.75 418.5 L517.35 419.45 Q512.0 422.85 505.75 423.8 486.6 429.35 466.65 429.65 460.55 429.75 454.6 428.25 L483.0 427.05 Q501.35 424.8 518.75 418.5 M489.5 414.45 Q474.65 416.9 460.1 421.35 L458.55 421.65 Q472.05 415.0 487.15 414.1 L489.5 414.45 M483.2 412.3 Q467.9 414.2 454.0 420.85 458.4 418.1 462.85 415.9 472.6 411.15 483.2 412.3" fill="#000000" fill-rule="evenodd" stroke="none"/>
    <path d="M522.0 147.65 L518.55 144.45 517.15 138.9 Q518.0 135.75 521.0 134.4 L521.9 135.0 Q518.9 137.2 518.65 141.05 518.6 142.1 519.35 142.75 524.25 146.3 529.8 144.05 532.2 145.85 533.9 148.05 L533.95 148.1 535.5 150.65 Q536.4 152.25 535.65 153.9 534.5 156.45 532.0 155.5 534.25 153.1 532.4 150.15 531.35 148.35 529.55 146.8 525.9 148.45 522.0 147.65" fill="#571e00" fill-rule="evenodd" stroke="none"/>
    <path d="M496.1 120.95 L495.45 122.25 495.25 122.45 Q479.65 111.35 463.7 100.75 L454.5 94.8 Q442.45 87.05 430.05 79.8 L398.5 61.95 Q382.6 53.1 366.35 44.95 L335.2 29.3 Q350.4 36.15 365.55 43.2 L366.35 43.6 Q383.7 51.75 400.55 60.95 408.6 65.3 416.65 69.85 L421.35 72.6 Q427.0 75.85 432.7 79.2 L465.9 99.75 Q481.5 109.7 496.1 120.95" fill="#93a6ab" fill-rule="evenodd" stroke="none"/>
    <path d="M496.1 120.95 Q481.5 109.7 465.9 99.75 L432.7 79.2 Q427.0 75.85 421.35 72.6 L416.65 69.85 Q408.6 65.3 400.55 60.95 383.7 51.75 366.35 43.6 L365.55 43.2 Q350.4 36.15 335.2 29.3 L317.4 21.2 Q333.15 26.85 348.4 33.7 L378.25 47.6 Q393.75 55.1 408.9 63.45 L421.35 70.4 Q432.35 76.55 443.2 82.95 448.9 86.3 454.5 89.8 468.95 98.7 483.1 108.3 L495.45 117.15 Q497.3 118.45 497.75 119.4 L496.1 120.95 M495.25 122.45 L495.45 122.25 495.35 122.55 495.25 122.45" fill="#c2cccf" fill-rule="evenodd" stroke="none"/>
    <path d="M522.0 147.65 Q525.9 148.45 529.55 146.8 531.35 148.35 532.4 150.15 534.25 153.1 532.0 155.5 L531.0 155.0 Q526.05 151.95 522.0 147.65 M500.1 128.85 Q496.95 126.25 499.1 123.1 500.05 121.7 501.65 122.55 505.65 124.5 509.0 127.25 506.0 129.3 504.35 132.5 L500.1 128.85" fill="#783f17" fill-rule="evenodd" stroke="none"/>
    <path d="M509.0 127.25 Q505.65 124.5 501.65 122.55 500.05 121.7 499.1 123.1 496.95 126.25 500.1 128.85 497.8 127.5 497.25 124.65 496.65 121.35 499.85 120.3 506.4 121.1 510.3 126.5 L509.0 127.25" fill="#b55e22" fill-rule="evenodd" stroke="none"/>
    <path d="M496.2 130.85 L496.95 130.1 499.9 132.9 496.2 130.85 M502.9 135.7 Q500.95 132.15 497.35 129.95 L498.2 129.4 503.7 133.9 502.9 135.7" fill="#d2b284" fill-rule="evenodd" stroke="none"/>
    <path d="M489.0 140.15 Q488.15 136.55 490.1 133.55 491.45 131.55 493.95 131.95 499.3 132.95 502.3 137.2 L501.75 138.75 Q499.3 134.8 494.9 133.9 L492.95 134.1 Q489.05 135.75 489.0 140.15 M495.7 142.1 Q494.05 144.35 495.5 146.3 L496.5 146.5 498.7 146.2 Q497.05 148.35 494.65 146.6 494.3 146.45 494.25 145.95 493.95 143.5 495.7 142.1" fill="#d4dcde" fill-rule="evenodd" stroke="none"/>
    <path d="M489.0 140.15 Q489.05 135.75 492.95 134.1 L494.9 133.9 Q499.3 134.8 501.75 138.75 L500.1 143.35 498.05 140.75 Q496.55 138.65 494.15 138.95 L493.7 139.5 Q492.9 141.1 493.55 142.65 491.3 145.75 494.35 147.95 496.45 149.4 498.6 148.25 L497.0 153.4 Q490.8 148.2 489.0 140.15 M498.7 146.2 L496.5 146.5 495.5 146.3 Q494.05 144.35 495.7 142.1 L498.7 146.2" fill="#a5b2b5" fill-rule="evenodd" stroke="none"/>
    <path d="M500.1 143.35 L499.7 144.8 499.55 144.6 Q498.0 142.05 495.45 140.4 L493.55 142.65 Q492.9 141.1 493.7 139.5 L494.15 138.95 Q496.55 138.65 498.05 140.75 L500.1 143.35" fill="#72858a" fill-rule="evenodd" stroke="none"/>
    <path d="M520.3 141.8 L520.55 141.7 520.45 142.05 520.3 141.8" fill="#28c1f4" fill-rule="evenodd" stroke="none"/>
    <path d="M381.35 151.7 Q385.75 147.95 385.6 142.1 L384.9 124.3 Q384.75 121.05 386.3 118.2 389.7 111.55 396.85 109.15 409.7 104.9 421.85 99.0 423.65 98.15 425.6 97.45 L428.75 96.55 Q434.85 95.25 440.05 97.45 443.15 98.75 445.85 101.3 L445.85 101.35 Q437.1 96.65 427.2 99.3 420.4 101.2 414.15 104.65 408.8 107.7 402.9 109.55 396.45 111.4 391.35 115.65 390.25 116.5 389.45 117.55 402.3 119.35 414.5 114.75 423.6 111.35 432.1 106.65 L436.45 103.7 Q432.2 108.15 426.8 111.25 408.85 121.4 388.3 119.8 L390.6 120.7 388.2 120.0 Q387.5 130.25 387.65 140.5 387.75 146.1 384.55 150.55 382.65 151.15 381.35 151.7 M422.15 144.0 Q409.3 143.4 399.1 151.25 397.05 152.9 395.3 154.7 389.7 160.45 382.35 162.8 376.65 164.6 371.35 162.1 384.2 163.3 393.1 153.75 399.15 147.45 407.25 144.55 414.35 141.95 421.9 143.65 L422.15 144.0 M373.05 163.7 Q374.8 164.4 376.6 164.6 L371.45 164.7 Q367.0 163.25 364.85 159.05 363.25 155.95 364.25 152.55 365.6 148.15 370.0 147.1 L376.2 146.75 Q380.35 147.15 383.55 144.75 L383.3 146.15 Q379.55 148.8 375.05 148.1 370.6 147.25 367.05 149.85 366.15 150.65 365.65 151.8 364.1 155.55 366.35 158.9 368.75 162.65 373.05 163.7" fill="#cccc99" fill-rule="evenodd" stroke="none"/>
    <path d="M445.85 101.3 Q452.85 109.0 458.05 118.2 458.65 119.2 459.65 119.9 463.55 122.2 466.8 119.55 470.2 117.25 470.4 113.45 471.5 114.45 472.0 115.85 473.95 121.3 469.6 125.3 L468.2 126.35 Q460.25 130.2 454.35 136.55 450.4 140.8 445.75 144.2 441.05 147.7 435.15 148.55 427.25 149.2 420.45 145.2 L425.15 145.6 427.0 146.0 Q424.85 144.35 422.15 144.0 L421.9 143.65 Q418.15 136.0 419.95 127.7 421.5 120.9 427.25 117.35 433.85 113.2 440.55 109.45 445.5 106.7 445.85 101.35 L445.85 101.3 M378.45 152.65 L378.05 152.9 381.35 151.7 Q382.65 151.15 384.55 150.55 389.05 149.5 392.0 146.3 L392.4 145.85 Q391.95 150.95 387.3 153.7 L382.5 156.6 Q377.4 159.45 371.7 158.25 368.4 157.75 367.85 154.65 367.6 152.95 369.25 152.35 372.05 151.2 375.0 152.4 L378.45 152.65 M427.0 102.7 Q418.85 109.35 408.3 111.2 404.3 112.0 400.4 113.1 L394.8 114.8 Q400.6 112.55 412.95 108.6 421.3 105.7 427.0 102.7" fill="#999966" fill-rule="evenodd" stroke="none"/>
    <path d="M466.8 119.55 L467.4 118.95 Q462.3 121.6 458.9 117.05 462.6 113.55 467.35 111.45 469.4 110.65 471.0 112.0 475.3 115.55 474.6 121.0 474.15 124.1 471.95 126.45 468.25 130.35 463.2 132.55 461.1 133.55 459.5 134.9 455.85 138.15 452.65 141.75 445.25 149.9 434.35 151.25 L430.2 150.75 Q423.15 148.7 416.7 145.85 418.1 145.0 420.45 145.2 427.25 149.2 435.15 148.55 441.05 147.7 445.75 144.2 450.4 140.8 454.35 136.55 460.25 130.2 468.2 126.35 L469.6 125.3 Q473.95 121.3 472.0 115.85 471.5 114.45 470.4 113.45 470.2 117.25 466.8 119.55 M371.35 162.1 L370.35 161.45 Q371.25 162.9 373.05 163.7 368.75 162.65 366.35 158.9 364.1 155.55 365.65 151.8 366.15 150.65 367.05 149.85 370.6 147.25 375.05 148.1 379.55 148.8 383.3 146.15 382.65 149.35 380.35 151.25 L378.45 152.65 375.0 152.4 Q372.05 151.2 369.25 152.35 367.6 152.95 367.85 154.65 368.4 157.75 371.7 158.25 377.4 159.45 382.5 156.6 L387.3 153.7 Q391.95 150.95 392.4 145.85 L392.0 146.3 Q389.05 149.5 384.55 150.55 387.75 146.1 387.65 140.5 387.5 130.25 388.2 120.0 L390.6 120.7 Q398.15 122.6 405.7 120.8 415.85 118.55 425.2 113.9 434.4 109.5 439.25 100.5 L436.45 103.7 432.1 106.65 Q423.6 111.35 414.5 114.75 402.3 119.35 389.45 117.55 390.25 116.5 391.35 115.65 396.45 111.4 402.9 109.55 408.8 107.7 414.15 104.65 420.4 101.2 427.2 99.3 437.1 96.65 445.85 101.35 445.5 106.7 440.55 109.45 433.85 113.2 427.25 117.35 421.5 120.9 419.95 127.7 418.15 136.0 421.9 143.65 414.35 141.95 407.25 144.55 399.15 147.45 393.1 153.75 384.2 163.3 371.35 162.1 M394.8 114.8 Q407.9 113.55 420.1 108.85 426.0 106.55 429.25 101.1 L427.0 102.7 Q421.3 105.7 412.95 108.6 400.6 112.55 394.8 114.8 M397.05 139.45 Q393.45 136.95 394.4 132.9 395.55 128.35 400.35 127.4 407.5 130.8 415.05 128.55 418.55 127.45 417.65 123.8 416.05 120.35 411.95 120.35 406.3 120.05 401.85 123.4 400.3 124.55 400.05 126.35 393.75 127.7 392.95 133.7 392.7 135.85 393.95 137.45 395.1 139.05 397.05 139.45" fill="#bbba77" fill-rule="evenodd" stroke="none"/>
    <path d="M373.6 129.6 L373.2 128.65 376.0 128.85 Q377.75 128.65 378.6 127.7 L380.8 130.4 382.55 131.9 Q378.2 132.35 373.6 129.6" fill="#df6600" fill-rule="evenodd" stroke="none"/>
    <path d="M373.6 129.6 Q378.2 132.35 382.55 131.9 L382.65 132.05 377.25 134.4 376.55 133.9 Q374.55 132.25 373.6 129.6" fill="#cc6600" fill-rule="evenodd" stroke="none"/>
    <path d="M401.85 127.05 L401.4 126.55 Q401.5 125.05 402.85 124.05 406.65 121.55 411.5 121.45 416.05 121.35 416.65 125.45 413.6 122.35 409.3 123.35 405.1 124.35 401.85 127.05" fill="#66ff00" fill-rule="evenodd" stroke="none"/>
    <path d="M390.75 166.35 L390.6 160.45 401.25 151.5 402.95 155.5 Q406.85 148.5 414.75 148.05 416.85 147.95 418.65 148.75 425.4 151.85 432.8 152.95 436.95 156.8 439.3 162.1 441.5 166.9 440.5 172.05 438.95 179.1 432.0 180.75 L427.15 178.35 Q434.05 177.2 436.45 170.2 438.5 164.25 436.8 158.15 427.15 158.75 417.9 155.8 415.05 154.95 412.15 155.0 405.05 155.75 399.3 159.95 L390.75 166.35 M400.05 177.15 L394.95 178.95 393.3 175.6 Q394.3 176.4 395.5 176.8 397.5 177.45 399.8 176.85 L400.05 177.15 M478.6 326.0 Q483.1 307.95 484.0 289.1 484.75 274.5 483.0 259.85 490.7 252.25 497.2 243.9 L499.1 241.45 Q506.05 248.6 512.0 256.35 518.0 264.15 519.35 273.85 L520.3 279.5 Q524.3 300.45 521.9 321.55 519.55 341.85 509.2 359.2 501.65 372.15 489.0 380.3 487.7 381.15 486.25 381.65 473.35 386.75 461.0 380.65 457.4 378.85 454.75 375.9 467.35 371.1 478.4 363.6 483.4 360.25 485.45 354.65 486.4 352.15 486.3 349.4 485.95 336.6 478.6 326.0" fill="#cdcdcd" fill-rule="evenodd" stroke="none"/>
    <path d="M390.75 166.35 L399.3 159.95 Q405.05 155.75 412.15 155.0 415.05 154.95 417.9 155.8 427.15 158.75 436.8 158.15 438.5 164.25 436.45 170.2 434.05 177.2 427.15 178.35 L424.85 177.6 Q412.55 174.35 400.05 177.15 L399.8 176.85 Q397.5 177.45 395.5 176.8 394.3 176.4 393.3 175.6 L392.35 173.35 391.45 170.05 Q390.95 168.25 390.75 166.35 M478.6 326.0 Q470.9 313.6 458.9 305.25 461.85 297.0 466.5 289.6 471.65 281.35 468.75 272.3 L471.85 269.85 Q477.75 265.15 483.0 259.85 484.75 274.5 484.0 289.1 483.1 307.95 478.6 326.0 M432.25 217.85 L434.2 216.1 Q440.8 210.15 442.05 201.5 446.45 208.8 454.35 212.3 L437.25 221.5 436.35 220.55 Q434.65 218.8 432.25 217.85" fill="#ffffff" fill-rule="evenodd" stroke="none"/>
    <path d="M380.55 209.1 Q378.85 202.45 381.2 196.05 385.2 184.75 396.6 180.3 404.6 177.25 413.3 177.45 423.75 177.65 432.15 183.35 439.85 188.55 440.5 197.75 438.45 188.95 430.25 185.25 420.4 180.8 409.5 182.3 397.8 183.6 388.8 191.3 380.6 198.3 380.55 209.1 M438.35 302.6 Q428.3 303.55 419.6 308.25 L419.0 308.55 Q416.35 310.0 413.8 311.85 397.75 323.25 387.0 339.9 379.6 351.25 378.2 364.7 377.2 375.2 381.2 384.8 373.45 373.7 375.8 359.95 378.9 342.1 390.25 328.2 397.85 318.85 407.2 311.3 L411.0 308.55 Q415.1 305.8 419.6 303.85 422.8 302.45 426.15 301.5 439.85 297.7 452.7 303.9 461.55 308.1 468.05 315.5 L459.25 310.3 Q445.45 302.7 438.75 302.6 L437.8 301.7 438.35 302.6 M437.55 409.05 Q438.75 412.85 440.7 416.35 445.1 424.35 454.3 425.35 467.45 426.75 480.65 424.9 500.2 422.55 519.25 417.05 L520.1 417.55 518.75 418.5 Q501.35 424.8 483.0 427.05 L454.6 428.25 Q451.65 428.3 445.65 426.75 L444.9 426.05 Q438.5 418.4 436.25 408.8 L437.55 409.05" fill="#ffdc31" fill-rule="evenodd" stroke="none"/>
    <path d="M457.2 102.5 L457.7 102.55 Q458.0 107.0 454.15 108.95 L453.55 108.0 457.2 102.5" fill="#7f1f00" fill-rule="evenodd" stroke="none"/>
    <path d="M457.2 102.5 L453.55 108.0 453.2 107.45 Q453.75 103.65 457.2 102.5" fill="#a34324" fill-rule="evenodd" stroke="none"/>
    <path d="M416.65 125.45 Q415.2 128.45 411.65 128.45 406.6 128.5 401.85 127.05 405.1 124.35 409.3 123.35 413.6 122.35 416.65 125.45" fill="#3cd500" fill-rule="evenodd" stroke="none"/>
    <path d="M440.5 197.95 Q440.35 208.2 432.85 215.05 421.55 225.35 406.3 226.0 399.05 226.3 392.5 223.25 383.75 218.95 380.75 209.6 383.35 214.35 386.5 216.6 390.8 219.75 397.9 219.75 407.0 219.75 412.35 215.7 416.0 212.95 419.2 206.8 422.85 199.65 424.45 197.85 428.1 193.8 434.25 193.8 438.65 193.8 440.15 197.0 L440.5 197.95 M429.25 199.0 L432.85 199.65 433.6 199.4 Q433.15 202.2 431.35 204.6 426.95 210.2 420.45 213.3 423.15 213.0 425.7 211.4 L427.35 210.5 Q434.55 206.65 434.8 198.9 L437.35 196.25 429.25 199.0 M383.55 387.5 Q379.9 375.15 383.2 362.8 L384.4 358.95 Q387.0 354.15 390.4 349.85 397.7 340.55 407.0 333.15 420.85 322.15 437.8 317.0 L445.35 316.8 Q458.6 320.1 467.5 330.8 475.7 340.7 482.4 351.75 L483.65 355.05 Q482.0 358.3 479.25 360.5 470.3 367.55 459.75 371.65 448.75 375.8 439.7 383.2 432.3 389.15 423.7 393.15 415.5 396.9 406.9 396.9 393.3 396.95 383.55 387.5 M430.25 354.4 L422.45 354.9 Q418.9 355.1 416.55 357.85 L417.0 358.9 Q418.75 362.25 422.4 363.4 429.75 365.5 434.25 371.75 441.45 369.0 444.1 361.95 444.45 361.05 443.65 360.25 438.0 354.8 430.25 354.4 M486.8 397.25 Q471.15 408.3 452.0 409.75 444.8 410.5 437.55 409.05 L436.25 408.8 434.95 397.1 Q444.3 398.25 453.4 396.85 468.9 394.3 482.6 386.75 L486.8 397.25 M520.1 417.55 Q523.85 420.5 523.4 425.5 L522.15 434.4 Q521.45 437.7 519.6 440.65 517.25 444.3 512.85 445.55 503.25 448.5 493.45 450.15 493.7 440.2 496.75 433.2 500.0 425.65 505.75 423.8 512.0 422.85 517.35 419.45 L518.75 418.5 520.1 417.55 M427.7 407.25 L429.25 396.35 433.55 396.95 Q433.1 402.85 434.65 408.5 L427.7 407.25" fill="#f99108" fill-rule="evenodd" stroke="none"/>
    <path d="M380.55 209.1 Q380.6 198.3 388.8 191.3 397.8 183.6 409.5 182.3 420.4 180.8 430.25 185.25 438.45 188.95 440.5 197.75 L440.5 197.95 440.15 197.0 Q438.65 193.8 434.25 193.8 428.1 193.8 424.45 197.85 422.85 199.65 419.2 206.8 416.0 212.95 412.35 215.7 407.0 219.75 397.9 219.75 390.8 219.75 386.5 216.6 383.35 214.35 380.75 209.6 L380.55 209.1 M384.4 358.95 L383.2 362.8 Q379.9 375.15 383.55 387.5 382.3 386.25 381.2 384.8 377.2 375.2 378.2 364.7 379.6 351.25 387.0 339.9 397.75 323.25 413.8 311.85 416.35 310.0 419.0 308.55 L419.6 308.25 Q428.3 303.55 438.35 302.6 L446.2 315.1 437.2 315.45 Q423.8 319.35 412.15 327.45 405.05 332.5 398.6 338.3 388.0 347.8 383.25 361.05 L384.4 358.95 M483.65 355.05 L482.4 351.75 Q478.1 342.55 472.0 334.3 462.35 321.2 447.3 315.3 L446.85 314.15 Q444.15 307.4 438.75 302.6 445.45 302.7 459.25 310.3 L468.05 315.5 Q479.45 327.3 483.85 343.0 485.55 349.15 483.65 355.05 M486.8 397.25 Q491.0 406.55 499.65 411.9 503.1 413.95 507.2 414.65 513.35 415.2 519.25 417.05 500.2 422.55 480.65 424.9 467.45 426.75 454.3 425.35 445.1 424.35 440.7 416.35 438.75 412.85 437.55 409.05 444.8 410.5 452.0 409.75 471.15 408.3 486.8 397.25 M493.45 450.15 Q472.45 455.1 451.5 450.75 449.3 446.85 448.3 442.6 446.8 436.15 447.4 429.5 444.5 435.9 446.3 442.8 447.3 446.65 449.45 450.15 441.6 447.9 436.1 441.75 434.55 440.05 433.45 438.1 425.3 423.7 427.7 407.25 L434.65 408.5 Q437.0 420.0 445.9 427.2 L445.65 426.75 Q451.65 428.3 454.6 428.25 460.55 429.75 466.65 429.65 486.6 429.35 505.75 423.8 500.0 425.65 496.75 433.2 493.7 440.2 493.45 450.15 M489.5 414.45 L487.15 414.1 Q472.05 415.0 458.55 421.65 L460.1 421.35 Q474.65 416.9 489.5 414.45 M483.2 412.3 Q472.6 411.15 462.85 415.9 458.4 418.1 454.0 420.85 467.9 414.2 483.2 412.3" fill="#ffb409" fill-rule="evenodd" stroke="none"/>
    <path d="M436.05 222.1 L436.1 222.15 435.75 222.35 436.05 222.1 M451.95 377.35 L453.9 376.35 454.2 376.75 451.95 377.35" fill="#0099cc" fill-rule="evenodd" stroke="none"/>
    <path d="M430.25 354.4 Q438.0 354.8 443.65 360.25 444.45 361.05 444.1 361.95 441.45 369.0 434.25 371.75 429.75 365.5 422.4 363.4 418.75 362.25 417.0 358.9 L416.55 357.85 Q418.9 355.1 422.45 354.9 L430.25 354.4 M437.75 368.1 Q436.4 365.75 434.3 363.85 428.75 358.8 421.45 360.4 L423.2 360.5 Q431.55 362.2 437.75 368.1 M439.55 364.0 Q437.1 359.35 431.85 358.8 L439.55 364.0" fill="#c96102" fill-rule="evenodd" stroke="none"/>
    <path d="M236.1 305.65 Q237.7 303.25 239.55 301.4 L239.45 304.75 236.2 307.6 Q236.0 306.65 236.1 305.65 M243.1 306.85 L242.95 306.8 243.05 306.7 243.1 306.85" fill="#f5f607" fill-opacity="0.96862745" fill-rule="evenodd" stroke="none"/>
    <path d="M236.1 305.65 Q236.0 306.65 236.2 307.6 L239.45 304.75 Q239.65 307.1 240.7 309.45 L241.2 310.7 237.75 311.65 236.2 307.6 234.9 309.25 Q235.1 307.65 236.1 305.65 M249.95 297.85 Q252.95 298.15 255.9 299.55 L256.0 299.7 249.5 300.3 249.95 297.85 M249.35 311.1 Q248.95 311.25 248.65 311.5 246.25 312.95 243.45 313.45 L241.2 310.7 246.95 308.6 249.35 311.1 M239.65 313.5 Q237.65 313.2 235.85 312.2 L237.75 311.65 239.65 313.5" fill="#c3e80b" fill-rule="evenodd" stroke="none"/>
    <path d="M239.45 304.75 L239.55 301.4 Q241.65 299.6 244.55 298.35 L244.2 301.95 Q241.7 303.0 239.45 304.75 M249.5 300.3 L249.5 300.5 Q249.45 303.4 251.05 305.75 L246.95 308.6 Q244.4 305.45 244.2 301.95 L249.5 300.3" fill="#ffff8a" fill-opacity="0.96862745" fill-rule="evenodd" stroke="none"/>
    <path d="M243.45 313.45 Q241.65 313.75 239.65 313.5 L237.75 311.65 235.85 312.2 236.7 313.05 Q233.35 312.85 233.7 309.4 233.8 308.75 234.6 308.65 L235.05 311.15 234.9 309.25 236.2 307.6 237.75 311.65 241.2 310.7 243.45 313.45" fill="#93dc00" fill-opacity="0.96862745" fill-rule="evenodd" stroke="none"/>
    <path d="M244.55 298.35 Q247.05 297.4 249.8 297.85 L249.95 297.85 249.5 300.3 244.2 301.95 Q244.4 305.45 246.95 308.6 L251.05 305.75 Q249.45 303.4 249.5 300.5 L249.5 300.3 256.0 299.7 Q255.85 300.5 256.15 301.25 L251.05 305.75 252.85 307.8 Q251.4 309.75 249.35 311.1 L246.95 308.6 241.2 310.7 240.7 309.45 Q239.65 307.1 239.45 304.75 241.7 303.0 244.2 301.95 L244.55 298.35 M243.1 306.85 L243.05 306.7 242.95 306.8 243.1 306.85" fill="#f8f700" fill-opacity="0.96862745" fill-rule="evenodd" stroke="none"/>
    <path d="M262.4 297.5 L262.8 298.85 259.2 300.65 258.35 299.1 262.4 297.5 M256.55 300.35 L258.1 299.5 258.75 300.85 Q258.1 301.45 257.25 301.35 256.65 301.1 256.55 300.35" fill="#4e4e4e" fill-rule="evenodd" stroke="none"/>
    <path d="M261.8 297.3 L261.85 297.25 Q262.3 297.2 262.4 297.5 L258.35 299.1 261.8 297.3 M256.55 300.35 Q256.6 299.35 258.05 299.15 L258.1 299.5 256.55 300.35" fill="#666666" fill-rule="evenodd" stroke="none"/>
    <path d="M256.15 301.25 Q256.6 301.85 257.5 301.95 257.7 301.85 257.85 301.7 L252.85 307.8 251.05 305.75 256.15 301.25" fill="#fcfe8d" fill-opacity="0.96862745" fill-rule="evenodd" stroke="none"/>
  </g>
  <defs>
    <linearGradient gradientTransform="matrix(-0.0389, -0.0217, 0.0081, -0.0145, 573.05, 310.0)" gradientUnits="userSpaceOnUse" id="gradient0" spreadMethod="pad" x1="-819.2" x2="819.2">
      <stop offset="0.0" stop-color="#f0f2f4"/>
      <stop offset="1.0" stop-color="#7584a4"/>
    </linearGradient>
  </defs>
</svg>
