<?xml version="1.0" encoding="UTF-8" standalone="no"?>
<svg xmlns:xlink="http://www.w3.org/1999/xlink" height="19.45px" width="24.9px" xmlns="http://www.w3.org/2000/svg">
  <g transform="matrix(1.0, 0.0, 0.0, 1.0, 12.45, 9.35)">
    <path d="M0.8 8.85 L4.45 8.55 Q6.9 7.7 8.65 5.7 12.05 1.85 11.15 -3.25 L10.2 -3.8 Q8.35 -3.7 7.35 -2.35 L6.9 -0.6 8.95 0.65 9.0 0.75 6.7 -0.05 5.5 1.9 6.8 3.6 7.1 4.45 4.6 2.7 3.8 3.15 4.2 4.65 Q4.4 5.6 3.95 6.35 L2.85 3.6 3.95 6.35 Q4.4 5.6 4.2 4.65 L3.8 3.15 4.6 2.7 7.1 4.45 6.8 3.6 5.5 1.9 6.7 -0.05 9.0 0.75 8.95 0.65 6.9 -0.6 7.35 -2.35 Q8.35 -3.7 10.2 -3.8 L11.15 -3.25 Q12.05 1.85 8.65 5.7 6.9 7.7 4.45 8.55 L0.8 8.85 1.3 3.95 0.65 6.3 -0.2 6.5 0.2 4.0 -1.8 3.5 -3.1 5.15 -2.8 2.5 -3.15 1.6 -3.25 0.4 Q-3.8 1.5 -4.65 2.3 -5.8 3.3 -7.2 3.3 L-6.85 2.85 -5.95 1.9 Q-5.2 1.0 -4.8 -0.05 L-3.65 -2.2 Q-4.3 -4.6 -5.1 -6.9 L-5.75 -7.65 Q-7.2 -8.6 -8.9 -8.05 L-10.85 -5.25 Q-12.1 -3.25 -11.6 -1.05 -10.45 3.7 -6.4 6.3 L-4.55 7.15 -4.15 7.0 0.8 8.85 M3.35 3.4 L2.85 3.55 1.3 3.95 2.85 3.55 3.35 3.4 M11.6 -4.45 L12.1 -3.65 12.4 -2.15 Q12.6 0.2 11.95 2.45 11.2 5.05 9.35 6.7 L7.7 8.05 Q3.6 10.9 -1.1 9.8 L-3.7 8.85 Q-8.35 7.2 -10.95 2.75 -11.85 1.1 -12.15 -0.65 L-12.45 -4.75 -12.0 -6.6 Q-11.05 -8.6 -8.95 -9.35 -6.9 -9.35 -5.1 -8.4 -3.55 -7.5 -3.25 -5.85 L-2.95 -3.1 -2.85 -1.25 Q-2.75 0.0 -2.05 1.1 -0.7 3.1 1.65 3.3 L2.85 2.65 Q3.75 2.05 4.45 1.25 6.0 -0.5 6.15 -2.9 L7.6 -3.8 Q9.5 -4.85 11.6 -4.45" fill="#000000" fill-rule="evenodd" stroke="none"/>
    <path d="M-6.4 6.3 Q-10.45 3.7 -11.6 -1.05 -12.1 -3.25 -10.85 -5.25 L-8.9 -8.05 Q-7.2 -8.6 -5.75 -7.65 L-5.1 -6.9 Q-4.3 -4.6 -3.65 -2.2 L-4.8 -0.05 Q-5.2 1.0 -5.95 1.9 L-6.85 2.85 -7.2 3.3 Q-5.8 3.3 -4.65 2.3 -3.8 1.5 -3.25 0.4 L-3.15 1.6 -6.4 6.3" fill="#ffcccc" fill-rule="evenodd" stroke="none"/>
    <path d="M0.8 8.85 L-4.15 7.0 -4.55 7.15 -6.4 6.3 -3.15 1.6 -2.8 2.5 -3.1 5.15 -1.8 3.5 0.2 4.0 -0.2 6.5 0.65 6.3 1.3 3.95 0.8 8.85" fill="#cc9999" fill-rule="evenodd" stroke="none"/>
  </g>
</svg>
