<?xml version="1.0" encoding="UTF-8" standalone="no"?>
<svg xmlns:xlink="http://www.w3.org/1999/xlink" height="97.55px" width="203.5px" xmlns="http://www.w3.org/2000/svg">
  <g transform="matrix(1.0, 0.0, 0.0, 1.0, -169.35, 232.8)">
    <path d="M200.2 -222.15 Q229.55 -231.3 271.1 -231.3 312.65 -231.3 342.0 -222.15 371.35 -213.05 371.35 -200.15 371.35 -188.95 349.05 -180.55 L349.05 -179.65 Q349.05 -166.65 326.15 -157.45 303.25 -148.2 270.9 -148.2 249.7 -148.25 232.55 -152.2 226.9 -135.85 205.2 -136.8 217.9 -145.0 217.85 -156.6 L215.65 -157.45 Q192.75 -166.65 192.75 -179.65 L192.8 -180.7 Q170.85 -189.05 170.85 -200.15 170.85 -213.05 200.2 -222.15" fill="#ffffff" fill-rule="evenodd" stroke="none"/>
    <path d="M200.2 -222.15 Q229.55 -231.3 271.1 -231.3 312.65 -231.3 342.0 -222.15 371.35 -213.05 371.35 -200.15 371.35 -188.95 349.05 -180.55 L349.05 -179.65 Q349.05 -166.65 326.15 -157.45 303.25 -148.2 270.9 -148.2 249.7 -148.25 232.55 -152.2 226.9 -135.85 205.2 -136.8 217.9 -145.0 217.85 -156.6 L215.65 -157.45 Q192.75 -166.65 192.75 -179.65 L192.8 -180.7 Q170.85 -189.05 170.85 -200.15 170.85 -213.05 200.2 -222.15 Z" fill="none" stroke="#333333" stroke-linecap="round" stroke-linejoin="round" stroke-width="3.0"/>
  </g>
</svg>
