<?xml version="1.0" encoding="UTF-8" standalone="no"?>
<svg xmlns:xlink="http://www.w3.org/1999/xlink" height="53.15px" width="10.65px" xmlns="http://www.w3.org/2000/svg">
  <g transform="matrix(1.0, 0.0, 0.0, 1.0, 5.3, 26.55)">
    <path d="M0.25 -26.55 L1.85 -26.05 Q3.1 -25.5 3.8 -24.2 6.2 -19.35 4.85 -13.65 L4.6 -11.95 3.25 -5.75 1.6 0.55 Q1.15 1.95 1.2 3.4 1.15 4.85 1.75 6.2 3.1 9.35 3.6 12.85 L4.0 16.25 Q4.15 18.7 3.65 21.2 3.25 23.2 2.1 24.9 L0.85 26.6 Q-1.6 26.7 -2.75 24.7 -3.5 23.4 -3.25 21.95 L-2.5 17.25 -2.3 14.95 Q-2.25 13.75 -2.75 11.95 -3.25 10.15 -4.25 7.75 -5.3 5.35 -5.3 3.45 L-5.2 0.55 -4.85 -2.6 -3.55 -7.45 Q-2.65 -10.15 -2.7 -14.5 L-2.7 -15.4 Q-3.55 -21.55 0.25 -26.55 M3.15 -12.35 L3.9 -16.0 Q4.5 -19.0 3.45 -21.8 2.35 -24.55 0.5 -25.05 L-0.4 -23.35 Q-2.55 -18.7 -1.55 -13.65 L-1.55 -12.15 0.0 -12.0 1.7 -12.2 0.9 -11.7 -0.7 -11.1 -1.55 -11.15 -2.2 -7.35 -1.9 -7.15 0.15 -7.3 Q0.65 -7.45 0.65 -7.05 L0.55 -6.9 0.25 -6.6 Q-1.05 -5.9 -2.5 -6.35 L-3.6 -2.65 -1.25 -2.1 Q-1.05 -2.15 -1.35 -1.85 L-3.85 -1.6 -4.0 -0.75 Q-4.35 1.25 -4.05 3.35 L-2.5 3.2 -1.6 3.35 -1.55 3.4 Q-2.65 4.25 -3.9 4.35 -3.4 6.9 -2.05 9.2 L-0.9 8.85 Q-0.65 8.25 -0.15 8.05 0.4 9.0 -0.9 10.05 L-1.5 10.45 -1.2 12.1 -1.0 14.95 -1.0 15.15 Q-0.05 14.75 0.8 14.15 L0.9 14.1 Q1.35 15.1 -0.3 15.9 L-0.5 16.0 -1.0 16.15 -1.1 17.7 -1.5 20.0 0.25 20.15 0.35 20.25 Q-0.6 20.9 -1.7 21.0 L-2.0 22.95 -1.9 23.8 Q-1.4 25.3 0.25 25.35 L0.65 24.75 Q2.1 22.55 2.2 19.95 L2.3 18.05 Q2.45 15.45 2.05 12.7 1.6 10.0 0.65 7.6 L-0.25 5.1 -0.5 3.5 Q-0.45 0.9 0.25 -1.55 L0.5 -2.35 Q2.3 -6.9 3.1 -11.95 L3.15 -12.35 M-1.0 15.65 L-1.0 16.15 -1.0 15.65" fill="#000000" fill-rule="evenodd" stroke="none"/>
    <path d="M1.7 -12.2 L0.0 -12.0 -1.55 -12.15 -1.55 -13.65 Q-2.55 -18.7 -0.4 -23.35 L0.5 -25.05 Q2.35 -24.55 3.45 -21.8 4.5 -19.0 3.9 -16.0 L3.15 -12.35 1.7 -12.2 M0.25 -1.55 Q-0.45 0.9 -0.5 3.5 L-0.25 5.1 0.65 7.6 Q1.6 10.0 2.05 12.7 2.45 15.45 2.3 18.05 L2.2 19.95 Q2.1 22.55 0.65 24.75 L0.25 25.35 Q-1.4 25.3 -1.9 23.8 L-2.0 22.95 -1.7 21.0 Q-0.6 20.9 0.35 20.25 L0.25 20.15 -1.5 20.0 -1.1 17.7 -1.0 16.15 -0.5 16.0 -0.3 15.9 Q1.35 15.1 0.9 14.1 L0.8 14.15 Q-0.05 14.75 -1.0 15.15 L-1.0 14.95 -1.2 12.1 -1.5 10.45 -0.9 10.05 Q0.4 9.0 -0.15 8.05 -0.65 8.25 -0.9 8.85 L-2.05 9.2 Q-3.4 6.9 -3.9 4.35 -2.65 4.25 -1.55 3.4 L-1.6 3.35 -2.5 3.2 -4.05 3.35 Q-4.35 1.25 -4.0 -0.75 L-3.85 -1.6 -1.35 -1.85 0.25 -1.55" fill="#ffcccc" fill-rule="evenodd" stroke="none"/>
    <path d="M3.15 -12.35 L3.1 -11.95 Q2.3 -6.9 0.5 -2.35 L0.25 -1.55 -1.35 -1.85 Q-1.05 -2.15 -1.25 -2.1 L-3.6 -2.65 -2.5 -6.35 Q-1.05 -5.9 0.25 -6.6 L0.55 -6.9 0.65 -7.05 Q0.65 -7.45 0.15 -7.3 L-1.9 -7.15 -2.2 -7.35 -1.55 -11.15 -0.7 -11.1 0.9 -11.7 1.7 -12.2 3.15 -12.35" fill="#cc9999" fill-rule="evenodd" stroke="none"/>
  </g>
</svg>
