<?xml version="1.0" encoding="UTF-8" standalone="no"?>
<svg xmlns:xlink="http://www.w3.org/1999/xlink" height="446.95px" width="450.45px" xmlns="http://www.w3.org/2000/svg">
  <g transform="matrix(1.0, 0.0, 0.0, 1.0, 223.45, 222.45)">
    <path d="M189.5 -206.45 Q197.8 -206.45 203.65 -200.6 209.5 -194.75 209.5 -186.45 L209.5 187.5 Q209.5 195.8 203.65 201.65 197.8 207.5 189.5 207.5 L-189.45 207.5 Q-197.75 207.5 -203.6 201.65 -209.45 195.8 -209.45 187.5 L-209.45 -186.45 Q-209.45 -194.75 -203.6 -200.6 -197.75 -206.45 -189.45 -206.45 L189.5 -206.45" fill="#ffffff" fill-opacity="0.7490196" fill-rule="evenodd" stroke="none"/>
    <path d="M205.5 -222.45 Q214.4 -222.45 220.7 -216.15 227.0 -209.85 227.0 -200.95 L227.0 203.0 Q227.0 211.9 220.7 218.2 214.4 224.5 205.5 224.5 L-201.95 224.5 Q-210.85 224.5 -217.15 218.2 -223.45 211.9 -223.45 203.0 L-223.45 -200.95 Q-223.45 -209.85 -217.15 -216.15 -210.85 -222.45 -201.95 -222.45 L205.5 -222.45 M189.5 -206.45 L-189.45 -206.45 Q-197.75 -206.45 -203.6 -200.6 -209.45 -194.75 -209.45 -186.45 L-209.45 187.5 Q-209.45 195.8 -203.6 201.65 -197.75 207.5 -189.45 207.5 L189.5 207.5 Q197.8 207.5 203.65 201.65 209.5 195.8 209.5 187.5 L209.5 -186.45 Q209.5 -194.75 203.65 -200.6 197.8 -206.45 189.5 -206.45" fill="#ffffff" fill-opacity="0.4" fill-rule="evenodd" stroke="none"/>
  </g>
</svg>
