<?xml version="1.0" encoding="UTF-8" standalone="no"?>
<svg xmlns:xlink="http://www.w3.org/1999/xlink" height="189.1px" width="363.1px" xmlns="http://www.w3.org/2000/svg">
  <g transform="matrix(1.0, 0.0, 0.0, 1.0, 162.2, -19.75)">
    <path d="M200.65 185.7 L200.8 186.5 Q201.2 189.3 200.05 191.95 199.85 192.4 200.65 185.7 M179.1 175.5 L190.9 171.85 Q203.4 176.75 197.25 188.55 194.95 193.0 190.75 195.7 178.8 203.3 164.5 205.75 136.5 210.35 108.05 207.65 L92.85 206.9 Q59.2 206.65 25.6 208.85 17.2 208.8 9.0 207.2 L-32.65 199.6 Q-67.3 193.3 -101.9 200.6 -132.2 207.1 -162.2 199.5 L-158.7 194.35 Q-133.7 186.45 -107.25 188.85 -78.1 191.8 -50.4 182.4 L-47.3 178.75 Q37.4 162.05 123.55 171.25 150.55 173.95 177.5 177.6 L179.1 175.5" fill="#000000" fill-opacity="0.3019608" fill-rule="evenodd" stroke="none"/>
    <path d="M187.2 21.55 L171.95 20.25" fill="none" stroke="#0066cc" stroke-linecap="round" stroke-linejoin="round" stroke-width="1.0"/>
  </g>
</svg>
