<?xml version="1.0" encoding="UTF-8" standalone="no"?>
<svg xmlns:xlink="http://www.w3.org/1999/xlink" height="301.3px" width="370.6px" xmlns="http://www.w3.org/2000/svg">
  <g transform="matrix(1.0, 0.0, 0.0, 1.0, 178.6, 150.65)">
    <path d="M46.75 -150.1 Q60.65 -150.1 74.0 -150.65 74.4 -147.85 76.65 -144.45 84.4 -133.0 88.7 -119.9 94.3 -98.1 104.85 -78.45 L108.95 -74.3 108.75 -74.75 Q124.95 -62.3 136.15 -52.0 137.5 -51.2 138.8 -50.45 144.5 -49.05 154.85 -38.8 166.35 -27.4 184.3 -7.85 194.35 3.05 191.25 14.05 L191.35 16.1 Q191.35 23.25 178.85 39.4 172.65 50.35 168.7 53.7 L168.4 54.3 164.2 59.95 164.0 62.45 Q164.0 65.1 163.65 67.2 170.95 76.85 173.9 88.65 L154.1 85.05 Q150.25 84.25 147.15 82.65 L147.05 82.5 146.95 82.55 145.3 81.5 145.5 84.45 Q145.35 105.6 133.05 123.15 126.6 132.25 118.1 139.3 L112.5 143.6 111.2 142.7 Q56.2 154.35 -5.5 148.95 L-15.5 144.75 Q-28.4 139.3 -37.45 129.2 -55.7 108.95 -57.6 81.65 -57.75 79.2 -58.15 76.95 -58.25 60.65 -55.05 44.55 L-47.0 6.6 Q-74.7 4.1 -102.75 -8.25 -130.85 -20.65 -147.6 -54.0 L-147.65 -54.35 Q-149.4 -58.5 -152.1 -62.1 L-151.95 -62.2 -155.15 -67.05 -155.55 -67.05 Q-158.1 -67.1 -159.75 -67.7 L-162.9 -69.0 -166.6 -71.15 Q-182.1 -82.05 -177.55 -99.3 L-176.3 -100.15 Q-170.6 -104.55 -164.35 -108.05 -160.0 -110.0 -155.95 -112.15 -153.7 -112.6 -150.2 -109.7 -146.7 -106.8 -146.3 -105.95 -130.8 -85.05 -111.5 -67.45 -99.4 -61.0 -89.75 -54.15 -89.15 -54.85 -89.25 -55.7 L-89.25 -57.2 -89.7 -58.3 Q-66.1 -56.95 -43.05 -65.0 L-31.95 -70.4 -31.6 -70.7 Q-24.7 -74.3 -21.15 -79.45 L-20.9 -79.85 Q-11.75 -93.3 -9.7 -109.4 -8.1 -122.2 -3.05 -133.45 -0.6 -138.85 2.05 -143.1 L5.3 -143.8 Q24.05 -147.75 43.05 -149.9 L46.75 -150.1 M140.95 34.95 L142.1 41.8 Q145.7 31.65 150.85 21.95 152.1 19.65 151.95 17.85 146.45 12.9 136.7 16.55 139.1 24.7 140.95 34.95 M-45.6 0.25 Q-46.1 0.6 -45.75 1.05 L-45.6 0.25" fill="#0066cc" fill-rule="evenodd" stroke="none"/>
  </g>
</svg>
