<?xml version="1.0" encoding="UTF-8" standalone="no"?>
<svg xmlns:xlink="http://www.w3.org/1999/xlink" height="401.55px" width="377.1px" xmlns="http://www.w3.org/2000/svg">
  <g transform="matrix(1.0, 0.0, 0.0, 1.0, 147.7, 196.95)">
    <path d="M-0.3 -134.3 Q3.7 -131.9 9.2 -132.1 L27.8 -131.3 Q29.4 -134.95 31.55 -138.35 L22.9 -137.05 Q28.15 -139.95 37.7 -143.05 L43.7 -144.45 Q63.0 -148.15 82.45 -150.5 L92.1 -151.3 92.15 -151.35 Q108.35 -152.5 123.45 -148.0 L123.6 -147.8 111.4 -147.05 Q114.6 -143.05 117.4 -138.8 119.4 -139.45 131.65 -145.05 135.9 -147.05 137.9 -148.7 L137.95 -148.55 137.95 -148.7 Q141.55 -151.7 137.4 -153.55 122.8 -163.85 103.25 -161.3 L78.55 -161.2 Q64.55 -161.2 50.45 -157.95 L41.9 -155.65 Q35.9 -153.85 29.85 -151.45 L1.5 -140.3 Q-2.4 -138.85 -3.7 -137.05 -2.15 -135.4 -0.3 -134.3 M143.95 -151.15 Q142.8 -146.65 134.3 -142.35 125.8 -138.05 119.2 -136.0 125.0 -126.6 128.9 -116.2 133.75 -96.2 141.3 -77.5 L174.7 -50.05 Q179.8 -46.3 183.75 -42.65 L190.7 -36.45 Q203.35 -25.15 210.55 -18.0 221.35 -7.1 225.3 0.35 229.4 8.0 229.4 17.75 229.4 25.85 214.8 46.75 L200.25 66.5 Q203.2 73.5 207.65 80.8 212.05 88.05 213.1 92.95 L213.1 93.0 213.3 93.25 Q213.5 93.75 213.15 94.25 L212.65 94.95 Q196.85 96.55 184.4 90.25 185.5 93.7 184.65 97.95 183.45 104.05 181.75 109.95 L181.85 110.95 Q178.15 120.2 172.65 128.0 168.35 134.05 163.0 139.25 L203.3 154.55 203.8 154.85 Q205.8 162.25 204.75 170.0 204.05 175.35 201.35 179.5 201.55 179.95 201.4 180.7 L201.3 181.05 Q187.7 196.35 166.5 199.05 L145.9 201.95 Q129.45 204.5 113.45 201.85 107.55 201.65 102.55 198.65 L100.9 197.7 99.8 164.35 87.5 165.2 Q78.65 165.5 69.8 165.1 71.4 170.45 69.55 176.15 L68.45 185.0 Q67.5 192.5 64.75 199.4 38.1 207.55 9.75 202.95 -0.85 201.25 -11.3 198.85 -30.5 194.45 -45.9 182.7 -48.45 180.75 -48.25 177.2 -47.8 167.25 -43.75 158.45 -42.55 155.95 -39.75 154.95 -27.8 150.85 -15.65 147.15 -7.85 144.8 -0.25 142.25 -10.0 133.95 -16.25 123.6 -23.05 112.35 -25.75 98.65 -27.7 88.75 -27.15 78.55 L-26.8 76.25 -26.5 70.75 Q-24.05 44.15 -16.8 18.45 L-15.15 12.85 Q-29.2 11.45 -42.85 6.3 -85.25 -1.45 -108.25 -35.6 -113.0 -42.6 -116.75 -49.95 -119.05 -54.35 -120.3 -58.9 -127.8 -60.1 -133.35 -63.55 -130.3 -40.85 -132.15 -17.05 L-132.3 -16.65 Q-133.75 -15.75 -134.9 -17.3 -135.15 -41.0 -134.45 -64.3 -143.2 -70.4 -146.7 -82.7 -151.1 -98.05 -136.2 -105.2 L-129.1 -108.45 Q-122.65 -112.1 -116.9 -113.35 L-103.05 -98.05 Q-100.05 -102.3 -100.15 -107.9 -100.45 -118.2 -90.65 -121.1 L-87.1 -121.8 -86.1 -121.65 -86.05 -121.6 Q-95.0 -120.55 -96.7 -112.1 -97.55 -107.95 -97.8 -103.6 -98.1 -99.0 -100.7 -95.45 -88.45 -81.9 -74.85 -69.7 -67.2 -62.8 -57.8 -58.05 L-56.35 -57.05 Q-22.3 -56.75 6.25 -73.65 13.2 -79.0 14.5 -82.4 L14.7 -83.05 Q21.25 -100.65 24.3 -119.35 25.1 -124.05 26.7 -128.45 15.45 -126.45 2.6 -129.55 -3.1 -130.95 -8.55 -139.35 -8.85 -139.6 3.2 -145.4 15.25 -151.25 28.55 -155.9 L28.85 -156.95 30.85 -159.95 33.15 -170.3 34.1 -177.55 Q35.15 -188.05 46.15 -190.25 L50.65 -191.3 Q57.8 -190.75 64.7 -189.45 76.7 -193.6 89.05 -194.6 94.05 -192.15 97.65 -188.65 101.5 -194.7 109.6 -195.45 113.9 -195.85 117.9 -196.95 L119.4 -196.7 119.75 -196.55 119.95 -196.3 120.15 -195.85 120.2 -195.6 Q116.6 -187.35 108.85 -183.4 105.95 -181.9 102.9 -181.85 105.75 -176.75 106.8 -170.2 L106.85 -169.8 Q107.8 -168.85 108.15 -167.55 L108.95 -165.35 Q123.9 -164.6 134.5 -160.15 145.05 -155.7 143.95 -151.15 M116.65 -192.9 Q114.0 -194.35 110.0 -192.9 103.3 -191.5 97.95 -185.6 L100.8 -185.1 Q103.65 -183.25 107.85 -185.2 115.0 -189.7 116.65 -192.9 M98.95 -165.0 L104.7 -165.45 Q101.7 -175.55 95.9 -184.5 L93.95 -184.15 Q93.45 -184.5 93.55 -185.1 L93.65 -185.35 94.85 -186.1 92.5 -189.5 87.75 -190.35 Q84.35 -190.75 80.9 -190.4 76.1 -189.95 71.2 -188.1 L75.85 -186.9 76.0 -186.7 53.7 -185.7 46.15 -185.35 45.0 -185.3 Q41.4 -184.9 39.55 -181.7 36.65 -176.5 36.3 -170.3 L35.95 -166.4 43.65 -167.7 51.7 -168.6 Q58.75 -169.15 65.85 -168.95 L68.25 -168.75 51.35 -165.4 43.05 -163.75 34.95 -161.9 Q34.2 -159.45 33.05 -157.1 L42.4 -159.2 50.8 -160.75 59.75 -162.05 89.85 -164.3 98.95 -165.0 M93.15 -178.4 Q94.9 -178.25 95.95 -177.45 97.75 -176.1 97.1 -175.65 L94.95 -174.4 93.45 -173.6 Q90.4 -172.0 89.95 -171.9 L89.65 -172.6 89.6 -173.3 Q89.9 -173.7 92.35 -174.75 88.6 -174.15 87.1 -174.65 L85.85 -176.0 85.6 -176.3 85.0 -178.15 85.0 -178.4 85.0 -178.45 Q85.25 -180.25 86.7 -181.1 87.45 -180.3 86.65 -178.85 L86.55 -178.6 Q86.85 -177.25 88.1 -176.6 L93.15 -176.9 Q91.9 -177.2 90.2 -178.25 L93.15 -178.4 M145.7 -66.65 L145.1 -66.25 144.05 -67.75 141.5 -72.2 Q129.9 -92.95 123.95 -116.2 119.65 -129.3 111.9 -140.75 109.65 -144.15 109.25 -146.95 95.9 -146.4 82.0 -146.4 L78.3 -146.2 Q59.3 -144.05 40.55 -140.1 L37.3 -139.4 Q34.65 -135.15 32.2 -129.75 27.15 -118.5 25.55 -105.7 24.7 -98.9 22.55 -92.55 L22.35 -91.9 Q20.75 -87.35 18.5 -83.05 16.65 -79.5 14.35 -76.15 L14.1 -75.75 Q10.55 -70.6 3.65 -67.0 L3.3 -66.7 -7.8 -61.3 Q-30.85 -53.25 -54.45 -54.6 L-54.0 -53.5 -54.0 -52.0 -54.0 -51.6 -56.5 -51.85 -59.3 -53.7 Q-67.05 -58.85 -76.25 -63.75 -90.95 -77.15 -103.45 -92.45 -104.9 -91.2 -106.45 -90.3 -108.85 -89.05 -111.4 -88.6 L-114.8 -88.45 -113.95 -83.65 -113.85 -82.65 Q-113.45 -78.5 -113.75 -74.15 L-114.25 -69.25 -116.7 -58.5 -116.95 -58.5 -116.85 -58.4 Q-114.15 -54.8 -112.4 -50.65 L-112.35 -50.3 Q-95.6 -16.95 -59.9 -4.05 -37.15 4.1 -14.35 10.15 L-12.9 5.65 -11.5 1.2 Q-10.25 -1.45 -8.7 -3.25 L-19.8 48.25 Q-23.0 64.35 -22.9 80.65 -22.5 82.9 -22.35 85.35 -21.7 94.45 -19.25 102.75 -15.5 115.45 -7.55 126.35 L-2.2 132.9 Q6.85 143.0 19.75 148.45 L29.75 152.65 Q24.15 147.55 22.9 138.8 L22.1 134.15 21.6 132.0 Q20.65 128.35 20.0 124.7 15.85 103.15 19.6 81.0 20.85 73.75 23.2 66.85 29.35 40.85 36.9 15.4 L43.25 -6.7 Q43.4 -7.3 43.85 -7.75 L44.15 -8.05 Q50.65 -32.0 55.6 -56.2 54.2 -56.65 52.85 -57.25 51.65 -56.95 50.2 -58.65 L49.0 -60.15 Q45.95 -64.2 44.65 -69.25 44.2 -71.0 42.95 -72.4 L42.65 -72.75 Q39.2 -76.45 40.0 -81.5 40.35 -83.65 41.55 -85.45 43.45 -88.25 46.1 -90.25 L45.35 -91.25 Q44.1 -93.45 43.15 -95.8 40.05 -104.05 42.85 -112.3 47.9 -127.4 61.4 -136.0 66.75 -139.4 72.75 -140.95 L73.05 -140.95 73.15 -141.05 73.45 -141.1 74.6 -141.4 Q75.7 -141.7 76.6 -135.5 L78.2 -135.8 80.3 -135.9 Q94.25 -136.0 101.45 -124.55 108.35 -113.65 107.35 -100.45 107.2 -98.3 106.05 -96.75 L110.1 -95.3 112.25 -94.1 Q116.3 -91.1 117.65 -87.35 119.2 -82.9 116.9 -77.35 116.35 -76.0 115.05 -75.25 L114.85 -75.15 Q113.65 -73.35 112.15 -71.7 L111.75 -71.35 Q108.3 -64.55 102.0 -60.75 104.7 -50.95 105.65 -40.25 106.4 -31.9 108.2 -23.7 L110.35 -14.4 Q115.4 4.6 125.25 21.7 130.05 32.75 134.45 44.1 L137.95 53.75 Q144.75 72.4 149.1 91.55 151.65 105.9 151.05 120.9 L151.05 121.0 Q150.75 128.1 149.45 135.0 L148.05 141.35 146.45 146.4 147.75 147.3 153.35 143.0 Q160.15 137.35 165.65 130.4 L168.3 126.85 Q177.2 114.15 179.75 99.6 L179.8 99.35 Q180.7 93.9 180.75 88.15 176.6 85.5 172.85 81.95 168.0 77.35 168.05 70.85 168.1 54.4 175.8 39.35 L176.2 38.65 Q174.3 28.1 171.8 19.8 166.0 18.15 161.95 14.15 161.65 13.85 162.35 14.0 L172.25 16.55 172.9 16.4 172.9 16.35 173.65 16.6 174.05 16.9 Q188.2 19.35 203.1 17.45 204.35 17.25 204.7 18.35 200.1 20.0 195.35 20.8 L187.2 21.55 Q187.35 23.3 186.1 25.65 175.75 45.05 171.8 66.3 171.1 70.1 172.25 73.75 174.9 82.3 182.2 86.25 L182.3 86.2 182.4 86.35 Q185.5 87.95 189.35 88.75 199.3 90.9 209.15 92.35 L208.05 88.55 205.85 82.65 200.1 73.15 198.1 69.85 192.15 74.9 191.25 74.65 213.5 42.55 Q226.25 24.8 226.25 14.0 226.25 11.8 225.5 9.3 222.1 -2.1 203.35 -20.3 196.45 -26.95 184.7 -37.15 L180.8 -40.55 Q177.35 -43.75 173.65 -46.55 L169.65 -49.55 Q156.45 -59.4 144.0 -71.05 L145.9 -66.8 145.7 -66.65 M92.15 -129.5 Q84.8 -134.3 76.25 -132.5 74.1 -132.0 74.2 -134.0 L74.35 -134.15 73.5 -137.65 Q62.8 -135.2 55.0 -126.9 46.5 -117.85 45.0 -105.8 44.45 -101.8 45.7 -97.9 46.7 -94.7 48.2 -91.7 L48.25 -91.65 Q50.3 -92.8 52.75 -93.55 68.8 -98.45 85.4 -99.5 94.15 -99.85 102.4 -97.8 L102.65 -99.55 Q103.6 -102.4 103.55 -105.5 103.25 -118.7 94.0 -128.05 L92.15 -129.5 M87.5 -116.35 Q93.4 -114.5 91.95 -108.25 90.8 -103.05 86.0 -105.0 85.45 -105.2 85.15 -105.85 82.35 -111.1 86.05 -115.55 86.65 -116.25 87.5 -116.35 M86.85 -114.5 Q84.35 -113.85 85.8 -111.7 86.15 -111.15 86.75 -111.4 90.15 -112.8 86.85 -114.5 M56.2 -110.7 Q56.5 -109.9 57.25 -110.2 60.25 -111.3 57.4 -112.75 55.6 -112.45 56.2 -110.7 M59.65 -115.4 Q62.1 -113.7 62.65 -110.2 63.15 -106.75 61.9 -105.0 57.85 -100.65 56.25 -104.35 54.65 -108.1 55.75 -111.55 56.7 -114.6 59.65 -115.4 M114.1 -86.9 Q112.0 -92.0 105.45 -93.8 91.55 -97.6 77.15 -95.9 63.35 -94.3 50.6 -89.15 42.35 -85.85 42.75 -77.95 L42.9 -77.85 Q45.8 -73.2 48.1 -68.2 L50.5 -63.45 52.3 -60.65 Q54.3 -59.95 56.35 -59.4 L56.45 -59.45 56.5 -59.35 Q68.2 -56.25 81.0 -57.8 90.25 -58.9 98.7 -62.9 L101.05 -64.1 101.1 -64.15 Q106.7 -67.55 110.0 -73.3 L114.05 -78.95 114.6 -80.15 Q115.1 -81.1 115.05 -82.25 114.95 -84.3 114.45 -86.0 L114.1 -86.9 M53.25 -69.7 L53.15 -72.65 Q51.55 -73.2 50.1 -74.0 53.6 -74.5 57.75 -74.0 L69.25 -73.5 Q81.25 -74.05 92.9 -76.7 99.2 -78.15 105.0 -81.0 106.6 -81.8 108.05 -82.8 L108.15 -82.85 108.45 -82.95 109.2 -82.5 109.3 -82.35 Q107.9 -80.1 105.9 -78.45 L105.85 -78.15 Q105.1 -73.45 102.75 -69.65 L102.8 -69.5 102.35 -69.05 101.5 -67.85 Q101.1 -67.35 100.4 -67.3 L100.1 -67.25 Q97.2 -65.45 93.35 -65.1 L63.75 -62.5 Q58.4 -62.05 54.6 -64.8 53.95 -65.3 53.75 -66.15 L53.45 -67.95 53.3 -68.0 Q52.8 -68.2 52.9 -68.85 L53.25 -69.7 M56.75 -66.65 Q56.8 -66.35 57.0 -66.2 68.25 -65.4 79.6 -66.75 L93.85 -68.5 100.4 -69.8 101.05 -71.5 Q98.95 -70.85 96.3 -71.85 98.8 -74.2 102.35 -75.35 L102.45 -75.35 102.85 -76.45 Q100.85 -75.5 98.5 -74.9 91.2 -73.05 83.75 -72.1 71.15 -70.45 58.5 -71.55 L55.35 -72.05 56.0 -70.15 62.65 -68.95 62.85 -68.9 63.5 -69.05 63.7 -68.95 63.25 -68.6 62.95 -68.3 Q59.75 -66.95 56.65 -67.2 L56.75 -66.65 M100.25 -52.95 L99.75 -59.55 95.65 -57.95 Q91.85 -56.8 88.05 -56.05 74.75 -53.55 61.35 -55.0 L57.1 -55.75 57.5 -51.15 57.55 -51.15 Q57.85 -42.55 55.1 -33.5 50.25 -17.65 46.3 -1.75 39.95 23.85 32.0 49.25 24.1 74.6 22.35 101.3 21.5 114.2 24.55 126.7 L25.7 130.85 27.2 135.2 Q29.75 142.15 33.65 148.4 35.15 150.85 37.0 153.1 L37.65 153.55 45.35 157.55 50.15 159.15 59.0 160.75 60.55 160.85 Q74.1 161.7 87.5 161.05 L113.45 158.35 120.65 157.1 Q129.7 155.55 137.75 151.6 141.55 144.1 143.75 136.35 145.15 131.35 145.95 126.25 147.75 114.05 146.0 101.15 L143.35 86.5 Q138.25 64.7 129.55 44.1 L128.9 41.75 Q124.3 31.8 120.2 21.7 L116.8 13.7 Q110.1 -2.4 105.25 -19.05 101.55 -35.7 100.25 -52.95 M178.65 33.75 L184.35 21.5 175.7 20.6 Q178.15 26.95 178.65 33.75 M105.75 163.7 L103.15 164.0 104.4 195.4 113.45 196.95 Q135.8 200.0 158.95 195.55 171.15 193.2 182.55 188.65 189.05 186.1 194.7 182.45 L194.7 181.8 Q198.05 177.15 199.45 171.65 L199.65 170.8 Q201.05 164.4 200.2 157.95 L198.4 157.2 198.25 157.15 Q181.0 150.0 163.0 143.7 161.15 143.05 160.05 141.95 L153.35 147.25 146.85 150.45 145.15 150.85 141.4 154.15 Q135.25 158.85 127.65 160.65 L121.4 161.9 105.75 163.7 M190.5 161.5 L193.5 160.65 Q194.4 160.8 194.8 161.55 L194.95 161.9 194.75 162.1 185.2 168.1 183.7 168.75 183.7 168.8 Q178.5 170.9 172.45 171.8 L159.6 173.9 Q141.65 176.55 124.05 175.1 L134.65 173.75 Q162.95 169.75 190.5 161.5 M61.4 164.5 L52.7 163.55 Q43.5 162.35 36.0 157.25 L33.75 155.5 Q17.2 155.95 2.7 144.65 L2.35 144.4 Q-7.4 149.95 -19.05 152.7 -31.35 155.6 -40.6 162.65 L-41.6 163.4 Q-42.0 163.75 -42.2 164.4 L-42.35 165.0 -42.4 165.1 Q-43.2 172.15 -43.55 179.25 -36.75 184.7 -28.95 188.55 -21.1 192.35 -12.2 194.5 23.5 203.1 59.55 196.6 60.9 196.35 61.8 195.35 63.15 189.75 64.0 184.0 L64.6 180.6 64.65 180.55 65.45 176.95 66.7 164.9 61.4 164.5 M-35.1 163.6 L-34.9 163.45 -34.7 163.4 -34.05 163.3 -34.0 163.25 Q-9.35 172.45 17.4 173.9 19.65 174.0 21.3 174.75 -6.05 178.5 -31.45 168.75 L-32.6 168.3 Q-34.8 167.45 -36.05 165.7 L-35.95 164.7 Q-35.8 164.1 -35.25 163.7 L-35.1 163.6 M-113.35 -92.25 Q-111.0 -92.35 -109.0 -93.1 -107.2 -93.85 -105.65 -95.2 L-111.05 -102.25 Q-111.45 -103.1 -114.95 -106.0 -118.45 -108.9 -120.7 -108.45 -124.55 -106.4 -128.6 -104.55 L-128.75 -104.5 -129.1 -104.35 Q-135.35 -100.85 -141.05 -96.45 L-142.3 -95.6 Q-146.85 -78.35 -131.35 -67.45 -129.55 -66.2 -127.65 -65.3 L-124.5 -64.0 Q-122.85 -63.4 -120.3 -63.35 L-119.9 -63.35 -118.8 -69.25 Q-118.25 -74.1 -118.55 -79.05 L-119.1 -93.6 -119.05 -93.65 -118.1 -98.0 -118.0 -97.85 -117.4 -96.7 Q-116.15 -94.3 -115.45 -91.8 L-113.35 -92.25" fill="#000000" fill-rule="evenodd" stroke="none"/>
    <path d="M137.4 -153.55 Q141.55 -151.7 137.95 -148.7 L137.95 -148.55 137.9 -148.7 Q135.9 -147.05 131.65 -145.05 119.4 -139.45 117.4 -138.8 114.6 -143.05 111.4 -147.05 L123.6 -147.8 123.45 -148.0 Q108.35 -152.5 92.15 -151.35 L92.1 -151.3 82.45 -150.5 Q63.0 -148.15 43.7 -144.45 L37.7 -143.05 Q28.15 -139.95 22.9 -137.05 L31.55 -138.35 Q29.4 -134.95 27.8 -131.3 L9.2 -132.1 Q3.7 -131.9 -0.3 -134.3 8.45 -143.1 30.8 -148.15 58.3 -156.8 89.25 -158.45 114.15 -159.3 137.4 -153.55" fill="#cccc99" fill-rule="evenodd" stroke="none"/>
    <path d="M116.65 -192.9 Q115.0 -189.7 107.85 -185.2 103.65 -183.25 100.8 -185.1 L97.95 -185.6 Q103.3 -191.5 110.0 -192.9 114.0 -194.35 116.65 -192.9" fill="#ffcc99" fill-rule="evenodd" stroke="none"/>
    <path d="M89.85 -164.3 L59.75 -162.05 50.8 -160.75 51.35 -165.4 68.25 -168.75 65.85 -168.95 Q58.75 -169.15 51.7 -168.6 L53.7 -185.7 76.0 -186.7 75.85 -186.9 71.2 -188.1 Q76.1 -189.95 80.9 -190.4 L85.0 -178.45 85.0 -178.4 85.0 -178.15 85.6 -176.3 85.85 -176.0 89.85 -164.3" fill="#e2e1c7" fill-rule="evenodd" stroke="none"/>
    <path d="M87.5 -116.35 Q86.65 -116.25 86.05 -115.55 82.35 -111.1 85.15 -105.85 85.45 -105.2 86.0 -105.0 90.8 -103.05 91.95 -108.25 93.4 -114.5 87.5 -116.35 M92.15 -129.5 L94.0 -128.05 Q103.25 -118.7 103.55 -105.5 103.6 -102.4 102.65 -99.55 L102.4 -97.8 Q94.15 -99.85 85.4 -99.5 68.8 -98.45 52.75 -93.55 50.3 -92.8 48.25 -91.65 L48.2 -91.7 Q46.7 -94.7 45.7 -97.9 44.45 -101.8 45.0 -105.8 46.5 -117.85 55.0 -126.9 62.8 -135.2 73.5 -137.65 L74.35 -134.15 74.2 -134.0 Q74.1 -132.0 76.25 -132.5 84.8 -134.3 92.15 -129.5 M86.85 -114.5 Q90.15 -112.8 86.75 -111.4 86.15 -111.15 85.8 -111.7 84.35 -113.85 86.85 -114.5 M56.2 -110.7 Q55.6 -112.45 57.4 -112.75 60.25 -111.3 57.25 -110.2 56.5 -109.9 56.2 -110.7 M59.65 -115.4 Q56.7 -114.6 55.75 -111.55 54.65 -108.1 56.25 -104.35 57.85 -100.65 61.9 -105.0 63.15 -106.75 62.65 -110.2 62.1 -113.7 59.65 -115.4 M56.75 -66.65 L56.65 -67.2 Q59.75 -66.95 62.95 -68.3 L63.25 -68.6 63.7 -68.95 63.5 -69.05 62.85 -68.9 62.65 -68.95 56.0 -70.15 55.35 -72.05 58.5 -71.55 Q71.15 -70.45 83.75 -72.1 91.2 -73.05 98.5 -74.9 100.85 -75.5 102.85 -76.45 L102.45 -75.35 102.35 -75.35 Q98.8 -74.2 96.3 -71.85 98.95 -70.85 101.05 -71.5 L100.4 -69.8 93.85 -68.5 79.6 -66.75 Q68.25 -65.4 57.0 -66.2 56.8 -66.35 56.75 -66.65 M57.55 -51.15 Q80.0 -40.4 100.25 -52.95 101.55 -35.7 105.25 -19.05 110.1 -2.4 116.8 13.7 L120.2 21.7 Q124.3 31.8 128.9 41.75 L129.55 44.1 Q138.25 64.7 143.35 86.5 L146.0 101.15 Q147.75 114.05 145.95 126.25 145.15 131.35 143.75 136.35 L129.85 138.95 Q83.45 146.25 31.0 136.0 L26.35 131.55 25.7 130.85 24.55 126.7 Q21.5 114.2 22.35 101.3 24.1 74.6 32.0 49.25 39.95 23.85 46.3 -1.75 50.25 -17.65 55.1 -33.5 57.85 -42.55 57.55 -51.15" fill="#ffffff" fill-rule="evenodd" stroke="none"/>
    <path d="M114.1 -86.9 L114.45 -86.0 112.75 -86.7 Q81.75 -69.55 42.75 -77.95 78.35 -100.45 112.75 -86.7 L114.1 -86.9 M198.25 157.15 Q193.85 158.95 190.5 161.5 162.95 169.75 134.65 173.75 122.95 174.3 110.95 175.95 L110.75 175.2 Q109.0 168.75 105.75 163.7 L121.4 161.9 127.65 160.65 Q135.25 158.85 141.4 154.15 L145.15 150.85 146.85 150.45 153.35 147.25 160.05 141.95 Q161.15 143.05 163.0 143.7 181.0 150.0 198.25 157.15 M-42.2 164.4 Q-42.0 163.75 -41.6 163.4 L-40.6 162.65 Q-31.35 155.6 -19.05 152.7 -7.4 149.95 2.35 144.4 L2.7 144.65 Q17.2 155.95 33.75 155.5 L36.0 157.25 Q43.5 162.35 52.7 163.55 L61.4 164.5 55.7 172.7 Q38.55 175.3 21.3 175.55 L21.3 174.75 Q19.65 174.0 17.4 173.9 -9.35 172.45 -34.0 163.25 L-34.05 163.3 -34.7 163.4 -34.9 163.45 -35.1 163.6 Q-36.75 162.75 -39.0 162.45 L-40.35 163.0 -42.2 164.4" fill="#ffb409" fill-rule="evenodd" stroke="none"/>
    <path d="M57.55 -51.15 L57.5 -51.15 57.1 -55.75 61.35 -55.0 Q74.75 -53.55 88.05 -56.05 91.85 -56.8 95.65 -57.95 L99.75 -59.55 100.25 -52.95 Q80.0 -40.4 57.55 -51.15 M143.75 136.35 Q141.55 144.1 137.75 151.6 129.7 155.55 120.65 157.1 L113.45 158.35 87.5 161.05 Q74.1 161.7 60.55 160.85 L59.0 160.75 50.15 159.15 45.35 157.55 37.65 153.55 37.0 153.1 Q35.15 150.85 33.65 148.4 29.75 142.15 27.2 135.2 L25.7 130.85 26.35 131.55 31.0 136.0 Q83.45 146.25 129.85 138.95 L143.75 136.35" fill="#cccccc" fill-rule="evenodd" stroke="none"/>
    <path d="M-111.4 -88.6 L-109.65 -76.3 Q-108.35 -67.35 -113.1 -60.65 -92.55 -9.8 -12.9 5.65 L-14.35 10.15 Q-37.15 4.1 -59.9 -4.05 -95.6 -16.95 -112.35 -50.3 L-112.4 -50.65 Q-114.15 -54.8 -116.85 -58.4 L-116.95 -58.5 -116.7 -58.5 -114.25 -69.25 -113.75 -74.15 Q-113.45 -78.5 -113.85 -82.65 L-113.95 -83.65 -114.8 -88.45 -111.4 -88.6 M-7.55 126.35 Q7.5 130.9 22.1 134.15 L22.9 138.8 Q24.15 147.55 29.75 152.65 L19.75 148.45 Q6.85 143.0 -2.2 132.9 L-7.55 126.35 M149.45 135.0 Q157.65 133.0 165.65 130.4 160.15 137.35 153.35 143.0 L147.75 147.3 146.45 146.4 148.05 141.35 149.45 135.0 M195.35 20.8 L179.55 57.15 Q172.35 70.55 182.75 80.3 193.15 90.05 208.05 88.55 L209.15 92.35 Q199.3 90.9 189.35 88.75 185.5 87.95 182.4 86.35 L182.3 86.2 182.2 86.25 Q174.9 82.3 172.25 73.75 171.1 70.1 171.8 66.3 175.75 45.05 186.1 25.65 187.35 23.3 187.2 21.55 L195.35 20.8 M200.1 73.15 L192.15 74.9 198.1 69.85 200.1 73.15 M-113.35 -92.25 L-115.45 -91.8 Q-116.15 -94.3 -117.4 -96.7 L-118.0 -97.85 -113.35 -92.25" fill="#000000" fill-opacity="0.3019608" fill-rule="evenodd" stroke="none"/>
    <path d="M198.25 157.15 L198.4 157.2 200.2 157.95 Q201.05 164.4 199.65 170.8 L199.45 171.65 Q198.05 177.15 194.7 181.8 L194.7 182.45 Q189.05 186.1 182.55 188.65 171.15 193.2 158.95 195.55 135.8 200.0 113.45 196.95 L104.4 195.4 103.15 164.0 105.75 163.7 Q109.0 168.75 110.75 175.2 L110.95 175.95 Q122.95 174.3 134.65 173.75 L124.05 175.1 Q141.65 176.55 159.6 173.9 L172.45 171.8 Q178.5 170.9 183.7 168.8 L183.7 168.75 185.2 168.1 194.75 162.1 194.95 161.9 194.8 161.55 Q194.4 160.8 193.5 160.65 L190.5 161.5 Q193.85 158.95 198.25 157.15 M-42.2 164.4 L-40.35 163.0 -39.0 162.45 Q-36.75 162.75 -35.1 163.6 L-35.25 163.7 Q-35.8 164.1 -35.95 164.7 L-36.05 165.7 Q-34.8 167.45 -32.6 168.3 L-31.45 168.75 Q-6.05 178.5 21.3 174.75 L21.3 175.55 Q38.55 175.3 55.7 172.7 L61.4 164.5 66.7 164.9 65.45 176.95 64.65 180.55 64.6 180.6 64.0 184.0 Q63.15 189.75 61.8 195.35 60.9 196.35 59.55 196.6 23.5 203.1 -12.2 194.5 -21.1 192.35 -28.95 188.55 -36.75 184.7 -43.55 179.25 -43.2 172.15 -42.4 165.1 L-42.35 165.0 -42.2 164.4" fill="#f99108" fill-rule="evenodd" stroke="none"/>
    <path d="M114.45 -86.0 Q114.95 -84.3 115.05 -82.25 115.1 -81.1 114.6 -80.15 L114.05 -78.95 110.0 -73.3 Q106.7 -67.55 101.1 -64.15 L101.05 -64.1 98.7 -62.9 Q90.25 -58.9 81.0 -57.8 68.2 -56.25 56.5 -59.35 L56.45 -59.45 56.35 -59.4 Q54.3 -59.95 52.3 -60.65 L50.5 -63.45 48.1 -68.2 Q45.8 -73.2 42.9 -77.85 L42.75 -77.95 Q81.75 -69.55 112.75 -86.7 L114.45 -86.0 M53.25 -69.7 L52.9 -68.85 Q52.8 -68.2 53.3 -68.0 L53.45 -67.95 53.75 -66.15 Q53.95 -65.3 54.6 -64.8 58.4 -62.05 63.75 -62.5 L93.35 -65.1 Q97.2 -65.45 100.1 -67.25 L100.4 -67.3 Q101.1 -67.35 101.5 -67.85 L102.35 -69.05 102.8 -69.5 102.75 -69.65 Q105.1 -73.45 105.85 -78.15 L105.9 -78.45 Q107.9 -80.1 109.3 -82.35 L109.2 -82.5 108.45 -82.95 108.15 -82.85 108.05 -82.8 Q106.6 -81.8 105.0 -81.0 99.2 -78.15 92.9 -76.7 81.25 -74.05 69.25 -73.5 L57.75 -74.0 Q53.6 -74.5 50.1 -74.0 51.55 -73.2 53.15 -72.65 L53.25 -69.7" fill="#e2a008" fill-rule="evenodd" stroke="none"/>
    <path d="M42.75 -77.95 Q42.35 -85.85 50.6 -89.15 63.35 -94.3 77.15 -95.9 91.55 -97.6 105.45 -93.8 112.0 -92.0 114.1 -86.9 L112.75 -86.7 Q78.35 -100.45 42.75 -77.95" fill="#ffcb56" fill-rule="evenodd" stroke="none"/>
    <path d="M18.5 -83.05 Q18.8 -71.95 6.45 -64.55 -11.05 -54.0 -32.35 -51.25 -54.3 -48.6 -54.0 -51.6 L-54.0 -52.0 -54.0 -53.5 -54.45 -54.6 Q-30.85 -53.25 -7.8 -61.3 L3.3 -66.7 3.65 -67.0 Q10.55 -70.6 14.1 -75.75 L14.35 -76.15 Q16.65 -79.5 18.5 -83.05 M-59.3 -53.7 Q-59.65 -51.45 -63.9 -52.9 -70.5 -54.45 -77.15 -61.25 L-106.45 -90.3 Q-104.9 -91.2 -103.45 -92.45 -90.95 -77.15 -76.25 -63.75 -67.05 -58.85 -59.3 -53.7 M225.5 9.3 Q193.45 -29.1 155.5 -55.85 146.3 -63.45 145.7 -66.65 L145.9 -66.8 144.0 -71.05 Q156.45 -59.4 169.65 -49.55 L173.65 -46.55 Q177.35 -43.75 180.8 -40.55 L184.7 -37.15 Q196.45 -26.95 203.35 -20.3 222.1 -2.1 225.5 9.3" fill="#ffffff" fill-opacity="0.2509804" fill-rule="evenodd" stroke="none"/>
    <path d="M137.4 -153.55 Q114.15 -159.3 89.25 -158.45 58.3 -156.8 30.8 -148.15 8.45 -143.1 -0.3 -134.3 -2.15 -135.4 -3.7 -137.05 -2.4 -138.85 1.5 -140.3 L29.85 -151.45 Q35.9 -153.85 41.9 -155.65 L50.45 -157.95 Q64.55 -161.2 78.55 -161.2 L103.25 -161.3 Q122.8 -163.85 137.4 -153.55" fill="#b4b487" fill-rule="evenodd" stroke="none"/>
    <path d="M87.75 -190.35 L93.15 -178.4 90.2 -178.25 Q91.9 -177.2 93.15 -176.9 L88.1 -176.6 Q86.85 -177.25 86.55 -178.6 L86.65 -178.85 Q87.45 -180.3 86.7 -181.1 85.25 -180.25 85.0 -178.45 L80.9 -190.4 Q84.35 -190.75 87.75 -190.35 M94.95 -174.4 L98.95 -165.0 89.85 -164.3 85.85 -176.0 87.1 -174.65 Q88.6 -174.15 92.35 -174.75 89.9 -173.7 89.6 -173.3 L89.65 -172.6 89.95 -171.9 Q90.4 -172.0 93.45 -173.6 L94.95 -174.4 M50.8 -160.75 L42.4 -159.2 43.05 -163.75 51.35 -165.4 50.8 -160.75 M51.7 -168.6 L43.65 -167.7 46.15 -185.35 53.7 -185.7 51.7 -168.6" fill="#d4d3bb" fill-rule="evenodd" stroke="none"/>
    <path d="M87.75 -190.35 L92.5 -189.5 94.85 -186.1 93.65 -185.35 93.55 -185.1 Q93.45 -184.5 93.95 -184.15 L95.9 -184.5 Q101.7 -175.55 104.7 -165.45 L98.95 -165.0 94.95 -174.4 97.1 -175.65 Q97.75 -176.1 95.95 -177.45 94.9 -178.25 93.15 -178.4 L87.75 -190.35 M42.4 -159.2 L33.05 -157.1 Q34.2 -159.45 34.95 -161.9 L43.05 -163.75 42.4 -159.2 M43.65 -167.7 L35.95 -166.4 36.3 -170.3 Q36.65 -176.5 39.55 -181.7 41.4 -184.9 45.0 -185.3 L46.15 -185.35 43.65 -167.7" fill="#c2c1ab" fill-rule="evenodd" stroke="none"/>
    <path d="M179.75 99.6 L179.8 99.35" fill="none" stroke="#003300" stroke-linecap="round" stroke-linejoin="round" stroke-width="1.0"/>
  </g>
</svg>
