<?xml version="1.0" encoding="UTF-8" standalone="no"?>
<svg xmlns:xlink="http://www.w3.org/1999/xlink" height="498.95px" width="779.2px" xmlns="http://www.w3.org/2000/svg">
  <g transform="matrix(1.0, 0.0, 0.0, 1.0, 6.5, 10.0)">
    <path d="M-4.0 60.7 L-3.0 59.65 Q-1.9 58.25 -1.75 56.65 15.35 47.4 28.55 60.75 L28.85 60.75 30.75 54.9 Q32.25 50.4 36.75 47.8 L36.9 47.25 Q35.1 46.7 40.3 46.55 52.05 46.45 62.95 50.5 70.05 35.5 85.6 38.95 89.15 39.35 91.6 41.4 94.45 43.95 96.1 41.8 L96.8 41.8 97.05 41.4 97.2 41.5 97.2 40.45 97.35 39.6 Q94.6 34.15 99.5 29.8 109.2 21.05 122.45 23.5 L127.9 24.75 Q128.7 20.35 127.75 15.45 L127.6 14.0 Q127.5 11.65 128.45 9.45 135.55 -5.3 152.75 -4.6 L160.8 -3.8 160.65 -6.0 Q160.55 -8.1 160.8 -10.0 L253.85 -10.0 255.9 -6.0 Q260.35 4.35 255.85 14.0 254.15 17.7 251.1 21.3 L251.25 22.8 253.95 23.25 Q265.55 15.6 276.5 20.65 279.65 22.15 282.75 24.6 285.2 26.5 286.15 29.9 289.6 41.5 283.7 51.75 L285.65 53.0 Q297.75 45.35 312.1 45.35 324.25 46.85 330.8 57.35 L333.65 61.6 334.05 61.45 Q337.05 48.6 348.25 43.15 351.4 41.8 355.1 41.65 362.7 41.1 365.7 48.05 L367.1 50.5 Q381.95 43.55 395.2 53.0 399.0 55.7 400.95 59.8 406.4 71.4 397.9 80.4 407.5 82.75 415.65 88.2 417.55 89.55 418.8 91.6 L416.6 95.95 416.75 98.0 420.55 98.0 421.4 97.05 Q434.5 93.65 445.8 98.95 449.1 100.45 452.25 102.65 L453.75 103.75 Q458.25 107.3 459.45 110.85 452.65 114.5 445.8 114.95 437.1 115.45 428.35 110.85 421.65 107.3 414.7 106.35 L411.85 102.65 Q403.65 93.8 390.85 99.1 L390.4 99.1 Q385.9 95.3 379.65 95.7 L371.85 97.35 367.5 97.75 Q365.3 90.35 357.4 88.2 L341.05 88.75 339.0 90.8 Q335.0 83.4 326.45 82.2 312.25 78.9 303.35 90.1 296.15 82.2 285.35 83.4 281.25 83.4 278.0 85.45 L269.55 79.45 Q266.4 77.4 262.7 77.25 L248.65 76.05 Q250.45 68.55 244.85 62.65 243.05 61.15 240.85 60.35 234.45 57.9 226.95 56.95 225.85 44.65 216.45 40.0 212.9 38.25 208.0 37.55 L191.9 38.25 Q185.05 40.45 180.55 46.15 165.95 36.75 154.25 49.7 149.05 55.3 151.35 62.4 134.15 59.0 126.1 74.55 L112.75 75.35 Q110.15 71.55 105.65 69.65 101.95 67.7 97.35 67.85 96.5 69.35 95.0 69.1 88.85 68.25 83.3 70.3 L80.3 74.0 Q68.95 68.55 57.1 75.1 53.25 77.15 51.6 81.1 L50.65 82.75 Q43.15 79.6 34.0 78.5 24.9 78.2 17.9 83.55 9.05 76.7 0.2 83.15 L-2.7 85.3 -3.0 85.0 -4.0 84.0 -4.0 60.7 M571.9 88.75 L574.75 92.7 564.1 92.95 Q563.05 92.8 562.2 93.9 557.85 98.3 552.25 96.1 L546.1 94.05 542.55 93.9 Q534.35 97.35 526.85 93.8 L532.6 86.4 Q542.4 93.65 553.6 88.05 L560.7 92.3 571.9 88.75 M548.55 71.8 L544.75 71.55 Q545.95 67.85 549.8 64.85 551.95 63.1 551.85 60.2 555.25 59.95 556.5 63.35 L556.5 66.75 562.35 73.15 559.5 75.2 Q557.7 71.4 553.2 71.4 L548.55 71.8 M524.7 112.75 L527.55 112.45 528.9 114.8 531.8 116.85 Q539.85 118.75 548.0 115.75 555.5 123.8 564.0 116.3 L575.15 120.25 579.55 116.0 581.85 115.75 588.8 123.1 Q589.35 129.1 582.55 129.25 L567.55 128.45 Q557.7 130.05 547.45 128.85 537.8 126.65 528.35 128.85 521.4 130.35 515.8 126.95 514.7 119.7 522.75 115.75 L524.0 114.25 524.7 112.75 M770.2 106.45 L763.75 106.05 Q761.4 105.8 760.45 103.6 L760.05 102.65 Q759.35 100.35 759.5 98.0 L770.2 98.25 770.2 106.45 M770.2 81.15 L768.4 81.1 767.4 79.3 767.95 77.65 Q768.8 75.4 770.2 73.6 L770.2 81.15 M755.7 75.2 L750.8 72.75 748.75 73.85 748.3 79.3 742.2 83.0 Q739.85 80.4 737.8 80.4 735.5 80.4 734.25 84.75 L733.85 86.7 731.0 87.25 727.45 85.05 725.4 87.35 Q703.45 83.15 682.95 92.55 668.9 98.85 654.15 103.05 646.1 105.4 637.8 107.0 621.15 110.0 606.7 103.05 L610.9 101.3 611.45 100.85 610.8 99.1 640.4 100.05 Q673.3 89.95 706.45 81.2 L710.95 81.65 Q719.8 83.8 728.15 80.55 741.75 74.95 754.3 67.05 760.6 63.0 767.95 60.4 L769.2 59.95 764.95 67.3 770.2 67.6 770.2 68.05 767.95 68.45 Q765.25 69.1 763.35 70.15 L755.7 75.2 M300.1 121.05 L301.2 122.0 306.9 119.85 309.5 123.8 315.5 123.65 316.35 124.6 325.45 125.85 326.85 127.05 311.4 127.05 300.1 123.5 300.1 121.05 M180.3 126.1 L171.3 125.45 172.25 123.95 179.75 123.5 180.55 121.35 179.9 119.3 188.6 116.15 189.55 113.15 Q191.75 110.85 194.6 110.95 198.05 110.95 199.55 114.5 L200.6 115.05 202.55 113.85 208.0 113.0 208.55 119.85 209.75 120.8 Q211.8 119.15 214.55 119.0 L216.45 118.9 Q219.45 119.15 219.7 123.0 L221.9 119.7 222.75 119.15 229.7 118.6 230.5 119.0 232.3 120.8 235.15 119.0 Q237.05 117.4 239.35 117.4 L242.8 117.8 244.0 118.35 245.65 120.8 253.95 117.4 255.2 120.0 266.65 120.0 267.75 122.45 270.5 123.5 281.25 120.4 281.15 118.9 282.2 117.8 Q286.3 116.7 290.0 119.0 L290.25 118.9 294.2 116.7 298.3 116.45 299.8 120.5 Q294.5 118.35 291.75 123.1 L291.5 123.65 289.6 123.4 287.55 121.2 271.55 125.0 Q269.4 126.0 266.95 125.0 261.6 122.85 254.8 122.85 L253.3 122.3 Q249.6 119.55 245.65 123.4 L221.1 124.05 214.0 121.05 208.55 122.3 Q205.25 120.8 204.7 116.0 L200.6 118.2 192.85 114.8 Q190.65 120.4 184.25 121.75 182.35 122.45 181.4 124.6 L180.3 126.1 M181.4 80.25 L171.4 80.55 Q182.45 75.75 194.35 74.95 L197.2 74.8 208.8 81.75 200.2 81.75 198.45 83.8 197.05 87.25 189.85 82.2 Q186.85 85.85 181.65 86.4 L181.4 80.25" fill="#ffffff" fill-rule="evenodd" stroke="none"/>
    <path d="M160.8 -10.0 Q160.55 -8.1 160.65 -6.0 L160.8 -3.8 152.75 -4.6 Q135.55 -5.3 128.45 9.45 127.5 11.65 127.6 14.0 L127.75 15.45 Q128.7 20.35 127.9 24.75 L122.45 23.5 Q109.2 21.05 99.5 29.8 94.6 34.15 97.35 39.6 L97.2 40.45 97.2 41.5 97.05 41.4 96.8 41.8 96.1 41.8 Q94.45 43.95 91.6 41.4 89.15 39.35 85.6 38.95 70.05 35.5 62.95 50.5 52.05 46.45 40.3 46.55 35.1 46.7 36.9 47.25 L36.75 47.8 Q32.25 50.4 30.75 54.9 L28.85 60.75 28.55 60.75 Q15.35 47.4 -1.75 56.65 -1.9 58.25 -3.0 59.65 L-4.0 60.7 -4.0 54.6 -3.0 53.95 Q6.5 47.65 17.9 50.4 22.95 51.35 26.4 53.4 34.7 40.3 50.4 44.4 L61.15 45.9 62.25 44.4 Q68.55 34.85 80.15 33.45 83.7 33.9 87.1 35.4 L92.7 36.2 Q94.9 25.55 104.55 21.05 114.25 16.0 124.1 19.55 123.55 16.65 123.7 14.0 124.05 6.15 130.35 0.05 134.5 -3.9 139.25 -6.0 147.4 -9.6 157.35 -7.9 L157.4 -10.0 160.8 -10.0 M414.7 106.35 Q421.65 107.3 428.35 110.85 437.1 115.45 445.8 114.95 452.65 114.5 459.45 110.85 458.25 107.3 453.75 103.75 L452.25 102.65 Q449.1 100.45 445.8 98.95 434.5 93.65 421.4 97.05 L420.55 98.0 416.75 98.0 416.6 95.95 418.8 91.6 Q417.55 89.55 415.65 88.2 407.5 82.75 397.9 80.4 406.4 71.4 400.95 59.8 399.0 55.7 395.2 53.0 381.95 43.55 367.1 50.5 L365.7 48.05 Q362.7 41.1 355.1 41.65 351.4 41.8 348.25 43.15 337.05 48.6 334.05 61.45 L333.65 61.6 330.8 57.35 Q324.25 46.85 312.1 45.35 297.75 45.35 285.65 53.0 L283.7 51.75 Q289.6 41.5 286.15 29.9 285.2 26.5 282.75 24.6 279.65 22.15 276.5 20.65 265.55 15.6 253.95 23.25 L251.25 22.8 251.1 21.3 Q254.15 17.7 255.85 14.0 260.35 4.35 255.9 -6.0 L253.85 -10.0 257.65 -10.0 259.65 -6.0 Q263.75 3.95 259.6 14.0 L258.6 16.15 268.05 14.9 Q272.65 14.25 276.5 15.45 281.65 16.95 285.65 21.85 294.2 32.25 290.7 45.5 L293.0 44.8 Q297.9 42.75 303.5 41.8 321.25 39.2 332.45 53.1 L336.0 48.2 Q343.2 36.35 357.0 37.95 364.35 39.05 367.75 44.95 L379.25 43.85 Q390.15 43.55 397.9 50.95 411.0 63.1 404.2 78.5 L412.4 80.95 Q417.05 82.75 420.15 85.85 423.15 88.85 422.5 92.55 433.4 90.5 444.2 94.85 L445.8 95.55 Q452.1 98.3 457.3 102.65 460.4 105.4 463.15 108.65 L466.3 108.8 Q468.9 108.4 471.75 107.0 L474.45 106.45 Q478.3 105.8 482.0 107.4 L482.1 102.65 482.1 100.35 482.5 98.7 483.05 97.75 484.0 96.5 492.5 102.65 496.15 105.4 499.15 103.05 497.95 102.65 493.45 101.15 499.15 93.35 495.35 93.1 Q494.95 91.2 496.3 90.1 L505.7 78.5 515.15 90.65 509.95 91.45 512.25 94.45 514.2 96.25 515.8 98.55 515.8 99.65 511.05 100.2 515.15 102.65 517.75 104.3 519.9 102.65 526.45 97.6 Q522.5 95.0 524.15 90.35 524.95 88.05 527.0 87.1 L530.95 84.75 Q532.85 83.4 533.55 81.1 L528.1 80.8 528.1 80.15 529.85 78.2 Q531.8 76.7 534.1 75.65 L540.9 71.65 542.3 68.65 543.25 67.05 548.7 61.85 547.9 59.95 549.4 57.5 Q552.1 56.1 555.4 56.8 556.9 57.35 558.0 58.45 L559.75 60.35 Q560.85 62.8 560.0 65.55 L564.95 71.8 565.2 72.5 565.5 74.55 571.1 77.55 573.1 79.3 574.35 81.2 569.85 82.75 576.8 90.25 Q578.3 92.55 576.95 95.3 L584.45 101.95 592.35 98.0 590.6 97.45 586.2 94.6 586.65 93.9 595.25 90.1 589.5 86.4 600.0 76.85 610.35 90.9 606.7 93.25 Q620.6 100.45 635.9 97.2 663.7 90.5 690.35 80.25 700.45 76.3 711.05 77.25 L720.5 76.85 Q738.9 74.15 754.45 62.4 760.75 57.7 767.95 56.7 L770.2 56.45 770.2 63.6 770.0 63.75 770.2 63.75 770.2 67.6 764.95 67.3 769.2 59.95 767.95 60.4 Q760.6 63.0 754.3 67.05 741.75 74.95 728.15 80.55 719.8 83.8 710.95 81.65 L706.45 81.2 Q673.3 89.95 640.4 100.05 L610.8 99.1 611.45 100.85 610.9 101.3 606.7 103.05 603.3 104.4 608.75 109.6 603.15 111.9 607.9 116.0 Q645.7 108.9 683.8 103.2 L719.1 98.15 725.4 87.35 727.45 85.05 731.0 87.25 732.75 90.1 733.85 86.7 734.25 84.75 Q735.5 80.4 737.8 80.4 739.85 80.4 742.2 83.0 L745.45 87.5 748.3 79.3 748.75 73.85 750.8 72.75 755.7 75.2 762.65 83.15 763.75 82.05 763.75 80.7 Q763.95 74.4 767.95 70.1 768.95 69.05 770.2 68.1 L770.2 73.6 Q768.8 75.4 767.95 77.65 L767.4 79.3 768.4 81.1 770.2 81.15 770.2 84.15 765.65 84.35 760.2 89.8 765.25 89.0 767.95 88.3 770.2 88.05 770.2 92.25 761.95 93.1 759.65 96.5 759.35 98.0 759.5 98.0 Q759.35 100.35 760.05 102.65 L760.45 103.6 Q761.4 105.8 763.75 106.05 L770.2 106.45 770.2 111.7 770.0 111.65 767.95 111.55 Q760.05 110.6 756.9 103.6 L756.1 101.3 Q741.25 100.2 726.75 101.3 L708.6 103.35 Q649.65 110.3 591.8 123.1 L591.55 123.8 Q590.3 129.1 586.35 132.25 L565.05 132.55 548.7 131.45 Q542.7 130.05 536.7 131.3 L514.45 130.35 Q490.45 131.7 466.3 130.75 L449.25 129.65 429.3 131.05 430.55 132.95 Q431.9 135.25 430.25 137.45 L429.3 138.1 Q427.8 139.1 426.3 139.75 422.9 141.25 419.05 141.25 L383.45 139.5 382.1 138.65 383.85 131.45 232.55 130.6 216.45 130.6 Q131.7 130.05 46.85 128.15 21.9 127.55 -3.0 127.75 L-4.0 127.75 -4.0 124.3 159.3 125.45 168.7 124.75 169.25 123.5 177.3 120.8 Q178.25 115.6 184.1 113.7 187.0 113.3 189.3 111.1 190.4 109.9 192.15 110.0 202.0 108.4 210.6 113.3 L211.4 116.85 216.45 116.45 217.0 116.3 220.25 118.45 Q226.4 113.85 233.25 116.55 237.75 113.15 243.75 115.05 L246.45 115.45 Q251.8 113.85 256.45 115.45 L257.95 117.8 258.35 117.95 263.65 116.7 Q268.7 116.7 270.2 119.3 L270.5 120.4 Q273.5 120.4 276.5 119.15 L277.7 118.6 Q281.0 116.0 285.75 115.9 L289.7 114.8 Q296.25 112.6 302.0 115.9 L301.85 118.05 301.45 119.15 303.5 118.9 308.15 118.2 310.75 121.05 316.05 121.35 317.4 122.45 325.75 123.1 329.85 127.05 386.35 127.5 397.5 120.95 400.25 118.05 413.6 117.4 416.35 117.95 Q420.3 118.05 422.2 121.6 L424.55 126.65 445.8 125.85 466.3 126.5 478.85 127.5 482.25 123.95 480.05 121.9 484.0 114.8 479.95 114.5 479.8 113.3 481.3 111.1 469.4 111.5 453.85 116.7 Q449.75 118.2 445.8 118.6 434.75 119.7 424.4 113.0 L417.05 110.55 Q404.35 112.05 391.8 116.45 L382.1 116.0 379.8 114.65 Q376.8 112.45 372.95 112.45 363.15 117.4 349.6 117.8 L348.0 117.8 Q338.3 117.8 330.65 111.4 L323.85 106.6 Q322.05 109.05 318.65 109.05 L301.75 112.75 292.05 111.1 Q286.85 107.7 280.45 106.9 L276.5 107.4 Q263.4 108.65 249.9 107.7 243.45 106.35 237.6 102.9 L234.3 100.75 226.15 93.65 Q221.65 89.15 216.45 86.95 209.35 83.8 201.05 85.05 L199.4 90.25 Q193.65 90.35 189.15 86.15 L188.35 86.7 Q184.95 90.8 179.75 89.7 L178.8 88.45 178.8 83.55 167.05 82.6 Q145.65 95.7 122.45 103.45 98.0 111.5 71.7 113.55 53.8 115.75 38.5 104.4 L37.85 104.0 Q29.1 98.4 19.55 103.6 L18.6 104.15 Q13.95 106.35 9.05 107.4 2.85 108.9 -3.0 108.05 L-4.0 107.85 -4.0 104.1 -3.0 104.3 -2.95 104.3 Q1.15 104.95 5.35 104.3 L5.8 104.3 Q13.15 102.5 19.55 99.65 23.1 98.15 26.65 97.2 35.65 97.75 44.1 103.35 L45.05 103.85 Q50.0 106.9 55.6 108.1 67.85 111.4 80.4 109.6 95.15 107.55 109.35 103.45 131.45 97.2 152.05 86.0 161.2 80.8 171.15 77.0 L186.7 70.6 Q192.85 67.85 198.6 71.8 L236.35 97.45 Q241.7 101.15 247.55 102.9 255.6 105.1 264.75 103.35 L267.35 102.8 276.5 102.35 280.05 102.8 Q284.95 103.75 289.45 106.05 298.85 110.7 309.35 108.25 L325.45 103.85 Q347.85 121.05 373.25 108.4 378.3 109.05 382.65 111.5 386.2 113.55 389.45 112.6 L414.7 106.35 M532.6 86.4 L526.85 93.8 Q534.35 97.35 542.55 93.9 L546.1 94.05 552.25 96.1 Q557.85 98.3 562.2 93.9 563.05 92.8 564.1 92.95 L574.75 92.7 571.9 88.75 568.75 87.25 568.5 86.95 566.3 83.7 563.05 85.05 561.25 88.2 560.55 88.6 Q558.25 89.0 556.35 87.1 L551.7 83.55 549.4 85.6 Q545.3 88.75 540.25 87.5 L539.85 80.95 539.4 81.1 537.8 81.1 532.6 86.4 M601.25 113.95 L598.5 109.2 603.3 108.4 599.3 103.2 606.85 100.2 602.6 96.25 603.3 92.0 606.95 90.1 599.85 80.25 593.3 85.75 600.4 90.25 589.75 94.05 596.05 96.8 595.9 97.45 Q594.0 101.0 590.3 102.9 L587.2 104.0 589.9 106.35 588.95 106.75 581.85 107.4 582.4 108.8 Q583.2 113.85 586.5 116.45 L589.5 119.85 603.8 116.7 601.25 113.95 M514.6 118.9 Q521.95 115.9 522.9 108.5 L515.15 107.95 515.15 106.45 506.4 98.7 511.3 96.8 Q506.95 94.45 506.65 90.35 L509.65 88.6 505.45 83.25 Q503.15 87.75 498.9 90.8 L502.45 91.2 502.85 93.1 497.55 99.9 503.4 100.75 503.95 101.55 499.15 107.0 506.8 108.1 Q502.45 115.2 493.45 118.6 L493.15 118.75 499.45 119.3 499.6 119.85 Q499.6 121.9 495.5 124.35 L489.9 127.5 512.4 127.05 512.15 125.0 Q512.15 121.6 514.6 118.9 M548.55 71.8 L553.2 71.4 Q557.7 71.4 559.5 75.2 L562.35 73.15 556.5 66.75 556.5 63.35 Q555.25 59.95 551.85 60.2 551.95 63.1 549.8 64.85 545.95 67.85 544.75 71.55 L548.55 71.8 M540.1 97.45 Q539.65 97.75 539.15 98.0 L529.05 98.4 520.3 105.5 Q531.5 101.55 536.85 110.3 L548.15 105.9 555.0 111.25 556.9 110.85 564.0 106.05 572.7 109.9 573.55 104.0 580.9 104.4 582.0 103.6 574.75 96.8 564.0 95.7 Q560.85 100.05 555.8 100.2 L551.95 99.35 Q546.1 95.55 540.1 97.45 M542.7 78.2 L543.1 84.35 553.05 79.7 559.5 85.05 562.6 80.0 569.45 79.45 Q566.55 75.9 564.1 77.15 L563.45 77.55 556.35 78.1 554.45 75.65 Q547.45 77.15 541.6 73.45 L534.1 78.2 542.7 78.2 M581.85 115.75 L579.55 109.45 575.7 107.85 575.6 112.75 573.4 113.15 Q568.2 113.0 564.0 109.45 L559.6 112.75 Q558.4 113.85 557.15 113.55 551.95 112.05 547.6 109.2 L536.3 113.85 Q531.9 112.2 531.65 107.4 L526.2 108.1 524.7 112.75 524.0 114.25 522.75 115.75 Q514.7 119.7 515.8 126.95 521.4 130.35 528.35 128.85 537.8 126.65 547.45 128.85 557.7 130.05 567.55 128.45 L582.55 129.25 Q589.35 129.1 588.8 123.1 L581.85 115.75 M487.15 119.45 Q492.75 113.45 500.65 110.3 L493.45 107.85 493.85 106.75 493.45 106.35 484.55 99.9 485.0 110.95 487.3 110.3 488.25 110.85 488.8 111.5 484.55 119.55 483.6 120.8 Q485.95 120.5 485.95 122.85 L482.65 127.5 488.8 127.5 494.4 121.75 487.15 121.6 487.15 119.45 M389.35 130.35 L384.7 136.9 Q406.25 139.9 426.85 134.7 L424.4 132.4 Q420.3 128.55 418.4 123.25 L403.8 121.05 389.35 130.35 M311.4 127.05 L326.85 127.05 325.45 125.85 316.35 124.6 315.5 123.65 309.5 123.8 306.9 119.85 301.2 122.0 300.1 121.05 299.8 120.5 298.3 116.45 294.2 116.7 Q291.5 116.95 290.95 117.95 L290.25 118.9 290.0 119.0 Q286.3 116.7 282.2 117.8 280.7 118.05 281.0 118.6 L281.25 120.4 270.5 123.5 267.75 122.45 266.65 120.0 255.2 120.0 253.95 117.4 245.65 120.8 244.0 118.35 242.8 117.8 239.35 117.4 Q237.05 117.4 235.15 119.0 L232.3 120.8 230.5 119.0 229.7 118.6 222.75 119.15 221.9 119.7 219.7 123.0 Q219.45 119.15 216.45 118.9 L214.55 119.0 Q211.8 119.15 209.75 120.8 L208.55 119.85 208.0 113.0 202.55 113.85 200.6 115.05 199.55 114.5 Q198.05 110.95 194.6 110.95 191.75 110.85 189.55 113.15 L188.6 116.15 179.9 119.3 180.55 121.35 179.75 123.5 172.25 123.95 171.3 125.45 180.3 126.1 311.4 127.05 M181.4 80.25 L181.65 86.4 Q186.85 85.85 189.85 82.2 L197.05 87.25 198.45 83.8 200.2 81.75 208.8 81.75 197.2 74.8 194.35 74.95 Q182.45 75.75 171.4 80.55 L181.4 80.25 M737.15 91.05 Q735.9 94.45 732.75 94.45 731.65 94.45 729.9 92.15 L728.25 89.4 726.35 92.7 723.1 97.75 Q739.6 96.1 756.25 97.85 L758.55 92.7 755.55 91.2 756.65 89.4 760.75 85.05 751.3 76.85 748.75 90.1 Q747.5 92.3 746.25 92.3 744.9 92.3 743.0 90.5 L738.35 85.45 737.15 91.05" fill="#000000" fill-rule="evenodd" stroke="none"/>
    <path d="M-4.0 84.0 L-3.0 85.0 -2.7 85.3 0.2 83.15 Q9.05 76.7 17.9 83.55 24.9 78.2 34.0 78.5 43.15 79.6 50.65 82.75 L51.6 81.1 Q53.25 77.15 57.1 75.1 68.95 68.55 80.3 74.0 L83.3 70.3 Q88.85 68.25 95.0 69.1 96.5 69.35 97.35 67.85 101.95 67.7 105.65 69.65 110.15 71.55 112.75 75.35 L126.1 74.55 Q134.15 59.0 151.35 62.4 149.05 55.3 154.25 49.7 165.95 36.75 180.55 46.15 185.05 40.45 191.9 38.25 L208.0 37.55 Q212.9 38.25 216.45 40.0 225.85 44.65 226.95 56.95 234.45 57.9 240.85 60.35 243.05 61.15 244.85 62.65 250.45 68.55 248.65 76.05 L262.7 77.25 Q266.4 77.4 269.55 79.45 L278.0 85.45 Q281.25 83.4 285.35 83.4 296.15 82.2 303.35 90.1 312.25 78.9 326.45 82.2 335.0 83.4 339.0 90.8 L341.05 88.75 357.4 88.2 Q365.3 90.35 367.5 97.75 L371.85 97.35 379.65 95.7 Q385.9 95.3 390.4 99.1 L390.85 99.1 Q403.65 93.8 411.85 102.65 L414.7 106.35 389.45 112.6 Q386.2 113.55 382.65 111.5 378.3 109.05 373.25 108.4 347.85 121.05 325.45 103.85 L309.35 108.25 Q298.85 110.7 289.45 106.05 284.95 103.75 280.05 102.8 L276.5 102.35 267.35 102.8 264.75 103.35 Q255.6 105.1 247.55 102.9 241.7 101.15 236.35 97.45 L198.6 71.8 Q192.85 67.85 186.7 70.6 L171.15 77.0 Q161.2 80.8 152.05 86.0 131.45 97.2 109.35 103.45 95.15 107.55 80.4 109.6 67.85 111.4 55.6 108.1 50.0 106.9 45.05 103.85 L44.1 103.35 Q35.65 97.75 26.65 97.2 23.1 98.15 19.55 99.65 13.15 102.5 5.8 104.3 L5.35 104.3 Q1.15 104.95 -2.95 104.3 L-3.0 104.3 -4.0 104.1 -4.0 84.0" fill="#c5d0d4" fill-rule="evenodd" stroke="none"/>
    <path d="M397.5 120.95 Q393.15 120.65 390.7 117.65 L391.8 116.45 Q404.35 112.05 417.05 110.55 L424.4 113.0 413.6 117.4 400.25 118.05 397.5 120.95 M382.1 116.0 L378.15 117.8 Q363.8 121.5 349.6 117.8 363.15 117.4 372.95 112.45 376.8 112.45 379.8 114.65 L382.1 116.0 M330.65 111.4 L326.3 113.85 Q314.0 120.0 301.75 112.75 L318.65 109.05 Q322.05 109.05 323.85 106.6 L330.65 111.4 M292.05 111.1 L290.15 110.3 287.95 110.95 Q282.1 113.0 276.5 113.55 262.55 114.95 249.9 107.7 263.4 108.65 276.5 107.4 L280.45 106.9 Q286.85 107.7 292.05 111.1 M178.8 88.45 Q169.8 97.6 158.75 103.2 154.9 105.1 150.8 106.6 139.75 110.95 128.6 114.1 103.75 120.5 78.1 121.5 L80.8 121.05 Q62.65 123.4 46.3 115.35 41.65 113.15 36.75 111.8 29.4 110.7 22.3 114.25 9.2 120.4 -2.55 115.45 L-4.0 114.8 -4.0 107.85 -3.0 108.05 Q2.85 108.9 9.05 107.4 13.95 106.35 18.6 104.15 L19.55 103.6 Q29.1 98.4 37.85 104.0 L38.5 104.4 Q53.8 115.75 71.7 113.55 98.0 111.5 122.45 103.45 145.65 95.7 167.05 82.6 L178.8 83.55 178.8 88.45 M270.2 119.3 L277.7 118.6 276.5 119.15 Q273.5 120.4 270.5 120.4 L270.2 119.3 M301.85 118.05 L303.5 118.9 301.45 119.15 301.85 118.05" fill="#c9ccd8" fill-rule="evenodd" stroke="none"/>
    <path d="M391.8 116.45 L390.7 117.65 Q393.15 120.65 397.5 120.95 L386.35 127.5 329.85 127.05 325.75 123.1 317.4 122.45 316.05 121.35 310.75 121.05 308.15 118.2 303.5 118.9 301.85 118.05 302.0 115.9 Q296.25 112.6 289.7 114.8 L285.75 115.9 Q281.0 116.0 277.7 118.6 L270.2 119.3 Q268.7 116.7 263.65 116.7 L258.35 117.95 257.95 117.8 256.45 115.45 Q251.8 113.85 246.45 115.45 L243.75 115.05 Q237.75 113.15 233.25 116.55 226.4 113.85 220.25 118.45 L217.0 116.3 216.45 116.45 211.4 116.85 210.6 113.3 Q202.0 108.4 192.15 110.0 190.4 109.9 189.3 111.1 187.0 113.3 184.1 113.7 178.25 115.6 177.3 120.8 L169.25 123.5 168.7 124.75 159.3 125.45 -4.0 124.3 -4.0 114.8 -2.55 115.45 Q9.2 120.4 22.3 114.25 29.4 110.7 36.75 111.8 41.65 113.15 46.3 115.35 62.65 123.4 80.8 121.05 L78.1 121.5 Q103.75 120.5 128.6 114.1 139.75 110.95 150.8 106.6 154.9 105.1 158.75 103.2 169.8 97.6 178.8 88.45 L179.75 89.7 Q184.95 90.8 188.35 86.7 L189.15 86.15 Q193.65 90.35 199.4 90.25 L201.05 85.05 Q209.35 83.8 216.45 86.95 221.65 89.15 226.15 93.65 L234.3 100.75 237.6 102.9 Q243.45 106.35 249.9 107.7 262.55 114.95 276.5 113.55 282.1 113.0 287.95 110.95 L290.15 110.3 292.05 111.1 301.75 112.75 Q314.0 120.0 326.3 113.85 L330.65 111.4 Q338.3 117.8 348.0 117.8 L349.6 117.8 Q363.8 121.5 378.15 117.8 L382.1 116.0 391.8 116.45 M413.6 117.4 L424.4 113.0 Q434.75 119.7 445.8 118.6 449.75 118.2 453.85 116.7 L469.4 111.5 481.3 111.1 479.8 113.3 479.95 114.5 484.0 114.8 480.05 121.9 482.25 123.95 478.85 127.5 466.3 126.5 445.8 125.85 424.55 126.65 422.2 121.6 Q420.3 118.05 416.35 117.95 L413.6 117.4" fill="#abaeba" fill-rule="evenodd" stroke="none"/>
    <path d="M430.25 137.45 Q431.9 135.25 430.55 132.95 L429.3 131.05 449.25 129.65 466.3 130.75 Q490.45 131.7 514.45 130.35 L536.7 131.3 Q542.7 130.05 548.7 131.45 L565.05 132.55 586.35 132.25 Q590.3 129.1 591.55 123.8 L591.8 123.1 Q649.65 110.3 708.6 103.35 L726.75 101.3 Q741.25 100.2 756.1 101.3 L756.9 103.6 Q760.05 110.6 767.95 111.55 L770.0 111.65 770.2 111.7 770.2 117.45 767.95 117.2 764.85 116.85 Q762.5 116.95 760.6 115.6 757.05 113.0 756.1 108.5 699.75 107.55 644.35 120.0 L591.8 130.2 590.05 134.7 588.7 137.15 586.9 138.8 586.35 139.5 555.95 139.6 541.45 138.0 523.75 139.75 520.6 139.75 Q517.45 139.35 514.45 137.6 490.3 137.85 466.3 137.7 L445.8 137.6 430.25 137.45" fill="#e1e5e8" fill-rule="evenodd" stroke="none"/>
    <path d="M770.2 68.1 Q768.95 69.05 767.95 70.1 763.95 74.4 763.75 80.7 L763.75 82.05 762.65 83.15 755.7 75.2 763.35 70.15 Q765.25 69.1 767.95 68.45 L770.2 68.05 770.2 68.1 M748.3 79.3 L745.45 87.5 742.2 83.0 748.3 79.3 M733.85 86.7 L732.75 90.1 731.0 87.25 733.85 86.7 M725.4 87.35 L719.1 98.15 683.8 103.2 Q645.7 108.9 607.9 116.0 L603.15 111.9 608.75 109.6 603.3 104.4 606.7 103.05 Q621.15 110.0 637.8 107.0 646.1 105.4 654.15 103.05 668.9 98.85 682.95 92.55 703.45 83.15 725.4 87.35" fill="#d3e3ef" fill-rule="evenodd" stroke="none"/>
    <path d="M519.9 102.65 L517.75 104.3 515.15 102.65 519.9 102.65 M497.95 102.65 L499.15 103.05 496.15 105.4 492.5 102.65 497.95 102.65 M482.1 102.65 L482.0 107.4 Q478.3 105.8 474.45 106.45 L471.75 107.0 Q468.9 108.4 466.3 108.8 L463.15 108.65 Q460.4 105.4 457.3 102.65 L466.3 102.65 482.1 102.65 M430.25 137.45 L445.8 137.6 466.3 137.7 Q490.3 137.85 514.45 137.6 517.45 139.35 520.6 139.75 L523.75 139.75 541.45 138.0 555.95 139.6 586.35 139.5 586.9 138.8 588.7 137.15 590.05 134.7 591.8 130.2 644.35 120.0 Q699.75 107.55 756.1 108.5 757.05 113.0 760.6 115.6 762.5 116.95 764.85 116.85 L767.95 117.2 770.2 117.45 770.2 277.25 767.95 276.95 Q659.75 262.9 564.55 216.3 512.8 215.2 466.3 223.0 L460.55 224.1 Q453.05 225.3 445.8 226.95 404.75 235.7 367.9 251.8 351.0 273.35 302.4 273.6 288.9 270.35 276.5 265.95 242.1 253.85 216.45 233.1 205.4 224.1 196.0 213.6 144.0 197.35 35.0 238.15 16.0 245.05 -3.0 250.25 L-4.0 250.55 -4.0 127.75 -3.0 127.75 Q21.9 127.55 46.85 128.15 131.7 130.05 216.45 130.6 L232.55 130.6 383.85 131.45 382.1 138.65 383.45 139.5 419.05 141.25 Q422.9 141.25 426.3 139.75 427.8 139.1 429.3 138.1 L430.25 137.45" fill="#f8f8f8" fill-rule="evenodd" stroke="none"/>
    <path d="M-4.0 262.15 L-3.0 262.0 Q45.9 254.9 94.75 243.45 155.6 223.15 216.45 249.75 237.45 258.75 258.5 273.5 265.7 279.6 276.5 283.05 325.2 298.6 445.8 257.65 L460.55 252.6 Q461.8 252.05 463.15 251.65 L466.3 250.85 Q551.45 228.6 677.9 275.65 715.65 289.65 767.95 295.65 L770.2 295.9 770.2 311.75 767.95 311.5 Q715.65 305.5 677.9 291.5 551.45 244.4 466.3 266.65 L463.15 267.45 Q461.8 267.9 460.55 268.45 L445.8 273.5 Q325.35 314.4 276.5 298.85 265.7 295.45 258.5 289.3 237.45 274.55 216.45 265.45 155.6 238.95 94.75 259.3 45.9 270.75 -3.0 277.85 L-4.0 278.0 -4.0 262.15" fill="#a7c6d0" fill-rule="evenodd" stroke="none"/>
    <path d="M-4.0 250.55 L-3.0 250.25 Q16.0 245.05 35.0 238.15 144.0 197.35 196.0 213.6 205.4 224.1 216.45 233.1 242.1 253.85 276.5 265.95 288.9 270.35 302.4 273.6 351.0 273.35 367.9 251.8 404.75 235.7 445.8 226.95 453.05 225.3 460.55 224.1 L466.3 223.0 Q512.8 215.2 564.55 216.3 659.75 262.9 767.95 276.95 L770.2 277.25 770.2 295.9 767.95 295.65 Q715.65 289.65 677.9 275.65 551.45 228.6 466.3 250.85 L463.15 251.65 Q461.8 252.05 460.55 252.6 L445.8 257.65 Q325.2 298.6 276.5 283.05 265.7 279.6 258.5 273.5 237.45 258.75 216.45 249.75 155.6 223.15 94.75 243.45 45.9 254.9 -3.0 262.0 L-4.0 262.15 -4.0 250.55" fill="#e2e1e8" fill-rule="evenodd" stroke="none"/>
    <path d="M586.5 116.45 Q583.2 113.85 582.4 108.8 L581.85 107.4 588.95 106.75 589.9 106.35 587.2 104.0 590.3 102.9 Q594.0 101.0 595.9 97.45 L596.05 96.8 589.75 94.05 600.4 90.25 593.3 85.75 599.85 80.25 606.95 90.1 603.3 92.0 602.6 96.25 606.85 100.2 599.3 103.2 603.3 108.4 598.5 109.2 601.25 113.95 586.5 116.45 M542.7 78.2 L534.1 78.2 541.6 73.45 Q547.45 77.15 554.45 75.65 L556.35 78.1 563.45 77.55 564.1 77.15 Q566.55 75.9 569.45 79.45 L562.6 80.0 559.5 85.05 553.05 79.7 543.1 84.35 542.7 78.2 M540.1 97.45 Q546.1 95.55 551.95 99.35 L555.8 100.2 Q560.85 100.05 564.0 95.7 L574.75 96.8 582.0 103.6 580.9 104.4 573.55 104.0 572.7 109.9 564.0 106.05 556.9 110.85 555.0 111.25 548.15 105.9 536.85 110.3 Q531.5 101.55 520.3 105.5 L529.05 98.4 539.15 98.0 Q539.65 97.75 540.1 97.45 M770.2 88.05 L767.95 88.3 765.25 89.0 760.2 89.8 765.65 84.35 770.2 84.15 770.2 88.05 M770.2 63.75 L770.0 63.75 770.2 63.6 770.2 63.75 M484.55 119.55 L488.8 111.5 488.25 110.85 487.3 110.3 485.0 110.95 484.55 99.9 493.45 106.35 493.85 106.75 493.45 107.85 500.65 110.3 Q492.75 113.45 487.15 119.45 L484.55 119.55 M311.4 127.05 L180.3 126.1 181.4 124.6 Q182.35 122.45 184.25 121.75 190.65 120.4 192.85 114.8 L200.6 118.2 204.7 116.0 Q205.25 120.8 208.55 122.3 L214.0 121.05 221.1 124.05 245.65 123.4 Q249.6 119.55 253.3 122.3 L254.8 122.85 Q261.6 122.85 266.95 125.0 269.4 126.0 271.55 125.0 L287.55 121.2 289.6 123.4 291.5 123.65 291.75 123.1 Q294.5 118.35 299.8 120.5 L300.1 121.05 300.1 123.5 311.4 127.05 M281.25 120.4 L281.0 118.6 Q280.7 118.05 282.2 117.8 L281.15 118.9 281.25 120.4 M290.25 118.9 L290.95 117.95 Q291.5 116.95 294.2 116.7 L290.25 118.9" fill="#74977c" fill-rule="evenodd" stroke="none"/>
    <path d="M532.6 86.4 L537.8 81.1 539.4 81.1 539.85 80.95 540.25 87.5 Q545.3 88.75 549.4 85.6 L551.7 83.55 556.35 87.1 Q558.25 89.0 560.55 88.6 L561.25 88.2 563.05 85.05 566.3 83.7 568.5 86.95 568.75 87.25 571.9 88.75 560.7 92.3 553.6 88.05 Q542.4 93.65 532.6 86.4 M524.7 112.75 L526.2 108.1 531.65 107.4 Q531.9 112.2 536.3 113.85 L547.6 109.2 Q551.95 112.05 557.15 113.55 558.4 113.85 559.6 112.75 L564.0 109.45 Q568.2 113.0 573.4 113.15 L575.6 112.75 575.7 107.85 579.55 109.45 581.85 115.75 579.55 116.0 575.15 120.25 564.0 116.3 Q555.5 123.8 548.0 115.75 539.85 118.75 531.8 116.85 L528.9 114.8 527.55 112.45 524.7 112.75 M759.5 98.0 L759.35 98.0 759.65 96.5 761.95 93.1 770.2 92.25 770.2 98.25 759.5 98.0" fill="#bbc2c8" fill-rule="evenodd" stroke="none"/>
    <path d="M499.45 119.3 L493.15 118.75 493.45 118.6 Q502.45 115.2 506.8 108.1 L499.15 107.0 503.95 101.55 503.4 100.75 497.55 99.9 502.85 93.1 502.45 91.2 498.9 90.8 Q503.15 87.75 505.45 83.25 L509.65 88.6 506.65 90.35 Q506.95 94.45 511.3 96.8 L506.4 98.7 515.15 106.45 515.15 107.95 522.9 108.5 Q521.95 115.9 514.6 118.9 L499.45 119.3 M737.15 91.05 L738.35 85.45 743.0 90.5 737.15 91.05 M748.75 90.1 L751.3 76.85 760.75 85.05 756.65 89.4 748.75 90.1 M726.35 92.7 L728.25 89.4 729.9 92.15 726.35 92.7" fill="#60745b" fill-rule="evenodd" stroke="none"/>
    <path d="M601.25 113.95 L603.8 116.7 589.5 119.85 586.5 116.45 601.25 113.95 M487.15 119.45 L487.15 121.6 494.4 121.75 488.8 127.5 482.65 127.5 485.95 122.85 Q485.95 120.5 483.6 120.8 L484.55 119.55 487.15 119.45" fill="#4c6f54" fill-rule="evenodd" stroke="none"/>
    <path d="M514.6 118.9 Q512.15 121.6 512.15 125.0 L512.4 127.05 489.9 127.5 495.5 124.35 Q499.6 121.9 499.6 119.85 L499.45 119.3 514.6 118.9 M729.9 92.15 Q731.65 94.45 732.75 94.45 735.9 94.45 737.15 91.05 L743.0 90.5 Q744.9 92.3 746.25 92.3 747.5 92.3 748.75 90.1 L756.65 89.4 755.55 91.2 758.55 92.7 756.25 97.85 Q739.6 96.1 723.1 97.75 L726.35 92.7 729.9 92.15" fill="#384c33" fill-rule="evenodd" stroke="none"/>
    <path d="M403.8 121.05 L418.4 123.25 Q420.3 128.55 424.4 132.4 L426.85 134.7 Q406.25 139.9 384.7 136.9 L389.35 130.35 414.55 129.65 414.15 129.1 403.8 121.05" fill="#505050" fill-rule="evenodd" stroke="none"/>
    <path d="M389.35 130.35 L403.8 121.05 414.15 129.1 414.55 129.65 389.35 130.35" fill="#878684" fill-rule="evenodd" stroke="none"/>
    <path d="M-3.0 277.85 Q45.9 270.75 94.75 259.3 155.6 238.95 216.45 265.45 237.45 274.55 258.5 289.3 265.7 295.45 276.5 298.85 325.35 314.4 445.8 273.5 L460.55 268.45 Q461.8 267.9 463.15 267.45 L466.3 266.65 Q551.45 244.4 677.9 291.5 715.65 305.5 767.95 311.5 L767.95 488.95 -3.0 488.95 -3.0 277.85" fill="#edfefd" fill-rule="evenodd" stroke="none"/>
    <path d="M157.4 -10.0 L157.35 -7.9 Q147.4 -9.6 139.25 -6.0 134.5 -3.9 130.35 0.05 124.05 6.15 123.7 14.0 123.55 16.65 124.1 19.55 114.25 16.0 104.55 21.05 94.9 25.55 92.7 36.2 L87.1 35.4 Q83.7 33.9 80.15 33.45 68.55 34.85 62.25 44.4 L61.15 45.9 50.4 44.4 Q34.7 40.3 26.4 53.4 22.95 51.35 17.9 50.4 6.5 47.65 -3.0 53.95 L-4.0 54.6 -4.0 -10.0 157.4 -10.0 M457.3 102.65 Q452.1 98.3 445.8 95.55 L444.2 94.85 Q433.4 90.5 422.5 92.55 423.15 88.85 420.15 85.85 417.05 82.75 412.4 80.95 L404.2 78.5 Q411.0 63.1 397.9 50.95 390.15 43.55 379.25 43.85 L367.75 44.95 Q364.35 39.05 357.0 37.95 343.2 36.35 336.0 48.2 L332.45 53.1 Q321.25 39.2 303.5 41.8 297.9 42.75 293.0 44.8 L290.7 45.5 Q294.2 32.25 285.65 21.85 281.65 16.95 276.5 15.45 272.65 14.25 268.05 14.9 L258.6 16.15 259.6 14.0 Q263.75 3.95 259.65 -6.0 L257.65 -10.0 770.2 -10.0 770.2 56.45 767.95 56.7 Q760.75 57.7 754.45 62.4 738.9 74.15 720.5 76.85 L711.05 77.25 Q700.45 76.3 690.35 80.25 663.7 90.5 635.9 97.2 620.6 100.45 606.7 93.25 L610.35 90.9 600.0 76.85 589.5 86.4 595.25 90.1 586.65 93.9 586.2 94.6 590.6 97.45 592.35 98.0 584.45 101.95 576.95 95.3 Q578.3 92.55 576.8 90.25 L569.85 82.75 574.35 81.2 573.1 79.3 571.1 77.55 565.5 74.55 565.2 72.5 564.95 71.8 560.0 65.55 Q560.85 62.8 559.75 60.35 L558.0 58.45 Q556.9 57.35 555.4 56.8 552.1 56.1 549.4 57.5 L547.9 59.95 548.7 61.85 543.25 67.05 542.3 68.65 540.9 71.65 534.1 75.65 Q531.8 76.7 529.85 78.2 L528.1 80.15 528.1 80.8 533.55 81.1 Q532.85 83.4 530.95 84.75 L527.0 87.1 Q524.95 88.05 524.15 90.35 522.5 95.0 526.45 97.6 L519.9 102.65 515.15 102.65 511.05 100.2 515.8 99.65 515.8 98.55 514.2 96.25 512.25 94.45 509.95 91.45 515.15 90.65 505.7 78.5 496.3 90.1 Q494.95 91.2 495.35 93.1 L499.15 93.35 493.45 101.15 497.95 102.65 492.5 102.65 484.0 96.5 483.05 97.75 482.5 98.7 482.1 100.35 482.1 102.65 466.3 102.65 457.3 102.65" fill="url(#gradient0)" fill-rule="evenodd" stroke="none"/>
    <path d="M770.2 295.9 L767.95 295.65 Q715.65 289.65 677.9 275.65 551.45 228.6 466.3 250.85 L463.15 251.65 Q461.8 252.05 460.55 252.6 L445.8 257.65 Q325.2 298.6 276.5 283.05 265.7 279.6 258.5 273.5 237.45 258.75 216.45 249.75 155.6 223.15 94.75 243.45 45.9 254.9 -3.0 262.0 L-4.0 262.15" fill="none" stroke="#000000" stroke-linecap="round" stroke-linejoin="miter-clip" stroke-miterlimit="3.0" stroke-width="5.0"/>
  </g>
  <defs>
    <linearGradient gradientTransform="matrix(0.0, 0.1644, -2.7289, 0.0, -358.55, 20.8)" gradientUnits="userSpaceOnUse" id="gradient0" spreadMethod="pad" x1="-819.2" x2="819.2">
      <stop offset="0.0" stop-color="#004d96"/>
      <stop offset="1.0" stop-color="#0784d4"/>
    </linearGradient>
  </defs>
</svg>
