<?xml version="1.0" encoding="UTF-8" standalone="no"?>
<svg xmlns:xlink="http://www.w3.org/1999/xlink" height="28.9px" width="305.0px" xmlns="http://www.w3.org/2000/svg">
  <g transform="matrix(1.0, 0.0, 0.0, 1.0, 232.1, -110.75)">
    <path d="M65.25 127.8 L63.75 127.75 Q4.25 150.95 -57.8 129.0 -62.9 127.1 -68.0 128.95 L-69.75 131.95 Q-116.05 123.2 -150.25 123.65 L-168.55 124.6 Q-208.1 128.4 -227.2 128.35 -229.85 128.3 -232.1 126.8 L-230.95 124.5 Q-197.8 117.3 -150.25 114.8 -113.35 112.85 -67.8 113.7 -5.85 109.0 58.3 112.4 60.6 112.1 63.0 110.75 70.9 112.8 72.9 120.5 71.7 126.95 65.25 127.8" fill="#a7c6d0" fill-rule="evenodd" stroke="none"/>
  </g>
</svg>
