<?xml version="1.0" encoding="UTF-8" standalone="no"?>
<svg xmlns:xlink="http://www.w3.org/1999/xlink" height="48.0px" width="187.0px" xmlns="http://www.w3.org/2000/svg">
  <g transform="matrix(1.0, 0.0, 0.0, 1.0, 403.45, -100.05)">
    <path d="M-259.95 126.65 Q-257.7 119.45 -253.5 112.5 L-249.85 106.55 -242.1 108.4 Q-247.5 118.1 -252.5 128.0 L-259.95 126.65 M-257.8 105.0 Q-262.2 115.4 -266.9 125.6 L-274.0 124.75 Q-271.2 113.2 -264.7 103.9 L-257.8 105.0 M-353.45 125.65 L-358.0 126.3 Q-357.4 113.3 -350.9 103.35 L-345.9 102.75 -353.45 125.65 M-372.1 129.0 L-380.9 131.25 Q-378.25 119.4 -374.95 107.65 L-364.1 105.35 Q-368.65 116.45 -371.85 128.1 L-372.1 129.0" fill="#e6ffff" fill-rule="evenodd" stroke="none"/>
    <path d="M-249.85 106.55 L-253.5 112.5 Q-257.7 119.45 -259.95 126.65 L-266.9 125.6 Q-262.2 115.4 -257.8 105.0 L-249.85 106.55 M-252.5 128.0 Q-247.5 118.1 -242.1 108.4 -217.45 114.95 -217.45 124.05 -217.45 130.1 -228.5 135.05 -234.75 132.2 -244.55 129.75 L-252.5 128.0 M-264.7 103.9 Q-271.2 113.2 -274.0 124.75 L-309.95 123.05 Q-333.9 123.05 -353.45 125.65 L-345.9 102.75 -309.95 101.05 Q-284.95 101.05 -264.7 103.9 M-358.0 126.3 Q-365.4 127.45 -372.1 129.0 L-371.85 128.1 Q-368.65 116.45 -364.1 105.35 L-350.9 103.35 Q-357.4 113.3 -358.0 126.3 M-380.9 131.25 Q-387.05 133.05 -391.45 135.05 -402.45 130.1 -402.45 124.05 -402.45 114.5 -375.35 107.75 L-374.95 107.65 Q-378.25 119.4 -380.9 131.25" fill="#ccffff" fill-rule="evenodd" stroke="none"/>
    <path d="M-259.95 126.65 L-252.5 128.0 -244.55 129.75 Q-234.75 132.2 -228.5 135.05 -234.75 137.8 -244.55 140.25 -271.65 147.0 -309.95 147.05 -348.25 147.0 -375.35 140.25 -385.2 137.8 -391.45 135.05 -387.05 133.05 -380.9 131.25 L-372.1 129.0 Q-365.4 127.45 -358.0 126.3 L-353.45 125.65 Q-333.9 123.05 -309.95 123.05 L-274.0 124.75 -266.9 125.6 -259.95 126.65" fill="#78a9d9" fill-rule="evenodd" stroke="none"/>
    <path d="M-259.95 126.65 L-252.5 128.0 -244.55 129.75 Q-234.75 132.2 -228.5 135.05 -217.45 130.1 -217.45 124.05 -217.45 114.95 -242.1 108.4 L-249.85 106.55 -257.8 105.0 -264.7 103.9 Q-284.95 101.05 -309.95 101.05 L-345.9 102.75 -350.9 103.35 -364.1 105.35 -374.95 107.65 -375.35 107.75 Q-402.45 114.5 -402.45 124.05 -402.45 130.1 -391.45 135.05 -385.2 137.8 -375.35 140.25 -348.25 147.0 -309.95 147.05 -271.65 147.0 -244.55 140.25 -234.75 137.8 -228.5 135.05 M-266.9 125.6 L-259.95 126.65 M-274.0 124.75 L-266.9 125.6 M-274.0 124.75 L-309.95 123.05 Q-333.9 123.05 -353.45 125.65 L-358.0 126.3 Q-365.4 127.45 -372.1 129.0 L-380.9 131.25 Q-387.05 133.05 -391.45 135.05" fill="none" stroke="#000000" stroke-linecap="round" stroke-linejoin="round" stroke-width="2.0"/>
  </g>
</svg>
