<?xml version="1.0" encoding="UTF-8" standalone="no"?>
<svg xmlns:xlink="http://www.w3.org/1999/xlink" height="71.0px" width="98.75px" xmlns="http://www.w3.org/2000/svg">
  <g transform="matrix(1.0, 0.0, 0.0, 1.0, 50.0, 35.4)">
    <path d="M22.0 -2.4 L23.2 -3.1 Q26.6 -5.8 29.3 -9.25 35.35 -16.85 41.0 -24.95 L48.75 -35.4 41.95 31.35 41.05 30.95 Q36.7 36.85 27.9 35.3 21.9 34.6 16.35 31.9 7.95 27.75 0.2 23.4 L-11.25 16.95 -11.85 16.65 Q-21.0 11.65 -29.9 7.2 -38.85 2.75 -43.8 -2.05 -48.8 -6.9 -49.35 -10.15 L-50.0 -16.2 Q-50.1 -19.0 -48.55 -21.45 -47.05 -23.9 -44.85 -25.35 -42.65 -26.85 -39.7 -28.4 L-36.95 -7.65 10.45 -3.15 22.0 -2.4" fill="#0066cc" fill-rule="evenodd" stroke="none"/>
  </g>
</svg>
