<?xml version="1.0" encoding="UTF-8" standalone="no"?>
<svg xmlns:xlink="http://www.w3.org/1999/xlink" height="74.8px" width="100.6px" xmlns="http://www.w3.org/2000/svg">
  <g transform="matrix(1.0, 0.0, 0.0, 1.0, 50.3, 37.4)">
    <path d="M22.7 -2.9 L16.9 -3.3 -24.4 -6.95 Q-29.45 -7.3 -34.3 -8.55 L-33.5 -3.75 -34.05 -3.4 -34.6 -3.4 -35.15 -3.8 Q-36.2 -6.0 -36.85 -8.4 -37.5 -10.75 -37.6 -13.3 L-38.5 -29.1 Q-41.35 -27.75 -43.5 -25.4 -45.65 -23.15 -46.65 -20.45 -47.35 -18.5 -47.45 -16.5 -47.7 -10.15 -43.15 -5.5 -40.05 -2.3 -36.15 -0.05 -32.15 2.3 -28.25 4.8 L-20.45 9.65 -13.8 13.55 -4.5 18.8 4.55 23.8 Q13.15 28.85 22.35 32.5 27.8 34.7 33.5 34.35 L35.7 33.6 Q39.25 32.0 42.45 29.8 L43.3 30.25 43.5 30.9 Q42.3 33.1 39.95 34.75 34.75 38.3 28.5 37.1 20.9 35.5 13.85 32.05 4.7 27.5 -4.15 22.3 -9.75 19.05 -15.4 15.95 -26.25 9.85 -36.4 2.75 L-38.05 1.75 -39.85 0.7 -41.3 -0.3 -42.75 -1.55 -44.1 -2.85 -45.35 -4.25 -46.45 -5.7 -49.3 -10.55 -50.0 -12.6 Q-50.4 -14.65 -50.25 -16.75 -49.85 -22.0 -46.45 -26.1 -42.65 -30.65 -36.9 -32.35 L-34.55 -10.1 -14.3 -8.75 24.15 -5.7 27.3 -9.6 Q30.3 -13.55 32.8 -17.85 39.0 -28.4 47.9 -36.75 48.75 -37.55 49.75 -37.4 L50.3 -36.15 47.2 -32.3 Q42.45 -26.3 38.3 -20.0 L32.55 -11.65 28.85 -7.35 24.65 -3.55 Q23.85 -2.85 22.7 -2.9" fill="#000000" fill-rule="evenodd" stroke="none"/>
  </g>
</svg>
