<?xml version="1.0" encoding="UTF-8" standalone="no"?>
<svg xmlns:xlink="http://www.w3.org/1999/xlink" height="250.65px" width="115.95px" xmlns="http://www.w3.org/2000/svg">
  <g transform="matrix(1.0, 0.0, 0.0, 1.0, 57.95, 125.35)">
    <path d="M15.7 -124.9 Q18.95 -124.25 21.6 -122.55 L23.5 -120.85 Q28.0 -115.8 29.7 -109.1 31.1 -103.65 31.9 -98.05 L33.2 -88.25 34.5 -78.45 35.7 -68.7 37.1 -57.6 38.9 -45.4 41.35 -32.0 42.8 -24.65 44.35 -17.25 46.85 -4.85 48.65 4.8 50.4 14.45 52.25 24.25 54.05 34.0 56.05 45.0 57.45 54.25 57.95 60.4 Q58.25 66.85 56.9 73.1 55.65 79.15 53.65 84.8 52.4 88.4 50.45 91.8 L46.2 98.65 Q44.8 100.7 43.05 102.5 L38.75 106.6 Q33.95 110.85 28.45 114.2 22.6 117.75 16.25 120.2 9.75 122.8 3.05 124.1 -2.75 125.25 -8.6 125.25 L-18.4 125.3 -24.8 125.0 Q-34.65 125.55 -43.95 122.95 L-46.2 122.15 Q-38.25 123.75 -30.7 121.1 -27.45 120.0 -24.8 117.55 -18.35 112.0 -16.6 100.2 -14.65 86.95 -16.35 66.8 -18.05 46.9 -19.05 26.9 -19.55 16.9 -20.75 7.0 L-21.75 -3.1 Q-22.35 -10.0 -24.8 -16.4 -29.4 -28.2 -40.95 -31.6 -51.6 -31.85 -57.95 -25.15 L-55.35 -31.25 -51.65 -40.05 -47.65 -49.5 -43.55 -58.85 -39.3 -67.7 -34.9 -76.55 -30.45 -85.5 -26.05 -94.35 Q-23.6 -99.25 -20.5 -104.1 -16.95 -109.5 -12.1 -113.85 -7.35 -118.1 -1.35 -120.8 4.85 -123.65 11.65 -125.35 L15.7 -124.9" fill="#0066cc" fill-rule="evenodd" stroke="none"/>
  </g>
</svg>
