<?xml version="1.0" encoding="UTF-8" standalone="no"?>
<svg xmlns:xlink="http://www.w3.org/1999/xlink" height="257.35px" width="141.15px" xmlns="http://www.w3.org/2000/svg">
  <g transform="matrix(1.0, 0.0, 0.0, 1.0, 70.55, 128.65)">
    <path d="M-6.4 -114.75 Q-1.75 -119.25 4.2 -122.4 10.05 -125.6 16.5 -127.4 L19.7 -128.25 Q25.9 -129.55 31.65 -126.8 37.95 -123.8 40.0 -117.2 41.9 -111.1 43.35 -104.9 L45.75 -94.0 Q47.15 -87.3 47.75 -80.55 L52.45 -44.65 Q53.25 -39.65 54.35 -34.75 L56.85 -23.95 Q58.45 -17.5 59.45 -10.95 L68.2 39.45 Q69.3 45.5 70.0 51.6 70.5 56.35 70.6 61.15 70.65 65.85 70.1 70.75 69.45 77.0 67.6 83.05 65.75 89.2 62.6 94.7 59.35 100.3 54.85 104.8 50.65 109.0 45.75 112.6 40.4 116.55 34.3 119.35 L21.85 124.3 Q15.85 126.5 9.55 127.55 L-4.3 128.7 -14.65 127.95 Q-25.6 127.9 -36.1 124.35 -47.6 120.35 -54.95 110.65 L-57.15 107.1 Q-59.65 102.4 -61.4 97.2 L-65.7 84.0 Q-67.5 78.15 -68.75 72.0 -69.85 66.4 -70.15 60.45 L-70.55 41.1 Q-70.4 34.9 -69.05 28.85 L-62.25 3.35 -55.5 -15.7 -34.15 -65.5 -14.1 -104.7 Q-11.0 -110.25 -6.4 -114.75 M-5.85 94.15 L-6.45 99.3 Q-8.2 111.1 -14.65 116.65 -17.3 119.1 -20.55 120.2 -28.1 122.85 -36.05 121.25 L-33.8 122.05 Q-24.5 124.65 -14.65 124.1 L1.55 124.35 Q7.4 124.35 13.2 123.2 19.9 121.9 26.4 119.3 32.75 116.85 38.6 113.3 44.1 109.95 48.9 105.7 L53.2 101.6 56.35 97.75 60.6 90.9 Q62.55 87.5 63.8 83.9 L63.9 83.6 Q65.85 78.1 67.05 72.2 68.4 65.95 68.1 59.5 L67.6 53.35 60.55 13.55 49.05 -46.3 42.05 -98.95 Q41.25 -104.55 39.85 -110.0 38.15 -116.7 33.65 -121.75 L31.75 -123.45 Q29.1 -125.15 25.85 -125.8 L21.8 -126.25 Q15.0 -124.55 8.8 -121.7 2.8 -119.0 -1.95 -114.75 -6.8 -110.4 -10.35 -105.0 L-10.7 -104.3 -15.9 -95.25 -33.4 -59.75 -47.8 -26.05 Q-41.45 -32.75 -30.8 -32.5 -25.45 -30.9 -21.6 -27.55 -17.1 -23.65 -14.65 -17.3 -13.25 -13.6 -12.4 -9.7 -11.85 -6.9 -11.6 -4.0 L-10.6 6.1 Q-9.4 16.0 -8.9 26.0 -7.9 46.0 -6.2 65.9 -4.8 82.3 -5.85 94.15 M-15.7 -6.8 L-16.45 -10.5 -16.45 -10.55 -17.45 -14.8 Q-18.3 -18.25 -20.1 -21.4 -22.2 -24.95 -25.5 -27.15 L-27.95 -28.5 Q-30.7 -29.8 -33.7 -29.7 -42.15 -29.45 -47.2 -23.55 L-48.35 -22.05 -48.85 -21.3 Q-52.75 -14.05 -54.6 -9.2 -56.95 -2.85 -58.95 3.6 L-62.75 16.6 Q-64.3 22.35 -65.4 28.25 -66.3 33.25 -66.7 38.35 -67.1 43.1 -67.1 47.9 -67.15 52.75 -66.8 57.6 L-65.2 70.4 -61.4 87.35 Q-59.9 92.85 -57.95 98.15 -55.7 104.15 -51.8 109.35 L-50.75 110.65 Q-45.05 117.1 -36.55 118.05 -24.2 118.55 -14.65 111.35 -9.9 106.55 -9.15 99.15 -8.8 95.7 -8.75 91.55 -8.65 84.1 -9.4 74.45 -10.95 54.5 -11.6 34.5 -12.2 16.7 -14.7 -0.7 L-15.7 -6.8" fill="#000000" fill-rule="evenodd" stroke="none"/>
    <path d="M-5.85 94.15 Q6.95 115.1 36.2 101.45 56.5 90.85 63.9 63.7 L38.9 -86.35 30.4 -93.35 15.4 -93.35 Q3.05 -96.05 -1.6 -103.35 L-10.7 -104.3 -10.35 -105.0 Q-6.8 -110.4 -1.95 -114.75 2.8 -119.0 8.8 -121.7 15.0 -124.55 21.8 -126.25 L25.85 -125.8 Q29.1 -125.15 31.75 -123.45 L33.65 -121.75 Q38.15 -116.7 39.85 -110.0 41.25 -104.55 42.05 -98.95 L49.05 -46.3 60.55 13.55 67.6 53.35 68.1 59.5 Q68.4 65.95 67.05 72.2 65.85 78.1 63.9 83.6 L63.8 83.9 Q62.55 87.5 60.6 90.9 L56.35 97.75 53.2 101.6 48.9 105.7 Q44.1 109.95 38.6 113.3 32.75 116.85 26.4 119.3 19.9 121.9 13.2 123.2 7.4 124.35 1.55 124.35 L-14.65 124.1 Q-24.5 124.65 -33.8 122.05 L-36.05 121.25 Q-28.1 122.85 -20.55 120.2 -17.3 119.1 -14.65 116.65 -8.2 111.1 -6.45 99.3 L-5.85 94.15 M-21.6 -27.55 L1.4 -29.85 Q1.1 -22.35 -6.6 -14.85 L-12.4 -9.7 Q-13.25 -13.6 -14.65 -17.3 -17.1 -23.65 -21.6 -27.55" fill="#000000" fill-opacity="0.4" fill-rule="evenodd" stroke="none"/>
    <path d="M-48.35 -22.05 L-47.2 -23.55 Q-42.15 -29.45 -33.7 -29.7 -30.7 -29.8 -27.95 -28.5 L-25.5 -27.15 Q-22.2 -24.95 -20.1 -21.4 -18.3 -18.25 -17.45 -14.8 L-16.45 -10.55 -16.45 -10.5 -15.7 -6.8 Q-21.95 -3.6 -30.55 -5.95 -39.9 -8.55 -42.75 -17.35 -46.45 -18.45 -48.7 -21.5 L-48.35 -22.05 M-8.75 91.55 Q-8.8 95.7 -9.15 99.15 -9.9 106.55 -14.65 111.35 -24.2 118.55 -36.55 118.05 -45.05 117.1 -50.75 110.65 L-51.8 109.35 Q-55.7 104.15 -57.95 98.15 -59.9 92.85 -61.4 87.35 L-65.2 70.4 Q-38.25 90.45 -8.75 91.55" fill="#cccccc" fill-rule="evenodd" stroke="none"/>
    <path d="M-48.35 -22.05 L-48.7 -21.5 Q-46.45 -18.45 -42.75 -17.35 -39.9 -8.55 -30.55 -5.95 -21.95 -3.6 -15.7 -6.8 L-14.7 -0.7 Q-12.2 16.7 -11.6 34.5 -10.95 54.5 -9.4 74.45 -8.65 84.1 -8.75 91.55 -38.25 90.45 -65.2 70.4 L-66.8 57.6 Q-67.15 52.75 -67.1 47.9 -67.1 43.1 -66.7 38.35 -66.3 33.25 -65.4 28.25 -64.3 22.35 -62.75 16.6 L-58.95 3.6 Q-56.95 -2.85 -54.6 -9.2 -52.75 -14.05 -48.85 -21.3 L-48.35 -22.05" fill="#ffffff" fill-rule="evenodd" stroke="none"/>
  </g>
</svg>
