<?xml version="1.0" encoding="UTF-8" standalone="no"?>
<svg xmlns:xlink="http://www.w3.org/1999/xlink" height="114.5px" width="82.35px" xmlns="http://www.w3.org/2000/svg">
  <g transform="matrix(1.0, 0.0, 0.0, 1.0, 41.2, 57.2)">
    <path d="M19.0 44.7 Q17.85 49.6 15.9 54.25 L18.65 53.75 Q23.0 52.95 25.85 49.45 L26.3 48.75 26.8 47.8 27.35 46.8 Q29.65 42.7 31.05 38.25 L32.15 34.6 34.3 26.35 36.25 18.0 37.55 11.2 38.25 4.3 38.35 -2.6 37.8 -9.55 37.0 -13.5 35.55 -17.15 Q33.7 -20.95 30.45 -23.65 L30.4 -23.8 27.7 -25.8 22.2 -29.45 16.45 -32.55 10.45 -35.35 Q4.8 -37.9 -1.4 -39.2 -8.9 -40.65 -16.55 -40.25 L-10.9 -37.9 Q-5.45 -35.35 -0.1 -32.5 3.55 -30.55 7.0 -28.25 L12.15 -24.15 15.75 -20.4 18.2 -17.05 Q18.55 -16.45 18.25 -15.65 L18.0 -15.75 17.75 -15.9 16.65 -16.7 14.75 -18.15 11.5 -21.05 Q5.3 -26.45 -1.95 -30.5 -10.7 -35.55 -20.45 -38.8 -20.45 -30.5 -20.75 -22.05 -21.05 -13.5 -20.8 -5.0 -20.55 2.2 -19.45 9.05 L-18.15 15.9 Q-17.35 19.45 -16.15 22.95 -15.0 26.3 -13.45 29.55 -11.9 32.8 -9.95 35.8 L-5.85 41.75 Q-3.9 44.25 -1.4 46.45 L1.4 48.7 Q4.25 50.75 7.35 52.3 L8.8 53.1 9.3 52.9 13.2 54.0 14.7 51.1 Q16.3 48.05 16.85 44.8 18.1 37.0 20.35 29.65 L20.8 28.1 20.8 28.7 20.8 29.65 20.7 31.5 20.1 38.2 19.05 44.45 19.0 44.7 M24.55 -30.95 Q28.8 -28.35 32.45 -25.0 L35.85 -21.2 Q37.5 -19.25 38.4 -17.05 L40.05 -12.4 40.55 -10.0 Q42.0 2.0 39.85 13.9 38.1 23.8 35.35 33.3 L33.05 40.75 31.45 44.75 29.4 48.5 26.8 52.0 25.35 53.5 23.2 55.1 Q19.8 56.95 16.0 56.95 L15.7 57.3 14.15 57.2 9.6 56.05 6.7 55.2 Q4.0 53.9 1.4 52.4 L1.35 52.35 -1.15 50.55 -5.7 45.95 Q-11.5 39.5 -15.4 31.6 L-16.2 32.05 -17.8 32.15 Q-21.55 31.0 -24.7 28.35 L-27.75 25.45 -28.65 24.35 Q-32.25 19.65 -33.4 13.7 L-35.95 -0.05 -38.15 -14.0 -39.0 -20.8 -39.8 -27.7 -40.8 -37.95 -41.2 -44.6 -41.0 -50.9 -40.65 -54.2 -39.55 -55.3 -37.15 -56.5 -33.7 -57.2 -29.4 -56.95 Q-25.15 -56.9 -21.05 -55.8 -18.45 -55.25 -15.9 -54.3 L-14.65 -52.5 Q-13.8 -51.15 -13.25 -49.65 L-12.4 -46.65 Q-11.95 -44.7 -12.6 -42.85 -8.25 -43.0 -4.25 -42.05 L2.55 -40.4 9.3 -38.55 Q13.8 -37.0 18.1 -34.7 L24.55 -30.95 M-27.75 -30.25 L-28.55 -28.15 -30.15 -49.15 -35.45 -53.5 -36.1 -54.35 -37.8 -53.95 -38.9 -51.3 Q-39.4 -39.8 -37.7 -28.5 L-34.2 -4.15 -32.95 3.65 Q-31.85 10.05 -29.75 16.35 L-28.45 19.5 -26.85 22.15 -24.9 24.7 Q-22.35 27.75 -18.75 28.8 L-16.5 29.25 Q-18.95 23.75 -20.5 18.05 -22.85 9.35 -23.25 0.4 L-23.75 -17.4 -23.75 -18.2 Q-23.85 -29.5 -22.45 -40.9 L-22.0 -41.1 -21.55 -41.85 -15.05 -42.6 -15.2 -45.15 Q-15.45 -47.45 -16.15 -49.7 -16.6 -51.15 -18.0 -52.3 -19.3 -53.45 -20.95 -54.0 L-24.9 -54.85 Q-29.45 -55.65 -33.9 -55.0 -31.1 -53.4 -29.2 -50.9 L-18.45 -51.5 -18.1 -51.25 Q-17.6 -50.75 -18.2 -50.35 -22.9 -49.15 -27.85 -48.85 L-27.5 -41.45 -27.25 -34.45 -27.25 -34.05 Q-27.2 -32.15 -27.75 -30.25" fill="#000000" fill-rule="evenodd" stroke="none"/>
    <path d="M17.75 -15.9 L18.0 -15.75 18.25 -15.65 Q18.55 -16.45 18.2 -17.05 L15.75 -20.4 12.15 -24.15 7.0 -28.25 Q3.55 -30.55 -0.1 -32.5 -5.45 -35.35 -10.9 -37.9 L-16.55 -40.25 Q-8.9 -40.65 -1.4 -39.2 4.8 -37.9 10.45 -35.35 L16.45 -32.55 22.2 -29.45 27.7 -25.8 30.4 -23.8 30.45 -23.65 Q33.7 -20.95 35.55 -17.15 L37.0 -13.5 37.8 -9.55 38.35 -2.6 38.25 4.3 37.55 11.2 36.25 18.0 34.3 26.35 32.15 34.6 31.05 38.25 Q29.65 42.7 27.35 46.8 L26.8 47.8 26.3 48.75 25.85 49.45 Q23.0 52.95 18.65 53.75 L15.9 54.25 Q17.85 49.6 19.0 44.7 L19.1 44.7 19.05 44.45 20.1 38.2 20.7 31.5 20.8 29.65 20.8 28.7 Q21.35 25.3 21.5 21.8 L22.2 4.35 Q22.5 -4.75 19.15 -12.9 L19.1 -13.25 19.15 -13.8 17.75 -15.9 M21.0 -15.7 L21.15 -15.8 20.95 -15.8 21.0 -15.7 M-27.75 -30.25 Q-27.2 -32.15 -27.25 -34.05 L-27.25 -34.45 -27.5 -41.45 -27.85 -48.85 Q-22.9 -49.15 -18.2 -50.35 -17.6 -50.75 -18.1 -51.25 L-18.45 -51.5 -29.2 -50.9 Q-31.1 -53.4 -33.9 -55.0 -29.45 -55.65 -24.9 -54.85 L-20.95 -54.0 Q-19.3 -53.45 -18.0 -52.3 -16.6 -51.15 -16.15 -49.7 -15.45 -47.45 -15.2 -45.15 L-15.05 -42.6 -21.55 -41.85 -22.0 -41.1 -22.45 -40.9 Q-23.85 -29.5 -23.75 -18.2 L-23.8 -18.2 -23.75 -17.4 -23.25 0.4 Q-22.85 9.35 -20.5 18.05 -18.95 23.75 -16.5 29.25 L-18.75 28.8 Q-22.9 19.1 -23.95 8.4 L-25.3 -5.55 -27.75 -30.25" fill="#f99108" fill-rule="evenodd" stroke="none"/>
    <path d="M19.0 44.7 L19.05 44.45 19.1 44.7 19.0 44.7 M20.8 28.7 L20.8 28.1 20.35 29.65 Q18.1 37.0 16.85 44.8 16.3 48.05 14.7 51.1 L13.2 54.0 9.3 52.9 8.8 53.1 7.35 52.3 Q4.25 50.75 1.4 48.7 L-1.4 46.45 Q-3.9 44.25 -5.85 41.75 L-9.95 35.8 Q-11.9 32.8 -13.45 29.55 -15.0 26.3 -16.15 22.95 -17.35 19.45 -18.15 15.9 L-19.45 9.05 Q-20.55 2.2 -20.8 -5.0 -21.05 -13.5 -20.75 -22.05 -20.45 -30.5 -20.45 -38.8 -10.7 -35.55 -1.95 -30.5 5.3 -26.45 11.5 -21.05 L14.75 -18.15 16.65 -16.7 17.75 -15.9 19.15 -13.8 19.1 -13.25 19.15 -12.9 Q22.5 -4.75 22.2 4.35 L21.5 21.8 Q21.35 25.3 20.8 28.7 M21.0 -15.7 L20.95 -15.8 21.15 -15.8 21.0 -15.7 M-18.75 28.8 Q-22.35 27.75 -24.9 24.7 L-26.85 22.15 -28.45 19.5 -29.75 16.35 Q-31.85 10.05 -32.95 3.65 L-34.2 -4.15 -37.7 -28.5 Q-39.4 -39.8 -38.9 -51.3 L-37.8 -53.95 -36.1 -54.35 -35.45 -53.5 -30.15 -49.15 -28.55 -28.15 -27.75 -30.25 -25.3 -5.55 -23.95 8.4 Q-22.9 19.1 -18.75 28.8 M-23.75 -18.2 L-23.75 -17.4 -23.8 -18.2 -23.75 -18.2" fill="#ffb409" fill-rule="evenodd" stroke="none"/>
  </g>
</svg>
