<?xml version="1.0" encoding="UTF-8" standalone="no"?>
<svg xmlns:xlink="http://www.w3.org/1999/xlink" height="294.95px" width="216.5px" xmlns="http://www.w3.org/2000/svg">
  <g transform="matrix(1.0, 0.0, 0.0, 1.0, 0.0, -0.15)">
    <path d="M203.15 17.95 L205.0 22.6 Q211.05 38.65 214.3 55.65 L215.75 64.35 216.1 67.05 Q218.05 82.95 210.3 96.1 208.25 99.55 205.55 102.8 191.85 119.3 176.8 134.15 L175.9 131.4 Q173.6 124.1 169.6 117.5 L167.45 112.85 Q172.85 105.3 177.5 97.25 180.95 91.3 182.85 84.85 184.9 77.75 185.1 70.1 L188.45 66.25 Q188.7 72.95 190.1 79.45 L190.25 29.95 192.35 31.4 Q197.45 34.5 200.4 29.9 200.85 29.25 200.75 28.35 200.35 25.15 198.9 22.6 198.05 21.1 196.8 19.8 L194.15 17.5 Q195.2 16.9 196.2 16.25 L194.5 16.4 193.9 16.45 Q187.6 18.7 182.05 15.95 L182.15 15.55 181.85 15.7 Q181.15 14.75 181.7 13.65 184.45 7.85 190.7 7.3 L193.0 7.75 Q195.1 8.5 196.8 9.7 200.1 11.9 202.05 15.6 L203.15 17.95 M175.85 6.3 Q180.75 27.6 183.1 49.4 183.9 56.9 183.6 64.35 L182.85 73.0 Q182.1 78.95 180.6 84.85 179.45 89.45 177.15 93.6 167.35 111.0 154.95 126.45 142.15 142.4 126.95 156.0 L120.0 162.4 124.3 159.75 124.75 161.6 Q126.35 169.85 121.8 177.0 116.55 185.3 113.1 194.45 105.8 189.7 97.1 188.1 81.9 185.4 68.3 193.0 50.0 203.1 37.2 219.35 24.15 235.9 20.35 256.75 L20.05 261.55 Q15.3 257.3 11.6 252.3 L7.4 244.7 Q-1.7 224.15 0.4 201.8 2.35 180.9 13.8 163.45 20.35 153.35 29.4 145.55 35.6 140.2 42.15 135.25 L37.7 143.6 37.3 145.0 39.0 142.5 49.4 127.6 Q54.85 119.7 56.2 110.5 L61.4 109.95 Q74.05 107.95 84.15 100.05 86.1 101.05 87.65 102.3 L89.3 103.9 88.95 104.2 Q84.3 106.35 81.0 110.0 L81.45 109.8 Q116.15 93.3 146.75 70.15 L144.3 71.0 Q148.15 65.05 150.0 58.1 L160.9 18.2 Q163.3 9.5 168.9 2.65 170.3 1.0 172.3 0.3 L175.55 0.15 Q181.25 0.3 182.0 5.85 L181.5 5.95 Q178.85 6.85 177.6 9.65 L175.95 5.85 175.85 6.3 M52.4 25.5 L58.25 22.65 Q55.4 24.95 53.3 27.9 L52.4 25.5 M123.65 14.05 Q130.15 26.8 134.9 40.4 139.6 54.0 144.95 67.3 144.1 70.6 141.45 72.4 L125.1 83.3 110.85 92.2 Q101.95 87.75 96.1 79.4 96.55 67.15 86.9 59.8 90.0 58.8 92.3 56.75 94.85 54.6 95.7 51.4 98.35 41.8 92.6 33.35 L88.05 27.85 Q99.65 26.6 107.75 17.9 113.6 11.6 120.65 6.7 121.85 10.5 123.65 14.05 M166.45 114.25 Q174.8 129.9 178.1 147.3 L176.6 144.95 Q169.15 133.5 159.15 124.4 L166.45 114.25 M37.85 43.8 Q38.1 47.1 39.5 51.65 L42.65 57.2 41.95 57.6 40.15 54.95 Q38.9 52.85 38.3 50.95 37.1 47.15 37.05 44.35 36.75 41.4 36.85 37.75 L38.0 37.1 Q37.55 40.45 37.85 43.8 M106.75 274.5 L109.25 273.85 Q114.95 280.15 123.3 282.25 132.95 284.55 142.55 281.5 122.0 294.0 97.95 295.1 88.15 295.25 78.65 292.8 93.25 284.45 106.75 274.5" fill="#ffffff" fill-rule="evenodd" stroke="none"/>
  </g>
</svg>
