<?xml version="1.0" encoding="UTF-8" standalone="no"?>
<svg xmlns:xlink="http://www.w3.org/1999/xlink" height="81.85px" width="81.45px" xmlns="http://www.w3.org/2000/svg">
  <g transform="matrix(1.0, 0.0, 0.0, 1.0, 40.7, 40.95)">
    <path d="M0.1 -18.4 L0.05 -18.35 Q-5.65 -14.65 -3.1 -8.1 L-1.45 -8.15 Q3.05 -12.0 0.9 -18.1 L0.6 -18.25 0.1 -18.4 M10.8 -15.55 L10.2 -14.9 Q7.05 -10.35 9.05 -5.45 9.8 -4.95 10.75 -5.0 11.3 -5.05 11.6 -5.4 15.25 -9.8 13.4 -15.5 L13.05 -15.65 11.7 -15.9 10.8 -15.55 M22.8 -38.15 Q27.6 -38.3 30.9 -34.55 42.1 -21.9 35.5 -6.3 33.8 -2.35 30.85 0.65 L27.2 4.25 Q26.3 4.8 25.45 5.45 L25.0 5.15 Q13.5 -1.8 0.1 -3.75 L-3.55 -3.55 Q-4.95 -11.1 -2.75 -18.75 0.05 -28.65 7.5 -35.35 11.15 -38.65 15.1 -37.25 L13.95 -35.55 14.0 -35.35 14.2 -35.0 14.45 -34.8 15.1 -35.0 17.2 -36.55 Q19.65 -38.0 22.8 -38.15" fill="#ffffff" fill-rule="evenodd" stroke="none"/>
    <path d="M23.2 -40.95 Q36.75 -38.35 39.9 -24.4 43.5 -8.15 31.95 4.3 30.35 6.0 28.8 6.25 L29.1 6.2 27.7 7.3 Q29.45 9.15 30.35 11.7 34.9 24.45 25.75 34.4 L22.5 36.95 Q16.4 40.5 9.2 40.85 -2.6 41.5 -11.5 35.05 -22.95 34.95 -33.45 30.65 -36.7 29.3 -38.95 26.55 L-39.7 24.8 -40.3 23.85 -40.7 21.1 -40.6 18.4 -40.25 16.85 Q-35.35 8.1 -26.1 3.8 -15.85 -1.05 -4.8 -3.35 -8.65 -13.1 -3.9 -23.2 -1.8 -27.7 0.75 -32.0 2.35 -34.7 4.7 -36.8 8.15 -39.85 12.55 -40.75 15.05 -40.3 16.6 -38.7 18.65 -40.3 21.6 -40.7 L23.2 -40.95 M22.8 -38.15 Q19.65 -38.0 17.2 -36.55 L15.1 -35.0 14.45 -34.8 14.2 -35.0 14.0 -35.35 13.95 -35.55 15.1 -37.25 Q11.15 -38.65 7.5 -35.35 0.05 -28.65 -2.75 -18.75 -4.95 -11.1 -3.55 -3.55 L0.1 -3.75 Q13.5 -1.8 25.0 5.15 L25.45 5.45 Q26.3 4.8 27.2 4.25 L30.85 0.65 Q33.8 -2.35 35.5 -6.3 42.1 -21.9 30.9 -34.55 27.6 -38.3 22.8 -38.15 M10.8 -15.55 L11.7 -15.9 13.05 -15.65 13.4 -15.5 Q15.25 -9.8 11.6 -5.4 11.3 -5.05 10.75 -5.0 9.8 -4.95 9.05 -5.45 7.05 -10.35 10.2 -14.9 L10.8 -15.55 M0.1 -18.4 L0.6 -18.25 0.9 -18.1 Q3.05 -12.0 -1.45 -8.15 L-3.1 -8.1 Q-5.65 -14.65 0.05 -18.35 L0.1 -18.4 M28.9 16.4 L28.4 14.25 28.3 14.05 28.1 13.85 27.95 13.65 Q26.55 9.55 23.8 6.85 20.35 3.45 14.8 2.2 L5.65 -0.15 Q1.35 -1.4 -3.05 -1.6 -15.15 1.25 -26.45 6.85 -32.8 10.0 -36.9 15.8 -38.0 18.15 -38.15 20.15 L-38.1 21.9 -38.1 21.95 Q-37.45 26.5 -31.1 28.8 -11.4 36.1 7.8 28.05 14.35 25.3 18.3 19.55 L18.6 19.2 14.4 18.2 14.15 18.0 14.1 17.8 14.1 17.6 14.2 17.25 14.3 17.05 14.5 16.85 14.75 16.75 15.85 16.45 Q21.8 16.1 24.75 20.4 L24.75 20.55 24.4 20.9 23.9 21.1 20.15 19.7 Q19.25 22.2 17.05 24.3 7.3 33.75 -6.4 34.9 -3.25 37.1 0.75 37.8 13.85 40.15 24.25 32.95 27.85 29.2 28.8 24.2 29.55 20.25 28.9 16.4" fill="#000000" fill-rule="evenodd" stroke="none"/>
    <path d="M23.8 6.85 Q26.55 9.55 27.95 13.65 L28.1 13.85 28.3 14.05 28.4 14.25 28.9 16.4 21.5 13.05 Q11.3 9.55 6.5 15.05 5.15 20.95 9.5 23.05 -5.25 29.0 -20.0 27.55 -37.45 25.6 -38.1 21.95 L-38.1 21.9 -38.15 20.15 Q-17.05 2.85 4.0 4.55 L23.8 6.85" fill="#ffb409" fill-rule="evenodd" stroke="none"/>
    <path d="M23.8 6.85 L4.0 4.55 Q-17.05 2.85 -38.15 20.15 -38.0 18.15 -36.9 15.8 -32.8 10.0 -26.45 6.85 -15.15 1.25 -3.05 -1.6 1.35 -1.4 5.65 -0.15 L14.8 2.2 Q20.35 3.45 23.8 6.85" fill="#ffcd5b" fill-rule="evenodd" stroke="none"/>
    <path d="M-38.1 21.95 Q-37.45 25.6 -20.0 27.55 -5.25 29.0 9.5 23.05 5.15 20.95 6.5 15.05 11.3 9.55 21.5 13.05 L28.9 16.4 Q29.55 20.25 28.8 24.2 27.85 29.2 24.25 32.95 13.85 40.15 0.75 37.8 -3.25 37.1 -6.4 34.9 7.3 33.75 17.05 24.3 19.25 22.2 20.15 19.7 L23.9 21.1 24.4 20.9 24.75 20.55 24.75 20.4 Q21.8 16.1 15.85 16.45 L14.75 16.75 14.5 16.85 14.3 17.05 14.2 17.25 14.1 17.6 14.1 17.8 14.15 18.0 14.4 18.2 18.6 19.2 18.3 19.55 Q14.35 25.3 7.8 28.05 -11.4 36.1 -31.1 28.8 -37.45 26.5 -38.1 21.95" fill="#f99108" fill-rule="evenodd" stroke="none"/>
  </g>
</svg>
