<?xml version="1.0" encoding="UTF-8" standalone="no"?>
<svg xmlns:xlink="http://www.w3.org/1999/xlink" height="98.2px" width="99.75px" xmlns="http://www.w3.org/2000/svg">
  <g transform="matrix(1.0, 0.0, 0.0, 1.0, 130.0, -1.65)">
    <path d="M-76.65 60.1 Q-79.8 56.3 -84.85 56.1 -87.8 56.05 -90.55 57.3 -93.75 58.75 -95.8 61.6 L-95.9 62.35 Q-96.5 63.9 -96.45 65.85 L-96.0 69.75 Q-95.4 72.7 -93.15 74.75 L-91.25 76.2 Q-88.85 77.8 -86.1 78.35 L-86.95 68.95 -86.65 68.5 -86.3 68.15 -86.05 68.4 -85.95 69.45 -83.5 78.75 -81.7 78.7 -79.2 77.95 Q-78.35 77.7 -77.65 77.15 -75.75 75.75 -74.95 73.45 -73.8 70.05 -74.25 66.4 -74.7 63.1 -76.55 60.25 L-76.65 60.1 M-95.3 44.3 L-93.4 43.9 -125.95 11.3 -128.55 8.05 Q-129.75 6.55 -129.95 4.6 -130.1 3.1 -129.8 1.65 -120.95 11.0 -111.55 19.65 L-86.55 42.25 Q-77.8 50.3 -69.35 58.7 L-40.7 85.65 Q-36.2 89.8 -31.85 94.3 -30.4 95.8 -30.25 98.05 L-30.25 99.75 -32.2 99.85 -35.85 99.05 Q-37.6 98.5 -39.15 97.5 -40.85 96.5 -42.2 95.1 L-46.95 89.9 Q-51.75 84.3 -57.25 79.05 L-70.55 66.35 -70.55 68.6 Q-70.55 72.7 -72.75 76.15 -73.7 77.7 -75.25 79.05 -76.9 80.65 -79.0 81.4 -80.8 82.05 -82.75 82.0 L-81.8 86.7 -80.0 87.3 Q-77.45 88.25 -75.35 89.9 L-75.0 90.35 Q-75.9 91.05 -77.1 91.0 -80.35 90.8 -82.95 88.75 L-84.0 87.45 Q-85.15 84.8 -85.55 81.95 L-89.05 81.1 Q-92.4 80.25 -94.85 77.65 L-99.05 72.6 Q-100.85 69.3 -103.2 66.35 -105.65 63.3 -105.8 59.15 -105.9 55.8 -104.65 52.65 -103.3 49.25 -100.25 46.85 -98.15 45.15 -95.3 44.3 L-91.1 47.1 -95.3 44.3 M-90.1 47.8 L-89.5 47.65 -90.1 47.1 -91.1 47.1 -92.75 47.35 Q-96.0 47.95 -98.4 50.2 -101.4 53.1 -102.3 57.1 -102.9 59.65 -101.85 62.05 -100.95 64.0 -99.5 65.75 L-98.7 62.15 Q-98.25 60.6 -97.45 59.25 L-95.6 56.8 Q-91.7 52.8 -86.25 53.4 L-84.45 52.6 -88.05 49.1 -90.1 47.8 -88.05 49.1 Q-91.45 49.5 -94.35 51.55 -95.9 52.6 -97.2 52.5 -95.05 48.45 -90.5 47.85 L-90.1 47.8" fill="#000000" fill-rule="evenodd" stroke="none"/>
    <path d="M-76.65 60.1 L-76.55 60.25 Q-74.7 63.1 -74.25 66.4 -73.8 70.05 -74.95 73.45 -75.75 75.75 -77.65 77.15 -78.35 77.7 -79.2 77.95 L-81.7 78.7 -83.5 78.75 -85.95 69.45 -86.05 68.4 -86.3 68.15 -86.65 68.5 -86.95 68.95 -86.1 78.35 Q-88.85 77.8 -91.25 76.2 L-93.15 74.75 Q-95.4 72.7 -96.0 69.75 L-96.45 65.85 Q-96.5 63.9 -95.9 62.35 L-95.8 61.6 Q-93.75 58.75 -90.55 57.3 -87.8 56.05 -84.85 56.1 -79.8 56.3 -76.65 60.1" fill="#cccccc" fill-rule="evenodd" stroke="none"/>
    <path d="M-88.05 49.1 L-84.45 52.6 -86.25 53.4 Q-91.7 52.8 -95.6 56.8 L-97.45 59.25 Q-98.25 60.6 -98.7 62.15 L-99.5 65.75 Q-100.95 64.0 -101.85 62.05 -102.9 59.65 -102.3 57.1 -101.4 53.1 -98.4 50.2 -96.0 47.95 -92.75 47.35 L-91.1 47.1 -90.35 47.65 -90.5 47.85 Q-95.05 48.45 -97.2 52.5 -95.9 52.6 -94.35 51.55 -91.45 49.5 -88.05 49.1" fill="#cc9999" fill-rule="evenodd" stroke="none"/>
    <path d="M-95.3 44.3 L-91.1 47.1 -90.35 47.65 -90.1 47.8 -88.05 49.1 M-125.95 11.3 Q-120.2 27.0 -95.3 44.3 Z" fill="none" stroke="#666666" stroke-linecap="round" stroke-linejoin="round" stroke-width="1.0"/>
  </g>
</svg>
