<?xml version="1.0" encoding="UTF-8" standalone="no"?>
<svg xmlns:xlink="http://www.w3.org/1999/xlink" height="129.9px" width="168.5px" xmlns="http://www.w3.org/2000/svg">
  <g transform="matrix(1.0, 0.0, 0.0, 1.0, 306.15, 131.15)">
    <path d="M-306.15 -130.05 L-304.8 -131.15 -282.6 -115.1 Q-261.1 -99.65 -239.7 -83.8 -215.6 -66.1 -192.4 -47.5 L-189.2 -44.95 Q-170.0 -29.7 -150.25 -15.6 L-137.65 -6.8 -141.0 -1.75 Q-143.2 -3.75 -150.25 -8.8 L-151.7 -9.85 Q-170.7 -23.25 -189.2 -38.0 L-189.5 -38.3 -189.9 -37.6 Q-191.2 -35.65 -194.1 -36.2 L-194.35 -36.45 -194.7 -36.95 -194.8 -37.7 -194.6 -38.45 Q-193.55 -39.3 -192.65 -40.25 L-192.35 -40.55 -202.55 -48.85 Q-227.55 -69.6 -253.05 -88.3 L-256.65 -90.95 -257.05 -90.45 Q-258.2 -89.4 -260.85 -89.2 -261.4 -89.15 -261.65 -89.8 -261.35 -91.85 -260.15 -93.1 L-259.9 -93.35 Q-282.4 -110.15 -303.8 -128.1 L-306.15 -130.05" fill="#000000" fill-rule="evenodd" stroke="none"/>
    <path d="M-141.0 -1.75 Q-145.75 -2.6 -150.25 -4.15 -173.25 -11.9 -189.2 -36.55 L-189.9 -37.6 M-192.65 -40.25 Q-233.6 -58.95 -257.05 -90.45 M-303.8 -128.1 Q-287.85 -107.35 -260.15 -93.1" fill="none" stroke="#666666" stroke-linecap="round" stroke-linejoin="round" stroke-width="1.0"/>
  </g>
</svg>
