<?xml version="1.0" encoding="UTF-8" standalone="no"?>
<svg xmlns:xlink="http://www.w3.org/1999/xlink" height="87.55px" width="126.85px" xmlns="http://www.w3.org/2000/svg">
  <g transform="matrix(1.0, 0.0, 0.0, 1.0, 63.45, 43.8)">
    <path d="M62.85 -21.25 L63.25 -22.0 63.35 -22.15 63.4 -21.95 Q62.85 -17.4 60.55 -13.35 L42.3 15.5 36.55 23.8 Q33.5 27.85 29.9 31.35 L26.95 33.8 Q24.85 35.2 22.3 36.3 L12.35 39.95 Q7.45 41.45 2.45 42.35 L-12.7 43.6 -22.25 43.75 -37.75 43.25 Q-45.1 42.4 -52.15 40.15 -55.5 39.1 -58.4 37.0 L-59.8 35.9 -60.8 34.65 -62.35 32.15 Q-64.15 28.45 -63.0 24.5 L-55.95 30.7 -49.25 28.6 Q-46.3 27.5 -43.45 25.85 -41.15 24.5 -38.7 23.4 -36.35 22.2 -33.85 21.2 L-25.1 17.8 Q-8.4 11.4 8.05 4.55 L8.05 3.95 13.8 -15.6 22.7 -41.8 Q23.25 -43.1 24.25 -43.8 L24.25 -43.7 24.45 -42.15 24.45 -41.4 24.05 -39.35 22.4 -34.6 Q15.1 -15.4 10.95 4.0 L13.15 4.8 13.1 4.85 12.5 5.2 Q2.95 9.6 -6.85 13.3 -16.45 16.9 -25.85 21.0 -36.45 25.45 -46.8 30.05 L-48.0 30.65 -51.9 31.8 -54.65 32.25 -57.35 31.95 Q-59.95 31.05 -61.2 29.1 L-62.05 27.35 -61.6 28.4 Q-58.25 36.1 -51.55 38.0 L-43.55 39.8 -39.3 40.4 -29.0 40.7 -7.8 40.45 3.6 39.2 Q9.5 38.1 14.95 35.9 18.9 34.4 22.65 32.4 28.05 29.65 32.1 25.15 34.65 22.4 36.6 19.55 L56.75 -11.25 Q59.9 -16.1 62.85 -21.25" fill="#000000" fill-rule="evenodd" stroke="none"/>
    <path d="M62.85 -21.25 Q59.9 -16.1 56.75 -11.25 L36.6 19.55 Q34.65 22.4 32.1 25.15 28.05 29.65 22.65 32.4 18.9 34.4 14.95 35.9 9.5 38.1 3.6 39.2 L-7.8 40.45 -29.0 40.7 -39.3 40.4 -43.55 39.8 Q12.25 42.55 26.1 23.6 L62.85 -21.25" fill="#000000" fill-opacity="0.2509804" fill-rule="evenodd" stroke="none"/>
  </g>
</svg>
