<?xml version="1.0" encoding="UTF-8" standalone="no"?>
<svg xmlns:xlink="http://www.w3.org/1999/xlink" height="39.0px" width="196.7px" xmlns="http://www.w3.org/2000/svg">
  <g transform="matrix(1.0, 0.0, 0.0, 1.0, 334.4, 40.2)">
    <path d="M-269.5 -34.05 Q-268.75 -32.2 -269.25 -29.85 L-269.4 -29.2 -269.55 -28.95 Q-270.35 -28.0 -271.35 -28.85 -271.95 -31.25 -271.95 -33.65 -301.15 -28.7 -333.9 -13.35 -223.45 -70.2 -137.7 -6.75 L-141.0 -1.7 Q-165.2 -23.05 -195.5 -31.35 L-196.65 -28.65 -197.0 -28.1 Q-198.1 -27.65 -198.75 -28.6 -199.05 -30.65 -198.35 -32.1 -230.55 -40.3 -269.5 -34.05" fill="#000000" fill-rule="evenodd" stroke="none"/>
    <path d="M-269.25 -29.85 Q-233.45 -22.15 -198.75 -28.6 M-197.0 -28.1 Q-171.5 -9.4 -141.0 -1.7 M-333.9 -13.35 Q-296.0 -14.75 -271.35 -28.85" fill="none" stroke="#666666" stroke-linecap="round" stroke-linejoin="round" stroke-width="1.0"/>
  </g>
</svg>
