<?xml version="1.0" encoding="UTF-8" standalone="no"?>
<svg xmlns:xlink="http://www.w3.org/1999/xlink" height="28.9px" width="306.55px" xmlns="http://www.w3.org/2000/svg">
  <g transform="matrix(1.0, 0.0, 0.0, 1.0, 235.95, -110.75)">
    <path d="M61.15 127.8 L59.65 127.75 Q-5.45 150.95 -62.2 129.0 -65.9 127.5 -70.15 128.35 -66.25 123.85 -88.6 129.4 -92.85 130.35 -119.6 127.9 -146.4 125.4 -217.65 128.05 L-231.45 128.35 Q-234.1 128.3 -235.95 126.8 L-234.25 124.5 -224.0 122.55 -222.95 121.25 -217.25 121.4 Q-181.95 108.85 -68.5 113.7 -5.4 109.0 57.95 112.4 60.3 112.1 63.05 110.75 70.45 112.8 70.6 120.5 67.8 126.95 61.15 127.8" fill="#cccccc" fill-rule="evenodd" stroke="none"/>
  </g>
</svg>
