<?xml version="1.0" encoding="UTF-8" standalone="no"?>
<svg xmlns:xlink="http://www.w3.org/1999/xlink" height="86.05px" width="102.75px" xmlns="http://www.w3.org/2000/svg">
  <g transform="matrix(1.0, 0.0, 0.0, 1.0, 130.0, -18.9)">
    <path d="M-79.05 62.8 L-75.7 63.6 -73.8 65.25 -68.85 71.0 Q-64.5 76.05 -68.35 81.75 -69.5 83.4 -71.2 84.4 -74.5 86.4 -77.7 86.9 -79.65 81.3 -80.85 75.45 L-81.1 75.35 -81.45 75.3 Q-82.0 75.35 -82.25 75.85 -82.3 78.8 -81.75 81.75 L-80.95 86.95 Q-84.75 86.5 -88.45 83.8 -92.7 80.7 -92.8 75.5 -92.95 69.15 -87.9 65.3 -83.85 62.45 -79.05 62.8" fill="#cccccc" fill-rule="evenodd" stroke="none"/>
    <path d="M-79.05 62.8 Q-83.85 62.45 -87.9 65.3 -92.95 69.15 -92.8 75.5 -92.7 80.7 -88.45 83.8 -84.75 86.5 -80.95 86.95 L-81.75 81.75 Q-82.3 78.8 -82.25 75.85 -82.0 75.35 -81.45 75.3 L-81.1 75.35 -80.85 75.45 Q-79.65 81.3 -77.7 86.9 -74.5 86.4 -71.2 84.4 -69.5 83.4 -68.35 81.75 -64.5 76.05 -68.85 71.0 L-73.8 65.25 -75.7 63.6 -79.05 62.8 M-128.2 25.45 L-130.0 18.9 Q-94.45 37.35 -34.35 94.05 L-31.8 95.65 Q-30.05 97.25 -28.9 99.3 L-27.25 101.3 Q-27.15 103.3 -28.45 104.65 L-29.25 104.95 Q-36.2 102.7 -40.95 96.5 -52.15 84.9 -63.4 74.55 -62.65 78.9 -65.75 83.4 -69.95 89.35 -76.5 90.1 L-75.2 93.3 -74.7 93.65 Q-71.05 94.95 -69.4 97.7 -72.6 98.9 -75.9 96.5 -79.25 94.1 -80.35 90.1 L-81.85 89.95 Q-88.9 88.75 -92.85 83.65 L-94.75 81.75 Q-97.85 78.2 -100.7 71.55 -103.6 64.85 -97.9 58.55 -94.7 54.9 -90.3 53.45 L-88.6 52.95 Q-108.3 37.3 -128.2 25.45 M-90.8 60.05 L-91.1 59.75 Q-89.6 57.2 -85.85 55.45 L-87.1 55.6 -87.3 55.65 Q-95.15 57.3 -97.9 64.65 -98.8 67.15 -97.95 69.7 L-96.0 73.85 Q-95.05 67.15 -89.6 63.15 -86.6 60.95 -83.05 60.05 L-80.25 59.75 -82.65 57.75 Q-86.9 58.35 -90.8 60.05" fill="#000000" fill-rule="evenodd" stroke="none"/>
    <path d="M-90.8 60.05 Q-86.9 58.35 -82.65 57.75 L-80.25 59.75 -83.05 60.05 Q-86.6 60.95 -89.6 63.15 -95.05 67.15 -96.0 73.85 L-97.95 69.7 Q-98.8 67.15 -97.9 64.65 -95.15 57.3 -87.3 55.65 L-87.1 55.6 -85.85 55.45 Q-89.6 57.2 -91.1 59.75 L-90.8 60.05" fill="#cc9999" fill-rule="evenodd" stroke="none"/>
    <path d="M-90.3 53.45 Q-111.35 44.85 -128.2 25.45" fill="none" stroke="#666666" stroke-linecap="round" stroke-linejoin="round" stroke-width="1.0"/>
  </g>
</svg>
