<?xml version="1.0" encoding="UTF-8" standalone="no"?>
<svg xmlns:xlink="http://www.w3.org/1999/xlink" height="28.95px" width="198.25px" xmlns="http://www.w3.org/2000/svg">
  <g transform="matrix(1.0, 0.0, 0.0, 1.0, 339.25, 10.05)">
    <path d="M-205.85 -1.6 Q-239.9 -7.8 -276.5 -4.8 -275.65 -2.75 -276.8 0.15 L-277.0 0.4 -277.05 0.45 Q-278.0 1.05 -278.85 0.2 -279.4 -2.3 -278.85 -4.6 -308.0 -2.05 -338.75 6.35 -225.35 -30.1 -141.0 14.45 L-143.5 18.4 Q-172.6 4.7 -203.85 -1.25 L-203.7 3.65 -203.85 4.3 Q-204.15 4.6 -204.6 4.6 L-205.6 3.55 Q-207.05 1.5 -205.85 -1.6" fill="#000000" fill-rule="evenodd" stroke="none"/>
    <path d="M-205.6 3.55 Q-241.1 6.4 -277.05 0.45 M-203.7 3.65 Q-173.8 16.6 -143.5 18.4 M-338.75 6.35 Q-308.3 5.4 -278.85 0.2" fill="none" stroke="#666666" stroke-linecap="round" stroke-linejoin="round" stroke-width="1.0"/>
  </g>
</svg>
