<?xml version="1.0" encoding="UTF-8" standalone="no"?>
<svg xmlns:xlink="http://www.w3.org/1999/xlink" height="88.3px" width="74.3px" xmlns="http://www.w3.org/2000/svg">
  <g transform="matrix(1.0, 0.0, 0.0, 1.0, 63.7, 101.5)">
    <path d="M7.4 -81.5 Q5.7 -90.1 -0.3 -95.8 -6.3 -101.4 -12.35 -97.25 L-15.75 -94.55 -16.0 -94.65 -16.15 -94.8 -15.7 -96.25 Q-27.55 -91.95 -30.9 -79.75 -32.3 -74.8 -32.2 -69.6 L-31.2 -72.3 -31.1 -72.45 Q-30.2 -73.45 -28.95 -73.8 -28.55 -74.1 -27.2 -72.05 -25.9 -70.0 -27.5 -67.5 -29.1 -65.05 -29.55 -65.0 L-29.95 -64.65 -30.25 -64.5 Q-32.05 -66.3 -32.2 -68.4 L-31.8 -60.55 -28.55 -60.35 Q-15.95 -61.2 -4.85 -54.9 L-0.55 -52.55 Q5.55 -57.15 7.25 -64.8 9.1 -73.05 7.4 -81.5 M7.4 -58.1 Q5.45 -53.25 1.05 -50.45 6.45 -43.75 7.15 -35.25 7.75 -27.6 3.35 -21.5 0.65 -17.7 -3.55 -15.85 -14.75 -11.0 -26.2 -15.1 -30.05 -16.55 -33.3 -19.4 -42.3 -17.05 -51.2 -19.3 -58.45 -21.2 -61.6 -26.85 -62.9 -29.15 -63.5 -32.1 -64.4 -36.35 -61.6 -39.8 -53.3 -50.0 -41.8 -56.3 -38.0 -58.4 -33.95 -59.85 -36.4 -70.55 -33.4 -81.45 -30.5 -92.15 -20.25 -96.75 L-16.25 -98.6 -14.65 -97.85 -12.0 -100.1 -9.7 -101.5 Q-3.6 -100.6 1.25 -96.85 L3.65 -94.8 Q9.85 -87.0 10.5 -76.85 11.1 -67.1 7.4 -58.1 M-59.0 -27.05 Q-58.1 -25.75 -56.65 -24.9 -43.85 -17.45 -29.6 -21.95 -20.25 -26.35 -9.9 -28.4 -5.95 -29.15 -4.3 -25.5 -3.4 -23.45 -4.25 -21.4 -17.15 -19.1 -30.95 -19.65 -18.6 -14.4 -6.1 -17.65 0.7 -19.5 3.0 -26.15 L3.85 -28.7 3.9 -28.95 Q5.05 -38.65 0.2 -47.15 L-1.35 -49.5 Q-12.8 -58.15 -25.55 -57.9 -38.1 -57.65 -48.0 -49.8 -53.0 -45.9 -57.2 -41.25 -62.15 -35.85 -60.0 -29.15 -59.75 -28.3 -59.3 -27.6 L-59.0 -27.05 M-18.6 -64.75 Q-19.5 -66.2 -19.5 -68.25 -19.5 -70.3 -18.6 -71.7 -17.7 -73.15 -16.45 -73.15 -15.2 -73.15 -14.3 -71.7 -13.4 -70.3 -13.4 -68.25 -13.4 -66.2 -14.3 -64.75 -15.2 -63.35 -16.45 -63.35 -17.7 -63.35 -18.6 -64.75" fill="#000000" fill-rule="evenodd" stroke="none"/>
    <path d="M7.4 -81.5 Q9.1 -73.05 7.25 -64.8 5.55 -57.15 -0.55 -52.55 L-4.85 -54.9 Q-15.95 -61.2 -28.55 -60.35 L-31.8 -60.55 -32.2 -68.4 Q-32.05 -66.3 -30.25 -64.5 L-29.95 -64.65 -29.55 -65.0 Q-29.1 -65.05 -27.5 -67.5 -25.9 -70.0 -27.2 -72.05 -28.55 -74.1 -28.95 -73.8 -30.2 -73.45 -31.1 -72.45 L-31.2 -72.3 -32.2 -69.6 Q-32.3 -74.8 -30.9 -79.75 -27.55 -91.95 -15.7 -96.25 L-16.15 -94.8 -16.0 -94.65 -15.75 -94.55 -12.35 -97.25 Q-6.3 -101.4 -0.3 -95.8 5.7 -90.1 7.4 -81.5 M-18.6 -64.75 Q-17.7 -63.35 -16.45 -63.35 -15.2 -63.35 -14.3 -64.75 -13.4 -66.2 -13.4 -68.25 -13.4 -70.3 -14.3 -71.7 -15.2 -73.15 -16.45 -73.15 -17.7 -73.15 -18.6 -71.7 -19.5 -70.3 -19.5 -68.25 -19.5 -66.2 -18.6 -64.75" fill="#ffffff" fill-rule="evenodd" stroke="none"/>
    <path d="M-59.0 -27.05 L-59.3 -27.6 Q-41.1 -63.8 0.2 -47.15 5.05 -38.65 3.9 -28.95 4.7 -37.75 -8.1 -36.3 L-44.15 -28.25 -59.0 -27.05" fill="#ffb409" fill-rule="evenodd" stroke="none"/>
    <path d="M3.9 -28.95 L3.85 -28.7 3.0 -26.15 Q0.7 -19.5 -6.1 -17.65 -18.6 -14.4 -30.95 -19.65 -17.15 -19.1 -4.25 -21.4 -3.4 -23.45 -4.3 -25.5 -5.95 -29.15 -9.9 -28.4 -20.25 -26.35 -29.6 -21.95 -43.85 -17.45 -56.65 -24.9 -58.1 -25.75 -59.0 -27.05 L-44.15 -28.25 -8.1 -36.3 Q4.7 -37.75 3.9 -28.95" fill="#f99108" fill-rule="evenodd" stroke="none"/>
    <path d="M-59.3 -27.6 Q-59.75 -28.3 -60.0 -29.15 -62.15 -35.85 -57.2 -41.25 -53.0 -45.9 -48.0 -49.8 -38.1 -57.65 -25.55 -57.9 -12.8 -58.15 -1.35 -49.5 L0.2 -47.15 Q-41.1 -63.8 -59.3 -27.6" fill="#ffcd5b" fill-rule="evenodd" stroke="none"/>
  </g>
</svg>
