<?xml version="1.0" encoding="UTF-8" standalone="no"?>
<svg xmlns:xlink="http://www.w3.org/1999/xlink" height="35.55px" width="196.3px" xmlns="http://www.w3.org/2000/svg">
  <g transform="matrix(1.0, 0.0, 0.0, 1.0, 336.75, 17.3)">
    <path d="M-274.15 -7.45 Q-275.45 -10.1 -275.2 -13.25 -305.1 -12.1 -336.25 -9.1 -227.0 -33.35 -140.45 14.0 L-143.25 17.75 Q-170.65 2.2 -200.7 -5.55 -200.05 -3.3 -200.9 -0.55 L-200.9 -0.45 -201.05 -0.3 -202.6 -0.35 Q-203.35 -3.2 -202.9 -6.15 -236.55 -14.55 -273.5 -13.3 -272.15 -11.1 -272.7 -8.0 L-272.75 -7.75 -273.3 -7.35 -274.15 -7.45" fill="#000000" fill-rule="evenodd" stroke="none"/>
    <path d="M-274.15 -7.45 L-273.3 -7.35 Q-238.55 -0.45 -202.6 -0.35 M-274.15 -7.45 Q-305.7 -5.0 -336.25 -9.1 M-143.25 17.75 Q-173.25 11.55 -200.9 -0.45" fill="none" stroke="#666666" stroke-linecap="round" stroke-linejoin="round" stroke-width="1.0"/>
  </g>
</svg>
