<?xml version="1.0" encoding="UTF-8" standalone="no"?>
<svg xmlns:xlink="http://www.w3.org/1999/xlink" height="268.4px" width="197.0px" xmlns="http://www.w3.org/2000/svg">
  <g transform="matrix(1.0, 0.0, 0.0, 1.0, -354.8, -127.7)">
    <path d="M538.35 141.9 L539.65 143.9 Q546.4 160.45 549.8 178.2 550.8 183.3 551.45 188.55 553.65 206.85 541.85 221.1 529.4 236.1 515.65 249.6 L514.85 247.1 Q512.8 240.45 509.1 234.45 519.7 225.95 529.15 216.3 536.2 209.2 540.15 199.9 543.9 191.1 543.3 181.5 542.0 161.45 538.35 141.9 M514.8 133.25 Q519.3 152.65 521.4 172.45 523.15 188.8 519.15 204.75 518.05 208.95 516.0 212.7 507.05 228.55 495.8 242.6 484.15 257.1 470.3 269.5 L464.0 275.3 Q463.2 272.45 464.8 269.8 468.35 263.8 472.85 258.45 L487.65 241.4 Q493.25 234.9 498.2 227.8 502.6 221.55 505.4 214.55 512.8 195.8 514.25 175.8 515.7 156.2 514.95 136.65 L514.8 133.25 M389.4 161.3 Q388.95 164.35 389.25 167.4 L388.5 167.9 Q388.25 165.2 388.3 161.9 L389.4 161.3 M499.6 240.75 L506.3 231.5 Q513.85 245.75 516.85 261.55 L515.5 259.45 Q508.7 249.05 499.6 240.75 M467.0 384.4 Q475.8 386.5 484.5 383.7 465.8 395.1 443.9 396.1 435.0 396.2 426.35 393.95 439.65 386.4 451.95 377.35 L454.2 376.75 Q459.4 382.45 467.0 384.4 M373.05 365.55 Q368.7 361.65 365.35 357.1 369.0 359.1 373.35 361.15 L373.05 365.55 M452.85 143.85 Q458.15 138.1 464.55 133.65 465.7 137.1 467.3 140.3 473.25 151.9 477.55 164.3 481.85 176.7 486.7 188.75 485.9 191.8 483.5 193.4 L468.65 203.35 Q459.95 178.05 448.1 154.3 L446.9 155.0 Q443.2 157.2 439.05 157.9 L434.9 152.9 Q445.5 151.75 452.85 143.85 M391.35 177.55 Q390.2 175.65 389.65 173.9 L390.75 174.5 393.6 179.55 392.95 179.95 391.35 177.55 M403.3 152.95 L402.5 150.75 407.8 148.15 Q405.2 150.25 403.3 152.95" fill="#000000" fill-opacity="0.3019608" fill-rule="evenodd" stroke="none"/>
    <path d="M528.3 135.9 Q522.65 136.45 520.55 141.7 L520.45 142.05 Q519.6 141.1 520.15 139.95 522.65 134.7 528.35 134.2 L530.4 134.6 Q537.0 137.0 539.65 143.9 L538.35 141.9 Q534.8 136.0 528.3 135.9 M511.55 127.8 L514.55 127.7 Q519.75 127.8 520.4 132.85 L519.95 132.95 Q518.65 129.4 515.05 128.6 512.2 128.0 510.4 130.5 505.6 137.1 503.15 145.2 497.25 164.25 492.1 183.4 491.0 187.3 489.0 190.8 L492.5 188.05 Q482.55 200.0 469.3 208.5 L459.65 214.65 Q445.35 223.6 428.95 227.45 460.5 212.45 488.35 191.35 L486.1 192.15 Q489.6 186.7 491.3 180.4 496.15 162.2 501.25 144.1 503.4 136.2 508.5 129.95 509.75 128.45 511.55 127.8 M527.9 154.8 L529.8 156.1 Q529.9 174.3 528.25 192.45 L527.75 196.7 527.9 154.8 M389.1 258.25 Q374.15 270.9 365.95 288.6 359.3 302.7 358.5 318.25 357.55 334.5 361.55 350.2 353.25 331.5 355.15 311.2 356.95 292.15 367.35 276.3 373.35 267.1 381.55 260.0 387.2 255.1 393.15 250.6 L389.1 258.25 M405.95 228.1 L410.65 227.6 Q410.15 237.85 403.05 245.5 397.1 251.8 390.25 257.2 L399.75 243.65 Q404.7 236.45 405.95 228.1" fill="#ffffff" fill-opacity="0.3019608" fill-rule="evenodd" stroke="none"/>
  </g>
</svg>
