<?xml version="1.0" encoding="UTF-8" standalone="no"?>
<svg xmlns:xlink="http://www.w3.org/1999/xlink" height="91.85px" width="72.8px" xmlns="http://www.w3.org/2000/svg">
  <g transform="matrix(1.0, 0.0, 0.0, 1.0, 63.9, 102.6)">
    <path d="M4.9 -77.9 Q3.5 -84.35 1.1 -90.5 -0.75 -95.05 -4.45 -98.05 -9.9 -102.4 -14.0 -97.5 L-14.55 -96.45 -14.95 -96.35 Q-15.45 -96.35 -15.75 -96.7 L-15.85 -97.2 Q-27.05 -90.35 -30.95 -77.4 -33.35 -69.4 -32.85 -61.15 L-30.35 -62.0 -28.6 -62.25 -25.75 -62.1 Q-21.75 -61.85 -18.0 -60.65 -14.2 -59.45 -10.6 -57.5 L-7.6 -55.6 Q-5.75 -54.25 -4.1 -52.6 L-1.7 -49.85 -0.5 -50.65 Q1.55 -51.8 2.55 -54.0 7.55 -65.35 4.9 -77.9 M7.85 -78.05 Q11.1 -63.45 4.05 -50.8 2.55 -48.15 0.35 -47.0 L1.15 -45.65 Q3.3 -41.8 4.4 -37.65 L5.1 -34.65 5.65 -30.7 5.8 -27.7 Q5.85 -25.55 5.35 -23.55 4.6 -20.4 2.65 -17.7 1.45 -16.2 -0.15 -14.85 L-2.55 -13.2 Q-4.3 -12.05 -6.1 -11.4 L-12.15 -10.75 Q-17.45 -10.65 -22.6 -12.0 L-29.15 -14.4 Q-32.45 -15.7 -35.5 -17.45 L-36.6 -18.15 -38.15 -17.85 Q-42.6 -17.3 -47.25 -17.95 -51.45 -18.5 -55.35 -20.4 L-59.1 -22.5 -61.5 -24.6 Q-63.3 -26.55 -63.7 -29.1 L-63.9 -32.55 Q-63.85 -34.25 -63.4 -35.85 -62.9 -37.55 -62.0 -39.0 L-58.05 -44.15 Q-54.9 -47.6 -51.4 -50.75 L-47.6 -53.5 Q-44.45 -55.65 -40.95 -57.3 L-34.8 -60.3 Q-37.25 -69.35 -33.95 -78.65 -30.65 -88.2 -23.5 -95.35 -19.9 -99.0 -15.05 -100.4 L-14.85 -100.35 -14.15 -100.9 -11.1 -102.6 Q-0.25 -102.0 3.75 -91.7 6.25 -85.05 7.85 -78.05 M-59.3 -37.85 L-60.8 -34.5 Q-62.05 -31.1 -60.35 -27.95 L-59.4 -26.65 -56.6 -24.1 Q-56.05 -23.65 -55.35 -23.35 L-52.75 -22.3 Q-48.75 -21.0 -44.55 -20.9 L-34.35 -21.5 Q-31.05 -22.4 -27.9 -23.75 L-26.75 -24.2 Q-19.7 -26.7 -16.9 -24.95 -14.15 -23.3 -12.65 -19.05 -11.15 -14.85 -17.7 -16.5 -24.35 -18.2 -28.85 -20.25 L-33.45 -18.95 Q-30.0 -17.4 -26.3 -16.15 L-25.55 -15.9 Q-22.05 -14.75 -18.55 -14.25 -14.65 -13.65 -10.8 -14.15 L-9.1 -14.4 Q-6.05 -15.0 -3.25 -16.1 -2.2 -16.45 -1.5 -17.25 1.65 -21.1 2.55 -25.85 L2.85 -28.15 Q3.05 -31.55 2.2 -34.8 L1.3 -38.05 -0.85 -43.1 Q-2.2 -45.75 -4.05 -47.95 -8.35 -53.2 -14.25 -55.85 -17.05 -57.05 -19.95 -57.85 L-25.9 -58.85 -31.7 -58.25 Q-39.15 -56.05 -45.85 -51.6 -49.65 -49.15 -52.85 -46.05 -55.75 -43.2 -58.15 -39.75 L-59.3 -37.85 M-28.55 -74.9 Q-25.35 -73.05 -26.65 -68.65 -27.3 -66.55 -28.9 -65.25 -30.1 -64.35 -30.85 -65.55 -32.8 -68.8 -31.7 -72.4 -31.3 -73.85 -29.75 -74.5 L-28.55 -74.9 M-16.7 -64.55 Q-18.3 -63.9 -18.9 -65.6 -21.0 -71.3 -16.4 -74.3 -12.9 -72.5 -13.85 -67.95 -14.3 -65.45 -16.7 -64.55" fill="#000000" fill-rule="evenodd" stroke="none"/>
    <path d="M4.9 -77.9 Q7.55 -65.35 2.55 -54.0 1.55 -51.8 -0.5 -50.65 L-1.7 -49.85 -4.1 -52.6 Q-5.75 -54.25 -7.6 -55.6 L-10.6 -57.5 Q-14.2 -59.45 -18.0 -60.65 -21.75 -61.85 -25.75 -62.1 L-28.6 -62.25 -30.35 -62.0 -32.85 -61.15 Q-33.35 -69.4 -30.95 -77.4 -27.05 -90.35 -15.85 -97.2 L-15.75 -96.7 Q-15.45 -96.35 -14.95 -96.35 L-14.55 -96.45 -14.0 -97.5 Q-9.9 -102.4 -4.45 -98.05 -0.75 -95.05 1.1 -90.5 3.5 -84.35 4.9 -77.9 M-16.7 -64.55 Q-14.3 -65.45 -13.85 -67.95 -12.9 -72.5 -16.4 -74.3 -21.0 -71.3 -18.9 -65.6 -18.3 -63.9 -16.7 -64.55 M-28.55 -74.9 L-29.75 -74.5 Q-31.3 -73.85 -31.7 -72.4 -32.8 -68.8 -30.85 -65.55 -30.1 -64.35 -28.9 -65.25 -27.3 -66.55 -26.65 -68.65 -25.35 -73.05 -28.55 -74.9" fill="#ffffff" fill-rule="evenodd" stroke="none"/>
    <path d="M-59.3 -37.85 L-58.15 -39.75 Q-55.75 -43.2 -52.85 -46.05 -43.2 -54.75 -31.65 -53.8 -16.9 -55.45 -9.65 -47.8 L1.3 -38.05 2.2 -34.8 Q3.05 -31.55 2.85 -28.15 -0.8 -33.05 -10.15 -30.3 L-33.65 -27.3 Q-56.3 -24.7 -59.3 -37.85" fill="#ffb409" fill-rule="evenodd" stroke="none"/>
    <path d="M-52.85 -46.05 Q-49.65 -49.15 -45.85 -51.6 -39.15 -56.05 -31.7 -58.25 L-25.9 -58.85 -19.95 -57.85 Q-17.05 -57.05 -14.25 -55.85 -8.35 -53.2 -4.05 -47.95 -2.2 -45.75 -0.85 -43.1 L1.3 -38.05 -9.65 -47.8 Q-16.9 -55.45 -31.65 -53.8 -43.2 -54.75 -52.85 -46.05" fill="#ffcd5b" fill-rule="evenodd" stroke="none"/>
    <path d="M2.85 -28.15 L2.55 -25.85 Q1.65 -21.1 -1.5 -17.25 -2.2 -16.45 -3.25 -16.1 -6.05 -15.0 -9.1 -14.4 L-10.8 -14.15 Q-14.65 -13.65 -18.55 -14.25 -22.05 -14.75 -25.55 -15.9 L-26.3 -16.15 Q-30.0 -17.4 -33.45 -18.95 L-28.85 -20.25 Q-24.35 -18.2 -17.7 -16.5 -11.15 -14.85 -12.65 -19.05 -14.15 -23.3 -16.9 -24.95 -19.7 -26.7 -26.75 -24.2 L-27.9 -23.75 Q-31.05 -22.4 -34.35 -21.5 L-44.55 -20.9 Q-48.75 -21.0 -52.75 -22.3 L-55.35 -23.35 Q-56.05 -23.65 -56.6 -24.1 L-59.4 -26.65 -60.35 -27.95 Q-62.05 -31.1 -60.8 -34.5 L-59.3 -37.85 Q-56.3 -24.7 -33.65 -27.3 L-10.15 -30.3 Q-0.8 -33.05 2.85 -28.15" fill="#f99108" fill-rule="evenodd" stroke="none"/>
  </g>
</svg>
