<?xml version="1.0" encoding="UTF-8" standalone="no"?>
<svg xmlns:xlink="http://www.w3.org/1999/xlink" height="90.75px" width="71.0px" xmlns="http://www.w3.org/2000/svg">
  <g transform="matrix(1.0, 0.0, 0.0, 1.0, 35.5, 45.4)">
    <path d="M22.45 -42.75 L24.7 -40.3 Q30.35 -33.9 31.15 -27.9 31.9 -21.9 31.9 -13.75 31.85 -5.65 23.9 4.55 19.2 0.5 11.3 -2.8 L11.55 -4.05 Q11.85 -5.55 11.6 -7.0 11.3 -8.55 10.4 -9.65 L9.25 -10.9 8.0 -9.8 Q6.55 -8.45 6.2 -6.45 L6.0 -4.3 0.1 -4.9 0.0 -7.45 Q-0.15 -8.75 -1.0 -9.6 L-2.95 -11.25 -4.75 -10.0 -5.4 -9.2 -5.9 -8.25 Q-8.05 -15.5 -4.6 -24.85 -1.15 -34.25 11.25 -39.55 L10.95 -38.75 11.7 -38.1 12.25 -38.2 Q14.2 -40.6 16.7 -42.0 19.35 -43.5 22.45 -42.75" fill="#ffffff" fill-rule="evenodd" stroke="none"/>
    <path d="M22.45 -42.75 Q19.35 -43.5 16.7 -42.0 14.2 -40.6 12.25 -38.2 L11.7 -38.1 10.95 -38.75 11.25 -39.55 Q-1.15 -34.25 -4.6 -24.85 -8.05 -15.5 -5.9 -8.25 L-5.4 -9.2 -4.75 -10.0 -2.95 -11.25 -1.0 -9.6 Q-0.15 -8.75 0.0 -7.45 L0.1 -4.9 6.0 -4.3 6.2 -6.45 Q6.55 -8.45 8.0 -9.8 L9.25 -10.9 10.4 -9.65 Q11.3 -8.55 11.6 -7.0 11.85 -5.55 11.55 -4.05 L11.3 -2.8 Q19.2 0.5 23.9 4.55 31.85 -5.65 31.9 -13.75 31.9 -21.9 31.15 -27.9 30.35 -33.9 24.7 -40.3 L22.45 -42.75 M19.05 -45.4 Q26.45 -45.1 30.25 -38.45 37.45 -25.85 34.75 -11.35 32.85 -1.0 26.8 7.1 L26.5 7.3 26.2 7.3 25.8 7.25 26.15 7.3 27.15 8.5 Q29.6 11.4 31.1 14.95 36.1 26.7 28.8 36.9 25.95 40.85 21.4 42.8 7.3 48.8 -5.45 40.7 -6.6 40.0 -7.15 38.9 -15.9 41.4 -25.15 38.65 -38.65 33.5 -34.5 19.05 -33.7 16.3 -32.45 13.85 -30.2 9.4 -26.4 5.85 -25.1 4.7 -23.6 3.7 -16.15 -1.3 -7.65 -3.7 -10.35 -11.65 -8.4 -20.2 -4.95 -35.55 9.65 -41.7 10.3 -42.0 10.9 -42.1 L12.6 -41.95 13.1 -42.55 Q14.6 -44.05 16.7 -44.5 L17.4 -45.0 19.05 -45.4 M28.55 32.3 Q29.7 30.0 29.95 27.3 L29.95 24.7 29.25 19.55 28.6 17.1 28.25 15.9 Q26.6 11.65 23.55 8.45 20.65 5.35 16.9 3.45 13.05 1.6 9.05 0.15 6.1 -0.8 3.0 -1.1 L-2.55 -1.5 -5.8 -0.9 -6.3 -0.95 -13.2 1.55 Q-16.8 2.95 -20.1 4.9 -22.85 6.6 -25.15 8.7 L-27.05 10.6 -28.2 11.9 Q-31.15 15.5 -32.15 19.55 -33.5 24.85 -31.55 31.0 -31.3 31.75 -30.5 32.25 L-25.15 35.45 Q-22.05 36.8 -18.65 37.1 L-10.55 36.75 Q-6.75 36.0 -3.3 34.15 0.85 31.85 5.45 31.1 9.2 30.9 12.6 31.9 14.05 32.3 14.9 33.55 L15.4 34.65 15.9 37.55 14.2 38.95 Q12.95 39.95 11.25 40.1 L-1.65 36.7 -3.8 37.7 Q-1.35 38.9 1.15 40.15 4.15 41.55 7.4 42.2 11.45 42.95 15.4 41.7 L19.75 40.1 Q23.7 38.5 26.55 35.3 27.75 33.9 28.55 32.3 M3.6 34.55 L3.65 34.35 3.35 34.45 3.6 34.55" fill="#000000" fill-rule="evenodd" stroke="none"/>
    <path d="M28.6 17.1 L29.25 19.55 29.95 24.7 29.95 27.3 Q29.7 30.0 28.55 32.3 24.55 25.05 6.9 26.35 L-12.6 29.85 Q-34.5 29.9 -32.15 19.55 -31.15 15.5 -28.2 11.9 L-27.05 10.6 Q-21.35 4.7 -9.6 3.35 7.0 3.0 18.4 7.85 26.15 10.35 28.6 17.1" fill="#ffb409" fill-rule="evenodd" stroke="none"/>
    <path d="M-32.15 19.55 Q-34.5 29.9 -12.6 29.85 L6.9 26.35 Q24.55 25.05 28.55 32.3 27.75 33.9 26.55 35.3 23.7 38.5 19.75 40.1 L15.4 41.7 Q11.45 42.95 7.4 42.2 4.15 41.55 1.15 40.15 -1.35 38.9 -3.8 37.7 L-1.65 36.7 11.25 40.1 Q12.95 39.95 14.2 38.95 L15.9 37.55 15.4 34.65 14.9 33.55 Q14.05 32.3 12.6 31.9 9.2 30.9 5.45 31.1 0.85 31.85 -3.3 34.15 -6.75 36.0 -10.55 36.75 L-18.65 37.1 Q-22.05 36.8 -25.15 35.45 L-30.5 32.25 Q-31.3 31.75 -31.55 31.0 -33.5 24.85 -32.15 19.55" fill="#f99108" fill-rule="evenodd" stroke="none"/>
    <path d="M28.6 17.1 Q26.15 10.35 18.4 7.85 7.0 3.0 -9.6 3.35 -21.35 4.7 -27.05 10.6 L-25.15 8.7 Q-22.85 6.6 -20.1 4.9 -16.8 2.95 -13.2 1.55 L-6.3 -0.95 -5.8 -0.9 -2.55 -1.5 3.0 -1.1 Q6.1 -0.8 9.05 0.15 13.05 1.6 16.9 3.45 20.65 5.35 23.55 8.45 26.6 11.65 28.25 15.9 L28.6 17.1" fill="#ffcd5b" fill-rule="evenodd" stroke="none"/>
  </g>
</svg>
