<?xml version="1.0" encoding="UTF-8" standalone="no"?>
<svg xmlns:xlink="http://www.w3.org/1999/xlink" height="29.9px" width="314.45px" xmlns="http://www.w3.org/2000/svg">
  <g transform="matrix(1.0, 0.0, 0.0, 1.0, 225.95, -106.15)">
    <path d="M51.0 134.8 Q39.85 134.2 28.85 135.0 -31.3 139.35 -88.6 125.8 -93.05 124.75 -96.95 122.5 L-167.0 119.8 Q-196.9 118.75 -225.95 118.75 -217.95 111.25 -202.9 113.95 L-196.95 114.4 Q-188.75 114.15 -181.95 112.5 L-84.3 116.7 Q-54.2 109.7 -21.75 110.3 L-3.55 109.3 11.0 107.75 Q43.85 102.4 71.0 115.05 L71.0 115.0 Q79.6 113.95 86.65 118.15 L87.25 118.75 87.65 119.5 87.8 120.2 88.05 120.95 Q88.85 122.45 88.25 124.0 80.0 132.4 70.6 130.45 62.55 135.45 51.0 134.8" fill="#cccccc" fill-rule="evenodd" stroke="none"/>
  </g>
</svg>
