<?xml version="1.0" encoding="UTF-8" standalone="no"?>
<svg xmlns:xlink="http://www.w3.org/1999/xlink" height="62.75px" width="57.7px" xmlns="http://www.w3.org/2000/svg">
  <g transform="matrix(1.0, 0.0, 0.0, 1.0, 28.85, 31.4)">
    <path d="M4.95 -2.0 L19.85 5.15 Q22.0 6.2 23.8 8.0 25.5 9.75 26.9 11.8 L26.9 11.75 28.8 14.55 28.85 14.75 28.8 15.0 Q27.5 18.05 25.5 20.8 L21.4 26.1 Q19.0 28.9 15.9 31.25 L15.55 31.35 Q12.55 31.0 10.05 29.4 2.45 24.65 -4.05 18.7 -11.05 12.15 -16.85 4.65 -21.4 -1.1 -24.45 -7.8 L-26.2 -12.1 Q-27.85 -16.6 -28.65 -21.05 L-28.65 -21.1 -28.85 -22.9 -28.75 -23.25 Q-26.2 -26.85 -22.4 -29.0 -18.4 -31.45 -13.7 -31.4 -9.65 -31.4 -5.9 -29.8 L-5.85 -29.8 -4.3 -29.0 -4.1 -28.8 -4.05 -28.5 -4.15 -28.2 -11.75 -18.95 -13.35 -16.75 Q-10.35 -11.0 -8.2 -9.5 -1.9 -5.25 5.0 -2.0 L4.95 -2.0" fill="#0066cc" fill-rule="evenodd" stroke="none"/>
  </g>
</svg>
