<?xml version="1.0" encoding="UTF-8" standalone="no"?>
<svg xmlns:xlink="http://www.w3.org/1999/xlink" height="67.05px" width="60.35px" xmlns="http://www.w3.org/2000/svg">
  <g transform="matrix(1.0, 0.0, 0.0, 1.0, 97.1, 53.35)">
    <path d="M-83.2 -53.2 Q-79.25 -53.65 -75.6 -52.6 L-71.5 -50.95 -67.55 -49.1 -67.75 -48.6 -73.2 -41.9 -78.6 -35.1 Q-71.95 -29.55 -64.3 -25.45 L-59.25 -22.9 -51.85 -19.4 Q-48.2 -17.5 -44.75 -15.3 -41.8 -13.45 -39.3 -11.1 -38.4 -10.25 -37.85 -9.05 L-37.05 -7.1 -36.75 -5.45 Q-36.7 -4.4 -36.9 -3.3 -37.15 -2.05 -37.7 -0.9 -38.7 1.1 -40.05 2.95 L-45.85 10.4 -47.3 11.85 -48.9 12.85 Q-50.7 13.8 -52.7 13.7 -55.3 13.5 -57.6 12.0 -64.3 7.8 -70.15 2.55 -73.75 -0.65 -77.05 -4.15 L-83.6 -11.55 Q-88.05 -16.9 -91.55 -23.1 L-94.5 -28.75 Q-96.0 -31.8 -96.7 -34.95 -97.55 -38.8 -96.6 -42.65 L-95.7 -45.15 -94.1 -47.35 -91.35 -50.1 Q-87.7 -52.7 -83.2 -53.2 M-95.35 -42.85 L-95.15 -41.05 Q-94.35 -36.65 -92.75 -32.2 L-91.0 -27.9 Q-87.95 -21.25 -83.45 -15.55 -77.65 -8.1 -70.7 -1.6 -64.25 4.35 -56.7 9.05 -54.3 10.6 -51.4 10.95 -48.35 8.65 -46.0 5.85 L-41.9 0.6 Q-39.95 -2.1 -38.65 -5.1 L-40.5 -7.85 Q-41.9 -9.85 -43.55 -11.55 -45.3 -13.3 -47.4 -14.3 L-62.25 -21.45 Q-69.15 -24.7 -75.5 -29.0 -78.0 -30.7 -79.85 -33.15 L-82.55 -28.7 -83.55 -28.8 -83.95 -29.2 Q-82.75 -34.75 -79.15 -39.2 L-71.55 -48.45 -73.1 -49.25 Q-76.75 -50.8 -80.7 -50.8 -85.25 -50.85 -89.15 -48.5 -92.85 -46.35 -95.35 -42.85" fill="#000000" fill-rule="evenodd" stroke="none"/>
  </g>
</svg>
