<?xml version="1.0" encoding="UTF-8" standalone="no"?>
<svg xmlns:xlink="http://www.w3.org/1999/xlink" height="63.55px" width="71.2px" xmlns="http://www.w3.org/2000/svg">
  <g transform="matrix(1.0, 0.0, 0.0, 1.0, 35.6, 31.75)">
    <path d="M-7.25 -31.25 Q-6.95 -31.55 -6.5 -31.65 L-4.45 -31.75 Q-0.4 -31.35 3.25 -29.35 6.15 -27.75 8.35 -25.7 11.05 -23.3 12.55 -20.4 L12.65 -19.5 18.65 -18.65 Q22.75 -17.9 26.65 -16.4 30.85 -14.9 34.55 -12.55 L35.1 -11.75 35.55 -11.3 35.6 -11.1 35.55 -10.9 35.4 -10.65 35.2 -10.55 34.75 -10.8 33.0 -11.55 32.7 -11.65 Q32.35 -11.8 32.1 -11.9 L31.85 -12.0 Q25.9 -14.3 19.6 -15.55 L22.0 -13.3 26.7 -8.3 Q28.45 -6.35 28.8 -3.9 L28.45 -3.5 27.45 -3.5 Q24.5 -7.8 20.25 -11.0 23.55 -5.25 24.8 1.25 25.75 6.1 25.7 10.95 25.65 13.55 25.05 15.85 L24.15 18.8 Q23.35 21.0 22.0 22.8 19.1 26.75 14.8 29.05 12.5 30.35 10.0 30.8 L6.7 30.8 -0.75 31.8 Q-6.15 32.0 -11.35 30.3 -16.75 28.55 -21.45 25.2 -25.75 22.0 -28.2 17.25 -30.0 13.7 -32.35 10.45 L-34.2 7.5 -35.05 5.35 Q-35.95 1.85 -35.35 -1.6 -34.6 -5.65 -32.1 -9.05 L-30.2 -11.2 -25.05 -15.5 Q-16.55 -21.9 -6.05 -22.95 L-1.05 -22.55 -10.0 -25.8 -9.4 -26.75 -9.1 -26.85 -3.2 -25.85 -2.65 -25.75 4.85 -23.55 2.1 -26.45 Q0.55 -28.05 -1.6 -29.15 -4.45 -30.55 -7.5 -30.85 L-7.3 -31.25 -7.25 -31.25 M21.7 5.75 L21.7 5.65 Q21.35 -1.15 18.0 -7.35 L15.95 -10.6 Q14.15 -13.15 11.95 -15.3 11.0 -16.2 9.85 -16.85 L3.55 -18.6 -1.45 -19.4 -6.9 -19.65 Q-10.5 -19.6 -13.7 -18.2 -16.65 -16.85 -19.35 -15.15 L-21.85 -13.15 -24.4 -11.15 -26.35 -8.95 -28.95 -6.1 Q-30.3 -4.3 -31.1 -2.15 -31.8 -0.35 -31.75 1.6 -31.75 3.5 -31.0 5.3 L-28.85 9.15 -20.15 21.0 Q-18.7 22.55 -16.75 23.65 -9.55 27.9 -1.05 28.2 5.3 28.55 11.0 26.0 L14.5 24.15 17.4 21.9 Q20.2 19.15 20.95 15.2 L21.6 10.45 Q21.85 8.1 21.7 5.75 M4.1 23.05 Q4.4 21.55 3.95 20.25 3.45 18.8 3.2 17.25 L3.2 17.05 Q-8.75 12.15 -20.85 11.2 -9.85 17.45 1.55 22.5 2.8 23.05 4.1 23.05 M6.45 17.15 Q8.85 22.45 5.55 26.7 5.2 27.1 4.55 26.9 -6.85 22.75 -17.35 16.45 -21.0 14.25 -24.75 12.4 L-26.0 12.0 -26.2 11.75 -26.55 10.75 -26.35 9.9 -26.2 9.75 Q-23.95 8.65 -21.45 8.4 -6.7 9.7 6.15 16.95 L6.45 17.15" fill="#000000" fill-rule="evenodd" stroke="none"/>
    <path d="M21.7 5.75 Q21.85 8.1 21.6 10.45 L20.95 15.2 Q18.8 17.45 11.75 14.75 L-23.25 2.25 Q-29.8 -2.35 -26.35 -8.95 L-24.4 -11.15 -21.85 -13.15 Q-9.05 -20.7 5.2 -13.65 19.45 -6.5 21.7 5.75" fill="#ffb409" fill-rule="evenodd" stroke="none"/>
    <path d="M-7.25 -31.25 L-7.3 -31.25 -7.5 -30.85 Q-4.45 -30.55 -1.6 -29.15 0.55 -28.05 2.1 -26.45 L4.85 -23.55 -2.65 -25.75 -3.2 -25.85 Q-6.4 -27.35 -9.1 -29.3 -9.65 -29.7 -9.45 -30.4 -8.9 -31.2 -7.75 -31.25 L-7.45 -31.3 -7.25 -31.25 M22.0 -13.3 L19.6 -15.55 Q25.9 -14.3 31.85 -12.0 L32.1 -11.9 Q32.35 -11.8 32.7 -11.65 L33.0 -11.55 33.55 -11.3 33.7 -11.2 33.8 -11.0 33.9 -10.85 34.0 -10.45 33.9 -9.9 32.7 -8.45 32.4 -8.45 32.0 -8.55 Q31.55 -8.75 31.35 -9.25 26.7 -11.25 22.0 -13.3" fill="#ffffff" fill-opacity="0.2" fill-rule="evenodd" stroke="none"/>
    <path d="M4.1 23.05 Q2.8 23.05 1.55 22.5 -9.85 17.45 -20.85 11.2 -8.75 12.15 3.2 17.05 L3.2 17.25 Q3.45 18.8 3.95 20.25 4.4 21.55 4.1 23.05" fill="#ffffff" fill-rule="evenodd" stroke="none"/>
    <path d="M20.95 15.2 Q20.2 19.15 17.4 21.9 L14.5 24.15 11.0 26.0 Q5.3 28.55 -1.05 28.2 -9.55 27.9 -16.75 23.65 -18.7 22.55 -20.15 21.0 L-28.85 9.15 -31.0 5.3 Q-31.75 3.5 -31.75 1.6 -31.8 -0.35 -31.1 -2.15 -30.3 -4.3 -28.95 -6.1 L-26.35 -8.95 Q-29.8 -2.35 -23.25 2.25 L11.75 14.75 Q18.8 17.45 20.95 15.2 M6.45 17.15 L6.15 16.95 Q-6.7 9.7 -21.45 8.4 -23.95 8.65 -26.2 9.75 L-26.35 9.9 -26.55 10.75 -26.2 11.75 -26.0 12.0 -24.75 12.4 Q-21.0 14.25 -17.35 16.45 -6.85 22.75 4.55 26.9 5.2 27.1 5.55 26.7 8.85 22.45 6.45 17.15" fill="#f99108" fill-rule="evenodd" stroke="none"/>
    <path d="M-21.85 -13.15 L-19.35 -15.15 Q-16.65 -16.85 -13.7 -18.2 -10.5 -19.6 -6.9 -19.65 L-1.45 -19.4 3.55 -18.6 9.85 -16.85 Q11.0 -16.2 11.95 -15.3 14.15 -13.15 15.95 -10.6 L18.0 -7.35 Q21.35 -1.15 21.7 5.65 L21.7 5.75 Q19.45 -6.5 5.2 -13.65 -9.05 -20.7 -21.85 -13.15" fill="#ffcd5b" fill-rule="evenodd" stroke="none"/>
  </g>
</svg>
