<?xml version="1.0" encoding="UTF-8" standalone="no"?>
<svg xmlns:xlink="http://www.w3.org/1999/xlink" height="197.2px" width="258.7px" xmlns="http://www.w3.org/2000/svg">
  <g transform="matrix(1.0, 0.0, 0.0, 1.0, 279.8, 139.35)">
    <path d="M-78.15 -38.1 L-77.75 -37.9 Q-68.8 -23.9 -60.15 -9.65 -55.75 -2.35 -50.8 4.65 L-43.2 14.6 Q-42.8 15.1 -42.55 15.55 -39.85 17.6 -38.3 21.1 -35.65 24.25 -35.0 29.4 L-34.9 30.5 -34.9 30.55 -32.3 37.55 Q-28.65 39.95 -26.05 44.0 -22.5 49.45 -21.15 55.65 -20.75 57.35 -22.55 57.7 -26.15 58.45 -27.7 55.0 L-29.1 52.55 Q-33.45 46.2 -36.75 39.3 -39.35 43.55 -45.6 45.7 -52.25 48.0 -57.15 43.95 -60.85 42.7 -63.9 39.5 -66.1 37.2 -67.85 34.6 -72.65 27.45 -68.35 19.5 -64.05 11.65 -54.9 11.4 -52.4 12.3 -50.25 13.8 -53.9 9.35 -56.95 4.5 -66.15 -9.9 -74.6 -24.7 L-78.45 -31.1 Q-80.8 -34.75 -79.45 -38.05 L-79.15 -38.15 -78.7 -38.25 -78.15 -38.1 M-54.55 14.95 Q-66.85 15.8 -66.55 28.0 -66.45 32.6 -62.8 35.6 L-62.05 36.25 Q-62.8 32.65 -61.25 28.6 -58.2 20.35 -50.95 17.65 L-54.55 14.95 M-42.4 40.0 Q-36.6 35.75 -38.3 28.75 -40.4 20.05 -49.5 19.15 -59.55 25.3 -58.75 37.0 L-58.75 37.25 Q-51.95 47.0 -42.4 40.0" fill="#000000" fill-rule="evenodd" stroke="none"/>
    <path d="M-42.4 40.0 Q-51.95 47.0 -58.75 37.25 L-58.75 37.0 Q-59.55 25.3 -49.5 19.15 -40.4 20.05 -38.3 28.75 -36.6 35.75 -42.4 40.0" fill="#cccccc" fill-rule="evenodd" stroke="none"/>
    <path d="M-54.55 14.95 L-50.95 17.65 Q-58.2 20.35 -61.25 28.6 -62.8 32.65 -62.05 36.25 L-62.8 35.6 Q-66.45 32.6 -66.55 28.0 -66.85 15.8 -54.55 14.95" fill="#cc9999" fill-rule="evenodd" stroke="none"/>
    <path d="M-209.65 -122.75 Q-210.3 -128.3 -209.45 -130.55 -244.5 -140.7 -279.8 -134.65 -243.5 -144.05 -207.1 -134.7 L-206.85 -134.75 -206.85 -134.8 -206.7 -134.6 Q-146.75 -119.0 -86.55 -52.55 L-89.65 -48.2 Q-147.6 -111.4 -206.1 -129.55 -206.5 -128.2 -207.45 -126.7 L-209.65 -122.75 M-140.55 -85.45 Q-139.75 -86.65 -137.6 -92.7 L-134.55 -90.35 Q-135.45 -87.4 -138.1 -85.2 L-138.4 -84.95 Q-139.65 -84.8 -140.55 -85.45" fill="#000000" fill-rule="evenodd" stroke="none"/>
    <path d="M-277.65 -134.65 Q-242.15 -129.35 -209.65 -122.75" fill="none" stroke="#666666" stroke-linecap="round" stroke-linejoin="round" stroke-width="1.0"/>
    <path d="M-209.65 -122.75 L-140.55 -85.45 M-138.4 -84.95 L-93.4 -48.15" fill="none" stroke="#666666" stroke-linecap="round" stroke-linejoin="round" stroke-width="1.0"/>
  </g>
</svg>
