<?xml version="1.0" encoding="UTF-8" standalone="no"?>
<svg xmlns:xlink="http://www.w3.org/1999/xlink" height="77.1px" width="120.55px" xmlns="http://www.w3.org/2000/svg">
  <g transform="matrix(1.0, 0.0, 0.0, 1.0, 65.3, 38.55)">
    <path d="M-65.2 -3.15 Q-58.7 -7.65 -52.35 -12.3 L-50.8 -12.95 -50.35 -12.85 -50.35 -9.45 Q-54.6 -5.6 -59.8 -2.55 -62.5 -0.95 -65.05 -1.8 L-65.3 -2.5 -65.2 -3.15" fill="#000000" fill-rule="evenodd" stroke="none"/>
    <path d="M28.1 -38.55 Q28.25 -38.3 27.95 -38.1 L27.85 -37.95 Q21.5 -27.25 15.5 -16.15 10.15 -6.35 5.5 3.4 L8.4 5.55 Q10.8 7.3 11.95 9.75 L11.85 9.9 11.65 10.0 11.15 10.05 Q2.25 4.35 -5.95 -2.2 -16.1 -10.35 -26.9 -17.45 -29.85 -19.4 -33.0 -21.05 -35.75 -22.45 -38.7 -23.4 L-41.0 -23.55 Q-46.3 -18.15 -49.5 -11.3 -52.35 -5.2 -52.5 1.35 -43.3 6.0 -33.0 6.45 -34.15 4.15 -36.3 2.4 L-36.4 2.3 -38.55 4.35 -39.65 4.15 Q-40.35 1.75 -37.8 -0.35 -36.65 -1.35 -35.75 -2.6 -32.25 -7.2 -30.55 -12.6 L-30.4 -12.7 -30.0 -12.2 -29.9 -12.05 Q-29.85 -11.75 -29.95 -11.45 L-30.0 -11.3 Q-29.75 -10.2 -29.9 -9.1 L-29.9 -8.8 Q-31.3 -4.45 -33.8 -0.85 L-31.3 2.35 Q-23.95 12.55 -14.9 21.2 -5.7 29.95 6.2 34.05 L8.8 34.8 15.05 36.0 15.45 35.8 Q21.15 34.7 25.1 30.15 33.25 20.75 39.6 9.95 46.0 -0.8 52.7 -11.4 L55.1 -14.45 Q55.4 -14.15 55.15 -13.8 L55.05 -13.65 55.1 -13.15 55.1 -13.0 Q49.9 -1.65 43.5 9.3 37.05 20.35 28.95 30.05 24.25 35.7 17.5 38.15 L15.65 38.55 14.45 38.55 Q9.7 38.2 5.05 36.8 -4.6 33.85 -12.45 27.4 -20.9 20.45 -27.85 11.95 L-30.55 8.4 -31.0 8.7 -32.0 8.5 Q-44.5 9.4 -54.65 2.55 -55.3 2.15 -55.25 1.3 -54.95 -6.95 -51.15 -14.35 -47.5 -21.6 -41.15 -26.1 -33.85 -24.65 -27.3 -20.7 -19.25 -15.8 -11.75 -9.9 -4.25 -3.95 3.4 1.8 L3.9 0.65 6.0 -3.25 Q11.4 -14.65 18.1 -25.35 22.25 -31.95 27.0 -37.9 27.55 -38.1 27.95 -38.55 L28.1 -38.55" fill="#000000" fill-rule="evenodd" stroke="none"/>
    <path d="M55.1 -14.45 L52.7 -11.4 Q46.0 -0.8 39.6 9.95 33.25 20.75 25.1 30.15 21.15 34.7 15.45 35.8 L15.05 36.0 8.8 34.8 6.2 34.05 Q-5.7 29.95 -14.9 21.2 -23.95 12.55 -31.3 2.35 L-33.8 -0.85 Q-31.3 -4.45 -29.9 -8.8 L-29.9 -9.1 Q-29.75 -10.2 -30.0 -11.3 L-29.95 -11.45 Q-29.85 -11.75 -29.9 -12.05 L-30.0 -12.2 -30.4 -12.7 -30.55 -12.6 Q-32.25 -7.2 -35.75 -2.6 -36.65 -1.35 -37.8 -0.35 -40.35 1.75 -39.65 4.15 L-38.55 4.35 -36.4 2.3 -36.3 2.4 Q-34.15 4.15 -33.0 6.45 -43.3 6.0 -52.5 1.35 -52.35 -5.2 -49.5 -11.3 -46.3 -18.15 -41.0 -23.55 L-38.7 -23.4 Q-35.75 -22.45 -33.0 -21.05 -29.85 -19.4 -26.9 -17.45 -16.1 -10.35 -5.95 -2.2 2.25 4.35 11.15 10.05 L11.65 10.0 11.85 9.9 11.95 9.75 Q10.8 7.3 8.4 5.55 L5.5 3.4 Q10.15 -6.35 15.5 -16.15 21.5 -27.25 27.85 -37.95 L27.95 -38.1 Q28.25 -38.3 28.1 -38.55 L55.1 -14.45" fill="#0066cc" fill-rule="evenodd" stroke="none"/>
  </g>
</svg>
