<?xml version="1.0" encoding="UTF-8" standalone="no"?>
<svg xmlns:xlink="http://www.w3.org/1999/xlink" height="74.55px" width="107.6px" xmlns="http://www.w3.org/2000/svg">
  <g transform="matrix(1.0, 0.0, 0.0, 1.0, 52.5, 38.55)">
    <path d="M15.5 -16.15 Q21.5 -27.25 27.85 -37.95 L27.95 -38.1 Q28.25 -38.3 28.1 -38.55 L55.1 -14.45 52.7 -11.4 Q46.0 -0.8 39.6 9.95 33.25 20.75 25.1 30.15 21.15 34.7 15.45 35.8 L15.05 36.0 8.8 34.8 6.2 34.05 Q-5.7 29.95 -14.9 21.2 -23.95 12.55 -31.3 2.35 L-33.8 -0.85 Q-31.3 -4.45 -29.9 -8.8 L-29.9 -9.1 Q-29.75 -10.2 -30.0 -11.3 L-29.95 -11.45 Q-29.85 -11.75 -29.9 -12.05 L-30.0 -12.2 -30.4 -12.7 -30.55 -12.6 Q-32.25 -7.2 -35.75 -2.6 -36.65 -1.35 -37.8 -0.35 -40.35 1.75 -39.65 4.15 L-38.55 4.35 -36.4 2.3 -36.3 2.4 Q-34.15 4.15 -33.0 6.45 -43.3 6.0 -52.5 1.35 -52.35 -5.2 -49.5 -11.3 -46.3 -18.15 -41.0 -23.55 L-38.7 -23.4 Q-35.75 -22.45 -33.0 -21.05 -29.85 -19.4 -26.9 -17.45 -16.1 -10.35 -5.95 -2.2 2.25 4.35 11.15 10.05 L11.65 10.0 11.85 9.9 11.95 9.75 Q10.8 7.3 8.4 5.55 L5.5 3.4 Q10.15 -6.35 15.5 -16.15" fill="#0066cc" fill-rule="evenodd" stroke="none"/>
    <path d="M39.6 9.95 Q33.25 20.75 25.1 30.15 21.15 34.7 15.45 35.8 L15.05 36.0 8.8 34.8 6.2 34.05 Q-5.7 29.95 -14.9 21.2 -20.7 15.65 -25.8 9.45 L1.0 25.25 Q11.05 28.25 19.5 23.25 L52.7 -11.4 Q46.0 -0.8 39.6 9.95" fill="#000000" fill-opacity="0.2509804" fill-rule="evenodd" stroke="none"/>
  </g>
</svg>
