<?xml version="1.0" encoding="UTF-8" standalone="no"?>
<svg xmlns:xlink="http://www.w3.org/1999/xlink" height="64.55px" width="125.15px" xmlns="http://www.w3.org/2000/svg">
  <g transform="matrix(1.0, 0.0, 0.0, 1.0, 70.7, 37.25)">
    <path d="M27.7 -37.25 L54.45 -12.35 53.95 -11.9 46.85 -2.9 31.15 12.9 24.3 18.7 Q21.15 21.25 17.35 23.1 13.65 24.85 9.7 25.85 L5.3 26.95 -2.25 27.3 -12.75 24.8 -17.8 22.8 Q-20.45 21.65 -22.95 20.3 L-28.15 17.4 Q-33.25 14.35 -38.05 11.0 L-41.45 8.5 -47.7 3.7 -45.05 2.2 -44.3 1.55 -44.0 1.15 Q-44.25 0.0 -45.2 -1.1 L-47.35 -3.45 -50.15 -5.3 Q-47.35 -9.35 -45.6 -14.2 L-44.65 -17.55 -44.7 -17.7 -44.95 -18.9 -45.2 -19.05 -45.25 -19.05 -45.5 -18.65 -49.0 -11.0 -54.55 -2.35 -55.55 0.05 -55.4 0.25 -55.1 0.15 -51.6 -3.4 -51.05 -4.05 -46.6 0.35 Q-48.95 1.55 -51.55 1.85 L-53.4 2.05 -55.75 1.75 -60.35 0.5 -66.7 -2.7 -70.7 -5.65 -69.55 -12.1 -66.8 -21.15 -64.8 -25.5 -64.45 -25.95 -61.85 -28.35 Q-56.6 -27.15 -51.65 -25.25 L-36.85 -19.6 -23.7 -12.3 Q-20.05 -10.1 -16.65 -7.7 L-7.9 -1.8 Q-1.8 2.15 4.95 5.2 L5.2 5.2 5.35 4.9 1.95 1.7 -1.15 -0.45 -0.7 -0.85 21.95 -29.1 Q23.4 -30.75 27.7 -37.25" fill="#0066cc" fill-rule="evenodd" stroke="none"/>
    <path d="M46.85 -2.9 L31.15 12.9 24.3 18.7 Q21.15 21.25 17.35 23.1 13.65 24.85 9.7 25.85 L5.3 26.95 -2.25 27.3 -12.75 24.8 -17.8 22.8 Q-20.45 21.65 -22.95 20.3 L-28.15 17.4 Q-33.25 14.35 -38.05 11.0 L-13.0 16.75 Q3.15 21.1 17.5 14.75 L53.95 -11.9 46.85 -2.9" fill="#000000" fill-opacity="0.2509804" fill-rule="evenodd" stroke="none"/>
  </g>
</svg>
