<?xml version="1.0" encoding="UTF-8" standalone="no"?>
<svg xmlns:xlink="http://www.w3.org/1999/xlink" height="57.95px" width="138.8px" xmlns="http://www.w3.org/2000/svg">
  <g transform="matrix(1.0, 0.0, 0.0, 1.0, 83.95, 35.25)">
    <path d="M24.7 -32.5 Q27.1 -33.8 26.25 -35.25 L54.85 -10.7 49.05 -5.8 Q41.1 1.2 31.9 6.7 22.8 12.1 12.9 15.9 2.1 20.0 -9.25 21.95 L-17.8 22.7 Q-22.65 22.75 -34.05 20.4 -43.3 18.5 -50.85 15.1 L-54.45 13.35 Q-63.4 8.6 -63.9 8.1 -62.35 4.3 -61.85 0.15 L-62.25 -1.1 -62.45 -1.05 Q-62.7 -0.75 -62.6 -0.3 -64.8 6.55 -69.05 12.45 L-69.1 12.6 Q-69.25 13.2 -68.85 13.65 -68.0 14.4 -67.0 13.85 L-65.9 12.1 -65.6 12.3 Q-63.65 13.65 -62.05 15.4 L-62.9 15.6 Q-65.4 15.65 -66.2 16.7 -75.0 17.45 -83.55 15.3 L-83.8 14.55 Q-84.75 2.65 -80.15 -8.2 -79.45 -8.8 -78.3 -8.85 -68.45 -9.25 -58.65 -7.3 -47.15 -5.1 -35.95 -1.7 -26.25 1.25 -16.5 3.8 L-15.2 3.35 -15.1 3.25 -15.15 3.15 -15.65 2.85 -18.1 1.7 -18.1 1.65 Q-15.15 -0.4 -12.5 -3.0 -3.9 -11.3 5.2 -19.05 14.25 -26.85 24.7 -32.5" fill="#0066cc" fill-rule="evenodd" stroke="none"/>
    <path d="M53.0 -12.3 L54.85 -10.7 49.05 -5.8 Q41.1 1.2 31.9 6.7 22.8 12.1 12.9 15.9 2.1 20.0 -9.25 21.95 L-17.8 22.7 Q-22.65 22.75 -34.05 20.4 -43.3 18.5 -50.85 15.1 L-26.95 17.75 Q-4.8 16.7 14.55 7.25 L53.0 -12.3" fill="#000000" fill-opacity="0.2509804" fill-rule="evenodd" stroke="none"/>
  </g>
</svg>
