<?xml version="1.0" encoding="UTF-8" standalone="no"?>
<svg xmlns:xlink="http://www.w3.org/1999/xlink" height="66.05px" width="122.25px" xmlns="http://www.w3.org/2000/svg">
  <g transform="matrix(1.0, 0.0, 0.0, 1.0, 68.0, 35.1)">
    <path d="M19.35 -25.45 Q23.1 -30.15 25.45 -35.1 L54.25 -11.15 53.85 -10.85 52.95 -9.6 29.55 15.8 22.9 21.7 Q13.65 30.05 1.4 30.95 L-4.45 30.45 Q-16.35 29.05 -28.0 26.05 L-36.3 23.4 Q-41.25 21.45 -45.7 18.75 L-47.25 17.6 Q-43.55 11.7 -43.0 4.8 L-44.05 6.8 Q-47.5 13.3 -50.0 16.15 -52.45 18.95 -52.05 22.1 L-51.05 22.3 -50.65 21.95 -48.7 19.6 Q-46.65 21.5 -44.85 23.7 L-45.15 23.9 -45.6 24.05 Q-54.7 25.65 -64.1 23.85 -68.3 23.05 -67.95 19.3 -67.0 9.05 -63.6 -0.55 -60.65 -3.4 -55.9 -3.15 L-43.4 -1.75 Q-41.35 -1.05 -38.9 -0.8 L-37.45 -0.6 -37.35 -0.65 -37.35 -0.6 Q-24.8 0.8 -12.6 4.1 L-2.45 6.95 Q2.7 8.5 7.45 9.1 6.05 7.8 3.85 6.95 L-1.2 5.05 -0.8 4.0 5.55 -6.1 Q11.9 -16.1 19.35 -25.45" fill="#0066cc" fill-rule="evenodd" stroke="none"/>
    <path d="M53.85 -10.85 L52.95 -9.6 29.55 15.8 22.9 21.7 Q13.65 30.05 1.4 30.95 L-4.45 30.45 Q-16.35 29.05 -28.0 26.05 L-36.3 23.4 -9.95 22.25 Q7.45 21.9 19.05 13.75 L53.85 -10.85" fill="#000000" fill-opacity="0.2509804" fill-rule="evenodd" stroke="none"/>
  </g>
</svg>
