<?xml version="1.0" encoding="UTF-8" standalone="no"?>
<svg xmlns:xlink="http://www.w3.org/1999/xlink" height="67.5px" width="128.35px" xmlns="http://www.w3.org/2000/svg">
  <g transform="matrix(1.0, 0.0, 0.0, 1.0, 73.8, 37.25)">
    <path d="M27.7 -37.25 Q23.4 -30.75 21.95 -29.1 L20.05 -26.85 18.15 -24.6 16.3 -22.25 14.5 -19.95 12.7 -17.55 10.9 -15.25 8.05 -11.55 5.2 -7.85 -0.7 -0.85 -1.15 -0.45 0.85 0.85 1.95 1.7 5.35 4.9 5.2 5.2 4.95 5.2 Q-1.8 2.15 -7.9 -1.8 L-16.65 -7.7 Q-20.05 -10.1 -23.7 -12.3 L-26.1 -13.8 -28.55 -15.2 -31.05 -16.65 -33.9 -18.15 -36.85 -19.6 -39.8 -20.85 -42.85 -22.1 -47.25 -23.7 -51.65 -25.25 Q-56.6 -27.15 -61.85 -28.35 L-64.45 -25.95 -64.8 -25.5 -66.8 -21.15 -68.35 -16.75 -69.55 -12.1 -70.7 -5.65 -68.7 -4.1 -66.7 -2.7 -64.6 -1.5 -62.55 -0.4 -60.35 0.5 -58.1 1.2 -55.75 1.75 -53.4 2.05 -51.55 1.85 Q-48.95 1.55 -46.6 0.35 L-51.05 -4.05 -51.6 -3.4 -52.7 -2.15 -55.1 0.15 -55.4 0.25 -55.55 0.05 -54.55 -2.35 -53.1 -4.7 -51.0 -7.8 -49.0 -11.0 -48.2 -12.7 -45.7 -18.15 -45.5 -18.65 -45.25 -19.05 -45.2 -19.05 -44.95 -18.9 -44.7 -17.7 -44.65 -17.55 -45.05 -15.85 -45.6 -14.2 Q-47.35 -9.35 -50.15 -5.3 L-48.25 -4.1 -47.35 -3.45 -46.65 -2.7 -45.2 -1.1 Q-44.25 0.0 -44.0 1.15 L-44.3 1.55 -45.05 2.2 -45.9 2.75 -47.7 3.7 -45.55 5.3 -41.45 8.5 Q-35.05 13.25 -28.15 17.4 L-22.95 20.3 Q-20.45 21.65 -17.8 22.8 L-12.75 24.8 -7.55 26.2 -2.25 27.3 1.95 27.15 5.3 26.95 9.7 25.85 Q13.65 24.85 17.35 23.1 21.15 21.25 24.3 18.7 L31.15 12.9 33.4 10.8 35.65 8.7 37.85 6.55 40.05 4.4 42.15 2.2 44.3 -0.05 46.85 -2.9 49.25 -5.85 53.95 -11.9 54.45 -12.35 54.55 -11.5 54.45 -10.7 54.1 -9.85 51.9 -6.45 Q46.85 0.85 40.7 7.2 L36.5 11.4 32.1 15.35 27.6 19.1 22.85 22.65 18.45 25.4 14.6 27.4 10.6 28.8 6.55 29.8 0.4 30.25 Q-5.55 30.25 -11.1 28.85 -16.75 27.55 -21.9 24.6 L-25.45 22.6 -28.2 20.9 -30.35 19.55 -32.55 18.1 -34.7 16.65 -36.9 15.1 -39.0 13.6 -41.05 11.95 -43.15 10.35 Q-46.7 7.7 -49.8 4.3 L-53.3 4.5 -54.75 4.25 -58.2 4.2 -61.6 3.3 -64.9 2.1 Q-67.35 0.95 -69.45 -0.7 L-72.9 -4.1 Q-73.8 -5.1 -73.8 -6.4 L-73.7 -7.4 -72.75 -11.75 -71.45 -16.1 -69.85 -20.25 -67.9 -24.4 -66.9 -25.95 -65.85 -27.5 -65.05 -28.65 -64.4 -29.3 -62.35 -30.65 -56.55 -29.25 -50.9 -27.65 -42.45 -24.8 Q-38.3 -23.35 -34.15 -21.5 -30.2 -19.65 -26.3 -17.3 L-23.75 -15.75 -21.25 -14.1 -18.85 -12.45 -16.7 -10.95 -14.6 -9.45 -12.45 -7.95 -10.35 -6.55 -8.15 -5.05 -6.05 -3.65 -3.65 -2.1 -2.55 -3.2 Q0.15 -5.7 1.9 -7.7 L4.85 -11.4 7.5 -14.8 10.25 -18.25 13.05 -21.7 16.0 -25.15 22.25 -31.75 27.7 -37.25 M-50.6 -4.7 L-51.05 -4.05 -50.6 -4.7" fill="#000000" fill-rule="evenodd" stroke="none"/>
    <path d="M-51.05 -4.05 L-46.6 0.35 Q-48.95 1.55 -51.55 1.85 L-53.4 2.05 -55.75 1.75 -58.1 1.2 -60.35 0.5 -62.55 -0.4 -64.6 -1.5 -66.7 -2.7 -68.7 -4.1 -70.7 -5.65 -69.55 -12.1 -68.35 -16.75 -66.8 -21.15 -64.8 -25.5 -64.45 -25.95 -61.85 -28.35 Q-56.6 -27.15 -51.65 -25.25 L-47.25 -23.7 -42.85 -22.1 -39.8 -20.85 -36.85 -19.6 -33.9 -18.15 -31.05 -16.65 -28.55 -15.2 -26.1 -13.8 -23.7 -12.3 Q-20.05 -10.1 -16.65 -7.7 L-7.9 -1.8 Q-1.8 2.15 4.95 5.2 L5.2 5.2 5.35 4.9 1.95 1.7 0.85 0.85 -1.15 -0.45 -0.7 -0.85 5.2 -7.85 8.05 -11.55 10.9 -15.25 12.7 -17.55 14.5 -19.95 16.3 -22.25 18.15 -24.6 20.05 -26.85 21.95 -29.1 Q23.4 -30.75 27.7 -37.25 L54.45 -12.35 53.95 -11.9 49.25 -5.85 46.85 -2.9 44.3 -0.05 42.15 2.2 40.05 4.4 37.85 6.55 35.65 8.7 33.4 10.8 31.15 12.9 24.3 18.7 Q21.15 21.25 17.35 23.1 13.65 24.85 9.7 25.85 L5.3 26.95 1.95 27.15 -2.25 27.3 -7.55 26.2 -12.75 24.8 -17.8 22.8 Q-20.45 21.65 -22.95 20.3 L-28.15 17.4 Q-35.05 13.25 -41.45 8.5 L-45.55 5.3 -47.7 3.7 -45.9 2.75 -45.05 2.2 -44.3 1.55 -44.0 1.15 Q-44.25 0.0 -45.2 -1.1 L-46.65 -2.7 -47.35 -3.45 -48.25 -4.1 -50.15 -5.3 Q-47.35 -9.35 -45.6 -14.2 L-45.05 -15.85 -44.65 -17.55 -44.7 -17.7 -44.95 -18.9 -45.2 -19.05 -45.25 -19.05 -45.5 -18.65 -45.7 -18.15 -48.2 -12.7 -49.0 -11.0 -51.0 -7.8 -53.1 -4.7 -54.55 -2.35 -55.55 0.05 -55.4 0.25 -55.1 0.15 -52.7 -2.15 -51.6 -3.4 -51.05 -4.05" fill="#0066cc" fill-rule="evenodd" stroke="none"/>
  </g>
</svg>
