<?xml version="1.0" encoding="UTF-8" standalone="no"?>
<svg xmlns:xlink="http://www.w3.org/1999/xlink" height="61.15px" width="142.05px" xmlns="http://www.w3.org/2000/svg">
  <g transform="matrix(1.0, 0.0, 0.0, 1.0, 87.2, 35.25)">
    <path d="M26.25 -35.25 Q27.1 -33.8 24.7 -32.5 14.25 -26.85 5.2 -19.05 -3.9 -11.3 -12.5 -3.0 -15.15 -0.4 -18.1 1.65 -15.15 -0.4 -12.5 -3.0 -3.9 -11.3 5.2 -19.05 14.25 -26.85 24.7 -32.5 27.1 -33.8 26.25 -35.25 L54.85 -10.7 Q49.95 -1.85 40.7 3.65 L37.6 5.65 Q27.85 12.5 16.9 17.2 5.9 21.95 -5.8 24.6 -15.1 26.7 -24.45 25.4 -36.3 23.75 -47.45 19.5 -53.85 17.05 -59.65 13.55 -58.25 15.2 -57.45 17.35 -57.3 17.8 -57.75 17.95 L-61.95 18.9 Q-62.45 19.2 -63.25 19.3 L-75.25 20.2 Q-81.25 20.25 -85.9 16.9 -87.25 15.95 -87.2 14.3 -87.1 9.4 -86.65 4.6 -86.15 -0.05 -84.2 -4.3 -84.25 -5.8 -83.6 -7.4 -81.85 -11.7 -77.1 -11.95 -65.25 -11.1 -53.5 -8.7 -41.85 -6.25 -30.4 -2.9 -24.8 -1.3 -19.6 1.0 -13.2 -6.0 -5.85 -12.35 3.3 -20.3 12.85 -27.7 18.3 -31.95 24.65 -34.6 L26.25 -35.25 M54.85 -10.7 L49.05 -5.8 Q41.1 1.2 31.9 6.7 22.8 12.1 12.9 15.9 2.1 20.0 -9.25 21.95 L-17.8 22.7 Q-22.65 22.75 -34.05 20.4 -45.55 18.05 -54.45 13.35 -63.4 8.6 -63.9 8.1 -62.35 4.3 -61.85 0.15 L-61.9 0.0 -62.25 -1.1 -62.45 -1.05 Q-62.7 -0.75 -62.6 -0.3 -64.8 6.55 -69.05 12.45 L-69.1 12.6 Q-69.25 13.2 -68.85 13.65 -68.0 14.4 -67.0 13.85 L-65.9 12.1 -65.6 12.3 Q-63.65 13.65 -62.05 15.4 L-62.9 15.6 Q-65.4 15.65 -66.2 16.7 -75.0 17.45 -83.55 15.3 L-83.8 14.55 Q-84.75 2.65 -80.15 -8.2 -79.45 -8.8 -78.3 -8.85 -68.45 -9.25 -58.65 -7.3 -47.15 -5.1 -35.95 -1.7 -26.25 1.25 -16.5 3.8 L-15.2 3.35 -15.1 3.25 -15.15 3.15 -15.65 2.85 -15.75 2.8 -18.1 1.7 -15.75 2.8 -15.65 2.85 -15.15 3.15 -15.1 3.25 -15.2 3.35 -16.5 3.8 Q-26.25 1.25 -35.95 -1.7 -47.15 -5.1 -58.65 -7.3 -68.45 -9.25 -78.3 -8.85 -79.45 -8.8 -80.15 -8.2 -84.75 2.65 -83.8 14.55 L-83.55 15.3 Q-75.0 17.45 -66.2 16.7 -65.4 15.65 -62.9 15.6 L-62.05 15.4 Q-63.65 13.65 -65.6 12.3 L-65.9 12.1 -67.0 13.85 Q-68.0 14.4 -68.85 13.65 -69.25 13.2 -69.1 12.6 L-69.05 12.45 Q-64.8 6.55 -62.6 -0.3 -62.7 -0.75 -62.45 -1.05 L-62.25 -1.1 -61.9 0.0 -61.85 0.15 Q-62.35 4.3 -63.9 8.1 -63.4 8.6 -54.45 13.35 -45.55 18.05 -34.05 20.4 -22.65 22.75 -17.8 22.7 L-9.25 21.95 Q2.1 20.0 12.9 15.9 22.8 12.1 31.9 6.7 41.1 1.2 49.05 -5.8 L54.85 -10.7 M-18.1 1.65 L-19.6 1.0 -18.1 1.65" fill="#000000" fill-rule="evenodd" stroke="none"/>
  </g>
</svg>
