<?xml version="1.0" encoding="UTF-8" standalone="no"?>
<svg xmlns:xlink="http://www.w3.org/1999/xlink" height="68.9px" width="125.9px" xmlns="http://www.w3.org/2000/svg">
  <g transform="matrix(1.0, 0.0, 0.0, 1.0, 71.6, 35.1)">
    <path d="M-62.15 -3.7 L-61.6 -3.05 -61.5 -2.6 Q-64.25 4.4 -68.05 11.0 L-66.4 11.25 -67.75 11.25 -67.75 13.65 -71.05 12.4 Q-71.6 12.2 -71.6 11.6 -71.6 11.15 -71.25 10.9 -69.5 5.25 -65.9 0.05 L-63.45 -3.65 -63.15 -3.75 -62.75 -3.85 -62.15 -3.7" fill="#000000" fill-rule="evenodd" stroke="none"/>
    <path d="M-64.3 -3.05 L-64.05 -3.5 -63.45 -3.75 -63.0 -3.6 -63.25 -3.7 Q-59.75 -5.65 -55.65 -5.8 -48.95 -5.6 -42.6 -3.9 L-42.05 -3.9 Q-30.2 -2.9 -18.55 -0.1 -11.1 1.7 -3.9 4.1 1.6 -5.75 8.4 -14.85 15.85 -24.9 24.2 -34.15 24.75 -34.75 25.45 -35.1 23.1 -30.15 19.35 -25.45 11.9 -16.1 5.55 -6.1 L-0.8 4.0 -1.2 5.05 3.85 6.95 Q6.05 7.8 7.45 9.1 2.7 8.5 -2.45 6.95 L-12.6 4.1 Q-24.8 0.8 -37.35 -0.6 -24.8 0.8 -12.6 4.1 L-2.45 6.95 Q2.7 8.5 7.45 9.1 6.05 7.8 3.85 6.95 L-1.2 5.05 -0.8 4.0 5.55 -6.1 Q11.9 -16.1 19.35 -25.45 23.1 -30.15 25.45 -35.1 L54.25 -11.15 Q54.5 -8.8 52.65 -6.25 49.4 -1.65 45.75 2.6 38.1 11.55 29.6 19.9 L25.75 23.4 23.6 25.05 Q19.1 28.55 13.85 31.25 11.55 32.65 9.5 33.1 L-3.15 33.8 -7.15 33.25 -21.2 30.3 Q-29.65 28.25 -37.9 25.6 L-40.1 24.8 Q-40.1 25.6 -41.55 25.9 L-45.15 26.55 Q-46.7 27.5 -49.05 27.55 L-51.35 27.65 Q-61.75 28.7 -70.1 23.4 -70.6 23.1 -70.65 22.45 -71.45 13.55 -68.2 5.05 L-66.05 0.15 Q-66.05 -1.7 -64.3 -3.05 L-64.4 -2.85 -64.55 -2.6 -64.4 -2.85 -64.3 -3.05 M-37.3 -0.7 L-37.35 -0.65 -37.45 -0.6 -37.8 -0.65 -38.9 -0.8 Q-41.35 -1.05 -43.4 -1.75 L-55.9 -3.15 Q-60.65 -3.4 -63.6 -0.55 -67.0 9.05 -67.95 19.3 -68.3 23.05 -64.1 23.85 -54.7 25.65 -45.6 24.05 L-45.15 23.9 -44.85 23.7 Q-46.65 21.5 -48.7 19.6 L-50.65 21.95 -51.05 22.3 -52.05 22.1 Q-52.45 18.95 -50.0 16.15 -47.5 13.3 -44.05 6.8 L-43.0 4.8 Q-43.55 11.7 -47.25 17.6 L-45.7 18.75 Q-37.6 23.65 -28.0 26.05 -16.35 29.05 -4.45 30.45 L-3.15 30.6 1.4 30.95 Q13.65 30.05 22.9 21.7 L29.55 15.8 47.5 -3.35 50.1 -6.45 52.95 -9.6 Q53.4 -10.65 54.25 -11.15 53.4 -10.65 52.95 -9.6 L50.1 -6.45 47.5 -3.35 29.55 15.8 22.9 21.7 Q13.65 30.05 1.4 30.95 L-3.15 30.6 -4.45 30.45 Q-16.35 29.05 -28.0 26.05 -37.6 23.65 -45.7 18.75 L-47.25 17.6 Q-43.55 11.7 -43.0 4.8 L-44.05 6.8 Q-47.5 13.3 -50.0 16.15 -52.45 18.95 -52.05 22.1 L-51.05 22.3 -50.65 21.95 -48.7 19.6 Q-46.65 21.5 -44.85 23.7 L-45.15 23.9 -45.6 24.05 Q-54.7 25.65 -64.1 23.85 -68.3 23.05 -67.95 19.3 -67.0 9.05 -63.6 -0.55 -60.65 -3.4 -55.9 -3.15 L-43.4 -1.75 Q-41.35 -1.05 -38.9 -0.8 L-37.8 -0.65 -37.45 -0.6 -37.35 -0.65 -37.3 -0.7" fill="#000000" fill-rule="evenodd" stroke="none"/>
  </g>
</svg>
