<?xml version="1.0" encoding="UTF-8" standalone="no"?>
<svg xmlns:xlink="http://www.w3.org/1999/xlink" height="91.7px" width="193.25px" xmlns="http://www.w3.org/2000/svg">
  <g transform="matrix(1.0, 0.0, 0.0, 1.0, 279.8, 139.35)">
    <path d="M-209.65 -122.75 Q-210.3 -128.3 -209.45 -130.55 -244.5 -140.7 -279.8 -134.65 -243.5 -144.05 -207.1 -134.7 L-206.85 -134.75 -206.85 -134.8 -206.7 -134.6 Q-146.75 -119.0 -86.55 -52.55 L-89.65 -48.2 Q-112.05 -72.65 -134.55 -90.35 -135.45 -87.4 -138.1 -85.2 L-138.4 -84.95 Q-139.65 -84.8 -140.55 -85.45 -139.75 -86.65 -137.6 -92.7 L-137.0 -92.25 Q-171.45 -118.8 -206.1 -129.55 -206.5 -128.2 -207.45 -126.7 L-209.65 -122.75" fill="#000000" fill-rule="evenodd" stroke="none"/>
    <path d="M-138.4 -84.95 L-93.4 -48.15 M-209.65 -122.75 L-140.55 -85.45 M-277.65 -134.65 Q-242.15 -129.35 -209.65 -122.75" fill="none" stroke="#666666" stroke-linecap="round" stroke-linejoin="round" stroke-width="1.0"/>
  </g>
</svg>
