<?xml version="1.0" encoding="UTF-8" standalone="no"?>
<svg xmlns:xlink="http://www.w3.org/1999/xlink" height="357.0px" width="471.15px" xmlns="http://www.w3.org/2000/svg">
  <g transform="matrix(1.0, 0.0, 0.0, 1.0, 235.55, 163.8)">
    <path d="M-168.0 2.9 L-167.8 1.7 -174.6 7.5 -177.15 9.05 -177.55 9.05 -167.35 -0.4 -163.55 -16.45 -164.25 -15.95 -174.6 -7.35 Q-184.45 1.2 -193.95 10.15 L-201.15 17.0 Q-194.75 14.15 -188.4 14.45 L-188.15 14.75 Q-187.8 15.2 -187.7 15.8 L-187.7 16.15 -200.9 36.45 -196.55 40.55 Q-194.25 42.95 -192.15 45.65 -191.65 46.25 -191.5 46.95 L-190.75 47.65 Q-188.7 45.95 -186.15 45.5 -184.45 46.4 -186.1 47.6 L-186.35 47.85 Q-186.7 50.1 -187.55 51.8 -185.9 54.55 -184.95 57.9 -183.0 64.85 -181.65 71.8 -180.15 65.1 -178.15 58.5 L-177.55 57.15 Q-174.1 39.8 -169.95 23.15 L-169.9 23.1 Q-171.4 40.5 -173.9 57.9 L-173.9 58.2 -174.75 59.75 Q-179.6 83.25 -179.3 107.6 -179.25 110.05 -180.25 111.95 L-154.15 114.95 Q-147.45 116.05 -141.15 117.9 L-140.75 118.0 Q-139.0 118.5 -138.3 120.05 -137.45 121.75 -137.2 123.4 L-135.95 128.6 -134.7 133.75 -134.65 133.85 Q-134.4 134.35 -134.4 134.9 -136.55 138.05 -139.25 140.55 L-127.8 138.9 -104.35 134.75 -89.2 131.65 -87.45 127.8 Q-85.7 124.55 -84.7 120.75 L-79.3 119.1 -74.55 118.15 Q-62.4 115.85 -50.05 114.85 L-45.8 114.5 Q-32.95 114.25 -20.15 114.65 L2.95 115.8 3.65 116.0 3.95 116.35 Q4.4 116.8 4.55 117.4 L4.65 117.75 4.65 119.75 4.9 120.15 Q5.5 122.0 5.75 123.9 L5.9 126.05 16.3 123.85 25.2 123.15 25.75 123.15 25.95 123.05 48.1 114.7 36.9 115.7 Q24.65 117.1 12.0 115.85 -5.7 114.1 -22.75 109.3 -26.05 108.4 -28.85 106.9 L-31.85 106.2 Q-34.7 105.15 -37.3 102.8 L-37.35 102.2 -37.3 101.0 -35.95 99.75 -35.5 99.55 -34.25 99.3 -34.25 99.25 Q-29.9 101.05 -25.55 102.8 -8.85 107.75 8.8 109.2 L37.2 110.85 40.1 110.5 49.35 110.3 50.2 101.55 50.75 95.7 40.9 97.6 Q31.4 98.65 21.45 96.85 L-1.1 92.65 Q-17.15 89.55 -32.35 83.95 L-35.6 82.7 Q-38.9 81.4 -41.75 79.45 L-45.05 76.8 Q-49.2 72.95 -44.0 70.95 L-39.9 73.3 Q-29.85 78.9 -18.85 82.55 -9.7 85.6 0.15 87.3 15.45 89.95 30.9 90.9 L51.65 91.5 Q54.65 71.55 70.4 63.3 78.3 59.1 86.2 55.15 L119.6 75.7 120.2 76.05 120.2 75.8 120.45 74.15 Q123.35 61.65 125.55 48.9 128.75 30.6 137.0 14.65 L136.7 12.95 Q134.7 -12.85 130.95 -38.4 130.7 -39.9 130.7 -41.35 L122.9 -36.0 Q115.85 -26.95 109.35 -16.85 L90.65 12.0 Q87.1 17.4 81.2 20.15 72.4 24.25 63.5 20.55 L61.5 19.6 Q52.85 15.2 48.7 7.4 47.1 4.35 46.15 0.8 45.2 -2.65 45.7 -6.0 45.25 -7.2 45.2 -8.4 L45.35 -9.75 45.45 -10.2 45.8 -10.6 46.6 -10.8 47.3 -10.65 Q48.0 -7.75 49.05 -5.05 51.65 1.75 56.4 7.1 L59.0 9.75 63.7 13.55 Q66.9 15.75 70.9 15.6 L71.0 15.6 Q83.95 14.8 90.1 2.45 L90.15 2.3 Q95.85 -9.4 102.55 -20.6 L109.35 -31.5 Q110.85 -33.75 112.6 -35.6 113.3 -37.7 115.9 -39.5 L130.6 -49.15 Q142.0 -56.15 141.3 -68.8 L140.85 -72.6 Q139.85 -78.0 136.95 -82.35 L135.05 -84.85 128.45 -79.25 127.7 -78.7 Q127.4 -75.9 125.95 -72.9 123.9 -67.35 117.95 -63.2 99.65 -50.4 82.25 -36.85 L80.95 -35.7 Q76.85 -31.6 78.4 -25.8 78.8 -24.4 77.35 -24.15 72.2 -23.1 69.05 -28.4 67.9 -30.35 67.25 -32.4 L66.2 -33.5 65.45 -34.9 Q56.45 -57.15 61.2 -80.2 62.05 -84.45 63.35 -88.65 L72.2 -117.35 76.95 -134.15 77.2 -136.9 77.15 -139.3 76.85 -141.0 Q76.0 -145.05 74.1 -148.7 L73.6 -149.6 Q72.25 -152.05 70.5 -154.25 57.9 -159.55 47.1 -155.55 L43.8 -154.1 43.65 -154.05 Q40.4 -152.35 37.35 -149.8 35.95 -148.6 35.1 -146.8 L32.2 -141.1 46.9 -143.8 Q42.15 -140.95 37.2 -138.55 L32.0 -136.25 Q22.8 -132.45 12.9 -130.35 L-37.0 -119.55 Q-53.75 -114.8 -69.7 -107.9 -83.75 -101.9 -96.3 -93.0 -109.0 -83.95 -119.7 -72.65 -131.2 -60.45 -140.8 -46.55 L-145.85 -38.7 -151.7 -28.5 Q-157.45 -15.6 -162.55 -2.45 -165.35 4.7 -167.5 12.15 L-168.0 2.9 M-230.5 25.3 L-232.85 24.4 -235.15 24.3 -235.4 24.05 -235.55 23.7 -235.55 23.05 -235.4 22.65 Q-233.9 21.65 -232.05 21.2 L-232.05 21.15 -229.85 21.7 Q-215.35 25.3 -204.4 33.6 -202.1 27.95 -197.45 23.0 L-195.6 20.7 -196.4 20.8 Q-199.5 21.2 -202.8 22.95 -204.5 23.8 -206.25 25.0 -207.85 25.35 -209.05 24.2 -209.25 14.45 -200.75 7.3 L-174.6 -13.95 Q-161.6 -22.2 -154.3 -35.55 L-152.6 -38.7 Q-147.45 -48.2 -140.8 -56.9 -131.05 -68.95 -119.95 -79.8 -107.5 -92.0 -93.1 -101.7 -79.25 -111.15 -63.65 -117.0 -54.25 -120.6 -44.5 -123.2 L11.05 -135.55 25.7 -139.3 27.6 -146.8 Q28.35 -148.75 29.4 -150.45 34.85 -159.75 47.35 -162.4 53.5 -163.7 59.6 -163.8 80.6 -161.9 84.15 -142.0 L84.2 -141.9 84.3 -141.2 Q85.75 -141.8 87.4 -141.85 L87.55 -141.8 87.6 -141.9 88.3 -142.55 88.35 -142.55 Q100.85 -150.35 111.6 -153.45 122.3 -156.6 129.3 -157.45 136.25 -158.3 145.8 -157.25 L166.35 -155.5 Q161.4 -146.2 159.15 -139.45 159.35 -125.5 155.5 -116.45 151.65 -107.4 145.7 -99.6 139.75 -91.8 138.55 -89.45 L137.1 -86.9 141.25 -83.25 Q147.45 -76.5 146.95 -66.05 L146.45 -61.6 Q145.75 -57.55 143.95 -54.15 141.4 -49.35 136.65 -45.75 L136.0 -45.25 Q138.6 -41.35 138.8 -35.7 139.0 -29.15 140.15 -22.7 143.1 -6.05 142.9 10.4 154.5 7.4 165.65 3.3 L168.05 3.4 179.85 17.25 186.45 24.3 Q186.4 30.15 186.75 35.95 L187.25 42.85 Q190.15 64.8 202.45 83.55 L214.45 86.85 Q214.85 86.75 214.85 86.65 L214.3 85.45 214.25 84.85 Q225.4 82.7 235.5 86.45 L220.4 88.05 220.8 88.6 220.9 89.2 220.8 89.8 220.55 90.1 219.6 90.6 Q210.85 89.6 204.05 85.95 204.45 86.75 203.85 87.2 L205.05 89.95 Q205.7 91.3 204.9 92.4 204.65 93.2 203.8 92.95 202.9 92.7 202.15 92.2 L201.0 89.3 Q200.45 88.15 200.35 86.85 198.95 85.85 198.05 84.6 L197.15 83.15 197.1 82.75 Q190.5 71.8 186.65 59.7 183.6 50.05 181.9 42.85 L181.15 26.85 165.55 10.05 Q160.3 21.6 157.15 31.15 153.15 43.05 150.55 55.5 147.15 71.65 146.3 88.0 L154.9 89.9 159.55 90.45 Q163.4 91.45 180.8 97.2 188.0 99.55 189.35 99.35 L190.25 99.6 216.6 98.25 235.25 99.45 235.55 99.6 235.6 99.95 235.45 100.25 234.7 100.9 202.15 102.4 Q213.4 104.65 224.95 105.45 L226.3 107.2 226.45 107.5 Q218.5 109.5 210.55 109.1 201.4 108.65 192.25 105.05 L175.55 98.9 Q167.5 96.25 159.1 94.95 L154.55 94.3 Q147.7 94.6 140.7 92.4 L139.7 92.05 136.95 91.0 Q121.05 84.3 106.45 75.45 97.2 70.55 89.5 63.65 L87.15 61.45 Q74.15 76.9 73.15 96.95 L72.9 105.75 76.3 105.1 77.2 105.4 78.1 106.1 Q92.0 105.8 105.4 108.45 L90.85 110.45 Q92.25 111.1 93.45 112.05 95.05 113.35 96.45 114.95 90.2 112.65 83.6 111.45 L81.5 111.1 76.2 110.6 27.8 127.0 27.65 127.15 25.05 127.85 Q11.6 131.45 -1.55 132.15 -2.55 134.1 -4.05 135.8 -6.3 138.25 -9.7 140.2 L-19.6 145.85 Q-12.0 149.6 -3.0 150.25 L-2.15 150.1 0.6 149.9 Q8.7 149.4 14.65 154.25 L14.8 154.4 -2.9 152.95 Q-9.75 162.5 -21.1 163.8 -21.65 163.45 -21.55 162.8 L-21.45 162.1 Q-13.7 156.45 -5.25 151.4 L-5.1 151.15 Q-15.6 150.1 -25.2 146.4 L-25.6 145.95 Q-21.7 141.2 -15.35 137.45 L-4.25 130.25 -3.7 128.55 -3.15 128.2 -2.4 124.45 -1.7 120.75 Q-33.8 118.4 -65.95 122.35 L-74.55 122.95 -81.55 122.8 Q-81.1 127.1 -83.25 130.9 L-84.55 133.3 -85.9 135.75 -96.7 138.85 Q-121.1 145.3 -146.65 146.75 L-163.15 148.45 Q-172.65 149.8 -181.15 148.1 L-183.0 147.7 -191.35 148.0 -194.05 147.55 -196.1 149.0 Q-206.3 155.45 -215.4 162.3 -208.3 152.95 -197.75 147.3 L-207.75 147.0 -208.85 145.75 -209.15 145.25 Q-198.3 145.6 -187.85 143.35 L-185.5 142.8 -183.55 142.05 Q-164.55 134.25 -147.85 122.5 -170.45 120.15 -193.2 115.4 L-193.6 115.3 Q-199.7 114.0 -205.2 111.7 L-205.5 111.6 Q-208.5 110.3 -211.35 108.75 -217.0 105.6 -222.0 101.35 -225.1 100.5 -224.15 96.95 -223.9 95.85 -223.25 94.5 L-217.95 84.15 -217.8 83.85 Q-212.9 74.45 -207.6 65.2 L-196.75 47.3 Q-211.05 32.75 -230.5 25.3 M157.45 -146.7 L159.9 -150.5 156.25 -150.9 154.2 -151.35 Q148.3 -152.55 142.2 -152.95 137.2 -153.3 132.05 -153.1 114.0 -152.35 98.4 -142.75 L94.55 -140.05 94.45 -139.95 Q97.25 -138.65 99.3 -136.55 102.4 -133.35 103.85 -128.3 105.5 -122.6 101.85 -118.5 L100.65 -117.35 Q99.4 -116.25 97.8 -115.7 89.0 -112.7 81.6 -116.65 L79.85 -112.65 77.2 -106.5 Q75.4 -102.1 74.05 -97.65 73.0 -94.35 72.2 -91.05 68.45 -76.45 68.4 -61.05 68.35 -53.2 70.3 -45.75 71.45 -41.15 73.35 -36.7 84.3 -51.9 102.8 -59.3 111.8 -64.8 118.1 -72.65 L117.55 -72.4 Q116.65 -71.95 116.5 -73.05 115.55 -78.65 121.15 -82.4 L125.4 -85.4 125.65 -86.0 126.0 -86.2 126.15 -85.95 Q145.95 -101.15 154.0 -124.45 L156.1 -131.25 153.15 -126.15 152.7 -125.8 Q151.4 -125.5 150.3 -126.3 L150.1 -129.1 Q150.15 -134.55 153.45 -140.15 L157.45 -146.7 M89.2 -132.45 Q94.2 -132.2 92.9 -127.85 92.65 -127.05 91.85 -126.7 88.35 -125.25 87.25 -128.9 86.3 -131.8 89.2 -132.45 M84.7 -129.8 L83.15 -121.3 Q91.2 -115.25 97.9 -121.75 100.95 -128.55 95.1 -133.85 92.85 -135.95 90.4 -136.45 84.45 -138.3 84.7 -134.2 84.9 -130.1 84.7 -129.8 M78.9 -96.55 Q85.3 -82.15 99.6 -76.55 L99.65 -76.35 Q99.5 -75.5 98.75 -75.1 86.15 -77.1 79.8 -87.85 78.55 -89.9 77.6 -92.25 77.65 -94.4 78.45 -96.3 L78.9 -96.55 M80.5 -80.65 Q85.45 -75.2 92.4 -71.8 L92.45 -71.6 Q92.1 -70.65 91.2 -70.55 80.25 -72.75 75.4 -82.75 75.5 -84.35 76.0 -85.8 L76.35 -86.1 Q77.7 -83.95 79.35 -82.0 L80.5 -80.65 M160.15 9.95 L160.6 9.15 159.95 9.45 Q155.65 11.55 151.15 13.25 147.7 14.55 142.65 17.35 L140.65 18.45 138.2 26.2 136.5 32.45 135.25 37.45 133.65 44.95 132.15 53.7 131.8 56.0 Q130.75 62.4 129.35 68.65 L126.8 78.9 126.6 79.5 134.0 83.25 Q137.15 84.8 140.3 86.0 141.05 73.85 143.15 62.05 144.85 52.25 147.5 42.65 148.8 37.85 150.35 33.15 L150.6 32.3 Q154.45 20.65 160.15 9.95 M70.45 80.0 Q73.65 71.6 79.1 64.35 L64.5 72.0 Q61.2 77.75 59.0 83.85 L56.95 90.6 Q55.45 96.8 55.0 103.35 L54.25 112.15 67.6 106.8 Q66.1 97.55 67.9 88.65 L67.95 88.65 70.2 80.65 70.45 80.0 M-144.0 124.0 Q-158.9 138.45 -178.7 144.45 L-149.15 141.8 Q-145.1 137.35 -140.45 133.5 -142.4 127.1 -143.25 125.65 L-144.0 124.0 M-202.3 67.9 Q-207.9 78.2 -213.1 88.75 L-217.9 98.65 Q-210.85 102.7 -203.35 105.7 -202.55 98.45 -197.65 91.6 L-194.05 86.45 -190.4 81.1 -186.2 74.6 -186.2 74.55 -186.25 74.4 Q-190.35 63.65 -193.55 52.4 L-196.15 56.85 -202.3 67.85 -202.3 67.9 M-183.75 82.75 L-183.5 81.2 -184.45 82.65 Q-190.55 91.65 -195.45 101.2 L-198.5 107.45 Q-192.05 109.65 -185.25 111.0 -186.05 108.3 -185.95 105.3 -185.55 93.9 -183.75 82.75" fill="#000000" fill-rule="evenodd" stroke="none"/>
    <path d="M-188.15 14.75 L-188.4 14.45 Q-194.75 14.15 -201.15 17.0 L-193.95 10.15 Q-184.45 1.2 -174.6 -7.35 L-164.25 -15.95 -163.55 -16.45 -167.35 -0.4 -177.55 9.05 -177.15 9.05 -174.6 7.5 -167.8 1.7 -168.0 2.9 -174.6 8.0 -188.15 14.75 M-151.7 -28.5 L-145.85 -38.7 -140.8 -46.55 Q-131.2 -60.45 -119.7 -72.65 -109.0 -83.95 -96.3 -93.0 -83.75 -101.9 -69.7 -107.9 -53.75 -114.8 -37.0 -119.55 L12.9 -130.35 Q22.8 -132.45 32.0 -136.25 L37.2 -138.55 Q42.15 -140.95 46.9 -143.8 L32.2 -141.1 35.1 -146.8 Q35.95 -148.6 37.35 -149.8 40.4 -152.35 43.65 -154.05 L43.8 -154.1 47.1 -155.55 Q57.9 -159.55 70.5 -154.25 72.25 -152.05 73.6 -149.6 L74.1 -148.7 Q76.0 -145.05 76.85 -141.0 L77.15 -139.3 77.2 -136.9 Q65.25 -158.8 39.9 -109.8 39.0 -118.8 33.8 -125.25 30.85 -128.9 26.55 -131.7 L25.8 -132.15 Q-2.7 -113.7 -34.45 -100.05 L-42.4 -96.5 Q-42.5 -95.15 -56.25 -90.55 -86.35 -80.6 -98.95 -64.35 -106.6 -57.35 -113.8 -49.7 -124.8 -38.2 -139.45 -31.15 -141.7 -29.6 -144.4 -30.3 L-146.6 -31.05 -151.7 -28.5" fill="#cd6354" fill-rule="evenodd" stroke="none"/>
    <path d="M-168.0 2.9 L-167.5 12.15 Q-165.35 4.7 -162.55 -2.45 -157.45 -15.6 -151.7 -28.5 L-146.6 -31.05 -144.4 -30.3 Q-141.7 -29.6 -139.45 -31.15 -124.8 -38.2 -113.8 -49.7 -106.6 -57.35 -98.95 -64.35 -86.35 -80.6 -56.25 -90.55 -42.5 -95.15 -42.4 -96.5 L-34.45 -100.05 Q-2.7 -113.7 25.8 -132.15 L26.55 -131.7 Q30.85 -128.9 33.8 -125.25 33.4 -76.75 45.35 -9.75 L45.2 -8.4 Q45.25 -7.2 45.7 -6.0 45.2 -2.65 46.15 0.8 47.1 4.35 48.7 7.4 L55.15 36.15 Q55.1 55.45 23.15 64.15 L-44.0 70.95 Q-49.2 72.95 -45.05 76.8 L-43.0 81.05 -43.05 81.2 -43.35 82.7 Q-43.05 85.75 -40.1 87.05 -42.75 96.9 -34.25 99.3 L-35.5 99.55 -35.95 99.75 Q-66.4 112.75 -95.95 114.05 -120.4 115.1 -143.9 108.2 -142.85 113.25 -141.15 117.9 -147.45 116.05 -154.15 114.95 L-180.25 111.95 Q-179.25 110.05 -179.3 107.6 -179.6 83.25 -174.75 59.75 L-173.9 58.2 -173.9 57.9 Q-171.4 40.5 -169.9 23.1 L-169.95 23.15 Q-174.1 39.8 -177.55 57.15 L-178.15 58.5 Q-180.15 65.1 -181.65 71.8 -183.0 64.85 -184.95 57.9 -185.9 54.55 -187.55 51.8 -186.7 50.1 -186.35 47.85 L-186.1 47.6 Q-184.45 46.4 -186.15 45.5 -188.7 45.95 -190.75 47.65 L-191.5 46.95 Q-191.65 46.25 -192.15 45.65 -194.25 42.95 -196.55 40.55 L-200.9 36.45 -187.7 16.15 -187.7 15.8 Q-187.8 15.2 -188.15 14.75 L-174.6 8.0 -168.0 2.9 M-54.15 -15.75 L-54.15 -15.85 -54.35 -15.85 -54.15 -15.75" fill="#b64838" fill-rule="evenodd" stroke="none"/>
    <path d="M-54.15 -15.75 L-54.35 -15.85 -54.15 -15.85 -54.15 -15.75" fill="#df9380" fill-rule="evenodd" stroke="none"/>
    <path d="M99.3 -136.55 Q97.25 -138.65 94.45 -139.95 L94.55 -140.05 98.4 -142.75 Q114.0 -152.35 132.05 -153.1 137.2 -153.3 142.2 -152.95 148.3 -152.55 154.2 -151.35 L156.25 -150.9 159.9 -150.5 157.45 -146.7 Q141.6 -150.0 125.7 -148.4 106.3 -145.15 99.3 -136.55" fill="#ffd75f" fill-rule="evenodd" stroke="none"/>
    <path d="M84.7 -129.8 Q84.9 -130.1 84.7 -134.2 84.45 -138.3 90.4 -136.45 92.85 -135.95 95.1 -133.85 100.95 -128.55 97.9 -121.75 91.2 -115.25 83.15 -121.3 L84.7 -129.8 M89.2 -132.45 Q86.3 -131.8 87.25 -128.9 88.35 -125.25 91.85 -126.7 92.65 -127.05 92.9 -127.85 94.2 -132.2 89.2 -132.45 M138.2 26.2 L138.35 25.8 146.95 23.75 Q150.75 29.55 138.35 32.05 L136.5 32.45 138.2 26.2 M135.25 37.45 L150.35 33.15 Q148.8 37.85 147.5 42.65 L140.25 44.35 133.65 44.95 135.25 37.45 M59.0 83.85 Q63.45 81.5 68.5 79.75 L70.45 80.0 70.2 80.65 67.95 88.65 67.9 88.65 Q62.5 90.15 56.95 90.6 L59.0 83.85 M-194.05 86.45 Q-199.3 80.6 -201.6 71.2 L-202.3 67.9 -202.3 67.85 -196.15 56.85 Q-194.15 69.2 -190.4 81.1 L-194.05 86.45" fill="#ffffff" fill-rule="evenodd" stroke="none"/>
    <path d="M79.85 -112.65 L81.6 -116.65 Q89.0 -112.7 97.8 -115.7 99.4 -116.25 100.65 -117.35 L101.85 -118.5 105.35 -117.85 105.6 -117.5 105.1 -116.2 104.45 -115.15 104.1 -114.9 Q91.15 -108.45 79.85 -112.65" fill="#ff9933" fill-rule="evenodd" stroke="none"/>
    <path d="M157.45 -146.7 L153.45 -140.15 Q150.15 -134.55 150.1 -129.1 148.5 -118.1 139.7 -108.85 130.5 -100.2 112.2 -93.35 94.6 -85.55 78.9 -96.55 L78.45 -96.3 Q77.65 -94.4 77.6 -92.25 78.55 -89.9 79.8 -87.85 L80.5 -80.65 79.35 -82.0 Q77.7 -83.95 76.35 -86.1 L76.0 -85.8 Q75.5 -84.35 75.4 -82.75 L72.2 -91.05 Q73.0 -94.35 74.05 -97.65 75.4 -102.1 77.2 -106.5 L79.85 -112.65 Q91.15 -108.45 104.1 -114.9 L104.45 -115.15 105.1 -116.2 105.6 -117.5 105.35 -117.85 101.85 -118.5 Q105.5 -122.6 103.85 -128.3 102.4 -133.35 99.3 -136.55 106.3 -145.15 125.7 -148.4 141.6 -150.0 157.45 -146.7" fill="#ffcc33" fill-rule="evenodd" stroke="none"/>
    <path d="M150.1 -129.1 L150.3 -126.3 Q151.4 -125.5 152.7 -125.8 L153.15 -126.15 156.1 -131.25 154.0 -124.45 Q145.95 -101.15 126.15 -85.95 L126.0 -86.2 125.65 -86.0 125.4 -85.4 121.15 -82.4 Q115.55 -78.65 116.5 -73.05 116.65 -71.95 117.55 -72.4 L118.1 -72.65 Q111.8 -64.8 102.8 -59.3 84.3 -51.9 73.35 -36.7 71.45 -41.15 70.3 -45.75 68.35 -53.2 68.4 -61.05 68.45 -76.45 72.2 -91.05 L75.4 -82.75 Q80.25 -72.75 91.2 -70.55 92.1 -70.65 92.45 -71.6 L92.4 -71.8 Q85.45 -75.2 80.5 -80.65 L79.8 -87.85 Q86.15 -77.1 98.75 -75.1 99.5 -75.5 99.65 -76.35 L99.6 -76.55 Q85.3 -82.15 78.9 -96.55 94.6 -85.55 112.2 -93.35 130.5 -100.2 139.7 -108.85 148.5 -118.1 150.1 -129.1" fill="#ecb20a" fill-rule="evenodd" stroke="none"/>
    <path d="M77.2 -136.9 L76.95 -134.15 72.2 -117.35 63.35 -88.65 Q62.05 -84.45 61.2 -80.2 56.45 -57.15 65.45 -34.9 L66.2 -33.5 67.25 -32.4 Q67.9 -30.35 69.05 -28.4 72.2 -23.1 77.35 -24.15 78.8 -24.4 78.4 -25.8 76.85 -31.6 80.95 -35.7 L82.25 -36.85 Q99.65 -50.4 117.95 -63.2 123.9 -67.35 125.95 -72.9 127.4 -75.9 127.7 -78.7 L128.45 -79.25 135.05 -84.85 136.95 -82.35 Q139.85 -78.0 140.85 -72.6 L141.3 -68.8 Q142.0 -56.15 130.6 -49.15 L115.9 -39.5 Q113.3 -37.7 112.6 -35.6 110.85 -33.75 109.35 -31.5 L102.55 -20.6 Q95.85 -9.4 90.15 2.3 L90.1 2.45 Q83.95 14.8 71.0 15.6 L70.9 15.6 Q66.9 15.75 63.7 13.55 L59.0 9.75 56.4 7.1 Q51.65 1.75 49.05 -5.05 48.0 -7.75 47.3 -10.65 L46.6 -10.8 45.8 -10.6 45.45 -10.2 45.35 -9.75 Q33.4 -76.75 33.8 -125.25 39.0 -118.8 39.9 -109.8 65.25 -158.8 77.2 -136.9" fill="#a84233" fill-rule="evenodd" stroke="none"/>
    <path d="M48.7 7.4 Q52.85 15.2 61.5 19.6 L63.5 20.55 Q72.4 24.25 81.2 20.15 87.1 17.4 90.65 12.0 L109.35 -16.85 Q115.85 -26.95 122.9 -36.0 L130.7 -41.35 Q130.7 -39.9 130.95 -38.4 134.7 -12.85 136.7 12.95 L137.0 14.65 Q128.75 30.6 125.55 48.9 123.35 61.65 120.45 74.15 L120.2 75.8 119.6 75.7 86.2 55.15 Q78.3 59.1 70.4 63.3 54.65 71.55 51.65 91.5 L30.9 90.9 Q15.45 89.95 0.15 87.3 -9.7 85.6 -18.85 82.55 -29.85 78.9 -39.9 73.3 L-44.0 70.95 23.15 64.15 Q55.1 55.45 55.15 36.15 L48.7 7.4 M50.2 101.55 L49.35 110.3 40.1 110.5 37.2 110.85 8.8 109.2 Q-8.85 107.75 -25.55 102.8 -29.9 101.05 -34.25 99.25 L-34.25 99.3 Q-42.75 96.9 -40.1 87.05 L-40.0 87.1 Q4.05 106.05 50.2 101.55 M-35.95 99.75 L-37.3 101.0 -37.35 102.2 -37.3 102.8 Q-34.7 105.15 -31.85 106.2 -32.4 106.95 -32.6 107.9 -32.8 110.65 -30.3 111.5 L-20.15 114.65 Q-32.95 114.25 -45.8 114.5 L-50.05 114.85 Q-62.4 115.85 -74.55 118.15 L-79.3 119.1 -84.7 120.75 Q-85.7 124.55 -87.45 127.8 L-89.2 131.65 -104.35 134.75 -127.8 138.9 Q-132.5 134.15 -135.95 128.6 L-137.2 123.4 Q-137.45 121.75 -138.3 120.05 -139.0 118.5 -140.75 118.0 L-141.15 117.9 Q-142.85 113.25 -143.9 108.2 -120.4 115.1 -95.95 114.05 -66.4 112.75 -35.95 99.75" fill="#912c25" fill-rule="evenodd" stroke="none"/>
    <path d="M-230.5 25.3 Q-211.05 32.75 -196.75 47.3 L-207.6 65.2 Q-212.9 74.45 -217.8 83.85 L-202.85 47.4 Q-214.5 34.15 -230.5 25.3 M-193.6 115.3 L-193.2 115.4 Q-170.45 120.15 -147.85 122.5 -164.55 134.25 -183.55 142.05 -170.1 134.95 -161.85 125.2 L-193.6 115.3 M-84.55 133.3 L-83.25 130.9 Q-81.1 127.1 -81.55 122.8 L-74.55 122.95 -65.95 122.35 Q-33.8 118.4 -1.7 120.75 L-2.4 124.45 -76.85 126.95 -84.55 133.3 M-4.05 135.8 Q-2.55 134.1 -1.55 132.15 11.6 131.45 25.05 127.85 L27.65 127.15 27.8 127.0 76.2 110.6 81.5 111.1 83.6 111.45 23.9 133.95 -4.05 135.8 M78.1 106.1 L77.2 105.4 76.3 105.1 72.9 105.75 73.15 96.95 Q74.15 76.9 87.15 61.45 L89.5 63.65 Q97.2 70.55 106.45 75.45 121.05 84.3 136.95 91.0 L139.7 92.05 Q124.0 93.15 109.15 86.15 95.95 79.65 88.15 71.15 79.8 88.65 78.1 106.1 M198.05 84.6 Q186.65 79.3 180.2 67.15 175.1 50.4 176.2 30.15 L167.2 20.15 Q151.15 55.05 154.9 89.9 L146.3 88.0 Q147.15 71.65 150.55 55.5 153.15 43.05 157.15 31.15 160.3 21.6 165.55 10.05 L181.15 26.85 181.9 42.85 Q183.6 50.05 186.65 59.7 190.5 71.8 197.1 82.75 L197.15 83.15 198.05 84.6" fill="#e1e9e9" fill-rule="evenodd" stroke="none"/>
    <path d="M235.5 86.45 L235.25 99.45 216.6 98.25 190.25 99.6 189.35 99.35 Q188.0 99.55 180.8 97.2 163.4 91.45 159.55 90.45 L154.9 89.9 Q151.15 55.05 167.2 20.15 L176.2 30.15 Q175.1 50.4 180.2 67.15 186.65 79.3 198.05 84.6 198.95 85.85 200.35 86.85 200.45 88.15 201.0 89.3 L202.15 92.2 Q202.9 92.7 203.8 92.95 204.65 93.2 204.9 92.4 205.7 91.3 205.05 89.95 L203.85 87.2 Q204.45 86.75 204.05 85.95 210.85 89.6 219.6 90.6 L220.55 90.1 220.8 89.8 220.9 89.2 220.8 88.6 220.4 88.05 235.5 86.45 M210.55 109.1 L92.15 139.2 -0.85 193.2 -228.9 175.2 -230.5 25.3 Q-214.5 34.15 -202.85 47.4 L-217.8 83.85 -217.95 84.15 -223.25 94.5 Q-223.9 95.85 -224.15 96.95 -225.1 100.5 -222.0 101.35 -217.0 105.6 -211.35 108.75 -208.5 110.3 -205.5 111.6 L-205.2 111.7 Q-199.7 114.0 -193.6 115.3 L-161.85 125.2 Q-170.1 134.95 -183.55 142.05 L-185.5 142.8 -187.85 143.35 Q-198.3 145.6 -209.15 145.25 L-208.85 145.75 -207.75 147.0 -197.75 147.3 Q-208.3 152.95 -215.4 162.3 -206.3 155.45 -196.1 149.0 L-194.05 147.55 -191.35 148.0 -183.0 147.7 -181.15 148.1 Q-172.65 149.8 -163.15 148.45 L-146.65 146.75 Q-121.1 145.3 -96.7 138.85 L-85.9 135.75 -84.55 133.3 -76.85 126.95 -2.4 124.45 -3.15 128.2 -3.7 128.55 -4.25 130.25 -15.35 137.45 Q-21.7 141.2 -25.6 145.95 L-25.2 146.4 Q-15.6 150.1 -5.1 151.15 L-5.25 151.4 Q-13.7 156.45 -21.45 162.1 L-21.55 162.8 Q-21.65 163.45 -21.1 163.8 -9.75 162.5 -2.9 152.95 L14.8 154.4 14.65 154.25 Q8.7 149.4 0.6 149.9 L-2.15 150.1 -3.0 150.25 Q-12.0 149.6 -19.6 145.85 L-9.7 140.2 Q-6.3 138.25 -4.05 135.8 L23.9 133.95 83.6 111.45 Q90.2 112.65 96.45 114.95 95.05 113.35 93.45 112.05 92.25 111.1 90.85 110.45 L105.4 108.45 Q92.0 105.8 78.1 106.1 79.8 88.65 88.15 71.15 95.95 79.65 109.15 86.15 124.0 93.15 139.7 92.05 L140.7 92.4 Q147.7 94.6 154.55 94.3 L159.1 94.95 Q167.5 96.25 175.55 98.9 L192.25 105.05 Q201.4 108.65 210.55 109.1" fill="#f5fefd" fill-rule="evenodd" stroke="none"/>
    <path d="M159.95 9.45 L160.15 9.95 Q154.45 20.65 150.6 32.3 L150.35 33.15 135.25 37.45 136.5 32.45 138.35 32.05 Q150.75 29.55 146.95 23.75 L138.35 25.8 138.2 26.2 140.65 18.45 142.65 17.35 Q147.7 14.55 151.15 13.25 155.65 11.55 159.95 9.45 M133.65 44.95 L140.25 44.35 147.5 42.65 Q144.85 52.25 143.15 62.05 141.05 73.85 140.3 86.0 137.15 84.8 134.0 83.25 L126.6 79.5 126.8 78.9 129.35 68.65 Q130.75 62.4 131.8 56.0 L132.15 53.7 133.65 44.95 M59.0 83.85 Q61.2 77.75 64.5 72.0 L79.1 64.35 Q73.65 71.6 70.45 80.0 L68.5 79.75 Q63.45 81.5 59.0 83.85 M67.9 88.65 Q66.1 97.55 67.6 106.8 L54.25 112.15 55.0 103.35 Q55.45 96.8 56.95 90.6 62.5 90.15 67.9 88.65 M-144.0 124.0 L-143.25 125.65 Q-142.4 127.1 -140.45 133.5 -145.1 137.35 -149.15 141.8 L-178.7 144.45 Q-158.9 138.45 -144.0 124.0 M-194.05 86.45 L-197.65 91.6 Q-202.55 98.45 -203.35 105.7 -210.85 102.7 -217.9 98.65 L-213.1 88.75 Q-207.9 78.2 -202.3 67.9 L-201.6 71.2 Q-199.3 80.6 -194.05 86.45 M-196.15 56.85 L-193.55 52.4 Q-190.35 63.65 -186.25 74.4 L-186.2 74.55 -186.2 74.6 -190.4 81.1 Q-194.15 69.2 -196.15 56.85" fill="#ccffff" fill-rule="evenodd" stroke="none"/>
    <path d="M-41.75 79.45 Q-38.9 81.4 -35.6 82.7 L-32.35 83.95 Q-17.15 89.55 -1.1 92.65 L21.45 96.85 Q31.4 98.65 40.9 97.6 L50.75 95.7 50.2 101.55 Q4.05 106.05 -40.0 87.1 L-40.1 87.05 -43.0 81.05 Q-42.75 80.0 -41.75 79.45 M-31.85 106.2 L-28.85 106.9 Q-26.05 108.4 -22.75 109.3 -5.7 114.1 12.0 115.85 24.65 117.1 36.9 115.7 L48.1 114.7 25.95 123.05 25.2 123.15 16.3 123.85 5.9 126.05 5.75 123.9 Q5.5 122.0 4.9 120.15 L4.65 119.75 4.65 117.75 4.55 117.4 Q4.4 116.8 3.95 116.35 L3.65 116.0 2.95 115.8 -20.15 114.65 -30.3 111.5 Q-32.8 110.65 -32.6 107.9 -32.4 106.95 -31.85 106.2" fill="#7f1a18" fill-rule="evenodd" stroke="none"/>
    <path d="M-45.05 76.8 L-41.75 79.45 Q-42.75 80.0 -43.0 81.05 L-45.05 76.8 M-127.8 138.9 L-139.25 140.55 Q-136.55 138.05 -134.4 134.9 -134.4 134.35 -134.65 133.85 L-134.7 133.75 -135.95 128.6 Q-132.5 134.15 -127.8 138.9 M-184.45 82.65 L-183.75 82.75 Q-185.55 93.9 -185.95 105.3 -186.05 108.3 -185.25 111.0 -192.05 109.65 -198.5 107.45 L-195.45 101.2 Q-190.55 91.65 -184.45 82.65" fill="#d67154" fill-rule="evenodd" stroke="none"/>
    <path d="M-40.1 87.05 Q-43.05 85.75 -43.35 82.7 L-43.05 81.2 -43.0 81.05 -40.1 87.05" fill="#c63f3d" fill-rule="evenodd" stroke="none"/>
    <path d="M235.5 86.45 L235.25 99.45" fill="none" stroke="#30c30c" stroke-linecap="round" stroke-linejoin="round" stroke-width="0.25"/>
  </g>
</svg>
