<?xml version="1.0" encoding="UTF-8" standalone="no"?>
<svg xmlns:xlink="http://www.w3.org/1999/xlink" height="174.35px" width="178.4px" xmlns="http://www.w3.org/2000/svg">
  <g transform="matrix(1.0, 0.0, 0.0, 1.0, 0.0, 0.0)">
    <path d="M153.45 141.6 Q152.4 142.45 151.5 141.35 148.65 137.95 150.9 133.6 156.6 122.65 165.6 113.85 166.8 112.65 167.65 111.1 176.1 95.1 165.35 81.55 162.65 78.15 159.0 75.75 157.0 74.4 154.8 73.7 150.7 74.25 146.95 75.9 L145.35 81.75 Q146.85 83.55 147.1 86.15 L147.8 86.35 148.0 86.5 147.2 86.6 147.15 86.6 147.0 89.15 Q144.15 108.15 136.5 126.0 130.95 138.85 128.15 152.35 127.95 153.35 126.85 153.25 122.05 152.7 123.25 147.5 L123.55 146.2 123.45 146.6 Q116.15 147.55 108.95 145.45 L108.3 145.25 107.0 145.0 Q87.9 140.15 74.8 124.9 62.15 110.25 54.3 92.5 50.7 84.5 46.7 76.7 44.9 73.15 42.55 70.25 L42.45 70.1 42.3 69.95 Q40.45 67.7 38.25 65.85 33.9 62.15 28.2 60.0 25.85 59.1 23.2 59.55 17.75 60.5 13.05 63.9 1.95 72.0 6.95 85.1 10.5 94.3 17.05 101.5 L18.7 102.8 Q22.75 94.55 27.4 87.25 28.75 87.7 28.1 88.9 L28.0 89.15 28.15 89.85 Q23.75 104.8 16.3 118.45 L12.45 125.0 Q10.4 128.4 7.15 129.3 L5.5 129.6 Q3.9 129.7 4.0 128.2 4.3 124.6 6.9 121.55 12.35 115.15 16.25 107.75 L14.45 106.7 Q11.3 104.35 11.4 102.35 L9.0 100.25 Q-3.35 86.6 1.25 69.2 2.35 65.05 5.55 62.15 13.7 54.75 24.15 52.9 36.75 53.4 44.95 63.65 55.5 76.85 62.35 92.4 L63.5 94.9 64.4 89.5 Q65.15 85.0 67.4 81.4 64.4 78.7 63.0 74.3 L63.1 73.75 Q61.85 70.95 62.95 66.65 64.4 60.85 70.2 58.45 72.65 57.45 75.15 57.15 75.5 49.4 79.65 42.05 83.85 34.55 89.3 27.9 102.3 12.05 120.55 2.1 L123.95 0.3 124.7 0.0 Q128.85 1.8 127.5 7.5 126.65 10.95 127.55 14.4 L127.6 14.6 127.65 14.6 127.65 14.55 Q138.85 17.95 143.1 29.3 149.9 47.6 148.25 67.1 L147.9 70.4 Q150.1 69.65 152.95 69.6 L153.85 69.5 155.5 69.65 Q166.85 71.9 173.6 81.9 180.45 92.1 177.5 104.2 173.8 119.4 161.9 130.0 160.05 131.7 159.1 133.95 157.1 138.65 153.45 141.6 M88.5 67.15 L84.25 75.7 Q75.85 81.8 67.4 81.4 L70.75 83.65 67.15 101.9 69.9 106.4 Q73.05 111.25 76.8 115.7 80.35 119.95 84.45 123.85 96.25 135.05 111.4 139.9 L117.45 140.55 122.85 140.65 125.1 140.2 Q129.05 125.25 135.0 111.0 139.45 100.3 140.55 89.15 L139.4 88.7 138.95 88.25 Q140.85 82.3 141.85 76.2 143.25 66.9 142.5 57.2 141.75 47.55 139.4 38.15 136.9 28.0 129.8 20.85 L130.75 24.9 131.05 25.6 Q130.25 28.6 131.0 31.55 L130.85 32.1 Q129.25 34.25 127.6 32.1 123.25 22.2 123.25 12.8 122.8 9.65 123.05 6.5 98.6 18.25 85.7 41.95 81.65 49.45 78.4 57.15 82.05 57.6 84.4 59.2 88.2 61.7 88.5 67.15 M90.7 100.75 L88.1 99.5 88.3 98.75 88.8 98.35 Q102.1 102.35 115.15 98.15 116.35 98.4 116.2 99.55 L116.15 99.8 Q103.25 106.1 90.7 100.75 M84.0 64.85 Q81.3 61.7 77.15 60.7 L76.7 60.6 75.55 60.45 75.15 60.2 75.15 59.95 75.05 59.9 Q65.3 62.45 66.6 72.05 L66.7 72.3 Q75.95 76.9 83.35 70.65 86.6 67.9 84.0 64.85 M141.6 76.75 L141.8 76.2 141.7 76.85 141.6 76.75 M77.85 65.0 Q75.1 70.65 71.75 65.75 71.05 64.75 71.65 63.55 72.45 62.1 74.0 62.0 76.6 62.35 77.75 64.75 L77.85 65.0 M95.6 106.95 L95.5 106.7 95.6 105.95 96.25 105.25 96.6 105.05 Q104.45 105.45 111.85 103.35 112.75 103.4 113.0 104.25 L113.1 104.5 Q108.85 108.65 101.85 108.8 98.8 108.85 96.15 107.65 L95.75 107.45 95.6 106.95" fill="#000000" fill-rule="evenodd" stroke="none"/>
    <path d="M84.4 59.2 Q82.05 57.6 78.4 57.15 81.65 49.45 85.7 41.95 98.6 18.25 123.05 6.5 122.8 9.65 123.25 12.8 96.0 30.15 84.4 59.2 M69.9 106.4 L67.15 101.9 70.75 83.65 Q72.9 84.65 75.55 85.15 L69.9 106.4" fill="#ffd75f" fill-rule="evenodd" stroke="none"/>
    <path d="M127.6 32.1 Q129.25 34.25 130.85 32.1 L131.0 31.55 Q130.25 28.6 131.05 25.6 L130.75 24.9 129.8 20.85 Q136.9 28.0 139.4 38.15 141.75 47.55 142.5 57.2 143.25 66.9 141.85 76.2 140.85 82.3 138.95 88.25 L139.4 88.7 140.55 89.15 Q139.45 100.3 135.0 111.0 129.05 125.25 125.1 140.2 L122.85 140.65 117.45 140.55 111.4 139.9 Q96.25 135.05 84.45 123.85 80.35 119.95 76.8 115.7 91.9 118.95 96.15 107.65 98.8 108.85 101.85 108.8 108.85 108.65 113.1 104.5 L113.0 104.25 Q112.75 103.4 111.85 103.35 104.45 105.45 96.6 105.05 L96.25 105.25 95.6 105.95 95.5 106.7 95.6 106.95 90.7 100.75 Q103.25 106.1 116.15 99.8 L116.2 99.55 Q116.35 98.4 115.15 98.15 102.1 102.35 88.8 98.35 123.45 70.3 127.6 32.1 M141.6 76.75 L141.7 76.85 141.8 76.2 141.6 76.75" fill="#ecb20a" fill-rule="evenodd" stroke="none"/>
    <path d="M88.5 67.15 Q88.2 61.7 84.4 59.2 96.0 30.15 123.25 12.8 123.25 22.2 127.6 32.1 123.45 70.3 88.8 98.35 L88.3 98.75 88.1 99.5 90.7 100.75 95.6 106.95 95.75 107.45 96.15 107.65 Q91.9 118.95 76.8 115.7 73.05 111.25 69.9 106.4 L75.55 85.15 75.8 85.2 76.25 84.75 76.45 84.3 75.95 83.7 76.8 83.55 Q86.6 81.4 92.9 73.9 97.9 67.95 88.5 67.15" fill="#ffcc33" fill-rule="evenodd" stroke="none"/>
    <path d="M67.4 81.4 Q75.85 81.8 84.25 75.7 L88.5 67.15 Q97.9 67.95 92.9 73.9 86.6 81.4 76.8 83.55 L75.95 83.7 76.45 84.3 76.25 84.75 75.8 85.2 75.55 85.15 Q72.9 84.65 70.75 83.65 L67.4 81.4" fill="#ff9933" fill-rule="evenodd" stroke="none"/>
    <path d="M46.6 120.4 Q63.7 153.75 97.7 173.7 58.35 176.15 10.0 132.0 L7.15 129.3 Q12.55 132.6 13.55 131.4 20.55 123.0 30.95 120.25 37.0 118.7 40.8 123.75 43.55 127.45 47.3 125.6 48.05 125.25 47.85 124.55 L46.6 120.4" fill="#858585" fill-rule="evenodd" stroke="none"/>
    <path d="M42.55 70.25 Q39.85 72.95 39.75 77.05 39.4 89.05 41.75 100.8 43.7 110.75 46.6 120.4 L47.85 124.55 Q48.05 125.25 47.3 125.6 43.55 127.45 40.8 123.75 37.0 118.7 30.95 120.25 20.55 123.0 13.55 131.4 12.55 132.6 7.15 129.3 10.4 128.4 12.45 125.0 L16.3 118.45 Q23.75 104.8 28.15 89.85 L28.0 89.15 28.1 88.9 Q28.75 87.7 27.4 87.25 22.75 94.55 18.7 102.8 L17.05 101.5 Q10.5 94.3 6.95 85.1 1.95 72.0 13.05 63.9 17.75 60.5 23.2 59.55 25.85 59.1 28.2 60.0 33.9 62.15 38.25 65.85 40.45 67.7 42.3 69.95 L42.45 70.1 42.55 70.25" fill="#aaaaaa" fill-rule="evenodd" stroke="none"/>
    <path d="M42.55 70.25 Q44.9 73.15 46.7 76.7 50.7 84.5 54.3 92.5 62.15 110.25 74.8 124.9 87.9 140.15 107.0 145.0 L108.3 145.25 108.95 145.45 Q116.15 147.55 123.45 146.6 L123.55 146.2 123.25 147.5 Q122.05 152.7 126.85 153.25 127.95 153.35 128.15 152.35 130.95 138.85 136.5 126.0 144.15 108.15 147.0 89.15 L147.15 86.6 147.2 86.6 148.0 86.5 147.8 86.35 147.1 86.15 Q146.85 83.55 145.35 81.75 L146.95 75.9 Q150.7 74.25 154.8 73.7 157.0 74.4 159.0 75.75 162.65 78.15 165.35 81.55 176.1 95.1 167.65 111.1 166.8 112.65 165.6 113.85 156.6 122.65 150.9 133.6 148.65 137.95 151.5 141.35 152.4 142.45 153.45 141.6 128.3 171.75 97.7 173.7 63.7 153.75 46.6 120.4 43.7 110.75 41.75 100.8 39.4 89.05 39.75 77.05 39.85 72.95 42.55 70.25" fill="#7b7b7b" fill-rule="evenodd" stroke="none"/>
    <path d="M97.7 173.7 Q128.3 171.75 153.45 141.6 M7.15 129.3 L10.0 132.0 Q58.35 176.15 97.7 173.7 Z" fill="none" stroke="#666666" stroke-linecap="round" stroke-linejoin="round" stroke-width="1.0"/>
  </g>
</svg>
