<?xml version="1.0" encoding="UTF-8" standalone="no"?>
<svg xmlns:xlink="http://www.w3.org/1999/xlink" height="83.95px" width="193.25px" xmlns="http://www.w3.org/2000/svg">
  <g transform="matrix(1.0, 0.0, 0.0, 1.0, 279.8, 131.25)">
    <path d="M-209.65 -116.2 Q-210.3 -121.75 -209.45 -124.05 -244.5 -132.3 -279.8 -124.4 -243.5 -135.7 -207.1 -128.3 L-206.85 -128.35 -206.85 -128.4 -206.7 -128.2 Q-146.75 -115.85 -86.55 -52.55 L-89.65 -48.05 Q-147.6 -108.2 -206.1 -123.25 -206.5 -121.85 -207.45 -120.3 L-209.65 -116.2 M-140.55 -82.6 Q-139.75 -83.8 -137.6 -90.0 L-134.55 -87.8 Q-135.45 -84.8 -138.1 -82.45 L-138.4 -82.2 Q-139.65 -82.0 -140.55 -82.6" fill="#000000" fill-rule="evenodd" stroke="none"/>
    <path d="M-209.65 -116.2 L-140.55 -82.6 M-138.4 -82.2 L-93.4 -47.8 M-277.65 -124.5 Q-242.15 -121.1 -209.65 -116.2 Z" fill="none" stroke="#666666" stroke-linecap="round" stroke-linejoin="round" stroke-width="1.0"/>
  </g>
</svg>
