<?xml version="1.0" encoding="UTF-8" standalone="no"?>
<svg xmlns:xlink="http://www.w3.org/1999/xlink" height="80.35px" width="327.05px" xmlns="http://www.w3.org/2000/svg">
  <g transform="matrix(1.0, 0.0, 0.0, 1.0, 455.5, -96.85)">
    <path d="M-129.45 112.1 L-143.25 114.95 -139.7 115.4 M-310.45 171.0 L-301.75 169.75 -278.15 154.35 -285.5 146.3 M-268.65 159.75 L-278.15 154.35 M-301.75 169.75 L-281.75 175.9 -282.25 176.2 M-178.1 107.6 L-181.15 108.8 -173.75 113.9 Q-159.5 112.85 -143.25 114.95 M-221.85 115.25 L-181.15 108.8 M-239.25 97.85 L-249.85 106.55 M-432.15 130.7 L-424.1 126.65 -446.6 122.3 -454.5 124.05 M-448.3 121.5 L-446.6 122.3 M-402.2 147.1 L-391.1 143.1 -379.95 139.05 M-405.05 140.7 L-391.45 135.05 M-407.45 154.1 L-391.1 143.1 M-424.1 126.65 L-399.55 130.0" fill="none" stroke="#000000" stroke-linecap="round" stroke-linejoin="round" stroke-width="2.0"/>
  </g>
</svg>
