<?xml version="1.0" encoding="UTF-8" standalone="no"?>
<svg xmlns:xlink="http://www.w3.org/1999/xlink" height="93.35px" width="365.75px" xmlns="http://www.w3.org/2000/svg">
  <g transform="matrix(1.0, 0.0, 0.0, 1.0, 484.1, -96.85)">
    <path d="M-129.45 112.1 L-143.25 114.95 Q-131.8 116.35 -119.35 119.35 M-310.45 171.0 L-301.75 169.75 -278.15 154.35 -285.5 146.3 M-258.2 173.8 L-269.1 176.7 -251.4 189.2 M-269.1 176.7 L-281.7 175.85 -299.1 187.15 M-268.65 159.75 L-278.15 154.35 M-301.75 169.75 L-281.7 175.85 M-166.0 133.2 L-185.15 133.2 -169.5 144.5 M-221.85 115.25 L-181.15 108.8 -175.3 106.5 -169.55 104.25 M-143.25 114.95 Q-159.5 112.85 -173.75 113.9 L-181.15 108.8 M-219.15 128.7 L-185.15 133.2 M-239.25 97.85 L-249.85 106.55 M-175.3 106.5 L-134.8 101.55 M-432.15 130.7 L-424.1 126.65 -446.6 122.3 -472.7 128.0 M-458.8 116.65 L-446.6 122.3 M-471.8 171.9 L-451.8 156.7 -483.1 163.65 M-450.65 170.75 L-435.65 162.85 -425.7 149.3 -451.8 156.7 M-435.65 171.95 L-435.65 162.85 M-402.2 147.1 L-391.1 143.1 -379.95 139.05 M-407.45 154.1 L-391.1 143.1 M-391.45 135.05 L-425.7 149.3 M-424.1 126.65 L-399.55 130.0" fill="none" stroke="#000000" stroke-linecap="round" stroke-linejoin="round" stroke-width="2.0"/>
  </g>
</svg>
