<?xml version="1.0" encoding="UTF-8" standalone="no"?>
<svg xmlns:xlink="http://www.w3.org/1999/xlink" height="41.3px" width="254.9px" xmlns="http://www.w3.org/2000/svg">
  <g transform="matrix(1.0, 0.0, 0.0, 1.0, 43.25, -98.45)">
    <path d="M210.35 118.1 Q206.4 124.4 198.25 125.65 146.85 133.65 95.1 137.75 L47.9 139.75 Q12.0 139.9 -23.45 136.0 -46.3 133.45 -42.8 115.5 -41.85 110.35 -36.55 108.35 -6.35 96.95 27.1 98.7 L47.9 99.6 Q66.45 100.1 85.0 99.85 L88.0 99.5 Q147.95 100.75 206.75 110.8 214.15 112.1 210.35 118.1 M-29.25 119.25 L-28.7 119.55 -28.45 118.9 -29.25 119.25" fill="#cccccc" fill-rule="evenodd" stroke="none"/>
  </g>
</svg>
