<?xml version="1.0" encoding="UTF-8" standalone="no"?>
<svg xmlns:xlink="http://www.w3.org/1999/xlink" height="220.2px" width="229.5px" xmlns="http://www.w3.org/2000/svg">
  <g transform="matrix(1.0, 0.0, 0.0, 1.0, 114.75, 110.05)">
    <path d="M8.95 -18.25 L23.55 -3.35 30.85 3.65 Q35.85 8.05 41.3 12.0 43.45 13.55 45.75 15.0 49.95 17.75 54.7 19.6 L76.55 28.55 Q87.25 32.9 97.75 37.9 L104.45 40.9 108.7 42.55 114.75 44.85 114.45 48.15 Q113.55 56.25 111.1 64.05 L109.15 70.25 Q107.65 74.7 105.1 78.95 L99.95 79.55 90.95 81.25 89.75 81.55 Q85.9 84.5 81.65 86.55 76.0 89.35 70.0 91.15 62.05 93.45 53.8 95.05 44.05 97.1 34.25 98.4 19.65 100.2 4.95 102.55 L-5.85 104.75 -21.8 107.95 Q-32.75 110.05 -43.9 110.15 L-59.4 109.65 Q-66.05 109.05 -72.65 107.35 L-79.65 105.1 Q-82.8 104.0 -85.75 102.55 -92.25 99.6 -97.4 94.9 -100.55 92.1 -103.15 88.85 -106.6 84.5 -109.05 79.6 -113.0 71.8 -114.75 63.05 L-105.15 52.65 -46.65 -15.9 -47.55 -30.45 -49.65 -29.35 -51.75 -28.4 -53.9 -27.65 -56.05 -27.0 -57.95 -21.7 -58.6 -22.15 -61.1 -25.1 Q-62.25 -26.65 -62.8 -28.35 -63.25 -29.95 -63.1 -31.65 -62.6 -37.2 -58.85 -41.4 -55.6 -45.0 -51.1 -46.75 L-49.6 -53.9 -53.65 -59.1 -57.55 -64.55 Q-59.85 -68.0 -61.6 -71.8 -64.0 -77.15 -65.9 -82.6 -66.85 -85.35 -66.95 -88.4 -67.1 -93.25 -65.5 -97.7 -63.85 -102.25 -60.7 -105.65 -58.2 -108.3 -54.6 -108.95 L-49.9 -110.05 -49.4 -109.8 -50.7 -105.2 -52.2 -100.7 Q-55.05 -92.25 -56.75 -83.5 L-50.1 -77.55 -49.8 -78.0 -45.7 -73.35 -31.65 -57.45 Q-24.9 -50.2 -17.7 -43.55 L-2.9 -29.85 8.95 -18.25" fill="#0066cc" fill-rule="evenodd" stroke="none"/>
  </g>
</svg>
