<?xml version="1.0" encoding="UTF-8" standalone="no"?>
<svg xmlns:xlink="http://www.w3.org/1999/xlink" height="336.7px" width="342.9px" xmlns="http://www.w3.org/2000/svg">
  <g transform="matrix(1.0, 0.0, 0.0, 1.0, 120.2, 202.7)">
    <path d="M31.7 -94.1 Q33.95 -93.9 35.95 -92.95 L36.2 -92.7 29.55 -68.7 Q31.05 -65.2 31.95 -60.5 50.95 -42.25 70.3 -24.1 87.6 -7.8 104.4 9.3 L122.5 27.4 Q129.3 33.95 138.85 36.0 L144.8 38.15 Q157.1 42.4 169.0 47.8 L187.8 56.45 Q189.4 57.2 190.9 58.1 L191.35 58.35 Q196.15 46.75 202.5 36.4 202.95 35.55 203.85 35.35 L204.7 35.4 205.5 35.6 206.45 37.75 207.25 38.25 207.5 38.6 Q207.65 48.25 206.85 57.8 L218.6 65.25 219.45 65.6 Q226.3 76.35 218.8 85.5 L218.6 89.45 Q218.3 92.65 217.5 95.6 215.7 101.8 211.45 106.9 209.6 109.1 206.75 109.75 201.1 111.0 196.3 109.3 194.35 114.2 191.05 117.85 189.1 120.05 186.6 121.8 184.05 123.65 181.0 124.55 175.05 126.25 170.7 124.35 166.6 124.5 162.55 120.8 164.9 113.95 173.45 113.75 L176.5 113.15 178.85 113.3 Q179.2 107.8 181.1 102.7 175.05 104.0 169.25 105.95 168.0 107.35 166.3 108.4 145.8 119.1 122.65 121.35 104.2 123.15 85.85 126.3 L45.25 132.95 Q11.95 138.05 -15.25 118.75 -22.95 113.3 -27.95 104.95 L-29.55 102.85 Q-32.95 96.4 -34.55 89.45 L-35.4 85.15 Q-39.25 87.75 -42.75 86.3 L-42.95 86.45 -44.95 86.25 Q-47.4 85.6 -49.3 83.4 L-49.6 83.0 -51.95 78.0 Q-54.05 60.3 -52.9 42.45 -51.55 21.05 -46.4 0.7 -42.65 -14.25 -34.45 -26.75 L-33.6 -28.0 Q-31.4 -31.2 -27.95 -32.7 L-26.15 -33.5 -26.05 -33.65 Q-25.6 -34.35 -25.7 -35.2 -19.45 -42.35 -9.7 -45.0 L-2.1 -46.6 Q6.75 -47.15 13.55 -42.4 L13.75 -42.15 13.75 -42.05 Q15.8 -40.35 16.55 -37.95 L19.6 -38.65 Q21.85 -38.8 23.95 -37.8 L24.75 -37.35 24.8 -37.35 Q21.75 -43.45 18.05 -49.1 13.65 -55.85 12.8 -62.6 L12.4 -64.5 12.05 -64.85 11.85 -65.2 Q11.25 -70.15 11.9 -74.3 13.8 -87.6 27.95 -92.9 L31.7 -94.1 M31.4 -87.2 Q32.0 -88.55 32.1 -90.1 18.65 -89.25 15.9 -74.65 L14.7 -68.9 Q15.4 -65.35 16.6 -61.9 25.75 -42.5 27.7 -42.05 L27.75 -41.95 27.75 -42.05 Q28.85 -42.15 27.25 -49.25 L26.15 -57.4 26.1 -57.55 Q25.8 -57.35 25.4 -57.3 L25.0 -56.85 24.15 -58.5 Q24.65 -66.6 26.7 -74.3 28.45 -80.9 31.4 -87.2 M33.05 -51.15 L33.9 -31.65 Q35.85 -29.55 37.4 -27.1 L37.7 -26.9 Q44.75 -23.8 49.4 -14.2 53.95 -4.65 54.7 -1.95 L56.35 3.95 Q68.9 5.45 80.85 9.3 94.0 13.55 106.45 20.6 L112.1 23.85 112.25 23.9 112.25 23.85 98.4 9.3 Q82.9 -6.6 66.55 -21.4 47.85 -38.3 32.35 -58.1 L33.05 -51.15 M192.5 62.95 L191.05 62.4 Q189.55 62.65 187.45 61.65 176.85 56.55 166.05 51.55 155.0 46.5 143.55 42.5 L124.85 34.75 125.6 35.1 Q128.0 39.35 129.4 43.95 131.9 52.3 125.5 56.6 122.25 58.75 118.3 58.85 L115.65 59.0 116.45 59.3 Q117.4 59.35 118.05 60.0 L120.6 62.75 109.85 58.25 103.25 56.2 91.5 54.3 83.9 53.55 Q75.7 53.5 68.15 50.05 L68.1 61.25 Q68.05 63.15 66.55 63.8 64.55 58.3 63.9 52.5 61.25 30.15 54.05 9.3 50.1 -2.05 44.8 -13.0 40.25 -22.4 31.45 -26.8 L30.8 -26.8 30.0 -26.45 Q29.6 -26.15 29.15 -26.0 L28.85 -25.9 Q23.95 -23.45 21.05 -18.35 18.85 -14.6 18.9 -10.35 18.9 -8.75 19.9 -7.5 21.65 -5.4 22.8 -3.05 L23.75 -2.6 25.5 -7.75 25.7 -9.05 21.35 -13.2 22.7 -14.35 Q27.3 -11.4 32.75 -10.7 L33.35 -14.9 Q33.45 -15.85 34.45 -16.3 35.75 -3.5 35.95 9.3 36.05 17.85 35.65 26.4 34.85 43.05 38.75 59.1 40.75 67.3 44.25 74.8 46.65 80.0 51.85 82.1 59.4 85.0 67.15 86.15 82.35 88.1 97.6 85.2 L118.35 81.7 118.35 83.0 Q113.5 87.1 107.6 88.6 L104.75 89.45 103.95 89.6 81.1 91.35 Q69.5 92.75 58.65 89.45 54.95 88.3 51.35 86.6 47.05 84.65 43.45 81.4 41.65 79.75 40.5 77.5 14.15 82.95 -12.75 77.3 L-14.65 76.8 Q-19.35 75.4 -22.95 72.55 -27.2 77.6 -31.95 82.2 L-32.3 82.55 -32.15 82.8 -30.75 88.5 -30.35 89.6 Q-19.4 121.8 13.35 127.25 L13.65 127.3 Q39.55 131.45 65.1 125.6 75.6 123.2 86.25 121.4 97.35 119.5 108.65 118.3 132.2 115.65 154.9 109.05 160.6 107.35 165.75 104.4 L171.4 100.6 Q171.6 100.4 172.05 100.6 L172.0 100.8 172.1 100.75 Q178.15 98.15 185.2 98.05 L186.8 97.95 Q188.0 95.6 190.55 92.2 189.85 91.35 190.6 89.45 195.2 77.35 196.2 64.3 L192.5 62.95 M17.1 -18.35 L17.15 -18.35 17.25 -18.4 Q18.9 -21.75 21.5 -24.35 20.1 -25.3 18.45 -27.65 17.8 -28.5 19.0 -28.35 21.05 -26.9 22.5 -25.25 L25.0 -27.2 27.7 -28.8 Q25.75 -35.95 19.95 -33.75 14.15 -31.6 13.35 -30.2 12.0 -27.3 11.9 -25.15 L12.25 -24.45 Q12.95 -23.1 13.1 -21.65 L15.35 -19.15 16.4 -18.25 16.95 -18.3 17.1 -18.35 M4.65 -38.55 L3.2 -38.9 10.75 -40.8 11.0 -41.3 Q6.8 -42.65 2.7 -42.95 -8.85 -43.9 -19.9 -37.25 -21.55 -36.25 -22.8 -34.85 -14.6 -38.05 -6.1 -39.95 L-5.05 -40.1 -4.8 -40.2 -2.45 -39.75 0.4 -37.85 8.8 -31.85 Q10.35 -34.45 13.75 -36.6 L13.75 -37.0 13.6 -37.3 13.0 -38.25 4.65 -38.55 M-19.7 -8.85 L-18.45 -10.5 Q-15.05 -14.9 -10.4 -17.3 L-10.45 -17.4 Q-3.45 -23.5 6.55 -26.3 L7.5 -26.6 Q7.4 -27.8 7.65 -28.95 1.9 -32.0 -3.0 -37.1 -13.55 -34.95 -23.05 -30.5 -28.7 -28.4 -32.45 -24.3 -37.45 -18.95 -39.0 -10.05 -39.6 -6.55 -40.55 -3.05 -42.25 3.1 -43.6 9.3 L-44.95 16.15 Q-48.25 33.8 -48.9 52.2 -49.4 65.8 -47.25 78.7 L-46.65 79.45 Q-46.35 79.9 -46.2 80.5 L-44.15 82.5 Q-39.4 81.25 -35.25 78.75 -27.9 74.3 -22.55 65.95 -6.55 40.95 3.45 12.75 L4.6 9.3 Q9.1 -4.5 10.9 -18.9 L10.55 -19.1 9.9 -19.6 Q8.75 -21.5 8.2 -23.25 L2.45 -20.6 Q0.9 -19.35 -1.1 -18.7 -6.35 -16.75 -10.9 -13.5 -18.35 -8.15 -22.25 0.65 -24.15 4.85 -25.1 9.3 -25.65 11.8 -25.85 14.4 L-26.35 18.05 Q-29.5 36.15 -31.7 54.55 L-32.2 58.85 -33.35 58.8 -33.6 58.0 -33.75 49.05 Q-33.65 44.6 -33.2 40.25 L-30.55 17.9 Q-30.0 13.5 -28.75 9.3 -27.3 4.3 -24.9 -0.35 -22.65 -4.85 -19.7 -8.85 M14.8 -16.2 Q14.25 -3.4 9.45 9.3 L8.9 10.65 11.55 9.3 Q16.4 6.95 21.65 5.35 22.15 3.0 22.8 0.7 18.95 -1.5 16.75 -5.9 14.3 -10.75 16.1 -15.7 L14.8 -16.2 M32.55 -8.45 L31.15 -8.35 30.1 3.3 31.6 3.05 Q31.95 -2.7 32.55 -8.45 M203.5 41.3 L203.3 39.9 202.8 41.05 Q200.0 47.8 196.55 54.1 L193.4 59.5 Q194.95 60.35 196.35 61.45 L196.4 58.85 196.55 58.85 Q196.8 59.5 197.35 60.0 L197.65 60.3 197.85 62.6 198.55 63.2 198.55 63.45 197.95 64.25 Q198.75 77.5 194.85 89.45 192.35 97.15 187.85 104.4 L187.55 104.8 Q186.2 105.7 185.0 104.65 184.5 103.65 184.65 102.5 L184.65 102.2 184.7 102.0 183.9 102.15 Q183.3 108.25 181.1 114.2 L180.9 114.6 180.95 114.6 Q183.05 115.2 184.95 116.25 L185.25 116.7 Q176.3 115.85 166.75 119.6 169.75 119.9 172.25 120.95 180.4 120.95 187.8 117.35 L187.95 117.05 191.4 107.85 Q194.1 105.4 193.6 101.35 L195.9 93.9 197.1 89.45 200.3 76.05 Q201.95 68.4 202.8 60.65 203.55 54.0 203.7 47.25 L203.4 46.9 Q203.15 46.7 203.05 46.35 204.0 43.95 203.5 41.3 M207.95 94.85 L207.8 94.6 207.45 93.85 207.45 93.55 218.15 76.25 Q220.25 72.7 217.1 70.3 L212.75 66.95 Q212.6 72.9 211.15 79.0 L210.95 79.65 Q207.35 75.45 209.05 66.65 L209.45 64.25 206.5 61.75 Q205.0 75.75 201.45 89.45 L200.2 94.0 200.15 94.25 Q199.3 97.0 198.7 99.9 L198.1 102.8 197.45 105.6 207.15 105.2 Q210.8 105.05 212.4 101.35 L212.95 99.95 Q213.7 97.7 214.05 95.35 L214.25 93.55 Q214.3 91.55 214.65 89.5 211.75 91.85 209.15 94.6 L208.65 94.9 208.05 95.0 207.95 94.85 M115.5 30.75 L105.65 25.4 Q100.05 21.8 94.0 19.05 80.85 12.95 67.0 9.3 62.2 8.05 57.3 7.1 L61.85 20.6 Q65.95 31.7 67.7 43.55 L68.3 46.75 Q83.55 48.4 98.25 52.6 104.3 53.35 109.85 55.85 L111.5 56.6 118.4 55.45 121.75 54.1 125.95 52.4 Q125.4 41.9 118.65 33.0 L118.0 32.05 115.5 30.75 M-12.75 71.95 Q7.75 77.6 29.7 74.65 L38.85 74.2 Q35.2 66.35 33.5 57.55 32.6 53.25 32.25 48.95 30.4 29.1 31.25 9.3 L31.35 7.3 29.6 7.75 29.4 9.3 Q27.55 24.5 24.55 39.45 L24.15 40.6 Q21.75 42.1 20.15 39.5 18.05 27.5 20.05 16.25 L20.75 10.15 Q14.0 12.1 7.45 14.25 L4.5 21.55 4.5 21.5 -7.2 47.7 Q-12.85 59.5 -20.5 69.45 L-20.15 69.6 -12.75 71.95" fill="#000000" fill-rule="evenodd" stroke="none"/>
    <path d="M16.4 -18.25 L15.35 -19.15 13.1 -21.65 Q12.95 -23.1 12.25 -24.45 L11.9 -25.15 Q12.0 -27.3 13.35 -30.2 14.15 -31.6 19.95 -33.75 25.75 -35.95 27.7 -28.8 L25.0 -27.2 22.5 -25.25 Q21.05 -26.9 19.0 -28.35 17.8 -28.5 18.45 -27.65 20.1 -25.3 21.5 -24.35 18.9 -21.75 17.25 -18.4 L17.15 -18.35 17.1 -18.35 16.4 -18.25 M121.75 54.1 Q110.5 44.25 115.0 30.55 L115.5 30.75 118.0 32.05 118.65 33.0 Q125.4 41.9 125.95 52.4 L121.75 54.1 M4.5 21.55 Q6.1 26.1 5.9 31.95 5.05 52.8 -8.85 68.95 L-11.95 72.15 -12.75 71.95 -20.15 69.6 -20.5 69.45 Q-12.85 59.5 -7.2 47.7 L4.5 21.5 4.5 21.55" fill="#cccccc" fill-rule="evenodd" stroke="none"/>
    <path d="M4.65 -38.55 L13.0 -38.25 13.6 -37.3 13.75 -37.0 13.75 -36.6 Q10.35 -34.45 8.8 -31.85 L0.4 -37.85 4.65 -38.55 M-31.7 54.55 Q-29.5 36.15 -26.35 18.05 L-25.85 14.4 Q-25.65 11.8 -25.1 9.3 -24.15 4.85 -22.25 0.65 -18.35 -8.15 -10.9 -13.5 -6.35 -16.75 -1.1 -18.7 0.9 -19.35 2.45 -20.6 L8.2 -23.25 Q8.75 -21.5 9.9 -19.6 L10.55 -19.1 10.9 -18.9 Q9.1 -4.5 4.6 9.3 L3.45 12.75 Q-6.55 40.95 -22.55 65.95 -27.9 74.3 -35.25 78.75 -32.15 70.0 -31.9 60.15 L-31.7 54.55" fill="#ffb409" fill-rule="evenodd" stroke="none"/>
    <path d="M-32.45 -24.3 L-19.7 -8.85 Q-22.65 -4.85 -24.9 -0.35 -27.3 4.3 -28.75 9.3 -30.0 13.5 -30.55 17.9 L-33.2 40.25 Q-33.65 44.6 -33.75 49.05 L-33.6 58.0 -33.35 58.8 -32.2 58.85 -31.7 54.55 -31.9 60.15 Q-32.15 70.0 -35.25 78.75 -39.4 81.25 -44.15 82.5 L-46.2 80.5 Q-46.35 79.9 -46.65 79.45 L-47.25 78.7 Q-49.4 65.8 -48.9 52.2 -48.25 33.8 -44.95 16.15 L-43.6 9.3 Q-42.25 3.1 -40.55 -3.05 -39.6 -6.55 -39.0 -10.05 -37.45 -18.95 -32.45 -24.3" fill="#f99108" fill-rule="evenodd" stroke="none"/>
    <path d="M202.8 41.05 L203.5 41.3 Q204.0 43.95 203.05 46.35 203.15 46.7 203.4 46.9 L203.7 47.25 Q203.55 54.0 202.8 60.65 201.45 49.45 196.55 54.1 200.0 47.8 202.8 41.05 M191.4 107.85 L187.95 117.05 184.95 116.25 Q183.05 115.2 180.95 114.6 L181.1 114.2 Q183.3 108.25 183.9 102.15 L184.65 102.2 184.65 102.5 Q184.5 103.65 185.0 104.65 181.25 107.4 187.25 110.15 189.85 109.25 191.4 107.85" fill="#cccc99" fill-rule="evenodd" stroke="none"/>
    <path d="M200.15 94.25 L200.2 94.0 201.45 89.45 Q205.0 75.75 206.5 61.75 L209.45 64.25 209.05 66.65 Q207.35 75.45 210.95 79.65 L211.15 79.0 Q212.6 72.9 212.75 66.95 L217.1 70.3 Q220.25 72.7 218.15 76.25 L207.45 93.55 207.45 93.85 207.8 94.6 207.95 94.85 200.15 94.25" fill="#e2e1c7" fill-rule="evenodd" stroke="none"/>
    <path d="M121.75 54.1 L118.4 55.45 111.5 56.6 109.85 55.85 Q104.3 53.35 98.25 52.6 83.55 48.4 68.3 46.75 L67.7 43.55 Q65.95 31.7 61.85 20.6 L57.3 7.1 Q62.2 8.05 67.0 9.3 80.85 12.95 94.0 19.05 100.05 21.8 105.65 25.4 L115.5 30.75 115.0 30.55 Q110.5 44.25 121.75 54.1 M4.5 21.55 L7.45 14.25 Q14.0 12.1 20.75 10.15 L20.05 16.25 Q18.05 27.5 20.15 39.5 21.75 42.1 24.15 40.6 L24.55 39.45 Q27.55 24.5 29.4 9.3 L29.6 7.75 31.35 7.3 31.25 9.3 Q30.4 29.1 32.25 48.95 32.6 53.25 33.5 57.55 35.2 66.35 38.85 74.2 L29.7 74.65 Q7.75 77.6 -12.75 71.95 L-11.95 72.15 -8.85 68.95 Q5.05 52.8 5.9 31.95 6.1 26.1 4.5 21.55" fill="#ffffff" fill-rule="evenodd" stroke="none"/>
    <path d="M-14.65 76.8 Q-25.15 84.05 -31.95 82.2 -27.05 92.0 -20.2 99.85 -0.95 121.9 32.6 121.8 60.5 121.75 91.75 116.15 137.85 112.6 172.25 95.65 L184.2 93.4 Q191.6 80.65 192.5 62.95 L196.2 64.3 Q195.2 77.35 190.6 89.45 189.85 91.35 190.55 92.2 188.0 95.6 186.8 97.95 L185.2 98.05 Q178.15 98.15 172.1 100.75 L172.0 100.8 172.05 100.6 Q171.6 100.4 171.4 100.6 L165.75 104.4 Q160.6 107.35 154.9 109.05 132.2 115.65 108.65 118.3 97.35 119.5 86.25 121.4 75.6 123.2 65.1 125.6 39.55 131.45 13.65 127.3 L13.35 127.25 Q-19.4 121.8 -30.35 89.6 L-30.75 88.5 -32.15 82.8 -32.3 82.55 -31.95 82.2 Q-27.2 77.6 -22.95 72.55 -19.35 75.4 -14.65 76.8" fill="#000000" fill-opacity="0.4" fill-rule="evenodd" stroke="none"/>
    <path d="M0.4 -37.85 L-2.45 -39.75 -4.8 -40.2 -5.05 -40.1 -6.1 -39.95 Q-14.6 -38.05 -22.8 -34.85 -21.55 -36.25 -19.9 -37.25 -8.85 -43.9 2.7 -42.95 6.8 -42.65 11.0 -41.3 L10.75 -40.8 3.2 -38.9 4.65 -38.55 0.4 -37.85 M-32.45 -24.3 Q-28.7 -28.4 -23.05 -30.5 -13.55 -34.95 -3.0 -37.1 1.9 -32.0 7.65 -28.95 7.4 -27.8 7.5 -26.6 L6.55 -26.3 Q-3.45 -23.5 -10.45 -17.4 L-10.4 -17.3 Q-15.05 -14.9 -18.45 -10.5 L-19.7 -8.85 -32.45 -24.3" fill="#ec8500" fill-rule="evenodd" stroke="none"/>
    <path d="M202.8 60.65 Q201.95 68.4 200.3 76.05 L197.1 89.45 195.9 93.9 193.6 101.35 Q194.1 105.4 191.4 107.85 189.85 109.25 187.25 110.15 181.25 107.4 185.0 104.65 186.2 105.7 187.55 104.8 L187.85 104.4 Q192.35 97.15 194.85 89.45 198.75 77.5 197.95 64.25 L198.55 63.45 198.55 63.2 197.85 62.6 197.65 60.3 197.35 60.0 Q196.8 59.5 196.55 58.85 L196.4 58.85 196.35 61.45 Q194.95 60.35 193.4 59.5 L196.55 54.1 Q201.45 49.45 202.8 60.65 M187.95 117.05 L187.8 117.35 Q180.4 120.95 172.25 120.95 169.75 119.9 166.75 119.6 176.3 115.85 185.25 116.7 L184.95 116.25 187.95 117.05" fill="#b1b185" fill-rule="evenodd" stroke="none"/>
    <path d="M200.15 94.25 L207.95 94.85 208.05 95.0 208.65 94.9 214.05 95.35 Q213.7 97.7 212.95 99.95 L198.7 99.9 Q199.3 97.0 200.15 94.25" fill="#cdccb5" fill-rule="evenodd" stroke="none"/>
    <path d="M212.95 99.95 L212.4 101.35 Q210.8 105.05 207.15 105.2 L197.45 105.6 198.1 102.8 198.7 99.9 212.95 99.95" fill="#b8b7a3" fill-rule="evenodd" stroke="none"/>
    <path d="M148.5 -12.0 L154.05 -11.4 Q159.8 -10.2 163.4 -5.65 165.55 -2.9 166.55 0.5 L168.45 9.3 Q169.65 16.75 169.6 24.25 169.5 37.3 165.9 49.75 L170.45 50.05 Q175.3 50.1 179.1 52.95 180.5 54.0 181.55 55.4 183.95 58.4 185.9 61.65 186.55 62.75 186.7 64.05 186.8 65.0 186.55 65.95 185.2 70.15 181.4 73.2 L178.75 74.95 Q177.4 75.65 175.9 76.15 L169.65 77.05 Q165.85 76.8 162.45 75.35 L155.35 72.9 154.45 71.1 Q152.85 67.85 152.5 64.25 144.9 66.95 137.05 65.2 133.3 64.35 130.2 62.4 127.6 60.9 125.3 59.0 123.75 57.75 122.85 55.95 L122.15 54.15 Q121.25 51.35 121.7 48.25 L123.45 39.1 Q124.45 35.5 126.6 32.3 128.3 29.7 130.3 27.25 130.7 22.7 131.45 18.25 132.1 13.75 133.4 9.35 134.3 6.2 135.45 3.15 137.35 -1.85 140.5 -5.95 143.6 -10.15 148.5 -12.0 M150.2 -7.65 L148.3 -6.7 Q143.3 -3.95 140.3 0.7 138.2 3.95 136.75 7.55 135.2 11.5 134.8 15.7 L133.7 27.35 Q133.4 30.2 133.45 33.05 L133.05 38.75 Q132.5 43.0 130.35 46.7 129.75 40.15 130.25 33.85 L130.3 33.35 130.0 33.85 127.85 38.6 Q126.95 41.0 126.45 43.45 125.6 47.2 125.8 51.1 125.85 53.75 126.9 56.05 127.55 57.45 129.0 58.45 129.9 59.05 131.0 59.25 L140.2 61.0 146.5 61.4 152.95 61.2 Q153.4 59.2 154.6 57.4 156.75 54.1 160.2 52.15 160.95 49.25 162.0 46.2 163.75 41.3 164.75 36.05 L165.65 30.85 Q166.4 25.5 166.05 20.2 L165.65 14.9 Q165.3 10.5 164.45 6.25 163.45 0.85 159.95 -3.3 157.65 -6.25 154.15 -7.45 L152.2 -7.9 150.2 -7.65 M182.9 65.35 L183.2 64.45 Q183.65 63.0 183.25 61.5 L179.75 58.0 Q176.65 55.4 172.7 54.1 L172.65 55.3 Q172.35 57.35 170.65 58.75 L167.95 58.65 167.35 53.25 Q165.75 53.85 164.25 54.55 L161.35 56.25 Q158.2 58.45 156.0 61.5 L155.7 63.15 Q155.4 66.0 156.15 68.7 160.95 71.6 166.5 72.1 171.85 72.5 176.9 70.3 L180.8 68.1 Q182.35 67.1 182.9 65.35" fill="#000000" fill-rule="evenodd" stroke="none"/>
    <path d="M148.3 -6.7 L150.2 -7.65 Q160.4 -4.55 161.25 12.65 165.6 43.35 146.5 61.4 L140.2 61.0 Q135.1 42.1 138.05 25.3 141.6 4.85 148.3 -6.7" fill="#ffb409" fill-rule="evenodd" stroke="none"/>
    <path d="M182.9 65.35 Q182.35 67.1 180.8 68.1 L176.9 70.3 Q171.85 72.5 166.5 72.1 160.95 71.6 156.15 68.7 155.4 66.0 155.7 63.15 L156.0 61.5 Q158.2 58.45 161.35 56.25 L164.25 54.55 Q165.75 53.85 167.35 53.25 L167.95 58.65 170.65 58.75 Q172.35 57.35 172.65 55.3 L172.7 54.1 Q176.65 55.4 179.75 58.0 L183.25 61.5 Q183.65 63.0 183.2 64.45 L182.9 65.35" fill="#ffffff" fill-rule="evenodd" stroke="none"/>
    <path d="M140.2 61.0 L131.0 59.25 Q129.9 59.05 129.0 58.45 127.55 57.45 126.9 56.05 125.85 53.75 125.8 51.1 125.6 47.2 126.45 43.45 126.95 41.0 127.85 38.6 L130.0 33.85 130.25 33.85 Q129.75 40.15 130.35 46.7 132.5 43.0 133.05 38.75 L133.45 33.05 Q133.4 30.2 133.7 27.35 L134.8 15.7 Q135.2 11.5 136.75 7.55 138.2 3.95 140.3 0.7 143.3 -3.95 148.3 -6.7 141.6 4.85 138.05 25.3 135.1 42.1 140.2 61.0" fill="#f99108" fill-rule="evenodd" stroke="none"/>
    <path d="M150.2 -7.65 L152.2 -7.9 154.15 -7.45 Q157.65 -6.25 159.95 -3.3 163.45 0.85 164.45 6.25 165.3 10.5 165.65 14.9 L166.05 20.2 Q166.4 25.5 165.65 30.85 L164.75 36.05 Q163.75 41.3 162.0 46.2 160.95 49.25 160.2 52.15 156.75 54.1 154.6 57.4 153.4 59.2 152.95 61.2 L146.5 61.4 Q165.6 43.35 161.25 12.65 160.4 -4.55 150.2 -7.65" fill="#ffcd5b" fill-rule="evenodd" stroke="none"/>
    <path d="M-79.1 -201.7 L-78.95 -202.0 Q-4.95 -178.45 26.05 -89.1 L20.45 -86.3 Q4.9 -96.0 -4.7 -129.05 L-4.75 -129.1 -5.1 -129.65 -5.3 -130.25 Q-3.8 -131.95 -1.95 -133.2 -17.35 -158.35 -37.3 -175.75 L-41.4 -172.0 Q-42.25 -172.05 -42.4 -172.8 L-42.45 -173.1 Q-41.35 -175.55 -39.3 -177.45 -57.4 -192.7 -79.1 -201.7" fill="#000000" fill-rule="evenodd" stroke="none"/>
    <path d="M-41.4 -172.0 Q-42.25 -172.05 -42.4 -172.8" fill="none" stroke="#666666" stroke-linecap="round" stroke-linejoin="round" stroke-width="2.0"/>
    <path d="M20.45 -86.3 Q4.9 -96.0 -4.7 -129.05 L-4.75 -129.1 Q-29.25 -147.45 -41.4 -172.0 M-42.4 -172.8 Q-66.5 -181.5 -79.1 -201.7" fill="none" stroke="#666666" stroke-linecap="round" stroke-linejoin="round" stroke-width="1.0"/>
    <path d="M-79.1 -201.7 L-119.2 -115.9" fill="none" stroke="#666666" stroke-linecap="round" stroke-linejoin="round" stroke-width="2.0"/>
  </g>
</svg>
