<?xml version="1.0" encoding="UTF-8" standalone="no"?>
<svg xmlns:xlink="http://www.w3.org/1999/xlink" height="477.25px" width="431.65px" xmlns="http://www.w3.org/2000/svg">
  <g transform="matrix(1.0, 0.0, 0.0, 1.0, 215.85, 225.45)">
    <path d="M180.7 -209.35 L-180.05 -209.35 Q-187.95 -209.35 -193.5 -203.8 -199.1 -198.2 -199.1 -190.3 L-199.1 214.45 Q-199.1 222.35 -193.5 227.9 -187.95 233.5 -180.05 233.5 L180.7 233.5 Q188.6 233.5 194.15 227.9 199.7 222.35 199.7 214.45 L199.7 -190.3 Q199.7 -198.2 194.15 -203.8 188.6 -209.35 180.7 -209.35 M209.8 -219.45 Q215.8 -213.35 215.8 -204.8 L215.8 231.2 Q215.8 239.75 209.8 245.75 203.8 251.8 195.25 251.8 L-195.25 251.8 Q-203.8 251.8 -209.8 245.75 -215.85 239.75 -215.85 231.2 L-215.85 -204.8 Q-215.85 -213.35 -209.8 -219.45 -203.8 -225.45 -195.25 -225.45 L195.25 -225.45 Q203.8 -225.45 209.8 -219.45" fill="#ffffff" fill-opacity="0.4" fill-rule="evenodd" stroke="none"/>
    <path d="M180.7 -209.35 Q188.6 -209.35 194.15 -203.8 199.7 -198.2 199.7 -190.3 L199.7 214.45 Q199.7 222.35 194.15 227.9 188.6 233.5 180.7 233.5 L-180.05 233.5 Q-187.95 233.5 -193.5 227.9 -199.1 222.35 -199.1 214.45 L-199.1 -190.3 Q-199.1 -198.2 -193.5 -203.8 -187.95 -209.35 -180.05 -209.35 L180.7 -209.35" fill="#ffffff" fill-opacity="0.7490196" fill-rule="evenodd" stroke="none"/>
    <path d="M72.7 -4.9 L72.1 -3.6 71.9 -3.0 71.8 -0.45 Q71.75 1.2 72.15 2.85 72.55 4.45 73.1 5.95 L76.2 8.2 Q78.55 10.3 81.3 11.85 84.2 13.5 86.5 15.95 105.45 24.75 93.45 39.0 90.35 42.65 56.7 46.55 23.05 50.4 18.5 45.25 13.9 40.05 -0.25 42.1 -14.4 44.15 -34.35 49.45 -54.25 54.75 -76.75 59.45 -99.3 64.1 -121.05 60.4 -142.85 56.65 -142.85 52.5 -142.85 49.15 -141.5 46.1 L-141.05 45.5 -139.4 44.2 -139.05 43.5 -138.95 42.9 -138.95 41.65 Q-120.25 24.6 -97.45 12.3 -61.95 -6.9 -22.4 -16.35 12.45 -24.7 47.6 -29.1 97.85 -33.7 142.1 -14.5 L142.6 -14.05 142.95 -12.75 143.0 -12.1 Q143.05 -11.15 142.55 -10.25 L142.15 -9.6 141.1 -8.5 Q106.8 -13.2 73.6 -5.35 L72.7 -4.9" fill="#cccccc" fill-opacity="0.4" fill-rule="evenodd" stroke="none"/>
    <path d="M1.75 -125.15 Q2.45 -124.75 2.35 -124.05 L1.4 -122.35 Q-6.2 -120.15 -12.65 -115.45 3.0 -111.35 16.65 -102.8 23.1 -98.85 29.4 -94.35 36.2 -89.5 42.6 -84.25 53.6 -75.2 63.7 -65.1 L79.7 -49.95 Q91.0 -49.4 102.25 -51.05 L109.3 -51.75 Q122.4 -51.95 134.4 -46.55 L135.15 -46.0 135.5 -44.7 135.3 -44.2 Q123.65 -43.35 112.15 -41.4 L129.6 -37.25 144.35 -32.85 146.85 -31.25 Q139.5 -29.35 131.75 -29.6 125.6 -30.2 119.6 -28.25 L120.2 -28.4 Q126.45 -26.5 132.25 -23.5 138.0 -20.55 143.15 -16.65 L143.15 -13.3 136.95 -13.0 Q125.9 -12.85 115.1 -14.8 L99.9 -18.7 Q96.45 -19.65 93.45 -21.6 L94.3 -21.8 78.75 -18.6 Q61.7 -14.7 45.0 -9.45 L45.45 -7.0 45.4 -5.85 44.95 -4.85 Q41.6 0.1 37.3 4.3 31.6 9.75 24.55 13.55 L19.95 15.7 16.85 15.45 Q16.45 14.2 16.4 12.95 16.25 10.2 17.7 8.05 16.7 8.95 15.85 10.0 L14.65 11.65 13.9 12.4 -1.1 25.5 Q-6.95 30.45 -13.65 34.2 -24.95 40.45 -37.75 42.6 -48.5 44.4 -59.25 42.95 L-59.35 45.2 Q-76.45 51.75 -94.3 55.45 L-108.1 57.5 Q-113.4 58.0 -118.5 56.45 L-123.05 55.05 Q-126.1 54.0 -128.85 52.25 L-131.15 50.3 Q-134.8 46.8 -135.95 41.95 L-140.65 38.3 -142.05 36.5 -144.1 32.25 Q-144.7 30.7 -144.7 29.1 -144.65 24.5 -142.95 20.0 -140.95 14.55 -136.15 11.45 -130.95 -0.7 -128.55 -13.7 L-129.75 -15.6 Q-130.65 -17.45 -131.25 -19.45 -133.0 -25.5 -132.95 -31.9 -132.85 -40.55 -129.6 -48.3 -127.25 -54.05 -123.55 -59.1 -119.1 -65.05 -112.55 -68.35 -109.75 -73.8 -106.3 -78.7 -102.9 -83.65 -99.05 -88.15 -91.85 -96.7 -81.85 -101.8 L-76.7 -105.85 Q-74.0 -111.45 -71.55 -117.3 -68.65 -124.25 -63.45 -129.9 L-61.9 -129.75 -61.35 -127.15 Q-60.55 -123.3 -61.95 -119.6 L-50.9 -129.55 Q-43.75 -135.75 -34.9 -139.3 L-33.8 -138.9 Q-32.75 -137.6 -33.65 -136.15 L-36.65 -130.7 Q-27.2 -133.8 -17.4 -134.65 L-16.45 -132.95 -20.0 -128.65 Q-12.9 -129.05 -5.9 -127.75 -1.8 -127.2 1.75 -125.15 M16.55 -24.5 Q19.55 -27.95 23.25 -29.9 L24.7 -30.65 Q31.85 -26.55 36.95 -19.25 L43.2 -11.95 Q46.65 -14.85 51.95 -16.15 67.8 -20.1 83.85 -23.0 94.6 -25.0 105.1 -26.0 106.4 -26.35 107.1 -25.5 L107.25 -25.25 98.05 -22.65 Q115.85 -16.45 134.55 -16.3 L140.55 -16.45 Q134.9 -19.5 129.05 -21.95 123.0 -24.5 116.8 -26.55 L116.15 -27.75 115.25 -27.9 Q117.3 -30.5 120.6 -31.4 L134.05 -33.45 107.0 -40.0 105.8 -40.9 Q110.85 -43.6 116.4 -44.6 L125.45 -46.35 Q116.6 -48.35 107.4 -48.05 L87.5 -46.25 83.6 -46.7 83.3 -46.75 84.05 -46.1 90.65 -40.25 88.5 -40.45 Q81.0 -42.2 74.85 -48.6 L62.7 -61.3 Q48.7 -76.15 32.25 -88.0 L14.75 -99.85 Q6.1 -105.4 -3.55 -108.65 -14.4 -112.4 -25.75 -113.15 L-38.7 -113.3 -39.4 -113.4 Q-42.7 -112.05 -46.15 -110.8 -49.15 -109.75 -51.55 -107.7 -64.35 -97.2 -78.25 -88.4 -81.0 -86.7 -82.95 -88.9 L-83.05 -89.1 Q-83.1 -90.15 -82.75 -91.1 L-82.95 -91.45 -82.95 -91.4 -83.05 -91.85 -79.5 -99.65 Q-98.0 -89.05 -107.55 -70.0 -117.5 -50.25 -121.6 -28.65 -124.65 -12.4 -129.85 3.1 -131.3 7.3 -133.2 11.4 L-133.95 12.55 Q-131.3 14.65 -128.2 16.15 L-125.6 17.25 Q-118.45 19.75 -111.0 20.4 L-104.05 20.75 Q-100.65 21.3 -97.7 23.1 L-106.0 23.2 Q-115.75 23.15 -125.3 21.45 -131.65 20.35 -135.9 15.5 -140.45 20.35 -140.8 27.0 -140.95 29.65 -139.75 31.95 L-139.9 32.75 -137.1 35.95 Q-135.7 37.45 -134.05 38.65 -126.95 43.7 -118.15 43.6 -109.95 43.9 -102.25 41.1 -97.85 39.6 -93.45 37.65 -85.45 34.25 -76.9 35.85 L-81.05 37.65 Q-87.55 40.15 -93.95 43.0 -103.1 47.05 -113.1 47.2 -122.15 47.35 -130.9 44.1 L-131.45 43.85 -131.15 44.25 -129.4 46.7 Q-126.75 50.15 -122.45 51.5 -107.45 56.1 -92.1 51.7 -77.85 47.5 -63.35 43.6 -62.6 43.45 -62.05 42.85 -63.45 36.95 -66.85 31.75 -67.45 30.9 -66.4 30.8 -61.5 34.4 -59.95 39.2 L-59.75 39.15 Q-40.4 41.8 -22.2 33.95 -5.7 26.8 6.55 13.45 9.25 10.55 12.65 8.9 14.95 5.55 18.7 3.5 19.95 -4.55 17.9 -12.6 17.35 -12.35 16.85 -12.9 L16.0 -15.05 Q15.4 -16.85 15.3 -18.45 14.95 -21.85 16.55 -24.5 M33.45 -38.45 L31.35 -42.85 30.0 -41.15 29.15 -42.55 32.35 -36.95 33.45 -38.45 M36.15 -48.55 L33.6 -45.65 35.95 -40.95 Q37.25 -42.15 38.8 -43.15 L36.15 -48.55 M41.0 -55.3 L42.35 -54.9 38.05 -50.55 41.55 -44.7 Q45.05 -47.0 48.65 -46.35 49.15 -46.3 49.65 -45.8 L42.75 -42.4 48.55 -27.9 48.15 -26.9 47.25 -26.6 Q42.85 -32.85 40.0 -40.5 L37.35 -38.15 Q40.15 -33.25 41.15 -27.75 L39.3 -26.9 38.55 -27.3 34.85 -35.5 33.8 -34.1 34.45 -32.4 34.45 -31.9 34.15 -30.45 33.6 -30.0 32.55 -29.95 31.8 -30.4 30.45 -30.05 29.2 -31.0 30.05 -33.0 27.4 -37.5 23.75 -32.5 22.55 -32.7 22.1 -33.35 25.8 -40.25 21.25 -48.35 16.35 -37.55 15.4 -37.6 14.95 -38.45 19.6 -51.35 Q15.2 -59.7 8.6 -66.5 L8.15 -69.55 Q15.8 -63.6 21.25 -54.75 L23.35 -58.75 19.5 -66.65 21.8 -64.25 22.5 -64.05 24.65 -60.9 27.75 -65.5 Q28.55 -63.6 27.6 -61.6 L26.1 -58.65 32.15 -48.35 34.9 -50.95 31.1 -58.1 31.15 -59.15 36.75 -52.45 41.0 -55.3 M4.5 -0.1 Q3.15 1.65 1.5 0.6 1.1 -3.0 2.5 -6.35 6.6 -16.1 3.45 -26.15 3.35 -26.55 3.75 -26.9 L4.45 -26.4 7.45 -11.95 7.45 -10.7 Q6.65 -6.0 5.1 -1.6 L4.5 -0.1 M11.15 -4.85 L9.85 -3.35 9.85 -3.95 Q12.3 -12.25 11.0 -20.95 L12.15 -18.9 Q13.5 -15.75 13.4 -12.3 13.25 -8.3 11.15 -4.85 M-7.7 8.8 L-8.15 8.8 -9.35 8.5 -10.25 7.2 -10.35 6.95 Q-1.0 -11.6 -4.35 -31.8 L-4.5 -32.65 -4.3 -32.65 Q0.55 -21.05 -1.75 -7.95 -3.3 0.95 -7.4 8.55 L-7.7 8.8 M-127.95 -43.3 L-126.55 -42.85 Q-125.8 -41.0 -125.9 -39.1 -126.05 -35.4 -128.85 -33.0 L-129.4 -32.9 Q-129.5 -25.6 -127.65 -18.7 -123.65 -41.75 -114.9 -63.35 -121.0 -57.15 -125.35 -49.65 L-127.95 -43.3 M-78.7 -93.1 L-78.55 -93.2 Q-79.2 -93.3 -78.7 -93.1 M-65.9 -53.9 Q-60.8 -63.65 -49.95 -66.1 -38.7 -61.3 -35.7 -49.1 -33.85 -41.8 -33.25 -34.2 -31.65 -14.35 -48.05 -3.9 -56.35 1.45 -64.15 -4.65 -68.8 -8.25 -70.4 -14.05 -75.95 -34.75 -65.9 -53.9 M-48.6 -36.6 L-48.6 -36.65 Q-42.3 -31.35 -47.3 -23.4 -48.75 -21.1 -51.2 -22.25 -56.75 -31.1 -48.6 -36.6 M-43.3 -55.9 Q-46.6 -61.45 -52.15 -63.0 -64.85 -55.7 -67.4 -41.05 -68.55 -34.45 -68.55 -27.7 -68.5 -15.7 -60.75 -7.2 -59.7 -6.1 -58.1 -5.85 -48.6 -4.65 -43.15 -12.7 -33.9 -26.15 -37.7 -42.05 -39.5 -49.45 -43.3 -55.9" fill="#000000" fill-rule="evenodd" stroke="none"/>
    <path d="M41.0 -55.3 L36.75 -52.45 31.15 -59.15 31.1 -58.1 34.9 -50.95 32.15 -48.35 26.1 -58.65 27.6 -61.6 Q28.55 -63.6 27.75 -65.5 L24.65 -60.9 22.5 -64.05 21.8 -64.25 19.5 -66.65 23.35 -58.75 21.25 -54.75 Q15.8 -63.6 8.15 -69.55 L8.6 -66.5 Q15.2 -59.7 19.6 -51.35 L14.95 -38.45 15.4 -37.6 16.35 -37.55 21.25 -48.35 25.8 -40.25 22.1 -33.35 22.55 -32.7 23.75 -32.5 27.4 -37.5 30.05 -33.0 29.2 -31.0 30.45 -30.05 31.8 -30.4 32.55 -29.95 33.6 -30.0 34.15 -30.45 34.45 -31.9 34.45 -32.4 33.8 -34.1 34.85 -35.5 38.55 -27.3 39.3 -26.9 41.15 -27.75 Q40.15 -33.25 37.35 -38.15 L40.0 -40.5 Q42.85 -32.85 47.25 -26.6 L48.15 -26.9 48.55 -27.9 42.75 -42.4 49.65 -45.8 Q49.15 -46.3 48.65 -46.35 45.05 -47.0 41.55 -44.7 L38.05 -50.55 42.35 -54.9 41.0 -55.3 M36.15 -48.55 L38.8 -43.15 Q37.25 -42.15 35.95 -40.95 L33.6 -45.65 36.15 -48.55 M33.45 -38.45 L32.35 -36.95 29.15 -42.55 30.0 -41.15 31.35 -42.85 33.45 -38.45 M36.95 -19.25 Q31.85 -26.55 24.7 -30.65 L23.25 -29.9 Q19.55 -27.95 16.55 -24.5 8.65 -32.65 7.4 -45.0 6.85 -49.8 5.05 -54.35 -1.2 -70.4 -9.65 -85.55 -13.75 -92.75 -18.5 -99.05 L-17.2 -101.05 -16.35 -101.35 Q5.4 -94.6 25.1 -83.45 39.35 -75.45 51.65 -64.5 65.85 -51.95 63.05 -33.6 61.95 -26.5 56.85 -21.8 52.3 -17.6 46.05 -18.0 41.5 -18.1 36.95 -19.25 M15.3 -18.45 Q15.4 -16.85 16.0 -15.05 16.15 -9.0 11.6 -4.8 L11.15 -4.85 Q13.25 -8.3 13.4 -12.3 13.5 -15.75 12.15 -18.9 L11.7 -22.3 12.85 -22.95 15.3 -18.45 M4.45 -26.4 L3.6 -28.55 Q3.3 -29.3 3.95 -29.8 L4.7 -30.1 Q7.75 -26.15 9.1 -21.4 10.35 -17.05 10.0 -12.45 9.5 -6.35 6.55 -0.9 L4.5 -0.1 5.1 -1.6 Q6.65 -6.0 7.45 -10.7 L7.45 -11.95 4.45 -26.4 M-4.35 -31.8 L-5.75 -35.9 -5.85 -37.0 -5.2 -37.6 -4.8 -37.75 Q0.85 -31.8 1.2 -23.05 1.55 -14.95 0.45 -6.8 -0.75 2.25 -6.75 8.9 L-7.7 8.8 -7.4 8.55 Q-3.3 0.95 -1.75 -7.95 0.55 -21.05 -4.3 -32.65 L-4.5 -32.65 -4.35 -31.8" fill="#c63f3d" fill-rule="evenodd" stroke="none"/>
    <path d="M16.55 -24.5 Q14.95 -21.85 15.3 -18.45 L12.85 -22.95 11.7 -22.3 12.15 -18.9 11.0 -20.95 Q12.3 -12.25 9.85 -3.95 L9.85 -3.35 11.15 -4.85 11.6 -4.8 Q16.15 -9.0 16.0 -15.05 L16.85 -12.9 Q17.35 -12.35 17.9 -12.6 19.95 -4.55 18.7 3.5 14.95 5.55 12.65 8.9 9.25 10.55 6.55 13.45 -5.7 26.8 -22.2 33.95 -40.4 41.8 -59.75 39.15 L-59.95 39.2 Q-61.5 34.4 -66.4 30.8 -67.45 30.9 -66.85 31.75 -63.45 36.95 -62.05 42.85 -62.6 43.45 -63.35 43.6 -77.85 47.5 -92.1 51.7 -107.45 56.1 -122.45 51.5 -126.75 50.15 -129.4 46.7 L-131.15 44.25 -130.9 44.1 Q-122.15 47.35 -113.1 47.2 -103.1 47.05 -93.95 43.0 -87.55 40.15 -81.05 37.65 L-76.9 35.85 Q-85.45 34.25 -93.45 37.65 -97.85 39.6 -102.25 41.1 -109.95 43.9 -118.15 43.6 -110.9 40.1 -105.65 34.1 -99.8 27.2 -106.0 23.2 L-97.7 23.1 Q-100.65 21.3 -104.05 20.75 L-111.0 20.4 Q-118.45 19.75 -125.6 17.25 -126.8 15.25 -121.6 -1.25 -116.45 -17.75 -110.5 -25.85 -104.55 -34.0 -94.5 -51.6 -84.5 -69.2 -71.55 -77.15 -58.6 -85.15 -58.6 -85.25 L-58.65 -85.35 Q-55.0 -87.2 -52.2 -90.45 -40.6 -103.95 -25.75 -113.15 -14.4 -112.4 -3.55 -108.65 6.1 -105.4 14.75 -99.85 L32.25 -88.0 Q48.7 -76.15 62.7 -61.3 L74.85 -48.6 Q81.0 -42.2 88.5 -40.45 95.0 -35.95 102.4 -32.9 107.15 -31.0 111.2 -28.05 118.15 -22.85 125.9 -19.65 L134.55 -16.3 Q115.85 -16.45 98.05 -22.65 L107.25 -25.25 107.1 -25.5 Q106.4 -26.35 105.1 -26.0 94.6 -25.0 83.85 -23.0 67.8 -20.1 51.95 -16.15 46.65 -14.85 43.2 -11.95 L36.95 -19.25 Q41.5 -18.1 46.05 -18.0 52.3 -17.6 56.85 -21.8 61.95 -26.5 63.05 -33.6 65.85 -51.95 51.65 -64.5 39.35 -75.45 25.1 -83.45 5.4 -94.6 -16.35 -101.35 L-17.2 -101.05 -18.5 -99.05 Q-13.75 -92.75 -9.65 -85.55 -1.2 -70.4 5.05 -54.35 6.85 -49.8 7.4 -45.0 8.65 -32.65 16.55 -24.5 M84.05 -46.1 L83.3 -46.75 83.6 -46.7 84.05 -46.1 M4.5 -0.1 L6.55 -0.9 Q9.5 -6.35 10.0 -12.45 10.35 -17.05 9.1 -21.4 7.75 -26.15 4.7 -30.1 L3.95 -29.8 Q3.3 -29.3 3.6 -28.55 L4.45 -26.4 3.75 -26.9 Q3.35 -26.55 3.45 -26.15 6.6 -16.1 2.5 -6.35 1.1 -3.0 1.5 0.6 3.15 1.65 4.5 -0.1 M-7.7 8.8 L-6.75 8.9 Q-0.75 2.25 0.45 -6.8 1.55 -14.95 1.2 -23.05 0.85 -31.8 -4.8 -37.75 L-5.2 -37.6 -5.85 -37.0 -5.75 -35.9 -4.35 -31.8 Q-1.0 -11.6 -10.35 6.95 L-10.25 7.2 -9.35 8.5 -8.15 8.8 -7.7 8.8 M-65.9 -53.9 Q-75.95 -34.75 -70.4 -14.05 -68.8 -8.25 -64.15 -4.65 -56.35 1.45 -48.05 -3.9 -31.65 -14.35 -33.25 -34.2 -33.85 -41.8 -35.7 -49.1 -38.7 -61.3 -49.95 -66.1 -60.8 -63.65 -65.9 -53.9" fill="#d67154" fill-rule="evenodd" stroke="none"/>
    <path d="M-131.15 44.25 L-131.45 43.85 -130.9 44.1 -131.15 44.25 M-118.15 43.6 Q-126.95 43.7 -134.05 38.65 -135.7 37.45 -137.1 35.95 L-139.9 32.75 -139.75 31.95 Q-140.95 29.65 -140.8 27.0 -140.45 20.35 -135.9 15.5 -131.65 20.35 -125.3 21.45 -115.75 23.15 -106.0 23.2 -99.8 27.2 -105.65 34.1 -110.9 40.1 -118.15 43.6 M-125.6 17.25 L-128.2 16.15 Q-131.3 14.65 -133.95 12.55 L-133.2 11.4 Q-131.3 7.3 -129.85 3.1 -124.65 -12.4 -121.6 -28.65 -117.5 -50.25 -107.55 -70.0 -98.0 -89.05 -79.5 -99.65 L-83.05 -91.85 -82.95 -91.4 -82.95 -91.45 -82.75 -91.1 Q-83.1 -90.15 -83.05 -89.1 L-82.95 -88.9 Q-81.0 -86.7 -78.25 -88.4 -64.35 -97.2 -51.55 -107.7 -49.15 -109.75 -46.15 -110.8 -42.7 -112.05 -39.4 -113.4 L-38.7 -113.3 -25.75 -113.15 Q-40.6 -103.95 -52.2 -90.45 -55.0 -87.2 -58.65 -85.35 L-58.6 -85.25 Q-58.6 -85.15 -71.55 -77.15 -84.5 -69.2 -94.5 -51.6 -104.55 -34.0 -110.5 -25.85 -116.45 -17.75 -121.6 -1.25 -126.8 15.25 -125.6 17.25 M88.5 -40.45 L90.65 -40.25 84.05 -46.1 83.6 -46.7 87.5 -46.25 107.4 -48.05 Q116.6 -48.35 125.45 -46.35 L116.4 -44.6 Q110.85 -43.6 105.8 -40.9 L107.0 -40.0 134.05 -33.45 120.6 -31.4 Q117.3 -30.5 115.25 -27.9 L116.15 -27.75 116.8 -26.55 Q123.0 -24.5 129.05 -21.95 134.9 -19.5 140.55 -16.45 L134.55 -16.3 125.9 -19.65 Q118.15 -22.85 111.2 -28.05 107.15 -31.0 102.4 -32.9 95.0 -35.95 88.5 -40.45" fill="#df9380" fill-rule="evenodd" stroke="none"/>
    <path d="M-127.95 -43.3 L-125.35 -49.65 Q-121.0 -57.15 -114.9 -63.35 -123.65 -41.75 -127.65 -18.7 -129.5 -25.6 -129.4 -32.9 L-128.85 -33.0 Q-126.05 -35.4 -125.9 -39.1 -125.8 -41.0 -126.55 -42.85 L-127.95 -43.3 M-43.3 -55.9 Q-39.5 -49.45 -37.7 -42.05 -33.9 -26.15 -43.15 -12.7 -48.6 -4.65 -58.1 -5.85 -59.7 -6.1 -60.75 -7.2 -68.5 -15.7 -68.55 -27.7 -68.55 -34.45 -67.4 -41.05 -64.85 -55.7 -52.15 -63.0 -46.6 -61.45 -43.3 -55.9 M-48.6 -36.6 Q-56.75 -31.1 -51.2 -22.25 -48.75 -21.1 -47.3 -23.4 -42.3 -31.35 -48.6 -36.65 L-48.6 -36.6" fill="#ffffff" fill-rule="evenodd" stroke="none"/>
  </g>
</svg>
