<?xml version="1.0" encoding="UTF-8" standalone="no"?>
<svg xmlns:xlink="http://www.w3.org/1999/xlink" height="196.9px" width="291.55px" xmlns="http://www.w3.org/2000/svg">
  <g transform="matrix(1.0, 0.0, 0.0, 1.0, 145.75, 98.45)">
    <path d="M15.6 -61.95 Q22.05 -58.0 28.35 -53.5 35.15 -48.65 41.55 -43.4 52.55 -34.35 62.65 -24.25 L78.65 -9.1 Q89.95 -8.55 101.2 -10.2 L108.25 -10.9 Q121.35 -11.1 133.35 -5.7 L134.1 -5.15 134.45 -3.85 134.25 -3.35 Q122.6 -2.5 111.1 -0.55 L128.55 3.6 143.3 8.0 145.8 9.6 Q138.45 11.5 130.7 11.25 124.55 10.65 118.55 12.6 L119.15 12.45 Q125.4 14.35 131.2 17.35 136.95 20.3 142.1 24.2 L142.1 27.55 135.9 27.85 Q124.85 28.0 114.05 26.05 L98.85 22.15 Q95.4 21.2 92.4 19.25 L93.25 19.05 77.7 22.25 Q60.65 26.15 43.95 31.4 L44.4 33.85 44.35 35.0 43.9 36.0 Q40.55 40.95 36.25 45.15 30.55 50.6 23.5 54.4 L18.9 56.55 15.8 56.3 Q15.4 55.05 15.35 53.8 15.2 51.05 16.65 48.9 15.65 49.8 14.8 50.85 L13.6 52.5 12.85 53.25 -2.15 66.35 Q-8.0 71.3 -14.7 75.05 -26.0 81.3 -38.8 83.45 -49.55 85.25 -60.3 83.8 L-60.4 86.05 Q-77.5 92.6 -95.35 96.3 L-109.15 98.35 Q-114.45 98.85 -119.55 97.3 L-124.1 95.9 Q-127.15 94.85 -129.9 93.1 L-132.2 91.15 Q-135.85 87.65 -137.0 82.8 L-141.7 79.15 -143.1 77.35 -145.15 73.1 Q-145.75 71.55 -145.75 69.95 -145.7 65.35 -144.0 60.85 -142.0 55.4 -137.2 52.3 -132.0 40.15 -129.6 27.15 L-130.8 25.25 -132.3 21.4 Q-134.05 15.35 -134.0 8.95 -133.9 0.3 -130.65 -7.45 -128.3 -13.2 -124.6 -18.25 -120.15 -24.2 -113.6 -27.5 -110.8 -32.95 -107.35 -37.85 L-100.1 -47.3 Q-92.9 -55.85 -82.9 -60.95 L-77.75 -65.0 Q-75.05 -70.6 -72.6 -76.45 -69.7 -83.4 -64.5 -89.05 L-62.95 -88.9 -62.4 -86.3 Q-61.6 -82.45 -63.0 -78.75 L-51.95 -88.7 Q-44.8 -94.9 -35.95 -98.45 L-34.85 -98.05 Q-33.8 -96.75 -34.7 -95.3 L-37.7 -89.85 Q-28.25 -92.95 -18.45 -93.8 L-17.5 -92.1 -21.05 -87.8 Q-13.95 -88.2 -6.95 -86.9 -2.85 -86.35 0.7 -84.3 1.4 -83.9 1.3 -83.2 L0.35 -81.5 Q-7.25 -79.3 -13.7 -74.6 1.95 -70.5 15.6 -61.95 M7.55 -25.65 L7.1 -28.7 Q14.75 -22.75 20.2 -13.9 L22.3 -17.9 18.45 -25.8 20.75 -23.4 21.45 -23.2 23.6 -20.05 26.7 -24.65 Q27.5 -22.75 26.55 -20.75 L25.05 -17.8 31.1 -7.5 33.85 -10.1 30.05 -17.25 30.1 -18.3 35.7 -11.6 39.95 -14.45 41.3 -14.05 37.0 -9.7 40.5 -3.85 Q44.0 -6.15 47.6 -5.5 48.1 -5.45 48.6 -4.95 L41.7 -1.55 47.5 12.95 47.1 13.95 46.2 14.25 Q41.8 8.0 38.95 0.35 L36.3 2.7 Q39.1 7.6 40.1 13.1 L38.25 13.95 37.5 13.55 33.8 5.35 32.75 6.75 33.4 8.45 33.4 8.95 33.1 10.4 32.55 10.85 31.5 10.9 30.75 10.45 29.4 10.8 28.15 9.85 29.0 7.85 26.35 3.35 22.7 8.35 21.5 8.15 21.05 7.5 24.75 0.6 20.2 -7.5 15.3 3.3 14.35 3.25 13.9 2.4 18.55 -10.5 Q14.15 -18.85 7.55 -25.65 M15.5 16.35 Q18.5 12.9 22.2 10.95 L23.65 10.2 Q30.8 14.3 35.9 21.6 L42.15 28.9 Q45.6 26.0 50.9 24.7 66.75 20.75 82.8 17.85 93.15 15.95 103.25 14.95 L104.05 14.85 Q105.35 14.5 106.05 15.35 L106.2 15.6 97.0 18.2 Q114.35 24.25 132.55 24.55 L133.5 24.55 139.5 24.4 Q133.85 21.35 128.0 18.9 121.95 16.35 115.75 14.3 L115.1 13.1 114.2 12.95 Q116.25 10.35 119.55 9.45 L133.0 7.4 105.95 0.85 104.75 -0.05 Q109.8 -2.75 115.35 -3.75 L124.4 -5.5 Q115.55 -7.5 106.35 -7.2 L86.45 -5.4 82.55 -5.85 82.25 -5.9 83.0 -5.25 89.6 0.6 87.45 0.4 Q79.95 -1.35 73.8 -7.75 L61.65 -20.45 Q47.65 -35.3 31.2 -47.15 L13.7 -59.0 Q5.05 -64.55 -4.6 -67.8 -15.45 -71.55 -26.8 -72.3 L-39.75 -72.45 -40.45 -72.55 Q-43.75 -71.2 -47.2 -69.95 -50.2 -68.9 -52.6 -66.85 -65.4 -56.35 -79.3 -47.55 -82.05 -45.85 -84.0 -48.05 L-84.1 -48.25 Q-84.15 -49.3 -83.8 -50.25 L-84.0 -50.6 -84.0 -50.55 -84.1 -51.0 -80.55 -58.8 Q-99.05 -48.2 -108.6 -29.15 -118.55 -9.4 -122.65 12.2 -125.7 28.45 -130.9 43.95 -132.35 48.15 -134.25 52.25 L-135.0 53.4 Q-132.35 55.5 -129.25 57.0 L-126.65 58.1 Q-119.5 60.6 -112.05 61.25 L-105.1 61.6 Q-103.35 61.9 -101.65 62.55 -100.15 63.1 -98.75 63.95 L-107.05 64.05 Q-116.8 64.0 -126.35 62.3 -132.7 61.2 -136.95 56.35 -141.5 61.2 -141.85 67.85 -142.0 70.5 -140.8 72.8 L-140.95 73.6 -138.15 76.8 -135.1 79.5 Q-128.0 84.55 -119.2 84.45 -111.0 84.75 -103.3 81.95 L-94.5 78.5 Q-86.5 75.1 -77.95 76.7 L-82.1 78.5 Q-88.6 81.0 -95.0 83.85 -104.15 87.9 -114.15 88.05 -123.2 88.2 -131.95 84.95 -132.2 84.85 -132.5 84.7 L-132.2 85.1 -130.45 87.55 Q-127.8 91.0 -123.5 92.35 -108.5 96.95 -93.15 92.55 L-64.4 84.45 Q-63.65 84.3 -63.1 83.7 -64.5 77.8 -67.9 72.6 -68.5 71.75 -67.45 71.65 -62.55 75.25 -61.0 80.05 L-60.8 80.0 Q-41.45 82.65 -23.25 74.8 -6.75 67.65 5.5 54.3 8.2 51.4 11.6 49.75 13.9 46.4 17.65 44.35 18.9 36.3 16.85 28.25 16.3 28.5 15.8 27.95 L14.95 25.8 Q14.35 24.0 14.25 22.4 13.9 19.0 15.5 16.35 M-8.75 49.65 L-9.2 49.65 -10.4 49.35 -11.3 48.05 -11.4 47.8 Q-2.05 29.25 -5.4 9.05 L-5.55 8.2 -5.35 8.2 Q-0.5 19.8 -2.8 32.9 -4.35 41.8 -8.45 49.4 L-8.75 49.65 M10.1 36.0 L8.8 37.5 8.8 36.9 Q11.25 28.6 9.95 19.9 L11.1 21.95 Q12.45 25.1 12.35 28.55 12.2 32.55 10.1 36.0 M28.85 -5.05 L23.45 -15.7 23.8 -14.95 21.9 -11.1 27.25 -3.1 28.8 -5.05 29.95 -2.75 28.85 -5.05 M32.55 -4.8 L34.9 -0.1 Q36.2 -1.3 37.75 -2.3 L35.1 -7.7 32.55 -4.8 M30.3 -2.0 L28.95 -0.3 28.1 -1.7 31.3 3.9 32.4 2.4 30.3 -2.0 M28.3 17.6 Q26.5 17.35 25.3 14.25 L25.05 13.7 Q23.95 13.55 23.1 13.0 20.7 15.1 18.5 17.6 15.7 20.75 16.65 24.75 L17.3 23.5 20.9 18.9 Q21.85 18.6 22.4 19.5 L22.5 19.75 Q17.85 26.5 20.4 33.65 22.05 38.35 21.2 43.35 20.3 48.3 18.9 53.05 32.0 46.3 40.85 34.15 34.25 26.1 28.35 17.6 L28.2 17.4 28.3 17.6 M3.45 40.75 Q2.1 42.5 0.45 41.45 0.05 37.85 1.45 34.5 5.55 24.75 2.4 14.7 2.3 14.3 2.7 13.95 L3.4 14.45 6.4 28.9 6.4 30.15 Q5.6 34.85 4.05 39.25 L3.45 40.75 M-126.4 -8.8 L-129.0 -2.45 -127.6 -2.0 Q-126.85 -0.15 -126.95 1.75 -127.1 5.45 -129.9 7.85 L-130.45 7.95 Q-130.55 15.25 -128.7 22.15 -124.7 -0.9 -115.95 -22.5 -122.05 -16.3 -126.4 -8.8 M-79.45 -52.45 Q-72.3 -56.8 -65.45 -62.1 -60.05 -66.35 -54.2 -70.2 -47.15 -74.85 -38.9 -76.75 L-34.6 -77.6 Q-33.75 -77.55 -33.2 -76.85 L-18.05 -75.5 -13.35 -79.0 Q-10.25 -81.3 -6.8 -82.75 -9.8 -83.85 -13.2 -83.85 L-23.45 -83.75 Q-25.4 -83.7 -26.1 -85.45 -26.35 -86.0 -26.15 -86.5 L-24.9 -89.1 Q-32.0 -87.75 -38.95 -85.5 L-42.15 -84.4 -42.9 -84.95 -42.75 -86.9 -42.3 -88.7 -40.7 -92.35 Q-46.65 -88.2 -52.3 -83.5 L-64.15 -73.2 -64.8 -73.15 -66.8 -74.85 -66.9 -79.15 -79.5 -52.5 -79.6 -52.35 Q-80.25 -52.45 -79.75 -52.25 L-79.6 -52.35 -79.45 -52.45 M-53.2 -22.15 Q-65.9 -14.85 -68.45 -0.2 -69.6 6.4 -69.6 13.15 -69.55 25.15 -61.8 33.65 -60.75 34.75 -59.15 35.0 -49.65 36.2 -44.2 28.15 -34.95 14.7 -38.75 -1.2 -40.55 -8.6 -44.35 -15.05 -47.65 -20.6 -53.2 -22.15 M-66.95 -13.05 Q-61.85 -22.8 -51.0 -25.25 -39.75 -20.45 -36.75 -8.25 -34.9 -0.95 -34.3 6.65 -32.7 26.5 -49.1 36.95 -57.4 42.3 -65.2 36.2 -69.85 32.6 -71.45 26.8 -77.0 6.1 -66.95 -13.05 M-52.25 18.6 Q-57.8 9.75 -49.65 4.25 L-49.65 4.2 Q-43.35 9.5 -48.35 17.45 -49.8 19.75 -52.25 18.6" fill="#000000" fill-rule="evenodd" stroke="none"/>
    <path d="M7.55 -25.65 Q14.15 -18.85 18.55 -10.5 L13.9 2.4 14.35 3.25 15.3 3.3 20.2 -7.5 24.75 0.6 21.05 7.5 21.5 8.15 22.7 8.35 26.35 3.35 29.0 7.85 28.15 9.85 29.4 10.8 30.75 10.45 31.5 10.9 32.55 10.85 33.1 10.4 33.4 8.95 33.4 8.45 32.75 6.75 33.8 5.35 37.5 13.55 38.25 13.95 40.1 13.1 Q39.1 7.6 36.3 2.7 L38.95 0.35 Q41.8 8.0 46.2 14.25 L47.1 13.95 47.5 12.95 41.7 -1.55 48.6 -4.95 Q48.1 -5.45 47.6 -5.5 44.0 -6.15 40.5 -3.85 L37.0 -9.7 41.3 -14.05 39.95 -14.45 35.7 -11.6 30.1 -18.3 30.05 -17.25 33.85 -10.1 31.1 -7.5 25.05 -17.8 26.55 -20.75 Q27.5 -22.75 26.7 -24.65 L23.6 -20.05 21.45 -23.2 20.75 -23.4 18.45 -25.8 22.3 -17.9 20.2 -13.9 Q14.75 -22.75 7.1 -28.7 L7.55 -25.65 M15.5 16.35 Q7.6 8.2 6.35 -4.15 5.8 -8.95 4.0 -13.5 L-0.85 -25.15 Q-5.35 -35.1 -10.7 -44.7 -14.8 -51.9 -19.55 -58.2 L-18.25 -60.2 -17.4 -60.5 Q4.35 -53.75 24.05 -42.6 38.3 -34.6 50.6 -23.65 61.3 -14.2 62.35 -1.5 62.7 2.7 62.0 7.25 60.9 14.35 55.8 19.05 51.25 23.25 45.0 22.85 40.45 22.75 35.9 21.6 30.8 14.3 23.65 10.2 L22.2 10.95 Q18.5 12.9 15.5 16.35 M28.8 -5.05 L27.25 -3.1 21.9 -11.1 23.8 -14.95 23.45 -15.7 28.85 -5.05 28.8 -5.05 M30.3 -2.0 L32.4 2.4 31.3 3.9 28.1 -1.7 28.95 -0.3 30.3 -2.0 M32.55 -4.8 L35.1 -7.7 37.75 -2.3 Q36.2 -1.3 34.9 -0.1 L32.55 -4.8 M-101.65 62.55 Q-84.55 59.85 -67.45 71.65 -68.5 71.75 -67.9 72.6 -64.5 77.8 -63.1 83.7 -63.65 84.3 -64.4 84.45 L-93.15 92.55 Q-108.5 96.95 -123.5 92.35 -127.8 91.0 -130.45 87.55 L-132.2 85.1 -131.95 84.95 Q-123.2 88.2 -114.15 88.05 -104.15 87.9 -95.0 83.85 -88.6 81.0 -82.1 78.5 L-77.95 76.7 Q-86.5 75.1 -94.5 78.5 L-103.3 81.95 Q-111.0 84.75 -119.2 84.45 -111.95 80.95 -106.7 74.95 -100.85 68.05 -107.05 64.05 L-98.75 63.95 Q-100.15 63.1 -101.65 62.55" fill="#7b7b7b" fill-rule="evenodd" stroke="none"/>
    <path d="M-0.85 -25.15 L4.0 -13.5 Q5.8 -8.95 6.35 -4.15 7.6 8.2 15.5 16.35 13.9 19.0 14.25 22.4 L11.8 17.9 10.65 18.55 11.1 21.95 9.95 19.9 Q11.25 28.6 8.8 36.9 L8.8 37.5 10.1 36.0 10.55 36.05 Q15.1 31.85 14.95 25.8 L15.8 27.95 Q16.3 28.5 16.85 28.25 18.9 36.3 17.65 44.35 13.9 46.4 11.6 49.75 8.2 51.4 5.5 54.3 -6.75 67.65 -23.25 74.8 -41.45 82.65 -60.8 80.0 L-61.0 80.05 Q-62.55 75.25 -67.45 71.65 -13.95 45.2 -6.9 3.85 L-6.8 4.95 -5.4 9.05 Q-2.05 29.25 -11.4 47.8 L-11.3 48.05 -10.4 49.35 -9.2 49.65 -8.75 49.65 -7.8 49.75 Q-1.8 43.1 -0.6 34.05 0.5 25.9 0.15 17.8 -0.15 10.65 -3.95 5.4 L2.35 8.65 Q5.95 -4.5 -0.85 -25.15 M35.9 21.6 Q40.45 22.75 45.0 22.85 51.25 23.25 55.8 19.05 60.9 14.35 62.0 7.25 62.7 2.7 62.35 -1.5 69.0 7.2 82.1 10.15 L103.25 14.95 Q93.15 15.95 82.8 17.85 66.75 20.75 50.9 24.7 45.6 26.0 42.15 28.9 L35.9 21.6 M132.55 24.55 Q114.35 24.25 97.0 18.2 L106.2 15.6 Q117.75 23.9 132.55 24.55 M3.45 40.75 L5.5 39.95 Q8.45 34.5 8.95 28.4 9.3 23.8 8.05 19.45 6.7 14.7 3.65 10.75 L2.9 11.05 Q2.25 11.55 2.55 12.3 L3.4 14.45 2.7 13.95 Q2.3 14.3 2.4 14.7 5.55 24.75 1.45 34.5 0.05 37.85 0.45 41.45 2.1 42.5 3.45 40.75 M-6.9 3.85 L-6.25 3.25 -5.85 3.1 -3.95 5.4 -6.9 3.85" fill="#696969" fill-rule="evenodd" stroke="none"/>
    <path d="M62.35 -1.5 Q61.3 -14.2 50.6 -23.65 38.3 -34.6 24.05 -42.6 4.35 -53.75 -17.4 -60.5 L-18.25 -60.2 -19.55 -58.2 Q-14.8 -51.9 -10.7 -44.7 -5.35 -35.1 -0.85 -25.15 5.95 -4.5 2.35 8.65 L-3.95 5.4 -5.85 3.1 -6.25 3.25 -6.9 3.85 Q-13.95 45.2 -67.45 71.65 -84.55 59.85 -101.65 62.55 -103.35 61.9 -105.1 61.6 L-112.05 61.25 Q-119.5 60.6 -126.65 58.1 -127.85 56.1 -122.65 39.6 -117.5 23.1 -111.55 15.0 -105.6 6.85 -95.55 -10.75 -85.55 -28.35 -72.6 -36.3 L-59.65 -44.4 -59.7 -44.5 Q-56.05 -46.35 -53.25 -49.6 -41.65 -63.1 -26.8 -72.3 -15.45 -71.55 -4.6 -67.8 5.05 -64.55 13.7 -59.0 L31.2 -47.15 Q47.65 -35.3 61.65 -20.45 L73.8 -7.75 Q79.95 -1.35 87.45 0.4 93.95 4.9 101.35 7.95 106.1 9.85 110.15 12.8 117.1 18.0 124.85 21.2 L133.5 24.55 132.55 24.55 Q117.75 23.9 106.2 15.6 L106.05 15.35 Q105.35 14.5 104.05 14.85 L103.25 14.95 82.1 10.15 Q69.0 7.2 62.35 -1.5 M-66.95 -13.05 Q-77.0 6.1 -71.45 26.8 -69.85 32.6 -65.2 36.2 -57.4 42.3 -49.1 36.95 -32.7 26.5 -34.3 6.65 -34.9 -0.95 -36.75 -8.25 -39.75 -20.45 -51.0 -25.25 -61.85 -22.8 -66.95 -13.05" fill="#858585" fill-rule="evenodd" stroke="none"/>
    <path d="M87.45 0.4 L89.6 0.6 83.0 -5.25 82.55 -5.85 86.45 -5.4 106.35 -7.2 Q115.55 -7.5 124.4 -5.5 L115.35 -3.75 Q109.8 -2.75 104.75 -0.05 L105.95 0.85 133.0 7.4 119.55 9.45 Q116.25 10.35 114.2 12.95 L115.1 13.1 115.75 14.3 Q121.95 16.35 128.0 18.9 133.85 21.35 139.5 24.4 L133.5 24.55 124.85 21.2 Q117.1 18.0 110.15 12.8 106.1 9.85 101.35 7.95 93.95 4.9 87.45 0.4 M28.35 17.6 Q34.25 26.1 40.85 34.15 32.0 46.3 18.9 53.05 20.3 48.3 21.2 43.35 22.05 38.35 20.4 33.65 17.85 26.5 22.5 19.75 L22.4 19.5 Q21.85 18.6 20.9 18.9 L17.3 23.5 16.65 24.75 Q15.7 20.75 18.5 17.6 20.7 15.1 23.1 13.0 23.95 13.55 25.05 13.7 L25.3 14.25 Q26.5 17.35 28.3 17.6 L28.35 17.6 M-126.65 58.1 L-129.25 57.0 Q-132.35 55.5 -135.0 53.4 L-134.25 52.25 Q-132.35 48.15 -130.9 43.95 -125.7 28.45 -122.65 12.2 -118.55 -9.4 -108.6 -29.15 -99.05 -48.2 -80.55 -58.8 L-84.1 -51.0 -84.0 -50.55 -84.0 -50.6 -83.8 -50.25 Q-84.15 -49.3 -84.1 -48.25 L-84.0 -48.05 Q-82.05 -45.85 -79.3 -47.55 -65.4 -56.35 -52.6 -66.85 -50.2 -68.9 -47.2 -69.95 -43.75 -71.2 -40.45 -72.55 L-39.75 -72.45 -26.8 -72.3 Q-41.65 -63.1 -53.25 -49.6 -56.05 -46.35 -59.7 -44.5 L-59.65 -44.4 -72.6 -36.3 Q-85.55 -28.35 -95.55 -10.75 -105.6 6.85 -111.55 15.0 -117.5 23.1 -122.65 39.6 -127.85 56.1 -126.65 58.1 M-119.2 84.45 Q-128.0 84.55 -135.1 79.5 L-138.15 76.8 -140.95 73.6 -140.8 72.8 Q-142.0 70.5 -141.85 67.85 -141.5 61.2 -136.95 56.35 -132.7 61.2 -126.35 62.3 -116.8 64.0 -107.05 64.05 -100.85 68.05 -106.7 74.95 -111.95 80.95 -119.2 84.45 M-79.5 -52.5 L-66.9 -79.15 -66.8 -74.85 -64.8 -73.15 -64.15 -73.2 -52.3 -83.5 Q-46.65 -88.2 -40.7 -92.35 L-42.3 -88.7 -42.75 -86.9 -42.9 -84.95 -42.15 -84.4 -38.95 -85.5 Q-32.0 -87.75 -24.9 -89.1 L-26.15 -86.5 Q-26.35 -86.0 -26.1 -85.45 -25.4 -83.7 -23.45 -83.75 L-13.2 -83.85 Q-9.8 -83.85 -6.8 -82.75 -10.25 -81.3 -13.35 -79.0 L-18.05 -75.5 -33.2 -76.85 Q-33.75 -77.55 -34.6 -77.6 L-38.9 -76.75 Q-47.15 -74.85 -54.2 -70.2 -60.05 -66.35 -65.45 -62.1 -72.3 -56.8 -79.45 -52.45 L-79.5 -52.5" fill="#aaaaaa" fill-rule="evenodd" stroke="none"/>
    <path d="M83.0 -5.25 L82.25 -5.9 82.55 -5.85 83.0 -5.25" fill="#d67154" fill-rule="evenodd" stroke="none"/>
    <path d="M-3.95 5.4 Q-0.15 10.65 0.15 17.8 0.5 25.9 -0.6 34.05 -1.8 43.1 -7.8 49.75 L-8.75 49.65 -8.45 49.4 Q-4.35 41.8 -2.8 32.9 -0.5 19.8 -5.35 8.2 L-5.55 8.2 -5.4 9.05 -6.8 4.95 -6.9 3.85 -3.95 5.4 M14.95 25.8 Q15.1 31.85 10.55 36.05 L10.1 36.0 Q12.2 32.55 12.35 28.55 12.45 25.1 11.1 21.95 L10.65 18.55 11.8 17.9 14.25 22.4 Q14.35 24.0 14.95 25.8 M3.4 14.45 L2.55 12.3 Q2.25 11.55 2.9 11.05 L3.65 10.75 Q6.7 14.7 8.05 19.45 9.3 23.8 8.95 28.4 8.45 34.5 5.5 39.95 L3.45 40.75 4.05 39.25 Q5.6 34.85 6.4 30.15 L6.4 28.9 3.4 14.45" fill="#5f5f5f" fill-rule="evenodd" stroke="none"/>
    <path d="M-126.4 -8.8 Q-122.05 -16.3 -115.95 -22.5 -124.7 -0.9 -128.7 22.15 -130.55 15.25 -130.45 7.95 L-129.9 7.85 Q-127.1 5.45 -126.95 1.75 -126.85 -0.15 -127.6 -2.0 L-129.0 -2.45 -126.4 -8.8 M-53.2 -22.15 Q-47.65 -20.6 -44.35 -15.05 -40.55 -8.6 -38.75 -1.2 -34.95 14.7 -44.2 28.15 -49.65 36.2 -59.15 35.0 -60.75 34.75 -61.8 33.65 -69.55 25.15 -69.6 13.15 -69.6 6.4 -68.45 -0.2 -65.9 -14.85 -53.2 -22.15 M-52.25 18.6 Q-49.8 19.75 -48.35 17.45 -43.35 9.5 -49.65 4.2 L-49.65 4.25 Q-57.8 9.75 -52.25 18.6" fill="#ffffff" fill-rule="evenodd" stroke="none"/>
    <path d="M-132.2 85.1 L-132.5 84.7 Q-132.2 84.85 -131.95 84.95 L-132.2 85.1" fill="#df9380" fill-rule="evenodd" stroke="none"/>
  </g>
</svg>
