<?xml version="1.0" encoding="UTF-8" standalone="no"?>
<svg xmlns:xlink="http://www.w3.org/1999/xlink" height="96.7px" width="143.0px" xmlns="http://www.w3.org/2000/svg">
  <g transform="matrix(1.0, 0.0, 0.0, 1.0, 71.45, 48.35)">
    <path d="M22.6 -43.7 L43.15 -29.4 44.7 -29.7 Q46.25 -30.3 47.2 -30.95 L47.3 -31.0 Q48.5 -31.15 49.9 -31.8 60.9 -36.85 71.3 -37.95 L71.45 -37.9 71.55 -37.75 71.5 -37.55 69.7 -35.35 Q58.05 -22.2 44.1 -11.75 L37.1 -6.75 39.35 10.2 Q40.05 13.6 40.2 16.95 41.5 35.1 29.1 42.75 16.75 50.4 -9.2 47.6 L-9.35 47.65 -9.5 47.6 Q-29.1 38.95 -25.45 18.25 L-25.4 18.05 -25.25 18.0 -22.55 17.75 Q-21.25 17.35 -20.85 16.5 -39.6 16.05 -58.2 13.0 -66.35 11.65 -71.4 7.0 L-71.45 6.85 -71.45 6.7 -71.35 6.6 Q-67.45 4.55 -62.8 3.6 -41.2 -0.95 -21.2 -10.35 L-19.2 -11.55 -19.05 -11.6 -18.9 -11.55 -18.8 -11.45 -18.85 -11.25 -19.05 -10.75 -18.9 -10.7 -18.3 -10.75 Q-17.7 -11.35 -16.85 -11.5 -12.6 -17.7 -12.2 -23.5 -11.8 -29.55 -10.95 -31.1 L-10.95 -31.05 Q-10.25 -32.55 -10.3 -34.35 L-10.25 -34.5 -10.15 -34.6 Q-2.15 -36.95 5.6 -40.15 13.7 -43.5 20.7 -48.3 L20.85 -48.35 21.0 -48.3 21.1 -48.15 22.1 -45.1 22.6 -43.7" fill="#0066cc" fill-rule="evenodd" stroke="none"/>
  </g>
</svg>
