<?xml version="1.0" encoding="UTF-8" standalone="no"?>
<svg xmlns:xlink="http://www.w3.org/1999/xlink" height="153.65px" width="148.85px" xmlns="http://www.w3.org/2000/svg">
  <g transform="matrix(1.0, 0.0, 0.0, 1.0, 33.6, 122.1)">
    <path d="M52.15 -114.25 Q55.8 -107.95 59.85 -101.7 62.4 -103.6 66.35 -104.1 L66.8 -104.15 Q74.1 -105.1 73.25 -99.25 73.0 -97.5 71.65 -96.2 67.7 -92.45 63.4 -89.25 66.25 -86.35 67.45 -82.55 L71.6 -82.95 71.6 -83.05 Q78.2 -83.95 83.5 -80.15 L83.85 -79.85 Q86.65 -76.05 85.95 -72.8 L89.25 -73.55 Q99.65 -77.85 110.9 -80.7 112.5 -81.1 113.95 -80.25 L114.4 -79.95 114.7 -79.4 Q115.15 -78.65 115.25 -77.7 L115.25 -77.5 Q102.1 -60.4 84.75 -47.55 L78.65 -43.75 80.25 -38.35 Q82.65 -29.65 83.9 -20.45 85.3 -9.6 78.05 -2.2 L77.75 -2.05 89.75 0.5 90.4 0.7 91.25 1.3 91.35 1.35 Q97.15 5.8 93.4 12.85 92.75 14.1 91.4 14.95 82.8 19.8 73.65 20.9 71.5 22.2 68.85 22.1 L67.5 25.75 66.55 26.9 Q63.9 28.95 61.4 28.2 52.65 31.3 42.85 31.55 39.3 31.6 35.8 30.6 27.85 28.35 23.9 20.85 20.55 14.7 21.9 8.3 22.05 7.55 22.35 6.9 17.0 2.15 13.7 -4.05 10.65 -12.95 13.9 -21.6 -10.5 -20.3 -32.1 -30.6 -33.75 -31.4 -33.6 -33.4 L-33.25 -35.3 Q-21.55 -39.45 -9.05 -42.25 8.15 -46.2 22.6 -54.85 25.95 -62.3 27.35 -71.15 L27.95 -73.5 22.75 -72.15 Q18.35 -71.15 15.55 -74.2 L15.35 -74.75 15.35 -76.15 15.55 -77.0 Q20.3 -82.2 26.1 -85.4 25.4 -88.75 24.3 -92.05 23.3 -95.05 23.5 -98.3 30.4 -102.65 37.8 -105.9 40.85 -109.4 44.7 -111.8 42.55 -112.55 41.05 -115.55 39.1 -119.35 40.8 -122.1 46.4 -119.35 48.8 -114.05 L49.7 -114.45 51.5 -114.35 52.15 -114.25 M45.5 -113.35 L46.2 -112.75 48.2 -113.75 Q46.45 -114.3 44.75 -116.75 43.7 -118.2 42.15 -119.15 41.95 -115.7 45.5 -113.35 M44.5 -108.55 L47.5 -109.65 Q49.3 -108.35 46.75 -106.95 L46.5 -106.75 Q36.8 -101.6 26.65 -97.65 L26.25 -97.4 Q26.2 -93.65 27.5 -90.05 L28.4 -86.6 28.55 -85.35 28.5 -85.3 28.6 -84.3 28.8 -83.85 29.1 -82.6 29.1 -82.55 Q36.45 -83.3 43.5 -87.35 42.6 -87.4 42.05 -88.05 51.15 -91.65 58.75 -97.8 L58.25 -99.1 Q54.2 -103.8 51.95 -109.85 L51.2 -111.55 Q47.65 -110.45 44.5 -108.55 M79.65 -79.4 L60.75 -79.75 Q57.6 -76.9 53.05 -73.75 48.5 -70.65 46.95 -67.95 45.4 -65.25 45.45 -62.9 L45.9 -61.25 48.4 -59.7 Q50.0 -58.85 51.8 -58.5 56.35 -57.15 60.5 -59.65 L54.55 -59.8 Q50.9 -60.1 49.5 -63.35 L47.7 -63.1 50.45 -66.9 51.05 -66.85 53.05 -68.2 51.9 -65.05 52.15 -64.05 53.35 -62.9 60.0 -62.45 Q66.65 -62.6 72.55 -65.25 L81.7 -70.65 Q82.95 -71.65 83.3 -73.4 L81.4 -78.05 79.65 -79.4 M62.65 -85.0 L61.65 -88.05 Q54.6 -83.2 46.5 -79.85 38.75 -76.65 30.75 -74.3 30.8 -72.45 30.05 -70.9 29.25 -69.4 28.85 -63.45 28.45 -57.5 24.1 -51.2 23.2 -51.1 22.65 -50.45 21.6 -50.25 21.5 -50.7 L21.75 -51.3 19.7 -50.05 Q-0.3 -40.65 -21.95 -36.1 -26.55 -35.15 -30.4 -33.15 -25.4 -28.55 -17.35 -27.2 1.4 -24.1 20.3 -23.7 20.0 -22.5 18.3 -21.95 L15.6 -21.7 15.55 -21.7 15.6 -21.65 Q12.0 -1.1 31.4 7.45 L31.6 7.5 31.55 7.4 Q30.75 5.35 31.05 2.35 32.6 -14.05 41.35 -28.3 49.35 -41.4 53.15 -55.35 48.85 -55.25 45.4 -57.35 L44.75 -58.7 43.9 -59.3 Q42.1 -66.1 46.05 -71.05 L46.15 -71.1 46.0 -71.1 Q45.25 -71.15 45.1 -71.85 L45.1 -72.05 Q47.1 -79.25 53.9 -82.15 L54.55 -82.4 Q55.15 -82.2 55.4 -81.8 L56.75 -82.15 Q56.5 -80.75 55.1 -78.5 L54.75 -78.0 55.2 -78.4 Q57.0 -80.1 59.1 -81.05 57.85 -81.2 56.75 -81.7 L56.8 -82.15 57.15 -82.85 57.35 -83.05 63.2 -83.45 Q62.85 -84.15 62.65 -85.0 M52.55 -78.55 Q48.65 -75.85 46.4 -71.4 48.15 -73.5 50.9 -75.25 51.55 -76.95 52.55 -78.55 M70.55 -61.4 L70.3 -61.4 70.45 -61.1 70.55 -61.4 M77.4 -9.6 Q78.4 -12.9 78.35 -16.85 78.25 -22.7 75.7 -28.25 73.35 -33.25 71.25 -38.35 L64.35 -58.5 62.1 -57.3 Q58.6 -55.75 54.2 -55.45 55.2 -46.6 50.65 -37.5 L39.8 -17.0 Q34.3 -7.0 34.2 3.85 L34.25 5.9 36.35 8.65 37.05 9.0 Q50.75 8.6 63.8 3.75 69.75 1.45 73.3 -2.3 76.15 -5.45 77.4 -9.6 M71.25 -61.6 L77.6 -46.85 84.75 -51.9 Q98.65 -62.3 110.3 -75.45 L112.1 -77.65 Q101.75 -76.6 90.8 -71.55 89.35 -70.85 88.15 -70.7 87.2 -70.0 85.6 -69.4 L83.85 -69.1 82.65 -68.0 Q79.7 -65.7 76.55 -64.0 L71.25 -61.6 M68.8 -60.85 L65.75 -59.45 Q70.2 -48.6 75.8 -38.35 79.6 -30.9 80.75 -23.0 80.45 -28.75 78.5 -34.7 L71.35 -54.95 68.8 -60.85 M18.15 -75.6 L18.2 -75.6 18.2 -75.8 18.15 -75.6 M77.05 -2.25 L77.0 -2.2 77.1 -2.2 77.05 -2.25 M67.05 11.75 L69.95 14.35 70.1 14.6 70.1 14.8 70.05 15.35 Q69.9 17.7 69.4 19.9 71.55 19.0 73.85 18.45 L73.95 18.45 Q77.65 16.95 81.8 15.75 87.3 14.2 92.1 11.15 92.05 9.6 92.15 8.05 L91.95 5.6 90.6 4.15 Q87.05 6.9 83.15 8.65 78.95 10.5 74.35 11.25 L74.55 11.1 75.15 10.75 87.45 2.8 Q81.05 1.5 75.4 -0.55 69.65 5.05 62.65 8.15 L67.05 11.75 M24.7 8.8 L24.2 12.85 Q24.25 14.15 24.85 15.45 28.35 23.55 35.9 26.6 39.1 27.95 42.8 27.75 53.7 27.2 63.6 24.9 L65.85 23.55 66.5 18.85 66.5 18.3 66.8 15.25 66.5 15.05 Q62.75 12.7 60.3 9.1 53.6 11.55 45.85 11.9 L34.55 11.55 Q33.7 11.45 33.15 10.95 28.85 11.6 24.7 8.8 M65.15 15.8 L65.1 15.85 65.05 16.0 64.7 16.5 Q49.55 21.35 34.55 19.2 L37.15 18.95 Q50.25 17.55 63.45 14.15 64.45 14.0 65.0 14.9 L65.1 15.1 65.15 15.8" fill="#000000" fill-rule="evenodd" stroke="none"/>
    <path d="M45.5 -113.35 Q41.95 -115.7 42.15 -119.15 43.7 -118.2 44.75 -116.75 46.45 -114.3 48.2 -113.75 L46.2 -112.75 45.5 -113.35" fill="#ffcc99" fill-rule="evenodd" stroke="none"/>
    <path d="M44.5 -108.55 Q47.65 -110.45 51.2 -111.55 L51.95 -109.85 Q54.2 -103.8 58.25 -99.1 L58.75 -97.8 Q51.15 -91.65 42.05 -88.05 42.6 -87.4 43.5 -87.35 36.45 -83.3 29.1 -82.55 L29.1 -82.6 28.8 -83.85 28.6 -84.3 28.5 -85.3 28.55 -85.35 28.4 -86.6 27.5 -90.05 Q26.2 -93.65 26.25 -97.4 L26.65 -97.65 Q36.8 -101.6 46.5 -106.75 L46.75 -106.95 Q49.3 -108.35 47.5 -109.65 L44.5 -108.55" fill="#e2e1c7" fill-rule="evenodd" stroke="none"/>
    <path d="M79.65 -79.4 L81.4 -78.05 83.3 -73.4 Q82.95 -71.65 81.7 -70.65 L72.55 -65.25 Q66.65 -62.6 60.0 -62.45 L53.35 -62.9 52.15 -64.05 51.9 -65.05 53.05 -68.2 51.05 -66.85 50.45 -66.9 47.7 -63.1 49.5 -63.35 Q50.9 -60.1 54.55 -59.8 L60.5 -59.65 Q56.35 -57.15 51.8 -58.5 50.0 -58.85 48.4 -59.7 L45.9 -61.25 45.45 -62.9 Q45.4 -65.25 46.95 -67.95 48.5 -70.65 53.05 -73.75 57.6 -76.9 60.75 -79.75 L79.65 -79.4 M75.15 10.75 L75.2 10.7 Q71.3 11.8 67.1 11.7 L67.05 11.75 62.65 8.15 Q69.65 5.05 75.4 -0.55 81.05 1.5 87.45 2.8 L75.15 10.75 M24.7 8.8 Q28.85 11.6 33.15 10.95 33.7 11.45 34.55 11.55 L45.85 11.9 Q53.6 11.55 60.3 9.1 62.75 12.7 66.5 15.05 L65.2 15.45 65.15 15.8 65.1 15.1 65.0 14.9 Q64.45 14.0 63.45 14.15 50.25 17.55 37.15 18.95 29.5 16.9 24.9 8.95 L24.7 8.8" fill="#ffb409" fill-rule="evenodd" stroke="none"/>
    <path d="M34.2 3.85 Q34.3 -7.0 39.8 -17.0 L50.65 -37.5 Q55.2 -46.6 54.2 -55.45 58.6 -55.75 62.1 -57.3 L64.35 -58.5 71.25 -38.35 Q73.35 -33.25 75.7 -28.25 78.25 -22.7 78.35 -16.85 78.4 -12.9 77.4 -9.6 58.25 4.35 34.2 3.85" fill="#ffffff" fill-rule="evenodd" stroke="none"/>
    <path d="M75.15 10.75 L74.55 11.1 74.35 11.25 Q78.95 10.5 83.15 8.65 87.05 6.9 90.6 4.15 L91.95 5.6 92.15 8.05 Q92.05 9.6 92.1 11.15 87.3 14.2 81.8 15.75 77.65 16.95 73.95 18.45 L73.85 18.45 Q71.55 19.0 69.4 19.9 69.9 17.7 70.05 15.35 L70.1 14.8 70.1 14.6 69.95 14.35 67.05 11.75 67.1 11.7 Q71.3 11.8 75.2 10.7 L75.15 10.75 M66.5 15.05 L66.8 15.25 66.5 18.3 66.5 18.85 65.85 23.55 63.6 24.9 Q53.7 27.2 42.8 27.75 39.1 27.95 35.9 26.6 28.35 23.55 24.85 15.45 24.25 14.15 24.2 12.85 L24.7 8.8 24.9 8.95 Q29.5 16.9 37.15 18.95 L34.55 19.2 Q49.55 21.35 64.7 16.5 L65.05 16.0 65.1 15.85 65.15 15.8 65.2 15.45 66.5 15.05" fill="#f99108" fill-rule="evenodd" stroke="none"/>
    <path d="M34.2 3.85 Q58.25 4.35 77.4 -9.6 76.15 -5.45 73.3 -2.3 69.75 1.45 63.8 3.75 50.75 8.6 37.05 9.0 L36.35 8.65 34.25 5.9 34.2 3.85" fill="#cccccc" fill-rule="evenodd" stroke="none"/>
  </g>
</svg>
