<?xml version="1.0" encoding="UTF-8" standalone="no"?>
<svg xmlns:xlink="http://www.w3.org/1999/xlink" height="153.65px" width="148.85px" xmlns="http://www.w3.org/2000/svg">
  <g transform="matrix(1.0, 0.0, 0.0, 1.0, 33.6, 108.35)">
    <path d="M42.15 -105.4 Q41.95 -101.95 45.5 -99.6 L46.2 -99.0 48.2 -100.0 Q46.45 -100.55 44.75 -103.0 43.7 -104.45 42.15 -105.4 M51.5 -100.6 L52.15 -100.5 Q55.8 -94.2 59.85 -87.95 62.4 -89.85 66.35 -90.35 L66.8 -90.4 Q74.1 -91.35 73.25 -85.5 73.0 -83.75 71.65 -82.45 67.7 -78.7 63.4 -75.5 66.25 -72.6 67.45 -68.8 L71.6 -69.2 71.6 -69.3 Q78.2 -70.2 83.5 -66.4 L83.85 -66.1 Q86.65 -62.3 85.95 -59.05 L89.25 -59.8 Q99.65 -64.1 110.9 -66.95 112.5 -67.35 113.95 -66.5 L114.4 -66.2 114.7 -65.65 Q115.15 -64.9 115.25 -63.95 L115.25 -63.75 Q102.1 -46.65 84.75 -33.8 L78.65 -30.0 80.25 -24.6 Q82.65 -15.9 83.9 -6.7 85.3 4.15 78.05 11.55 L77.75 11.7 89.75 14.25 90.4 14.45 91.25 15.05 91.35 15.1 Q97.15 19.55 93.4 26.6 92.75 27.85 91.4 28.7 82.8 33.55 73.65 34.65 71.5 35.95 68.85 35.85 L67.5 39.5 66.55 40.65 Q63.9 42.7 61.4 41.95 52.65 45.05 42.85 45.3 39.3 45.35 35.8 44.35 27.85 42.1 23.9 34.6 20.55 28.45 21.9 22.05 22.05 21.3 22.35 20.65 17.0 15.9 13.7 9.7 10.65 0.8 13.9 -7.85 -10.5 -6.55 -32.1 -16.85 -33.75 -17.65 -33.6 -19.65 L-33.25 -21.55 -31.85 -22.0 Q-20.8 -25.85 -9.05 -28.5 8.15 -32.45 22.6 -41.1 25.95 -48.55 27.35 -57.4 L27.95 -59.75 22.75 -58.4 Q18.35 -57.4 15.55 -60.45 L15.35 -61.0 15.35 -62.4 15.55 -63.25 Q20.3 -68.45 26.1 -71.65 25.4 -75.0 24.3 -78.3 23.3 -81.3 23.5 -84.55 30.4 -88.9 37.8 -92.15 40.85 -95.65 44.7 -98.05 42.55 -98.8 41.05 -101.8 39.1 -105.6 40.8 -108.35 46.4 -105.6 48.8 -100.3 L49.7 -100.7 51.5 -100.6 M61.0 -86.2 L60.95 -86.2 61.0 -86.15 61.65 -84.4 61.55 -84.1 60.8 -83.4 Q60.5 -81.5 57.55 -79.85 53.55 -77.55 49.35 -75.65 L45.25 -73.95 Q44.3 -73.6 43.55 -73.6 L43.5 -73.6 Q42.6 -73.65 42.05 -74.3 L43.15 -74.75 46.8 -76.4 Q53.2 -79.55 58.75 -84.05 L58.25 -85.35 Q54.2 -90.05 51.95 -96.1 L51.2 -97.8 Q47.65 -96.7 44.5 -94.8 L47.5 -95.9 Q49.3 -94.6 46.75 -93.2 L46.5 -93.0 42.25 -90.8 38.75 -89.1 Q32.8 -86.3 26.65 -83.9 L26.25 -83.65 Q26.2 -79.9 27.5 -76.3 L28.4 -72.85 28.55 -71.6 28.5 -71.55 28.6 -70.55 28.8 -70.1 29.1 -68.85 29.1 -68.8 29.1 -68.75 29.0 -68.35 Q28.4 -67.7 27.6 -68.2 L26.55 -69.8 18.2 -62.05 18.15 -61.85 18.2 -61.85 Q24.1 -61.55 29.95 -62.85 L30.1 -63.0 30.15 -62.9 Q35.2 -64.05 40.25 -66.45 L55.6 -73.95 Q64.75 -78.65 70.95 -86.4 66.55 -88.3 61.0 -86.2 M31.15 15.25 Q32.85 -0.7 41.35 -14.55 49.35 -27.65 53.15 -41.6 48.85 -41.5 45.4 -43.6 L44.75 -44.95 43.9 -45.55 Q42.1 -52.35 46.05 -57.3 L46.15 -57.35 46.0 -57.35 Q45.25 -57.4 45.1 -58.1 L45.1 -58.3 Q47.1 -65.5 53.9 -68.4 L54.55 -68.65 Q55.15 -68.45 55.4 -68.05 L56.75 -68.4 Q56.5 -67.0 55.1 -64.75 L54.75 -64.25 55.2 -64.65 Q57.0 -66.35 59.1 -67.3 57.85 -67.45 56.75 -67.95 L56.8 -68.4 57.15 -69.1 57.35 -69.3 63.2 -69.7 Q62.85 -70.4 62.65 -71.25 L61.65 -74.3 Q54.6 -69.45 46.5 -66.1 38.75 -62.9 30.75 -60.55 30.8 -58.7 30.05 -57.15 29.25 -55.65 28.85 -49.7 28.45 -43.75 24.1 -37.45 23.2 -37.35 22.65 -36.7 21.6 -36.5 21.5 -36.95 L21.75 -37.55 19.7 -36.3 Q-0.3 -26.9 -21.95 -22.35 L-26.6 -21.05 -30.4 -19.4 Q-25.4 -14.8 -17.35 -13.45 1.4 -10.35 20.3 -9.95 20.0 -8.75 18.3 -8.2 L15.6 -7.95 15.55 -7.95 15.6 -7.9 Q12.0 12.65 31.4 21.2 L31.6 21.25 31.55 21.15 Q30.75 19.1 31.05 16.1 L31.15 15.25 M55.9 -62.0 L53.05 -60.0 49.75 -57.4 49.65 -57.35 Q47.8 -55.7 46.95 -54.2 45.4 -51.5 45.45 -49.15 L45.9 -47.5 48.4 -45.95 Q50.0 -45.1 51.8 -44.75 56.35 -43.4 60.5 -45.9 L54.55 -46.05 Q50.9 -46.35 49.5 -49.6 L47.7 -49.35 50.45 -53.15 51.05 -53.1 52.2 -53.85 53.05 -54.45 52.75 -53.5 51.9 -51.3 52.15 -50.3 53.35 -49.15 60.0 -48.7 Q66.65 -48.85 72.55 -51.5 L81.7 -56.9 Q82.95 -57.9 83.3 -59.65 L82.35 -61.95 81.4 -64.3 79.65 -65.65 60.75 -66.0 55.9 -62.0 M52.55 -64.8 Q48.65 -62.1 46.4 -57.65 48.15 -59.75 50.9 -61.5 51.55 -63.2 52.55 -64.8 M74.45 -40.45 L77.6 -33.1 84.75 -38.15 Q98.65 -48.55 110.3 -61.7 L112.1 -63.9 109.5 -63.55 Q100.4 -62.2 90.8 -57.8 89.35 -57.1 88.15 -56.95 87.2 -56.25 85.6 -55.65 L83.85 -55.35 82.65 -54.25 Q79.7 -51.95 76.55 -50.25 L71.25 -47.85 74.45 -40.45 M77.4 4.15 Q78.4 0.85 78.35 -3.1 78.25 -8.95 75.7 -14.5 73.35 -19.5 71.25 -24.6 L64.35 -44.75 62.1 -43.55 Q58.6 -42.0 54.2 -41.7 55.2 -32.85 50.65 -23.75 L39.8 -3.25 Q34.3 6.75 34.2 17.6 L34.25 19.65 36.35 22.4 37.05 22.75 Q50.75 22.35 63.8 17.5 69.75 15.2 73.3 11.45 76.15 8.3 77.4 4.15 M65.75 -45.7 Q70.2 -34.85 75.8 -24.6 79.6 -17.15 80.75 -9.25 80.45 -15.0 78.5 -20.95 L71.35 -41.2 68.8 -47.1 65.75 -45.7 M70.55 -47.65 L70.3 -47.65 70.45 -47.35 70.55 -47.65 M67.05 25.5 L69.95 28.1 70.1 28.35 70.1 28.55 70.05 29.1 Q69.9 31.45 69.4 33.65 71.55 32.75 73.85 32.2 L73.95 32.2 Q77.65 30.7 81.8 29.5 87.3 27.95 92.1 24.9 92.05 23.35 92.15 21.8 L91.95 19.35 90.6 17.9 Q87.05 20.65 83.15 22.4 78.95 24.25 74.35 25.0 L74.55 24.85 75.15 24.5 87.45 16.55 Q81.05 15.25 75.4 13.2 69.65 18.8 62.65 21.9 L67.05 25.5 M77.05 11.5 L77.0 11.55 77.1 11.55 77.05 11.5 M24.7 22.55 L24.2 26.6 Q24.25 27.9 24.85 29.2 28.35 37.3 35.9 40.35 39.1 41.7 42.8 41.5 53.7 40.95 63.6 38.65 L65.85 37.3 66.5 32.6 66.5 32.05 66.8 29.0 66.5 28.8 Q62.75 26.45 60.3 22.85 53.6 25.3 45.85 25.65 L34.55 25.3 Q33.7 25.2 33.15 24.7 28.85 25.35 24.7 22.55 M65.15 29.55 L65.1 29.6 65.05 29.75 64.7 30.25 Q49.55 35.1 34.55 32.95 L37.15 32.7 Q50.25 31.3 63.45 27.9 64.45 27.75 65.0 28.65 L65.1 28.85 65.15 29.55" fill="#000000" fill-rule="evenodd" stroke="none"/>
    <path d="M42.15 -105.4 Q43.7 -104.45 44.75 -103.0 46.45 -100.55 48.2 -100.0 L46.2 -99.0 45.5 -99.6 Q41.95 -101.95 42.15 -105.4" fill="#ffcc99" fill-rule="evenodd" stroke="none"/>
    <path d="M61.0 -86.2 Q66.55 -88.3 70.95 -86.4 64.75 -78.65 55.6 -73.95 L40.25 -66.45 Q35.2 -64.05 30.15 -62.9 L30.1 -63.0 29.95 -62.85 Q24.1 -61.55 18.2 -61.85 L18.2 -62.05 26.55 -69.8 27.6 -68.2 Q28.4 -67.7 29.0 -68.35 L29.1 -68.75 29.1 -68.8 Q36.45 -69.55 43.5 -73.6 L43.55 -73.6 Q44.3 -73.6 45.25 -73.95 L49.35 -75.65 Q53.55 -77.55 57.55 -79.85 60.5 -81.5 60.8 -83.4 L61.55 -84.1 61.65 -84.4 61.0 -86.15 61.0 -86.2" fill="#cccc99" fill-rule="evenodd" stroke="none"/>
    <path d="M42.25 -90.8 L46.5 -93.0 46.75 -93.2 Q49.3 -94.6 47.5 -95.9 L44.5 -94.8 Q47.65 -96.7 51.2 -97.8 L51.95 -96.1 Q54.2 -90.05 58.25 -85.35 L58.75 -84.05 Q53.2 -79.55 46.8 -76.4 L42.25 -90.8" fill="#e2e1c7" fill-rule="evenodd" stroke="none"/>
    <path d="M29.1 -68.8 L29.1 -68.85 28.8 -70.1 28.6 -70.55 28.5 -71.55 28.55 -71.6 28.4 -72.85 27.5 -76.3 Q26.2 -79.9 26.25 -83.65 L26.65 -83.9 Q32.8 -86.3 38.75 -89.1 L43.15 -74.75 42.05 -74.3 Q42.6 -73.65 43.5 -73.6 36.45 -69.55 29.1 -68.8" fill="#c6c5ae" fill-rule="evenodd" stroke="none"/>
    <path d="M38.75 -89.1 L42.25 -90.8 46.8 -76.4 43.15 -74.75 38.75 -89.1" fill="#d2d1b9" fill-rule="evenodd" stroke="none"/>
    <path d="M49.65 -57.35 L49.75 -57.4 53.05 -60.0 55.9 -62.0 Q58.25 -62.85 60.9 -62.55 71.65 -64.65 82.35 -61.95 L83.3 -59.65 58.4 -52.55 Q54.95 -52.2 52.75 -53.5 L53.05 -54.45 52.2 -53.85 Q50.55 -55.1 49.65 -57.35 M75.15 24.5 L75.2 24.45 Q71.3 25.55 67.1 25.45 L67.05 25.5 62.65 21.9 Q69.65 18.8 75.4 13.2 81.05 15.25 87.45 16.55 L75.15 24.5 M24.7 22.55 Q28.85 25.35 33.15 24.7 33.7 25.2 34.55 25.3 L45.85 25.65 Q53.6 25.3 60.3 22.85 62.75 26.45 66.5 28.8 L65.2 29.2 65.15 29.55 65.1 28.85 65.0 28.65 Q64.45 27.75 63.45 27.9 50.25 31.3 37.15 32.7 29.5 30.65 24.9 22.7 L24.7 22.55" fill="#ffb409" fill-rule="evenodd" stroke="none"/>
    <path d="M83.3 -59.65 Q82.95 -57.9 81.7 -56.9 L72.55 -51.5 Q66.65 -48.85 60.0 -48.7 L53.35 -49.15 52.15 -50.3 51.9 -51.3 52.75 -53.5 Q54.95 -52.2 58.4 -52.55 L83.3 -59.65 M52.2 -53.85 L51.05 -53.1 50.45 -53.15 47.7 -49.35 49.5 -49.6 Q50.9 -46.35 54.55 -46.05 L60.5 -45.9 Q56.35 -43.4 51.8 -44.75 50.0 -45.1 48.4 -45.95 L45.9 -47.5 45.45 -49.15 Q45.4 -51.5 46.95 -54.2 47.8 -55.7 49.65 -57.35 50.55 -55.1 52.2 -53.85 M75.15 24.5 L74.55 24.85 74.35 25.0 Q78.95 24.25 83.15 22.4 87.05 20.65 90.6 17.9 L91.95 19.35 92.15 21.8 Q92.05 23.35 92.1 24.9 87.3 27.95 81.8 29.5 77.65 30.7 73.95 32.2 L73.85 32.2 Q71.55 32.75 69.4 33.65 69.9 31.45 70.05 29.1 L70.1 28.55 70.1 28.35 69.95 28.1 67.05 25.5 67.1 25.45 Q71.3 25.55 75.2 24.45 L75.15 24.5 M66.5 28.8 L66.8 29.0 66.5 32.05 66.5 32.6 65.85 37.3 63.6 38.65 Q53.7 40.95 42.8 41.5 39.1 41.7 35.9 40.35 28.35 37.3 24.85 29.2 24.25 27.9 24.2 26.6 L24.7 22.55 24.9 22.7 Q29.5 30.65 37.15 32.7 L34.55 32.95 Q49.55 35.1 64.7 30.25 L65.05 29.75 65.1 29.6 65.15 29.55 65.2 29.2 66.5 28.8" fill="#f99108" fill-rule="evenodd" stroke="none"/>
    <path d="M55.9 -62.0 L60.75 -66.0 79.65 -65.65 81.4 -64.3 82.35 -61.95 Q71.65 -64.65 60.9 -62.55 58.25 -62.85 55.9 -62.0" fill="#ffcd5b" fill-rule="evenodd" stroke="none"/>
    <path d="M-26.6 -21.05 Q-14.55 -11.7 22.15 -11.8 17.0 -1.65 21.4 7.7 22.8 10.95 31.15 15.25 L31.05 16.1 Q30.75 19.1 31.55 21.15 L31.6 21.25 31.4 21.2 Q12.0 12.65 15.6 -7.9 L15.55 -7.95 15.6 -7.95 18.3 -8.2 Q20.0 -8.75 20.3 -9.95 1.4 -10.35 -17.35 -13.45 -25.4 -14.8 -30.4 -19.4 L-26.6 -21.05 M109.5 -63.55 L112.1 -63.9 110.3 -61.7 Q98.65 -48.55 84.75 -38.15 L77.6 -33.1 74.45 -40.45 Q91.1 -44.2 109.5 -63.55" fill="#000000" fill-opacity="0.4" fill-rule="evenodd" stroke="none"/>
    <path d="M34.2 17.6 Q34.3 6.75 39.8 -3.25 L50.65 -23.75 Q55.2 -32.85 54.2 -41.7 58.6 -42.0 62.1 -43.55 L64.35 -44.75 71.25 -24.6 Q73.35 -19.5 75.7 -14.5 78.25 -8.95 78.35 -3.1 78.4 0.85 77.4 4.15 58.25 18.1 34.2 17.6" fill="#ffffff" fill-rule="evenodd" stroke="none"/>
    <path d="M34.2 17.6 Q58.25 18.1 77.4 4.15 76.15 8.3 73.3 11.45 69.75 15.2 63.8 17.5 50.75 22.35 37.05 22.75 L36.35 22.4 34.25 19.65 34.2 17.6" fill="#cccccc" fill-rule="evenodd" stroke="none"/>
  </g>
</svg>
