<?xml version="1.0" encoding="UTF-8" standalone="no"?>
<svg xmlns:xlink="http://www.w3.org/1999/xlink" height="732.05px" width="792.65px" xmlns="http://www.w3.org/2000/svg">
  <g transform="matrix(1.0, 0.0, 0.0, 1.0, 402.15, 299.95)">
    <path d="M-177.1 293.95 Q-292.3 268.05 -245.8 180.55 -303.25 173.45 -328.9 143.3 -344.25 86.05 -375.7 30.65 L-384.25 16.1 -380.5 -71.1 -380.5 -91.9 -375.7 -93.1 -375.7 -145.4 -50.1 -145.4 Q-32.65 -149.85 -13.9 -150.1 7.2 -150.4 29.95 -145.4 L384.3 -145.4 384.3 368.05 Q382.75 374.65 379.5 379.55 L379.5 55.3 367.1 71.3 356.7 60.9 338.65 104.8 314.3 36.1 278.75 142.9 272.7 136.9 263.9 142.5 Q253.55 146.4 247.9 138.5 248.6 120.5 239.5 102.5 234.95 90.25 249.5 75.3 L231.1 64.1 Q237.85 73.3 232.7 82.5 220.35 89.7 220.7 100.1 234.65 119.0 225.5 132.1 L185.5 148.9 Q152.85 160.5 117.5 152.9 79.05 143.2 55.9 123.3 37.45 122.35 28.25 132.5 26.75 134.15 25.5 136.1 -0.75 126.35 -40.9 130.5 -108.5 139.7 -103.7 148.9 -89.2 185.25 -92.65 219.35 L-93.7 227.3 Q-99.8 258.55 -131.35 273.9 -134.05 272.35 -136.9 270.9 -142.4 263.75 -146.45 255.0 L-149.25 248.55 -150.2 246.0 -152.0 240.55 Q-154.9 231.2 -156.6 220.5 L-156.95 213.3 Q-157.0 205.7 -155.75 198.1 -154.85 192.55 -153.2 187.0 -150.35 177.35 -145.4 167.7 -165.4 150.2 -179.15 130.25 -183.85 123.5 -187.8 116.5 -188.35 132.75 -183.45 149.0 -179.65 161.55 -172.6 174.1 L-175.6 178.1 -180.1 184.85 -180.55 185.6 Q-193.0 205.4 -195.0 225.3 -183.4 258.95 -177.1 293.95 M278.7 15.75 L272.9 7.15 Q273.45 8.8 274.3 10.25 276.0 13.45 278.7 15.75 M-301.6 0.45 L-299.65 2.9 -300.9 -0.7 -301.6 0.45" fill="url(#gradient0)" fill-rule="evenodd" stroke="none"/>
    <path d="M-177.1 293.95 Q-183.4 258.95 -195.0 225.3 -193.0 205.4 -180.55 185.6 L-180.1 184.85 -175.6 178.1 -172.6 174.1 Q-179.65 161.55 -183.45 149.0 -188.35 132.75 -187.8 116.5 -183.85 123.5 -179.15 130.25 -165.4 150.2 -145.4 167.7 -150.35 177.35 -153.2 187.0 -154.85 192.55 -155.75 198.1 -157.0 205.7 -156.95 213.3 L-156.6 220.5 Q-154.9 231.2 -152.0 240.55 L-150.2 246.0 -149.25 248.55 -146.45 255.0 Q-142.4 263.75 -136.9 270.9 L-135.0 273.3 Q-150.55 295.25 -142.2 338.1 -133.15 356.55 -115.4 368.5 L-105.4 420.65 Q-113.95 416.8 -123.6 413.75 L-124.6 378.9 -155.0 340.5 -153.4 293.3 -145.4 274.9 -169.4 231.7 -167.8 203.7 -167.8 203.75 -183.0 230.1 -167.0 270.9 -167.0 294.9 -165.4 327.7 -175.4 354.1 -187.7 360.85 Q-190.8 354.35 -194.05 348.75 -182.25 345.5 -176.25 328.65 -174.6 323.9 -173.4 318.1 -174.95 305.95 -177.1 293.95" fill="#0187b9" fill-rule="evenodd" stroke="none"/>
    <path d="M-123.6 413.75 Q-144.75 406.9 -171.0 403.7 -178.95 378.9 -187.7 360.85 L-175.4 354.1 -165.4 327.7 -167.0 294.9 -167.0 270.9 -183.0 230.1 -167.8 203.75 -167.8 203.7 -169.4 231.7 -145.4 274.9 -153.4 293.3 -155.0 340.5 -124.6 378.9 -123.6 413.75" fill="#006891" fill-rule="evenodd" stroke="none"/>
    <path d="M-177.1 293.95 Q-183.4 258.95 -195.0 225.3 -193.0 205.4 -180.55 185.6 L-180.1 184.85 -175.6 178.1 -172.6 174.1 Q-179.65 161.55 -183.45 149.0 -188.35 132.75 -187.8 116.5 -183.85 123.5 -179.15 130.25 -165.4 150.2 -145.4 167.7 -150.35 177.35 -153.2 187.0 -154.85 192.55 -155.75 198.1 -157.0 205.7 -156.95 213.3 L-156.6 220.5 Q-154.9 231.2 -152.0 240.55 L-150.2 246.0 -149.25 248.55 -146.45 255.0 Q-142.4 263.75 -136.9 270.9 L-135.0 273.3 Q-150.55 295.25 -142.2 338.1 -133.15 356.55 -115.4 368.5 L-105.4 420.65 M-194.05 348.75 Q-182.25 345.5 -176.25 328.65 -174.6 323.9 -173.4 318.1 -174.95 305.95 -177.1 293.95 Z" fill="none" stroke="#000000" stroke-linecap="round" stroke-linejoin="miter-clip" stroke-miterlimit="3.0" stroke-width="2.5"/>
    <path d="M390.5 -152.95 L379.5 -152.95 379.5 -203.5 -380.5 -192.1 -390.45 -160.95 -390.45 -299.95 390.5 -299.95 390.5 -152.95" fill="#ffffff" fill-rule="evenodd" stroke="none"/>
    <path d="M379.5 -152.95 L390.5 -152.95 390.5 430.85 379.5 430.85 379.5 386.4 379.5 379.55 Q382.75 374.65 384.3 368.05 L384.3 -145.4 379.5 -145.4 379.5 -152.95 M-13.9 -150.1 Q-32.65 -149.85 -50.1 -145.4 L-54.9 -145.4 Q-35.2 -150.4 -13.9 -150.1 M-19.75 379.5 L-32.0 379.3 -32.2 379.15 -19.75 379.5 M-380.5 379.75 L-380.5 398.1 -380.5 430.85 -390.45 430.85 -390.45 382.7 -386.55 381.55 -380.5 379.75" fill="url(#gradient1)" fill-rule="evenodd" stroke="none"/>
    <path d="M-390.45 -160.95 L-380.5 -192.1 379.5 -203.5 379.5 -152.95 379.5 -145.4 29.95 -145.4 Q7.2 -150.4 -13.9 -150.1 -35.2 -150.4 -54.9 -145.4 L-375.7 -145.4 -390.45 -131.4 -390.45 -160.95" fill="#edfefd" fill-rule="evenodd" stroke="none"/>
    <path d="M278.75 142.9 L313.25 39.35 314.3 36.1 315.6 39.8 338.65 104.8 356.7 60.9 367.1 71.3 377.9 57.4 379.5 55.3 379.5 72.9 377.3 80.5 375.1 88.1 363.1 79.3 351.1 111.3 367.9 150.5 361.5 191.3 314.3 80.9 264.7 226.5 255.1 210.5 201.5 210.5 179.1 260.9 161.5 252.1 121.5 252.1 49.35 377.25 31.0 378.4 74.6 300.65 83.1 285.5 113.5 231.3 176.0 231.35 193.5 189.7 263.1 189.7 267.6 176.3 274.8 154.65 278.75 142.9 M377.9 57.4 L377.3 80.5 377.9 57.4 M354.3 148.9 L338.65 104.8 354.3 148.9 M315.6 39.8 L313.25 39.35 315.6 39.8 M262.3 196.9 L267.6 176.3 262.3 196.9 M176.0 231.35 L170.3 244.9 176.0 231.35" fill="#7978a6" fill-rule="evenodd" stroke="none"/>
    <path d="M49.35 377.25 L121.5 252.1 161.5 252.1 179.1 260.9 201.5 210.5 255.1 210.5 264.7 226.5 314.3 80.9 361.5 191.3 367.9 150.5 351.1 111.3 363.1 79.3 375.1 88.1 377.3 80.5 379.5 72.9 379.5 368.05 Q373.75 392.9 343.2 393.8 325.1 394.35 298.3 386.5 263.65 378.8 227.95 374.65 L155.4 370.85 118.4 371.8 Q97.4 372.65 76.1 374.85 L49.35 377.25 M329.2 220.75 L328.5 219.1 327.8 218.2 Q326.3 216.7 324.1 216.7 321.95 216.7 320.45 218.2 318.9 219.75 318.9 221.9 318.9 224.05 320.45 225.6 321.95 227.1 324.1 227.1 326.3 227.1 327.8 225.6 329.3 224.05 329.3 221.9 L329.2 220.75 M360.7 328.7 L360.0 327.8 Q358.5 326.3 356.3 326.3 354.15 326.3 352.65 327.8 351.1 329.35 351.1 331.5 351.1 333.65 352.65 335.2 354.15 336.7 356.3 336.7 358.5 336.7 360.0 335.2 361.5 333.65 361.5 331.5 L361.4 330.35 Q361.2 329.45 360.7 328.7 M145.7 337.9 L145.0 337.0 Q143.5 335.5 141.3 335.5 139.15 335.5 137.65 337.0 136.1 338.55 136.1 340.7 136.1 342.85 137.65 344.4 139.15 345.9 141.3 345.9 143.5 345.9 145.0 344.4 146.5 342.85 146.5 340.7 L146.4 339.55 145.7 337.9 M310.5 286.7 L309.8 285.8 Q308.3 284.3 306.1 284.3 303.95 284.3 302.45 285.8 300.9 287.35 300.9 289.5 300.9 291.65 302.45 293.2 303.95 294.7 306.1 294.7 308.3 294.7 309.8 293.2 311.3 291.65 311.3 289.5 L311.2 288.35 310.5 286.7 M232.5 252.3 L231.8 251.4 Q230.3 249.9 228.1 249.9 225.95 249.9 224.45 251.4 222.9 252.95 222.9 255.1 222.9 257.25 224.45 258.8 225.95 260.3 228.1 260.3 230.3 260.3 231.8 258.8 233.3 257.25 233.3 255.1 L233.2 253.95 232.5 252.3 M226.3 304.1 L225.6 303.2 Q224.1 301.7 221.9 301.7 219.75 301.7 218.25 303.2 216.7 304.75 216.7 306.9 216.7 309.05 218.25 310.6 219.75 312.1 221.9 312.1 224.1 312.1 225.6 310.6 227.1 309.05 227.1 306.9 L227.0 305.75 226.3 304.1 M301.3 353.5 L300.6 352.6 Q299.1 351.1 296.9 351.1 294.75 351.1 293.25 352.6 291.7 354.15 291.7 356.3 291.7 358.45 293.25 360.0 294.75 361.5 296.9 361.5 299.1 361.5 300.6 360.0 302.1 358.45 302.1 356.3 L302.0 355.15 301.3 353.5" fill="#58597e" fill-rule="evenodd" stroke="none"/>
    <path d="M329.2 220.75 L329.3 221.9 Q329.3 224.05 327.8 225.6 326.3 227.1 324.1 227.1 321.95 227.1 320.45 225.6 318.9 224.05 318.9 221.9 318.9 219.75 320.45 218.2 321.95 216.7 324.1 216.7 326.3 216.7 327.8 218.2 L328.5 219.1 328.3 218.85 Q327.4 217.9 326.05 217.9 324.7 217.9 323.8 218.85 322.85 219.8 322.85 221.1 322.85 222.45 323.8 223.4 324.7 224.3 326.05 224.3 327.4 224.3 328.3 223.4 329.2 222.45 329.2 221.1 L329.2 220.75 M360.7 328.7 L360.5 328.45 Q359.6 327.5 358.25 327.5 356.9 327.5 356.0 328.45 355.05 329.4 355.05 330.7 355.05 332.05 356.0 333.0 356.9 333.9 358.25 333.9 359.6 333.9 360.5 333.0 361.4 332.05 361.4 330.7 L361.4 330.35 361.5 331.5 Q361.5 333.65 360.0 335.2 358.5 336.7 356.3 336.7 354.15 336.7 352.65 335.2 351.1 333.65 351.1 331.5 351.1 329.35 352.65 327.8 354.15 326.3 356.3 326.3 358.5 326.3 360.0 327.8 L360.7 328.7 M145.7 337.9 L145.5 337.65 Q144.6 336.7 143.25 336.7 141.9 336.7 141.0 337.65 140.05 338.6 140.05 339.9 140.05 341.25 141.0 342.2 141.9 343.1 143.25 343.1 144.6 343.1 145.5 342.2 146.4 341.25 146.4 339.9 L146.4 339.55 146.5 340.7 Q146.5 342.85 145.0 344.4 143.5 345.9 141.3 345.9 139.15 345.9 137.65 344.4 136.1 342.85 136.1 340.7 136.1 338.55 137.65 337.0 139.15 335.5 141.3 335.5 143.5 335.5 145.0 337.0 L145.7 337.9 M311.2 288.35 L311.3 289.5 Q311.3 291.65 309.8 293.2 308.3 294.7 306.1 294.7 303.95 294.7 302.45 293.2 300.9 291.65 300.9 289.5 300.9 287.35 302.45 285.8 303.95 284.3 306.1 284.3 308.3 284.3 309.8 285.8 L310.5 286.7 310.3 286.45 Q309.4 285.5 308.05 285.5 306.7 285.5 305.8 286.45 304.85 287.4 304.85 288.7 304.85 290.05 305.8 291.0 306.7 291.9 308.05 291.9 309.4 291.9 310.3 291.0 311.2 290.05 311.2 288.7 L311.2 288.35 M232.5 252.3 L232.3 252.05 Q231.4 251.1 230.05 251.1 228.7 251.1 227.8 252.05 226.85 253.0 226.85 254.3 226.85 255.65 227.8 256.6 228.7 257.5 230.05 257.5 231.4 257.5 232.3 256.6 233.2 255.65 233.2 254.3 L233.2 253.95 233.3 255.1 Q233.3 257.25 231.8 258.8 230.3 260.3 228.1 260.3 225.95 260.3 224.45 258.8 222.9 257.25 222.9 255.1 222.9 252.95 224.45 251.4 225.95 249.9 228.1 249.9 230.3 249.9 231.8 251.4 L232.5 252.3 M227.0 305.75 L227.1 306.9 Q227.1 309.05 225.6 310.6 224.1 312.1 221.9 312.1 219.75 312.1 218.25 310.6 216.7 309.05 216.7 306.9 216.7 304.75 218.25 303.2 219.75 301.7 221.9 301.7 224.1 301.7 225.6 303.2 L226.3 304.1 226.1 303.85 Q225.2 302.9 223.85 302.9 222.5 302.9 221.6 303.85 220.65 304.8 220.65 306.1 220.65 307.45 221.6 308.4 222.5 309.3 223.85 309.3 225.2 309.3 226.1 308.4 227.0 307.45 227.0 306.1 L227.0 305.75 M301.3 353.5 L301.1 353.25 Q300.2 352.3 298.85 352.3 297.5 352.3 296.6 353.25 295.65 354.2 295.65 355.5 295.65 356.85 296.6 357.8 297.5 358.7 298.85 358.7 300.2 358.7 301.1 357.8 302.0 356.85 302.0 355.5 L302.0 355.15 302.1 356.3 Q302.1 358.45 300.6 360.0 299.1 361.5 296.9 361.5 294.75 361.5 293.25 360.0 291.7 358.45 291.7 356.3 291.7 354.15 293.25 352.6 294.75 351.1 296.9 351.1 299.1 351.1 300.6 352.6 L301.3 353.5" fill="#7978aa" fill-rule="evenodd" stroke="none"/>
    <path d="M328.5 219.1 L329.2 220.75 329.2 221.1 Q329.2 222.45 328.3 223.4 327.4 224.3 326.05 224.3 324.7 224.3 323.8 223.4 322.85 222.45 322.85 221.1 322.85 219.8 323.8 218.85 324.7 217.9 326.05 217.9 327.4 217.9 328.3 218.85 L328.5 219.1 M361.4 330.35 L361.4 330.7 Q361.4 332.05 360.5 333.0 359.6 333.9 358.25 333.9 356.9 333.9 356.0 333.0 355.05 332.05 355.05 330.7 355.05 329.4 356.0 328.45 356.9 327.5 358.25 327.5 359.6 327.5 360.5 328.45 L360.7 328.7 Q361.2 329.45 361.4 330.35 M146.4 339.55 L146.4 339.9 Q146.4 341.25 145.5 342.2 144.6 343.1 143.25 343.1 141.9 343.1 141.0 342.2 140.05 341.25 140.05 339.9 140.05 338.6 141.0 337.65 141.9 336.7 143.25 336.7 144.6 336.7 145.5 337.65 L145.7 337.9 146.4 339.55 M311.2 288.35 L311.2 288.7 Q311.2 290.05 310.3 291.0 309.4 291.9 308.05 291.9 306.7 291.9 305.8 291.0 304.85 290.05 304.85 288.7 304.85 287.4 305.8 286.45 306.7 285.5 308.05 285.5 309.4 285.5 310.3 286.45 L310.5 286.7 311.2 288.35 M233.2 253.95 L233.2 254.3 Q233.2 255.65 232.3 256.6 231.4 257.5 230.05 257.5 228.7 257.5 227.8 256.6 226.85 255.65 226.85 254.3 226.85 253.0 227.8 252.05 228.7 251.1 230.05 251.1 231.4 251.1 232.3 252.05 L232.5 252.3 233.2 253.95 M226.3 304.1 L227.0 305.75 227.0 306.1 Q227.0 307.45 226.1 308.4 225.2 309.3 223.85 309.3 222.5 309.3 221.6 308.4 220.65 307.45 220.65 306.1 220.65 304.8 221.6 303.85 222.5 302.9 223.85 302.9 225.2 302.9 226.1 303.85 L226.3 304.1 M302.0 355.15 L302.0 355.5 Q302.0 356.85 301.1 357.8 300.2 358.7 298.85 358.7 297.5 358.7 296.6 357.8 295.65 356.85 295.65 355.5 295.65 354.2 296.6 353.25 297.5 352.3 298.85 352.3 300.2 352.3 301.1 353.25 L301.3 353.5 302.0 355.15" fill="#000000" fill-rule="evenodd" stroke="none"/>
    <path d="M379.5 379.55 L379.5 386.4 Q370.35 425.95 298.3 404.85 192.2 381.25 76.1 393.2 3.9 400.8 -67.3 396.05 -182.7 373.65 -304.9 376.05 -354.6 379.15 -380.5 398.1 L-380.5 379.75 -375.7 376.5 Q-350.2 360.5 -304.9 357.7 L-294.8 357.6 -278.9 357.5 -119.15 368.6 Q-93.05 372.7 -67.3 377.7 L-44.05 378.95 -32.0 379.3 -19.75 379.5 -7.5 379.55 Q6.9 379.5 21.4 378.95 L31.0 378.4 49.35 377.25 76.1 374.85 Q97.4 372.65 118.4 371.8 L155.4 370.85 227.95 374.65 Q263.65 378.8 298.3 386.5 325.1 394.35 343.2 393.8 373.75 392.9 379.5 368.05 L379.5 379.55" fill="#b7d8df" fill-rule="evenodd" stroke="none"/>
    <path d="M-92.65 219.35 Q-89.2 185.25 -103.7 148.9 -108.5 139.7 -40.9 130.5 -0.75 126.35 25.5 136.1 26.75 134.15 28.25 132.5 37.45 122.35 55.9 123.3 79.05 143.2 117.5 152.9 152.85 160.5 185.5 148.9 L225.5 132.1 Q234.65 119.0 220.7 100.1 220.35 89.7 232.7 82.5 237.85 73.3 231.1 64.1 L249.5 75.3 Q234.95 90.25 239.5 102.5 248.6 120.5 247.9 138.5 253.55 146.4 263.9 142.5 L272.7 136.9 278.75 142.9 274.8 154.65 269.5 146.5 Q246.3 158.95 223.1 159.3 L240.7 143.3 236.7 115.3 234.3 137.7 210.3 152.1 Q183.9 163.05 157.5 165.7 117.1 166.9 81.5 158.5 L45.1 135.3 55.1 159.3 31.9 145.7 29.5 161.7 -6.5 148.9 -71.3 148.9 Q-88.0 148.85 -87.3 163.3 L-82.5 193.7 Q-82.05 212.05 -92.65 219.35 M-95.7 313.3 L-94.5 278.5 Q-94.4 267.35 -84.9 259.3 -74.8 259.55 -67.3 252.1 -73.7 242.5 -71.3 232.9 -60.5 241.6 -50.5 243.3 L-27.3 264.1 -15.3 269.7 Q0.75 263.0 4.7 247.3 L3.9 269.7 Q5.6 279.8 24.7 269.7 L51.1 246.5 62.3 226.5 61.5 269.7 Q66.45 285.7 77.5 286.5 L83.1 285.5 74.6 300.65 Q53.6 291.7 50.7 259.55 32.45 280.9 4.7 283.3 -23.7 280.45 -48.9 258.5 L-58.9 248.1 -48.9 258.5 Q-68.1 255.1 -75.3 269.7 -89.3 301.2 -80.1 338.5 L-95.7 313.3" fill="#0187b9" fill-rule="evenodd" stroke="none"/>
    <path d="M-131.35 273.9 Q-99.8 258.55 -93.7 227.3 L-92.65 219.35 Q-82.05 212.05 -82.5 193.7 L-87.3 163.3 Q-88.0 148.85 -71.3 148.9 L-6.5 148.9 29.5 161.7 31.9 145.7 55.1 159.3 45.1 135.3 81.5 158.5 Q117.1 166.9 157.5 165.7 183.9 163.05 210.3 152.1 L234.3 137.7 236.7 115.3 240.7 143.3 223.1 159.3 Q246.3 158.95 269.5 146.5 L274.8 154.65 267.6 176.3 263.1 189.7 193.5 189.7 176.0 231.35 113.5 231.3 83.1 285.5 77.5 286.5 Q66.45 285.7 61.5 269.7 L62.3 226.5 51.1 246.5 24.7 269.7 Q5.6 279.8 3.9 269.7 L4.7 247.3 Q0.75 263.0 -15.3 269.7 L-27.3 264.1 -50.5 243.3 Q-60.5 241.6 -71.3 232.9 -73.7 242.5 -67.3 252.1 -74.8 259.55 -84.9 259.3 -94.4 267.35 -94.5 278.5 L-95.7 313.3 -111.3 288.1 Q-120.25 280.25 -131.35 273.9" fill="#006891" fill-rule="evenodd" stroke="none"/>
    <path d="M379.5 386.4 L379.5 430.85 379.5 432.1 -380.5 432.1 -380.5 430.85 -380.5 398.1 Q-354.6 379.15 -304.9 376.05 -182.7 373.65 -67.3 396.05 3.9 400.8 76.1 393.2 192.2 381.25 298.3 404.85 370.35 425.95 379.5 386.4 M-44.05 378.95 L-67.3 377.7 Q-93.05 372.7 -119.15 368.6 L-278.9 357.5 -294.8 357.6 -304.9 357.7 Q-350.2 360.5 -375.7 376.5 L-380.5 379.75 -386.55 381.55 -384.25 70.0 -358.5 156.9 Q-335.75 188.95 -296.1 192.1 L-260.1 233.7 Q-253.6 219.5 -260.1 200.1 -236.4 212.7 -227.3 256.9 -223.7 266.5 -207.3 266.5 -158.9 273.45 -118.5 298.5 L-91.3 344.1 Q-60.95 353.2 -44.2 378.7 L-44.05 378.95" fill="#70b8c8" fill-rule="evenodd" stroke="none"/>
    <path d="M-384.25 16.1 L-375.7 30.65 Q-344.25 86.05 -328.9 143.3 -302.5 174.3 -242.5 180.9 -237.5 187.3 -232.75 195.55 -229.5 201.15 -226.4 207.65 -217.65 225.7 -209.7 250.5 -183.45 253.7 -162.3 260.55 -152.65 263.6 -144.1 267.45 -137.4 270.45 -131.35 273.9 -120.25 280.25 -111.3 288.1 L-95.7 313.3 -80.1 338.5 Q-55.45 348.25 -46.5 362.5 -44.5 370.85 -32.2 379.15 L-32.0 379.3 -44.05 378.95 -44.2 378.7 Q-60.95 353.2 -91.3 344.1 L-118.5 298.5 Q-158.9 273.45 -207.3 266.5 -223.7 266.5 -227.3 256.9 -236.4 212.7 -260.1 200.1 -253.6 219.5 -260.1 233.7 L-296.1 192.1 Q-335.75 188.95 -358.5 156.9 L-384.25 70.0 -384.25 16.1" fill="#bbd6e3" fill-rule="evenodd" stroke="none"/>
    <path d="M278.7 15.75 Q276.0 13.45 274.3 10.25 273.45 8.8 272.9 7.15 L278.7 15.75 M-301.6 0.45 L-300.9 -0.7 -299.65 2.9 -301.6 0.45" fill="url(#gradient2)" fill-rule="evenodd" stroke="none"/>
    <path d="M-375.7 -145.4 L-375.7 -93.1 -380.5 -91.9 -380.5 -71.1 -384.25 16.1 -384.25 70.0 -386.55 381.55 -390.45 382.7 -390.45 -131.4 -375.7 -145.4 M31.0 378.4 L21.4 378.95 Q6.9 379.5 -7.5 379.55 L-19.75 379.5 -32.2 379.15 Q-44.5 370.85 -46.5 362.5 -55.45 348.25 -80.1 338.5 -89.3 301.2 -75.3 269.7 -68.1 255.1 -48.9 258.5 -23.7 280.45 4.7 283.3 32.45 280.9 50.7 259.55 53.6 291.7 74.6 300.65 L31.0 378.4" fill="url(#gradient3)" fill-rule="evenodd" stroke="none"/>
    <path d="M-384.25 16.1 L-375.7 30.65 Q-344.25 86.05 -328.9 143.3 -302.5 174.3 -242.5 180.9 -237.5 187.3 -232.75 195.55 -229.5 201.15 -226.4 207.65 -217.65 225.7 -209.7 250.5 -183.45 253.7 -162.3 260.55 -152.65 263.6 -144.1 267.45 -137.4 270.45 -131.35 273.9 -99.8 258.55 -93.7 227.3 L-92.65 219.35 Q-89.2 185.25 -103.7 148.9 -108.5 139.7 -40.9 130.5 -0.75 126.35 25.5 136.1 26.75 134.15 28.25 132.5 37.45 122.35 55.9 123.3 79.05 143.2 117.5 152.9 152.85 160.5 185.5 148.9 L225.5 132.1 Q234.65 119.0 220.7 100.1 220.35 89.7 232.7 82.5 237.85 73.3 231.1 64.1 L249.5 75.3 Q234.95 90.25 239.5 102.5 248.6 120.5 247.9 138.5 253.55 146.4 263.9 142.5 L272.7 136.9 278.75 142.9 313.25 39.35 314.3 36.1 315.6 39.8 338.65 104.8 356.7 60.9 367.1 71.3 377.9 57.4 379.5 55.3 379.5 50.5 M377.3 80.5 L377.9 57.4 M379.5 72.9 L379.5 55.3 M379.5 72.9 L379.5 368.05 Q373.75 392.9 343.2 393.8 325.1 394.35 298.3 386.5 263.65 378.8 227.95 374.65 L155.4 370.85 118.4 371.8 Q97.4 372.65 76.1 374.85 L49.35 377.25 31.0 378.4 21.4 378.95 Q6.9 379.5 -7.5 379.55 L-19.75 379.5 -32.0 379.3 -44.05 378.95 -67.3 377.7 Q-93.05 372.7 -119.15 368.6 L-278.9 357.5 -294.8 357.6 -304.9 357.7 Q-350.2 360.5 -375.7 376.5 L-380.5 379.75 -386.55 381.55 -390.45 382.7 -400.9 385.7 M338.65 104.8 L354.3 148.9 M313.25 39.35 L315.6 39.8 M274.8 154.65 L278.75 142.9 M83.1 285.5 L113.5 231.3 176.0 231.35 193.5 189.7 263.1 189.7 267.6 176.3 274.8 154.65 M267.6 176.3 L262.3 196.9 M83.1 285.5 L74.6 300.65 31.0 378.4 M-48.9 258.5 Q-23.7 280.45 4.7 283.3 32.45 280.9 50.7 259.55 53.6 291.7 74.6 300.65 M170.3 244.9 L176.0 231.35 M-48.9 258.5 L-58.9 248.1 M-80.1 338.5 Q-89.3 301.2 -75.3 269.7 -68.1 255.1 -48.9 258.5 M-131.35 273.9 Q-120.25 280.25 -111.3 288.1 L-95.7 313.3 -80.1 338.5 Q-55.45 348.25 -46.5 362.5 -44.5 370.85 -32.2 379.15 L-32.0 379.3" fill="none" stroke="#000000" stroke-linecap="round" stroke-linejoin="miter-clip" stroke-miterlimit="3.0" stroke-width="2.5"/>
  </g>
  <defs>
    <linearGradient gradientTransform="matrix(0.0, 0.3477, -0.2209, 0.0, 3.65, 153.6)" gradientUnits="userSpaceOnUse" id="gradient0" spreadMethod="pad" x1="-819.2" x2="819.2">
      <stop offset="0.0" stop-color="#60a3f4"/>
      <stop offset="0.5058823529411764" stop-color="#2b59a4"/>
      <stop offset="1.0" stop-color="#1d4e89"/>
    </linearGradient>
    <linearGradient gradientTransform="matrix(0.0, 0.3477, -0.2209, 0.0, -4.1, 146.05)" gradientUnits="userSpaceOnUse" id="gradient1" spreadMethod="pad" x1="-819.2" x2="819.2">
      <stop offset="0.0" stop-color="#b8d9e4"/>
      <stop offset="0.5058823529411764" stop-color="#508bd3"/>
      <stop offset="1.0" stop-color="#254578"/>
    </linearGradient>
    <linearGradient gradientTransform="matrix(0.0, 0.3477, -0.2209, 0.0, 3.65, 153.6)" gradientUnits="userSpaceOnUse" id="gradient2" spreadMethod="pad" x1="-819.2" x2="819.2">
      <stop offset="0.0" stop-color="#65b3cd"/>
      <stop offset="0.5058823529411764" stop-color="#516bd3"/>
      <stop offset="1.0" stop-color="#254578"/>
    </linearGradient>
    <linearGradient gradientTransform="matrix(0.0, 0.3477, -0.2209, 0.0, 3.65, 153.6)" gradientUnits="userSpaceOnUse" id="gradient3" spreadMethod="pad" x1="-819.2" x2="819.2">
      <stop offset="0.0" stop-color="#60a3f4"/>
      <stop offset="0.5058823529411764" stop-color="#2b59a4"/>
      <stop offset="1.0" stop-color="#1d4e89"/>
    </linearGradient>
  </defs>
</svg>
