<?xml version="1.0" encoding="UTF-8" standalone="no"?>
<svg xmlns:xlink="http://www.w3.org/1999/xlink" height="100.55px" width="96.3px" xmlns="http://www.w3.org/2000/svg">
  <g transform="matrix(1.0, 0.0, 0.0, 1.0, 124.2, -34.8)">
    <path d="M-64.95 41.2 L-66.25 39.85 Q-66.7 38.4 -66.2 37.15 -65.65 35.9 -64.35 35.2 L-63.2 34.8 Q-57.85 35.15 -54.25 40.25 -52.5 42.65 -51.1 45.5 L-50.7 46.15 Q-59.25 44.95 -64.95 41.2 M-65.3 39.5 Q-64.75 40.5 -63.9 40.85 -58.3 43.4 -52.2 44.75 L-53.4 43.05 Q-56.15 38.65 -60.65 36.3 -63.7 34.65 -65.3 37.75 -65.7 38.55 -65.3 39.5 M-53.8 50.15 Q-56.0 46.55 -59.3 48.55 L-59.1 49.4 -57.5 51.45 Q-55.55 53.6 -53.15 52.95 -53.0 51.25 -53.8 50.15 M-52.85 54.1 Q-57.45 54.25 -59.8 49.75 -61.15 47.05 -57.95 47.0 -53.0 47.45 -52.05 52.35 -51.7 53.7 -52.85 54.1 M-41.75 82.55 L-40.4 82.55 Q-42.05 81.9 -43.7 80.4 -45.65 78.35 -46.85 77.45 -49.15 75.8 -50.15 77.75 -51.4 80.1 -48.65 81.4 L-45.9 82.15 -41.75 82.55 M-48.25 75.8 Q-47.0 75.85 -45.95 76.85 L-41.55 80.7 Q-39.15 82.35 -37.6 82.25 -37.8 83.85 -40.35 83.75 -47.65 82.95 -49.4 82.0 -51.1 81.1 -51.4 79.95 -51.85 78.35 -50.9 76.85 L-50.6 76.5 -49.75 76.0 -48.25 75.8 M-36.1 67.0 Q-35.45 67.85 -33.3 67.8 L-33.9 66.7 Q-34.6 65.75 -35.7 65.6 L-36.55 65.35 -36.1 67.0 M-123.35 81.75 Q-124.1 81.7 -124.2 79.6 -124.3 77.4 -123.35 77.1 -121.05 77.15 -120.15 79.2 L-120.25 79.6 Q-120.8 81.9 -123.35 81.75 M-32.65 68.7 L-35.15 68.35 Q-38.25 67.6 -37.25 64.6 -34.85 64.45 -33.25 66.15 -31.65 67.75 -32.65 68.7 M-121.2 80.0 Q-120.65 79.4 -121.35 78.75 -122.1 78.05 -123.2 77.8 -123.6 78.2 -123.55 78.95 L-123.45 80.4 Q-123.3 81.15 -122.35 80.7 L-121.2 80.0 M-101.1 87.0 Q-100.7 86.25 -100.7 85.35 -102.65 83.35 -105.1 84.35 -105.35 84.8 -105.25 85.8 L-105.0 86.4 Q-103.6 89.6 -101.1 87.0 M-105.6 83.55 L-101.35 83.65 -100.6 84.35 Q-98.55 87.35 -102.3 89.0 L-104.1 88.85 Q-105.7 87.85 -106.15 86.15 -106.55 84.5 -105.6 83.55 M-80.3 102.75 L-80.0 102.1 Q-80.35 100.6 -81.5 99.8 -82.65 98.95 -85.2 98.15 L-87.7 98.0 Q-88.9 98.35 -89.05 99.45 L-88.65 100.25 Q-87.75 101.55 -86.65 102.35 -83.2 104.8 -80.3 102.75 M-89.85 98.95 Q-89.85 97.75 -88.85 97.55 -85.55 96.65 -82.55 98.0 -79.65 99.35 -79.0 101.9 -80.25 106.0 -84.5 104.75 -86.85 103.95 -88.45 102.3 -90.15 100.55 -89.85 98.95 M-33.1 110.95 Q-35.05 106.8 -39.55 105.9 L-41.2 105.7 -37.35 111.7 -40.75 112.5 -39.45 113.25 Q-35.15 114.25 -32.05 117.5 -32.15 116.5 -32.55 115.7 -33.75 113.35 -32.85 111.95 L-33.1 110.95 M-33.7 117.2 Q-34.5 116.2 -35.8 115.8 -39.5 114.75 -42.25 112.2 L-38.85 111.05 Q-40.4 108.65 -42.2 106.3 -42.8 105.55 -42.3 104.85 L-38.1 105.25 Q-32.1 107.4 -31.85 113.55 L-31.4 115.0 Q-30.65 118.2 -31.4 120.85 -32.45 118.9 -33.7 117.2 M-31.5 134.5 Q-30.4 134.5 -29.65 134.1 -28.9 133.7 -28.9 133.15 L-31.45 133.0 -31.5 134.5 M-32.8 125.0 L-34.25 124.85 -33.85 125.95 -33.2 127.0 Q-32.0 126.1 -32.8 125.0 M-30.5 135.3 Q-32.05 135.65 -32.5 133.85 L-31.3 132.05 Q-29.25 131.5 -27.9 133.0 -28.35 135.05 -30.5 135.3 M-32.2 127.45 L-33.1 128.2 Q-35.1 126.8 -35.0 124.4 -32.25 123.15 -31.8 125.7 -31.65 126.6 -32.2 127.45" fill="#000000" fill-rule="evenodd" stroke="none"/>
    <path d="M-53.4 43.05 Q-56.6 39.7 -61.0 37.8 -64.35 36.3 -65.3 39.5 -65.7 38.55 -65.3 37.75 -63.7 34.65 -60.65 36.3 -56.15 38.65 -53.4 43.05 M-59.1 49.4 L-59.3 48.55 Q-56.0 46.55 -53.8 50.15 L-58.45 48.95 -59.1 49.4 M-48.65 81.4 Q-51.4 80.1 -50.15 77.75 -49.15 75.8 -46.85 77.45 -45.65 78.35 -43.7 80.4 -42.05 81.9 -40.4 82.55 L-41.75 82.55 -47.25 78.45 Q-49.35 78.1 -49.15 80.6 L-48.65 81.4 M-33.9 66.7 L-35.8 66.65 -36.1 67.0 -36.55 65.35 -35.7 65.6 Q-34.6 65.75 -33.9 66.7 M-123.55 78.95 Q-123.6 78.2 -123.2 77.8 -122.1 78.05 -121.35 78.75 -120.65 79.4 -121.2 80.0 -121.85 78.85 -122.75 78.8 L-123.55 78.95 M-105.25 85.8 Q-105.35 84.8 -105.1 84.35 -102.65 83.35 -100.7 85.35 -100.7 86.25 -101.1 87.0 -102.0 85.3 -103.05 85.3 -104.25 85.0 -105.25 85.8 M-88.65 100.25 L-89.05 99.45 Q-88.9 98.35 -87.7 98.0 L-85.2 98.15 Q-82.65 98.95 -81.5 99.8 -80.35 100.6 -80.0 102.1 L-80.3 102.75 -82.25 100.75 Q-85.55 98.4 -88.65 100.25 M-33.1 110.95 Q-35.4 108.55 -38.6 107.9 L-38.35 109.15 Q-36.25 110.75 -35.35 113.05 L-39.45 113.25 -40.75 112.5 -37.35 111.7 -41.2 105.7 -39.55 105.9 Q-35.05 106.8 -33.1 110.95 M-31.5 134.5 L-31.45 133.0 -28.9 133.15 -31.5 134.5 M-33.85 125.95 L-34.25 124.85 -32.8 125.0 Q-33.45 125.2 -33.85 125.95" fill="#3ac5f4" fill-rule="evenodd" stroke="none"/>
    <path d="M-53.4 43.05 L-52.2 44.75 Q-58.3 43.4 -63.9 40.85 -64.75 40.5 -65.3 39.5 -64.35 36.3 -61.0 37.8 -56.6 39.7 -53.4 43.05 M-59.1 49.4 L-58.45 48.95 -53.8 50.15 Q-53.0 51.25 -53.15 52.95 -55.55 53.6 -57.5 51.45 L-59.1 49.4 M-48.65 81.4 L-49.15 80.6 Q-49.35 78.1 -47.25 78.45 L-41.75 82.55 -45.9 82.15 -48.65 81.4 M-33.9 66.7 L-33.3 67.8 Q-35.45 67.85 -36.1 67.0 L-35.8 66.65 -33.9 66.7 M-121.2 80.0 L-122.35 80.7 Q-123.3 81.15 -123.45 80.4 L-123.55 78.95 -122.75 78.8 Q-121.85 78.85 -121.2 80.0 M-101.1 87.0 Q-103.6 89.6 -105.0 86.4 L-105.25 85.8 Q-104.25 85.0 -103.05 85.3 -102.0 85.3 -101.1 87.0 M-80.3 102.75 Q-83.2 104.8 -86.65 102.35 -87.75 101.55 -88.65 100.25 -85.55 98.4 -82.25 100.75 L-80.3 102.75 M-39.45 113.25 L-35.35 113.05 Q-36.25 110.75 -38.35 109.15 L-38.6 107.9 Q-35.4 108.55 -33.1 110.95 L-32.85 111.95 Q-33.75 113.35 -32.55 115.7 -32.15 116.5 -32.05 117.5 -35.15 114.25 -39.45 113.25 M-28.9 133.15 Q-28.9 133.7 -29.65 134.1 -30.4 134.5 -31.5 134.5 L-28.9 133.15 M-32.8 125.0 Q-32.0 126.1 -33.2 127.0 L-33.85 125.95 Q-33.45 125.2 -32.8 125.0" fill="#0097cc" fill-rule="evenodd" stroke="none"/>
  </g>
</svg>
