<?xml version="1.0" encoding="UTF-8" standalone="no"?>
<svg xmlns:xlink="http://www.w3.org/1999/xlink" height="425.7px" width="452.95px" xmlns="http://www.w3.org/2000/svg">
  <g transform="matrix(1.0, 0.0, 0.0, 1.0, 4.85, 3.95)">
    <path d="M87.95 -0.35 Q95.4 -4.3 103.0 -3.9 110.65 -3.45 117.65 1.35 175.9 -1.5 223.15 32.4 226.0 34.4 229.2 35.45 287.5 53.4 327.4 98.4 348.3 121.9 347.2 151.9 345.05 153.3 341.35 150.2 337.65 147.05 327.4 144.15 317.15 141.2 305.0 139.75 323.45 206.25 324.45 275.45 329.8 279.1 335.7 280.85 341.75 282.45 347.9 281.4 406.2 270.85 444.75 315.1 450.9 322.15 445.7 329.05 442.55 333.2 437.6 333.75 400.55 334.95 364.4 343.3 356.35 368.45 361.25 394.5 363.35 405.75 356.75 414.5 350.7 422.5 340.5 421.65 315.7 419.6 298.6 399.7 291.65 391.65 287.2 381.85 271.3 347.2 264.15 309.15 189.4 292.95 137.0 236.95 121.8 250.95 101.3 253.7 90.0 255.05 79.05 253.5 60.25 251.0 57.65 234.2 57.35 232.05 58.75 230.85 77.4 214.0 102.2 206.2 63.75 196.65 39.85 165.5 22.95 165.75 6.05 174.75 4.45 175.9 2.15 171.7 0.25 168.15 -1.7 158.5 -4.45 144.7 -4.85 127.05 -5.35 105.0 4.45 84.2 14.85 62.1 37.95 38.85 46.5 3.75 82.8 -0.3 L85.55 -0.05 87.95 -0.35 M437.9 326.55 Q443.4 319.55 433.95 311.45 405.15 287.0 366.85 287.65 348.7 288.8 330.95 285.45 325.3 284.25 321.25 280.45 323.75 293.4 329.95 304.9 L328.3 303.15 Q320.95 295.3 318.9 284.3 L316.75 271.15 317.15 273.0 Q313.3 221.3 304.6 170.35 300.95 149.1 292.1 129.5 280.2 103.25 263.4 80.0 L262.9 79.35 263.2 79.6 Q274.4 88.6 282.15 100.75 L284.35 104.25 Q295.9 103.75 306.3 108.65 311.3 111.0 315.5 114.6 303.25 109.5 290.25 108.05 L286.45 107.65 291.9 117.35 Q304.5 119.15 314.75 126.25 L318.35 128.9 294.0 121.55 299.15 133.0 Q321.05 133.95 340.45 144.25 334.6 124.35 323.9 106.45 290.15 61.05 234.35 45.75 L230.65 44.35 Q244.55 55.35 255.85 69.0 224.2 40.0 185.85 21.55 148.0 3.45 108.25 17.95 56.75 36.7 28.5 84.3 32.45 73.0 40.0 63.5 L46.3 55.7 Q80.9 17.9 131.35 9.45 L137.35 8.8 Q71.8 7.4 31.25 59.45 0.5 99.0 4.05 148.9 3.35 159.0 9.25 165.5 9.95 166.25 11.2 165.8 42.25 153.4 74.6 156.55 88.1 157.85 99.35 165.55 103.75 168.5 107.65 172.35 L109.45 171.6 Q115.05 176.85 115.1 184.6 87.15 153.2 45.75 161.1 80.3 199.3 132.75 205.7 L139.1 206.95 Q156.9 209.7 174.8 211.7 L177.5 212.15 Q149.75 213.05 122.3 207.1 L128.65 214.85 Q185.65 286.3 275.6 305.95 283.35 307.65 290.85 310.2 L303.25 315.0 274.3 307.25 270.25 306.35 Q277.75 335.25 287.1 363.75 298.95 399.95 334.95 412.7 353.0 419.05 353.7 399.2 L350.1 398.55 Q310.2 383.4 298.75 341.7 L298.35 339.85 Q312.7 378.5 350.1 394.15 L352.45 394.85 Q351.15 384.1 350.85 373.55 L350.8 372.35 Q328.35 359.95 318.4 336.3 331.2 356.25 351.55 368.5 351.95 346.65 366.2 330.2 L370.25 327.0 363.2 336.9 Q383.75 329.45 405.95 328.75 L401.15 324.55 Q385.3 310.25 365.25 301.9 L361.3 300.15 Q389.95 305.3 409.4 326.75 L410.45 328.25 417.35 328.4 428.3 328.4 Q434.05 328.0 437.9 326.55 M108.1 191.5 Q98.2 189.35 96.65 179.3 L96.35 177.5 Q107.05 193.55 123.8 183.55 121.25 174.35 116.3 166.1 127.0 173.3 128.35 185.6 L127.85 185.95 Q123.9 189.05 119.0 190.4 115.5 191.6 111.6 191.55 L108.1 191.5 M152.4 137.65 Q121.05 146.7 107.75 115.75 104.6 108.3 103.8 100.1 L105.75 103.0 Q109.45 114.75 116.65 124.45 L117.6 125.55 Q130.5 139.75 148.65 134.3 L149.3 134.05 Q138.2 135.95 128.1 130.4 117.7 123.55 113.45 111.8 L112.6 109.45 Q106.85 86.55 120.2 67.3 L120.85 66.4 Q139.6 43.2 166.15 52.1 171.75 53.9 175.8 58.0 192.9 76.6 183.5 100.8 L183.1 101.9 181.7 105.55 Q174.65 123.85 158.55 134.4 L152.4 137.65 M122.6 49.35 Q128.45 26.35 153.75 29.6 166.9 31.45 176.25 41.1 179.7 44.55 182.0 48.75 L182.25 49.15 Q185.55 54.5 185.85 60.8 L185.85 62.25 185.5 63.65 Q180.25 52.45 172.3 43.15 L170.8 41.55 Q149.8 25.0 129.75 41.3 125.5 44.7 122.95 49.65 L122.6 49.35 M229.45 121.3 L235.0 104.2 Q235.9 111.95 233.45 119.15 214.1 176.2 158.3 197.9 L179.75 182.9 Q211.05 160.25 227.65 125.25 L229.45 121.3 M201.0 191.3 L201.15 192.9 Q200.45 214.45 218.8 227.25 245.35 248.85 275.5 238.6 L275.45 238.25 Q266.7 218.85 246.7 209.65 L243.9 207.9 Q227.1 198.2 210.85 187.5 L214.1 188.1 Q220.15 190.45 226.05 193.35 L225.25 190.55 Q222.9 183.85 217.15 179.6 L217.4 178.35 Q194.4 198.35 164.85 201.5 184.3 195.9 201.3 185.05 L215.2 175.0 Q231.65 161.35 245.1 144.4 234.35 164.15 218.1 177.8 220.6 178.8 222.7 180.4 230.3 186.1 230.35 195.5 259.8 207.3 278.1 232.95 283.05 239.85 275.1 242.15 237.8 253.2 210.1 224.5 207.95 222.2 205.5 220.4 192.9 211.35 194.25 195.9 L198.6 206.35 197.7 200.45 197.7 200.3 Q197.35 195.05 201.0 191.3 M230.85 217.95 Q220.1 205.05 210.3 191.25 L211.85 192.3 Q221.3 199.45 228.0 209.45 L240.15 223.35 230.85 217.95 M248.95 215.5 Q234.75 209.5 223.35 198.75 L223.25 198.1 Q223.2 197.45 223.8 197.0 L224.5 196.75 242.95 209.4 252.4 217.4 248.95 215.5 M225.3 197.9 L225.35 197.85 225.3 197.85 225.3 197.9 M289.35 141.45 Q289.05 144.05 287.6 145.65 286.45 146.95 284.85 147.3 282.75 147.6 280.8 146.85 L279.45 146.3 Q279.05 158.55 266.65 151.65 259.7 147.8 257.35 139.95 L258.6 141.65 257.7 139.8 Q263.3 150.05 274.3 152.0 280.45 140.65 272.35 130.3 278.45 135.4 279.4 143.25 280.45 144.4 282.1 144.35 L284.0 144.45 Q285.15 143.6 286.1 141.35 287.1 139.1 286.95 136.65 L286.5 128.0 287.5 130.35 Q289.5 135.7 289.35 141.45 M291.2 178.1 Q291.7 171.95 290.9 166.1 L292.1 167.8 Q296.5 174.85 291.7 181.6 275.5 185.2 271.1 168.1 L270.65 166.0 Q275.25 176.95 286.15 181.5 289.5 181.1 291.2 178.1 M293.75 200.85 Q304.15 196.25 299.15 185.55 L299.3 185.0 302.2 190.6 302.85 195.35 Q302.3 201.05 293.95 203.4 L290.75 202.9 289.1 202.35 Q277.75 215.95 265.8 202.5 263.85 200.35 262.7 197.45 L263.2 197.95 263.1 197.2 Q271.0 210.45 281.95 203.05 289.95 197.6 286.7 187.95 289.85 193.45 289.9 199.7 L293.75 200.85 M300.95 254.4 Q287.9 261.15 282.1 246.6 L282.6 247.05 281.95 245.95 283.55 247.85 Q291.95 257.6 300.05 250.9 302.4 244.75 298.95 238.7 297.95 237.0 297.3 235.2 L297.0 234.35 297.2 234.55 298.85 236.1 Q307.8 244.6 300.95 254.4 M296.15 225.6 Q289.05 224.45 286.4 217.3 L287.5 218.4 Q290.95 221.9 295.75 222.05 305.35 221.6 303.0 210.3 L303.6 211.4 Q309.05 223.55 296.15 225.6 M139.95 131.05 Q171.25 131.05 180.3 99.55 182.3 92.65 182.65 85.65 182.45 56.75 154.65 52.65 150.1 51.85 145.6 53.5 114.9 64.7 114.7 97.15 114.5 124.3 139.95 131.05 M107.25 2.95 Q104.4 1.95 100.75 2.45 98.2 2.75 94.05 4.0 L93.3 4.15 95.65 4.5 Q97.55 4.75 99.2 5.85 100.8 6.9 101.35 8.1 L113.25 5.95 107.25 2.95 M97.65 8.2 Q93.75 5.85 89.15 5.55 55.0 5.15 44.85 37.8 68.4 17.2 98.7 8.85 L97.65 8.2 M121.95 239.35 L135.3 229.25 130.6 223.95 Q124.55 232.7 113.15 234.45 121.4 228.9 128.5 221.8 L124.25 216.5 Q118.85 220.75 112.1 222.15 105.85 223.4 99.4 223.6 110.8 219.6 121.55 214.1 L122.2 213.7 119.55 209.5 118.75 207.95 Q89.55 216.55 64.5 233.7 62.05 235.35 64.3 237.55 69.15 242.45 75.6 244.45 98.6 251.2 119.95 240.45 L120.95 239.9 121.95 239.35 M103.9 206.7 L104.0 205.7 103.3 206.4 103.0 205.95 102.2 206.2 103.9 206.7 M104.85 206.2 Q105.5 206.6 104.9 206.05 L104.85 206.2" fill="#000000" fill-rule="evenodd" stroke="none"/>
    <path d="M328.3 303.15 Q336.35 315.45 320.75 317.6 314.2 318.55 308.0 316.55 L305.0 315.15 307.05 316.25 303.25 315.0 290.85 310.2 300.25 312.85 Q278.65 302.6 257.5 291.65 245.45 285.4 232.95 279.75 185.4 258.4 157.55 214.95 L154.25 215.2 Q141.4 216.25 128.65 214.85 L122.3 207.1 Q149.75 213.05 177.5 212.15 L174.8 211.7 Q156.9 209.7 139.1 206.95 135.05 205.0 128.9 200.05 121.55 194.15 119.0 190.4 123.9 189.05 127.85 185.95 L128.35 185.6 Q127.0 173.3 116.3 166.1 L117.15 166.5 115.55 163.25 119.8 167.0 Q138.5 183.25 160.3 172.35 169.15 167.95 172.9 159.1 182.25 137.35 158.55 134.4 174.65 123.85 181.7 105.55 L183.1 101.9 Q194.4 84.75 187.2 66.05 L185.85 62.25 185.85 60.8 Q185.55 54.5 182.25 49.15 L182.9 49.25 Q231.0 58.05 267.3 91.4 L268.8 93.45 269.45 93.45 263.4 80.0 Q280.2 103.25 292.1 129.5 300.95 149.1 304.6 170.35 313.3 221.3 317.15 273.0 L316.75 271.15 318.9 284.3 Q320.95 295.3 328.3 303.15 M263.2 79.6 L258.8 68.75 Q297.75 76.4 323.9 106.45 334.6 124.35 340.45 144.25 321.05 133.95 299.15 133.0 L294.0 121.55 318.35 128.9 314.75 126.25 Q304.5 119.15 291.9 117.35 L286.45 107.65 290.25 108.05 Q303.25 109.5 315.5 114.6 311.3 111.0 306.3 108.65 295.9 103.75 284.35 104.25 L282.15 100.75 Q274.4 88.6 263.2 79.6 M179.75 182.9 L158.3 197.9 Q214.1 176.2 233.45 119.15 235.9 111.95 235.0 104.2 L229.45 121.3 Q204.6 160.3 166.75 186.65 L167.3 186.55 Q173.75 185.25 179.75 182.9 M201.0 191.3 Q197.35 195.05 197.7 200.3 L197.7 200.45 194.7 194.2 194.25 195.9 Q192.9 211.35 205.5 220.4 207.95 222.2 210.1 224.5 237.8 253.2 275.1 242.15 283.05 239.85 278.1 232.95 259.8 207.3 230.35 195.5 230.3 186.1 222.7 180.4 220.6 178.8 218.1 177.8 234.35 164.15 245.1 144.4 231.65 161.35 215.2 175.0 220.15 168.6 222.1 160.8 203.2 180.25 180.75 192.75 191.75 190.9 201.3 185.05 184.3 195.9 164.85 201.5 194.4 198.35 217.4 178.35 L217.15 179.6 Q222.9 183.85 225.25 190.55 L226.05 193.35 Q220.15 190.45 214.1 188.1 L210.85 187.5 210.8 187.6 Q204.75 186.55 201.0 191.3 M289.35 141.45 Q289.5 135.7 287.5 130.35 L286.5 128.0 286.95 136.65 Q279.75 122.85 269.75 111.2 L269.3 110.85 Q278.45 126.85 284.0 144.45 L282.1 144.35 Q280.45 144.4 279.4 143.25 278.45 135.4 272.35 130.3 280.45 140.65 274.3 152.0 263.3 150.05 257.7 139.8 L258.6 141.65 257.35 139.95 Q259.7 147.8 266.65 151.65 279.05 158.55 279.45 146.3 L280.8 146.85 Q282.75 147.6 284.85 147.3 288.75 160.55 290.65 174.1 L291.2 178.1 Q289.5 181.1 286.15 181.5 275.25 176.95 270.65 166.0 L271.1 168.1 Q275.5 185.2 291.7 181.6 L293.75 200.85 289.9 199.7 Q289.85 193.45 286.7 187.95 289.95 197.6 281.95 203.05 271.0 210.45 263.1 197.2 L263.2 197.95 262.7 197.45 Q263.85 200.35 265.8 202.5 277.75 215.95 289.1 202.35 L290.75 202.9 293.95 203.4 295.75 222.05 Q290.95 221.9 287.5 218.4 L286.4 217.3 Q289.05 224.45 296.15 225.6 L297.2 234.55 297.0 234.35 297.3 235.2 300.05 250.9 Q291.95 257.6 283.55 247.85 L281.95 245.95 282.6 247.05 282.1 246.6 Q287.9 261.15 300.95 254.4 304.65 268.65 311.85 281.6 L313.25 284.05 Q309.2 239.55 302.85 195.35 L302.2 190.6 300.1 176.8 Q297.25 158.45 289.35 141.45" fill="url(#gradient0)" fill-rule="evenodd" stroke="none"/>
    <path d="M328.3 303.15 L329.95 304.9 Q323.75 293.4 321.25 280.45 325.3 284.25 330.95 285.45 348.7 288.8 366.85 287.65 405.15 287.0 433.95 311.45 443.4 319.55 437.9 326.55 L428.3 328.4 417.35 328.4 409.4 326.75 Q389.95 305.3 361.3 300.15 L365.25 301.9 Q385.3 310.25 401.15 324.55 380.75 316.5 366.45 329.9 L366.2 330.2 Q351.95 346.65 351.55 368.5 331.2 356.25 318.4 336.3 328.35 359.95 350.8 372.35 L350.85 373.55 Q350.3 378.5 350.85 381.65 350.05 385.0 350.1 394.15 312.7 378.5 298.35 339.85 L298.75 341.7 Q310.2 383.4 350.1 398.55 350.0 412.85 335.75 407.4 311.3 398.15 301.55 372.65 288.95 339.55 274.3 307.25 L303.25 315.0 307.05 316.25 314.15 320.95 308.0 316.55 Q314.2 318.55 320.75 317.6 336.35 315.45 328.3 303.15 M218.8 227.25 Q200.45 214.45 201.15 192.9 L201.0 191.3 Q204.75 186.55 210.8 187.6 L210.85 187.5 Q227.1 198.2 243.9 207.9 L246.7 209.65 242.95 209.4 224.5 196.75 223.8 197.0 Q223.2 197.45 223.25 198.1 L223.35 198.75 Q234.75 209.5 248.95 215.5 L252.45 218.55 228.0 209.45 Q221.3 199.45 211.85 192.3 L210.3 191.25 Q220.1 205.05 230.85 217.95 222.25 214.85 213.1 215.2 L213.9 218.45 Q215.15 223.5 218.8 227.25 M225.3 197.9 L225.3 197.85 225.35 197.85 225.3 197.9" fill="#dfb022" fill-rule="evenodd" stroke="none"/>
    <path d="M274.3 307.25 Q288.95 339.55 301.55 372.65 311.3 398.15 335.75 407.4 350.0 412.85 350.1 398.55 L353.7 399.2 Q353.0 419.05 334.95 412.7 298.95 399.95 287.1 363.75 277.75 335.25 270.25 306.35 L274.3 307.25 M350.1 394.15 Q350.05 385.0 350.85 381.65 350.3 378.5 350.85 373.55 351.15 384.1 352.45 394.85 L350.1 394.15 M366.2 330.2 L366.45 329.9 Q380.75 316.5 401.15 324.55 L405.95 328.75 Q383.75 329.45 363.2 336.9 L370.25 327.0 366.2 330.2 M409.4 326.75 L417.35 328.4 410.45 328.25 409.4 326.75" fill="url(#gradient1)" fill-rule="evenodd" stroke="none"/>
    <path d="M428.3 328.4 L437.9 326.55 Q434.05 328.0 428.3 328.4" fill="#ffcc33" fill-rule="evenodd" stroke="none"/>
    <path d="M263.4 80.0 L269.45 93.45 268.8 93.45 267.3 91.4 Q230.65 52.35 178.5 41.35 L176.25 41.1 Q166.9 31.45 153.75 29.6 128.45 26.35 122.6 49.35 L122.15 51.05 Q120.35 58.45 120.85 66.4 L120.2 67.3 Q106.85 86.55 112.6 109.45 106.65 101.45 106.15 91.55 L106.05 89.5 105.7 93.85 105.35 94.1 Q104.0 98.45 105.75 103.0 L103.8 100.1 Q104.6 108.3 107.75 115.75 121.05 146.7 152.4 137.65 165.0 141.75 166.55 152.35 167.1 156.3 164.0 159.2 144.95 177.25 119.8 167.0 L115.55 163.25 117.15 166.5 116.3 166.1 Q121.25 174.35 123.8 183.55 107.05 193.55 96.35 177.5 L96.65 179.3 Q98.2 189.35 108.1 191.5 L113.15 194.7 Q122.65 200.9 132.75 205.7 80.3 199.3 45.75 161.1 87.15 153.2 115.1 184.6 115.05 176.85 109.45 171.6 L107.65 172.35 Q103.75 168.5 99.35 165.55 88.1 157.85 74.6 156.55 42.25 153.4 11.2 165.8 9.95 166.25 9.25 165.5 3.35 159.0 4.05 148.9 L4.3 145.3 Q8.0 92.75 46.3 55.7 L40.0 63.5 Q32.45 73.0 28.5 84.3 56.75 36.7 108.25 17.95 148.0 3.45 185.85 21.55 224.2 40.0 255.85 69.0 244.55 55.35 230.65 44.35 L234.35 45.75 Q290.15 61.05 323.9 106.45 297.75 76.4 258.8 68.75 L263.2 79.6 262.9 79.35 263.4 80.0" fill="url(#gradient2)" fill-rule="evenodd" stroke="none"/>
    <path d="M132.75 205.7 Q122.65 200.9 113.15 194.7 L108.1 191.5 111.6 191.55 Q115.5 191.6 119.0 190.4 121.55 194.15 128.9 200.05 135.05 205.0 139.1 206.95 L132.75 205.7 M119.8 167.0 Q144.95 177.25 164.0 159.2 167.1 156.3 166.55 152.35 165.0 141.75 152.4 137.65 L158.55 134.4 Q182.25 137.35 172.9 159.1 169.15 167.95 160.3 172.35 138.5 183.25 119.8 167.0 M176.25 41.1 L178.5 41.35 Q230.65 52.35 267.3 91.4 231.0 58.05 182.9 49.25 L182.25 49.15 182.0 48.75 Q179.7 44.55 176.25 41.1" fill="#e5a319" fill-rule="evenodd" stroke="none"/>
    <path d="M170.8 41.55 Q143.15 32.0 123.05 52.2 L123.55 49.2 122.95 49.65 Q125.5 44.7 129.75 41.3 149.8 25.0 170.8 41.55" fill="#ffcb65" fill-rule="evenodd" stroke="none"/>
    <path d="M120.85 66.4 Q120.35 58.45 122.15 51.05 L122.6 49.35 122.95 49.65 123.55 49.2 123.05 52.2 Q143.15 32.0 170.8 41.55 L172.3 43.15 Q180.25 52.45 185.5 63.65 L186.35 71.1 Q182.9 64.55 177.5 59.5 L175.8 58.0 Q171.75 53.9 166.15 52.1 139.6 43.2 120.85 66.4" fill="url(#gradient3)" fill-rule="evenodd" stroke="none"/>
    <path d="M185.85 62.25 L187.2 66.05 Q194.4 84.75 183.1 101.9 L183.5 100.8 Q192.9 76.6 175.8 58.0 L177.5 59.5 Q182.9 64.55 186.35 71.1 L185.5 63.65 185.85 62.25 M117.6 125.55 Q122.85 129.85 129.35 131.85 L128.1 130.4 Q138.2 135.95 149.3 134.05 L148.65 134.3 Q130.5 139.75 117.6 125.55" fill="#de7812" fill-rule="evenodd" stroke="none"/>
    <path d="M182.65 85.65 Q176.1 66.1 155.4 69.25 128.9 73.45 124.8 100.75 121.55 122.55 139.95 131.05 114.5 124.3 114.7 97.15 114.9 64.7 145.6 53.5 150.1 51.85 154.65 52.65 182.45 56.75 182.65 85.65 M97.65 8.2 L98.7 8.85 Q68.4 17.2 44.85 37.8 55.0 5.15 89.15 5.55 93.75 5.85 97.65 8.2" fill="#ffffff" fill-rule="evenodd" stroke="none"/>
    <path d="M182.65 85.65 Q182.3 92.65 180.3 99.55 171.25 131.05 139.95 131.05 121.55 122.55 124.8 100.75 128.9 73.45 155.4 69.25 176.1 66.1 182.65 85.65" fill="url(#gradient4)" fill-rule="evenodd" stroke="none"/>
    <path d="M229.45 121.3 L227.65 125.25 Q211.05 160.25 179.75 182.9 173.75 185.25 167.3 186.55 L166.75 186.65 Q204.6 160.3 229.45 121.3 M215.2 175.0 L201.3 185.05 Q191.75 190.9 180.75 192.75 203.2 180.25 222.1 160.8 220.15 168.6 215.2 175.0" fill="url(#gradient5)" fill-rule="evenodd" stroke="none"/>
    <path d="M197.7 200.45 L198.6 206.35 194.25 195.9 194.7 194.2 197.7 200.45" fill="url(#gradient6)" fill-rule="evenodd" stroke="none"/>
    <path d="M284.85 147.3 Q286.45 146.95 287.6 145.65 289.05 144.05 289.35 141.45 297.25 158.45 300.1 176.8 L302.2 190.6 299.3 185.0 299.15 185.55 Q304.15 196.25 293.75 200.85 L291.7 181.6 Q296.5 174.85 292.1 167.8 L290.9 166.1 Q291.7 171.95 291.2 178.1 L290.65 174.1 Q288.75 160.55 284.85 147.3 M286.95 136.65 Q287.1 139.1 286.1 141.35 285.15 143.6 284.0 144.45 278.45 126.85 269.3 110.85 L269.75 111.2 Q279.75 122.85 286.95 136.65 M302.85 195.35 Q309.2 239.55 313.25 284.05 L311.85 281.6 Q304.65 268.65 300.95 254.4 307.8 244.6 298.85 236.1 L297.2 234.55 296.15 225.6 Q309.05 223.55 303.6 211.4 L303.0 210.3 Q305.35 221.6 295.75 222.05 L293.95 203.4 Q302.3 201.05 302.85 195.35 M300.05 250.9 L297.3 235.2 Q297.95 237.0 298.95 238.7 302.4 244.75 300.05 250.9" fill="url(#gradient7)" fill-rule="evenodd" stroke="none"/>
    <path d="M46.3 55.7 Q8.0 92.75 4.3 145.3 L4.05 148.9 Q0.5 99.0 31.25 59.45 71.8 7.4 137.35 8.8 L131.35 9.45 Q80.9 17.9 46.3 55.7" fill="#fffb63" fill-rule="evenodd" stroke="none"/>
    <path d="M105.75 103.0 Q104.0 98.45 105.35 94.1 L105.7 93.85 106.05 89.5 106.15 91.55 Q106.65 101.45 112.6 109.45 L113.45 111.8 Q117.7 123.55 128.1 130.4 L129.35 131.85 Q122.85 129.85 117.6 125.55 L116.65 124.45 Q109.45 114.75 105.75 103.0 M107.25 2.95 L113.25 5.95 101.35 8.1 Q100.8 6.9 99.2 5.85 97.55 4.75 95.65 4.5 L93.3 4.15 94.05 4.0 Q98.2 2.75 100.75 2.45 104.4 1.95 107.25 2.95" fill="#ff9933" fill-rule="evenodd" stroke="none"/>
    <path d="M119.55 209.5 L122.2 213.7 121.55 214.1 Q110.8 219.6 99.4 223.6 105.85 223.4 112.1 222.15 118.85 220.75 124.25 216.5 L128.5 221.8 Q121.4 228.9 113.15 234.45 124.55 232.7 130.6 223.95 L135.3 229.25 121.95 239.35 120.95 239.9 Q97.35 252.35 78.0 235.1 L77.3 234.25 Q98.75 222.35 119.55 209.5" fill="url(#gradient8)" fill-rule="evenodd" stroke="none"/>
    <path d="M308.0 316.55 L314.15 320.95 307.05 316.25 305.0 315.15 308.0 316.55 M128.65 214.85 Q141.4 216.25 154.25 215.2 L157.55 214.95 Q185.4 258.4 232.95 279.75 245.45 285.4 257.5 291.65 278.65 302.6 300.25 312.85 L290.85 310.2 Q283.35 307.65 275.6 305.95 185.65 286.3 128.65 214.85" fill="url(#gradient9)" fill-rule="evenodd" stroke="none"/>
    <path d="M118.75 207.95 Q99.6 218.65 79.8 228.15 65.5 235.05 75.6 244.45 69.15 242.45 64.3 237.55 62.05 235.35 64.5 233.7 89.55 216.55 118.75 207.95 M267.75 228.9 Q275.3 235.2 268.2 237.5 253.9 241.95 239.8 236.75 225.8 231.4 217.05 219.2 232.75 232.25 252.8 236.25 265.2 239.7 267.8 229.95 L267.75 228.9" fill="#fff65d" fill-rule="evenodd" stroke="none"/>
    <path d="M119.55 209.5 Q98.75 222.35 77.3 234.25 L78.0 235.1 Q97.35 252.35 120.95 239.9 L119.95 240.45 Q98.6 251.2 75.6 244.45 65.5 235.05 79.8 228.15 99.6 218.65 118.75 207.95 L119.55 209.5" fill="#ffdd44" fill-rule="evenodd" stroke="none"/>
    <path d="M246.7 209.65 Q266.7 218.85 275.45 238.25 L275.5 238.6 Q245.35 248.85 218.8 227.25 215.15 223.5 213.9 218.45 L213.1 215.2 Q222.25 214.85 230.85 217.95 L240.15 223.35 228.0 209.45 252.45 218.55 248.95 215.5 252.4 217.4 242.95 209.4 246.7 209.65 M267.75 228.9 L267.8 229.95 Q265.2 239.7 252.8 236.25 232.75 232.25 217.05 219.2 225.8 231.4 239.8 236.75 253.9 241.95 268.2 237.5 275.3 235.2 267.75 228.9" fill="url(#gradient10)" fill-rule="evenodd" stroke="none"/>
  </g>
  <defs>
    <linearGradient gradientTransform="matrix(0.1101, 0.2019, -0.1966, 0.1073, 295.85, 234.85)" gradientUnits="userSpaceOnUse" id="gradient0" spreadMethod="pad" x1="-819.2" x2="819.2">
      <stop offset="0.023529411764705882" stop-color="#de9c12"/>
      <stop offset="1.0" stop-color="#cb890e"/>
    </linearGradient>
    <linearGradient gradientTransform="matrix(-0.0737, -0.0295, 0.0245, -0.0612, 380.8, 353.25)" gradientUnits="userSpaceOnUse" id="gradient1" spreadMethod="pad" x1="-819.2" x2="819.2">
      <stop offset="0.0" stop-color="#dfb022"/>
      <stop offset="0.9882352941176471" stop-color="#ffdd44"/>
    </linearGradient>
    <linearGradient gradientTransform="matrix(-0.1006, -0.1016, 0.0851, -0.0843, 210.75, 94.9)" gradientUnits="userSpaceOnUse" id="gradient2" spreadMethod="pad" x1="-819.2" x2="819.2">
      <stop offset="0.0" stop-color="#de9c12"/>
      <stop offset="1.0" stop-color="#ffcc33"/>
    </linearGradient>
    <linearGradient gradientTransform="matrix(0.0293, 0.0272, -0.0136, 0.0147, 148.45, 39.5)" gradientUnits="userSpaceOnUse" id="gradient3" spreadMethod="pad" x1="-819.2" x2="819.2">
      <stop offset="0.023529411764705882" stop-color="#ffa245"/>
      <stop offset="1.0" stop-color="#e08325"/>
    </linearGradient>
    <linearGradient gradientTransform="matrix(0.0333, 0.0359, -0.0281, 0.026, 157.45, 86.85)" gradientUnits="userSpaceOnUse" id="gradient4" spreadMethod="pad" x1="-819.2" x2="819.2">
      <stop offset="0.0" stop-color="#ffffff"/>
      <stop offset="1.0" stop-color="#b3b3b9"/>
    </linearGradient>
    <linearGradient gradientTransform="matrix(0.0596, 0.0045, -0.0033, 0.0442, 223.85, 148.9)" gradientUnits="userSpaceOnUse" id="gradient5" spreadMethod="pad" x1="-819.2" x2="819.2">
      <stop offset="0.0" stop-color="#de9c12"/>
      <stop offset="1.0" stop-color="#ffcc33"/>
    </linearGradient>
    <linearGradient gradientTransform="matrix(0.0144, 0.0364, -0.0268, 0.0106, 239.4, 214.7)" gradientUnits="userSpaceOnUse" id="gradient6" spreadMethod="pad" x1="-819.2" x2="819.2">
      <stop offset="0.0" stop-color="#de9c12"/>
      <stop offset="1.0" stop-color="#ffcc33"/>
    </linearGradient>
    <linearGradient gradientTransform="matrix(-0.1106, -0.1477, 0.0694, -0.052, 334.7, 144.55)" gradientUnits="userSpaceOnUse" id="gradient7" spreadMethod="pad" x1="-819.2" x2="819.2">
      <stop offset="0.0" stop-color="#de9c12"/>
      <stop offset="1.0" stop-color="#ffcc33"/>
    </linearGradient>
    <linearGradient gradientTransform="matrix(-0.0288, 0.0204, -0.0126, -0.0178, 85.7, 245.85)" gradientUnits="userSpaceOnUse" id="gradient8" spreadMethod="pad" x1="-819.2" x2="819.2">
      <stop offset="0.0" stop-color="#dfb022"/>
      <stop offset="0.9882352941176471" stop-color="#ffdd44"/>
    </linearGradient>
    <linearGradient gradientTransform="matrix(-0.1034, -0.0884, 0.0419, -0.049, 249.85, 245.0)" gradientUnits="userSpaceOnUse" id="gradient9" spreadMethod="pad" x1="-819.2" x2="819.2">
      <stop offset="0.0" stop-color="#de9c12"/>
      <stop offset="1.0" stop-color="#ffcc33"/>
    </linearGradient>
    <linearGradient gradientTransform="matrix(0.0238, 0.0334, -0.0235, 0.0168, 235.25, 203.4)" gradientUnits="userSpaceOnUse" id="gradient10" spreadMethod="pad" x1="-819.2" x2="819.2">
      <stop offset="0.0" stop-color="#dfb022"/>
      <stop offset="0.9882352941176471" stop-color="#ffdd44"/>
    </linearGradient>
  </defs>
</svg>
