<?xml version="1.0" encoding="UTF-8" standalone="no"?>
<svg xmlns:xlink="http://www.w3.org/1999/xlink" height="11.7px" width="7.35px" xmlns="http://www.w3.org/2000/svg">
  <g transform="matrix(1.0, 0.0, 0.0, 1.0, 0.0, 0.0)">
    <path d="M0.05 9.05 Q-0.15 7.1 0.7 4.85 1.55 2.45 3.0 1.15 4.55 -0.35 5.8 0.1 7.05 0.55 7.3 2.6 7.5 4.65 6.7 7.0 5.8 9.3 4.45 10.65 2.9 12.05 1.65 11.6 0.3 11.2 0.05 9.05" fill="#000000" fill-rule="evenodd" stroke="none"/>
    <path d="M6.0 4.4 Q5.65 5.0 5.15 5.0 4.65 5.0 4.25 4.4 3.9 3.9 3.9 3.1 3.9 2.35 4.25 1.75 4.65 1.2 5.15 1.2 5.65 1.2 6.0 1.75 6.45 2.35 6.45 3.1 L6.0 4.4" fill="#ffffff" fill-rule="evenodd" stroke="none"/>
  </g>
</svg>
