<?xml version="1.0" encoding="UTF-8" standalone="no"?>
<svg xmlns:xlink="http://www.w3.org/1999/xlink" height="15.9px" width="22.1px" xmlns="http://www.w3.org/2000/svg">
  <g transform="matrix(1.0, 0.0, 0.0, 1.0, -3.6, 0.0)">
    <path d="M25.15 11.3 L25.05 11.45 20.5 12.2 Q12.0 13.35 3.6 15.9 L3.65 15.6 3.85 15.1 3.9 15.05 5.3 12.5 Q8.0 7.9 11.95 4.25 13.55 2.95 15.2 2.05 21.3 -1.55 24.05 1.2 26.85 3.9 24.9 11.15 24.85 11.25 25.15 11.3" fill="#000000" fill-rule="evenodd" stroke="none"/>
    <path d="M19.35 9.7 L17.05 9.65 Q16.25 8.95 16.55 7.25 16.9 5.75 18.15 4.3 19.4 2.9 20.9 2.25 22.45 1.8 23.25 2.5 24.05 3.2 23.7 4.7 23.4 6.4 22.15 7.8 20.9 9.25 19.35 9.7" fill="#ffffff" fill-rule="evenodd" stroke="none"/>
  </g>
</svg>
