<?xml version="1.0" encoding="UTF-8" standalone="no"?>
<svg xmlns:xlink="http://www.w3.org/1999/xlink" height="234.65px" width="363.85px" xmlns="http://www.w3.org/2000/svg">
  <g transform="matrix(1.0, 0.0, 0.0, 1.0, -20.7, 38.65)">
    <path d="M353.15 47.2 Q339.75 44.95 320.75 44.95 L299.1 45.8 288.45 47.2 Q283.35 48.0 280.25 49.0 283.4 50.05 288.45 50.9 L302.35 52.5 303.35 52.25 308.95 52.85 320.75 53.15 Q339.75 53.15 353.15 50.9 L357.9 49.95 359.0 48.45 353.15 47.2 M135.85 48.9 L125.15 47.55 103.5 46.65 Q84.6 46.65 71.2 48.9 L65.35 50.15 66.45 51.65 71.2 52.55 Q84.6 54.85 103.5 54.85 L115.35 54.6 120.95 53.95 121.95 54.25 135.85 52.55 Q140.9 51.75 144.0 50.75 140.95 49.75 135.85 48.9 M356.4 38.4 Q370.85 36.2 384.55 35.25 L384.55 196.0 20.7 196.0 20.7 25.55 31.35 26.35 Q56.95 28.5 79.7 32.35 91.1 32.95 101.85 34.65 116.5 36.9 131.3 37.5 151.5 38.35 171.7 38.35 190.3 38.35 208.55 34.6 238.0 28.5 267.5 33.45 311.85 41.25 356.4 38.4" fill="url(#gradient0)" fill-rule="evenodd" stroke="none"/>
    <path d="M322.95 124.7 L323.1 124.7 323.0 125.0 322.95 124.7 M155.45 104.65 L156.75 105.05 147.6 106.9 155.3 104.7 155.45 104.65" fill="#ffffff" fill-rule="evenodd" stroke="none"/>
    <path d="M384.55 117.45 L384.55 125.85 333.7 125.55 Q270.4 125.35 268.4 125.15 268.0 123.65 267.95 121.9 L268.1 119.9 Q268.3 118.25 267.7 116.75 L384.55 117.45 M230.6 124.5 L227.15 124.75 Q227.25 123.3 227.5 121.9 L228.0 119.15 228.05 119.35 Q228.95 120.5 229.65 121.9 L230.6 124.5 M210.4 125.8 L204.1 125.9 204.15 125.4 Q204.25 123.25 205.2 121.9 205.9 120.9 206.95 120.3 207.35 120.3 207.6 120.65 L208.4 121.9 210.4 125.8 M90.6 123.25 L87.9 122.95 88.45 120.45 88.6 120.3 89.35 119.95 Q89.9 120.0 90.25 120.45 L90.6 123.25 M40.2 115.45 Q40.65 118.65 40.25 121.9 L40.15 123.1 39.4 122.5 37.45 115.5 40.2 115.45 M322.95 124.7 L323.0 125.0 323.1 124.7 322.95 124.7 M263.9 116.45 L264.4 119.15 Q264.65 120.65 264.3 121.9 L263.6 123.55 Q263.15 124.25 262.7 123.75 L261.4 121.9 Q260.4 120.0 260.05 117.55 L259.8 116.15 263.9 116.45 M92.95 102.1 L92.35 100.1 92.2 98.95 Q92.45 97.7 93.9 97.0 L94.6 97.1 95.45 97.75 97.35 101.7 92.95 102.1 M99.7 94.8 L100.1 97.85 100.1 98.6 99.6 98.95 98.45 99.1 Q98.25 99.05 98.2 99.0 L97.95 98.85 Q97.65 98.7 97.65 98.4 L97.55 98.15 97.45 97.25 Q96.75 96.95 96.7 96.45 L96.4 95.05 99.7 94.8 M125.7 94.45 L129.3 94.55 129.35 95.1 Q129.45 96.9 129.15 98.7 L129.05 99.05 Q128.7 99.5 127.85 99.25 L127.3 98.55 Q126.3 96.95 125.85 95.25 L125.7 94.45" fill="#ccffff" fill-rule="evenodd" stroke="none"/>
    <path d="M22.85 113.05 L41.15 112.65 71.2 113.5 170.95 118.95 173.1 119.0 189.15 117.65 219.35 114.85 247.9 113.55 259.0 113.45 Q260.85 114.15 263.35 114.45 L265.65 114.8 286.85 116.3 384.55 117.05 384.55 117.45 267.7 116.75 263.9 116.45 259.8 116.15 247.9 115.85 Q239.95 115.75 231.9 116.25 L188.35 119.5 173.1 120.25 173.1 120.2 Q161.95 120.85 150.2 120.25 L60.15 115.65 Q50.15 115.4 40.2 115.45 L37.45 115.5 Q29.1 115.55 20.7 115.85 L20.7 113.15 22.85 113.05 M48.7 125.05 Q41.25 125.45 33.65 125.45 L32.6 125.45 Q40.6 125.0 48.7 125.05" fill="#000000" fill-rule="evenodd" stroke="none"/>
    <path d="M22.85 113.05 L20.7 113.1 20.7 -38.65 384.55 -38.65 384.55 117.05 286.85 116.3 265.65 114.8 263.35 114.45 Q260.85 114.15 259.0 113.45 L247.9 113.55 219.35 114.85 189.15 117.65 186.5 117.55 185.65 117.7 170.95 118.95 71.2 113.5 41.15 112.65 22.85 113.05 M268.4 125.15 L247.05 123.45 230.6 124.5 229.65 121.9 Q228.95 120.5 228.05 119.35 L228.0 119.15 227.5 121.9 Q227.25 123.3 227.15 124.75 L210.4 125.8 208.4 121.9 207.6 120.65 Q207.35 120.3 206.95 120.3 205.9 120.9 205.2 121.9 204.25 123.25 204.15 125.4 L204.1 125.9 Q188.15 126.1 172.2 125.55 L146.5 125.95 128.6 125.6 90.6 123.25 90.25 120.45 Q89.9 120.0 89.35 119.95 L88.6 120.3 88.45 120.45 87.9 122.95 79.25 122.15 48.7 125.05 Q40.6 125.0 32.6 125.45 L20.7 125.4 20.7 115.85 Q29.1 115.55 37.45 115.5 L39.4 122.5 40.15 123.1 40.25 121.9 Q40.65 118.65 40.2 115.45 50.15 115.4 60.15 115.65 L150.2 120.25 Q161.95 120.85 173.1 120.2 L173.1 120.25 188.35 119.5 231.9 116.25 Q239.95 115.75 247.9 115.85 L259.8 116.15 260.05 117.55 Q260.4 120.0 261.4 121.9 L262.7 123.75 Q263.15 124.25 263.6 123.55 L264.3 121.9 Q264.65 120.65 264.4 119.15 L263.9 116.45 267.7 116.75 Q268.3 118.25 268.1 119.9 L267.95 121.9 Q268.0 123.65 268.4 125.15 M163.5 108.6 L163.4 108.4 163.15 108.6 163.5 108.6 M97.35 101.7 L95.45 97.75 94.6 97.1 93.9 97.0 Q92.45 97.7 92.2 98.95 L92.35 100.1 92.95 102.1 83.9 103.2 77.5 104.45 75.7 105.0 72.25 103.7 71.55 103.15 Q70.7 102.5 70.55 101.75 70.7 102.5 71.55 103.15 L72.25 103.7 75.7 105.0 88.35 107.4 97.8 108.3 116.25 108.9 132.8 108.4 138.05 108.65 139.35 108.7 147.6 106.9 156.75 105.05 155.45 104.65 155.15 104.15 153.65 99.4 153.6 99.3 153.25 99.1 153.0 99.0 152.65 99.0 152.2 99.05 151.9 99.15 151.4 101.1 151.35 103.75 148.65 103.2 133.05 101.6 114.85 101.1 Q109.3 101.15 104.2 101.35 L97.35 101.7 M161.95 101.75 L161.65 102.55 Q160.6 103.85 156.75 105.05 160.6 103.85 161.65 102.55 L161.95 101.75 M96.4 95.05 L96.7 96.45 Q96.75 96.95 97.45 97.25 L97.55 98.15 97.65 98.4 Q97.65 98.7 97.95 98.85 L98.2 99.0 Q98.25 99.05 98.45 99.1 L99.6 98.95 100.1 98.6 100.1 97.85 99.7 94.8 96.4 95.05 83.9 96.45 Q72.25 98.3 70.8 100.85 L70.55 101.45 70.8 100.85 Q72.25 98.3 83.9 96.45 L96.4 95.05 M125.7 94.45 Q121.15 94.3 116.25 94.3 L99.7 94.8 116.25 94.3 Q121.15 94.3 125.7 94.45 L125.85 95.25 Q126.3 96.95 127.3 98.55 L127.85 99.25 Q128.7 99.5 129.05 99.05 L129.15 98.7 Q129.45 96.9 129.35 95.1 L129.3 94.55 125.7 94.45 M133.3 94.8 L129.3 94.55 133.3 94.8 141.1 95.5 140.2 94.45 133.3 94.8 M161.95 101.3 L161.75 100.85 Q160.35 98.3 148.65 96.45 L141.1 95.5 148.65 96.45 Q160.35 98.3 161.75 100.85 L161.95 101.3 M67.95 102.65 L70.45 102.05 69.5 102.1 67.9 102.65 67.95 102.65" fill="#edfefd" fill-rule="evenodd" stroke="none"/>
    <path d="M132.8 108.4 L131.45 108.3 132.45 108.05 134.45 108.3 132.8 108.4 134.45 108.3 138.05 108.65 132.8 108.4" fill="url(#gradient1)" fill-rule="evenodd" stroke="none"/>
    <path d="M92.95 102.1 L97.35 101.7 104.2 101.35 Q109.3 101.15 114.85 101.1 L133.05 101.6 148.65 103.2 151.35 103.75 155.3 104.7 M155.45 104.65 L156.75 105.05 Q160.6 103.85 161.65 102.55 L161.95 101.75 M96.4 95.05 L83.9 96.45 Q72.25 98.3 70.8 100.85 L70.55 101.45 M96.4 95.05 L99.7 94.8 116.25 94.3 Q121.15 94.3 125.7 94.45 L129.3 94.55 133.3 94.8 141.1 95.5 148.65 96.45 Q160.35 98.3 161.75 100.85 L161.95 101.3 M70.55 101.75 Q70.7 102.5 71.55 103.15 L72.25 103.7 75.7 105.0 77.5 104.45 83.9 103.2 92.95 102.1 M147.6 106.9 L156.75 105.05 M132.8 108.4 L134.45 108.3 147.6 106.9 M132.8 108.4 L116.25 108.9 97.8 108.3 88.35 107.4 75.7 105.0" fill="none" stroke="#000000" stroke-linecap="round" stroke-linejoin="round" stroke-width="1.5"/>
  </g>
  <defs>
    <linearGradient gradientTransform="matrix(0.0, 0.4649, 0.2498, 0.0, -28.0, 423.15)" gradientUnits="userSpaceOnUse" id="gradient0" spreadMethod="pad" x1="-819.2" x2="819.2">
      <stop offset="0.0" stop-color="#60a3f4"/>
      <stop offset="0.5058823529411764" stop-color="#2b59a4"/>
      <stop offset="1.0" stop-color="#1d4e89"/>
    </linearGradient>
    <linearGradient gradientTransform="matrix(0.0, 0.2461, 0.2498, 0.0, 301.9, 253.85)" gradientUnits="userSpaceOnUse" id="gradient1" spreadMethod="pad" x1="-819.2" x2="819.2">
      <stop offset="0.0" stop-color="#b8d9e4"/>
      <stop offset="0.5058823529411764" stop-color="#508bd3"/>
      <stop offset="1.0" stop-color="#254578"/>
    </linearGradient>
  </defs>
</svg>
