<?xml version="1.0" encoding="UTF-8" standalone="no"?>
<svg xmlns:xlink="http://www.w3.org/1999/xlink" height="155.55px" width="831.5px" xmlns="http://www.w3.org/2000/svg">
  <g transform="matrix(1.0, 0.0, 0.0, 1.0, 348.85, 0.0)">
    <path d="M451.9 7.1 L451.9 5.85 Q446.1 5.4 440.9 7.0 435.8 8.55 431.3 12.1 429.75 13.45 428.6 15.2 426.0 12.85 422.35 13.85 L418.3 15.45 Q414.45 17.25 414.05 21.15 410.9 19.75 407.55 21.55 L403.8 23.65 Q399.7 26.15 399.35 30.9 399.3 31.6 398.7 31.85 L395.5 31.75 393.85 31.95 386.65 33.65 Q385.75 30.55 385.45 27.25 385.35 25.9 384.35 24.9 381.0 21.65 376.5 21.0 375.5 14.9 368.95 14.85 364.0 14.85 360.6 18.3 356.85 17.4 353.35 19.05 349.95 20.65 348.15 24.05 L347.3 25.55 340.0 25.8 Q336.3 27.2 333.55 29.75 L332.9 27.95 Q331.5 25.8 329.3 25.0 L323.75 24.7 Q322.2 22.15 320.0 20.15 315.2 15.75 309.85 18.6 309.1 19.0 308.45 19.5 305.75 17.5 302.45 17.95 301.4 17.95 300.5 18.6 297.4 20.6 297.4 24.15 293.15 25.35 291.35 29.85 290.25 32.6 290.55 35.3 286.45 34.45 282.7 36.45 280.55 37.6 278.85 39.6 272.5 34.3 265.25 37.6 263.25 38.5 261.75 40.3 260.45 40.4 259.1 39.7 257.85 39.15 256.5 39.25 251.45 39.45 248.95 44.0 L243.75 43.75 242.45 44.3 Q239.45 45.75 238.9 49.2 237.0 50.05 235.7 51.55 235.05 52.3 234.5 53.2 233.8 54.25 233.7 55.15 232.75 56.1 230.95 56.5 L226.7 57.3 225.65 55.7 224.25 57.2 Q223.2 58.55 221.35 58.6 L217.5 59.15 216.5 57.6 218.95 57.4 218.95 57.1 216.55 54.55 214.8 53.3 214.45 51.6 213.85 51.55 212.9 50.85 212.45 50.35 Q212.45 49.1 211.8 48.35 211.25 47.65 210.35 47.65 208.95 47.7 208.4 48.9 L207.85 50.6 205.1 52.1 204.8 53.9 204.05 54.45 Q200.3 54.3 197.15 56.65 191.45 60.95 184.7 61.95 L181.25 62.1 Q177.35 61.75 173.65 63.2 163.9 66.95 153.7 69.4 148.1 70.6 143.0 67.95 L144.35 67.1 140.55 61.95 136.7 65.45 138.8 66.8 135.65 68.2 135.5 68.45 137.1 69.5 137.75 69.7 134.85 71.15 132.1 68.7 Q132.6 67.7 132.05 66.85 L129.5 64.1 131.15 63.55 130.7 62.85 129.95 62.2 127.9 61.1 127.8 60.35 127.7 60.1 125.9 57.8 Q126.2 56.8 125.8 55.9 L125.15 55.2 124.2 54.6 Q123.0 54.35 122.0 54.85 L121.45 55.75 121.75 56.45 119.75 58.35 119.4 58.95 118.9 60.05 116.4 61.5 114.85 62.45 114.2 63.15 114.2 63.4 116.2 63.5 115.25 64.85 113.8 65.7 Q113.05 66.05 112.75 66.9 112.15 68.6 113.6 69.55 L111.2 71.4 109.45 71.4 107.95 70.5 109.7 70.3 109.7 69.9 109.1 69.05 108.4 68.4 107.55 67.3 109.45 67.0 106.0 62.55 102.55 66.8 Q102.05 67.2 102.2 67.9 L103.6 68.0 101.5 70.85 103.15 71.4 101.15 71.4 98.05 69.15 97.7 69.6 97.5 69.95 97.35 70.55 97.35 71.4 91.55 71.4 88.25 71.4 Q86.35 69.8 84.05 68.8 L83.45 68.55 Q79.5 66.95 75.5 67.7 75.75 66.35 74.65 65.25 73.5 64.1 71.8 63.45 L68.8 62.55 Q71.3 56.9 66.5 52.45 63.65 49.75 59.65 49.85 L55.45 50.25 Q54.2 48.1 51.5 47.7 46.45 47.1 43.8 51.45 L42.5 53.25 Q38.4 48.15 31.9 49.1 29.85 49.45 28.05 50.2 L27.2 50.45 Q28.5 45.6 25.35 41.8 23.9 40.0 22.0 39.45 L18.9 39.25 15.45 39.7 Q18.0 34.65 14.8 29.65 11.0 23.8 3.7 24.0 L-1.85 24.1 Q-4.4 24.15 -6.95 23.35 -13.8 21.45 -19.4 25.35 -21.25 26.65 -21.6 29.0 L-21.65 30.9 Q-27.45 29.9 -31.55 33.8 -34.65 36.8 -33.85 40.95 -37.45 39.65 -41.0 41.5 -44.55 43.15 -45.35 47.05 L-47.4 46.75 -49.95 46.05 Q-54.2 46.55 -56.5 50.05 L-56.9 50.6 -60.85 50.05 Q-66.6 48.55 -69.65 53.35 -70.9 52.6 -72.75 52.25 -77.2 51.2 -80.85 53.85 -83.55 47.4 -90.75 47.6 L-95.9 48.05 Q-94.95 44.35 -97.95 41.55 -102.95 36.85 -109.9 37.7 -114.65 38.3 -117.65 41.45 -122.3 40.2 -126.8 42.55 -128.6 43.55 -129.6 45.6 -130.45 47.2 -129.7 49.15 -133.3 48.3 -137.05 48.35 -143.85 48.5 -146.05 54.75 -149.15 53.2 -152.55 53.5 -157.6 53.8 -158.0 58.55 L-162.55 58.15 Q-167.0 59.0 -168.8 62.9 -172.6 58.4 -178.15 58.65 L-180.0 59.35 Q-189.35 63.25 -199.25 64.35 -207.05 65.45 -213.3 61.45 L-244.7 40.75 Q-249.65 36.5 -255.5 38.45 -258.25 39.4 -260.75 41.1 L-275.3 50.7 Q-281.0 45.45 -288.2 44.65 L-289.25 44.7 Q-293.4 46.4 -297.1 48.95 L-300.15 50.75 Q-303.45 52.45 -307.1 53.45 L-312.55 52.05 -312.55 0.0 458.4 0.0 458.4 85.0 451.8 85.0 451.9 72.6 451.9 69.95 451.9 68.25 451.9 65.6 451.9 63.8 451.9 62.35 451.9 28.2 451.9 7.1" fill="url(#gradient0)" fill-rule="evenodd" stroke="none"/>
    <path d="M111.2 71.4 L113.6 69.55 Q112.15 68.6 112.75 66.9 113.05 66.05 113.8 65.7 L115.25 64.85 116.2 63.5 114.2 63.4 114.2 63.15 114.85 62.45 116.4 61.5 118.9 60.05 119.4 58.95 119.75 58.35 121.75 56.45 121.45 55.75 122.0 54.85 Q123.0 54.35 124.2 54.6 L125.15 55.2 125.8 55.9 Q126.2 56.8 125.9 57.8 L127.7 60.1 127.8 60.35 127.9 61.1 129.95 62.2 130.7 62.85 131.15 63.55 129.5 64.1 132.05 66.85 Q132.6 67.7 132.1 68.7 L134.85 71.15 137.75 69.7 137.1 69.5 135.5 68.45 135.65 68.2 138.8 66.8 136.7 65.45 140.55 61.95 144.35 67.1 143.0 67.95 Q148.1 70.6 153.7 69.4 163.9 66.95 173.65 63.2 177.35 61.75 181.25 62.1 L184.7 61.95 Q191.45 60.95 197.15 56.65 200.3 54.3 204.05 54.45 L204.8 53.9 205.1 52.1 207.85 50.6 208.4 48.9 Q208.95 47.7 210.35 47.65 211.25 47.65 211.8 48.35 212.45 49.1 212.45 50.35 L212.9 50.85 213.85 51.55 214.45 51.6 214.8 53.3 216.55 54.55 218.95 57.1 218.95 57.4 216.5 57.6 217.5 59.15 221.35 58.6 Q223.2 58.55 224.25 57.2 L225.65 55.7 226.7 57.3 230.95 56.5 Q232.75 56.1 233.7 55.15 233.8 54.25 234.5 53.2 235.05 52.3 235.7 51.55 237.0 50.05 238.9 49.2 239.45 45.75 242.45 44.3 L243.75 43.75 248.95 44.0 Q251.45 39.45 256.5 39.25 257.85 39.15 259.1 39.7 260.45 40.4 261.75 40.3 263.25 38.5 265.25 37.6 272.5 34.3 278.85 39.6 280.55 37.6 282.7 36.45 286.45 34.45 290.55 35.3 290.25 32.6 291.35 29.85 293.15 25.35 297.4 24.15 297.4 20.6 300.5 18.6 301.4 17.95 302.45 17.95 305.75 17.5 308.45 19.5 309.1 19.0 309.85 18.6 315.2 15.75 320.0 20.15 322.2 22.15 323.75 24.7 L329.3 25.0 Q331.5 25.8 332.9 27.95 L333.55 29.75 Q336.3 27.2 340.0 25.8 L347.3 25.55 348.15 24.05 Q349.95 20.65 353.35 19.05 356.85 17.4 360.6 18.3 364.0 14.85 368.95 14.85 375.5 14.9 376.5 21.0 381.0 21.65 384.35 24.9 385.35 25.9 385.45 27.25 385.75 30.55 386.65 33.65 L393.85 31.95 395.5 31.75 398.7 31.85 Q399.3 31.6 399.35 30.9 399.7 26.15 403.8 23.65 L407.55 21.55 Q410.9 19.75 414.05 21.15 414.45 17.25 418.3 15.45 L422.35 13.85 Q426.0 12.85 428.6 15.2 429.75 13.45 431.3 12.1 435.8 8.55 440.9 7.0 446.1 5.4 451.9 5.85 L451.9 7.1 448.95 7.0 Q442.75 7.15 436.35 10.0 428.75 13.4 430.05 17.45 430.15 17.7 429.5 17.7 L427.9 16.35 Q426.55 14.9 424.65 14.9 419.65 14.9 417.1 17.2 415.25 18.8 415.25 20.55 L416.05 22.7 415.4 23.25 Q412.9 21.75 412.2 21.75 407.8 21.75 404.2 24.7 400.75 27.45 400.75 30.65 L401.55 32.2 Q400.5 33.15 398.3 33.0 L395.2 32.75 391.25 33.65 Q388.95 33.95 387.4 35.25 L385.7 36.45 385.05 36.35 384.8 35.8 385.6 34.65 384.15 27.85 Q384.1 25.95 382.45 24.45 380.3 22.5 375.95 22.45 375.4 21.95 375.15 20.8 L374.35 19.05 Q372.2 16.25 367.7 16.25 364.8 16.25 362.95 17.55 361.7 18.5 361.7 19.0 361.7 19.6 362.25 20.0 L362.1 20.6 Q361.95 20.9 361.3 20.9 360.8 20.9 360.45 20.05 360.05 19.15 357.45 19.15 353.75 19.15 350.8 22.05 347.95 24.85 348.25 27.85 L347.7 28.0 346.9 27.15 Q346.4 26.25 344.5 26.25 337.85 26.25 333.45 32.2 L331.9 28.5 Q330.45 25.75 326.2 25.75 L323.35 26.1 322.65 26.4 Q321.85 26.1 322.0 25.65 L322.3 24.85 Q322.3 23.3 319.05 21.0 315.75 18.6 313.25 18.6 310.3 18.6 309.7 19.8 L309.7 21.75 308.9 21.95 Q308.1 21.95 307.85 21.4 307.5 20.6 306.7 20.1 304.5 18.65 303.35 18.65 300.65 18.65 299.2 21.5 298.15 23.65 298.25 25.8 L296.5 25.5 Q295.55 25.5 292.95 29.7 291.5 31.85 291.5 33.65 L292.55 36.95 292.05 37.5 Q289.75 36.3 288.55 36.3 281.7 36.3 279.2 41.6 L278.85 41.7 Q274.85 37.35 271.7 37.35 265.5 37.35 263.65 39.65 L262.7 41.25 Q262.25 42.0 261.55 42.0 259.9 40.5 256.5 40.5 253.15 40.5 251.1 43.1 249.6 45.7 249.0 45.7 L247.7 45.0 242.05 45.45 Q240.55 46.35 240.05 50.8 L238.2 50.7 Q236.7 50.7 235.55 53.3 L234.95 55.1 236.3 54.7 264.2 44.35 Q268.25 42.8 272.2 44.4 275.85 45.7 281.25 48.55 L284.85 50.25 Q290.45 53.1 296.55 53.6 302.95 53.65 308.25 50.15 310.8 48.55 313.5 47.2 L315.0 46.6 Q317.6 47.05 319.95 48.05 326.75 50.95 332.65 55.1 338.95 52.45 345.45 49.2 L352.15 49.0 Q355.95 50.45 359.2 52.85 370.5 61.25 384.4 62.4 390.1 62.05 395.55 59.7 399.4 58.2 403.05 60.2 L406.3 61.45 Q421.3 66.1 436.9 63.65 L451.9 62.35 451.9 63.8 448.95 63.65 426.85 65.85 Q415.7 66.5 405.45 62.35 L405.3 62.3 400.9 61.2 Q395.3 60.0 390.1 62.85 L394.95 65.1 Q399.05 66.95 403.5 67.95 L410.45 69.6 437.05 70.3 Q444.6 70.3 451.9 68.25 L451.9 69.95 444.25 71.25 435.7 71.7 400.1 70.5 Q384.75 70.05 369.45 67.45 L361.35 65.3 Q351.2 62.1 340.75 63.95 L310.1 69.4 Q306.25 70.4 302.45 70.75 285.85 71.1 269.15 70.9 L220.85 72.2 Q220.35 73.4 218.8 73.6 210.95 75.3 202.85 74.7 199.35 74.65 198.05 71.75 L197.75 70.9 Q192.3 70.5 187.0 70.9 L180.35 71.65 Q158.75 74.2 137.55 78.9 L137.45 79.15 Q137.0 81.1 135.55 82.25 L127.75 82.35 121.75 81.95 Q119.55 81.45 117.35 81.9 L109.2 81.55 Q100.4 82.05 91.55 81.7 L85.3 81.3 78.0 81.8 78.45 82.5 Q78.95 83.35 78.35 84.15 L78.0 84.4 76.9 85.0 Q75.65 85.55 74.25 85.55 L61.2 84.9 60.7 84.6 61.35 81.95 5.9 81.65 0.0 81.65 Q-31.05 81.45 -62.15 80.75 -82.35 80.25 -102.55 81.2 -126.3 81.7 -150.1 81.1 -169.0 80.7 -187.95 81.05 L-188.25 83.4 -189.0 83.8 -190.25 84.05 -194.2 84.3 -196.2 83.8 Q-197.8 83.25 -197.6 81.7 L-211.6 81.55 -241.15 81.9 -257.25 82.15 -285.65 82.7 -312.55 83.0 -324.55 83.05 -324.55 81.95 -315.45 81.8 -315.1 81.85 -314.95 81.8 -273.6 81.3 -271.7 81.25 -263.2 81.15 -262.4 80.85 -266.4 79.8 -271.4 80.0 -272.1 79.85 -271.7 78.6 -272.0 78.4 Q-273.05 78.0 -274.0 78.4 L-274.2 78.45 -275.4 79.1 -275.95 78.95 -276.15 78.45 -275.8 77.6 -275.7 76.75 -275.8 76.45 -276.15 76.3 Q-279.05 74.8 -281.65 76.55 L-282.05 75.7 -281.8 75.0 Q-282.55 74.8 -283.75 75.0 -284.95 74.9 -285.8 75.85 L-286.15 77.25 -290.8 78.95 Q-291.85 77.95 -293.45 78.05 L-296.2 78.9 -296.7 76.8 -298.8 75.1 -302.45 76.2 Q-302.75 75.5 -303.2 75.05 -303.9 74.4 -305.05 74.3 -306.5 74.45 -307.55 75.15 -308.7 75.9 -309.4 77.35 L-310.45 76.95 Q-311.55 77.1 -312.55 77.55 -314.2 78.3 -315.45 79.85 L-316.55 76.7 -320.35 77.1 -320.6 76.45 -320.1 73.65 -320.2 72.75 -324.25 73.15 -324.1 71.0 Q-324.15 70.5 -324.55 70.15 L-324.55 69.25 Q-323.25 69.95 -322.95 71.5 L-322.1 71.5 Q-318.0 71.15 -318.5 75.35 -317.45 75.1 -316.7 75.35 -315.3 75.7 -314.8 77.5 L-312.55 76.1 -311.45 75.85 -309.55 75.2 -308.3 74.4 Q-304.85 71.9 -301.45 74.6 L-301.0 74.45 Q-298.15 73.25 -296.6 74.95 -295.85 75.7 -295.4 77.1 L-294.35 77.0 Q-292.35 76.65 -290.6 77.45 -288.55 76.75 -287.0 75.55 L-285.95 74.75 -284.9 74.2 Q-282.1 73.05 -280.4 74.65 L-280.3 74.7 -278.75 74.45 -277.45 74.55 Q-275.15 75.0 -274.3 77.35 L-272.95 77.1 Q-271.4 77.25 -270.5 78.15 L-266.6 78.2 -263.75 75.75 -265.85 75.1 -263.9 73.55 -266.25 72.7 -260.45 68.0 -260.3 68.15 Q-257.95 70.2 -257.1 72.75 L-258.85 73.15 -255.65 75.0 -256.75 75.5 Q-258.15 75.85 -258.35 76.5 L-256.75 78.05 -253.95 76.3 -255.0 75.55 -253.9 74.15 Q-252.6 72.75 -250.55 71.8 L-247.75 76.3 -249.65 77.1 -248.65 78.15 -245.8 75.4 -243.35 80.8 -196.55 79.95 -195.0 77.5 Q-191.65 77.1 -188.75 79.85 L-181.65 79.75 -179.4 77.2 -182.4 77.05 Q-182.45 75.7 -180.95 75.35 L-180.05 74.8 -181.35 74.5 -181.2 74.05 -177.15 69.25 -173.75 73.5 -173.65 73.9 -175.15 74.2 -173.8 75.1 Q-172.9 75.6 -173.15 76.55 L-175.85 77.35 -172.65 79.6 -167.4 79.65 -166.2 77.5 -165.4 77.4 Q-163.5 77.7 -161.85 76.55 L-160.3 77.1 -159.5 76.9 Q-157.0 75.95 -155.05 77.35 L-152.25 76.95 -158.9 72.75 Q-163.35 69.65 -167.35 66.05 L-170.75 65.8 -172.6 68.05 -173.35 67.85 Q-175.25 66.95 -176.8 65.2 L-180.2 66.6 -182.8 66.75 -182.55 64.5 -188.75 63.8 Q-193.75 65.35 -198.9 65.75 -207.0 66.85 -213.75 62.8 -225.65 55.55 -237.65 48.6 -239.35 47.7 -241.15 47.0 L-241.5 46.85 Q-244.35 45.9 -246.9 45.85 L-247.15 46.25 -248.35 48.85 Q-248.75 49.9 -249.85 49.9 L-253.95 46.1 Q-255.25 47.6 -256.75 48.65 -258.15 49.5 -259.85 49.1 L-260.05 45.5 -263.3 46.55 Q-265.7 47.35 -267.9 48.45 -273.6 51.1 -279.2 54.35 -283.95 57.2 -289.5 57.15 -301.35 56.65 -312.55 53.75 -318.65 52.2 -324.55 49.9 L-324.55 48.1 -312.55 52.05 -307.1 53.45 Q-303.45 52.45 -300.15 50.75 L-297.1 48.95 Q-293.4 46.4 -289.25 44.7 L-288.2 44.65 Q-281.0 45.45 -275.3 50.7 L-260.75 41.1 Q-258.25 39.4 -255.5 38.45 -249.65 36.5 -244.7 40.75 L-213.3 61.45 Q-207.05 65.45 -199.25 64.35 -189.35 63.25 -180.0 59.35 L-178.15 58.65 Q-172.6 58.4 -168.8 62.9 -167.0 59.0 -162.55 58.15 L-158.0 58.55 Q-157.6 53.8 -152.55 53.5 -149.15 53.2 -146.05 54.75 -143.85 48.5 -137.05 48.35 -133.3 48.3 -129.7 49.15 -130.45 47.2 -129.6 45.6 -128.6 43.55 -126.8 42.55 -122.3 40.2 -117.65 41.45 -114.65 38.3 -109.9 37.7 -102.95 36.85 -97.95 41.55 -94.95 44.35 -95.9 48.05 L-90.75 47.6 Q-83.55 47.4 -80.85 53.85 -77.2 51.2 -72.75 52.25 -70.9 52.6 -69.65 53.35 -66.6 48.55 -60.85 50.05 L-56.9 50.6 -56.5 50.05 Q-54.2 46.55 -49.95 46.05 L-47.4 46.75 -45.35 47.05 Q-44.55 43.15 -41.0 41.5 -37.45 39.65 -33.85 40.95 -34.65 36.8 -31.55 33.8 -27.45 29.9 -21.65 30.9 L-21.6 29.0 Q-21.25 26.65 -19.4 25.35 -13.8 21.45 -6.95 23.35 -4.4 24.15 -1.85 24.1 L3.7 24.0 Q11.0 23.8 14.8 29.65 18.0 34.65 15.45 39.7 L18.9 39.25 22.0 39.45 Q23.9 40.0 25.35 41.8 28.5 45.6 27.2 50.45 L28.05 50.2 Q29.85 49.45 31.9 49.1 38.4 48.15 42.5 53.25 L43.8 51.45 Q46.45 47.1 51.5 47.7 54.2 48.1 55.45 50.25 L59.65 49.85 Q63.65 49.75 66.5 52.45 71.3 56.9 68.8 62.55 L71.8 63.45 Q73.5 64.1 74.65 65.25 75.75 66.35 75.5 67.7 79.5 66.95 83.45 68.55 L84.05 68.8 Q86.35 69.8 88.25 71.4 L90.4 73.6 91.55 73.65 93.55 73.0 94.55 72.8 Q95.95 72.55 97.3 73.15 L97.35 71.4 97.35 70.55 97.5 69.95 97.7 69.6 98.05 69.15 101.15 71.4 102.5 72.4 103.6 71.55 103.15 71.4 101.5 70.85 103.6 68.0 102.2 67.9 Q102.05 67.2 102.55 66.8 L106.0 62.55 109.45 67.0 107.55 67.3 108.4 68.4 109.1 69.05 109.7 69.9 109.7 70.3 107.95 70.5 109.45 71.4 110.4 72.0 111.2 71.4 M396.65 67.0 Q394.6 66.4 392.9 65.45 389.3 63.35 385.0 63.8 381.3 63.95 377.9 62.95 367.0 59.55 357.45 53.1 L352.1 53.25 351.0 53.9 Q349.95 54.5 349.0 54.4 L348.0 54.05 347.7 53.45 346.55 54.15 344.95 54.2 Q343.2 54.25 342.35 53.6 L339.25 53.5 318.0 63.3 Q308.6 66.6 298.65 67.45 288.65 67.35 278.9 69.4 L303.8 68.25 344.2 62.3 355.9 62.6 364.9 64.9 Q383.85 68.85 403.1 69.55 L396.65 67.0 M351.65 50.4 L349.4 50.05 Q345.8 50.5 342.3 52.15 L343.05 52.0 Q343.85 52.1 343.75 52.75 L344.2 53.2 346.6 53.1 Q347.15 52.05 348.3 52.1 L349.1 53.25 349.7 53.25 352.2 51.65 355.9 52.3 Q353.85 51.1 351.65 50.4 M228.45 61.85 L226.9 62.75 231.85 63.2 233.3 62.55 233.65 62.85 Q234.95 64.25 236.9 64.5 L237.25 65.0 Q238.3 66.65 239.95 66.55 L240.1 66.35 Q242.0 64.4 244.3 65.95 L246.1 64.8 Q249.5 65.05 252.3 63.35 253.7 63.5 254.2 64.95 L255.6 64.25 257.9 64.35 258.5 66.15 260.85 65.8 262.75 66.1 262.9 66.35 263.25 66.7 264.55 66.1 267.4 66.35 267.65 67.3 Q271.3 66.15 272.7 69.25 L274.7 69.1 278.7 68.05 Q289.8 65.8 301.5 65.25 314.3 64.3 325.55 58.4 L330.9 55.7 327.4 54.0 Q323.8 52.1 320.4 52.8 L318.8 55.45 Q318.05 55.3 317.4 54.75 L315.3 53.05 315.25 53.05 Q313.8 54.65 312.0 55.1 L311.4 54.55 309.5 52.9 303.1 54.4 Q303.0 54.7 303.0 54.0 299.8 55.0 296.65 55.0 L296.2 55.0 291.25 54.15 Q289.15 53.4 287.25 52.3 281.8 49.25 275.5 49.4 L275.15 51.55 274.2 51.75 270.9 49.9 270.25 51.1 Q269.8 52.05 268.9 52.3 267.0 51.75 265.75 50.35 L263.2 51.85 261.95 51.95 261.15 50.0 253.5 50.45 253.25 49.95 234.75 56.5 Q231.2 57.8 227.45 58.45 L229.1 61.1 228.45 61.85 M318.0 49.3 L315.1 48.05 305.0 53.3 310.25 51.4 311.7 53.25 312.2 53.6 312.85 53.4 314.25 51.9 315.1 51.65 Q316.2 51.6 317.05 52.5 L318.4 53.95 Q318.7 52.75 319.35 51.7 L319.75 51.2 319.95 51.15 322.45 51.55 318.0 49.3 M274.85 46.95 L272.15 46.05 267.7 45.7 Q261.15 46.2 254.95 49.3 L261.8 48.75 262.5 50.7 266.0 48.75 267.05 49.55 268.65 50.7 271.05 48.2 272.2 49.0 Q273.55 50.55 274.2 50.05 L274.45 48.15 277.65 48.15 274.85 46.95 M267.75 69.35 L271.5 69.25 266.85 67.8 266.5 67.1 266.15 67.05 Q264.7 67.0 263.6 67.7 L262.6 68.25 261.95 68.1 261.95 66.8 257.8 66.95 256.6 64.95 254.05 66.15 253.25 66.0 252.6 64.45 Q251.25 64.45 250.3 65.35 L249.2 66.15 248.5 65.55 246.65 65.85 Q245.4 66.55 244.1 67.2 L242.8 66.3 Q241.6 66.1 240.55 67.1 L239.8 67.75 236.65 66.65 236.65 65.95 236.4 65.7 234.25 65.45 233.7 63.75 233.2 63.65 231.0 64.45 230.7 63.85 227.9 63.75 228.75 64.5 229.75 65.45 229.1 65.75 Q228.05 65.85 226.85 66.55 L231.0 69.2 Q231.85 69.9 231.85 70.3 231.85 70.65 230.8 71.0 L267.75 69.35 M194.9 62.85 L195.05 60.85 195.8 60.45 197.6 61.35 200.15 64.25 200.55 63.85 200.55 63.35 Q200.65 60.45 202.95 58.7 L203.05 58.55 201.0 58.45 202.55 55.75 Q199.6 56.75 197.1 58.35 192.5 61.25 187.5 63.3 184.45 64.5 181.2 63.7 L179.55 63.55 Q167.4 66.75 155.35 70.45 L144.5 70.1 144.75 70.75 144.55 70.9 143.15 71.5 143.0 71.55 141.75 72.05 143.75 73.95 141.7 74.8 143.45 76.3 171.25 71.6 184.2 69.75 186.5 65.8 187.25 64.95 188.55 65.75 189.2 66.8 189.6 65.55 189.75 64.85 Q190.2 63.25 191.05 63.25 191.8 63.25 192.65 64.2 L193.85 65.85 194.9 62.85 M188.15 67.55 L187.55 66.55 186.85 67.75 185.65 69.6 Q191.7 69.0 197.8 69.65 L198.65 67.75 197.55 67.2 197.95 66.55 199.45 64.95 196.0 61.95 195.05 66.8 Q194.6 67.6 194.15 67.6 193.65 67.6 192.95 66.95 L191.25 65.1 190.8 67.15 Q190.35 68.4 189.2 68.4 L188.15 67.55 M203.95 59.7 Q202.45 60.9 201.9 62.85 L202.25 63.5 204.2 63.55 Q205.75 62.85 207.15 63.8 208.8 64.95 211.0 64.2 L212.05 63.0 213.85 62.9 Q217.0 63.5 217.5 60.85 L216.2 59.05 214.9 57.65 214.6 57.65 Q214.05 60.45 213.4 60.45 L211.6 59.25 209.9 58.5 207.6 60.2 Q205.75 60.2 205.75 57.8 L205.4 57.95 203.95 59.7 M201.25 64.7 L199.25 66.7 201.1 66.4 Q205.0 65.1 206.6 68.5 L210.25 66.95 213.0 68.4 213.7 67.45 Q214.3 66.8 215.0 66.6 L219.85 66.25 217.2 63.85 216.7 64.15 213.3 64.0 213.0 64.15 Q209.7 67.1 206.0 64.5 L201.25 64.7 M199.0 69.7 Q198.95 70.55 199.2 71.4 L199.35 71.75 Q199.7 72.55 200.55 72.65 L212.05 73.3 217.35 72.95 Q218.6 72.65 219.25 71.9 219.9 71.15 219.9 69.9 219.65 68.55 218.45 67.75 L218.15 67.7 Q216.35 67.3 214.7 68.1 L214.55 69.35 212.95 69.95 209.95 68.4 206.05 69.85 204.25 67.45 199.9 67.9 199.05 69.15 198.95 69.7 199.0 69.7 M228.15 69.0 Q225.7 67.9 225.45 65.8 L227.8 65.05 225.5 62.35 225.5 61.8 Q226.45 61.0 227.75 61.0 L225.55 57.15 222.1 60.7 224.35 61.8 222.1 63.9 223.05 65.0 221.3 66.25 221.8 67.05 221.45 67.2 Q220.1 67.25 220.4 67.75 L220.7 68.2 221.05 70.65 222.75 70.75 Q226.25 71.1 229.9 70.1 L228.15 69.0 M214.3 54.85 L205.5 55.1 202.85 57.15 205.6 56.75 Q206.2 56.65 206.8 57.2 L207.45 58.9 208.9 57.65 209.95 57.3 212.85 58.6 213.5 57.55 Q214.15 56.35 215.55 56.45 L217.0 56.35 214.75 55.0 214.3 54.85 M212.95 53.8 L213.5 52.9 Q210.85 52.35 210.75 49.5 L209.65 49.2 208.65 51.65 207.55 51.95 Q205.65 52.6 206.5 53.85 209.8 54.5 212.95 53.8 M221.9 59.7 L218.35 60.45 218.65 61.0 Q218.65 62.25 218.1 63.05 L220.45 65.4 221.3 64.95 Q220.25 64.8 220.25 64.05 220.25 63.3 221.05 62.95 L222.65 62.05 221.05 61.15 Q221.2 60.6 221.9 59.7 M109.25 77.35 Q111.95 76.25 112.3 73.55 L109.45 73.35 109.45 72.8 106.25 69.95 108.05 69.25 Q106.45 68.4 106.35 66.9 L107.45 66.25 105.9 64.3 Q105.05 65.95 103.5 67.05 L104.8 67.2 104.95 67.9 103.0 70.4 105.15 70.7 105.35 71.0 103.6 73.0 106.4 73.4 Q104.8 76.0 101.5 77.25 L101.4 77.3 103.7 77.5 103.75 77.7 Q103.75 78.45 102.25 79.35 L100.2 80.5 108.45 80.35 108.35 79.6 Q108.35 78.35 109.25 77.35 M99.2 77.55 Q101.25 75.35 104.15 74.2 L101.5 73.3 101.65 72.9 101.5 72.75 98.25 70.4 98.4 74.45 99.25 74.2 99.6 74.4 99.8 74.65 98.25 77.6 97.9 78.05 Q98.75 77.95 98.75 78.8 L97.55 80.5 99.8 80.5 101.85 78.4 99.2 78.35 99.2 77.55 M130.25 66.3 L129.1 65.75 129.0 65.65 128.2 64.45 127.0 64.95 126.35 66.1 126.1 66.25 Q125.25 66.4 124.55 65.7 L122.85 64.4 122.0 65.15 Q120.5 66.3 118.65 65.85 L118.5 63.45 118.35 63.5 117.75 63.5 115.85 65.45 113.75 68.15 Q116.5 69.45 119.5 68.2 L120.8 68.25 123.05 69.0 Q125.1 69.8 126.7 68.2 127.0 67.8 127.4 67.85 L131.3 67.75 130.25 66.3 M119.55 62.45 L119.7 64.7 123.35 63.0 125.7 64.95 126.85 63.1 129.35 62.9 Q128.3 61.6 127.4 62.05 L127.15 62.2 124.55 62.4 123.85 61.5 Q121.3 62.05 119.15 60.7 L116.4 62.45 119.55 62.45 M133.9 76.2 L133.05 73.9 131.65 73.3 131.6 75.1 130.8 75.25 Q128.9 75.2 127.35 73.9 L125.75 75.1 Q125.3 75.5 124.85 75.4 122.95 74.85 121.35 73.8 L117.2 75.5 Q115.6 74.9 115.5 73.15 L113.5 73.4 112.95 75.1 112.7 75.65 112.25 76.2 Q109.3 77.65 109.7 80.3 111.75 81.55 114.3 81.0 117.75 80.2 121.3 81.0 125.05 81.45 128.65 80.85 L134.15 81.15 Q136.65 81.1 136.45 78.9 L133.9 76.2 M118.6 69.5 L118.25 69.7 114.55 69.85 111.35 72.45 Q115.45 71.0 117.4 74.2 L121.55 72.6 124.05 74.55 124.75 74.4 127.35 72.65 130.55 74.05 130.85 71.9 133.55 72.05 133.95 71.75 131.3 69.25 127.35 68.85 Q126.2 70.45 124.35 70.5 L122.95 70.2 Q120.8 68.8 118.6 69.5 M72.65 72.75 Q75.2 73.1 77.65 74.4 80.85 76.1 84.05 75.9 86.55 75.75 89.05 74.4 88.6 73.1 86.95 71.8 L86.4 71.4 84.05 70.05 Q79.9 68.1 75.1 69.35 L74.8 69.7 73.4 69.7 73.35 68.95 74.15 67.35 73.0 66.1 Q70.0 64.1 66.5 63.25 69.6 59.95 67.6 55.7 66.9 54.2 65.5 53.2 60.65 49.75 55.2 52.3 L54.7 51.4 Q53.6 48.85 50.8 49.05 49.45 49.1 48.3 49.6 44.2 51.6 43.1 56.3 L42.95 56.35 41.9 54.8 Q39.5 50.95 35.05 50.4 29.8 50.4 25.35 53.2 L24.65 52.75 Q26.8 49.0 25.55 44.75 25.2 43.5 24.3 42.8 L22.0 41.35 Q18.0 39.5 13.75 42.3 L12.75 42.15 12.7 41.6 Q17.3 36.15 13.65 30.05 12.15 27.7 9.6 26.65 4.7 24.45 0.0 25.85 L-1.85 26.5 Q-7.1 23.75 -13.15 24.3 -15.0 24.35 -16.75 25.2 -21.0 27.25 -20.4 32.4 L-23.35 32.1 Q-29.65 31.85 -32.25 37.25 -32.7 38.3 -32.5 39.45 -32.15 41.25 -32.45 42.85 L-34.45 42.4 Q-39.3 41.5 -42.85 44.7 -44.65 46.3 -43.65 48.3 L-43.7 48.6 -43.7 49.0 -43.75 48.95 -43.85 49.1 -44.1 49.1 Q-44.7 49.9 -45.75 48.95 -46.65 48.2 -47.95 48.05 -53.65 46.8 -56.25 52.3 -60.25 50.8 -64.55 50.85 -66.45 50.9 -65.8 51.1 L-65.85 51.3 Q-67.5 52.25 -68.05 53.9 L-68.75 56.05 -68.85 56.05 Q-73.7 51.15 -79.95 54.55 -80.05 55.45 -80.95 56.15 L-81.6 56.35 -82.35 54.45 -83.0 52.65 Q-84.9 49.1 -89.0 49.05 L-97.6 49.65 -97.3 48.1 Q-96.5 45.05 -98.8 42.75 -101.25 40.05 -104.75 39.35 -112.5 37.5 -117.5 43.4 -118.25 42.8 -119.15 42.65 L-121.2 42.45 Q-125.7 41.65 -128.0 45.75 L-128.4 47.15 Q-128.5 49.2 -127.7 50.9 -129.95 50.95 -132.55 50.1 -136.2 49.1 -139.75 50.25 -144.25 51.85 -144.95 56.65 L-145.4 56.85 Q-147.65 55.35 -150.25 55.0 L-154.1 55.4 Q-157.7 56.7 -156.9 60.5 L-157.3 60.45 Q-159.0 59.45 -160.7 59.35 -166.05 59.05 -167.65 63.95 L-164.25 66.75 -162.85 67.9 -158.1 68.1 Q-155.05 69.25 -151.95 68.85 -142.5 67.2 -133.55 63.95 -130.45 62.85 -127.8 65.2 L-120.45 70.95 Q-118.7 72.05 -116.75 72.05 L-108.95 70.55 -103.85 70.2 Q-99.55 70.35 -95.3 72.15 -94.85 72.3 -94.35 72.55 L-92.7 72.9 -90.0 72.1 -85.05 70.35 -82.35 71.45 -80.4 72.0 Q-78.9 72.25 -77.35 72.0 L-77.2 72.0 Q-74.5 71.35 -72.15 70.3 L-69.55 69.4 Q-66.25 69.6 -63.15 71.65 L-62.8 71.85 Q-61.0 72.95 -58.95 73.4 -54.45 74.6 -49.85 73.95 -44.45 73.2 -39.25 71.7 -31.15 69.4 -23.6 65.3 -20.25 63.4 -16.6 62.0 L-10.9 59.65 Q-8.65 58.65 -6.55 60.1 L7.3 69.5 Q9.25 70.85 11.4 71.5 L17.7 71.65 18.65 71.45 22.0 71.3 23.3 71.45 Q25.1 71.8 26.75 72.65 30.2 74.35 34.05 73.45 L39.95 71.85 Q48.15 78.15 57.45 73.5 59.3 73.75 60.9 74.65 62.2 75.4 63.4 75.05 L72.65 72.75 M72.25 76.8 L73.25 77.0 Q74.7 77.05 75.4 78.35 L76.25 80.2 84.05 79.9 91.55 80.15 96.15 80.5 97.4 79.2 96.6 78.45 98.05 75.85 96.55 75.75 96.5 75.3 97.05 74.5 92.7 74.65 87.0 76.55 84.05 77.25 Q80.0 77.65 76.2 75.2 L73.5 74.3 Q68.85 74.85 64.25 76.45 L60.7 76.3 59.85 75.8 Q58.75 75.0 57.35 75.0 53.75 76.8 48.8 76.95 L48.2 76.95 Q44.65 76.95 41.85 74.6 L39.35 72.85 Q38.7 73.75 37.45 73.75 L31.25 75.1 27.7 74.5 Q25.8 73.25 23.45 72.95 L22.0 73.15 Q17.2 73.6 12.25 73.25 9.9 72.75 7.75 71.5 L6.55 70.7 3.55 68.1 Q1.9 66.45 0.0 65.65 -2.6 64.5 -5.65 64.95 L-6.25 66.85 Q-8.35 66.9 -10.0 65.35 L-10.3 65.55 Q-11.55 67.05 -13.45 66.65 L-13.8 66.2 -13.8 64.4 -18.1 64.05 Q-25.95 68.85 -34.45 71.7 -43.4 74.65 -53.05 75.4 -59.6 76.2 -65.2 72.05 L-65.45 71.9 Q-68.65 69.85 -72.15 71.75 L-72.5 71.95 Q-74.2 72.75 -76.0 73.15 -80.35 74.2 -84.2 72.05 L-84.8 71.7 -91.5 74.4 -92.2 74.55 Q-95.85 73.9 -99.2 72.15 L-99.8 71.85 Q-103.25 70.1 -106.8 71.35 L-109.85 72.25 -115.7 73.45 Q-118.7 73.75 -121.05 72.35 L-122.85 71.0 Q-126.4 67.6 -130.7 65.35 L-132.4 65.15 Q-138.65 66.9 -144.7 69.0 -150.9 71.1 -157.0 69.4 L-161.75 68.85 -154.75 73.85 -153.15 74.8 -150.5 76.15 -148.15 76.3 Q-145.75 74.15 -142.5 75.45 L-140.85 72.7 -140.45 72.05 -140.35 71.95 -140.05 71.55 -139.25 72.2 -139.2 72.55 Q-138.8 75.25 -137.2 76.55 L-135.2 74.1 -134.0 76.5 -131.75 76.45 -130.9 75.5 -130.4 75.7 Q-128.8 78.45 -126.75 76.05 L-125.35 77.25 -122.7 76.55 -121.8 77.35 Q-120.55 75.85 -118.3 76.05 -115.3 75.7 -113.35 77.6 L-111.6 77.1 -110.75 77.3 -110.35 77.75 -101.8 75.55 Q-99.05 77.05 -96.4 77.25 L-96.0 78.05 Q-93.95 77.9 -92.9 79.25 L-20.95 79.75 -17.5 79.5 -17.3 79.05 -14.35 78.05 Q-14.0 76.15 -11.85 75.45 -10.8 75.3 -9.95 74.5 -9.55 74.05 -8.9 74.1 -5.3 73.5 -2.15 75.3 L-1.85 76.6 0.0 76.45 0.2 76.4 1.4 77.2 Q3.65 75.5 6.15 76.5 7.8 75.25 10.0 75.95 L11.0 76.1 Q12.95 75.5 14.65 76.1 L15.2 76.95 15.35 77.0 17.3 76.55 Q19.15 76.55 19.7 77.5 L19.8 77.9 22.0 77.45 22.45 77.25 Q23.65 76.3 25.4 76.25 L26.85 75.85 Q29.25 75.05 31.35 76.25 L31.3 77.05 31.15 77.45 31.9 77.35 33.6 77.1 34.55 78.15 36.5 78.25 37.0 78.65 40.05 78.9 41.55 80.35 62.25 80.5 66.35 78.1 67.35 77.05 72.25 76.8 M141.0 75.55 L140.0 73.8 141.75 73.5 140.3 71.6 143.05 70.5 141.5 69.05 141.75 67.5 143.1 66.8 140.5 63.2 138.1 65.2 140.7 66.85 136.8 68.25 139.1 69.25 139.05 69.5 Q138.35 70.8 137.0 71.5 L135.85 71.9 136.85 72.75 136.5 72.9 133.9 73.15 134.1 73.65 Q134.4 75.5 135.6 76.45 L136.7 77.7 141.95 76.55 141.0 75.55 M123.4 59.95 Q125.05 59.95 125.7 61.35 L126.75 60.6 124.6 58.25 124.6 57.0 Q124.15 55.75 122.9 55.85 122.95 56.9 122.15 57.55 120.75 58.65 120.3 60.0 L121.7 60.1 123.4 59.95 M23.75 77.9 L19.8 79.05 18.8 78.65 18.4 77.75 14.2 77.75 13.75 76.8 10.7 78.05 10.1 77.15 9.65 76.95 8.4 76.8 Q7.55 76.8 6.85 77.4 L5.8 78.05 5.15 77.4 4.85 77.25 2.3 77.45 2.0 77.65 1.2 78.85 Q1.1 77.45 0.0 77.35 L-0.7 77.4 Q-1.7 77.45 -2.45 78.05 L-2.9 77.7 -3.1 75.2 -5.1 75.5 -5.8 75.95 -6.2 75.75 Q-6.75 74.45 -8.0 74.45 -9.05 74.4 -9.85 75.25 L-10.2 76.35 -13.4 77.5 -13.15 78.25 -13.45 79.05 -16.2 79.2 -16.55 79.75 -13.25 80.0 34.8 80.35 40.45 80.35 39.95 79.9 36.6 79.45 36.3 79.1 34.1 79.15 33.15 77.7 31.05 78.5 30.65 78.15 30.55 77.95 30.0 76.45 28.5 76.55 Q27.5 76.65 27.3 77.0 L27.05 77.35 26.95 77.4 Q25.6 76.55 24.1 76.95 23.55 77.05 23.65 77.25 L23.75 77.9 M63.35 81.55 L61.65 83.95 Q69.55 85.05 77.1 83.15 L76.2 82.3 Q74.7 80.9 74.0 78.95 L68.65 78.15 63.35 81.55 M-7.05 61.2 L-8.1 61.25 Q-12.45 61.55 -16.5 63.3 L-12.85 63.2 -12.75 65.45 Q-10.85 65.25 -9.75 63.9 L-7.1 65.75 -6.6 64.5 -5.95 63.75 -2.8 63.75 -7.05 61.2 M-155.55 79.25 L-155.8 78.9 Q-157.1 77.1 -159.2 78.05 L-159.55 78.55 -161.5 77.6 -162.35 77.85 -163.45 79.2 -164.25 78.45 -165.45 78.65 Q-166.2 79.0 -166.45 79.65 L-165.15 79.75 -155.55 79.25 M-122.8 77.9 L-125.0 78.4 Q-126.15 78.35 -126.9 77.45 L-128.45 78.35 Q-130.2 78.85 -130.85 77.0 -131.5 77.7 -132.45 77.85 -133.9 78.2 -134.95 77.3 L-135.35 76.2 -137.5 78.4 -138.4 77.75 Q-139.8 75.95 -140.35 73.8 L-143.0 78.15 -141.35 78.45 -141.1 78.65 -141.95 79.95 -120.5 80.0 -122.8 77.9 M-96.7 78.8 Q-97.55 77.4 -99.45 78.15 L-99.35 77.3 -101.2 77.4 -101.7 76.7 -102.15 76.55 -104.5 78.15 -104.8 77.75 -105.4 77.6 -111.05 79.1 -111.8 78.25 -113.85 79.2 -114.45 78.05 -116.25 77.55 Q-118.9 76.4 -121.05 77.95 L-120.55 78.4 -118.75 80.0 -95.2 79.3 -96.7 78.8 M-238.0 46.85 L-241.15 44.65 Q-244.85 42.05 -248.85 39.95 -251.85 38.3 -254.9 39.9 -258.9 42.0 -262.6 44.4 L-258.85 43.8 -258.7 44.65 Q-258.6 46.75 -258.3 47.65 L-253.95 44.45 Q-251.4 45.75 -249.85 47.95 L-249.75 47.6 Q-249.05 45.3 -247.0 44.2 L-238.0 46.85 M-169.65 64.45 L-169.1 64.5 Q-172.05 61.65 -175.8 60.3 L-177.55 60.2 Q-181.85 61.25 -186.2 62.9 L-181.65 63.45 -181.55 65.75 -176.45 63.85 -173.2 66.65 -172.95 66.2 Q-171.95 63.9 -169.65 64.45 M-177.4 71.05 Q-177.8 72.2 -178.75 73.05 L-179.7 73.65 -178.45 73.55 Q-178.0 73.4 -177.8 73.85 -178.65 75.55 -180.5 76.3 L-177.9 76.3 Q-178.15 78.35 -180.35 79.75 L-174.9 79.65 -177.4 77.1 -174.8 75.95 -175.55 75.35 Q-176.7 74.75 -176.55 73.7 L-175.6 73.15 -176.0 72.45 Q-176.75 70.95 -177.4 71.05 M-195.55 82.75 Q-195.3 82.9 -195.1 83.0 L-189.2 82.25 -189.3 81.45 -191.25 80.2 -194.2 78.65 -194.65 79.2 Q-195.75 80.75 -196.1 82.25 L-195.55 82.75 M-286.4 46.35 Q-290.1 45.8 -293.1 48.5 L-296.75 50.65 -291.3 49.75 -290.25 52.0 -287.1 49.8 -284.45 51.75 -283.75 49.25 -279.95 49.05 Q-281.8 47.7 -283.8 46.9 -285.1 46.35 -286.4 46.35 M-284.2 53.35 L-286.95 51.5 -288.95 53.0 -291.2 53.05 -291.7 51.05 -298.95 51.65 -304.7 53.95 -296.6 55.3 Q-285.7 57.4 -276.45 51.4 L-277.85 50.45 -282.9 50.35 -283.7 52.55 -284.2 53.35 M-258.4 78.05 L-260.05 75.95 -257.55 75.0 -260.3 72.95 -258.7 71.95 -260.55 69.45 -264.1 72.6 -262.3 72.7 -261.75 72.95 -264.15 74.7 -262.8 74.45 Q-261.95 74.2 -261.45 75.0 L-263.6 77.2 -265.0 78.5 Q-264.1 78.7 -263.3 79.1 -262.5 79.45 -261.9 80.0 L-261.05 81.1 -258.5 81.05 Q-260.05 79.8 -260.05 79.35 -260.05 78.4 -257.65 78.55 L-258.4 78.05 M-245.3 80.05 L-246.15 77.35 -246.55 78.0 Q-247.6 79.35 -249.35 79.4 L-250.35 79.45 -249.4 80.9 -245.05 80.8 -245.3 80.05 M-251.8 79.05 L-249.75 78.3 -250.65 76.45 -249.15 75.35 -250.8 73.3 -253.7 75.35 -251.95 76.3 -255.5 78.45 -256.0 78.7 -255.65 79.05 Q-255.65 79.5 -258.55 79.75 L-256.85 81.0 -250.55 80.9 -251.8 79.05" fill="#000000" fill-rule="evenodd" stroke="none"/>
    <path d="M451.9 7.1 L451.9 28.2 Q447.7 29.8 446.25 33.95 L445.9 35.4 Q441.05 33.3 436.7 35.85 432.95 38.1 432.4 42.25 429.55 36.35 422.9 36.35 416.85 36.35 416.05 42.25 411.1 40.35 408.85 44.65 408.05 46.15 408.65 47.95 404.55 46.45 401.0 48.45 399.95 48.95 399.0 49.75 393.45 45.7 387.2 48.2 L386.5 49.65 Q383.3 46.45 378.35 47.3 L374.6 48.2 373.2 48.8 Q372.8 45.15 368.7 43.45 L365.55 42.65 Q364.6 37.75 359.2 36.65 356.05 35.9 353.35 37.35 L350.95 39.1 350.7 39.05 349.75 38.55 349.05 38.2 Q346.2 39.2 343.85 41.65 342.75 42.85 342.15 44.35 338.25 42.6 334.9 45.0 333.85 45.75 333.3 46.75 332.8 44.15 330.15 42.9 327.1 41.25 323.55 42.5 321.85 35.5 314.75 36.2 313.55 36.5 312.8 37.15 308.7 34.65 304.95 37.45 302.8 39.0 301.65 41.45 298.05 39.75 295.7 42.5 294.35 44.15 295.2 46.2 289.4 45.95 285.1 49.75 L284.85 50.25 281.25 48.55 Q275.85 45.7 272.2 44.4 268.25 42.8 264.2 44.35 L236.3 54.7 234.95 55.1 235.55 53.3 Q236.7 50.7 238.2 50.7 L240.05 50.8 Q240.55 46.35 242.05 45.45 L247.7 45.0 249.0 45.7 Q249.6 45.7 251.1 43.1 253.15 40.5 256.5 40.5 259.9 40.5 261.55 42.0 262.25 42.0 262.7 41.25 L263.65 39.65 Q265.5 37.35 271.7 37.35 274.85 37.35 278.85 41.7 L279.2 41.6 Q281.7 36.3 288.55 36.3 289.75 36.3 292.05 37.5 L292.55 36.95 291.5 33.65 Q291.5 31.85 292.95 29.7 295.55 25.5 296.5 25.5 L298.25 25.8 Q298.15 23.65 299.2 21.5 300.65 18.65 303.35 18.65 304.5 18.65 306.7 20.1 307.5 20.6 307.85 21.4 308.1 21.95 308.9 21.95 L309.7 21.75 309.7 19.8 Q310.3 18.6 313.25 18.6 315.75 18.6 319.05 21.0 322.3 23.3 322.3 24.85 L322.0 25.65 Q321.85 26.1 322.65 26.4 L323.35 26.1 326.2 25.75 Q330.45 25.75 331.9 28.5 L333.45 32.2 Q337.85 26.25 344.5 26.25 346.4 26.25 346.9 27.15 L347.7 28.0 348.25 27.85 Q347.95 24.85 350.8 22.05 353.75 19.15 357.45 19.15 360.05 19.15 360.45 20.05 360.8 20.9 361.3 20.9 361.95 20.9 362.1 20.6 L362.25 20.0 Q361.7 19.6 361.7 19.0 361.7 18.5 362.95 17.55 364.8 16.25 367.7 16.25 372.2 16.25 374.35 19.05 L375.15 20.8 Q375.4 21.95 375.95 22.45 380.3 22.5 382.45 24.45 384.1 25.95 384.15 27.85 L385.6 34.65 384.8 35.8 385.05 36.35 385.7 36.45 387.4 35.25 Q388.95 33.95 391.25 33.65 L395.2 32.75 398.3 33.0 Q400.5 33.15 401.55 32.2 L400.75 30.65 Q400.75 27.45 404.2 24.7 407.8 21.75 412.2 21.75 412.9 21.75 415.4 23.25 L416.05 22.7 415.25 20.55 Q415.25 18.8 417.1 17.2 419.65 14.9 424.65 14.9 426.55 14.9 427.9 16.35 L429.5 17.7 Q430.15 17.7 430.05 17.45 428.75 13.4 436.35 10.0 442.75 7.15 448.95 7.0 L451.9 7.1 M451.9 63.8 L451.9 65.6 424.0 67.8 Q413.95 67.3 404.05 65.25 399.5 64.15 394.95 65.1 L390.1 62.85 Q395.3 60.0 400.9 61.2 L405.3 62.3 405.15 62.3 405.45 62.35 Q415.7 66.5 426.85 65.85 L448.95 63.65 451.9 63.8 M351.65 50.4 Q353.85 51.1 355.9 52.3 L352.2 51.65 349.7 53.25 349.1 53.25 348.3 52.1 Q347.15 52.05 346.6 53.1 L344.2 53.2 343.75 52.75 Q343.85 52.1 343.05 52.0 L342.3 52.15 Q345.8 50.5 349.4 50.05 L351.65 50.4 M311.7 53.25 L310.25 51.4 305.0 53.3 315.1 48.05 318.0 49.3 Q315.05 50.55 312.55 52.6 L311.7 53.25 M267.05 49.55 L266.0 48.75 262.5 50.7 261.8 48.75 254.95 49.3 Q261.15 46.2 267.7 45.7 L272.15 46.05 274.85 46.95 Q271.45 47.1 267.05 49.55 M228.75 64.5 L227.9 63.75 230.7 63.85 231.0 64.45 233.2 63.65 233.7 63.75 234.25 65.45 236.4 65.7 236.65 65.95 236.65 66.65 239.8 67.75 240.55 67.1 Q241.6 66.1 242.8 66.3 L244.1 67.2 Q245.4 66.55 246.65 65.85 L248.5 65.55 249.2 66.15 250.3 65.35 Q251.25 64.45 252.6 64.45 L253.25 66.0 254.05 66.15 256.6 64.95 257.8 66.95 261.95 66.8 261.95 68.1 262.6 68.25 263.6 67.7 Q264.7 67.0 266.15 67.05 L266.5 67.1 266.85 67.8 271.5 69.25 267.75 69.35 Q265.65 68.25 263.15 69.05 L262.75 69.05 260.9 68.1 257.8 68.05 256.8 66.65 252.1 66.55 249.55 68.0 Q247.5 67.0 245.65 68.25 L244.7 68.8 243.1 68.15 Q241.5 67.55 240.5 68.95 L236.35 67.85 236.0 66.35 234.25 66.8 233.6 66.3 232.7 65.05 230.9 65.75 228.75 64.5 M197.6 61.35 L195.8 60.45 195.05 60.85 194.9 62.85 192.65 64.2 Q191.8 63.25 191.05 63.25 190.2 63.25 189.75 64.85 L189.6 65.55 188.55 65.75 187.25 64.95 186.5 65.8 Q178.45 64.25 170.95 67.7 165.8 70.0 160.4 71.55 L154.4 73.0 Q148.3 74.1 143.0 71.55 L143.15 71.5 144.55 70.9 144.75 70.75 144.5 70.1 155.35 70.45 Q167.4 66.75 179.55 63.55 L181.2 63.7 Q184.45 64.5 187.5 63.3 192.5 61.25 197.1 58.35 199.6 56.75 202.55 55.75 L201.0 58.45 203.05 58.55 202.95 58.7 Q201.4 58.95 200.4 59.5 L197.6 61.35 M216.2 59.05 L217.5 60.85 Q217.0 63.5 213.85 62.9 L212.05 63.0 211.0 64.2 Q208.8 64.95 207.15 63.8 205.75 62.85 204.2 63.55 L202.25 63.5 201.9 62.85 Q202.45 60.9 203.95 59.7 204.75 61.5 206.8 61.9 L210.25 60.85 212.95 62.05 213.45 61.9 Q215.15 60.7 216.2 59.05 M219.9 69.9 Q219.9 71.15 219.25 71.9 218.6 72.65 217.35 72.95 L212.05 73.3 200.55 72.65 Q199.7 72.55 199.35 71.75 L199.2 71.4 Q198.95 70.55 199.0 69.7 L203.6 69.8 Q204.3 71.05 205.8 71.35 L206.75 71.4 Q208.9 70.65 210.9 70.3 L212.3 71.3 Q213.2 72.2 214.6 71.55 216.2 70.85 217.1 69.6 L219.9 69.9 M212.95 53.8 Q209.8 54.5 206.5 53.85 205.65 52.6 207.55 51.95 L208.65 51.65 209.65 49.2 210.75 49.5 Q210.85 52.35 213.5 52.9 L212.95 53.8 M130.25 66.3 L131.3 67.75 127.4 67.85 Q127.0 67.8 126.7 68.2 125.1 69.8 123.05 69.0 L120.8 68.25 119.5 68.2 Q116.5 69.45 113.75 68.15 L115.85 65.45 Q119.45 68.1 123.55 66.05 L126.15 67.6 130.25 66.3 M112.95 75.1 L114.0 75.0 114.5 75.85 115.55 76.6 Q118.5 77.3 121.5 76.2 124.25 79.15 127.35 76.4 L131.45 77.85 133.05 76.3 133.9 76.2 136.45 78.9 Q136.65 81.1 134.15 81.15 L128.65 80.85 Q125.05 81.45 121.3 81.0 117.75 80.2 114.3 81.0 111.75 81.55 109.7 80.3 109.3 77.65 112.25 76.2 L112.7 75.65 112.95 75.1 M-164.25 66.75 L-167.65 63.95 Q-166.05 59.05 -160.7 59.35 -159.0 59.45 -157.3 60.45 L-156.9 60.5 Q-157.7 56.7 -154.1 55.4 L-150.25 55.0 Q-147.65 55.35 -145.4 56.85 L-144.95 56.65 Q-144.25 51.85 -139.75 50.25 -136.2 49.1 -132.55 50.1 -129.95 50.95 -127.7 50.9 -128.5 49.2 -128.4 47.15 L-128.0 45.75 Q-125.7 41.65 -121.2 42.45 L-119.15 42.65 Q-118.25 42.8 -117.5 43.4 -112.5 37.5 -104.75 39.35 -101.25 40.05 -98.8 42.75 -96.5 45.05 -97.3 48.1 L-97.6 49.65 -89.0 49.05 Q-84.9 49.1 -83.0 52.65 L-82.35 54.45 -81.6 56.35 -80.95 56.15 Q-80.05 55.45 -79.95 54.55 -73.7 51.15 -68.85 56.05 L-68.75 56.05 -68.05 53.9 Q-67.5 52.25 -65.85 51.3 L-65.8 51.1 Q-66.45 50.9 -64.55 50.85 -60.25 50.8 -56.25 52.3 -53.65 46.8 -47.95 48.05 -46.65 48.2 -45.75 48.95 -44.7 49.9 -44.1 49.1 L-43.85 49.1 -43.75 48.95 -43.7 49.0 -43.7 48.6 -43.65 48.3 Q-44.65 46.3 -42.85 44.7 -39.3 41.5 -34.45 42.4 L-32.45 42.85 Q-32.15 41.25 -32.5 39.45 -32.7 38.3 -32.25 37.25 -29.65 31.85 -23.35 32.1 L-20.4 32.4 Q-21.0 27.25 -16.75 25.2 -15.0 24.35 -13.15 24.3 -7.1 23.75 -1.85 26.5 L0.0 25.85 Q4.7 24.45 9.6 26.65 12.15 27.7 13.65 30.05 17.3 36.15 12.7 41.6 L12.75 42.15 13.75 42.3 Q18.0 39.5 22.0 41.35 L24.3 42.8 Q25.2 43.5 25.55 44.75 26.8 49.0 24.65 52.75 L25.35 53.2 Q29.8 50.4 35.05 50.4 39.5 50.95 41.9 54.8 L42.95 56.35 43.1 56.3 Q44.2 51.6 48.3 49.6 49.45 49.1 50.8 49.05 53.6 48.85 54.7 51.4 L55.2 52.3 Q60.65 49.75 65.5 53.2 66.9 54.2 67.6 55.7 69.6 59.95 66.5 63.25 70.0 64.1 73.0 66.1 L74.15 67.35 73.35 68.95 73.4 69.7 74.8 69.7 75.1 69.35 Q79.9 68.1 84.05 70.05 L86.4 71.4 86.95 71.8 Q88.6 73.1 89.05 74.4 86.55 75.75 84.05 75.9 80.85 76.1 77.65 74.4 75.2 73.1 72.65 72.75 L71.6 71.4 Q68.6 68.15 63.9 70.1 L63.75 70.1 Q62.1 68.7 59.8 68.85 L56.95 69.45 55.35 69.6 Q54.55 66.9 51.65 66.1 L45.65 66.3 44.9 67.05 Q43.45 64.35 40.3 63.9 35.1 62.7 31.85 66.8 29.2 63.9 25.25 64.35 23.75 64.35 22.55 65.1 L19.45 62.9 Q18.3 62.15 16.95 62.1 L11.8 61.65 Q12.45 58.9 10.4 56.75 9.75 56.2 8.95 55.9 6.6 55.0 3.85 54.65 3.45 50.15 0.0 48.45 -1.3 47.8 -3.1 47.55 L-9.0 47.8 Q-11.5 48.6 -13.15 50.7 -18.5 47.25 -22.8 52.0 -24.7 54.05 -23.85 56.65 -30.15 55.4 -33.1 61.1 L-38.0 61.4 Q-38.95 60.0 -40.6 59.3 -41.95 58.6 -43.65 58.65 -43.95 59.2 -44.5 59.1 -46.75 58.8 -48.8 59.55 L-49.9 60.9 Q-54.05 58.9 -58.4 61.3 -59.8 62.05 -60.4 63.5 L-60.75 64.1 Q-63.5 62.95 -66.85 62.55 -70.2 62.45 -72.75 64.4 -76.0 61.9 -79.25 64.25 L-80.3 65.05 Q-82.65 62.45 -85.8 63.8 -88.55 64.9 -90.9 66.55 -92.35 65.4 -94.25 65.25 -97.1 64.85 -99.95 65.2 -101.4 60.5 -106.45 59.85 L-109.35 60.05 Q-110.15 54.5 -115.95 54.35 -120.45 54.25 -123.1 57.8 -124.25 59.25 -124.5 61.0 L-125.1 61.0 Q-125.7 59.4 -127.6 59.45 -130.45 59.05 -131.85 61.45 -138.5 58.0 -144.4 63.05 -147.05 61.45 -149.95 60.7 L-151.5 61.05 Q-153.4 62.1 -154.85 64.05 -156.85 63.0 -159.6 63.2 -162.95 63.65 -164.25 66.75 M123.4 59.95 L121.7 60.1 120.3 60.0 Q120.75 58.65 122.15 57.55 122.95 56.9 122.9 55.85 124.15 55.75 124.6 57.0 L124.6 58.25 126.75 60.6 125.7 61.35 Q125.05 59.95 123.4 59.95 M-13.25 80.0 L-16.55 79.75 -16.2 79.2 -13.45 79.05 -13.15 78.25 -13.4 77.5 -10.2 76.35 -9.85 75.25 Q-9.05 74.4 -8.0 74.45 -6.75 74.45 -6.2 75.75 L-5.8 75.95 -5.1 75.5 -3.1 75.2 -2.9 77.7 -2.45 78.05 Q-1.7 77.45 -0.7 77.4 L0.0 77.35 Q1.1 77.45 1.2 78.85 L2.0 77.65 2.3 77.45 4.85 77.25 5.15 77.4 5.8 78.05 6.85 77.4 Q7.55 76.8 8.4 76.8 L9.65 76.95 10.1 77.15 10.7 78.05 13.75 76.8 14.2 77.75 18.4 77.75 18.8 78.65 19.8 79.05 23.75 77.9 23.7 77.35 24.1 76.95 Q25.6 76.55 26.95 77.4 L27.05 77.35 28.5 76.55 30.0 76.45 30.55 77.95 Q28.6 77.15 27.6 78.9 L27.5 79.1 26.8 79.0 26.05 78.2 20.2 79.6 Q19.4 79.95 18.5 79.6 16.55 78.8 14.05 78.8 L13.5 78.6 Q12.15 77.6 10.7 79.0 L1.7 79.25 -0.9 78.15 -2.9 78.6 Q-4.1 78.05 -4.3 76.3 L-5.8 77.1 -8.65 75.85 Q-9.45 77.9 -11.8 78.4 -12.5 78.65 -12.85 79.45 L-13.25 80.0 M30.65 78.15 L31.05 78.5 33.15 77.7 34.1 79.15 36.3 79.1 36.6 79.45 39.95 79.9 40.45 80.35 34.8 80.35 30.65 79.05 30.65 78.15 M-7.05 61.2 L-2.8 63.75 -5.95 63.75 -6.6 64.5 -7.1 65.75 -9.75 63.9 Q-10.85 65.25 -12.75 65.45 L-12.85 63.2 -16.5 63.3 Q-12.45 61.55 -8.1 61.25 L-7.05 61.2 M-324.55 70.15 Q-324.15 70.5 -324.1 71.0 L-324.25 73.15 -320.2 72.75 -320.1 73.65 -320.6 76.45 -320.35 77.1 -316.55 76.7 -315.45 79.85 Q-314.2 78.3 -312.55 77.55 -311.55 77.1 -310.45 76.95 L-309.4 77.35 Q-308.7 75.9 -307.55 75.15 -306.5 74.45 -305.05 74.3 -303.9 74.4 -303.2 75.05 -302.75 75.5 -302.45 76.2 L-298.8 75.1 -296.7 76.8 -296.2 78.9 -293.45 78.05 Q-291.85 77.95 -290.8 78.95 L-286.15 77.25 -285.8 75.85 Q-284.95 74.9 -283.75 75.0 -282.55 74.8 -281.8 75.0 L-282.05 75.7 -281.65 76.55 Q-279.05 74.8 -276.15 76.3 L-275.8 76.45 -275.7 76.75 -275.8 77.6 -276.15 78.45 -275.95 78.95 -275.4 79.1 -274.2 78.45 -274.0 78.4 Q-273.05 78.0 -272.0 78.4 L-271.7 78.6 -272.1 79.85 -271.4 80.0 -266.4 79.8 -262.4 80.85 -263.2 81.15 -269.15 80.0 -271.7 81.25 -273.6 81.3 -273.8 81.0 -274.2 80.0 Q-275.35 80.05 -276.1 80.5 L-276.9 81.05 Q-277.75 81.05 -277.65 78.9 -277.6 76.65 -279.25 76.65 -280.35 77.9 -280.9 77.9 -281.65 77.9 -281.9 77.05 -282.05 76.15 -283.05 76.15 -284.3 76.15 -284.3 77.0 L-284.05 77.95 Q-284.05 78.9 -284.9 79.1 L-287.5 79.2 Q-288.35 80.8 -290.0 80.8 -290.9 80.8 -291.2 80.3 -291.5 79.85 -293.4 79.85 L-296.85 80.5 Q-297.6 80.5 -298.4 78.6 -299.2 76.65 -300.6 76.65 -302.2 77.9 -303.05 77.9 -304.0 77.9 -304.3 77.1 -304.6 76.3 -305.25 76.3 -307.95 76.3 -308.15 77.75 -308.3 79.2 -309.4 79.2 -309.8 78.65 -310.45 78.65 -311.45 78.65 -312.55 79.5 L-313.4 80.25 -314.95 81.8 -315.1 81.85 -315.45 81.8 Q-316.1 81.65 -316.3 81.0 L-316.5 79.9 -317.55 78.15 -320.35 78.95 Q-321.35 78.95 -321.35 76.5 L-321.4 75.45 Q-321.6 74.1 -322.5 74.1 -323.85 74.9 -324.55 75.1 L-324.55 70.15 M-155.55 79.25 L-165.15 79.75 -166.45 79.65 Q-166.2 79.0 -165.45 78.65 L-164.25 78.45 -163.45 79.2 -162.35 77.85 -161.5 77.6 -159.55 78.55 -159.2 78.05 Q-157.1 77.1 -155.8 78.9 L-155.55 79.25 M-120.55 78.4 L-121.05 77.95 Q-118.9 76.4 -116.25 77.55 L-114.45 78.05 -113.85 79.2 -111.8 78.25 -111.05 79.1 -105.4 77.6 -104.8 77.75 -104.5 78.15 -102.15 76.55 -101.7 76.7 -101.2 77.4 -99.35 77.3 -99.45 78.15 Q-97.55 77.4 -96.7 78.8 L-107.5 79.15 -111.1 79.75 -120.55 78.4 M-238.0 46.85 L-247.0 44.2 Q-249.05 45.3 -249.75 47.6 L-249.85 47.95 Q-251.4 45.75 -253.95 44.45 L-258.3 47.65 Q-258.6 46.75 -258.7 44.65 L-258.85 43.8 -262.6 44.4 Q-258.9 42.0 -254.9 39.9 -251.85 38.3 -248.85 39.95 -244.85 42.05 -241.15 44.65 L-238.0 46.85 M-176.45 63.85 L-181.55 65.75 -181.65 63.45 -186.2 62.9 Q-181.85 61.25 -177.55 60.2 L-175.8 60.3 Q-172.05 61.65 -169.1 64.5 L-169.65 64.45 Q-172.85 62.85 -176.3 63.75 L-176.45 63.85 M-286.4 46.35 Q-285.1 46.35 -283.8 46.9 -281.8 47.7 -279.95 49.05 L-283.75 49.25 -284.45 51.75 -287.1 49.8 -290.25 52.0 -291.3 49.75 -296.75 50.65 -293.1 48.5 Q-290.1 45.8 -286.4 46.35" fill="#ffffff" fill-rule="evenodd" stroke="none"/>
    <path d="M311.4 54.55 L312.0 55.1 Q313.8 54.65 315.25 53.05 L315.3 53.05 317.4 54.75 Q318.05 55.3 318.8 55.45 L320.4 52.8 Q323.8 52.1 327.4 54.0 L330.9 55.7 325.55 58.4 Q314.3 64.3 301.5 65.25 289.8 65.8 278.7 68.05 L274.7 69.1 272.7 69.25 Q271.3 66.15 267.65 67.3 L267.4 66.35 264.55 66.1 263.25 66.7 262.9 66.35 262.75 66.1 260.85 65.8 258.5 66.15 257.9 64.35 255.6 64.25 254.2 64.95 Q253.7 63.5 252.3 63.35 249.5 65.05 246.1 64.8 L244.3 65.95 Q242.0 64.4 240.1 66.35 L239.95 66.55 Q238.3 66.65 237.25 65.0 L236.9 64.5 Q234.95 64.25 233.65 62.85 L233.3 62.55 231.85 63.2 226.9 62.75 228.45 61.85 Q246.2 59.45 262.55 52.0 L263.2 51.85 265.75 50.35 Q267.0 51.75 268.9 52.3 269.8 52.05 270.25 51.1 L270.9 49.9 274.2 51.75 275.15 51.55 275.5 49.4 Q281.8 49.25 287.25 52.3 289.15 53.4 291.25 54.15 L296.2 55.0 Q303.65 57.7 310.6 53.85 L311.4 54.55 M76.2 75.2 Q80.0 77.65 84.05 77.25 L87.0 76.55 92.7 74.65 97.05 74.5 96.5 75.3 96.55 75.75 98.05 75.85 96.6 78.45 97.4 79.2 96.15 80.5 91.55 80.15 84.05 79.9 76.25 80.2 75.4 78.35 Q74.7 77.05 73.25 77.0 L72.25 76.8 76.2 75.2 M66.35 78.1 L62.25 80.5 41.55 80.35 40.05 78.9 37.0 78.65 36.5 78.25 34.55 78.15 33.6 77.1 31.9 77.35 31.3 77.05 31.35 76.25 Q29.25 75.05 26.85 75.85 L25.4 76.25 Q23.65 76.3 22.45 77.25 L19.7 77.5 Q19.15 76.55 17.3 76.55 L15.35 77.0 15.2 76.95 14.65 76.1 Q12.95 75.5 11.0 76.1 L10.0 75.95 Q7.8 75.25 6.15 76.5 3.65 75.5 1.4 77.2 L0.2 76.4 0.0 76.45 -1.85 76.6 -2.15 75.3 Q-5.3 73.5 -8.9 74.1 -9.55 74.05 -9.95 74.5 -10.8 75.3 -11.85 75.45 -14.0 76.15 -14.35 78.05 L-17.3 79.05 -17.5 79.5 -20.95 79.75 -92.9 79.25 Q-93.95 77.9 -96.0 78.05 L-96.4 77.25 Q-99.05 77.05 -101.8 75.55 L-110.35 77.75 -110.75 77.3 -111.6 77.1 -113.35 77.6 Q-115.3 75.7 -118.3 76.05 -120.55 75.85 -121.8 77.35 L-122.7 76.55 -125.35 77.25 -126.75 76.05 Q-128.8 78.45 -130.4 75.7 L-130.9 75.5 -131.75 76.45 -134.0 76.5 -135.2 74.1 -137.2 76.55 Q-138.8 75.25 -139.2 72.55 L-139.25 72.2 -140.05 71.55 -133.65 69.7 Q-129.35 68.9 -125.7 71.1 L-118.5 74.7 -115.15 75.05 -111.15 74.3 Q-108.1 73.2 -104.85 72.95 -99.35 73.65 -94.2 75.95 -92.0 76.95 -89.7 76.4 -88.8 76.35 -88.25 75.75 -85.95 73.5 -83.2 74.75 L-80.25 76.1 Q-75.95 77.9 -71.15 75.65 -68.55 74.35 -65.85 74.75 -64.05 75.25 -62.35 76.05 -56.35 79.0 -49.7 78.15 L-50.7 78.3 Q-41.3 77.95 -32.2 75.6 -28.1 74.45 -24.05 72.85 L-21.15 71.6 Q-17.1 69.55 -13.8 66.2 L-13.45 66.65 Q-11.55 67.05 -10.3 65.55 L-10.0 65.35 Q-8.35 66.9 -6.25 66.85 L-5.65 64.95 Q-2.6 64.5 0.0 65.65 1.9 66.45 3.55 68.1 L6.55 70.7 7.75 71.5 Q9.9 72.75 12.25 73.25 16.9 75.9 22.0 75.4 L26.2 74.45 27.0 74.2 27.7 74.5 31.25 75.1 Q35.75 77.75 40.25 75.5 L41.85 74.6 Q44.65 76.95 48.2 76.95 L48.8 76.95 Q54.0 78.3 59.25 76.95 L60.7 76.3 64.25 76.45 63.85 76.9 Q64.75 78.0 66.35 78.1 M-140.35 71.95 L-140.45 72.05 -140.85 72.7 Q-147.2 74.8 -152.9 74.8 L-153.15 74.8 -154.75 73.85 Q-148.8 74.15 -143.15 72.6 L-140.1 71.6 -140.35 71.95" fill="#abaeba" fill-rule="evenodd" stroke="none"/>
    <path d="M451.9 69.95 L451.9 72.6 Q443.8 74.2 435.7 74.3 L383.45 71.95 Q367.8 70.3 352.55 66.7 L348.5 66.1 Q341.35 66.1 334.45 67.6 L326.55 69.1 Q315.7 69.6 305.6 72.75 L305.2 72.85 302.45 73.4 Q293.85 73.6 284.8 73.4 L226.7 75.15 220.85 74.8 Q219.55 76.75 217.25 77.05 209.05 77.6 200.95 76.6 200.1 76.65 199.4 76.15 198.1 75.2 197.75 73.55 177.1 73.2 156.8 77.75 L137.55 81.5 136.9 83.15 136.4 84.05 135.75 84.65 135.55 84.9 124.4 84.95 119.1 84.35 112.6 85.0 111.45 85.0 Q110.3 84.85 109.2 84.2 L91.55 84.25 84.05 84.2 78.35 84.15 Q78.95 83.35 78.45 82.5 L78.0 81.8 85.3 81.3 91.55 81.7 Q100.4 82.05 109.2 81.55 L117.35 81.9 Q119.55 81.45 121.75 81.95 L127.75 82.35 135.55 82.25 Q137.0 81.1 137.45 79.15 L137.55 78.9 Q158.75 74.2 180.35 71.65 L187.0 70.9 Q192.3 70.5 197.75 70.9 L198.05 71.75 Q199.35 74.65 202.85 74.7 210.95 75.3 218.8 73.6 220.35 73.4 220.85 72.2 L269.15 70.9 Q285.85 71.1 302.45 70.75 306.25 70.4 310.1 69.4 L340.75 63.95 Q351.2 62.1 361.35 65.3 L369.45 67.45 Q384.75 70.05 400.1 70.5 L435.7 71.7 444.25 71.25 451.9 69.95" fill="#e1e5e8" fill-rule="evenodd" stroke="none"/>
    <path d="M451.9 28.2 L451.9 62.35 436.9 63.65 Q421.3 66.1 406.3 61.45 L403.05 60.2 Q399.4 58.2 395.55 59.7 390.1 62.05 384.4 62.4 370.5 61.25 359.2 52.85 355.95 50.45 352.15 49.0 L345.45 49.2 Q338.95 52.45 332.65 55.1 326.75 50.95 319.95 48.05 317.6 47.05 315.0 46.6 L313.5 47.2 Q310.8 48.55 308.25 50.15 302.95 53.65 296.55 53.6 290.45 53.1 284.85 50.25 L285.1 49.75 Q289.4 45.95 295.2 46.2 294.35 44.15 295.7 42.5 298.05 39.75 301.65 41.45 302.8 39.0 304.95 37.45 308.7 34.65 312.8 37.15 313.55 36.5 314.75 36.2 321.85 35.5 323.55 42.5 327.1 41.25 330.15 42.9 332.8 44.15 333.3 46.75 333.85 45.75 334.9 45.0 338.25 42.6 342.15 44.35 342.75 42.85 343.85 41.65 346.2 39.2 349.05 38.2 L349.75 38.55 350.7 39.05 350.95 39.1 353.35 37.35 Q356.05 35.9 359.2 36.65 364.6 37.75 365.55 42.65 L368.7 43.45 Q372.8 45.15 373.2 48.8 L374.6 48.2 378.35 47.3 Q383.3 46.45 386.5 49.65 L387.2 48.2 Q393.45 45.7 399.0 49.75 399.95 48.95 401.0 48.45 404.55 46.45 408.65 47.95 408.05 46.15 408.85 44.65 411.1 40.35 416.05 42.25 416.85 36.35 422.9 36.35 429.55 36.35 432.4 42.25 432.95 38.1 436.7 35.85 441.05 33.3 445.9 35.4 L446.25 33.95 Q447.7 29.8 451.9 28.2 M72.65 72.75 L63.4 75.05 Q62.2 75.4 60.9 74.65 59.3 73.75 57.45 73.5 48.15 78.15 39.95 71.85 L34.05 73.45 Q30.2 74.35 26.75 72.65 25.1 71.8 23.3 71.45 L22.0 71.3 18.65 71.45 17.7 71.65 11.4 71.5 Q9.25 70.85 7.3 69.5 L-6.55 60.1 Q-8.65 58.65 -10.9 59.65 L-16.6 62.0 Q-20.25 63.4 -23.6 65.3 -31.15 69.4 -39.25 71.7 -44.45 73.2 -49.85 73.95 -54.45 74.6 -58.95 73.4 -61.0 72.95 -62.8 71.85 L-63.15 71.65 Q-66.25 69.6 -69.55 69.4 L-72.15 70.3 Q-74.5 71.35 -77.2 72.0 L-77.35 72.0 Q-78.9 72.25 -80.4 72.0 L-82.35 71.45 -85.05 70.35 -90.0 72.1 -92.7 72.9 -94.35 72.55 Q-94.85 72.3 -95.3 72.15 -99.55 70.35 -103.85 70.2 L-108.95 70.55 -116.75 72.05 Q-118.7 72.05 -120.45 70.95 L-127.8 65.2 Q-130.45 62.85 -133.55 63.95 -142.5 67.2 -151.95 68.85 -155.05 69.25 -158.1 68.1 L-162.85 67.9 -164.25 66.75 Q-162.95 63.65 -159.6 63.2 -156.85 63.0 -154.85 64.05 -153.4 62.1 -151.5 61.05 L-149.95 60.7 Q-147.05 61.45 -144.4 63.05 -138.5 58.0 -131.85 61.45 -130.45 59.05 -127.6 59.45 -125.7 59.4 -125.1 61.0 L-124.5 61.0 Q-124.25 59.25 -123.1 57.8 -120.45 54.25 -115.95 54.35 -110.15 54.5 -109.35 60.05 L-106.45 59.85 Q-101.4 60.5 -99.95 65.2 -97.1 64.85 -94.25 65.25 -92.35 65.4 -90.9 66.55 -88.55 64.9 -85.8 63.8 -82.65 62.45 -80.3 65.05 L-79.25 64.25 Q-76.0 61.9 -72.75 64.4 -70.2 62.45 -66.85 62.55 -63.5 62.95 -60.75 64.1 L-60.4 63.5 Q-59.8 62.05 -58.4 61.3 -54.05 58.9 -49.9 60.9 L-48.8 59.55 Q-46.75 58.8 -44.5 59.1 -43.95 59.2 -43.65 58.65 -41.95 58.6 -40.6 59.3 -38.95 60.0 -38.0 61.4 L-33.1 61.1 Q-30.15 55.4 -23.85 56.65 -24.7 54.05 -22.8 52.0 -18.5 47.25 -13.15 50.7 -11.5 48.6 -9.0 47.8 L-3.1 47.55 Q-1.3 47.8 0.0 48.45 3.45 50.15 3.85 54.65 6.6 55.0 8.95 55.9 9.75 56.2 10.4 56.75 12.45 58.9 11.8 61.65 L16.95 62.1 Q18.3 62.15 19.45 62.9 L22.55 65.1 Q23.75 64.35 25.25 64.35 29.2 63.9 31.85 66.8 35.1 62.7 40.3 63.9 43.45 64.35 44.9 67.05 L45.65 66.3 51.65 66.1 Q54.55 66.9 55.35 69.6 L56.95 69.45 59.8 68.85 Q62.1 68.7 63.75 70.1 L63.9 70.1 Q68.6 68.15 71.6 71.4 L72.65 72.75" fill="#c5d0d4" fill-rule="evenodd" stroke="none"/>
    <path d="M228.45 61.85 L229.1 61.1 227.45 58.45 Q231.2 57.8 234.75 56.5 L253.25 49.95 253.5 50.45 261.15 50.0 261.95 51.95 263.2 51.85 262.55 52.0 Q246.2 59.45 228.45 61.85 M296.2 55.0 L296.65 55.0 Q299.8 55.0 303.0 54.0 303.0 54.7 303.1 54.4 L309.5 52.9 311.4 54.55 310.6 53.85 Q303.65 57.7 296.2 55.0 M221.9 59.7 Q221.2 60.6 221.05 61.15 L222.65 62.05 221.05 62.95 Q220.25 63.3 220.25 64.05 220.25 64.8 221.3 64.95 L220.45 65.4 218.1 63.05 Q218.65 62.25 218.65 61.0 L218.35 60.45 221.9 59.7 M72.25 76.8 L67.35 77.05 66.35 78.1 Q64.75 78.0 63.85 76.9 L64.25 76.45 Q68.85 74.85 73.5 74.3 L76.2 75.2 72.25 76.8 M31.9 77.35 L31.15 77.45 31.3 77.05 31.9 77.35 M22.45 77.25 L22.0 77.45 19.8 77.9 19.7 77.5 22.45 77.25 M-140.05 71.55 L-140.35 71.95 -140.1 71.6 -143.15 72.6 Q-148.8 74.15 -154.75 73.85 L-161.75 68.85 -157.0 69.4 Q-150.9 71.1 -144.7 69.0 -138.65 66.9 -132.4 65.15 L-130.7 65.35 Q-126.4 67.6 -122.85 71.0 L-121.05 72.35 Q-118.7 73.75 -115.7 73.45 L-109.85 72.25 -106.8 71.35 Q-103.25 70.1 -99.8 71.85 L-99.2 72.15 Q-95.85 73.9 -92.2 74.55 L-91.5 74.4 -84.8 71.7 -84.2 72.05 Q-80.35 74.2 -76.0 73.15 -74.2 72.75 -72.5 71.95 L-72.15 71.75 Q-68.65 69.85 -65.45 71.9 L-65.2 72.05 Q-59.6 76.2 -53.05 75.4 -43.4 74.65 -34.45 71.7 -25.95 68.85 -18.1 64.05 L-13.8 64.4 -13.8 66.2 Q-17.1 69.55 -21.15 71.6 L-24.05 72.85 Q-28.1 74.45 -32.2 75.6 -41.3 77.95 -50.7 78.3 L-49.7 78.15 Q-56.35 79.0 -62.35 76.05 -64.05 75.25 -65.85 74.75 -68.55 74.35 -71.15 75.65 -75.95 77.9 -80.25 76.1 L-83.2 74.75 Q-85.95 73.5 -88.25 75.75 -88.8 76.35 -89.7 76.4 -92.0 76.95 -94.2 75.95 -99.35 73.65 -104.85 72.95 -108.1 73.2 -111.15 74.3 L-115.15 75.05 -118.5 74.7 -125.7 71.1 Q-129.35 68.9 -133.65 69.7 L-140.05 71.55 M-140.85 72.7 L-142.5 75.45 Q-145.75 74.15 -148.15 76.3 L-150.5 76.15 -153.15 74.8 -152.9 74.8 Q-147.2 74.8 -140.85 72.7 M12.25 73.25 Q17.2 73.6 22.0 73.15 L23.45 72.95 Q25.8 73.25 27.7 74.5 L27.0 74.2 26.2 74.45 22.0 75.4 Q16.9 75.9 12.25 73.25 M31.25 75.1 L37.45 73.75 Q38.7 73.75 39.35 72.85 L41.85 74.6 40.25 75.5 Q35.75 77.75 31.25 75.1 M48.8 76.95 Q53.75 76.8 57.35 75.0 58.75 75.0 59.85 75.8 L60.7 76.3 59.25 76.95 Q54.0 78.3 48.8 76.95 M-284.2 53.35 L-283.7 52.55 -282.9 50.35 -277.85 50.45 -276.45 51.4 Q-285.7 57.4 -296.6 55.3 L-304.7 53.95 -298.95 51.65 -291.7 51.05 -291.2 53.05 -288.95 53.0 -286.95 51.5 -284.2 53.35" fill="#c9ccd8" fill-rule="evenodd" stroke="none"/>
    <path d="M-324.55 81.95 L-324.55 75.5 -324.55 75.1 Q-323.85 74.9 -322.5 74.1 -321.6 74.1 -321.4 75.45 L-321.35 76.5 Q-321.35 78.95 -320.35 78.95 L-317.55 78.15 -316.5 79.9 -316.3 81.0 Q-316.1 81.65 -315.45 81.8 L-324.55 81.95 M228.75 64.5 L230.9 65.75 232.7 65.05 233.6 66.3 234.25 66.8 236.0 66.35 236.35 67.85 240.5 68.95 Q241.5 67.55 243.1 68.15 L244.7 68.8 245.65 68.25 Q247.5 67.0 249.55 68.0 L252.1 66.55 256.8 66.65 257.8 68.05 260.9 68.1 262.75 69.05 263.15 69.05 Q265.65 68.25 267.75 69.35 L230.8 71.0 Q231.85 70.65 231.85 70.3 231.85 69.9 231.0 69.2 L226.85 66.55 Q228.05 65.85 229.1 65.75 L229.75 65.45 228.75 64.5 M201.25 64.7 L206.0 64.5 Q209.7 67.1 213.0 64.15 L213.3 64.0 216.7 64.15 217.2 63.85 219.85 66.25 215.0 66.6 Q214.3 66.8 213.7 67.45 L213.0 68.4 210.25 66.95 206.6 68.5 Q205.0 65.1 201.1 66.4 L199.25 66.7 201.25 64.7 M214.3 54.85 L214.75 55.0 217.0 56.35 215.55 56.45 Q214.15 56.35 213.5 57.55 L212.85 58.6 209.95 57.3 208.9 57.65 207.45 58.9 206.8 57.2 Q206.2 56.65 205.6 56.75 L202.85 57.15 205.5 55.1 214.3 54.85 M98.25 77.6 L99.8 74.65 99.6 74.4 99.25 74.2 98.4 74.45 98.25 70.4 101.5 72.75 101.65 72.9 101.5 73.3 104.15 74.2 Q101.25 75.35 99.2 77.55 L98.25 77.6 M119.55 62.45 L116.4 62.45 119.15 60.7 Q121.3 62.05 123.85 61.5 L124.55 62.4 127.15 62.2 127.4 62.05 Q128.3 61.6 129.35 62.9 L126.85 63.1 125.7 64.95 123.35 63.0 119.7 64.7 119.55 62.45 M118.6 69.5 Q120.8 68.8 122.95 70.2 L124.35 70.5 Q126.2 70.45 127.35 68.85 L131.3 69.25 133.95 71.75 133.55 72.05 130.85 71.9 130.55 74.05 127.35 72.65 124.75 74.4 124.05 74.55 121.55 72.6 117.4 74.2 Q115.45 71.0 111.35 72.45 L114.55 69.85 118.25 69.7 118.6 69.5 M135.6 76.45 Q134.4 75.5 134.1 73.65 L133.9 73.15 136.5 72.9 136.85 72.75 135.85 71.9 137.0 71.5 Q138.35 70.8 139.05 69.5 L139.1 69.25 136.8 68.25 140.7 66.85 138.1 65.2 140.5 63.2 143.1 66.8 141.75 67.5 141.5 69.05 143.05 70.5 140.3 71.6 141.75 73.5 140.0 73.8 141.0 75.55 135.6 76.45 M-13.25 80.0 L-12.85 79.45 Q-12.5 78.65 -11.8 78.4 -9.45 77.9 -8.65 75.85 L-5.8 77.1 -4.3 76.3 Q-4.1 78.05 -2.9 78.6 L-0.9 78.15 1.7 79.25 10.7 79.0 Q12.15 77.6 13.5 78.6 L14.05 78.8 Q16.55 78.8 18.5 79.6 19.4 79.95 20.2 79.6 L26.05 78.2 26.8 79.0 27.5 79.1 27.6 78.9 Q28.6 77.15 30.55 77.95 L30.65 78.15 30.65 79.05 34.8 80.35 -13.25 80.0 M28.5 76.55 L27.05 77.35 27.3 77.0 Q27.5 76.65 28.5 76.55 M24.1 76.95 L23.7 77.35 23.75 77.9 23.65 77.25 Q23.55 77.05 24.1 76.95 M-263.2 81.15 L-271.7 81.25 -269.15 80.0 -263.2 81.15 M-273.6 81.3 L-314.95 81.8 -313.4 80.25 -312.55 79.5 Q-311.45 78.65 -310.45 78.65 -309.8 78.65 -309.4 79.2 -308.3 79.2 -308.15 77.75 -307.95 76.3 -305.25 76.3 -304.6 76.3 -304.3 77.1 -304.0 77.9 -303.05 77.9 -302.2 77.9 -300.6 76.65 -299.2 76.65 -298.4 78.6 -297.6 80.5 -296.85 80.5 L-293.4 79.85 Q-291.5 79.85 -291.2 80.3 -290.9 80.8 -290.0 80.8 -288.35 80.8 -287.5 79.2 L-284.9 79.1 Q-284.05 78.9 -284.05 77.95 L-284.3 77.0 Q-284.3 76.15 -283.05 76.15 -282.05 76.15 -281.9 77.05 -281.65 77.9 -280.9 77.9 -280.35 77.9 -279.25 76.65 -277.6 76.65 -277.65 78.9 -277.75 81.05 -276.9 81.05 L-276.1 80.5 Q-275.35 80.05 -274.2 80.0 L-273.8 81.0 -273.6 81.3 M-120.55 78.4 L-111.1 79.75 -107.5 79.15 -96.7 78.8 -95.2 79.3 -118.75 80.0 -120.55 78.4" fill="#74977c" fill-rule="evenodd" stroke="none"/>
    <path d="M451.9 72.6 L451.8 85.0 451.65 103.15 469.4 144.0 463.4 145.5 457.6 143.05 Q435.55 125.4 409.6 127.05 360.6 118.65 311.6 129.05 L253.55 137.05 Q184.25 140.8 127.55 113.05 108.6 112.65 91.55 115.5 L84.05 116.95 Q69.0 120.15 55.5 126.05 49.3 133.95 31.5 134.05 26.55 132.85 22.0 131.25 9.4 126.8 0.0 119.2 -4.05 115.9 -7.5 112.05 -26.55 106.1 -66.5 121.05 -95.0 131.45 -123.5 131.05 L-199.55 125.05 -259.55 121.05 Q-280.05 121.35 -290.55 135.05 -296.9 138.55 -302.2 138.95 -311.65 139.65 -318.25 136.75 L-321.55 135.0 -324.5 129.0 -341.55 94.05 -342.25 89.85 -341.55 94.05 -343.55 90.0 -342.25 89.85 -344.65 75.95 -324.55 75.5 -324.55 81.95 -324.55 83.05 -312.55 83.0 -285.65 82.7 -257.25 82.15 -241.15 81.9 -211.6 81.55 -197.6 81.7 Q-197.8 83.25 -196.2 83.8 L-194.2 84.3 -190.25 84.05 -189.0 83.8 -188.25 83.4 -187.95 81.05 Q-169.0 80.7 -150.1 81.1 -126.3 81.7 -102.55 81.2 -82.35 80.25 -62.15 80.75 -31.05 81.45 0.0 81.65 L5.9 81.65 61.35 81.95 60.7 84.6 61.2 84.9 74.25 85.55 Q75.65 85.55 76.9 85.0 L78.0 84.4 78.35 84.15 84.05 84.2 91.55 84.25 109.2 84.2 Q110.3 84.85 111.45 85.0 L112.6 85.0 119.1 84.35 124.4 84.95 135.55 84.9 135.75 84.65 136.4 84.05 136.9 83.15 137.55 81.5 156.8 77.75 Q177.1 73.2 197.75 73.55 198.1 75.2 199.4 76.15 200.1 76.65 200.95 76.6 209.05 77.6 217.25 77.05 219.55 76.75 220.85 74.8 L226.7 75.15 284.8 73.4 Q293.85 73.6 302.45 73.4 L305.2 72.85 305.6 72.75 Q315.7 69.6 326.55 69.1 L334.45 67.6 Q341.35 66.1 348.5 66.1 L352.55 66.7 Q367.8 70.3 383.45 71.95 L435.7 74.3 Q443.8 74.2 451.9 72.6 M88.25 71.4 L91.55 71.4 97.35 71.4 97.3 73.15 Q95.95 72.55 94.55 72.8 L93.55 73.0 91.55 73.65 90.4 73.6 88.25 71.4 M101.15 71.4 L103.15 71.4 103.6 71.55 102.5 72.4 101.15 71.4 M109.45 71.4 L111.2 71.4 110.4 72.0 109.45 71.4 M449.4 98.0 L451.65 103.15 449.4 98.0" fill="#f8f8f8" fill-rule="evenodd" stroke="none"/>
    <path d="M63.35 81.55 L72.6 81.3 72.45 81.1 68.65 78.15 74.0 78.95 Q74.7 80.9 76.2 82.3 L77.1 83.15 Q69.55 85.05 61.65 83.95 L63.35 81.55 M-191.25 80.2 L-189.3 81.45 -189.2 82.25 -195.1 83.0 Q-195.3 82.9 -195.55 82.75 L-191.25 80.2" fill="#505050" fill-rule="evenodd" stroke="none"/>
    <path d="M68.65 78.15 L72.45 81.1 72.6 81.3 63.35 81.55 68.65 78.15 M-195.55 82.75 L-196.1 82.25 Q-195.75 80.75 -194.65 79.2 L-194.2 78.65 -191.25 80.2 -195.55 82.75" fill="#878684" fill-rule="evenodd" stroke="none"/>
    <path d="M-324.5 129.0 L-321.55 135.0 -318.25 136.75 Q-311.65 139.65 -302.2 138.95 -293.8 139.25 -282.55 136.0 -249.55 125.15 -216.55 127.0 -178.8 136.0 -135.55 134.0 -90.05 133.65 -44.6 123.0 -22.3 115.55 0.0 125.3 7.7 128.6 15.4 134.0 18.05 136.25 22.0 137.5 39.85 143.2 84.05 128.2 L90.4 126.0 91.55 125.7 Q122.75 117.55 169.1 134.8 223.15 154.85 358.4 130.0 405.1 124.35 445.0 141.15 451.3 143.8 457.4 147.0 L463.4 145.5 469.4 144.0 471.85 149.2 468.25 150.1 452.0 150.1 445.6 147.2 445.0 141.15 445.6 147.2 Q405.4 130.1 358.4 135.8 223.15 160.65 169.1 140.6 122.75 123.35 91.55 131.5 L90.4 131.8 84.05 134.0 Q39.9 149.0 22.0 143.3 18.05 142.05 15.4 139.8 7.7 134.4 0.0 131.05 -22.3 121.35 -44.6 128.8 -90.05 139.45 -135.55 139.8 -178.8 141.8 -216.55 132.8 -249.55 130.95 -282.55 141.8 -306.2 148.7 -320.0 142.5 L-322.0 141.5 -324.5 129.0 M-321.55 135.0 L-320.0 142.5 -321.55 135.0" fill="#a7c6d0" fill-rule="evenodd" stroke="none"/>
    <path d="M-302.2 138.95 Q-296.9 138.55 -290.55 135.05 -280.05 121.35 -259.55 121.05 L-199.55 125.05 -123.5 131.05 Q-95.0 131.45 -66.5 121.05 -26.55 106.1 -7.5 112.05 -4.05 115.9 0.0 119.2 9.4 126.8 22.0 131.25 26.55 132.85 31.5 134.05 49.3 133.95 55.5 126.05 69.0 120.15 84.05 116.95 L91.55 115.5 Q108.6 112.65 127.55 113.05 184.25 140.8 253.55 137.05 L311.6 129.05 Q360.6 118.65 409.6 127.05 435.55 125.4 457.6 143.05 L463.4 145.5 457.4 147.0 Q451.3 143.8 445.0 141.15 405.1 124.35 358.4 130.0 223.15 154.85 169.1 134.8 122.75 117.55 91.55 125.7 L90.4 126.0 84.05 128.2 Q39.85 143.2 22.0 137.5 18.05 136.25 15.4 134.0 7.7 128.6 0.0 125.3 -22.3 115.55 -44.6 123.0 -90.05 133.65 -135.55 134.0 -178.8 136.0 -216.55 127.0 -249.55 125.15 -282.55 136.0 -293.8 139.25 -302.2 138.95" fill="#e2e1e8" fill-rule="evenodd" stroke="none"/>
    <path d="M10.7 155.55 L0.0 155.55 0.0 154.9 10.4 154.9 10.7 155.55" fill="#edfefd" fill-rule="evenodd" stroke="none"/>
    <path d="M396.65 67.0 L403.1 69.55 Q383.85 68.85 364.9 64.9 L355.9 62.6 344.2 62.3 303.8 68.25 278.9 69.4 Q288.65 67.35 298.65 67.45 308.6 66.6 318.0 63.3 325.4 61.65 332.9 60.5 L340.4 59.15 Q351.1 57.25 361.5 60.3 L368.2 62.2 Q382.25 65.85 396.65 67.0 M-180.2 66.6 L-176.8 65.2 Q-175.25 66.95 -173.35 67.85 L-172.6 68.05 -170.75 65.8 -167.35 66.05 Q-163.35 69.65 -158.9 72.75 L-152.25 76.95 -155.05 77.35 Q-157.0 75.95 -159.5 76.9 L-160.3 77.1 -161.85 76.55 Q-163.5 77.7 -165.4 77.4 L-166.2 77.5 -167.4 79.65 -172.65 79.6 -175.85 77.35 -173.15 76.55 Q-172.9 75.6 -173.8 75.1 L-175.15 74.2 -173.65 73.9 -173.75 73.5 -177.15 69.25 -181.2 74.05 -181.35 74.5 -180.05 74.8 -180.95 75.35 Q-182.45 75.7 -182.4 77.05 L-179.4 77.2 -181.65 79.75 -188.75 79.85 Q-191.65 77.1 -195.0 77.5 L-196.55 79.95 -243.35 80.8 -245.8 75.4 -248.65 78.15 -249.65 77.1 -247.75 76.3 -250.55 71.8 Q-252.6 72.75 -253.9 74.15 L-255.0 75.55 -253.95 76.3 -256.75 78.05 -258.35 76.5 Q-258.15 75.85 -256.75 75.5 L-255.65 75.0 -258.85 73.15 -257.1 72.75 Q-257.95 70.2 -260.3 68.15 L-260.45 68.0 -266.25 72.7 -263.9 73.55 -265.85 75.1 -263.75 75.75 -266.6 78.2 -270.5 78.15 Q-271.4 77.25 -272.95 77.1 L-274.3 77.35 Q-275.15 75.0 -277.45 74.55 L-278.75 74.45 -280.3 74.7 -280.4 74.65 Q-282.1 73.05 -284.9 74.2 L-285.95 74.75 -287.0 75.55 Q-288.55 76.75 -290.6 77.45 -292.35 76.65 -294.35 77.0 L-295.4 77.1 Q-295.85 75.7 -296.6 74.95 -298.15 73.25 -301.0 74.45 L-301.45 74.6 Q-304.85 71.9 -308.3 74.4 L-309.55 75.2 -311.45 75.85 -312.55 76.1 -314.8 77.5 Q-315.3 75.7 -316.7 75.35 -317.45 75.1 -318.5 75.35 -318.0 71.15 -322.1 71.5 L-322.95 71.5 Q-323.25 69.95 -324.55 69.25 L-324.55 65.85 -312.55 68.3 -298.95 69.85 -293.5 70.4 Q-284.0 71.8 -274.9 69.5 L-269.25 67.85 Q-266.15 66.9 -263.3 65.6 -257.75 63.0 -253.0 59.05 -247.75 54.65 -241.25 53.75 L-241.15 53.75 Q-234.65 53.2 -228.9 56.2 -216.85 62.2 -204.5 67.8 -197.05 71.15 -188.9 70.65 L-187.4 70.1 Q-184.4 68.45 -180.2 66.6" fill="#c5c9d0" fill-rule="evenodd" stroke="none"/>
    <path d="M-122.8 77.9 L-120.5 80.0 -141.95 79.95 -141.1 78.65 -141.35 78.45 -143.0 78.15 -140.35 73.8 Q-139.8 75.95 -138.4 77.75 L-137.5 78.4 -135.35 76.2 -134.95 77.3 Q-133.9 78.2 -132.45 77.85 -131.5 77.7 -130.85 77.0 -130.2 78.85 -128.45 78.35 L-126.9 77.45 Q-126.15 78.35 -125.0 78.4 L-122.8 77.9 M-255.5 78.45 L-251.95 76.3 -253.7 75.35 -250.8 73.3 -249.15 75.35 -250.65 76.45 -249.75 78.3 -251.8 79.05 -255.5 78.45" fill="#4b8945" fill-rule="evenodd" stroke="none"/>
    <path d="M318.0 63.3 L339.25 53.5 342.35 53.6 Q343.2 54.25 344.95 54.2 L346.55 54.15 347.7 53.45 348.0 54.05 349.0 54.4 Q349.95 54.5 351.0 53.9 L352.1 53.25 357.45 53.1 Q367.0 59.55 377.9 62.95 381.3 63.95 385.0 63.8 389.3 63.35 392.9 65.45 394.6 66.4 396.65 67.0 382.25 65.85 368.2 62.2 L361.5 60.3 Q351.1 57.25 340.4 59.15 L332.9 60.5 Q325.4 61.65 318.0 63.3 M-324.55 49.9 Q-318.65 52.2 -312.55 53.75 -301.35 56.65 -289.5 57.15 -283.95 57.2 -279.2 54.35 -273.6 51.1 -267.9 48.45 -265.7 47.35 -263.3 46.55 L-260.05 45.5 -259.85 49.1 Q-258.15 49.5 -256.75 48.65 -255.25 47.6 -253.95 46.1 L-249.85 49.9 Q-248.75 49.9 -248.35 48.85 L-247.15 46.25 -246.9 45.85 Q-244.35 45.9 -241.5 46.85 L-241.15 47.0 Q-239.35 47.7 -237.65 48.6 -225.65 55.55 -213.75 62.8 -207.0 66.85 -198.9 65.75 -193.75 65.35 -188.75 63.8 L-182.55 64.5 -182.8 66.75 -180.2 66.6 Q-184.4 68.45 -187.4 70.1 L-188.9 70.65 Q-197.05 71.15 -204.5 67.8 -216.85 62.2 -228.9 56.2 -234.65 53.2 -241.15 53.75 L-241.25 53.75 Q-247.75 54.65 -253.0 59.05 -257.75 63.0 -263.3 65.6 -266.15 66.9 -269.25 67.85 L-274.9 69.5 Q-284.0 71.8 -293.5 70.4 L-298.95 69.85 -312.55 68.3 -324.55 65.85 -324.55 49.9" fill="#e3e7ee" fill-rule="evenodd" stroke="none"/>
    <path d="M318.0 49.3 L322.45 51.55 319.95 51.15 319.75 51.2 319.35 51.7 Q318.7 52.75 318.4 53.95 L317.05 52.5 Q316.2 51.6 315.1 51.65 L314.25 51.9 312.85 53.4 312.2 53.6 311.7 53.25 312.55 52.6 Q315.05 50.55 318.0 49.3 M274.85 46.95 L277.65 48.15 274.45 48.15 274.2 50.05 Q273.55 50.55 272.2 49.0 L271.05 48.2 268.65 50.7 267.05 49.55 Q271.45 47.1 274.85 46.95 M-176.45 63.85 L-176.3 63.75 Q-172.85 62.85 -169.65 64.45 -171.95 63.9 -172.95 66.2 L-173.2 66.65 -176.45 63.85" fill="#d8dde4" fill-rule="evenodd" stroke="none"/>
    <path d="M186.85 67.75 L187.55 66.55 188.15 67.55 186.85 67.75 M190.8 67.15 L191.25 65.1 192.95 66.95 190.8 67.15 M195.05 66.8 L196.0 61.95 199.45 64.95 197.95 66.55 195.05 66.8 M220.7 68.2 L220.4 67.75 Q220.1 67.25 221.45 67.2 L221.8 67.05 221.3 66.25 223.05 65.0 222.1 63.9 224.35 61.8 222.1 60.7 225.55 57.15 227.75 61.0 Q226.45 61.0 225.5 61.8 L225.5 62.35 227.8 65.05 225.45 65.8 Q225.7 67.9 228.15 69.0 L220.7 68.2 M103.7 77.5 L101.4 77.3 101.5 77.25 Q104.8 76.0 106.4 73.4 L103.6 73.0 105.35 71.0 105.15 70.7 103.0 70.4 104.95 67.9 104.8 67.2 103.5 67.05 Q105.05 65.95 105.9 64.3 L107.45 66.25 106.35 66.9 Q106.45 68.4 108.05 69.25 L106.25 69.95 109.45 72.8 109.45 73.35 112.3 73.55 Q111.95 76.25 109.25 77.35 L103.7 77.5 M-177.4 71.05 Q-176.75 70.95 -176.0 72.45 L-175.6 73.15 -176.55 73.7 Q-176.7 74.75 -175.55 75.35 L-174.8 75.95 -177.4 77.1 -174.9 79.65 -180.35 79.75 Q-178.15 78.35 -177.9 76.3 L-180.5 76.3 Q-178.65 75.55 -177.8 73.85 -178.0 73.4 -178.45 73.55 L-179.7 73.65 -178.75 73.05 Q-177.8 72.2 -177.4 71.05 M-263.6 77.2 L-261.45 75.0 Q-261.95 74.2 -262.8 74.45 L-264.15 74.7 -261.75 72.95 -262.3 72.7 -264.1 72.6 -260.55 69.45 -258.7 71.95 -260.3 72.95 -257.55 75.0 -260.05 75.95 -258.4 78.05 -263.6 77.2 M-249.35 79.4 Q-247.6 79.35 -246.55 78.0 L-246.15 77.35 -245.3 80.05 -249.35 79.4" fill="#60745b" fill-rule="evenodd" stroke="none"/>
    <path d="M-258.4 78.05 L-257.65 78.55 Q-260.05 78.4 -260.05 79.35 -260.05 79.8 -258.5 81.05 L-261.05 81.1 -261.9 80.0 Q-262.5 79.45 -263.3 79.1 -264.1 78.7 -265.0 78.5 L-263.6 77.2 -258.4 78.05 M-245.3 80.05 L-245.05 80.8 -249.4 80.9 -250.35 79.45 -249.35 79.4 -245.3 80.05" fill="#52634e" fill-rule="evenodd" stroke="none"/>
    <path d="M-251.8 79.05 L-250.55 80.9 -256.85 81.0 -258.55 79.75 Q-255.65 79.5 -255.65 79.05 L-256.0 78.7 -255.5 78.45 -251.8 79.05" fill="#073d01" fill-rule="evenodd" stroke="none"/>
    <path d="M451.9 65.6 L451.9 68.25 Q444.6 70.3 437.05 70.3 L410.45 69.6 403.5 67.95 Q399.05 66.95 394.95 65.1 399.5 64.15 404.05 65.25 413.95 67.3 424.0 67.8 L451.9 65.6 M405.45 62.35 L405.15 62.3 405.3 62.3 405.45 62.35 M197.6 61.35 L200.4 59.5 Q201.4 58.95 202.95 58.7 200.65 60.45 200.55 63.35 L200.55 63.85 200.15 64.25 197.6 61.35 M143.0 71.55 Q148.3 74.1 154.4 73.0 L160.4 71.55 Q165.8 70.0 170.95 67.7 178.45 64.25 186.5 65.8 L184.2 69.75 171.25 71.6 143.45 76.3 141.7 74.8 143.75 73.95 141.75 72.05 143.0 71.55 M188.55 65.75 L189.6 65.55 189.2 66.8 188.55 65.75 M192.65 64.2 L194.9 62.85 193.85 65.85 192.65 64.2" fill="#d3e3ef" fill-rule="evenodd" stroke="none"/>
    <path d="M188.15 67.55 L189.2 68.4 Q190.35 68.4 190.8 67.15 L192.95 66.95 Q193.65 67.6 194.15 67.6 194.6 67.6 195.05 66.8 L197.95 66.55 197.55 67.2 198.65 67.75 197.8 69.65 Q191.7 69.0 185.65 69.6 L186.85 67.75 188.15 67.55 M228.15 69.0 L229.9 70.1 Q226.25 71.1 222.75 70.75 L221.05 70.65 220.7 68.2 228.15 69.0 M109.25 77.35 Q108.35 78.35 108.35 79.6 L108.45 80.35 100.2 80.5 102.25 79.35 Q103.75 78.45 103.75 77.7 L103.7 77.5 109.25 77.35" fill="#384c33" fill-rule="evenodd" stroke="none"/>
    <path d="M203.95 59.7 L205.4 57.95 205.75 57.8 Q205.75 60.2 207.6 60.2 L209.9 58.5 211.6 59.25 213.4 60.45 Q214.05 60.45 214.6 57.65 L214.9 57.65 216.2 59.05 Q215.15 60.7 213.45 61.9 L212.95 62.05 210.25 60.85 206.8 61.9 Q204.75 61.5 203.95 59.7 M199.0 69.7 L198.95 69.7 199.05 69.15 199.9 67.9 204.25 67.45 206.05 69.85 209.95 68.4 212.95 69.95 214.55 69.35 214.7 68.1 Q216.35 67.3 218.15 67.7 L218.45 67.75 Q219.65 68.55 219.9 69.9 L217.1 69.6 Q216.2 70.85 214.6 71.55 213.2 72.2 212.3 71.3 L210.9 70.3 Q208.9 70.65 206.75 71.4 L205.8 71.35 Q204.3 71.05 203.6 69.8 L199.0 69.7 M115.85 65.45 L117.75 63.5 118.35 63.5 118.5 63.45 118.65 65.85 Q120.5 66.3 122.0 65.15 L122.85 64.4 124.55 65.7 Q125.25 66.4 126.1 66.25 L126.35 66.1 127.0 64.95 128.2 64.45 129.0 65.65 129.1 65.75 130.25 66.3 126.15 67.6 123.55 66.05 Q119.45 68.1 115.85 65.45 M112.95 75.1 L113.5 73.4 115.5 73.15 Q115.6 74.9 117.2 75.5 L121.35 73.8 Q122.95 74.85 124.85 75.4 125.3 75.5 125.75 75.1 L127.35 73.9 Q128.9 75.2 130.8 75.25 L131.6 75.1 131.65 73.3 133.05 73.9 133.9 76.2 133.05 76.3 131.45 77.85 127.35 76.4 Q124.25 79.15 121.5 76.2 118.5 77.3 115.55 76.6 L114.5 75.85 114.0 75.0 112.95 75.1" fill="#bbc2c8" fill-rule="evenodd" stroke="none"/>
    <path d="M99.2 77.55 L99.2 78.35 101.85 78.4 99.8 80.5 97.55 80.5 98.75 78.8 Q98.75 77.95 97.9 78.05 L98.25 77.6 99.2 77.55 M141.0 75.55 L141.95 76.55 136.7 77.7 135.6 76.45 141.0 75.55" fill="#4c6f54" fill-rule="evenodd" stroke="none"/>
    <path d="M-341.55 94.05 L-324.5 129.0 -321.55 135.0 -318.25 136.75 Q-311.65 139.65 -302.2 138.95 -293.8 139.25 -282.55 136.0 -249.55 125.15 -216.55 127.0 -178.8 136.0 -135.55 134.0 -90.05 133.65 -44.6 123.0 -22.3 115.55 0.0 125.3 7.7 128.6 15.4 134.0 18.05 136.25 22.0 137.5 39.85 143.2 84.05 128.2 L90.4 126.0 91.55 125.7 Q122.75 117.55 169.1 134.8 223.15 154.85 358.4 130.0 405.1 124.35 445.0 141.15 451.3 143.8 457.4 147.0 L463.4 145.5 469.4 144.0 451.65 103.15 449.4 98.0 M469.4 144.0 L481.4 141.0 M471.85 149.2 L469.4 144.0 M481.4 146.8 L471.85 149.2 472.25 150.1 M445.0 141.15 L445.6 147.2 M-320.0 142.5 L-318.45 150.1 M-320.0 142.5 L-321.55 135.0 M-343.55 90.0 L-341.55 94.05" fill="none" stroke="#000000" stroke-linecap="round" stroke-linejoin="miter-clip" stroke-miterlimit="3.0" stroke-width="2.5"/>
    <path d="M-344.65 75.95 L-342.25 89.85 -341.55 94.05 M-344.65 75.95 L-347.6 76.0" fill="none" stroke="#000000" stroke-linecap="round" stroke-linejoin="round" stroke-width="2.5"/>
    <path d="M451.9 68.25 L451.95 89.1" fill="none" stroke="#000000" stroke-linecap="round" stroke-linejoin="round" stroke-width="2.5"/>
  </g>
  <defs>
    <linearGradient gradientTransform="matrix(0.0, 0.0602, -1.0, 0.0, -210.7, 41.4)" gradientUnits="userSpaceOnUse" id="gradient0" spreadMethod="pad" x1="-819.2" x2="819.2">
      <stop offset="0.0" stop-color="#004d96"/>
      <stop offset="1.0" stop-color="#0784d4"/>
    </linearGradient>
  </defs>
</svg>
