<?xml version="1.0" encoding="UTF-8" standalone="no"?>
<svg xmlns:xlink="http://www.w3.org/1999/xlink" height="43.4px" width="363.85px" xmlns="http://www.w3.org/2000/svg">
  <g transform="matrix(1.0, 0.0, 0.0, 1.0, -20.7, -88.45)">
    <path d="M384.55 116.9 L384.55 119.4 344.5 119.05 Q282.3 118.6 280.1 118.25 L274.5 117.6 265.85 116.75 262.1 116.45 258.0 116.15 Q238.65 115.2 219.2 117.0 L171.3 120.25 171.3 120.2 Q160.15 120.85 148.4 120.25 L65.8 115.85 Q52.1 115.4 38.4 115.45 L35.65 115.5 Q28.15 115.55 20.7 115.75 L20.7 113.1 Q45.0 112.05 69.3 113.5 L171.3 119.0 200.85 116.35 Q228.9 113.45 257.15 113.45 259.05 114.15 261.5 114.45 267.55 115.3 335.2 116.25 L384.55 116.9 M384.55 129.5 L384.55 131.85 336.85 131.5 Q269.7 131.05 263.8 130.55 222.4 127.15 171.3 131.2 126.75 132.7 82.45 128.6 52.95 125.95 23.5 129.15 L20.7 129.45 20.7 126.25 Q43.3 124.05 66.25 125.9 L85.55 127.3 88.85 127.55 Q128.95 129.9 169.3 129.4 L171.3 129.4 202.15 126.9 208.95 126.5 225.25 125.85 229.15 125.8 Q241.7 125.5 254.3 125.65 L267.7 127.6 278.3 128.65 285.0 129.1 384.55 129.5" fill="#000000" fill-rule="evenodd" stroke="none"/>
    <path d="M384.55 119.4 L384.55 129.5 285.0 129.1 278.3 128.65 Q277.75 125.2 276.8 121.9 L276.75 121.6 276.45 121.3 276.0 125.0 274.5 117.6 280.1 118.25 Q282.3 118.6 344.5 119.05 L384.55 119.4 M20.7 126.25 L20.7 115.75 Q28.15 115.55 35.65 115.5 L37.6 122.5 Q37.7 122.85 38.35 123.1 L38.45 121.9 Q38.85 118.65 38.4 115.45 52.1 115.4 65.8 115.85 L148.4 120.25 Q160.15 120.85 171.3 120.2 L171.3 120.25 219.2 117.0 Q238.65 115.2 258.0 116.15 L258.25 117.55 Q258.6 120.0 259.6 121.9 L260.9 123.75 Q261.35 124.25 261.8 123.55 L262.5 121.9 Q262.8 120.65 262.6 119.15 L262.1 116.45 265.85 116.75 Q266.5 118.25 266.25 119.9 L266.15 121.9 Q266.2 125.1 267.7 127.6 L254.3 125.65 Q241.7 125.5 229.15 125.8 228.75 123.7 227.85 121.9 L226.25 119.35 226.2 119.15 225.7 121.9 Q225.4 123.8 225.25 125.85 L208.95 126.5 Q207.95 124.1 206.55 121.9 L205.8 120.65 Q205.55 120.3 205.15 120.3 204.1 120.9 203.4 121.9 202.45 123.25 202.35 125.4 L202.15 126.9 171.3 129.4 169.3 129.4 Q128.95 129.9 88.85 127.55 89.0 123.95 88.45 120.45 88.1 120.0 87.55 119.95 L86.8 120.3 86.6 120.45 Q85.9 123.85 85.55 127.3 L66.25 125.9 Q43.3 124.05 20.7 126.25 M20.7 113.1 L20.7 88.45 81.2 88.45 Q81.15 89.6 81.95 91.0 L82.85 92.3 Q82.6 93.25 82.85 94.4 L82.6 95.1 70.5 96.45 Q58.85 98.3 57.4 100.85 L57.15 101.45 57.15 101.75 Q57.35 103.15 60.5 104.4 L62.3 105.0 70.5 106.75 84.4 108.3 102.85 108.9 126.3 107.85 131.45 108.3 138.05 108.65 157.6 108.75 159.6 108.5 159.95 108.35 162.45 107.6 162.8 107.4 163.05 107.35 163.2 107.25 165.6 105.9 166.4 105.3 166.35 105.3 166.8 105.0 168.1 103.75 Q170.9 103.85 170.8 101.6 L170.5 100.05 Q171.3 97.85 170.75 95.2 170.0 91.5 168.55 88.45 L384.55 88.45 384.55 116.9 335.2 116.25 Q267.55 115.3 261.5 114.45 259.05 114.15 257.15 113.45 228.9 113.45 200.85 116.35 L171.3 119.0 69.3 113.5 Q45.0 112.05 20.7 113.1 M182.25 96.45 L171.15 95.15 Q171.7 98.4 171.45 101.9 L182.25 103.2 188.9 104.6 190.4 105.05 Q195.4 103.5 195.6 101.75 L195.6 101.45 195.4 100.85 Q193.95 98.3 182.25 96.45" fill="#edfefd" fill-rule="evenodd" stroke="none"/>
    <path d="M124.55 95.15 L124.1 95.15 124.0 94.5 124.55 95.15" fill="#ffffff" fill-rule="evenodd" stroke="none"/>
    <path d="M274.5 117.6 L276.0 125.0 276.45 121.3 276.75 121.6 276.8 121.9 Q277.75 125.2 278.3 128.65 L267.7 127.6 Q266.2 125.1 266.15 121.9 L266.25 119.9 Q266.5 118.25 265.85 116.75 L274.5 117.6 M225.25 125.85 Q225.4 123.8 225.7 121.9 L226.2 119.15 226.25 119.35 227.85 121.9 Q228.75 123.7 229.15 125.8 L225.25 125.85 M262.1 116.45 L262.6 119.15 Q262.8 120.65 262.5 121.9 L261.8 123.55 Q261.35 124.25 260.9 123.75 L259.6 121.9 Q258.6 120.0 258.25 117.55 L258.0 116.15 262.1 116.45 M38.4 115.45 Q38.85 118.65 38.45 121.9 L38.35 123.1 Q37.7 122.85 37.6 122.5 L35.65 115.5 38.4 115.45 M202.15 126.9 L202.35 125.4 Q202.45 123.25 203.4 121.9 204.1 120.9 205.15 120.3 205.55 120.3 205.8 120.65 L206.55 121.9 Q207.95 124.1 208.95 126.5 L202.15 126.9 M85.55 127.3 Q85.9 123.85 86.6 120.45 L86.8 120.3 87.55 119.95 Q88.1 120.0 88.45 120.45 89.0 123.95 88.85 127.55 L85.55 127.3" fill="#ccffff" fill-rule="evenodd" stroke="none"/>
    <path d="M131.45 108.3 L132.45 108.05 138.05 108.65 131.45 108.3" fill="url(#gradient0)" fill-rule="evenodd" stroke="none"/>
    <path d="M92.75 97.55 L95.45 100.4 95.65 101.8 92.65 102.1 92.05 100.1 91.95 98.95 Q92.1 98.15 92.75 97.55 M154.95 104.6 L154.15 104.4 Q152.75 104.0 151.05 103.75 L151.0 102.5 Q151.05 100.8 151.65 99.15 L151.9 99.05 152.35 99.0 152.7 99.0 153.0 99.1 153.3 99.3 153.4 99.4 Q153.95 101.8 154.85 104.15 L154.95 104.6" fill="#ccffff" fill-rule="evenodd" stroke="none"/>
    <path d="M70.3 101.45 L70.5 100.85 Q72.0 98.3 83.65 96.45 L90.9 95.55 92.6 97.45 92.75 97.55 Q92.1 98.15 91.95 98.95 L92.05 100.1 92.65 102.1 83.65 103.2 Q78.55 104.0 75.45 105.0 L73.6 104.4 Q70.45 103.15 70.3 101.75 L70.3 101.45 M156.5 105.05 L154.95 104.6 154.85 104.15 Q153.95 101.8 153.4 99.4 L153.3 99.3 153.0 99.1 152.7 99.0 152.35 99.0 151.9 99.05 151.65 99.15 Q151.05 100.8 151.0 102.5 L151.05 103.75 148.35 103.2 137.55 101.9 Q137.8 98.4 137.2 95.15 L148.35 96.45 Q160.05 98.3 161.45 100.85 L161.7 101.45 161.7 101.75 Q161.45 103.5 156.5 105.05" fill="#edfefd" fill-rule="evenodd" stroke="none"/>
    <path d="M70.3 101.45 L70.5 100.85 Q72.0 98.3 83.65 96.45 L90.9 95.55 M95.65 101.8 L92.65 102.1 83.65 103.2 Q78.55 104.0 75.45 105.0 78.6 105.95 83.65 106.75 L97.55 108.3 123.7 108.75 Q137.8 108.4 148.35 106.75 L156.5 105.05 154.95 104.6 154.15 104.4 Q152.75 104.0 151.05 103.75 L148.35 103.2 137.55 101.9 M137.2 95.15 L148.35 96.45 Q160.05 98.3 161.45 100.85 L161.7 101.45 M161.7 101.75 Q161.45 103.5 156.5 105.05 M75.45 105.0 L73.6 104.4 Q70.45 103.15 70.3 101.75" fill="none" stroke="#000000" stroke-linecap="round" stroke-linejoin="round" stroke-width="1.5"/>
  </g>
  <defs>
    <linearGradient gradientTransform="matrix(0.0, 0.2461, 0.2498, 0.0, 301.9, 253.85)" gradientUnits="userSpaceOnUse" id="gradient0" spreadMethod="pad" x1="-819.2" x2="819.2">
      <stop offset="0.0" stop-color="#b8d9e4"/>
      <stop offset="0.5058823529411764" stop-color="#508bd3"/>
      <stop offset="1.0" stop-color="#254578"/>
    </linearGradient>
  </defs>
</svg>
