<?xml version="1.0" encoding="UTF-8" standalone="no"?>
<svg xmlns:xlink="http://www.w3.org/1999/xlink" height="66.65px" width="173.1px" xmlns="http://www.w3.org/2000/svg">
  <g transform="matrix(1.0, 0.0, 0.0, 1.0, 56.2, -88.9)">
    <path d="M116.4 113.1 Q103.5 113.5 91.55 115.5 L84.05 116.95 Q69.0 120.15 55.5 126.05 49.3 133.95 31.5 134.05 26.55 132.85 22.0 131.25 9.4 126.8 0.0 119.2 -4.05 115.9 -7.5 112.05 -23.9 106.95 -55.7 117.3 L-55.7 88.9 116.4 88.9 116.4 113.1" fill="#f8f8f8" fill-rule="evenodd" stroke="none"/>
    <path d="M-55.7 125.45 L-44.6 123.0 Q-22.3 115.55 0.0 125.3 7.7 128.6 15.4 134.0 18.05 136.25 22.0 137.5 39.85 143.2 84.05 128.2 L90.4 126.0 91.55 125.7 Q102.95 122.7 116.4 123.15 L116.4 128.95 Q102.95 128.5 91.55 131.5 L90.4 131.8 84.05 134.0 Q39.9 149.0 22.0 143.3 18.05 142.05 15.4 139.8 7.7 134.4 0.0 131.05 -22.3 121.35 -44.6 128.8 L-55.7 131.25 -55.7 125.45" fill="#a7c6d0" fill-rule="evenodd" stroke="none"/>
    <path d="M-55.7 117.3 Q-23.9 106.95 -7.5 112.05 -4.05 115.9 0.0 119.2 9.4 126.8 22.0 131.25 26.55 132.85 31.5 134.05 49.3 133.95 55.5 126.05 69.0 120.15 84.05 116.95 L91.55 115.5 Q103.5 113.5 116.4 113.1 L116.4 123.15 Q102.95 122.7 91.55 125.7 L90.4 126.0 84.05 128.2 Q39.85 143.2 22.0 137.5 18.05 136.25 15.4 134.0 7.7 128.6 0.0 125.3 -22.3 115.55 -44.6 123.0 L-55.7 125.45 -55.7 117.3" fill="#e2e1e8" fill-rule="evenodd" stroke="none"/>
    <path d="M10.7 155.55 L0.0 155.55 0.0 154.9 10.4 154.9 10.7 155.55" fill="#edfefd" fill-rule="evenodd" stroke="none"/>
    <path d="M-55.7 125.45 L-44.6 123.0 Q-22.3 115.55 0.0 125.3 7.7 128.6 15.4 134.0 18.05 136.25 22.0 137.5 39.85 143.2 84.05 128.2 L90.4 126.0 91.55 125.7 Q102.95 122.7 116.4 123.15" fill="none" stroke="#000000" stroke-linecap="round" stroke-linejoin="miter-clip" stroke-miterlimit="3.0" stroke-width="1.0"/>
  </g>
</svg>
