<?xml version="1.0" encoding="UTF-8" standalone="no"?>
<svg xmlns:xlink="http://www.w3.org/1999/xlink" height="81.0px" width="12.7px" xmlns="http://www.w3.org/2000/svg">
  <g transform="matrix(1.0, 0.0, 0.0, 1.0, -108.45, 40.25)">
    <path d="M111.5 -38.65 L111.5 9.7" fill="none" stroke="#666666" stroke-linecap="round" stroke-linejoin="round" stroke-width="3.25"/>
    <path d="M112.65 9.8 Q114.3 10.2 114.9 11.8 115.0 14.2 114.1 16.6 L112.55 19.95 Q111.25 22.25 111.0 24.9 L114.35 25.1 116.85 21.45 117.5 21.7 Q117.7 24.05 117.15 26.45 L117.3 26.7 114.8 26.05 110.15 25.7 Q109.5 25.8 109.0 26.15 L108.45 25.55 109.25 25.2 Q109.35 23.8 109.8 22.5 110.6 19.95 111.0 17.25 L111.3 15.0 Q110.4 14.7 110.15 13.8 109.9 12.85 109.95 11.95 110.1 10.3 111.5 9.7 L112.65 9.8" fill="#000000" fill-rule="evenodd" stroke="none"/>
    <path d="M121.15 40.7 L120.45 40.75 120.4 40.6 121.15 40.7" fill="#ffcccc" fill-rule="evenodd" stroke="none"/>
  </g>
</svg>
