<?xml version="1.0" encoding="UTF-8" standalone="no"?>
<svg xmlns:xlink="http://www.w3.org/1999/xlink" height="47.6px" width="134.65px" xmlns="http://www.w3.org/2000/svg">
  <g transform="matrix(1.0, 0.0, 0.0, 1.0, 59.4, 17.5)">
    <path d="M14.6 -12.45 L13.9 -12.8 11.2 -14.75 Q9.9 -15.35 8.55 -16.0 L12.65 -16.1 24.9 -15.15 Q30.15 -14.2 35.1 -12.45 L27.8 -12.65 25.75 -12.4 24.35 -12.45 17.8 -14.75 20.75 -12.8 21.6 -12.4 19.8 -12.25 19.75 -12.25 17.85 -12.8 Q15.95 -14.35 14.15 -13.95 L15.6 -12.8 17.25 -11.85 15.95 -11.6 15.3 -11.55 14.8 -12.3 14.6 -12.45 M30.4 21.95 L30.4 21.8 30.25 21.45 29.7 21.35 18.05 21.8 Q7.7 21.55 -2.45 19.6 -6.45 18.85 -10.1 17.35 -17.95 14.05 -25.75 11.05 L-25.8 11.0 Q-29.2 9.15 -32.8 8.2 L-33.95 7.9 -34.05 7.9 -34.3 7.7 -34.4 7.65 -35.6 5.9 -35.65 5.75 Q-37.3 4.0 -36.6 1.5 -36.15 0.05 -35.2 -1.05 L-34.7 -1.6 -17.35 -5.55 12.95 -10.0 13.85 -9.95 32.45 -11.2 38.9 -10.9 Q43.85 8.4 30.45 22.0 L30.4 21.95 M38.5 -11.05 L37.25 -11.35 37.5 -11.35 37.6 -11.45 37.7 -11.5 38.5 -11.2 38.5 -11.05 M3.15 -6.55 L2.95 -6.4 Q2.0 -5.2 2.3 -3.65 L3.05 -2.95 Q4.1 -2.5 4.6 -3.25 4.25 -4.0 3.2 -4.25 L3.2 -4.55 3.15 -5.05 3.2 -5.2 Q3.85 -6.05 3.15 -6.55 M9.6 -7.8 L8.8 -6.85 Q8.45 -6.1 8.6 -5.45 9.15 -2.15 11.85 -3.65 10.55 -4.2 9.4 -5.2 L9.4 -5.3 Q10.1 -6.8 9.6 -7.8 M2.5 0.05 L0.8 1.7 0.75 4.35 1.4 4.85 1.45 5.0 1.7 5.45 Q2.6 6.1 3.4 6.25 L3.55 6.1 Q3.8 5.65 3.65 5.15 L1.75 3.6 1.7 2.15 1.85 2.05 Q2.95 0.9 2.5 0.05 M10.65 8.75 Q11.35 8.85 11.65 8.25 L11.6 8.15 Q9.5 6.2 9.85 3.75 L9.7 3.8 Q8.7 5.0 8.85 6.6 9.35 8.1 10.65 8.75 M-6.1 3.2 L-6.45 2.65 Q-7.65 4.6 -6.4 6.4 L-4.15 7.25 -6.1 5.25 -6.35 3.85 -6.15 3.45 -6.1 3.2 M-5.1 -4.0 L-5.2 -2.45 Q-4.4 -1.3 -3.3 -0.5 -2.0 0.05 -1.4 -1.0 L-1.45 -1.15 Q-1.8 -1.9 -2.65 -1.85 L-4.1 -3.1 -4.05 -4.05 -3.85 -4.2 Q-3.4 -4.65 -3.1 -5.15 L-3.25 -5.15 -3.95 -5.1 -5.1 -4.0 M-14.7 -3.1 L-14.6 -3.25 Q-13.75 -3.8 -13.5 -4.35 L-13.6 -4.35 -14.15 -4.15 Q-14.85 -3.9 -15.4 -3.45 L-15.15 -1.8 -15.05 -1.55 Q-14.3 1.1 -10.9 1.8 L-10.25 1.75 Q-9.9 1.7 -9.85 1.35 -9.75 1.1 -10.05 0.95 L-10.8 0.3 Q-12.35 0.2 -13.25 -0.5 -14.45 -1.35 -14.7 -3.1" fill="#ffcc33" fill-rule="evenodd" stroke="none"/>
    <path d="M14.6 -12.45 L14.8 -12.3 15.3 -11.55 15.95 -11.6 17.25 -11.85 15.6 -12.8 14.15 -13.95 Q15.95 -14.35 17.85 -12.8 L19.75 -12.25 19.8 -12.25 21.6 -12.4 20.75 -12.8 17.8 -14.75 24.35 -12.45 25.75 -12.4 27.8 -12.65 35.1 -12.45 Q30.15 -14.2 24.9 -15.15 L12.65 -16.1 8.55 -16.0 Q9.9 -15.35 11.2 -14.75 L13.9 -12.8 14.6 -12.45 M30.4 21.95 L30.4 22.15 30.35 22.25 Q19.75 24.55 8.6 23.0 L0.3 21.65 Q-13.2 19.2 -25.05 12.5 L-25.15 12.45 -25.95 12.2 -28.65 12.1 Q-32.05 13.0 -34.95 15.0 L-39.95 18.8 Q-42.7 20.95 -46.0 22.15 L-49.4 23.45 Q-51.65 24.25 -53.9 23.4 -56.8 22.35 -59.1 20.55 L-59.4 18.55 Q-59.5 17.0 -58.85 15.75 -57.45 13.1 -55.5 10.95 L-52.25 7.1 Q-50.55 4.9 -50.4 2.3 -50.3 -0.4 -51.85 -2.65 L-53.7 -4.85 Q-56.0 -7.2 -56.95 -10.25 L-56.95 -11.0 -56.6 -12.45 -55.45 -12.9 Q-52.5 -13.15 -49.65 -12.0 L-46.7 -10.75 Q-44.4 -9.75 -42.2 -8.4 L-38.8 -6.5 Q-36.95 -5.6 -34.9 -4.9 L-31.3 -3.7 Q-27.7 -5.2 -23.85 -6.15 L13.15 -11.3 13.2 -11.3 15.3 -11.55 13.2 -11.35 13.15 -11.35 6.1 -16.75 7.0 -16.55 6.5 -16.75 Q15.75 -18.3 24.9 -16.55 29.55 -15.7 34.05 -14.1 L34.15 -14.05 38.1 -12.7 Q38.85 -12.45 39.05 -11.8 L38.95 -11.5 38.8 -11.35 38.5 -11.2 37.7 -11.5 37.6 -11.45 37.5 -11.35 37.25 -11.35 38.5 -11.05 38.8 -11.0 38.9 -10.9 32.45 -11.2 13.85 -9.95 12.95 -10.0 -17.35 -5.55 -34.7 -1.6 -35.15 -1.5 -35.2 -1.6 -35.2 -1.7 -33.1 -2.85 -33.2 -2.9 -33.25 -2.9 Q-35.2 -3.45 -37.05 -4.35 L-47.3 -9.25 Q-50.95 -11.1 -52.2 -11.35 L-54.7 -11.75 -55.85 -10.95 -55.65 -10.25 -55.15 -9.6 -51.75 -8.65 Q-45.95 -6.7 -41.2 -2.75 L-54.45 -8.25 -50.85 -4.25 -50.2 -4.05 Q-45.5 -2.85 -42.1 0.5 L-42.7 0.5 Q-43.15 0.25 -45.05 -0.65 -47.0 -1.6 -49.95 -2.25 L-49.65 -1.1 Q-49.1 1.2 -49.35 3.35 -49.65 5.5 -50.8 7.5 L-52.25 9.65 -43.85 7.1 Q-42.75 6.55 -42.7 6.55 L-42.65 6.55 Q-44.85 8.45 -47.7 9.8 L-47.8 9.85 Q-50.75 11.45 -53.35 11.0 -55.2 13.25 -56.7 15.75 L-57.6 17.7 Q-49.7 15.65 -42.7 11.7 -42.35 13.0 -44.4 14.1 -46.6 15.25 -48.9 16.0 L-49.5 16.45 Q-53.5 18.85 -57.85 19.0 L-57.8 19.4 -52.2 21.85 -49.65 21.95 -47.25 21.25 Q-44.8 20.35 -42.8 18.9 L-32.25 11.35 Q-30.85 10.4 -29.45 10.45 L-32.2 9.25 Q-33.35 8.9 -34.1 7.9 L-34.05 7.9 -33.95 7.9 -32.8 8.2 Q-29.2 9.15 -25.8 11.0 L-25.75 11.05 Q-17.95 14.05 -10.1 17.35 -6.45 18.85 -2.45 19.6 7.7 21.55 18.05 21.8 L29.7 21.35 30.25 21.45 30.4 21.8 30.4 21.95 M9.6 -7.8 Q10.1 -6.8 9.4 -5.3 L9.4 -5.2 Q10.55 -4.2 11.85 -3.65 9.15 -2.15 8.6 -5.45 8.45 -6.1 8.8 -6.85 L9.6 -7.8 M3.15 -6.55 Q3.85 -6.05 3.2 -5.2 L3.15 -5.05 3.2 -4.55 3.2 -4.25 Q4.25 -4.0 4.6 -3.25 4.1 -2.5 3.05 -2.95 L2.3 -3.65 Q2.0 -5.2 2.95 -6.4 L3.15 -6.55 M10.65 8.75 Q9.35 8.1 8.85 6.6 8.7 5.0 9.7 3.8 L9.85 3.75 Q9.5 6.2 11.6 8.15 L11.65 8.25 Q11.35 8.85 10.65 8.75 M2.5 0.05 Q2.95 0.9 1.85 2.05 L1.7 2.15 1.75 3.6 3.65 5.15 Q3.8 5.65 3.55 6.1 L3.4 6.25 Q2.6 6.1 1.7 5.45 L1.45 5.0 1.4 4.85 0.75 4.35 0.8 1.7 2.5 0.05 M-14.7 -3.1 Q-14.45 -1.35 -13.25 -0.5 -12.35 0.2 -10.8 0.3 L-10.05 0.95 Q-9.75 1.1 -9.85 1.35 -9.9 1.7 -10.25 1.75 L-10.9 1.8 Q-14.3 1.1 -15.05 -1.55 L-15.15 -1.8 -15.4 -3.45 Q-14.85 -3.9 -14.15 -4.15 L-13.6 -4.35 -13.5 -4.35 Q-13.75 -3.8 -14.6 -3.25 L-14.7 -3.1 M-5.1 -4.0 L-3.95 -5.1 -3.25 -5.15 -3.1 -5.15 Q-3.4 -4.65 -3.85 -4.2 L-4.05 -4.05 -4.1 -3.1 -2.65 -1.85 Q-1.8 -1.9 -1.45 -1.15 L-1.4 -1.0 Q-2.0 0.05 -3.3 -0.5 -4.4 -1.3 -5.2 -2.45 L-5.1 -4.0 M-6.1 3.2 L-6.15 3.45 -6.35 3.85 -6.1 5.25 -4.15 7.25 -6.4 6.4 Q-7.65 4.6 -6.45 2.65 L-6.1 3.2" fill="#000000" fill-rule="evenodd" stroke="none"/>
    <path d="M-34.05 7.9 L-34.1 7.9 Q-33.35 8.9 -32.2 9.25 L-29.45 10.45 Q-30.85 10.4 -32.25 11.35 L-42.8 18.9 Q-44.8 20.35 -47.25 21.25 L-49.65 21.95 -52.2 21.85 -57.8 19.4 -57.85 19.0 Q-53.5 18.85 -49.5 16.45 L-48.9 16.0 Q-46.6 15.25 -44.4 14.1 -42.35 13.0 -42.7 11.7 -49.7 15.65 -57.6 17.7 L-56.7 15.75 Q-55.2 13.25 -53.35 11.0 -50.75 11.45 -47.8 9.85 L-47.7 9.8 Q-44.85 8.45 -42.65 6.55 L-42.7 6.55 Q-42.75 6.55 -43.85 7.1 L-52.25 9.65 -50.8 7.5 Q-49.65 5.5 -49.35 3.35 -49.1 1.2 -49.65 -1.1 L-49.95 -2.25 Q-47.0 -1.6 -45.05 -0.65 -43.15 0.25 -42.7 0.5 L-42.1 0.5 Q-45.5 -2.85 -50.2 -4.05 L-50.85 -4.25 -54.45 -8.25 -41.2 -2.75 Q-45.95 -6.7 -51.75 -8.65 L-55.15 -9.6 -55.65 -10.25 -55.85 -10.95 -54.7 -11.75 -52.2 -11.35 Q-50.95 -11.1 -47.3 -9.25 L-37.05 -4.35 Q-35.2 -3.45 -33.25 -2.9 L-33.2 -2.9 -33.1 -2.85 -35.2 -1.7 -35.2 -1.6 -35.15 -1.5 -34.7 -1.6 -35.2 -1.05 Q-36.15 0.05 -36.6 1.5 -37.3 4.0 -35.65 5.75 L-35.6 5.9 -34.4 7.65 -34.3 7.7 -34.05 7.9" fill="#ffdd44" fill-rule="evenodd" stroke="none"/>
    <path d="M26.7 -1.95 Q23.55 4.6 26.25 11.65 L27.2 13.4 27.1 13.85 26.75 14.1 Q23.65 12.2 23.6 8.25 23.55 1.45 27.6 -4.1 L26.7 -1.95 M47.6 -0.5 L47.7 -0.8 47.7 -2.0 47.35 -1.7 Q45.95 -0.75 44.7 -0.4 41.45 0.35 39.0 -3.05 L38.1 -4.65 Q37.7 -5.7 37.65 -6.8 37.6 -8.85 38.2 -10.75 L38.45 -11.1 38.65 -11.5 38.65 -11.55 35.95 -10.75 35.15 -10.55 35.05 -10.55 35.0 -10.65 35.05 -10.9 35.15 -10.9 36.0 -11.4 36.25 -11.6 36.4 -11.65 36.9 -11.7 37.55 -12.15 37.85 -12.25 40.65 -13.8 40.95 -13.9 41.65 -13.85 42.7 -14.15 43.1 -14.35 43.35 -14.3 43.25 -14.25 43.75 -14.35 Q48.95 -14.3 50.1 -9.5 L50.05 -9.4 50.3 -7.55 Q58.75 -4.2 64.95 2.95 69.55 8.2 73.25 14.1 74.3 15.8 74.8 17.7 L74.8 17.9 Q75.45 18.85 75.2 20.1 L75.0 20.6 74.7 20.8 66.65 19.35 Q64.95 20.5 62.75 21.2 49.25 28.0 34.05 24.9 29.7 24.0 25.85 21.9 23.8 21.15 21.7 20.85 L22.05 20.8 24.75 20.6 Q25.5 21.0 26.3 21.0 40.75 26.7 55.75 22.2 60.05 20.9 64.0 18.85 L62.65 18.6 53.75 18.55 Q58.95 16.3 65.15 17.35 L73.65 19.2 Q72.9 18.4 72.9 17.4 L72.55 16.65 Q71.45 13.1 69.1 10.15 64.4 4.2 58.7 -0.8 54.7 -4.35 50.25 -6.8 L50.1 -5.95 Q50.3 -4.85 49.5 -3.4 L48.0 -0.55 47.6 -0.5 M36.35 -2.7 L36.95 -1.65 36.95 -1.5 37.3 -1.2 Q38.85 0.05 40.7 0.65 L40.75 0.65 44.45 1.2 44.5 1.35 43.5 1.6 Q40.7 2.1 38.05 0.45 L36.9 -0.8 36.65 -1.25 36.5 -1.4 36.2 -2.7 36.3 -2.75 36.35 -2.7 M39.6 -10.0 L39.0 -7.65 Q38.85 -6.8 39.15 -5.75 39.85 -3.1 42.4 -2.05 L45.1 -1.95 45.9 -2.4 Q47.5 -3.55 48.35 -5.45 49.1 -7.05 48.7 -8.85 48.25 -10.55 46.9 -11.85 44.8 -13.8 42.45 -12.65 40.1 -11.5 39.6 -10.0 M46.3 -8.75 Q46.75 -8.1 46.55 -7.4 46.15 -5.85 44.6 -5.25 44.05 -5.25 43.5 -5.7 42.3 -6.8 43.05 -8.35 43.55 -9.25 44.75 -9.65 45.75 -9.55 46.3 -8.75 M21.95 2.1 L21.85 4.9 Q21.65 7.5 22.35 10.2 L22.15 10.6 21.7 10.7 21.2 10.5 20.95 10.0 20.65 5.85 Q20.7 2.55 22.55 -0.35 L22.35 0.85 21.95 2.1" fill="#000000" fill-rule="evenodd" stroke="none"/>
    <path d="M35.95 -10.75 L38.65 -11.55 38.65 -11.5 38.45 -11.1 38.2 -10.75 Q37.6 -8.85 37.65 -6.8 37.7 -5.7 38.1 -4.65 L39.0 -3.05 Q41.45 0.35 44.7 -0.4 45.95 -0.75 47.35 -1.7 L47.7 -2.0 47.7 -0.8 47.6 -0.5 Q46.75 0.5 45.4 1.1 L44.5 1.35 44.45 1.2 40.75 0.65 40.75 0.5 40.7 0.65 Q38.85 0.05 37.3 -1.2 L36.95 -1.5 36.95 -1.65 36.35 -2.7 Q35.55 -5.85 35.65 -9.15 L35.75 -9.5 Q35.65 -10.15 35.95 -10.75" fill="#ff9933" fill-rule="evenodd" stroke="none"/>
    <path d="M35.95 -10.75 Q35.65 -10.15 35.75 -9.5 L35.65 -9.15 Q35.55 -5.85 36.35 -2.7 L36.3 -2.75 36.2 -2.7 36.5 -1.4 36.65 -1.25 36.9 -0.8 38.05 0.45 Q40.7 2.1 43.5 1.6 L44.5 1.35 45.4 1.1 Q46.75 0.5 47.6 -0.5 L48.0 -0.55 49.5 -3.4 Q50.3 -4.85 50.1 -5.95 L50.25 -6.8 Q54.7 -4.35 58.7 -0.8 64.4 4.2 69.1 10.15 71.45 13.1 72.55 16.65 L72.9 17.4 Q72.9 18.4 73.65 19.2 L65.15 17.35 Q58.95 16.3 53.75 18.55 L62.65 18.6 64.0 18.85 Q60.05 20.9 55.75 22.2 40.75 26.7 26.3 21.0 25.5 21.0 24.75 20.6 L22.05 20.8 Q32.5 17.45 35.15 -10.5 L35.15 -10.55 35.95 -10.75" fill="#ffcc33" fill-rule="evenodd" stroke="none"/>
    <path d="M39.6 -10.0 Q40.1 -11.5 42.45 -12.65 44.8 -13.8 46.9 -11.85 48.25 -10.55 48.7 -8.85 49.1 -7.05 48.35 -5.45 47.5 -3.55 45.9 -2.4 L45.1 -1.95 42.4 -2.05 Q39.85 -3.1 39.15 -5.75 38.85 -6.8 39.0 -7.65 L39.6 -10.0 M46.3 -8.75 Q45.75 -9.55 44.75 -9.65 43.55 -9.25 43.05 -8.35 42.3 -6.8 43.5 -5.7 44.05 -5.25 44.6 -5.25 46.15 -5.85 46.55 -7.4 46.75 -8.1 46.3 -8.75" fill="#ffffff" fill-rule="evenodd" stroke="none"/>
    <path d="M-34.5 -1.5 L-34.95 -1.4 -35.0 -1.5 -35.0 -1.6 -32.9 -2.75 -33.0 -2.8 -33.05 -2.8 Q-35.0 -3.35 -36.85 -4.25 L-47.1 -9.15 Q-50.75 -11.0 -52.0 -11.25 L-54.5 -11.65 -55.65 -10.85 -55.45 -10.15 -54.95 -9.5 -51.55 -8.55 Q-45.75 -6.6 -41.0 -2.65 L-54.25 -8.15 -50.65 -4.15 -50.0 -3.95 Q-45.3 -2.75 -41.9 0.6 L-42.5 0.6 Q-42.95 0.35 -44.85 -0.55 -46.8 -1.5 -49.75 -2.15 L-49.45 -1.0 Q-48.9 1.3 -49.15 3.45 -49.45 5.6 -50.6 7.6 L-52.05 9.75 -46.35 8.25 -43.65 7.2 -42.5 6.65 -42.45 6.65 Q-44.65 8.55 -47.5 9.9 L-47.6 9.95 Q-50.55 11.55 -53.15 11.1 -55.0 13.35 -56.5 15.85 L-57.4 17.8 Q-49.5 15.75 -42.5 11.8 L-42.45 12.25 Q-42.5 13.3 -44.2 14.2 -46.4 15.35 -48.7 16.1 L-49.3 16.55 Q-53.3 18.95 -57.65 19.1 L-57.6 19.5 -52.0 21.95 -49.45 22.05 -47.05 21.35 Q-44.6 20.45 -42.6 19.0 L-32.05 11.45 Q-30.65 10.5 -29.25 10.55 L-32.0 9.35 Q-33.15 9.0 -33.9 8.0 L-33.85 8.0 -33.75 8.0 -32.6 8.3 Q-29.0 9.25 -25.6 11.1 L-25.55 11.15 Q-17.75 14.15 -9.9 17.45 -6.25 18.95 -2.25 19.7 L1.0 20.3 1.85 20.4 14.55 21.75 18.05 21.9 18.25 21.9 29.9 21.45 30.45 21.55 30.6 21.9 30.6 22.05 30.6 22.25 30.55 22.35 Q22.9 24.0 15.0 23.7 12.0 25.2 8.6 26.05 L3.0 27.65 Q-2.2 29.3 -7.5 30.1 L-7.8 29.9 -7.8 29.65 -7.75 29.5 -7.75 29.4 -6.4 28.05 -5.8 27.2 Q-3.45 24.0 -0.55 21.55 -13.5 19.05 -24.85 12.6 L-24.95 12.55 -25.75 12.3 -28.45 12.2 Q-31.85 13.1 -34.75 15.1 L-39.75 18.9 Q-42.5 21.05 -45.8 22.25 L-49.2 23.55 Q-51.45 24.35 -53.7 23.5 -56.6 22.45 -58.9 20.65 L-59.2 18.65 Q-59.3 17.1 -58.65 15.85 -57.25 13.2 -55.3 11.05 L-52.05 7.2 Q-50.35 5.0 -50.2 2.4 -50.1 -0.3 -51.65 -2.55 L-53.5 -4.75 Q-55.8 -7.1 -56.75 -10.15 L-56.75 -10.9 -56.4 -12.35 -55.25 -12.8 Q-52.3 -13.05 -49.45 -11.9 L-46.5 -10.65 Q-44.2 -9.65 -42.0 -8.3 L-38.6 -6.4 -34.7 -4.8 -31.1 -3.6 Q-27.5 -5.1 -23.65 -6.05 L13.35 -11.2 13.4 -11.2 15.5 -11.45 13.4 -11.25 13.35 -11.25 6.3 -16.65 7.2 -16.45 6.7 -16.65 Q15.95 -18.2 25.1 -16.45 29.75 -15.6 34.25 -14.0 L34.35 -13.95 38.3 -12.6 Q39.05 -12.35 39.25 -11.7 L39.15 -11.4 39.0 -11.25 38.7 -11.1 37.9 -11.4 37.8 -11.35 37.7 -11.25 37.45 -11.25 38.7 -10.95 39.0 -10.9 39.1 -10.8 32.65 -11.1 14.05 -9.85 13.15 -9.9 -17.15 -5.45 -29.85 -2.5 -34.5 -1.5 M10.3 -15.15 L11.4 -14.65 14.1 -12.7 14.8 -12.35 15.0 -12.2 15.5 -11.45 15.95 -11.45 17.45 -11.75 15.8 -12.7 15.1 -13.25 14.35 -13.85 Q16.15 -14.25 18.05 -12.7 L19.95 -12.15 20.0 -12.15 21.8 -12.3 20.95 -12.7 18.45 -14.35 18.0 -14.65 24.55 -12.35 25.95 -12.3 28.0 -12.55 32.25 -12.4 35.3 -12.35 Q30.35 -14.1 25.1 -15.05 L12.85 -16.0 8.75 -15.9 Q9.55 -15.5 10.3 -15.15 M-13.35 -4.15 Q-13.6 -3.65 -14.4 -3.15 L-14.5 -3.0 Q-14.25 -1.25 -13.05 -0.4 -12.3 0.2 -11.0 0.35 L-10.6 0.4 -9.85 1.05 Q-9.55 1.2 -9.65 1.45 -9.7 1.8 -10.05 1.85 L-10.7 1.9 Q-14.1 1.2 -14.85 -1.45 L-14.95 -1.7 -15.2 -3.35 -13.95 -4.05 -13.4 -4.25 -13.3 -4.25 -13.35 -4.15 M-3.0 -4.9 L-3.65 -4.1 -3.85 -3.95 -3.9 -3.0 -2.45 -1.75 -1.85 -1.65 -1.25 -1.05 -1.2 -0.9 Q-1.8 0.15 -3.1 -0.4 -4.2 -1.2 -5.0 -2.35 L-4.9 -3.9 -3.75 -5.0 -3.05 -5.05 -2.9 -5.05 -3.0 -4.9 M9.85 -7.65 L10.0 -6.45 9.6 -5.2 9.6 -5.1 Q10.65 -4.2 11.85 -3.65 L12.05 -3.55 Q9.35 -2.05 8.8 -5.35 8.65 -6.0 9.0 -6.75 L9.8 -7.65 9.8 -7.7 9.85 -7.65 M4.5 -3.55 L4.65 -3.4 4.8 -3.15 Q4.3 -2.4 3.25 -2.85 L2.5 -3.55 Q2.2 -5.1 3.15 -6.3 L3.35 -6.45 3.65 -6.1 3.7 -6.0 3.7 -5.6 3.4 -5.1 3.35 -4.95 3.4 -4.45 3.4 -4.15 Q4.1 -4.0 4.5 -3.55 M11.8 8.25 L11.85 8.35 Q11.55 8.95 10.85 8.85 9.85 8.35 9.35 7.35 L9.05 6.7 Q8.9 5.1 9.9 3.9 L10.05 3.85 10.05 4.2 10.05 5.05 Q10.15 6.15 10.85 7.15 L11.8 8.25 M3.8 5.2 L3.85 5.25 3.9 5.65 3.75 6.2 3.6 6.35 Q2.8 6.2 1.9 5.55 L1.65 5.1 1.6 4.95 0.95 4.45 1.0 1.8 2.7 0.15 2.8 0.45 2.85 0.8 Q2.75 1.4 2.05 2.15 L1.9 2.25 1.95 3.7 3.8 5.2 M-4.5 6.8 L-3.95 7.35 -6.2 6.5 Q-7.45 4.7 -6.25 2.75 L-5.95 3.2 -5.9 3.3 -5.9 3.35 -5.95 3.55 -6.15 3.95 -5.9 5.35 -4.5 6.8 M0.5 21.75 L0.45 21.75 -0.2 22.4 -5.05 28.35 Q3.15 26.6 10.95 23.35 L8.8 23.1 0.5 21.75" fill="#000000" fill-rule="evenodd" stroke="none"/>
    <path d="M-34.5 -1.5 L-29.85 -2.5 Q-16.8 -5.1 -3.35 -6.6 L9.8 -7.65 9.0 -6.75 Q8.65 -6.0 8.8 -5.35 9.35 -2.05 12.05 -3.55 L11.85 -3.65 Q10.4 -5.05 10.0 -6.45 L9.85 -7.65 24.65 -8.9 39.65 -8.4 Q42.5 5.75 35.1 16.7 26.1 4.65 27.85 -3.55 24.85 -0.5 22.85 3.8 22.1 2.4 22.55 0.85 22.95 -3.45 24.5 -6.8 17.8 -1.25 14.05 6.45 L11.2 7.1 Q10.45 5.55 10.05 4.2 L10.05 3.85 9.9 3.9 Q8.9 5.1 9.05 6.7 L9.35 7.35 Q1.15 11.25 -3.8 10.4 L-16.05 7.6 -35.95 1.85 -36.4 1.7 -36.4 1.6 Q-35.95 0.15 -35.0 -0.95 L-34.5 -1.5 M38.7 -10.95 L37.45 -11.25 37.7 -11.25 37.8 -11.35 37.9 -11.4 38.7 -11.1 38.7 -10.95 M15.5 -11.45 L15.0 -12.2 14.8 -12.35 14.1 -12.7 11.4 -14.65 10.3 -15.15 21.65 -14.8 Q28.1 -14.6 32.25 -12.4 L28.0 -12.55 25.95 -12.3 24.55 -12.35 18.0 -14.65 18.45 -14.35 20.0 -12.15 19.95 -12.15 18.05 -12.7 Q16.15 -14.25 14.35 -13.85 L15.1 -13.25 15.95 -11.45 15.5 -11.45 M-13.35 -4.15 L-13.3 -4.25 -13.4 -4.25 -13.95 -4.05 -15.2 -3.35 -14.95 -1.7 -14.85 -1.45 Q-14.1 1.2 -10.7 1.9 L-10.05 1.85 Q-9.7 1.8 -9.65 1.45 -9.55 1.2 -9.85 1.05 L-10.6 0.4 -11.0 0.35 Q-13.2 -1.1 -13.35 -4.15 M-3.0 -4.9 L-2.9 -5.05 -3.05 -5.05 -3.75 -5.0 -4.9 -3.9 -5.0 -2.35 Q-4.2 -1.2 -3.1 -0.4 -1.8 0.15 -1.2 -0.9 L-1.25 -1.05 -1.85 -1.65 Q-3.1 -3.0 -3.0 -4.9 M3.7 -5.6 L3.7 -6.0 3.65 -6.1 3.35 -6.45 3.15 -6.3 Q2.2 -5.1 2.5 -3.55 L3.25 -2.85 Q4.3 -2.4 4.8 -3.15 L4.65 -3.4 4.5 -3.55 Q3.7 -4.6 3.7 -5.6 M2.85 0.8 L2.8 0.45 2.7 0.15 1.0 1.8 0.95 4.45 1.6 4.95 1.65 5.1 1.9 5.55 Q2.8 6.2 3.6 6.35 L3.75 6.2 3.9 5.65 3.85 5.25 3.8 5.2 Q2.65 3.0 2.85 0.8 M0.5 21.75 L8.8 23.1 10.95 23.35 Q3.15 26.6 -5.05 28.35 L-0.2 22.4 0.45 21.75 0.5 21.75 M-5.9 3.35 L-5.9 3.3 -5.95 3.2 -6.25 2.75 Q-7.45 4.7 -6.2 6.5 L-3.95 7.35 -4.5 6.8 Q-5.7 5.1 -5.9 3.35" fill="#ffcc33" fill-rule="evenodd" stroke="none"/>
    <path d="M-29.85 -2.5 L-17.15 -5.45 13.15 -9.9 14.05 -9.85 32.65 -11.1 39.1 -10.8 39.65 -8.4 24.65 -8.9 9.85 -7.65 9.8 -7.7 9.8 -7.65 -3.35 -6.6 Q-16.8 -5.1 -29.85 -2.5 M18.45 -14.35 L20.95 -12.7 21.8 -12.3 20.0 -12.15 18.45 -14.35 M15.1 -13.25 L15.8 -12.7 17.45 -11.75 15.95 -11.45 15.1 -13.25 M-11.0 0.35 Q-12.3 0.2 -13.05 -0.4 -14.25 -1.25 -14.5 -3.0 L-14.4 -3.15 Q-13.6 -3.65 -13.35 -4.15 -13.2 -1.1 -11.0 0.35 M-1.85 -1.65 L-2.45 -1.75 -3.9 -3.0 -3.85 -3.95 -3.65 -4.1 -3.0 -4.9 Q-3.1 -3.0 -1.85 -1.65 M10.0 -6.45 Q10.4 -5.05 11.85 -3.65 10.65 -4.2 9.6 -5.1 L9.6 -5.2 10.0 -6.45 M3.7 -5.6 Q3.7 -4.6 4.5 -3.55 4.1 -4.0 3.4 -4.15 L3.4 -4.45 3.35 -4.95 3.4 -5.1 3.7 -5.6 M11.8 8.25 L10.85 7.15 Q10.15 6.15 10.05 5.05 L10.05 4.2 Q10.45 5.55 11.2 7.1 L11.8 8.25 M2.85 0.8 Q2.65 3.0 3.8 5.2 L1.95 3.7 1.9 2.25 2.05 2.15 Q2.75 1.4 2.85 0.8 M-4.5 6.8 L-5.9 5.35 -6.15 3.95 -5.95 3.55 -5.9 3.35 Q-5.7 5.1 -4.5 6.8" fill="#ffda6d" fill-rule="evenodd" stroke="none"/>
    <path d="M10.3 -15.15 Q9.55 -15.5 8.75 -15.9 L12.85 -16.0 25.1 -15.05 Q30.35 -14.1 35.3 -12.35 L32.25 -12.4 Q28.1 -14.6 21.65 -14.8 L10.3 -15.15 M30.6 22.05 L30.6 21.9 30.45 21.55 29.9 21.45 18.25 21.9 18.05 21.9 14.55 21.75 1.85 20.4 1.0 20.3 -2.25 19.7 Q-6.25 18.95 -9.9 17.45 -17.75 14.15 -25.55 11.15 L-25.6 11.1 Q-29.0 9.25 -32.6 8.3 L-33.75 8.0 -33.85 8.0 -34.1 7.8 -34.2 7.75 -35.4 6.0 -35.45 5.85 Q-36.6 4.6 -36.6 3.05 L-36.4 1.7 -35.95 1.85 -16.05 7.6 -3.8 10.4 Q1.15 11.25 9.35 7.35 9.85 8.35 10.85 8.85 11.55 8.95 11.85 8.35 L11.8 8.25 11.2 7.1 14.05 6.45 Q17.8 -1.25 24.5 -6.8 22.95 -3.45 22.55 0.85 22.1 2.4 22.85 3.8 24.85 -0.5 27.85 -3.55 26.1 4.65 35.1 16.7 33.2 19.5 30.65 22.1 L30.6 22.05" fill="#ecb20a" fill-rule="evenodd" stroke="none"/>
    <path d="M-42.45 12.25 L-42.5 11.8 Q-49.5 15.75 -57.4 17.8 L-56.5 15.85 Q-55.0 13.35 -53.15 11.1 -50.55 11.55 -47.6 9.95 L-47.5 9.9 Q-44.65 8.55 -42.45 6.65 L-42.5 6.65 -43.65 7.2 -46.35 8.25 -52.05 9.75 -50.6 7.6 Q-49.45 5.6 -49.15 3.45 -48.9 1.3 -49.45 -1.0 L-49.75 -2.15 Q-46.8 -1.5 -44.85 -0.55 -42.95 0.35 -42.5 0.6 L-41.9 0.6 Q-45.3 -2.75 -50.0 -3.95 L-50.65 -4.15 -54.25 -8.15 -41.0 -2.65 Q-45.75 -6.6 -51.55 -8.55 L-54.95 -9.5 -55.45 -10.15 -55.65 -10.85 -54.5 -11.65 -52.0 -11.25 Q-50.75 -11.0 -47.1 -9.15 L-36.85 -4.25 Q-35.0 -3.35 -33.05 -2.8 L-33.0 -2.8 -32.9 -2.75 -35.0 -1.6 -35.0 -1.5 -34.95 -1.4 -34.5 -1.5 -35.0 -0.95 Q-35.95 0.15 -36.4 1.6 L-36.4 1.7 -36.6 3.05 -39.85 8.8 -42.45 12.25" fill="#ffdd44" fill-rule="evenodd" stroke="none"/>
    <path d="M-33.85 8.0 L-33.9 8.0 Q-33.15 9.0 -32.0 9.35 L-29.25 10.55 Q-30.65 10.5 -32.05 11.45 L-42.6 19.0 Q-44.6 20.45 -47.05 21.35 L-49.45 22.05 -52.0 21.95 -57.6 19.5 -57.65 19.1 Q-53.3 18.95 -49.3 16.55 L-48.7 16.1 Q-46.4 15.35 -44.2 14.2 -42.5 13.3 -42.45 12.25 L-39.85 8.8 -36.6 3.05 Q-36.6 4.6 -35.45 5.85 L-35.4 6.0 -34.2 7.75 -34.1 7.8 -33.85 8.0" fill="#e7c83d" fill-rule="evenodd" stroke="none"/>
  </g>
</svg>
