<?xml version="1.0" encoding="UTF-8" standalone="no"?>
<svg xmlns:xlink="http://www.w3.org/1999/xlink" height="44.45px" width="83.05px" xmlns="http://www.w3.org/2000/svg">
  <g transform="matrix(1.0, 0.0, 0.0, 1.0, 7.8, 14.35)">
    <path d="M26.7 -1.95 Q23.55 4.6 26.25 11.65 L27.2 13.4 27.1 13.85 26.75 14.1 Q23.65 12.2 23.6 8.25 23.55 1.45 27.6 -4.1 L26.7 -1.95 M47.6 -0.5 L47.7 -0.8 47.7 -2.0 47.35 -1.7 Q45.95 -0.75 44.7 -0.4 41.45 0.35 39.0 -3.05 L38.1 -4.65 Q37.7 -5.7 37.65 -6.8 37.6 -8.85 38.2 -10.75 L38.45 -11.1 38.65 -11.5 38.65 -11.6 38.7 -11.6 35.95 -10.75 35.15 -10.55 35.05 -10.55 35.0 -10.65 35.05 -10.9 35.15 -10.9 36.0 -11.4 36.25 -11.6 36.4 -11.65 36.9 -11.7 37.55 -12.15 37.85 -12.25 40.65 -13.8 40.95 -13.9 41.65 -13.85 42.7 -14.15 43.1 -14.35 43.35 -14.3 43.25 -14.25 43.75 -14.35 Q48.95 -14.3 50.1 -9.5 L50.05 -9.4 50.3 -7.55 Q58.75 -4.2 64.95 2.95 69.55 8.2 73.25 14.1 74.3 15.8 74.8 17.7 L74.8 17.9 Q75.45 18.85 75.2 20.1 L75.0 20.6 74.7 20.8 66.65 19.35 Q64.95 20.5 62.75 21.2 49.25 28.0 34.05 24.9 29.7 24.0 25.85 21.9 23.8 21.15 21.7 20.85 L24.75 20.6 Q25.5 21.0 26.3 21.0 40.75 26.7 55.75 22.2 60.05 20.9 64.0 18.85 L62.65 18.6 53.75 18.55 Q58.95 16.3 65.15 17.35 L73.65 19.2 Q72.9 18.4 72.9 17.4 L72.55 16.65 Q71.45 13.1 69.1 10.15 64.4 4.2 58.7 -0.8 54.7 -4.35 50.25 -6.8 L50.1 -5.95 Q50.3 -4.85 49.5 -3.4 L48.0 -0.55 47.6 -0.5 M36.35 -2.7 L36.95 -1.65 36.95 -1.5 37.3 -1.2 Q38.85 0.05 40.7 0.65 L40.75 0.65 44.45 1.2 44.5 1.35 43.5 1.6 Q40.7 2.1 38.05 0.45 L36.9 -0.8 36.65 -1.25 36.5 -1.4 36.2 -2.7 36.3 -2.75 36.35 -2.7 M39.6 -10.0 L39.0 -7.65 Q38.85 -6.8 39.15 -5.75 39.85 -3.1 42.4 -2.05 L45.1 -1.95 45.9 -2.4 Q47.5 -3.55 48.35 -5.45 49.1 -7.05 48.7 -8.85 48.25 -10.55 46.9 -11.85 44.8 -13.8 42.45 -12.65 40.1 -11.5 39.6 -10.0 M46.3 -8.75 Q46.75 -8.1 46.55 -7.4 46.15 -5.85 44.6 -5.25 44.05 -5.25 43.5 -5.7 42.3 -6.8 43.05 -8.35 43.55 -9.25 44.75 -9.65 45.75 -9.55 46.3 -8.75 M21.95 2.1 L21.85 4.9 Q21.65 7.5 22.35 10.2 L22.15 10.6 21.7 10.7 21.2 10.5 20.95 10.0 20.65 5.85 Q20.7 2.55 22.55 -0.35 L22.35 0.85 21.95 2.1" fill="#000000" fill-rule="evenodd" stroke="none"/>
    <path d="M39.6 -10.0 Q40.1 -11.5 42.45 -12.65 44.8 -13.8 46.9 -11.85 48.25 -10.55 48.7 -8.85 49.1 -7.05 48.35 -5.45 47.5 -3.55 45.9 -2.4 L45.1 -1.95 42.4 -2.05 Q39.85 -3.1 39.15 -5.75 38.85 -6.8 39.0 -7.65 L39.6 -10.0 M46.3 -8.75 Q45.75 -9.55 44.75 -9.65 43.55 -9.25 43.05 -8.35 42.3 -6.8 43.5 -5.7 44.05 -5.25 44.6 -5.25 46.15 -5.85 46.55 -7.4 46.75 -8.1 46.3 -8.75" fill="#ffffff" fill-rule="evenodd" stroke="none"/>
    <path d="M35.95 -10.75 L38.7 -11.6 38.65 -11.6 38.65 -11.5 38.45 -11.1 38.2 -10.75 Q37.6 -8.85 37.65 -6.8 37.7 -5.7 38.1 -4.65 L39.0 -3.05 Q41.45 0.35 44.7 -0.4 45.95 -0.75 47.35 -1.7 L47.7 -2.0 47.7 -0.8 47.6 -0.5 Q46.75 0.5 45.4 1.1 L44.5 1.35 44.45 1.2 40.75 0.65 40.75 0.5 40.7 0.65 Q38.85 0.05 37.3 -1.2 L36.95 -1.5 36.95 -1.65 36.35 -2.7 36.35 -2.75 Q35.55 -5.85 35.65 -9.15 L35.75 -9.5 Q35.65 -10.15 35.95 -10.75" fill="#ff9933" fill-rule="evenodd" stroke="none"/>
    <path d="M30.95 10.3 Q33.9 2.6 35.15 -10.5 L35.15 -10.55 35.95 -10.75 Q35.65 -10.15 35.75 -9.5 L35.65 -9.15 Q35.55 -5.85 36.35 -2.75 L36.3 -2.75 36.2 -2.7 36.5 -1.4 36.65 -1.25 36.9 -0.8 38.05 0.45 Q40.7 2.1 43.5 1.6 L45.4 1.1 Q46.75 0.5 47.6 -0.5 L48.0 -0.55 49.5 -3.4 Q57.45 0.9 64.55 8.45 69.0 13.05 70.4 18.5 L65.15 17.35 Q58.95 16.3 53.75 18.55 49.05 20.85 43.4 20.35 32.1 18.35 30.95 10.3" fill="#ffcc33" fill-rule="evenodd" stroke="none"/>
    <path d="M49.5 -3.4 Q50.3 -4.85 50.1 -5.95 L50.25 -6.8 Q54.7 -4.35 58.7 -0.8 64.4 4.2 69.1 10.15 71.45 13.1 72.55 16.65 L72.9 17.4 Q72.9 18.4 73.65 19.2 L70.4 18.5 Q69.0 13.05 64.55 8.45 57.45 0.9 49.5 -3.4" fill="#ffd75f" fill-rule="evenodd" stroke="none"/>
    <path d="M53.75 18.55 L62.65 18.6 64.0 18.85 Q60.05 20.9 55.75 22.2 40.75 26.7 26.3 21.0 25.5 21.0 24.75 20.6 L22.05 20.8 Q27.6 19.0 30.95 10.3 32.1 18.35 43.4 20.35 49.05 20.85 53.75 18.55" fill="#ecb20a" fill-rule="evenodd" stroke="none"/>
    <path d="M20.6 17.0 Q20.75 16.85 20.95 16.85 L21.5 16.8 Q21.95 17.15 21.9 17.65 L21.9 18.4 21.7 18.9 21.65 19.0 Q16.15 24.15 8.6 26.05 L3.0 27.65 Q-2.2 29.3 -7.5 30.1 L-7.8 29.9 -7.8 29.65 -7.75 29.5 -7.75 29.4 -6.4 28.05 -5.8 27.2 Q-1.2 20.9 5.65 17.4 6.45 17.0 7.3 16.85 L8.7 16.6 7.6 17.3 Q3.05 18.7 -0.2 22.4 L-5.05 28.35 Q7.45 25.7 18.95 19.55 20.5 18.75 20.6 17.0 M4.2 20.45 Q6.65 18.15 9.95 16.95 L10.9 16.6 Q11.65 16.4 12.05 16.95 L12.1 17.05 12.1 17.2 12.0 17.4 11.9 17.55 Q7.8 18.45 4.25 20.5 L4.2 20.45 M16.0 17.15 L16.05 17.25 16.05 17.65 15.9 17.9 Q13.0 18.55 10.65 19.85 12.3 17.6 14.95 16.9 L15.35 16.8 Q15.8 16.75 16.0 17.15" fill="#000000" fill-rule="evenodd" stroke="none"/>
    <path d="M8.7 16.6 Q13.6 13.9 20.6 17.0 20.5 18.75 18.95 19.55 7.45 25.7 -5.05 28.35 L-0.2 22.4 Q3.05 18.7 7.6 17.3 L8.7 16.6 M16.0 17.15 Q15.8 16.75 15.35 16.8 L14.95 16.9 Q12.3 17.6 10.65 19.85 13.0 18.55 15.9 17.9 L16.05 17.65 16.05 17.25 16.0 17.15 M4.2 20.45 L4.25 20.5 Q7.8 18.45 11.9 17.55 L12.0 17.4 12.1 17.2 12.1 17.05 12.05 16.95 Q11.65 16.4 10.9 16.6 L9.95 16.95 Q6.65 18.15 4.2 20.45" fill="#ffcc33" fill-rule="evenodd" stroke="none"/>
  </g>
</svg>
