<?xml version="1.0" encoding="UTF-8" standalone="no"?>
<svg xmlns:xlink="http://www.w3.org/1999/xlink" height="48.45px" width="64.8px" xmlns="http://www.w3.org/2000/svg">
  <g transform="matrix(1.0, 0.0, 0.0, 1.0, 49.85, 77.85)">
    <path d="M-9.1 -76.05 L11.4 -63.6 Q14.5 -60.7 13.8 -58.05 L-9.7 -45.75 -45.0 -66.75 -31.65 -72.1 Q-21.0 -75.45 -9.55 -76.35 L-9.1 -76.05" fill="#cccccc" fill-rule="evenodd" stroke="none"/>
    <path d="M13.8 -58.05 Q13.3 -56.4 11.4 -54.85 L-9.55 -42.8 -9.85 -42.65 -9.6 -42.55 -13.6 -30.4 -48.35 -49.0 -48.35 -63.45 -48.35 -64.4 -47.85 -65.05 -45.0 -66.75 -9.7 -45.75 13.8 -58.05" fill="#999999" fill-rule="evenodd" stroke="none"/>
    <path d="M-9.1 -76.05 L11.4 -63.6 Q14.5 -60.7 13.8 -58.05 13.3 -56.4 11.4 -54.85 L-9.55 -42.8 -9.6 -42.55 -13.6 -30.4 -48.35 -49.0 -48.35 -63.45 M-9.55 -42.8 L-9.85 -42.65" fill="none" stroke="#000000" stroke-linecap="round" stroke-linejoin="round" stroke-width="2.0"/>
    <path d="M-48.35 -63.45 L-48.35 -64.4 M-47.85 -65.05 L-45.0 -66.75 -31.65 -72.1 Q-21.0 -75.45 -9.55 -76.35 L-9.1 -76.05 Z" fill="none" stroke="#000000" stroke-linecap="round" stroke-linejoin="round" stroke-width="3.0"/>
    <path d="M-39.15 -59.2 Q-38.05 -61.15 -35.6 -62.15 -31.95 -63.65 -25.5 -59.9 -20.3 -54.65 -20.85 -49.45 -19.4 -42.45 -26.35 -42.4 -23.35 -50.4 -25.9 -55.4 -29.95 -60.75 -39.15 -59.2" fill="#999999" fill-rule="evenodd" stroke="none"/>
    <path d="M-26.35 -42.4 Q-41.1 -42.75 -40.25 -50.45 L-39.15 -59.2 Q-29.95 -60.75 -25.9 -55.4 -23.35 -50.4 -26.35 -42.4" fill="#666666" fill-rule="evenodd" stroke="none"/>
    <path d="M-26.35 -42.4 Q-41.1 -42.75 -40.25 -50.45 L-39.15 -59.2 Q-38.05 -61.15 -35.6 -62.15 -31.95 -63.65 -25.5 -59.9 -20.3 -54.65 -20.85 -49.45 -19.4 -42.45 -26.35 -42.4 Z" fill="none" stroke="#000000" stroke-linecap="round" stroke-linejoin="round" stroke-width="2.0"/>
  </g>
</svg>
