<?xml version="1.0" encoding="UTF-8" standalone="no"?>
<svg xmlns:xlink="http://www.w3.org/1999/xlink" height="46.25px" width="71.85px" xmlns="http://www.w3.org/2000/svg">
  <g transform="matrix(1.0, 0.0, 0.0, 1.0, 36.2, 23.4)">
    <path d="M-3.15 -21.6 L4.5 -16.15 4.5 -11.15 14.85 -6.15 Q19.25 -2.75 23.65 -6.15 L32.0 -1.0 -7.0 18.15 -33.7 -0.05 Q-19.2 -14.85 -3.55 -21.9 L-3.15 -21.6" fill="#cccccc" fill-rule="evenodd" stroke="none"/>
    <path d="M-33.7 -0.05 L-7.0 18.15 32.0 -1.0 34.65 0.65 -8.15 21.85 -32.15 6.55 -33.7 5.55 Q-35.65 2.75 -33.7 -0.05" fill="#999999" fill-rule="evenodd" stroke="none"/>
    <path d="M32.0 -1.0 L23.65 -6.15 Q19.25 -2.75 14.85 -6.15 L4.5 -11.15 4.5 -16.15 -3.15 -21.6 M32.0 -1.0 L34.65 0.65 -8.15 21.85 -32.15 6.55" fill="none" stroke="#000000" stroke-linecap="round" stroke-linejoin="round" stroke-width="2.0"/>
    <path d="M-3.15 -21.6 L-3.55 -21.9 Q-19.2 -14.85 -33.7 -0.05 -35.65 2.75 -33.7 5.55 L-32.15 6.55" fill="none" stroke="#000000" stroke-linecap="round" stroke-linejoin="round" stroke-width="3.0"/>
  </g>
</svg>
