<?xml version="1.0" encoding="UTF-8" standalone="no"?>
<svg xmlns:xlink="http://www.w3.org/1999/xlink" height="155.7px" width="171.75px" xmlns="http://www.w3.org/2000/svg">
  <g transform="matrix(1.0, 0.0, 0.0, 1.0, 85.85, 77.85)">
    <path d="M-82.15 -37.75 Q-78.9 -40.45 -78.2 -37.75 -73.85 -32.05 -66.15 -29.9 -50.9 -25.35 -36.35 -29.9 -11.6 -40.65 11.4 -54.85 16.15 -59.2 11.4 -63.6 L-9.55 -76.35 -8.15 -76.35 -5.8 -76.35 Q13.7 -69.25 29.35 -58.1 49.75 -44.05 62.6 -28.0 L63.35 -26.2 Q87.2 32.05 62.05 56.8 60.2 -26.45 34.8 3.05 2.9 42.1 -51.9 -7.3 L-82.15 -37.75" fill="#ffffff" fill-rule="evenodd" stroke="none"/>
    <path d="M-83.65 -27.6 L-82.0 -29.3 -14.9 34.3 Q-1.75 46.25 40.8 41.35 56.6 42.9 58.25 68.95 65.8 66.65 72.65 60.7 L74.55 62.85 Q54.6 84.35 26.1 71.6 L23.5 70.3 Q14.8 65.8 7.25 59.5 -4.3 50.2 -18.0 37.75 -46.3 11.9 -83.65 -27.6" fill="#cccccc" fill-rule="evenodd" stroke="none"/>
    <path d="M-84.35 -31.5 L-82.0 -29.3 -83.65 -27.6 Q-84.35 -29.6 -84.35 -31.5 M72.65 60.7 Q77.8 56.2 82.55 49.7 80.45 57.15 74.55 62.85 L72.65 60.7" fill="#999999" fill-rule="evenodd" stroke="none"/>
    <path d="M-82.15 -37.75 L-51.9 -7.3 Q2.9 42.1 34.8 3.05 60.2 -26.45 62.05 56.8 87.2 32.05 63.35 -26.2 L62.6 -28.0 63.8 -26.45 Q88.0 4.8 83.75 43.55 L82.95 48.05 82.55 49.7 Q77.8 56.2 72.65 60.7 65.8 66.65 58.25 68.95 56.6 42.9 40.8 41.35 -1.75 46.25 -14.9 34.3 L-82.0 -29.3 -84.35 -31.5 Q-84.35 -34.8 -82.15 -37.75" fill="#efefef" fill-rule="evenodd" stroke="none"/>
    <path d="M-8.15 -76.35 L-9.55 -76.35 11.4 -63.6 Q16.15 -59.2 11.4 -54.85 -11.6 -40.65 -36.35 -29.9 -50.9 -25.35 -66.15 -29.9 -73.85 -32.05 -78.2 -37.75 -78.9 -40.45 -82.15 -37.75" fill="none" stroke="#000000" stroke-linecap="round" stroke-linejoin="round" stroke-width="2.0"/>
    <path d="M62.6 -28.0 Q49.75 -44.05 29.35 -58.1 13.7 -69.25 -5.8 -76.35 L-8.15 -76.35 M82.55 49.7 L82.95 48.05 83.75 43.55 Q88.0 4.8 63.8 -26.45 L62.6 -28.0 M-84.35 -31.5 Q-84.35 -29.6 -83.65 -27.6 -46.3 11.9 -18.0 37.75 -4.3 50.2 7.25 59.5 14.8 65.8 23.5 70.3 L26.1 71.6 Q54.6 84.35 74.55 62.85 80.45 57.15 82.55 49.7 M-82.15 -37.75 Q-84.35 -34.8 -84.35 -31.5" fill="none" stroke="#000000" stroke-linecap="round" stroke-linejoin="round" stroke-width="3.0"/>
  </g>
</svg>
