<?xml version="1.0" encoding="UTF-8" standalone="no"?>
<svg xmlns:xlink="http://www.w3.org/1999/xlink" height="182.3px" width="509.3px" xmlns="http://www.w3.org/2000/svg">
  <g transform="matrix(1.0, 0.0, 0.0, 1.0, 477.3, 83.25)">
    <path d="M-237.15 -38.0 L-237.4 -37.15 -238.5 -34.4 Q-247.95 -29.15 -257.75 -24.6 L-263.5 -22.0 Q-275.05 -16.95 -287.0 -12.9 L-314.6 -2.6 Q-318.4 -1.2 -322.5 -0.3 -342.85 4.15 -361.7 -3.5 -374.45 -8.65 -386.45 -15.55 -393.45 -19.55 -399.5 -24.75 -415.25 -34.35 -428.3 -41.1 L-439.65 -46.45 -455.6 -53.25 -469.0 -57.75 Q-471.3 -58.45 -473.2 -57.4 -473.05 -56.1 -472.55 -54.9 L-470.65 -51.0 Q-452.0 -32.45 -432.2 -14.6 -429.55 -12.2 -427.25 -9.35 -421.7 -2.5 -417.4 4.9 L-415.2 8.15 Q-410.1 14.8 -402.25 18.0 -397.1 20.05 -390.95 20.65 -388.15 20.95 -386.0 22.15 -384.0 23.25 -382.6 25.2 L-382.9 26.5 -383.1 26.85 -383.75 27.2 Q-395.85 31.1 -409.3 30.75 -409.65 30.75 -410.0 31.2 -409.7 35.6 -410.4 39.75 -411.25 44.6 -413.3 49.05 -414.75 55.8 -417.8 62.25 L-432.45 91.65 -433.0 94.35 Q-430.35 95.7 -427.55 94.35 L-422.5 91.9 Q-412.4 85.85 -402.6 79.0 L-370.75 56.85 Q-357.6 50.6 -344.35 44.5 L-342.65 44.1 -331.55 42.65 Q-320.0 41.1 -308.5 42.75 -297.75 44.35 -287.55 47.65 L-227.3 63.4 -215.85 68.5 -249.2 64.1 -295.45 50.75 Q-332.1 39.95 -363.65 58.45 -372.65 63.7 -381.2 69.55 L-405.25 86.05 Q-413.15 91.35 -421.7 95.8 -425.25 97.7 -429.05 98.8 -432.6 99.7 -435.7 97.6 L-435.7 94.15 Q-435.55 91.2 -434.8 88.3 -433.15 82.15 -429.65 76.8 -426.75 72.3 -424.25 67.6 L-420.5 60.2 Q-413.9 45.85 -413.0 30.35 L-412.1 29.25 -411.0 28.2 Q-398.4 28.2 -386.45 25.8 L-398.7 22.45 -409.55 18.9 Q-416.1 16.55 -422.55 4.9 -435.2 -12.95 -452.1 -26.8 -462.5 -35.3 -471.9 -45.35 L-475.6 -51.8 Q-477.6 -55.05 -477.15 -58.95 -475.9 -61.05 -473.55 -61.7 L-469.5 -62.25 Q-468.7 -62.25 -470.25 -62.85 -456.5 -58.5 -455.6 -57.95 L-438.25 -49.9 -421.1 -41.1 Q-400.55 -30.15 -380.8 -17.5 -369.75 -10.45 -357.35 -6.7 -337.55 -0.7 -317.45 -6.5 -302.05 -10.95 -287.0 -16.45 -275.0 -20.75 -263.5 -25.7 L-257.75 -28.25 Q-249.45 -32.0 -241.4 -36.15 L-240.2 -37.15 -239.8 -38.0 -237.15 -38.0" fill="#000000" fill-rule="evenodd" stroke="none"/>
    <path d="M-415.2 8.15 L-417.4 4.9 Q-421.7 -2.5 -427.25 -9.35 -429.55 -12.2 -432.2 -14.6 -452.0 -32.45 -470.65 -51.0 L-472.55 -54.9 Q-473.05 -56.1 -473.2 -57.4 -471.3 -58.45 -469.0 -57.75 L-455.6 -53.25 -439.65 -46.45 -428.3 -41.1 Q-415.25 -34.35 -399.5 -24.75 -393.45 -19.55 -386.45 -15.55 -374.45 -8.65 -361.7 -3.5 -342.85 4.15 -322.5 -0.3 -318.4 -1.2 -314.6 -2.6 L-287.0 -12.9 Q-275.05 -16.95 -263.5 -22.0 L-257.75 -24.6 Q-247.95 -29.15 -238.5 -34.4 L-237.4 -37.15 -237.15 -38.0 -235.95 -38.0 -227.3 63.4 -287.55 47.65 -284.45 46.0 Q-285.45 44.15 -287.8 43.15 -290.95 42.0 -294.2 41.15 -305.35 38.4 -316.85 37.15 L-328.4 36.65 -336.2 37.1 -338.35 37.6 Q-355.5 42.8 -371.0 51.7 -380.35 57.1 -388.85 63.75 L-406.1 77.65 -422.5 91.9 -427.55 94.35 Q-430.35 95.7 -433.0 94.35 L-432.45 91.65 -417.8 62.25 Q-414.75 55.8 -413.3 49.05 -411.25 44.6 -410.4 39.75 -409.7 35.6 -410.0 31.2 -409.65 30.75 -409.3 30.75 -395.85 31.1 -383.75 27.2 L-383.1 26.85 -382.9 26.5 -382.6 25.2 Q-384.0 23.25 -386.0 22.15 L-386.05 22.1 Q-398.4 11.2 -415.2 8.15" fill="#999999" fill-rule="evenodd" stroke="none"/>
    <path d="M-415.2 8.15 Q-398.4 11.2 -386.05 22.1 L-386.0 22.15 Q-388.15 20.95 -390.95 20.65 -397.1 20.05 -402.25 18.0 -410.1 14.8 -415.2 8.15 M-422.5 91.9 L-406.1 77.65 -388.85 63.75 Q-380.35 57.1 -371.0 51.7 -355.5 42.8 -338.35 37.6 L-336.2 37.1 -328.4 36.65 -316.85 37.15 Q-305.35 38.4 -294.2 41.15 -290.95 42.0 -287.8 43.15 -285.45 44.15 -284.45 46.0 L-287.55 47.65 Q-297.75 44.35 -308.5 42.75 -320.0 41.1 -331.55 42.65 L-342.65 44.1 -344.35 44.5 Q-357.6 50.6 -370.75 56.85 L-402.6 79.0 Q-412.4 85.85 -422.5 91.9" fill="#666666" fill-rule="evenodd" stroke="none"/>
    <path d="M16.8 -1.9 Q21.3 0.7 25.7 3.45 29.55 5.75 31.2 9.7 33.05 14.25 30.55 18.65 25.35 27.85 14.95 32.85 10.35 35.05 5.95 37.55 -2.95 42.55 -12.4 46.5 -22.2 50.45 -32.3 53.2 L-42.8 56.0 -42.8 53.8 -42.85 56.0 Q-60.25 60.5 -75.95 55.8 L-76.4 55.7 -80.7 55.95 Q-84.45 60.0 -90.2 61.7 L-90.5 61.85 Q-107.0 68.3 -124.0 71.35 -149.85 76.9 -175.8 74.9 -203.25 73.45 -230.2 67.75 L-240.45 65.8 -240.45 65.1 -249.25 63.95 -295.5 50.6 Q-332.15 39.8 -363.7 58.3 -372.7 63.55 -381.25 69.4 L-405.3 85.9 Q-413.2 91.2 -421.75 95.65 -425.3 97.55 -429.1 98.65 -432.65 99.55 -435.75 97.45 L-435.75 94.0 Q-435.6 91.05 -434.85 88.15 -433.2 82.0 -429.7 76.65 -426.8 72.15 -424.3 67.45 L-420.55 60.05 Q-413.95 45.7 -413.05 30.2 L-412.15 29.1 -411.05 28.05 Q-398.45 28.05 -386.5 25.65 L-398.75 22.3 -409.6 18.75 Q-416.15 16.4 -422.6 4.75 -434.35 -11.8 -449.75 -24.95 L-452.15 -26.95 Q-462.55 -35.45 -471.95 -45.5 L-475.65 -51.95 Q-477.65 -55.2 -477.2 -59.1 -475.95 -61.2 -473.6 -61.85 L-469.55 -62.4 Q-468.75 -62.4 -470.3 -63.0 -456.55 -58.65 -455.65 -58.1 L-438.3 -50.05 -421.15 -41.25 Q-400.6 -30.3 -380.85 -17.65 -369.8 -10.6 -357.4 -6.85 -337.6 -0.85 -317.5 -6.65 -302.1 -11.1 -287.05 -16.6 -275.05 -20.9 -263.55 -25.85 L-257.8 -28.4 Q-249.5 -32.15 -241.45 -36.3 L-240.25 -37.3 -239.85 -38.15 -239.75 -38.15 -239.1 -39.8 -239.2 -44.05 Q-239.1 -45.8 -239.5 -47.35 L-245.2 -57.25 -244.75 -59.8 -235.65 -63.65 Q-241.0 -67.25 -246.65 -70.2 -256.5 -75.4 -253.7 -83.25 -219.45 -74.55 -188.2 -56.65 -181.15 -53.6 -174.0 -50.65 -161.4 -45.45 -149.95 -39.8 L-149.65 -39.9 Q-142.25 -42.3 -133.9 -42.2 L-125.4 -42.65 Q-110.95 -42.85 -97.0 -40.25 L-96.55 -40.1 -83.35 -38.15 Q-76.95 -36.95 -70.8 -35.15 L-66.75 -34.0 Q-61.05 -32.25 -55.5 -30.0 -49.95 -27.75 -46.0 -23.75 -44.5 -22.2 -44.15 -20.55 L-42.85 -20.75 -42.8 -18.5 -42.8 -20.75 Q-31.4 -21.55 -20.65 -18.15 -12.9 -15.65 -5.6 -12.1 -2.35 -10.5 1.3 -9.15 9.55 -6.1 16.8 -1.9 M-380.2 -12.2 L-386.5 -15.7 Q-393.5 -19.7 -399.55 -24.9 -415.3 -34.5 -428.35 -41.25 L-455.65 -53.4 -469.05 -57.9 Q-471.35 -58.6 -473.25 -57.55 -473.1 -56.25 -472.6 -55.05 L-470.7 -51.15 -461.4 -42.0 -460.05 -40.7 -449.75 -30.85 -432.25 -14.75 Q-429.6 -12.35 -427.3 -9.5 -421.75 -2.65 -417.45 4.75 L-415.25 8.0 Q-410.15 14.65 -402.3 17.85 -397.15 19.9 -391.0 20.5 -388.2 20.8 -386.05 22.0 -384.05 23.1 -382.65 25.05 L-382.95 26.35 -383.15 26.7 -383.8 27.05 Q-395.9 30.95 -409.35 30.6 L-410.05 31.05 Q-409.75 35.45 -410.45 39.6 -411.3 44.45 -413.35 48.9 -414.8 55.65 -417.85 62.1 L-432.5 91.5 -433.05 94.2 Q-430.4 95.55 -427.6 94.2 L-422.55 91.75 Q-412.45 85.7 -402.65 78.85 L-370.8 56.7 Q-357.65 50.45 -344.4 44.35 L-342.7 43.95 -331.6 42.5 Q-320.05 40.95 -308.55 42.6 -297.8 44.2 -287.6 47.5 L-227.35 63.25 -236.0 -38.15 -237.2 -38.15 -237.45 -37.3 -238.55 -34.55 -240.45 -33.5 Q-249.0 -28.85 -257.8 -24.75 L-263.55 -22.15 Q-275.1 -17.1 -287.05 -13.05 L-314.65 -2.75 Q-318.45 -1.35 -322.55 -0.45 -340.7 3.5 -357.65 -2.1 L-358.15 -2.3 -361.75 -3.65 Q-371.2 -7.45 -380.2 -12.2 M-62.7 -9.85 L-62.5 -9.8 -61.25 -10.05 -55.75 -12.55 Q-60.85 -13.75 -58.7 -18.35 L-60.65 -18.95 Q-69.55 -21.6 -78.8 -21.95 -78.85 -17.85 -75.8 -14.9 -70.4 -9.65 -62.7 -9.85 M-51.9 -14.7 Q-51.5 -14.95 -51.05 -15.15 L-49.6 -17.1 -51.8 -17.3 -51.7 -15.8 -51.9 -14.7 M-103.55 42.2 L-114.8 34.85 Q-114.5 37.15 -115.5 40.2 -117.2 45.35 -115.5 50.25 -111.4 45.4 -105.3 42.85 L-103.55 42.2 M-120.2 49.2 Q-121.85 41.2 -117.8 34.5 -131.55 38.55 -134.3 52.15 L-134.65 54.25 -119.15 52.9 -120.2 49.2 M-97.15 47.8 Q-97.0 49.0 -96.15 49.9 L-95.75 50.35 Q-95.45 51.2 -95.4 52.15 L-86.45 52.55 Q-91.75 50.3 -96.8 46.75 L-97.15 47.8 M-100.0 49.1 Q-100.35 47.1 -99.7 45.2 -104.3 46.2 -108.05 48.85 L-111.35 51.7 -111.65 52.1 -110.65 51.9 -98.95 52.05 Q-99.75 50.55 -100.0 49.1 M-150.05 20.05 L-146.45 17.75 -150.7 15.85 Q-152.95 14.85 -155.45 14.4 -163.05 13.05 -170.0 14.55 L-172.1 15.3 Q-174.85 16.45 -177.25 17.9 -177.3 19.7 -178.0 21.85 L-179.1 26.65 -179.4 31.0 -179.3 32.75 Q-178.35 42.1 -173.55 50.3 L-173.55 50.5 -170.95 53.05 Q-170.25 52.3 -170.5 50.45 L-170.5 50.3 Q-168.9 43.3 -165.0 37.3 L-165.0 36.45 -161.45 31.0 Q-156.65 24.6 -150.05 20.05 M-142.1 26.7 Q-142.4 33.05 -142.2 39.55 L-142.15 41.25 -138.35 48.45 -138.05 48.8 -137.95 48.6 Q-134.05 35.1 -120.65 31.3 L-122.75 30.05 Q-131.55 24.95 -140.65 20.5 L-141.85 22.1 -142.1 26.7 M-139.85 52.75 Q-144.7 49.2 -145.8 41.5 -147.25 31.2 -144.45 22.15 -150.85 25.8 -155.7 31.0 L-157.3 32.9 Q-163.5 40.6 -166.1 50.3 L-166.55 51.2 -166.6 53.7 -166.7 56.05 -136.75 54.4 -139.15 53.25 -139.85 52.75 M-154.0 70.6 Q-141.45 69.95 -129.2 67.55 L-115.45 64.5 Q-102.65 61.3 -90.35 56.4 L-97.7 56.3 Q-106.85 59.65 -116.2 62.15 -125.55 64.4 -135.15 65.5 L-154.4 67.1 -174.0 66.3 Q-184.7 65.55 -195.55 63.55 L-205.35 61.75 Q-213.8 60.25 -221.55 63.85 L-192.85 68.5 -173.75 70.55 Q-163.9 70.95 -154.0 70.6 M-174.8 54.25 Q-176.8 52.65 -178.3 50.3 L-179.25 48.35 Q-183.05 40.05 -183.05 31.0 -182.95 25.8 -181.3 20.75 -190.25 28.15 -192.15 41.15 -193.55 47.4 -193.5 54.0 L-193.4 56.45 Q-182.4 56.5 -171.35 56.2 L-171.85 56.0 -174.1 54.75 -174.8 54.25" fill="#000000" fill-rule="evenodd" stroke="none"/>
    <path d="M-61.25 -10.05 L-62.7 -9.85 Q-70.4 -9.65 -75.8 -14.9 -78.85 -17.85 -78.8 -21.95 -69.55 -21.6 -60.65 -18.95 L-58.7 -18.35 Q-60.85 -13.75 -55.75 -12.55 L-61.25 -10.05 M-134.3 52.15 Q-131.55 38.55 -117.8 34.5 -121.85 41.2 -120.2 49.2 L-120.35 49.15 Q-127.05 51.45 -134.3 52.15 M-103.55 42.2 L-105.3 42.85 Q-111.4 45.4 -115.5 50.25 -117.2 45.35 -115.5 40.2 -114.5 37.15 -114.8 34.85 L-103.55 42.2 M-51.9 -14.7 L-51.7 -15.8 -51.8 -17.3 -49.6 -17.1 -51.05 -15.15 Q-51.5 -14.95 -51.9 -14.7 M-97.15 47.8 L-96.8 46.75 Q-91.75 50.3 -86.45 52.55 L-95.4 52.15 Q-95.45 51.2 -95.75 50.35 L-96.15 49.9 Q-97.0 49.0 -97.15 47.8 M-108.05 48.85 Q-104.3 46.2 -99.7 45.2 -100.35 47.1 -100.0 49.1 L-108.05 48.85 M-110.65 51.9 L-111.65 52.1 -111.35 51.7 -110.65 51.9 M-179.1 26.65 L-178.1 26.5 -176.5 24.35 Q-171.25 13.9 -159.35 15.85 L-155.75 17.9 Q-153.0 19.55 -150.05 20.05 -156.65 24.6 -161.45 31.0 L-165.0 36.45 -165.0 37.3 Q-168.9 43.3 -170.5 50.3 L-170.5 50.45 Q-170.25 52.3 -170.95 53.05 L-173.55 50.5 -173.55 50.3 Q-178.35 42.1 -179.3 32.75 L-179.4 31.0 -179.1 26.65 M-142.1 26.7 L-142.05 26.65 Q-140.95 26.25 -140.35 25.25 L-139.4 25.35 Q-138.95 25.7 -138.35 25.35 -137.8 24.0 -136.1 25.05 -129.7 29.15 -122.75 30.05 L-120.65 31.3 Q-134.05 35.1 -137.95 48.6 L-138.35 48.45 -142.15 41.25 -142.2 39.55 Q-142.4 33.05 -142.1 26.7 M-166.6 53.7 L-166.55 51.2 -166.1 50.3 Q-163.5 40.6 -157.3 32.9 L-155.7 31.0 Q-150.85 25.8 -144.45 22.15 -147.25 31.2 -145.8 41.5 -144.7 49.2 -139.85 52.75 -148.05 53.5 -157.45 52.85 L-157.7 52.95 -158.45 53.6 Q-163.35 52.2 -166.6 53.7 M-193.5 54.0 Q-193.55 47.4 -192.15 41.15 -190.25 28.15 -181.3 20.75 -182.95 25.8 -183.05 31.0 -183.05 40.05 -179.25 48.35 L-178.3 50.3 Q-176.8 52.65 -174.8 54.25 L-176.95 54.05 -177.45 53.95 -178.7 52.95 -179.6 52.8 -190.75 52.7 Q-191.2 52.8 -191.8 53.2 -192.55 53.75 -193.5 54.0" fill="#ffffff" fill-rule="evenodd" stroke="none"/>
    <path d="M-380.2 -12.2 Q-371.2 -7.45 -361.75 -3.65 L-358.15 -2.3 -357.65 -2.1 Q-340.7 3.5 -322.55 -0.45 -318.45 -1.35 -314.65 -2.75 L-287.05 -13.05 Q-275.1 -17.1 -263.55 -22.15 L-257.8 -24.75 Q-249.0 -28.85 -240.45 -33.5 L-238.55 -34.55 -237.45 -37.3 -237.2 -38.15 -236.0 -38.15 -227.35 63.25 -287.6 47.5 -284.5 45.85 Q-285.5 44.0 -287.85 43.0 -291.0 41.85 -294.25 41.0 -305.4 38.25 -316.9 37.0 L-328.45 36.5 -336.25 36.95 -338.4 37.45 Q-355.55 42.65 -371.05 51.55 -380.4 56.95 -388.9 63.6 L-406.15 77.5 -422.55 91.75 -427.6 94.2 Q-430.4 95.55 -433.05 94.2 L-432.5 91.5 -417.85 62.1 Q-414.8 55.65 -413.35 48.9 -411.3 44.45 -410.45 39.6 -409.75 35.45 -410.05 31.05 L-409.35 30.6 Q-395.9 30.95 -383.8 27.05 L-383.15 26.7 -382.95 26.35 -382.65 25.05 Q-384.05 23.1 -386.05 22.0 L-386.1 21.95 Q-398.45 11.05 -415.25 8.0 L-417.45 4.75 Q-421.75 -2.65 -427.3 -9.5 -429.6 -12.35 -432.25 -14.75 L-449.75 -30.85 -460.05 -40.7 -461.4 -42.0 Q-470.85 -51.85 -464.2 -52.5 -461.3 -51.85 -449.75 -45.8 -440.65 -41.1 -426.25 -32.95 L-380.2 -12.2 M-62.7 -9.85 L-61.25 -10.05 -62.5 -9.8 -62.7 -9.85" fill="#999999" fill-rule="evenodd" stroke="none"/>
    <path d="M-134.3 52.15 Q-127.05 51.45 -120.35 49.15 L-120.2 49.2 -119.15 52.9 -134.65 54.25 -134.3 52.15 M-100.0 49.1 Q-99.75 50.55 -98.95 52.05 L-110.65 51.9 -111.35 51.7 -108.05 48.85 -100.0 49.1 M-150.05 20.05 Q-153.0 19.55 -155.75 17.9 L-159.35 15.85 Q-171.25 13.9 -176.5 24.35 L-178.1 26.5 -179.1 26.65 -178.0 21.85 Q-177.3 19.7 -177.25 17.9 -174.85 16.45 -172.1 15.3 L-170.0 14.55 Q-163.05 13.05 -155.45 14.4 -152.95 14.85 -150.7 15.85 L-146.45 17.75 -150.05 20.05 M-122.75 30.05 Q-129.7 29.15 -136.1 25.05 -137.8 24.0 -138.35 25.35 -138.95 25.7 -139.4 25.35 L-140.35 25.25 Q-140.95 26.25 -142.05 26.65 L-142.1 26.7 -141.85 22.1 -140.65 20.5 Q-131.55 24.95 -122.75 30.05 M-139.85 52.75 L-139.15 53.25 -136.75 54.4 -166.7 56.05 -166.6 53.7 Q-163.35 52.2 -158.45 53.6 L-157.7 52.95 -157.45 52.85 Q-148.05 53.5 -139.85 52.75 M-174.8 54.25 L-174.1 54.75 -171.85 56.0 -171.35 56.2 Q-182.4 56.5 -193.4 56.45 L-193.5 54.0 Q-192.55 53.75 -191.8 53.2 -191.2 52.8 -190.75 52.7 L-179.6 52.8 -178.7 52.95 -177.45 53.95 -176.95 54.05 -174.8 54.25" fill="#ffffcc" fill-rule="evenodd" stroke="none"/>
    <path d="M-287.6 47.5 Q-297.8 44.2 -308.55 42.6 -320.05 40.95 -331.6 42.5 L-342.7 43.95 -344.4 44.35 Q-357.65 50.45 -370.8 56.7 L-402.65 78.85 Q-412.45 85.7 -422.55 91.75 L-406.15 77.5 -388.9 63.6 Q-380.4 56.95 -371.05 51.55 -355.55 42.65 -338.4 37.45 L-336.25 36.95 -328.45 36.5 -316.9 37.0 Q-305.4 38.25 -294.25 41.0 -291.0 41.85 -287.85 43.0 -285.5 44.0 -284.5 45.85 L-287.6 47.5 M-386.05 22.0 Q-388.2 20.8 -391.0 20.5 -397.15 19.9 -402.3 17.85 -410.15 14.65 -415.25 8.0 -398.45 11.05 -386.1 21.95 L-386.05 22.0 M-154.0 70.6 Q-163.9 70.95 -173.75 70.55 L-192.85 68.5 -221.55 63.85 Q-213.8 60.25 -205.35 61.75 L-195.55 63.55 Q-184.7 65.55 -174.0 66.3 L-154.4 67.1 -135.15 65.5 Q-125.55 64.4 -116.2 62.15 -106.85 59.65 -97.7 56.3 L-90.35 56.4 Q-102.65 61.3 -115.45 64.5 L-129.2 67.55 Q-141.45 69.95 -154.0 70.6" fill="#666666" fill-rule="evenodd" stroke="none"/>
    <path d="M-461.4 -42.0 L-470.7 -51.15 -472.6 -55.05 Q-473.1 -56.25 -473.25 -57.55 -471.35 -58.6 -469.05 -57.9 L-455.65 -53.4 -428.35 -41.25 Q-415.3 -34.5 -399.55 -24.9 -393.5 -19.7 -386.5 -15.7 L-380.2 -12.2 -426.25 -32.95 Q-440.65 -41.1 -449.75 -45.8 -461.3 -51.85 -464.2 -52.5 -470.85 -51.85 -461.4 -42.0" fill="#b6b6b6" fill-rule="evenodd" stroke="none"/>
  </g>
</svg>
