<?xml version="1.0" encoding="UTF-8" standalone="no"?>
<svg xmlns:xlink="http://www.w3.org/1999/xlink" height="158.9px" width="377.15px" xmlns="http://www.w3.org/2000/svg">
  <g transform="matrix(1.0, 0.0, 0.0, 1.0, 345.15, 83.25)">
    <path d="M-240.45 59.85 L-240.45 -33.3 -238.5 -34.4 -237.4 -37.15 Q-236.7 -39.45 -236.4 -41.85 L-232.1 -47.2 -236.5 -56.4 -236.05 -60.3 -232.05 -62.75 Q-236.85 -69.05 -244.05 -73.05 -247.5 -74.95 -249.9 -78.05 L-154.5 -34.0 -150.1 -34.4 Q-125.1 -36.8 -100.1 -33.6 -77.85 -30.5 -60.45 -23.5 L-66.75 -24.55 -83.35 -25.75 Q-88.25 -25.5 -93.05 -23.8 L-112.45 -16.65 Q-103.7 -15.15 -93.3 -19.15 -90.9 -20.1 -88.45 -20.7 -90.25 -16.95 -87.1 -13.2 -82.35 -7.85 -75.9 -4.8 -71.55 -3.1 -69.1 -3.95 -62.45 -2.5 -57.6 -6.55 L-47.35 -14.6 Q-37.1 -15.35 -26.9 -11.6 0.45 -3.35 19.75 8.4 26.65 13.3 24.35 18.25 L24.35 18.3 Q14.85 27.3 2.3 31.75 -26.9 42.4 -58.9 46.8 -72.4 47.3 -82.9 40.4 L-129.3 11.6 Q-144.95 3.55 -161.95 10.0 -171.5 9.3 -178.25 14.05 L-178.95 14.55 Q-182.3 15.95 -186.55 20.45 -196.0 31.15 -197.4 58.55 L-197.05 59.0 -196.25 59.85 Q-195.1 60.4 -194.4 59.85 -180.95 62.0 -167.2 60.8 L-149.35 59.0 Q-123.35 56.2 -97.7 56.3 -106.85 59.65 -116.2 62.15 -125.55 64.4 -135.15 65.5 L-154.4 67.1 -174.0 66.3 Q-184.7 65.55 -195.55 63.55 L-205.35 61.75 Q-213.8 60.25 -221.55 63.85 L-240.45 59.85 M-61.25 -10.05 L-62.5 -9.8 -62.7 -9.85 -61.25 -10.05 M-195.25 9.75 L-196.15 10.25 Q-200.65 14.2 -202.75 19.7 -200.1 18.65 -197.75 15.45 -194.8 11.5 -195.25 9.75 M-183.9 7.05 L-185.4 7.8 Q-195.95 13.9 -199.5 25.35 -197.65 23.45 -196.15 20.75 -194.5 17.9 -192.15 15.75 L-190.75 14.55 -187.7 12.6 Q-181.7 9.4 -183.9 7.05" fill="#999999" fill-rule="evenodd" stroke="none"/>
    <path d="M-42.8 -16.25 L-42.8 -20.75 Q-31.4 -21.55 -20.65 -18.15 -12.9 -15.65 -5.6 -12.1 -2.35 -10.5 1.3 -9.15 9.55 -6.1 16.8 -1.9 21.3 0.7 25.7 3.45 29.55 5.75 31.2 9.7 33.05 14.25 30.55 18.65 25.35 27.85 14.95 32.85 10.35 35.05 5.95 37.55 -2.95 42.55 -12.4 46.5 -22.2 50.45 -32.3 53.2 L-42.8 56.0 -42.8 50.15 -21.55 44.8 Q-10.05 41.75 0.15 36.2 8.65 31.65 16.15 25.85 20.6 22.4 24.15 18.5 L24.35 18.3 24.35 18.25 Q28.15 13.75 25.6 8.6 12.9 1.25 -0.6 -5.0 -11.45 -10.1 -23.2 -13.5 -31.4 -15.95 -39.9 -16.2 L-42.8 -16.25 M-42.85 50.15 L-42.85 56.0 Q-60.25 60.5 -75.95 55.8 L-76.4 55.7 -80.7 55.95 Q-84.45 60.0 -90.2 61.7 L-90.5 61.85 Q-107.0 68.3 -124.0 71.35 -149.85 76.9 -175.8 74.9 -203.25 73.45 -230.2 67.75 L-240.45 65.8 -240.45 59.85 -221.55 63.85 -192.85 68.5 -173.75 70.55 Q-163.9 70.95 -154.0 70.6 -141.45 69.95 -129.2 67.55 L-115.45 64.5 Q-102.65 61.3 -90.35 56.4 L-97.7 56.3 Q-123.35 56.2 -149.35 59.0 L-167.2 60.8 Q-180.95 62.0 -194.4 59.85 -195.1 60.4 -196.25 59.85 L-197.05 59.0 -197.4 58.55 Q-196.0 31.15 -186.55 20.45 -182.3 15.95 -178.95 14.55 L-178.25 14.05 Q-171.5 9.3 -161.95 10.0 L-158.3 10.45 -155.5 10.6 Q-137.9 13.7 -122.8 24.3 -100.85 39.7 -76.25 49.95 -72.55 51.45 -68.6 52.1 L-68.3 52.15 -62.1 52.3 Q-55.05 53.15 -48.05 51.45 L-42.85 50.15 M-240.45 -33.3 L-240.45 -36.85 -240.2 -37.15 -239.1 -39.8 -239.2 -44.05 Q-239.1 -45.8 -239.5 -47.35 L-245.2 -57.25 -244.75 -59.8 -235.65 -63.65 Q-241.0 -67.25 -246.65 -70.2 -256.5 -75.4 -253.7 -83.25 -219.45 -74.55 -188.2 -56.65 -181.15 -53.6 -174.0 -50.65 -161.4 -45.45 -149.95 -39.8 L-149.65 -39.9 Q-142.25 -42.3 -133.9 -42.2 L-125.4 -42.65 Q-110.95 -42.85 -97.0 -40.25 L-96.55 -40.1 -83.35 -38.15 Q-76.95 -36.95 -70.8 -35.15 L-66.75 -34.0 Q-61.05 -32.25 -55.5 -30.0 -49.95 -27.75 -46.0 -23.75 -44.5 -22.2 -44.15 -20.55 L-42.85 -20.75 -42.85 -16.25 -45.6 -16.1 -47.35 -14.6 -57.6 -6.55 Q-62.45 -2.5 -69.1 -3.95 L-69.45 -4.05 -66.05 -4.9 -64.3 -5.9 -60.45 -8.2 -62.95 -7.7 -66.75 -7.45 Q-68.75 -7.95 -70.75 -9.05 L-74.45 -10.55 Q-77.45 -11.8 -79.15 -15.15 -80.85 -18.45 -81.25 -21.4 L-81.3 -21.85 -83.35 -21.65 -88.45 -20.7 Q-90.9 -20.1 -93.3 -19.15 -103.7 -15.15 -112.45 -16.65 L-93.05 -23.8 Q-88.25 -25.5 -83.35 -25.75 L-66.75 -24.55 -60.45 -23.5 -50.7 -21.15 -50.65 -21.15 -50.7 -21.2 -51.4 -22.5 Q-58.8 -26.45 -66.75 -29.25 L-83.35 -34.05 Q-91.1 -35.85 -99.1 -36.95 -124.4 -39.3 -148.85 -37.4 L-149.2 -36.95 -149.65 -36.8 Q-152.0 -36.35 -154.4 -37.7 L-155.35 -38.1 Q-171.8 -45.65 -188.2 -53.5 L-198.15 -58.35 Q-224.0 -69.6 -248.6 -79.95 L-250.85 -79.4 -249.9 -78.05 Q-247.5 -74.95 -244.05 -73.05 -236.85 -69.05 -232.05 -62.75 L-236.05 -60.3 -240.8 -57.4 -239.2 -55.25 Q-236.45 -51.85 -236.3 -47.35 -236.1 -44.55 -236.4 -41.85 -236.7 -39.45 -237.4 -37.15 L-238.5 -34.4 -240.45 -33.3 M-61.25 -10.05 L-55.75 -12.55 Q-60.85 -13.75 -58.7 -18.35 L-60.65 -18.95 Q-69.55 -21.6 -78.8 -21.95 -78.85 -17.85 -75.8 -14.9 -70.4 -9.65 -62.7 -9.85 L-62.5 -9.8 -61.25 -10.05 M-51.9 -14.7 Q-51.5 -14.95 -51.05 -15.15 L-49.6 -17.1 -51.8 -17.3 -51.7 -15.8 -51.9 -14.7 M-114.8 49.45 Q-111.8 46.2 -107.85 44.05 L-105.3 42.85 -103.55 42.2 -114.8 34.85 Q-114.5 37.15 -115.5 40.2 -117.2 45.35 -115.5 50.25 L-114.8 49.45 M-130.05 53.85 L-119.15 52.9 -120.2 49.2 Q-121.05 45.15 -120.4 41.45 -119.8 37.8 -117.8 34.5 -131.55 38.55 -134.3 52.15 L-134.65 54.25 -130.05 53.85 M-99.3 51.35 L-100.0 49.1 Q-100.35 47.1 -99.7 45.2 -104.3 46.2 -108.05 48.85 L-111.35 51.7 -111.7 52.05 -111.75 52.15 -111.65 52.1 -110.65 51.9 -106.3 51.95 -98.95 52.05 -99.3 51.35 M-90.55 52.4 L-86.45 52.55 Q-91.75 50.3 -96.8 46.75 L-97.15 47.8 Q-97.0 49.0 -96.15 49.9 L-95.75 50.35 Q-95.45 51.2 -95.4 52.15 L-90.55 52.4 M-152.7 22.05 L-150.05 20.05 -146.45 17.75 -150.7 15.85 Q-152.95 14.85 -155.45 14.4 -163.05 13.05 -170.0 14.55 L-172.1 15.3 Q-174.85 16.45 -177.25 17.9 -177.3 19.7 -178.0 21.85 L-179.1 26.65 -179.4 31.0 -179.3 32.75 Q-178.35 42.1 -173.55 50.3 L-173.55 50.5 -170.95 53.05 Q-170.25 52.3 -170.5 50.45 L-170.5 50.3 -169.1 45.6 Q-167.55 41.25 -165.0 37.3 L-165.0 36.45 -161.45 31.0 Q-157.65 25.95 -152.7 22.05 M-125.5 33.15 Q-123.25 32.05 -120.65 31.3 L-122.75 30.05 Q-131.55 24.95 -140.65 20.5 L-141.85 22.1 -142.1 26.7 Q-142.4 33.05 -142.2 39.55 L-142.15 41.25 -138.35 48.45 -138.05 48.8 -137.95 48.6 Q-134.8 37.75 -125.5 33.15 M-158.7 55.6 L-136.75 54.4 -139.15 53.25 -139.85 52.75 Q-144.7 49.2 -145.8 41.5 -146.25 38.35 -146.3 35.4 -146.4 28.45 -144.45 22.15 -150.85 25.8 -155.7 31.0 L-157.3 32.9 Q-163.5 40.6 -166.1 50.3 L-166.55 51.2 -166.7 56.05 -158.7 55.6 M-183.9 7.05 Q-181.7 9.4 -187.7 12.6 L-190.75 14.55 -192.15 15.75 Q-194.5 17.9 -196.15 20.75 -197.65 23.45 -199.5 25.35 -195.95 13.9 -185.4 7.8 L-183.9 7.05 M-195.25 9.75 Q-194.8 11.5 -197.75 15.45 -200.1 18.65 -202.75 19.7 -200.65 14.2 -196.15 10.25 L-195.25 9.75 M-181.95 40.55 Q-183.05 35.85 -183.05 31.0 -182.95 25.8 -181.3 20.75 -190.25 28.15 -192.15 41.15 -193.55 47.4 -193.5 54.0 L-193.4 56.45 -187.7 56.45 -171.35 56.2 -171.85 56.0 -174.1 54.75 -174.8 54.25 Q-176.8 52.65 -178.3 50.3 L-179.25 48.35 Q-180.85 44.8 -181.8 41.15 L-181.95 40.55" fill="#000000" fill-rule="evenodd" stroke="none"/>
    <path d="M-62.7 -9.85 Q-70.4 -9.65 -75.8 -14.9 -78.85 -17.85 -78.8 -21.95 -69.55 -21.6 -60.65 -18.95 L-58.7 -18.35 Q-60.85 -13.75 -55.75 -12.55 L-61.25 -10.05 -62.7 -9.85 M-51.9 -14.7 L-51.7 -15.8 -51.8 -17.3 -49.6 -17.1 -51.05 -15.15 Q-51.5 -14.95 -51.9 -14.7 M-114.8 49.45 L-112.7 40.6 -107.85 44.05 Q-111.8 46.2 -114.8 49.45 M-120.4 41.45 Q-121.05 45.15 -120.2 49.2 L-119.15 52.9 -130.05 53.85 -129.7 49.4 Q-127.3 42.45 -120.3 37.8 L-120.4 41.45 M-99.3 51.35 L-98.95 52.05 -106.3 51.95 -101.1 48.4 -99.3 51.35 M-95.4 52.15 L-94.3 50.4 -90.55 52.4 -95.4 52.15 M-169.1 45.6 Q-173.0 39.95 -173.3 33.6 -173.4 26.2 -170.5 20.0 -166.05 17.65 -160.9 19.2 L-152.7 22.05 Q-157.65 25.95 -161.45 31.0 L-165.0 36.45 -165.0 37.3 Q-167.55 41.25 -169.1 45.6 M-125.5 33.15 Q-134.8 37.75 -137.95 48.6 L-138.35 48.45 -140.7 37.8 Q-142.2 31.35 -137.7 26.4 -129.9 29.1 -125.5 33.15 M-146.3 35.4 Q-146.25 38.35 -145.8 41.5 -144.7 49.2 -139.85 52.75 L-139.15 53.25 -136.75 54.4 -158.7 55.6 Q-160.25 53.1 -158.9 50.6 -156.45 39.0 -149.3 28.6 L-146.3 35.4 M-187.7 56.45 Q-190.9 51.0 -189.7 44.8 -189.55 37.6 -184.7 30.4 L-181.95 40.55 -181.8 41.15 Q-180.85 44.8 -179.25 48.35 L-178.3 50.3 Q-176.8 52.65 -174.8 54.25 L-174.1 54.75 -171.85 56.0 -171.35 56.2 -187.7 56.45" fill="#ffffff" fill-rule="evenodd" stroke="none"/>
    <path d="M-42.8 50.15 L-42.85 50.15 -48.05 51.45 Q-55.05 53.15 -62.1 52.3 L-68.3 52.15 -68.6 52.1 Q-72.55 51.45 -76.25 49.95 -100.85 39.7 -122.8 24.3 -137.9 13.7 -155.5 10.6 L-158.3 10.45 -161.95 10.0 Q-144.95 3.55 -129.3 11.6 L-82.9 40.4 Q-72.4 47.3 -58.9 46.8 -26.9 42.4 2.3 31.75 14.85 27.3 24.35 18.3 L24.15 18.5 Q20.6 22.4 16.15 25.85 8.65 31.65 0.15 36.2 -10.05 41.75 -21.55 44.8 L-42.8 50.15 M-236.05 -60.3 L-236.5 -56.4 -232.1 -47.2 -236.4 -41.85 Q-236.1 -44.55 -236.3 -47.35 -236.45 -51.85 -239.2 -55.25 L-240.8 -57.4 -236.05 -60.3 M-97.7 56.3 L-90.35 56.4 Q-102.65 61.3 -115.45 64.5 L-129.2 67.55 Q-141.45 69.95 -154.0 70.6 -163.9 70.95 -173.75 70.55 L-192.85 68.5 -221.55 63.85 Q-213.8 60.25 -205.35 61.75 L-195.55 63.55 Q-184.7 65.55 -174.0 66.3 L-154.4 67.1 -135.15 65.5 Q-125.55 64.4 -116.2 62.15 -106.85 59.65 -97.7 56.3" fill="#666666" fill-rule="evenodd" stroke="none"/>
    <path d="M-83.35 -21.65 Q-83.6 -17.05 -81.9 -13.8 -79.35 -9.9 -73.3 -7.4 -68.8 -5.5 -64.3 -5.9 L-66.05 -4.9 -69.45 -4.05 -69.1 -3.95 Q-71.55 -3.1 -75.9 -4.8 -82.35 -7.85 -87.1 -13.2 -90.25 -16.95 -88.45 -20.7 L-83.35 -21.65" fill="#7b7b7b" fill-rule="evenodd" stroke="none"/>
    <path d="M-83.35 -21.65 L-81.3 -21.85 -81.25 -21.4 Q-80.85 -18.45 -79.15 -15.15 -77.45 -11.8 -74.45 -10.55 L-70.75 -9.05 Q-68.75 -7.95 -66.75 -7.45 L-62.95 -7.7 -60.45 -8.2 -64.3 -5.9 Q-68.8 -5.5 -73.3 -7.4 -79.35 -9.9 -81.9 -13.8 -83.6 -17.05 -83.35 -21.65" fill="#646464" fill-rule="evenodd" stroke="none"/>
    <path d="M-42.85 -16.25 L-42.8 -16.25 -39.9 -16.2 Q-31.4 -15.95 -23.2 -13.5 -11.45 -10.1 -0.6 -5.0 12.9 1.25 25.6 8.6 28.15 13.75 24.35 18.25 26.65 13.3 19.75 8.4 0.45 -3.35 -26.9 -11.6 -37.1 -15.35 -47.35 -14.6 L-45.6 -16.1 -42.85 -16.25 M-249.9 -78.05 L-250.85 -79.4 -248.6 -79.95 Q-224.0 -69.6 -198.15 -58.35 L-188.2 -53.5 Q-171.8 -45.65 -155.35 -38.1 L-154.4 -37.7 Q-152.0 -36.35 -149.65 -36.8 L-149.2 -36.95 -148.85 -37.4 Q-124.4 -39.3 -99.1 -36.95 -91.1 -35.85 -83.35 -34.05 L-66.75 -29.25 Q-58.8 -26.45 -51.4 -22.5 L-50.7 -21.2 -50.7 -21.15 -60.45 -23.5 Q-77.85 -30.5 -100.1 -33.6 -125.1 -36.8 -150.1 -34.4 L-154.5 -34.0 -249.9 -78.05" fill="#b6b6b6" fill-rule="evenodd" stroke="none"/>
    <path d="M-107.85 44.05 L-112.7 40.6 -114.8 49.45 -115.5 50.25 Q-117.2 45.35 -115.5 40.2 -114.5 37.15 -114.8 34.85 L-103.55 42.2 -105.3 42.85 -107.85 44.05 M-120.4 41.45 L-120.3 37.8 Q-127.3 42.45 -129.7 49.4 L-130.05 53.85 -134.65 54.25 -134.3 52.15 Q-131.55 38.55 -117.8 34.5 -119.8 37.8 -120.4 41.45 M-111.7 52.05 L-111.35 51.7 -108.05 48.85 Q-104.3 46.2 -99.7 45.2 -100.35 47.1 -100.0 49.1 L-99.3 51.35 -101.1 48.4 -106.3 51.95 -110.65 51.9 -111.65 52.1 -111.7 52.05 M-95.4 52.15 Q-95.45 51.2 -95.75 50.35 L-96.15 49.9 Q-97.0 49.0 -97.15 47.8 L-96.8 46.75 Q-91.75 50.3 -86.45 52.55 L-90.55 52.4 -94.3 50.4 -95.4 52.15 M-152.7 22.05 L-160.9 19.2 Q-166.05 17.65 -170.5 20.0 -173.4 26.2 -173.3 33.6 -173.0 39.95 -169.1 45.6 L-170.5 50.3 -170.5 50.45 Q-170.25 52.3 -170.95 53.05 L-173.55 50.5 -173.55 50.3 Q-178.35 42.1 -179.3 32.75 L-179.4 31.0 -179.1 26.65 -178.0 21.85 Q-177.3 19.7 -177.25 17.9 -174.85 16.45 -172.1 15.3 L-170.0 14.55 Q-163.05 13.05 -155.45 14.4 -152.95 14.85 -150.7 15.85 L-146.45 17.75 -150.05 20.05 -152.7 22.05 M-138.35 48.45 L-142.15 41.25 -142.2 39.55 Q-142.4 33.05 -142.1 26.7 L-141.85 22.1 -140.65 20.5 Q-131.55 24.95 -122.75 30.05 L-120.65 31.3 Q-123.25 32.05 -125.5 33.15 -129.9 29.1 -137.7 26.4 -142.2 31.35 -140.7 37.8 L-138.35 48.45 M-158.7 55.6 L-166.7 56.05 -166.55 51.2 -166.1 50.3 Q-163.5 40.6 -157.3 32.9 L-155.7 31.0 Q-150.85 25.8 -144.45 22.15 -146.4 28.45 -146.3 35.4 L-149.3 28.6 Q-156.45 39.0 -158.9 50.6 -160.25 53.1 -158.7 55.6 M-181.95 40.55 L-184.7 30.4 Q-189.55 37.6 -189.7 44.8 -190.9 51.0 -187.7 56.45 L-193.4 56.45 -193.5 54.0 Q-193.55 47.4 -192.15 41.15 -190.25 28.15 -181.3 20.75 -182.95 25.8 -183.05 31.0 -183.05 35.85 -181.95 40.55" fill="#d0d0d0" fill-rule="evenodd" stroke="none"/>
    <path d="M-216.65 59.0 L-216.25 58.95 -212.35 58.85 -209.5 59.4 Q-216.3 66.15 -226.7 68.55 -237.1 70.95 -247.55 72.75 L-262.85 74.85 -275.15 75.55 Q-308.45 76.45 -340.65 70.5 -344.95 69.7 -345.15 65.9 -345.45 60.0 -339.2 57.95 -319.85 51.65 -299.15 47.55 -278.5 43.45 -279.55 45.6 -291.75 51.4 -305.35 54.15 L-307.9 54.5 Q-321.25 56.95 -334.35 60.9 -336.0 61.4 -337.45 62.25 -339.35 63.25 -340.95 64.75 -331.8 68.05 -321.35 69.15 -292.15 72.1 -262.85 69.8 L-261.35 69.65 Q-240.25 67.85 -220.5 60.1 L-216.65 59.0" fill="#000000" fill-rule="evenodd" stroke="none"/>
    <path d="M-212.35 58.85 L-216.25 58.95 -216.65 59.0 -251.7 64.0 Q-280.1 68.95 -311.35 66.8 -325.1 67.3 -337.45 62.25 -336.0 61.4 -334.35 60.9 -321.25 56.95 -307.9 54.5 L-305.35 54.15 Q-291.75 51.4 -279.55 45.6 L-212.35 58.85" fill="#999999" fill-rule="evenodd" stroke="none"/>
    <path d="M-216.65 59.0 L-220.5 60.1 Q-240.25 67.85 -261.35 69.65 L-262.85 69.8 Q-292.15 72.1 -321.35 69.15 -331.8 68.05 -340.95 64.75 -339.35 63.25 -337.45 62.25 -325.1 67.3 -311.35 66.8 -280.1 68.95 -251.7 64.0 L-216.65 59.0" fill="#666666" fill-rule="evenodd" stroke="none"/>
    <path d="M-209.5 59.4 L-212.35 58.85" fill="none" stroke="#666666" stroke-linecap="round" stroke-linejoin="round" stroke-width="0.05"/>
  </g>
</svg>
