<?xml version="1.0" encoding="UTF-8" standalone="no"?>
<svg xmlns:xlink="http://www.w3.org/1999/xlink" height="30.8px" width="135.65px" xmlns="http://www.w3.org/2000/svg">
  <g transform="matrix(1.0, 0.0, 0.0, 1.0, 345.15, -44.85)">
    <path d="M-212.35 58.85 L-209.5 59.4 Q-216.3 66.15 -226.7 68.55 -237.1 70.95 -247.55 72.75 L-262.2 74.8 -275.15 75.55 Q-308.45 76.45 -340.65 70.5 -344.95 69.7 -345.15 65.9 -345.45 60.0 -339.2 57.95 -319.85 51.65 -299.15 47.55 -278.5 43.45 -279.55 45.6 -291.75 51.4 -305.35 54.15 L-307.9 54.5 Q-321.25 56.95 -334.35 60.9 -338.15 62.1 -340.95 64.75 -331.8 68.05 -321.35 69.15 -292.15 72.1 -262.85 69.8 L-261.35 69.65 Q-240.25 67.85 -220.5 60.1 -216.25 58.45 -212.35 58.85" fill="#000000" fill-rule="evenodd" stroke="none"/>
    <path d="M-212.35 58.85 Q-216.25 58.45 -220.5 60.1 -240.25 67.85 -261.35 69.65 L-262.85 69.8 Q-292.15 72.1 -321.35 69.15 -331.8 68.05 -340.95 64.75 -338.15 62.1 -334.35 60.9 -321.25 56.95 -307.9 54.5 L-305.35 54.15 Q-291.75 51.4 -279.55 45.6 L-212.35 58.85" fill="#999999" fill-rule="evenodd" stroke="none"/>
    <path d="M-209.5 59.4 L-212.35 58.85" fill="none" stroke="#666666" stroke-linecap="round" stroke-linejoin="round" stroke-width="0.05"/>
  </g>
</svg>
